%TF.GenerationSoftware,KiCad,Pcbnew,(7.0.0)*%
%TF.CreationDate,2024-04-06T15:00:31+02:00*%
%TF.ProjectId,forti,666f7274-692e-46b6-9963-61645f706362,rev?*%
%TF.SameCoordinates,Original*%
%TF.FileFunction,Legend,Top*%
%TF.FilePolarity,Positive*%
%FSLAX46Y46*%
G04 Gerber Fmt 4.6, Leading zero omitted, Abs format (unit mm)*
G04 Created by KiCad (PCBNEW (7.0.0)) date 2024-04-06 15:00:31*
%MOMM*%
%LPD*%
G01*
G04 APERTURE LIST*
%ADD10C,0.150000*%
%ADD11C,0.120000*%
G04 APERTURE END LIST*
D10*
X238295059Y-26882592D02*
X238056964Y-27882592D01*
X238056964Y-27882592D02*
X237866488Y-27168307D01*
X237866488Y-27168307D02*
X237676012Y-27882592D01*
X237676012Y-27882592D02*
X237437917Y-26882592D01*
X236628393Y-27882592D02*
X236628393Y-27358783D01*
X236628393Y-27358783D02*
X236676012Y-27263545D01*
X236676012Y-27263545D02*
X236771250Y-27215926D01*
X236771250Y-27215926D02*
X236961726Y-27215926D01*
X236961726Y-27215926D02*
X237056964Y-27263545D01*
X236628393Y-27834973D02*
X236723631Y-27882592D01*
X236723631Y-27882592D02*
X236961726Y-27882592D01*
X236961726Y-27882592D02*
X237056964Y-27834973D01*
X237056964Y-27834973D02*
X237104583Y-27739735D01*
X237104583Y-27739735D02*
X237104583Y-27644497D01*
X237104583Y-27644497D02*
X237056964Y-27549259D01*
X237056964Y-27549259D02*
X236961726Y-27501640D01*
X236961726Y-27501640D02*
X236723631Y-27501640D01*
X236723631Y-27501640D02*
X236628393Y-27454021D01*
X236247440Y-27215926D02*
X236009345Y-27882592D01*
X235771250Y-27215926D02*
X236009345Y-27882592D01*
X236009345Y-27882592D02*
X236104583Y-28120688D01*
X236104583Y-28120688D02*
X236152202Y-28168307D01*
X236152202Y-28168307D02*
X236247440Y-28215926D01*
X235485535Y-26882592D02*
X235247440Y-27882592D01*
X235247440Y-27882592D02*
X235056964Y-27168307D01*
X235056964Y-27168307D02*
X234866488Y-27882592D01*
X234866488Y-27882592D02*
X234628393Y-26882592D01*
X233818869Y-27882592D02*
X233818869Y-27358783D01*
X233818869Y-27358783D02*
X233866488Y-27263545D01*
X233866488Y-27263545D02*
X233961726Y-27215926D01*
X233961726Y-27215926D02*
X234152202Y-27215926D01*
X234152202Y-27215926D02*
X234247440Y-27263545D01*
X233818869Y-27834973D02*
X233914107Y-27882592D01*
X233914107Y-27882592D02*
X234152202Y-27882592D01*
X234152202Y-27882592D02*
X234247440Y-27834973D01*
X234247440Y-27834973D02*
X234295059Y-27739735D01*
X234295059Y-27739735D02*
X234295059Y-27644497D01*
X234295059Y-27644497D02*
X234247440Y-27549259D01*
X234247440Y-27549259D02*
X234152202Y-27501640D01*
X234152202Y-27501640D02*
X233914107Y-27501640D01*
X233914107Y-27501640D02*
X233818869Y-27454021D01*
X233437916Y-27215926D02*
X233199821Y-27882592D01*
X232961726Y-27215926D02*
X233199821Y-27882592D01*
X233199821Y-27882592D02*
X233295059Y-28120688D01*
X233295059Y-28120688D02*
X233342678Y-28168307D01*
X233342678Y-28168307D02*
X233437916Y-28215926D01*
X232676011Y-26882592D02*
X232437916Y-27882592D01*
X232437916Y-27882592D02*
X232247440Y-27168307D01*
X232247440Y-27168307D02*
X232056964Y-27882592D01*
X232056964Y-27882592D02*
X231818869Y-26882592D01*
X231009345Y-27882592D02*
X231009345Y-27358783D01*
X231009345Y-27358783D02*
X231056964Y-27263545D01*
X231056964Y-27263545D02*
X231152202Y-27215926D01*
X231152202Y-27215926D02*
X231342678Y-27215926D01*
X231342678Y-27215926D02*
X231437916Y-27263545D01*
X231009345Y-27834973D02*
X231104583Y-27882592D01*
X231104583Y-27882592D02*
X231342678Y-27882592D01*
X231342678Y-27882592D02*
X231437916Y-27834973D01*
X231437916Y-27834973D02*
X231485535Y-27739735D01*
X231485535Y-27739735D02*
X231485535Y-27644497D01*
X231485535Y-27644497D02*
X231437916Y-27549259D01*
X231437916Y-27549259D02*
X231342678Y-27501640D01*
X231342678Y-27501640D02*
X231104583Y-27501640D01*
X231104583Y-27501640D02*
X231009345Y-27454021D01*
X230628392Y-27215926D02*
X230390297Y-27882592D01*
X230152202Y-27215926D02*
X230390297Y-27882592D01*
X230390297Y-27882592D02*
X230485535Y-28120688D01*
X230485535Y-28120688D02*
X230533154Y-28168307D01*
X230533154Y-28168307D02*
X230628392Y-28215926D01*
D11*
%TO.C,J1*%
X238969115Y-28093750D02*
X238969115Y-26093750D01*
X238969115Y-24193750D02*
X238969115Y-22293750D01*
X238969115Y-22293750D02*
X229569115Y-22293750D01*
X229569115Y-28093750D02*
X229569115Y-26093750D01*
X229569115Y-24193750D02*
X229569115Y-22293750D01*
%TO.C,G\u002A\u002A\u002A*%
G36*
X51715581Y-89963255D02*
G01*
X51567907Y-90110930D01*
X51420233Y-89963255D01*
X51567907Y-89815581D01*
X51715581Y-89963255D01*
G37*
G36*
X57327209Y-106502790D02*
G01*
X57179535Y-106650465D01*
X57031860Y-106502790D01*
X57179535Y-106355116D01*
X57327209Y-106502790D01*
G37*
G36*
X62938837Y-73128372D02*
G01*
X62791163Y-73276046D01*
X62643488Y-73128372D01*
X62791163Y-72980697D01*
X62938837Y-73128372D01*
G37*
G36*
X84499302Y-98233023D02*
G01*
X84351628Y-98380697D01*
X84203953Y-98233023D01*
X84351628Y-98085348D01*
X84499302Y-98233023D01*
G37*
G36*
X89224884Y-111228372D02*
G01*
X89077209Y-111376046D01*
X88929535Y-111228372D01*
X89077209Y-111080697D01*
X89224884Y-111228372D01*
G37*
G36*
X96017907Y-88781860D02*
G01*
X95870233Y-88929534D01*
X95722558Y-88781860D01*
X95870233Y-88634186D01*
X96017907Y-88781860D01*
G37*
G36*
X98971395Y-101481860D02*
G01*
X98823721Y-101629534D01*
X98676047Y-101481860D01*
X98823721Y-101334186D01*
X98971395Y-101481860D01*
G37*
G36*
X106355116Y-84351627D02*
G01*
X106207442Y-84499302D01*
X106059767Y-84351627D01*
X106207442Y-84203953D01*
X106355116Y-84351627D01*
G37*
G36*
X110490000Y-97937674D02*
G01*
X110342326Y-98085348D01*
X110194651Y-97937674D01*
X110342326Y-97790000D01*
X110490000Y-97937674D01*
G37*
G36*
X115806279Y-91144651D02*
G01*
X115658605Y-91292325D01*
X115510930Y-91144651D01*
X115658605Y-90996976D01*
X115806279Y-91144651D01*
G37*
G36*
X122599302Y-110933023D02*
G01*
X122451628Y-111080697D01*
X122303953Y-110933023D01*
X122451628Y-110785348D01*
X122599302Y-110933023D01*
G37*
G36*
X131164419Y-91440000D02*
G01*
X131016744Y-91587674D01*
X130869070Y-91440000D01*
X131016744Y-91292325D01*
X131164419Y-91440000D01*
G37*
G36*
X157155116Y-50681860D02*
G01*
X157007442Y-50829534D01*
X156859767Y-50681860D01*
X157007442Y-50534186D01*
X157155116Y-50681860D01*
G37*
G36*
X169264419Y-51863255D02*
G01*
X169116744Y-52010930D01*
X168969070Y-51863255D01*
X169116744Y-51715581D01*
X169264419Y-51863255D01*
G37*
G36*
X213862093Y-79035348D02*
G01*
X213714419Y-79183023D01*
X213566744Y-79035348D01*
X213714419Y-78887674D01*
X213862093Y-79035348D01*
G37*
G36*
X220064419Y-108274883D02*
G01*
X219916744Y-108422558D01*
X219769070Y-108274883D01*
X219916744Y-108127209D01*
X220064419Y-108274883D01*
G37*
G36*
X221541163Y-111819069D02*
G01*
X221393488Y-111966744D01*
X221245814Y-111819069D01*
X221393488Y-111671395D01*
X221541163Y-111819069D01*
G37*
G36*
X233650465Y-98823720D02*
G01*
X233502791Y-98971395D01*
X233355116Y-98823720D01*
X233502791Y-98676046D01*
X233650465Y-98823720D01*
G37*
G36*
X247236512Y-91144651D02*
G01*
X247088837Y-91292325D01*
X246941163Y-91144651D01*
X247088837Y-90996976D01*
X247236512Y-91144651D01*
G37*
G36*
X261413256Y-109751627D02*
G01*
X261265581Y-109899302D01*
X261117907Y-109751627D01*
X261265581Y-109603953D01*
X261413256Y-109751627D01*
G37*
G36*
X262003953Y-110046976D02*
G01*
X261856279Y-110194651D01*
X261708605Y-110046976D01*
X261856279Y-109899302D01*
X262003953Y-110046976D01*
G37*
G36*
X51912481Y-107930310D02*
G01*
X51871938Y-108105894D01*
X51715581Y-108127209D01*
X51472476Y-108019145D01*
X51518682Y-107930310D01*
X51869192Y-107894962D01*
X51912481Y-107930310D01*
G37*
G36*
X94738062Y-111179147D02*
G01*
X94697520Y-111354731D01*
X94541163Y-111376046D01*
X94298057Y-111267983D01*
X94344264Y-111179147D01*
X94694774Y-111143799D01*
X94738062Y-111179147D01*
G37*
G36*
X179207829Y-108521007D02*
G01*
X179167287Y-108696592D01*
X179010930Y-108717907D01*
X178767825Y-108609843D01*
X178814031Y-108521007D01*
X179164541Y-108485660D01*
X179207829Y-108521007D01*
G37*
G36*
X153860645Y-45928075D02*
G01*
X154177715Y-46225460D01*
X154112673Y-46396427D01*
X154071384Y-46399302D01*
X153821573Y-46189522D01*
X153730401Y-46058319D01*
X153695591Y-45856213D01*
X153860645Y-45928075D01*
G37*
G36*
X154451343Y-46814122D02*
G01*
X154768413Y-47111507D01*
X154703371Y-47282473D01*
X154662082Y-47285348D01*
X154412271Y-47075568D01*
X154321099Y-46944366D01*
X154286288Y-46742260D01*
X154451343Y-46814122D01*
G37*
G36*
X264070988Y-109813618D02*
G01*
X264582840Y-110009998D01*
X264576282Y-110156789D01*
X264236500Y-110194651D01*
X263745340Y-110032444D01*
X263645395Y-109926846D01*
X263739898Y-109775908D01*
X264070988Y-109813618D01*
G37*
G36*
X48964780Y-108613338D02*
G01*
X48909767Y-108717907D01*
X48631486Y-108999965D01*
X48579557Y-109013255D01*
X48559406Y-108822475D01*
X48614419Y-108717907D01*
X48892700Y-108435848D01*
X48944629Y-108422558D01*
X48964780Y-108613338D01*
G37*
G36*
X90397697Y-111010101D02*
G01*
X90406279Y-111080697D01*
X90181526Y-111367463D01*
X90110930Y-111376046D01*
X89824164Y-111151293D01*
X89815581Y-111080697D01*
X90040334Y-110793931D01*
X90110930Y-110785348D01*
X90397697Y-111010101D01*
G37*
G36*
X92923420Y-110891779D02*
G01*
X93212093Y-111080697D01*
X93108921Y-111301012D01*
X92656257Y-111376046D01*
X92024022Y-111269616D01*
X91735349Y-111080697D01*
X91838521Y-110860382D01*
X92291185Y-110785348D01*
X92923420Y-110891779D01*
G37*
G36*
X134105887Y-110999745D02*
G01*
X134117907Y-111080697D01*
X134017138Y-111368367D01*
X133987663Y-111376046D01*
X133735503Y-111169084D01*
X133674884Y-111080697D01*
X133698301Y-110808538D01*
X133805128Y-110785348D01*
X134105887Y-110999745D01*
G37*
G36*
X137233746Y-110963197D02*
G01*
X137071395Y-111228372D01*
X136626679Y-111600660D01*
X136408370Y-111671395D01*
X136318347Y-111493546D01*
X136480698Y-111228372D01*
X136925414Y-110856083D01*
X137143723Y-110785348D01*
X137233746Y-110963197D01*
G37*
G36*
X150962695Y-43079385D02*
G01*
X151628032Y-43737448D01*
X151631541Y-43741366D01*
X152209044Y-44339754D01*
X152624353Y-44685200D01*
X152725839Y-44721942D01*
X152874261Y-44931130D01*
X152954236Y-45386477D01*
X152934108Y-45935323D01*
X152723274Y-46033923D01*
X152286725Y-45664215D01*
X151589457Y-44808135D01*
X151434537Y-44602304D01*
X150824068Y-43696762D01*
X150549448Y-43108274D01*
X150599412Y-42886071D01*
X150962695Y-43079385D01*
G37*
G36*
X262380013Y-110608640D02*
G01*
X263647491Y-110924474D01*
X264268068Y-111323483D01*
X264805700Y-111628053D01*
X265721545Y-111932124D01*
X266704518Y-112148346D01*
X267153419Y-112237513D01*
X267313468Y-112309862D01*
X267143961Y-112367148D01*
X266604188Y-112411128D01*
X265653444Y-112443555D01*
X264251022Y-112466185D01*
X262356214Y-112480773D01*
X259928314Y-112489074D01*
X258755116Y-112491087D01*
X248860930Y-112504552D01*
X252700465Y-111652593D01*
X255752637Y-111047194D01*
X258403005Y-110670842D01*
X260621991Y-110524376D01*
X262380013Y-110608640D01*
G37*
G36*
X118087074Y-38953377D02*
G01*
X119645814Y-39512132D01*
X121621766Y-40194566D01*
X123042326Y-40360136D01*
X124390569Y-40479321D01*
X125481823Y-40713898D01*
X126202023Y-41030108D01*
X126438837Y-41365411D01*
X126171374Y-41523232D01*
X125440902Y-41519517D01*
X125137793Y-41484092D01*
X123454438Y-41521902D01*
X122150563Y-41836134D01*
X121098210Y-42125253D01*
X120430522Y-42186140D01*
X119993126Y-42032157D01*
X119981259Y-42023869D01*
X118791620Y-41281838D01*
X117681626Y-40871284D01*
X116384201Y-40710250D01*
X115658605Y-40697376D01*
X113701616Y-40854986D01*
X112212297Y-41327939D01*
X111148788Y-42132739D01*
X110792920Y-42615831D01*
X110343723Y-43588008D01*
X110207162Y-44435020D01*
X110402546Y-45000406D01*
X110490000Y-45070232D01*
X110791544Y-45416813D01*
X110568911Y-45685820D01*
X109888571Y-45807260D01*
X109788761Y-45808604D01*
X108859753Y-45911607D01*
X107793330Y-46167431D01*
X107536512Y-46251627D01*
X106681056Y-46547893D01*
X106242825Y-46665199D01*
X106082252Y-46621828D01*
X106059767Y-46445077D01*
X106302478Y-46002052D01*
X106909215Y-45482553D01*
X107697888Y-45035228D01*
X107877176Y-44961475D01*
X108459865Y-44581580D01*
X108777456Y-43887816D01*
X108854872Y-43509201D01*
X109355887Y-42160552D01*
X110332669Y-40878287D01*
X111673928Y-39794267D01*
X112282158Y-39448436D01*
X114072573Y-38845084D01*
X116069798Y-38680602D01*
X118087074Y-38953377D01*
G37*
G36*
X128809609Y-43154503D02*
G01*
X129540000Y-43445813D01*
X130533247Y-43828221D01*
X131527835Y-44014007D01*
X132342396Y-43986684D01*
X132788837Y-43741162D01*
X133214422Y-43527439D01*
X133988750Y-43452777D01*
X134888580Y-43508732D01*
X135690670Y-43686859D01*
X136054597Y-43864689D01*
X136450727Y-44276913D01*
X136345603Y-44492392D01*
X135812496Y-44451670D01*
X135468711Y-44340123D01*
X134667920Y-44111278D01*
X134093053Y-44036511D01*
X133696530Y-44135745D01*
X133652427Y-44544128D01*
X133712745Y-44820585D01*
X133804199Y-45329407D01*
X133630591Y-45511344D01*
X133050812Y-45464673D01*
X132836887Y-45430591D01*
X131861198Y-45376422D01*
X130971699Y-45484178D01*
X130939068Y-45493180D01*
X130306446Y-45571746D01*
X129706379Y-45339490D01*
X129099734Y-44883173D01*
X128145390Y-44320486D01*
X127075370Y-44037613D01*
X126078101Y-44054342D01*
X125342010Y-44390461D01*
X125257323Y-44479678D01*
X124670076Y-44794174D01*
X123699293Y-44900803D01*
X123670577Y-44900359D01*
X122259663Y-44904574D01*
X120818342Y-44959436D01*
X119498429Y-45053834D01*
X118451743Y-45176657D01*
X117830100Y-45316794D01*
X117799884Y-45330021D01*
X117363571Y-45436159D01*
X117293745Y-45234070D01*
X117553324Y-44846870D01*
X118074759Y-44417410D01*
X118847554Y-44090820D01*
X119887145Y-43864159D01*
X120363713Y-43816949D01*
X122092272Y-43712989D01*
X123335223Y-43611018D01*
X124197451Y-43497472D01*
X124783840Y-43358785D01*
X125174674Y-43194761D01*
X126199614Y-42906165D01*
X127492680Y-42897428D01*
X128809609Y-43154503D01*
G37*
G36*
X52361653Y-70928190D02*
G01*
X53373883Y-71246647D01*
X54230189Y-71553287D01*
X54876521Y-71706336D01*
X55517021Y-71710864D01*
X56355830Y-71571941D01*
X57372390Y-71345960D01*
X58571541Y-71087498D01*
X59418206Y-70972666D01*
X60132410Y-70999646D01*
X60934179Y-71166619D01*
X61472788Y-71312069D01*
X62643385Y-71706241D01*
X63743438Y-72194325D01*
X64636953Y-72702646D01*
X65187932Y-73157529D01*
X65297972Y-73384330D01*
X65269144Y-73504125D01*
X65111282Y-73531172D01*
X64724074Y-73439890D01*
X64007210Y-73204702D01*
X62860376Y-72800025D01*
X62495814Y-72669763D01*
X60919143Y-72262411D01*
X59470436Y-72179106D01*
X58286819Y-72416787D01*
X57684342Y-72777109D01*
X56927949Y-73143670D01*
X55827970Y-73313049D01*
X54598282Y-73283396D01*
X53452767Y-73052858D01*
X52896977Y-72818533D01*
X52198382Y-72515562D01*
X51338373Y-72336353D01*
X50153398Y-72255431D01*
X49205116Y-72243449D01*
X47803521Y-72269413D01*
X46771990Y-72375980D01*
X45891225Y-72604055D01*
X44941927Y-72994545D01*
X44782895Y-73068331D01*
X43786595Y-73566947D01*
X42956668Y-74039150D01*
X42524418Y-74341758D01*
X41962601Y-74621528D01*
X41050828Y-74859491D01*
X40375128Y-74959979D01*
X39422446Y-75033529D01*
X38919948Y-74985205D01*
X38735096Y-74789897D01*
X38720233Y-74646436D01*
X38879768Y-74314336D01*
X39439812Y-74175380D01*
X39865464Y-74162093D01*
X40721797Y-74046616D01*
X41328955Y-73756411D01*
X41557782Y-73375810D01*
X41449647Y-73127682D01*
X41430479Y-73012176D01*
X41550546Y-73067958D01*
X41964619Y-73023514D01*
X42647461Y-72702631D01*
X43012634Y-72473749D01*
X45136929Y-71371511D01*
X47500162Y-70735022D01*
X49956885Y-70581506D01*
X52361653Y-70928190D01*
G37*
G36*
X198421752Y-104387324D02*
G01*
X199376735Y-104562032D01*
X200478822Y-104847021D01*
X201552644Y-105142727D01*
X203016893Y-105515834D01*
X204684412Y-105919974D01*
X206368044Y-106308775D01*
X206478372Y-106333482D01*
X208034610Y-106686493D01*
X209470288Y-107021716D01*
X210642470Y-107305128D01*
X211408223Y-107502707D01*
X211497352Y-107528142D01*
X212502602Y-107730477D01*
X213619710Y-107829789D01*
X213771769Y-107831860D01*
X214830702Y-107891583D01*
X215937758Y-108047722D01*
X216937572Y-108265729D01*
X217674781Y-108511058D01*
X217994022Y-108749163D01*
X217996977Y-108771380D01*
X217722858Y-108899632D01*
X216965801Y-108925510D01*
X215823751Y-108853855D01*
X214394657Y-108689511D01*
X213419070Y-108545057D01*
X212533023Y-108403283D01*
X213345233Y-108865376D01*
X213876614Y-109260040D01*
X214162123Y-109637181D01*
X214117826Y-109855559D01*
X213935930Y-109859367D01*
X213568276Y-109792614D01*
X212753996Y-109644544D01*
X211627611Y-109439623D01*
X210760930Y-109281907D01*
X209074544Y-109017303D01*
X207191799Y-108787161D01*
X205448842Y-108631024D01*
X205001628Y-108604433D01*
X204057467Y-108519779D01*
X202753497Y-108351098D01*
X201193146Y-108117113D01*
X199479844Y-107836544D01*
X197717018Y-107528113D01*
X196008098Y-107210543D01*
X194456511Y-106902553D01*
X193165687Y-106622866D01*
X192239053Y-106390204D01*
X191780040Y-106223287D01*
X191760353Y-106207639D01*
X191677734Y-106011016D01*
X191961640Y-105916402D01*
X192667084Y-105924042D01*
X193849076Y-106034183D01*
X195386382Y-106223850D01*
X196747729Y-106393283D01*
X197877402Y-106516660D01*
X198657398Y-106582295D01*
X198969510Y-106578706D01*
X199022730Y-106165156D01*
X198743743Y-105585148D01*
X198255509Y-105048714D01*
X197962061Y-104857849D01*
X197442975Y-104580535D01*
X197427979Y-104446948D01*
X197820682Y-104360737D01*
X198421752Y-104387324D01*
G37*
G36*
X99331568Y-45254514D02*
G01*
X101171564Y-45893737D01*
X101493447Y-46071655D01*
X102354176Y-46475322D01*
X103147909Y-46685921D01*
X103285503Y-46694651D01*
X104058287Y-46832534D01*
X104924030Y-47166592D01*
X104966876Y-47188603D01*
X105892943Y-47496603D01*
X107218335Y-47703919D01*
X108127209Y-47765727D01*
X109237323Y-47808685D01*
X110122346Y-47845282D01*
X110611260Y-47868408D01*
X110637674Y-47870116D01*
X111060505Y-47855234D01*
X111897479Y-47796183D01*
X112974757Y-47705360D01*
X113075273Y-47696260D01*
X115021485Y-47689259D01*
X116669469Y-48028982D01*
X117928938Y-48692338D01*
X118292319Y-49030452D01*
X118791260Y-49383327D01*
X119523648Y-49471081D01*
X120057335Y-49429325D01*
X120898928Y-49423271D01*
X121695418Y-49555966D01*
X122290476Y-49779111D01*
X122527773Y-50044404D01*
X122467315Y-50173925D01*
X122085942Y-50267741D01*
X121338125Y-50290652D01*
X120964583Y-50275320D01*
X120052906Y-50284522D01*
X119580060Y-50479224D01*
X119465848Y-50659510D01*
X119112999Y-51075584D01*
X118610356Y-50937338D01*
X118055740Y-50343153D01*
X116997744Y-49376272D01*
X115544174Y-48769478D01*
X113790877Y-48555097D01*
X112885946Y-48599553D01*
X111651612Y-48702013D01*
X110461188Y-48765548D01*
X109751628Y-48776940D01*
X108738797Y-48828929D01*
X107535495Y-48982406D01*
X107015837Y-49077069D01*
X106049747Y-49240645D01*
X105389201Y-49212758D01*
X104770286Y-48958932D01*
X104389929Y-48734021D01*
X103646214Y-48337307D01*
X102990182Y-48213091D01*
X102126301Y-48317405D01*
X101896522Y-48363061D01*
X101011013Y-48512601D01*
X100457384Y-48463367D01*
X99995489Y-48163931D01*
X99715570Y-47896003D01*
X99199649Y-47464464D01*
X98622423Y-47237418D01*
X97777607Y-47155731D01*
X97118023Y-47151382D01*
X95884308Y-47241965D01*
X94757461Y-47462161D01*
X94245814Y-47640335D01*
X93502792Y-47892448D01*
X92531397Y-48106634D01*
X91489649Y-48264319D01*
X90535563Y-48346930D01*
X89827160Y-48335896D01*
X89522456Y-48212644D01*
X89520233Y-48195759D01*
X89774611Y-47931336D01*
X90394884Y-47637321D01*
X91166765Y-47395060D01*
X91875961Y-47285903D01*
X91918461Y-47285348D01*
X92459461Y-47122280D01*
X93244891Y-46706125D01*
X93720319Y-46395289D01*
X95463770Y-45511210D01*
X97381578Y-45128978D01*
X99331568Y-45254514D01*
G37*
G36*
X66580778Y-62223505D02*
G01*
X68023864Y-62669661D01*
X69355279Y-63292274D01*
X70144200Y-63837561D01*
X71072530Y-64474692D01*
X72053195Y-64703190D01*
X72332493Y-64710930D01*
X73563442Y-64927409D01*
X74403579Y-65449302D01*
X75187115Y-65940418D01*
X75965184Y-66182378D01*
X76065326Y-66187674D01*
X77140994Y-66401767D01*
X78224744Y-66940722D01*
X78877436Y-67504407D01*
X79159700Y-67968193D01*
X78974042Y-68097183D01*
X78341049Y-67888667D01*
X77833807Y-67641728D01*
X76816898Y-67240161D01*
X75772236Y-67165708D01*
X75260007Y-67214622D01*
X74272151Y-67275494D01*
X73653479Y-67126410D01*
X73360823Y-66905341D01*
X72870714Y-66606943D01*
X72104410Y-66511030D01*
X71303904Y-66548929D01*
X70301869Y-66586422D01*
X69680363Y-66462260D01*
X69241480Y-66134523D01*
X69215878Y-66106635D01*
X68620898Y-65606890D01*
X67782025Y-65072703D01*
X67542358Y-64944246D01*
X66499567Y-64601095D01*
X65217032Y-64443655D01*
X63890906Y-64466973D01*
X62717338Y-64666093D01*
X61892479Y-65036061D01*
X61829717Y-65088545D01*
X61141039Y-65442730D01*
X60242863Y-65596639D01*
X60202832Y-65596976D01*
X58784247Y-65767958D01*
X57794290Y-66266253D01*
X57329223Y-66920750D01*
X56888542Y-67521750D01*
X56281382Y-67664418D01*
X55366601Y-67796176D01*
X54742126Y-68136179D01*
X54541775Y-68601521D01*
X54571978Y-68723454D01*
X54602234Y-69001194D01*
X54307058Y-69061632D01*
X53601096Y-68940460D01*
X51453216Y-68724688D01*
X49172977Y-68914238D01*
X48914341Y-68962217D01*
X48185842Y-69119569D01*
X47972432Y-69251643D01*
X48208940Y-69443712D01*
X48447047Y-69573644D01*
X49156575Y-69953372D01*
X48374160Y-69953372D01*
X47651134Y-69801965D01*
X47238765Y-69528055D01*
X46984748Y-69011782D01*
X46860338Y-68371167D01*
X46889151Y-67844508D01*
X47054084Y-67664418D01*
X47242132Y-67912318D01*
X47285349Y-68255116D01*
X47350410Y-68735436D01*
X47640175Y-68795675D01*
X48173624Y-68549272D01*
X48597860Y-68040807D01*
X48614189Y-67663225D01*
X48679072Y-67184300D01*
X49056969Y-67073720D01*
X49603698Y-67196874D01*
X49797242Y-67460089D01*
X49548056Y-67704000D01*
X49430244Y-67738047D01*
X49445114Y-67778056D01*
X49947351Y-67779083D01*
X50834962Y-67741881D01*
X51124884Y-67725532D01*
X52235117Y-67623872D01*
X53120186Y-67476365D01*
X53609016Y-67312632D01*
X53635349Y-67290873D01*
X53737986Y-67118068D01*
X53487674Y-67225418D01*
X53221562Y-67313988D01*
X53287008Y-67198676D01*
X53498447Y-67019690D01*
X53835265Y-66919079D01*
X54491262Y-66851270D01*
X54882997Y-66823357D01*
X55532633Y-66515630D01*
X55968405Y-65949825D01*
X56751358Y-65047517D01*
X57911003Y-64522575D01*
X58837557Y-64415581D01*
X59684458Y-64225620D01*
X60598597Y-63747705D01*
X60730110Y-63652311D01*
X61873509Y-62980829D01*
X63280739Y-62431039D01*
X64666836Y-62102794D01*
X65294962Y-62052790D01*
X66580778Y-62223505D01*
G37*
G36*
X160716231Y-110637674D02*
G01*
X175466744Y-110637674D01*
X175614419Y-110785348D01*
X175762093Y-110637674D01*
X175614419Y-110490000D01*
X175466744Y-110637674D01*
X160716231Y-110637674D01*
X158779535Y-110161004D01*
X157595781Y-109898756D01*
X156505981Y-109706692D01*
X155769640Y-109628054D01*
X155075150Y-109507444D01*
X154591789Y-109250119D01*
X154483308Y-108955645D01*
X154541239Y-108881144D01*
X154930106Y-108813817D01*
X155825709Y-108802781D01*
X157147384Y-108842027D01*
X158814462Y-108925547D01*
X160746279Y-109047331D01*
X162862167Y-109201369D01*
X165081461Y-109381654D01*
X167323495Y-109582176D01*
X169507601Y-109796925D01*
X171553115Y-110019893D01*
X173379369Y-110245070D01*
X174008816Y-110331347D01*
X174425273Y-110370872D01*
X174346833Y-110306371D01*
X173856215Y-110157438D01*
X173036138Y-109943666D01*
X171969323Y-109684648D01*
X170738489Y-109399977D01*
X169426357Y-109109245D01*
X168115645Y-108832047D01*
X166889074Y-108587975D01*
X165867907Y-108403086D01*
X164522614Y-108161013D01*
X163669604Y-107961908D01*
X163214833Y-107777023D01*
X163064257Y-107577610D01*
X163062093Y-107545392D01*
X163332308Y-107438218D01*
X164045423Y-107383308D01*
X165055145Y-107390799D01*
X165203372Y-107397013D01*
X166132632Y-107425788D01*
X166676671Y-107413958D01*
X166744077Y-107364578D01*
X166680116Y-107347687D01*
X166177052Y-107119186D01*
X166014849Y-106833978D01*
X166264665Y-106659521D01*
X166384767Y-106652646D01*
X166773584Y-106707350D01*
X167651407Y-106859057D01*
X168927566Y-107091184D01*
X170511392Y-107387148D01*
X172312218Y-107730365D01*
X172956279Y-107854579D01*
X176291368Y-108457779D01*
X179089293Y-108872434D01*
X181371667Y-109101545D01*
X182259767Y-109145614D01*
X184541093Y-109308933D01*
X187070219Y-109651887D01*
X189010561Y-110016805D01*
X191009435Y-110419133D01*
X192944701Y-110750017D01*
X194985061Y-111033190D01*
X197299216Y-111292384D01*
X199685349Y-111518525D01*
X201605116Y-111689765D01*
X199390000Y-111077537D01*
X197503529Y-110590427D01*
X195494249Y-110144916D01*
X193232604Y-109715654D01*
X190589038Y-109277291D01*
X188780415Y-109001549D01*
X187125751Y-108740604D01*
X185505241Y-108458792D01*
X184099078Y-108189043D01*
X183087455Y-107964290D01*
X183044318Y-107953234D01*
X182014031Y-107730037D01*
X181153140Y-107620464D01*
X180731983Y-107635435D01*
X180355717Y-107652087D01*
X180337723Y-107540196D01*
X180151518Y-107372026D01*
X179521388Y-107166294D01*
X178671876Y-106984431D01*
X177699375Y-106794064D01*
X176983127Y-106618284D01*
X176704754Y-106510180D01*
X176617779Y-106298018D01*
X176920456Y-106191562D01*
X177662527Y-106190197D01*
X178893737Y-106293306D01*
X180378918Y-106464723D01*
X182042372Y-106661460D01*
X183763264Y-106849972D01*
X185304924Y-107005042D01*
X186168433Y-107081616D01*
X187316985Y-107160285D01*
X187983991Y-107158487D01*
X188274822Y-107062483D01*
X188294850Y-106858532D01*
X188276827Y-106806679D01*
X188268228Y-106480882D01*
X188650720Y-106508576D01*
X188884279Y-106538833D01*
X188583859Y-106344550D01*
X188535930Y-106319117D01*
X188035686Y-105950630D01*
X187860722Y-105616214D01*
X188090089Y-105467778D01*
X188092907Y-105467755D01*
X188473068Y-105550921D01*
X189367361Y-105804056D01*
X190786372Y-106230365D01*
X192740690Y-106833054D01*
X195240901Y-107615326D01*
X196543495Y-108025713D01*
X198066415Y-108538417D01*
X199594344Y-109107038D01*
X200911585Y-109648809D01*
X201556221Y-109949165D01*
X202469309Y-110396203D01*
X203148830Y-110646224D01*
X203804868Y-110728274D01*
X204647511Y-110671397D01*
X205731795Y-110526455D01*
X207515867Y-110282936D01*
X208797050Y-110129070D01*
X209655423Y-110059278D01*
X210171069Y-110067985D01*
X210424067Y-110149612D01*
X210466831Y-110196672D01*
X210274789Y-110356820D01*
X209633728Y-110557653D01*
X208679512Y-110757200D01*
X208618471Y-110767673D01*
X207435035Y-110989590D01*
X205924373Y-111302653D01*
X204332385Y-111654995D01*
X203575079Y-111831507D01*
X200524111Y-112557441D01*
X178470428Y-112509686D01*
X174850451Y-112499123D01*
X171356141Y-112483676D01*
X168039589Y-112463897D01*
X164952884Y-112440337D01*
X162148116Y-112413545D01*
X159677375Y-112384075D01*
X157592751Y-112352476D01*
X155946333Y-112319300D01*
X154790213Y-112285098D01*
X154201628Y-112252940D01*
X152928901Y-112159476D01*
X151316918Y-112078935D01*
X149617118Y-112022595D01*
X148681268Y-112005347D01*
X146955331Y-111948149D01*
X145779626Y-111824799D01*
X145165172Y-111637679D01*
X145122986Y-111389170D01*
X145275246Y-111269111D01*
X145623885Y-111220945D01*
X146482201Y-111161635D01*
X147769360Y-111095000D01*
X149404530Y-111024858D01*
X151306879Y-110955029D01*
X153180645Y-110895606D01*
X153581634Y-110883798D01*
X161388450Y-110883798D01*
X161428992Y-111059383D01*
X161585349Y-111080697D01*
X161828454Y-110972634D01*
X161782248Y-110883798D01*
X161431738Y-110848450D01*
X161388450Y-110883798D01*
X153581634Y-110883798D01*
X160846977Y-110669854D01*
X160716231Y-110637674D01*
G37*
G36*
X141250946Y-43002790D02*
G01*
X142683023Y-43002790D01*
X142830698Y-43150465D01*
X142978372Y-43002790D01*
X142830698Y-42855116D01*
X142683023Y-43002790D01*
X141250946Y-43002790D01*
X141492780Y-42730406D01*
X142314466Y-41564834D01*
X143210291Y-40066819D01*
X143805356Y-38996031D01*
X145027256Y-36761364D01*
X147502771Y-35821031D01*
X148668382Y-35398635D01*
X149664815Y-35074532D01*
X150334541Y-34898506D01*
X150478211Y-34880697D01*
X150963155Y-35049925D01*
X151731131Y-35491071D01*
X152516045Y-36036031D01*
X153645277Y-36761173D01*
X154911752Y-37395771D01*
X155678372Y-37684834D01*
X156672725Y-37993701D01*
X157497451Y-38261724D01*
X157840573Y-38381698D01*
X158164758Y-38697834D01*
X158711433Y-39439093D01*
X159418609Y-40512914D01*
X160224296Y-41826739D01*
X160741795Y-42713708D01*
X161998799Y-44836410D01*
X163078685Y-46476569D01*
X164038713Y-47693851D01*
X164936141Y-48547924D01*
X165828228Y-49098454D01*
X166772233Y-49405109D01*
X167235183Y-49480162D01*
X168795443Y-49666069D01*
X169901729Y-49833551D01*
X170682294Y-50063862D01*
X171265389Y-50438258D01*
X171779268Y-51037993D01*
X172352182Y-51944320D01*
X173079457Y-53182807D01*
X173628117Y-54064322D01*
X174137191Y-54687810D01*
X174733873Y-55123268D01*
X175545354Y-55440694D01*
X176698826Y-55710086D01*
X178146546Y-55971400D01*
X178772968Y-56158368D01*
X179353694Y-56553076D01*
X180018104Y-57263663D01*
X180637254Y-58053183D01*
X181330655Y-58915872D01*
X181907770Y-59532932D01*
X182269805Y-59801896D01*
X182321166Y-59799728D01*
X182528786Y-59824366D01*
X182527458Y-59889558D01*
X182526380Y-60357678D01*
X182749994Y-60846533D01*
X183278445Y-61480318D01*
X184047931Y-62245667D01*
X185113549Y-63202260D01*
X186248402Y-64070039D01*
X187566857Y-64921736D01*
X189183282Y-65830078D01*
X191212046Y-66867795D01*
X191676556Y-67096877D01*
X193041029Y-67775839D01*
X193970519Y-68278391D01*
X194563862Y-68681027D01*
X194919895Y-69060241D01*
X195137454Y-69492530D01*
X195261390Y-69871386D01*
X195857297Y-71342629D01*
X196656137Y-72327101D01*
X197740355Y-72916315D01*
X198099154Y-73021132D01*
X199016836Y-73368088D01*
X199977843Y-73996896D01*
X201122343Y-75001619D01*
X201288483Y-75161422D01*
X202364357Y-76121842D01*
X203554117Y-77051361D01*
X204748644Y-77879595D01*
X205838818Y-78536160D01*
X206715520Y-78950674D01*
X207269630Y-79052753D01*
X207305193Y-79042276D01*
X207546481Y-79066069D01*
X207505684Y-79193393D01*
X207642263Y-79469590D01*
X208193169Y-79851246D01*
X208681475Y-80094184D01*
X209496558Y-80426568D01*
X210113007Y-80544707D01*
X210794160Y-80460014D01*
X211667166Y-80223582D01*
X212509990Y-79926781D01*
X213029433Y-79641569D01*
X213118835Y-79470465D01*
X213175456Y-79311128D01*
X213379869Y-79356523D01*
X213885626Y-79337872D01*
X214487334Y-79069075D01*
X214983087Y-78680394D01*
X215170981Y-78302087D01*
X215142993Y-78219036D01*
X215139087Y-78053698D01*
X215319863Y-78137575D01*
X215768356Y-78084990D01*
X216472634Y-77597985D01*
X216768404Y-77329264D01*
X217517906Y-76684816D01*
X218195218Y-76222762D01*
X218440000Y-76110022D01*
X218890197Y-75793634D01*
X219546459Y-75122637D01*
X220281378Y-74229990D01*
X220425693Y-74037776D01*
X221176947Y-73063328D01*
X221750202Y-72469689D01*
X222290175Y-72142916D01*
X222941581Y-71969068D01*
X223083833Y-71944899D01*
X224567378Y-71577584D01*
X225937158Y-71012165D01*
X226993122Y-70338186D01*
X227272403Y-70070088D01*
X227792091Y-69606931D01*
X228174386Y-69436511D01*
X228499922Y-69664936D01*
X229072624Y-70281419D01*
X229811633Y-71182769D01*
X230636092Y-72265795D01*
X231465143Y-73427308D01*
X232217927Y-74564118D01*
X232319352Y-74726265D01*
X233542677Y-76313194D01*
X235240743Y-77954488D01*
X237311488Y-79577145D01*
X239652851Y-81108162D01*
X242162770Y-82474538D01*
X244719310Y-83595656D01*
X245932490Y-84059958D01*
X246686690Y-84336547D01*
X247075389Y-84446778D01*
X247192069Y-84412005D01*
X247130212Y-84253585D01*
X247058916Y-84130116D01*
X247000032Y-83926951D01*
X247115323Y-84007054D01*
X247372323Y-84418711D01*
X247384186Y-84502744D01*
X247606535Y-84755262D01*
X248205614Y-85275517D01*
X249079471Y-85985145D01*
X250126154Y-86805780D01*
X251243711Y-87659058D01*
X252330190Y-88466612D01*
X253283638Y-89150078D01*
X254002105Y-89631090D01*
X254231630Y-89766019D01*
X255027351Y-90049984D01*
X255772247Y-90096240D01*
X256279108Y-89913288D01*
X256392326Y-89667907D01*
X256525065Y-89266566D01*
X256806767Y-89321144D01*
X257062657Y-89793476D01*
X257068600Y-89815581D01*
X257404916Y-90278033D01*
X258093443Y-90406279D01*
X258857956Y-90429929D01*
X259943901Y-90491186D01*
X260853070Y-90556574D01*
X261900967Y-90622997D01*
X262366193Y-90608060D01*
X262251351Y-90510275D01*
X261559044Y-90328156D01*
X261339419Y-90278812D01*
X260767500Y-90006224D01*
X260536524Y-89625732D01*
X260690733Y-89311791D01*
X261072132Y-89224883D01*
X261727266Y-88984455D01*
X262317917Y-88411824D01*
X262645572Y-87729972D01*
X262654429Y-87447545D01*
X262810368Y-86899278D01*
X263240713Y-86443068D01*
X263694163Y-86038763D01*
X263689698Y-85642374D01*
X263533126Y-85359546D01*
X263312826Y-84885532D01*
X263526566Y-84659961D01*
X263755729Y-84590192D01*
X264166483Y-84359462D01*
X264190290Y-84157386D01*
X264212745Y-83737795D01*
X264488961Y-83167635D01*
X264836536Y-82478801D01*
X264957442Y-81974616D01*
X265130932Y-81624663D01*
X265319036Y-81617120D01*
X265625649Y-81979157D01*
X265923806Y-82753766D01*
X266154797Y-83764964D01*
X266231327Y-84351627D01*
X266463563Y-84917878D01*
X266704457Y-85110968D01*
X267119549Y-85524122D01*
X267189824Y-85738985D01*
X267335409Y-86405916D01*
X267448428Y-86800718D01*
X267468571Y-87366405D01*
X267310555Y-87606446D01*
X267242335Y-87899963D01*
X267613730Y-88252643D01*
X268036583Y-88711493D01*
X268099779Y-89076412D01*
X268185596Y-89476733D01*
X268549834Y-89989865D01*
X269024128Y-90440249D01*
X269440109Y-90652323D01*
X269574062Y-90613690D01*
X269747404Y-90212406D01*
X269869596Y-89362790D01*
X269940679Y-88265000D01*
X270057570Y-87609319D01*
X270290812Y-87437607D01*
X270593112Y-87666256D01*
X270917179Y-88211657D01*
X271215722Y-88990200D01*
X271441448Y-89918276D01*
X271547067Y-90912278D01*
X271549626Y-91109534D01*
X271715090Y-91963559D01*
X272127892Y-92885105D01*
X272225711Y-93039919D01*
X272670121Y-93843100D01*
X272720977Y-94315572D01*
X272379827Y-94408767D01*
X272184030Y-94348990D01*
X271805850Y-94337702D01*
X271772986Y-94654794D01*
X272048429Y-95178368D01*
X272595171Y-95786524D01*
X272630000Y-95817888D01*
X273256510Y-96519997D01*
X273662412Y-97235720D01*
X273695739Y-97343453D01*
X273937219Y-97958139D01*
X274216706Y-97988858D01*
X274549168Y-97434466D01*
X274615519Y-97273139D01*
X274715532Y-97157961D01*
X274795715Y-97399956D01*
X274858130Y-98040615D01*
X274904840Y-99121433D01*
X274937909Y-100683904D01*
X274959398Y-102769522D01*
X274967883Y-104361511D01*
X274973557Y-106452343D01*
X274973599Y-108335418D01*
X274968420Y-109934294D01*
X274958429Y-111172530D01*
X274944038Y-111973687D01*
X274925657Y-112261323D01*
X274925465Y-112261348D01*
X274628083Y-112188507D01*
X273886822Y-111992957D01*
X272827486Y-111708140D01*
X272045814Y-111495853D01*
X269718177Y-110880257D01*
X267638127Y-110367140D01*
X265868432Y-109969637D01*
X264471857Y-109700882D01*
X263511169Y-109574010D01*
X263049137Y-109602157D01*
X263036707Y-109610581D01*
X262619565Y-109629067D01*
X261821879Y-109433533D01*
X260787011Y-109082806D01*
X259658326Y-108635716D01*
X258579183Y-108151091D01*
X257692947Y-107687757D01*
X257142979Y-107304544D01*
X257035533Y-107148028D01*
X256894922Y-106721297D01*
X256819816Y-106650465D01*
X256535216Y-106799344D01*
X255871772Y-107198568D01*
X254946205Y-107777016D01*
X254404845Y-108121965D01*
X253323563Y-108843636D01*
X252734199Y-109311745D01*
X252608227Y-109552129D01*
X252774302Y-109598709D01*
X253293244Y-109705052D01*
X253438837Y-109875057D01*
X253172630Y-110041859D01*
X252470483Y-110281928D01*
X251477104Y-110560047D01*
X250337202Y-110840995D01*
X249195487Y-111089555D01*
X248196669Y-111270508D01*
X247485455Y-111348635D01*
X247384186Y-111348610D01*
X246862335Y-111393464D01*
X245907602Y-111531632D01*
X244666286Y-111740355D01*
X243568452Y-111942220D01*
X241873755Y-112225632D01*
X240210514Y-112408242D01*
X238384175Y-112504589D01*
X236200182Y-112529208D01*
X235741707Y-112527064D01*
X231140000Y-112496686D01*
X234198416Y-112081384D01*
X235679382Y-111860280D01*
X237049303Y-111619855D01*
X238226567Y-111379603D01*
X239129560Y-111159016D01*
X239676672Y-110977589D01*
X239786289Y-110854813D01*
X239512159Y-110812185D01*
X238888219Y-110743229D01*
X237857461Y-110580130D01*
X236590933Y-110351192D01*
X235846430Y-110205580D01*
X232964356Y-109625811D01*
X227917294Y-110356627D01*
X226000873Y-110646084D01*
X224048952Y-110961692D01*
X222237618Y-111273593D01*
X220742958Y-111551931D01*
X220143408Y-111674768D01*
X218881645Y-111933346D01*
X217786705Y-112133851D01*
X217023166Y-112247190D01*
X216820734Y-112262093D01*
X216303307Y-112166086D01*
X216279022Y-111943310D01*
X216694703Y-111691630D01*
X217205984Y-111553079D01*
X217871411Y-111345010D01*
X218589622Y-111000308D01*
X219238459Y-110601492D01*
X219695760Y-110231084D01*
X219839365Y-109971605D01*
X219654163Y-109899302D01*
X219223517Y-109797843D01*
X219261314Y-109543763D01*
X219691101Y-109212511D01*
X220436427Y-108879534D01*
X220805843Y-108762743D01*
X221619003Y-108509680D01*
X221934401Y-108322706D01*
X221830533Y-108138090D01*
X221685470Y-108048552D01*
X221093472Y-107888024D01*
X220154357Y-107802247D01*
X219418983Y-107800850D01*
X218377115Y-107799907D01*
X217705951Y-107664294D01*
X217190421Y-107335451D01*
X216979581Y-107136663D01*
X216463821Y-106691252D01*
X215975723Y-106552611D01*
X215253086Y-106666157D01*
X215009235Y-106726489D01*
X213682707Y-106891474D01*
X212480191Y-106698725D01*
X211413980Y-106497432D01*
X210140009Y-106370167D01*
X209501459Y-106348070D01*
X208644621Y-106329474D01*
X207867436Y-106263810D01*
X207038030Y-106124524D01*
X206024530Y-105885064D01*
X204695061Y-105518876D01*
X203162201Y-105071650D01*
X201777381Y-104705224D01*
X200597321Y-104435348D01*
X242215581Y-104435348D01*
X242363256Y-104583023D01*
X242510930Y-104435348D01*
X242363256Y-104287674D01*
X242215581Y-104435348D01*
X200597321Y-104435348D01*
X200053955Y-104311082D01*
X198238352Y-103943090D01*
X196959876Y-103715917D01*
X195304332Y-103422858D01*
X193619205Y-103088331D01*
X192122698Y-102757515D01*
X191194881Y-102522251D01*
X190833747Y-102423804D01*
X233782806Y-102423804D01*
X233817266Y-102546529D01*
X234251193Y-102792812D01*
X234783056Y-102707280D01*
X234963944Y-102540807D01*
X234914494Y-102244440D01*
X234505644Y-102088478D01*
X234021348Y-102147013D01*
X233782806Y-102423804D01*
X190833747Y-102423804D01*
X190100826Y-102224006D01*
X189422912Y-102085431D01*
X189008996Y-102105027D01*
X188706935Y-102281296D01*
X188482145Y-102495529D01*
X188115210Y-102905041D01*
X188198172Y-103104765D01*
X188776683Y-103258179D01*
X189389640Y-103516428D01*
X189643488Y-103868118D01*
X189644179Y-104091191D01*
X189579600Y-104214456D01*
X189349776Y-104222181D01*
X188854730Y-104098633D01*
X187994486Y-103828079D01*
X186700176Y-103404953D01*
X183998946Y-102522232D01*
X183105323Y-103183441D01*
X182796913Y-103391706D01*
X182451978Y-103553848D01*
X181992020Y-103678035D01*
X181338537Y-103772434D01*
X180413031Y-103845212D01*
X179137001Y-103904535D01*
X177431947Y-103958572D01*
X175219371Y-104015488D01*
X175073525Y-104019056D01*
X173028162Y-104080325D01*
X171136652Y-104158243D01*
X169493269Y-104247239D01*
X168192285Y-104341739D01*
X167327974Y-104436172D01*
X167049302Y-104493390D01*
X166409689Y-104652282D01*
X165337728Y-104858576D01*
X163986994Y-105084721D01*
X162619070Y-105288168D01*
X160319011Y-105610284D01*
X158529764Y-105866709D01*
X157177105Y-106073326D01*
X156186806Y-106246017D01*
X155484644Y-106400666D01*
X154996391Y-106553154D01*
X154647823Y-106719366D01*
X154364713Y-106915184D01*
X154136008Y-107103381D01*
X153771076Y-107387080D01*
X153391355Y-107586323D01*
X152888920Y-107716684D01*
X152155848Y-107793739D01*
X151084213Y-107833063D01*
X149566092Y-107850232D01*
X148936525Y-107853752D01*
X147270420Y-107876272D01*
X145700722Y-107922888D01*
X144377374Y-107987410D01*
X143450322Y-108063646D01*
X143273721Y-108087584D01*
X141944651Y-108299524D01*
X143048096Y-108677937D01*
X143933124Y-109031274D01*
X144245083Y-109290125D01*
X143980952Y-109457032D01*
X143137707Y-109534539D01*
X142031014Y-109533596D01*
X139916724Y-109606276D01*
X137961143Y-109959798D01*
X137384084Y-110117311D01*
X136329607Y-110404214D01*
X135463529Y-110568160D01*
X134591995Y-110620974D01*
X133521148Y-110574480D01*
X132067805Y-110441577D01*
X130710253Y-110284483D01*
X129523317Y-110109865D01*
X128661896Y-109942555D01*
X128335927Y-109843269D01*
X127612744Y-109671555D01*
X126724785Y-109654025D01*
X126711508Y-109655262D01*
X126326121Y-109722000D01*
X126359009Y-109826679D01*
X126860218Y-109991221D01*
X127879789Y-110237548D01*
X128210930Y-110312110D01*
X129457419Y-110573978D01*
X130569246Y-110778518D01*
X131356117Y-110891610D01*
X131505401Y-110902807D01*
X132039447Y-110983526D01*
X132174392Y-111119121D01*
X132387299Y-111245676D01*
X133054908Y-111415962D01*
X134046064Y-111598237D01*
X134343874Y-111644165D01*
X135726402Y-111851594D01*
X137138356Y-112067123D01*
X138252791Y-112240749D01*
X138410005Y-112306217D01*
X137991889Y-112359692D01*
X137013695Y-112400879D01*
X135490673Y-112429482D01*
X133438076Y-112445206D01*
X130871155Y-112447755D01*
X128063256Y-112438184D01*
X124251409Y-112407940D01*
X121027495Y-112359065D01*
X118392036Y-112291574D01*
X116345551Y-112205482D01*
X114888560Y-112100808D01*
X114181860Y-112009915D01*
X111790456Y-111582021D01*
X111198373Y-111474496D01*
X123879147Y-111474496D01*
X123919690Y-111650080D01*
X124076047Y-111671395D01*
X124319152Y-111563331D01*
X124272946Y-111474496D01*
X123922436Y-111439148D01*
X123879147Y-111474496D01*
X111198373Y-111474496D01*
X109956368Y-111248942D01*
X108654639Y-111006094D01*
X107861801Y-110849209D01*
X107375003Y-110811902D01*
X107363744Y-111037912D01*
X107388993Y-111080950D01*
X107359494Y-111307526D01*
X106865171Y-111276364D01*
X105965358Y-111002092D01*
X104719388Y-110499337D01*
X104335261Y-110328104D01*
X103864796Y-110127878D01*
X116262872Y-110127878D01*
X116744226Y-110159818D01*
X117150116Y-110169265D01*
X117976954Y-110247562D01*
X118548808Y-110410725D01*
X118626860Y-110463903D01*
X119068839Y-110686095D01*
X119855220Y-110931565D01*
X120236512Y-111022971D01*
X121056132Y-111167651D01*
X121919286Y-111269222D01*
X122686060Y-111320406D01*
X123216537Y-111313924D01*
X123370801Y-111242498D01*
X123263837Y-111180442D01*
X122898776Y-110899415D01*
X123047548Y-110636424D01*
X123637430Y-110479343D01*
X123854535Y-110466683D01*
X124394740Y-110413961D01*
X124484912Y-110314322D01*
X124443392Y-110293782D01*
X124198434Y-110011466D01*
X124230088Y-109888999D01*
X124119363Y-109658136D01*
X123538020Y-109494273D01*
X122602350Y-109397597D01*
X121428640Y-109368295D01*
X120133181Y-109406554D01*
X118832262Y-109512561D01*
X117642172Y-109686504D01*
X116840000Y-109877112D01*
X116309205Y-110047217D01*
X116262872Y-110127878D01*
X103864796Y-110127878D01*
X103412698Y-109935469D01*
X102817471Y-109787271D01*
X102350874Y-109859239D01*
X101972470Y-110039473D01*
X101458771Y-110337081D01*
X101443459Y-110453078D01*
X101851047Y-110478174D01*
X102326216Y-110608911D01*
X102533232Y-110861648D01*
X102373469Y-111057949D01*
X102184069Y-111080697D01*
X102032133Y-111228494D01*
X102226156Y-111530858D01*
X102482115Y-111994634D01*
X102279335Y-112153468D01*
X101677719Y-111985149D01*
X101382094Y-111843843D01*
X100697596Y-111619924D01*
X99572648Y-111394442D01*
X98156830Y-111193903D01*
X97099336Y-111084879D01*
X95716241Y-110955088D01*
X94531744Y-110828061D01*
X93680805Y-110719287D01*
X93313177Y-110650319D01*
X92862538Y-110561502D01*
X91972711Y-110434319D01*
X90792298Y-110288939D01*
X90001434Y-110200836D01*
X88412308Y-109991851D01*
X86729628Y-109708240D01*
X85246395Y-109401062D01*
X84851041Y-109303330D01*
X83478326Y-108995611D01*
X82195167Y-108799618D01*
X81120306Y-108723369D01*
X80372486Y-108774880D01*
X80070449Y-108962169D01*
X80069070Y-108980458D01*
X79785915Y-109193335D01*
X78968598Y-109490589D01*
X77665344Y-109857845D01*
X75924374Y-110280726D01*
X75048140Y-110477196D01*
X74372540Y-110630560D01*
X74172169Y-110701440D01*
X74482507Y-110699276D01*
X75339034Y-110633509D01*
X75565000Y-110614723D01*
X76689886Y-110568133D01*
X77304356Y-110654102D01*
X77410930Y-110770682D01*
X77696167Y-110926112D01*
X78514822Y-111030712D01*
X79811311Y-111078380D01*
X80234175Y-111080697D01*
X81424376Y-111102512D01*
X82336199Y-111161209D01*
X82850125Y-111246668D01*
X82917023Y-111307864D01*
X83149950Y-111385406D01*
X83882836Y-111461266D01*
X85024952Y-111529865D01*
X86485572Y-111585621D01*
X87994359Y-111620159D01*
X89917906Y-111672832D01*
X91847608Y-111763117D01*
X93618367Y-111880717D01*
X95065086Y-112015337D01*
X95722558Y-112102142D01*
X96032070Y-112160239D01*
X96170491Y-112212620D01*
X96111433Y-112259603D01*
X95828505Y-112301507D01*
X95295317Y-112338649D01*
X94485480Y-112371348D01*
X93372604Y-112399920D01*
X91930299Y-112424685D01*
X90132175Y-112445959D01*
X87951843Y-112464062D01*
X85362912Y-112479310D01*
X82338994Y-112492022D01*
X78853698Y-112502515D01*
X74880635Y-112511109D01*
X70393414Y-112518119D01*
X65365646Y-112523865D01*
X60354535Y-112528220D01*
X22476047Y-112557441D01*
X22476047Y-111474496D01*
X59197752Y-111474496D01*
X59238294Y-111650080D01*
X59394651Y-111671395D01*
X59637757Y-111563331D01*
X59617154Y-111523720D01*
X70617907Y-111523720D01*
X70765581Y-111671395D01*
X70913256Y-111523720D01*
X70765581Y-111376046D01*
X70617907Y-111523720D01*
X59617154Y-111523720D01*
X59591550Y-111474496D01*
X59241040Y-111439148D01*
X59197752Y-111474496D01*
X22476047Y-111474496D01*
X22476047Y-110046976D01*
X26610930Y-110046976D01*
X26758605Y-110194651D01*
X26906279Y-110046976D01*
X26857054Y-109997751D01*
X44725659Y-109997751D01*
X44766201Y-110173336D01*
X44922558Y-110194651D01*
X45165664Y-110086587D01*
X45119457Y-109997751D01*
X44768947Y-109962404D01*
X44725659Y-109997751D01*
X26857054Y-109997751D01*
X26758605Y-109899302D01*
X26610930Y-110046976D01*
X22476047Y-110046976D01*
X22476047Y-109828689D01*
X45641354Y-109828689D01*
X45931667Y-109875985D01*
X46314739Y-109821683D01*
X46319312Y-109720862D01*
X45924020Y-109650357D01*
X45753227Y-109697545D01*
X45641354Y-109828689D01*
X22476047Y-109828689D01*
X22476047Y-109516149D01*
X46879060Y-109516149D01*
X47285349Y-109557319D01*
X47704635Y-109510905D01*
X47654535Y-109408349D01*
X47049853Y-109369340D01*
X46916163Y-109408349D01*
X46879060Y-109516149D01*
X22476047Y-109516149D01*
X22476047Y-109175901D01*
X22919070Y-109175901D01*
X22984133Y-109220853D01*
X23479194Y-109186215D01*
X24251706Y-109090204D01*
X25149122Y-108951036D01*
X25365784Y-108911338D01*
X30580243Y-108911338D01*
X30586779Y-108935366D01*
X30874133Y-108896257D01*
X31585537Y-108728990D01*
X32577116Y-108467842D01*
X32756240Y-108418505D01*
X34020104Y-108077983D01*
X34820837Y-107896826D01*
X35260907Y-107864042D01*
X35442782Y-107968637D01*
X35471395Y-108127209D01*
X35236603Y-108398703D01*
X35084822Y-108422558D01*
X34584572Y-108565764D01*
X34070074Y-108893076D01*
X33742189Y-109251030D01*
X33741296Y-109449047D01*
X34094547Y-109487779D01*
X34900502Y-109443959D01*
X36028459Y-109327563D01*
X36989669Y-109201132D01*
X38861400Y-108955292D01*
X40668422Y-108756599D01*
X42324003Y-108610448D01*
X43741408Y-108522234D01*
X44833905Y-108497350D01*
X45514759Y-108541193D01*
X45697238Y-108659157D01*
X45697004Y-108659538D01*
X45817961Y-108827863D01*
X46465060Y-108825264D01*
X46724479Y-108794588D01*
X47647752Y-108762253D01*
X48132700Y-108953165D01*
X48147027Y-108973826D01*
X48606722Y-109178943D01*
X49358540Y-109115477D01*
X49956880Y-108947757D01*
X49982051Y-108792570D01*
X49869821Y-108742823D01*
X49973114Y-108677594D01*
X50579393Y-108611100D01*
X51600990Y-108549281D01*
X52950237Y-108498081D01*
X53797018Y-108476666D01*
X55514911Y-108447052D01*
X56727139Y-108447625D01*
X57518280Y-108485455D01*
X57972915Y-108567613D01*
X58175623Y-108701170D01*
X58213256Y-108845852D01*
X57969871Y-109252283D01*
X57696395Y-109338837D01*
X57602617Y-109414054D01*
X57999267Y-109564906D01*
X58213256Y-109620825D01*
X59058488Y-109726734D01*
X60215215Y-109748600D01*
X61240581Y-109695856D01*
X62310400Y-109619939D01*
X62917360Y-109642293D01*
X63183858Y-109781172D01*
X63234186Y-109993180D01*
X62944771Y-110408965D01*
X62096477Y-110758496D01*
X61978953Y-110789874D01*
X60815213Y-111101202D01*
X60212168Y-111291215D01*
X60152824Y-111361880D01*
X60620184Y-111315163D01*
X61439871Y-111179147D01*
X71602403Y-111179147D01*
X71642946Y-111354731D01*
X71799302Y-111376046D01*
X72042408Y-111267983D01*
X71996202Y-111179147D01*
X71645692Y-111143799D01*
X71602403Y-111179147D01*
X61439871Y-111179147D01*
X61597256Y-111153031D01*
X62359652Y-111010085D01*
X72813447Y-111010085D01*
X73103760Y-111057380D01*
X73486832Y-111003079D01*
X73491405Y-110902257D01*
X73096113Y-110831752D01*
X72925320Y-110878940D01*
X72813447Y-111010085D01*
X62359652Y-111010085D01*
X63067044Y-110877452D01*
X65012554Y-110490390D01*
X65596977Y-110371170D01*
X67215915Y-110055865D01*
X68626765Y-109812298D01*
X69731313Y-109654906D01*
X70431341Y-109598131D01*
X70632235Y-109630909D01*
X70978019Y-109700449D01*
X71753925Y-109655779D01*
X72812734Y-109507596D01*
X73142701Y-109448477D01*
X74659878Y-109189866D01*
X76328954Y-108944943D01*
X77706279Y-108776067D01*
X78157848Y-108706174D01*
X78023438Y-108652613D01*
X77307544Y-108615524D01*
X76014662Y-108595046D01*
X74149289Y-108591319D01*
X72094651Y-108601588D01*
X69940713Y-108624840D01*
X67927986Y-108660724D01*
X66148456Y-108706489D01*
X64694112Y-108759382D01*
X63656938Y-108816652D01*
X63160349Y-108868864D01*
X62357728Y-108969858D01*
X62100027Y-108878741D01*
X62381577Y-108617351D01*
X63196706Y-108207524D01*
X63349323Y-108141156D01*
X64359244Y-107658803D01*
X64798265Y-107311969D01*
X64662690Y-107086787D01*
X63948823Y-106969395D01*
X63030105Y-106943744D01*
X61732468Y-106866745D01*
X60180841Y-106665664D01*
X58688226Y-106382083D01*
X58538626Y-106347050D01*
X57330640Y-106093587D01*
X56282038Y-105938377D01*
X55569125Y-105905390D01*
X55437464Y-105925443D01*
X55054733Y-105996390D01*
X55195551Y-105836544D01*
X55223710Y-105816823D01*
X55184473Y-105641006D01*
X54678951Y-105452456D01*
X53830634Y-105271494D01*
X52763008Y-105118440D01*
X51599562Y-105013614D01*
X50463783Y-104977336D01*
X50154227Y-104982630D01*
X49281208Y-104943978D01*
X48669959Y-104796602D01*
X48529809Y-104693328D01*
X48204354Y-104525244D01*
X47485912Y-104525294D01*
X46471065Y-104660566D01*
X45474251Y-104846180D01*
X44972324Y-105018187D01*
X44872264Y-105220309D01*
X44962571Y-105369607D01*
X45194000Y-105787979D01*
X44996524Y-105924080D01*
X44445966Y-105802515D01*
X43618149Y-105447891D01*
X42588897Y-104884811D01*
X41673721Y-104302353D01*
X40839770Y-103795382D01*
X40142231Y-103469105D01*
X39865490Y-103402892D01*
X39248478Y-103507001D01*
X38226927Y-103789334D01*
X36942001Y-104201995D01*
X35534863Y-104697082D01*
X34146676Y-105226699D01*
X32918606Y-105742945D01*
X32768175Y-105811112D01*
X31745258Y-106301239D01*
X31142432Y-106682104D01*
X30834520Y-107071612D01*
X30696344Y-107587668D01*
X30668812Y-107788491D01*
X30593878Y-108507736D01*
X30580243Y-108911338D01*
X25365784Y-108911338D01*
X25798721Y-108832013D01*
X26386973Y-108639243D01*
X26610930Y-108427129D01*
X26355784Y-108384712D01*
X25708378Y-108463897D01*
X24845763Y-108628775D01*
X23944991Y-108843436D01*
X23183113Y-109071972D01*
X22919070Y-109175901D01*
X22476047Y-109175901D01*
X22476047Y-108127209D01*
X28087674Y-108127209D01*
X28188443Y-108414879D01*
X28217918Y-108422558D01*
X28470078Y-108215596D01*
X28530698Y-108127209D01*
X28507281Y-107855050D01*
X28400454Y-107831860D01*
X28099694Y-108046257D01*
X28087674Y-108127209D01*
X22476047Y-108127209D01*
X22476047Y-103331015D01*
X97622750Y-103331015D01*
X97913062Y-103378310D01*
X98296134Y-103324009D01*
X98300707Y-103223188D01*
X97905415Y-103152683D01*
X97734622Y-103199870D01*
X97622750Y-103331015D01*
X22476047Y-103331015D01*
X22476047Y-102954112D01*
X107951750Y-102954112D01*
X107979535Y-103106279D01*
X108357126Y-103390361D01*
X108439989Y-103401627D01*
X108709952Y-103176352D01*
X108717907Y-103106279D01*
X108477504Y-102847077D01*
X108257453Y-102810930D01*
X107951750Y-102954112D01*
X22476047Y-102954112D01*
X22476047Y-102023333D01*
X86665194Y-102023333D01*
X86705736Y-102198917D01*
X86862093Y-102220232D01*
X87105199Y-102112169D01*
X87058992Y-102023333D01*
X86708482Y-101987985D01*
X86665194Y-102023333D01*
X22476047Y-102023333D01*
X22476047Y-101481860D01*
X84203953Y-101481860D01*
X84351628Y-101629534D01*
X84499302Y-101481860D01*
X84351628Y-101334186D01*
X84203953Y-101481860D01*
X22476047Y-101481860D01*
X22476047Y-100726057D01*
X60871395Y-100726057D01*
X61085792Y-101026817D01*
X61166744Y-101038837D01*
X61454414Y-100938068D01*
X61462093Y-100908593D01*
X61255131Y-100656433D01*
X61166744Y-100595813D01*
X60894585Y-100619230D01*
X60871395Y-100726057D01*
X22476047Y-100726057D01*
X22476047Y-100572765D01*
X89092245Y-100572765D01*
X89158607Y-100804637D01*
X89372612Y-101145143D01*
X89629605Y-101709315D01*
X89604108Y-102037907D01*
X89650674Y-102122691D01*
X89957325Y-102033965D01*
X90276967Y-101820116D01*
X90169834Y-101698394D01*
X89839386Y-101340483D01*
X89815581Y-101193498D01*
X89577768Y-100759955D01*
X89371576Y-100636305D01*
X89092245Y-100572765D01*
X22476047Y-100572765D01*
X22476047Y-100490804D01*
X92943113Y-100490804D01*
X93267907Y-100665554D01*
X93781558Y-100748401D01*
X94182201Y-100707033D01*
X94245814Y-100630244D01*
X93995203Y-100497085D01*
X93516380Y-100377561D01*
X93030997Y-100356818D01*
X92943113Y-100490804D01*
X22476047Y-100490804D01*
X22476047Y-98479715D01*
X52137851Y-98479715D01*
X52355353Y-98712625D01*
X52991046Y-98935835D01*
X53287259Y-98966872D01*
X53649804Y-98919244D01*
X53522361Y-98672880D01*
X53383041Y-98529220D01*
X52811665Y-98246707D01*
X52451135Y-98274973D01*
X52137851Y-98479715D01*
X22476047Y-98479715D01*
X22476047Y-97905538D01*
X44272651Y-97905538D01*
X44610215Y-97980440D01*
X44922558Y-97986899D01*
X45495461Y-97948632D01*
X45527442Y-97816726D01*
X45388582Y-97726099D01*
X44715499Y-97633058D01*
X44456534Y-97726099D01*
X44272651Y-97905538D01*
X22476047Y-97905538D01*
X22476047Y-96662271D01*
X52952543Y-96662271D01*
X53110870Y-96849919D01*
X53192326Y-96903953D01*
X53864672Y-97150402D01*
X54226047Y-97190257D01*
X54613504Y-97145635D01*
X54455177Y-96957987D01*
X54373721Y-96903953D01*
X53701374Y-96657504D01*
X53340000Y-96617649D01*
X52952543Y-96662271D01*
X22476047Y-96662271D01*
X22476047Y-93660191D01*
X43741163Y-93660191D01*
X43988993Y-93907450D01*
X44589250Y-94188112D01*
X44627209Y-94201557D01*
X45328960Y-94625070D01*
X45513256Y-95075540D01*
X45636526Y-95476352D01*
X46109227Y-95523435D01*
X46264048Y-95497122D01*
X46766597Y-95343601D01*
X46865137Y-95203896D01*
X46864928Y-94859198D01*
X47010783Y-94502329D01*
X47150020Y-94068784D01*
X46863795Y-93950507D01*
X46852717Y-93950465D01*
X46441201Y-93828364D01*
X46446029Y-93808789D01*
X51800756Y-93808789D01*
X51865165Y-94171976D01*
X52136298Y-94916012D01*
X52226560Y-95205697D01*
X52606540Y-95622585D01*
X53005261Y-95718035D01*
X53415256Y-95670925D01*
X53283525Y-95493089D01*
X53192326Y-95433240D01*
X53004292Y-95209387D01*
X53278524Y-94987784D01*
X53754478Y-94802383D01*
X54381750Y-94543683D01*
X54513794Y-94330519D01*
X54299011Y-94114970D01*
X54043474Y-93644428D01*
X54193658Y-93119395D01*
X54650053Y-92791425D01*
X54831420Y-92769069D01*
X55214949Y-92604854D01*
X55259767Y-92473720D01*
X55031004Y-92192060D01*
X54932820Y-92178372D01*
X54771065Y-92002405D01*
X57781811Y-92002405D01*
X58066099Y-93013078D01*
X58762316Y-94106567D01*
X59729139Y-95079429D01*
X60382352Y-95689245D01*
X60529499Y-96087242D01*
X60185374Y-96340223D01*
X60019321Y-96389948D01*
X59629532Y-96728923D01*
X59606236Y-97321066D01*
X59911981Y-97988560D01*
X60469721Y-98528305D01*
X60931283Y-98940173D01*
X61024865Y-99257366D01*
X61124818Y-99519415D01*
X61648001Y-99718741D01*
X62348140Y-99788920D01*
X62536211Y-99745675D01*
X62274302Y-99653850D01*
X61824235Y-99330647D01*
X61840653Y-98874934D01*
X62249853Y-98550288D01*
X62566765Y-98309066D01*
X62397527Y-98016596D01*
X62073151Y-97521667D01*
X62295683Y-97247274D01*
X62717326Y-97194779D01*
X63457952Y-97064593D01*
X63824884Y-96899843D01*
X63998888Y-96714443D01*
X63661316Y-96689168D01*
X63381860Y-96718567D01*
X62880474Y-96757606D01*
X62835877Y-96707647D01*
X62865000Y-96696498D01*
X63198851Y-96325839D01*
X63234186Y-96126494D01*
X63387440Y-95840952D01*
X63539155Y-95876177D01*
X64021087Y-96085042D01*
X64760909Y-96327567D01*
X64780381Y-96333174D01*
X65377398Y-96481844D01*
X65415132Y-96460930D01*
X73571395Y-96460930D01*
X73719070Y-96608604D01*
X73866744Y-96460930D01*
X73719070Y-96313255D01*
X73571395Y-96460930D01*
X65415132Y-96460930D01*
X65497039Y-96415533D01*
X65287622Y-96173613D01*
X64722408Y-95857699D01*
X63880007Y-95628517D01*
X63709037Y-95603433D01*
X62882394Y-95425000D01*
X62299729Y-95164547D01*
X62232293Y-95105591D01*
X62067106Y-94874863D01*
X62307323Y-94978695D01*
X62760218Y-95039332D01*
X62898021Y-94940015D01*
X63291408Y-94629601D01*
X63824884Y-94351257D01*
X64162113Y-94176059D01*
X64060770Y-94108593D01*
X63460745Y-94135851D01*
X63012674Y-94175495D01*
X61977076Y-94213658D01*
X61499158Y-94080383D01*
X61462093Y-93988042D01*
X61712170Y-93727547D01*
X62126628Y-93653170D01*
X62825429Y-93490978D01*
X63375350Y-93221096D01*
X73110054Y-93221096D01*
X73423721Y-93372850D01*
X74213193Y-93610791D01*
X74736853Y-93505571D01*
X74989070Y-93300697D01*
X75311327Y-92838686D01*
X75237641Y-92588076D01*
X74974302Y-92605996D01*
X74432389Y-92752208D01*
X73719070Y-92925917D01*
X73151608Y-93084538D01*
X73110054Y-93221096D01*
X63375350Y-93221096D01*
X63622867Y-93099623D01*
X63677209Y-93064418D01*
X63900190Y-92916744D01*
X72390000Y-92916744D01*
X72537674Y-93064418D01*
X72685349Y-92916744D01*
X72537674Y-92769069D01*
X72390000Y-92916744D01*
X63900190Y-92916744D01*
X64563256Y-92477613D01*
X63751047Y-92475667D01*
X63095449Y-92369998D01*
X62996084Y-92098701D01*
X63464057Y-91723649D01*
X63603372Y-91652797D01*
X64267907Y-91332304D01*
X63529535Y-91302921D01*
X63018959Y-91254930D01*
X63052819Y-91088154D01*
X63364473Y-90839909D01*
X64030828Y-90494395D01*
X64464893Y-90406279D01*
X65076832Y-90257863D01*
X65825178Y-89899495D01*
X65846716Y-89886496D01*
X66391882Y-89495667D01*
X66470437Y-89202922D01*
X66295119Y-88987161D01*
X66023842Y-88857320D01*
X65576222Y-88888244D01*
X64855127Y-89106738D01*
X63763423Y-89539605D01*
X62805976Y-89949967D01*
X61465917Y-90496102D01*
X60225079Y-90935235D01*
X59238926Y-91216080D01*
X58736936Y-91292325D01*
X58062076Y-91351945D01*
X57804069Y-91614441D01*
X57781811Y-92002405D01*
X54771065Y-92002405D01*
X54735332Y-91963532D01*
X54775876Y-91735348D01*
X54665195Y-91437425D01*
X54168244Y-91291291D01*
X53468953Y-91294474D01*
X52751249Y-91444498D01*
X52199063Y-91738891D01*
X52165694Y-91770452D01*
X51847175Y-92190549D01*
X51983405Y-92565950D01*
X52144597Y-92753592D01*
X52552060Y-93320750D01*
X52465541Y-93603873D01*
X52127006Y-93655116D01*
X51800756Y-93808789D01*
X46446029Y-93808789D01*
X46514289Y-93532056D01*
X47036037Y-93166531D01*
X47137674Y-93118158D01*
X47749322Y-92759903D01*
X47795692Y-92517405D01*
X47294081Y-92408791D01*
X46483491Y-92432544D01*
X45440114Y-92613703D01*
X44528551Y-92940652D01*
X43912107Y-93340284D01*
X43741163Y-93660191D01*
X22476047Y-93660191D01*
X22476047Y-91686124D01*
X23165194Y-91686124D01*
X23205736Y-91861708D01*
X23362093Y-91883023D01*
X23605199Y-91774959D01*
X23558992Y-91686124D01*
X23208482Y-91650776D01*
X23165194Y-91686124D01*
X22476047Y-91686124D01*
X22476047Y-88452064D01*
X22771395Y-88452064D01*
X22792812Y-89256891D01*
X22847136Y-89746487D01*
X22881743Y-89815581D01*
X23140498Y-89632787D01*
X23699289Y-89158591D01*
X23790110Y-89077209D01*
X34880698Y-89077209D01*
X35028372Y-89224883D01*
X35176047Y-89077209D01*
X35028372Y-88929534D01*
X34880698Y-89077209D01*
X23790110Y-89077209D01*
X24284519Y-88634186D01*
X24982015Y-87980649D01*
X25144090Y-87787327D01*
X33699268Y-87787327D01*
X33801220Y-88178424D01*
X34141631Y-88599218D01*
X34629189Y-88450701D01*
X34821628Y-88279767D01*
X35174087Y-87730284D01*
X35087720Y-87353800D01*
X34609566Y-87295606D01*
X34511512Y-87321903D01*
X33887390Y-87547383D01*
X33699268Y-87787327D01*
X25144090Y-87787327D01*
X25279152Y-87626225D01*
X25218699Y-87479430D01*
X24843423Y-87448784D01*
X24838706Y-87448757D01*
X23958541Y-87370589D01*
X23435930Y-87266636D01*
X23031535Y-87207296D01*
X22836461Y-87405251D01*
X22775313Y-87994992D01*
X22771395Y-88452064D01*
X22476047Y-88452064D01*
X22476047Y-72488449D01*
X22477133Y-67677529D01*
X22480308Y-63033759D01*
X22485444Y-58590919D01*
X22492415Y-54382787D01*
X22501091Y-50443141D01*
X22511347Y-46805761D01*
X22523055Y-43504423D01*
X22536088Y-40572908D01*
X22550318Y-38044993D01*
X22565618Y-35954457D01*
X22581862Y-34335078D01*
X22598920Y-33220635D01*
X22616667Y-32644907D01*
X22626472Y-32569883D01*
X22648610Y-32880793D01*
X22669715Y-33740324D01*
X22689556Y-35106398D01*
X22707897Y-36936939D01*
X22724505Y-39189869D01*
X22739145Y-41823112D01*
X22751583Y-44794591D01*
X22761586Y-48062229D01*
X22768918Y-51583950D01*
X22773347Y-55317675D01*
X22774639Y-59200503D01*
X22775724Y-63918547D01*
X22780122Y-68076690D01*
X22788263Y-71705721D01*
X22800577Y-74836427D01*
X22817495Y-77499599D01*
X22839447Y-79726026D01*
X22866864Y-81546496D01*
X22900176Y-82991798D01*
X22939814Y-84092722D01*
X22986208Y-84880057D01*
X23039789Y-85384591D01*
X23100987Y-85637114D01*
X23144875Y-85680697D01*
X23543043Y-85441239D01*
X23808918Y-85038079D01*
X24226303Y-84541565D01*
X24982706Y-83960772D01*
X25558940Y-83616142D01*
X26566158Y-83015891D01*
X27057672Y-82575542D01*
X27022672Y-82313555D01*
X26450346Y-82248388D01*
X26356833Y-82253840D01*
X25562917Y-82177984D01*
X24934144Y-81900081D01*
X24633031Y-81515415D01*
X24679018Y-81270116D01*
X25112925Y-80992434D01*
X25373128Y-80954012D01*
X26175201Y-80730781D01*
X27102996Y-80159727D01*
X27954330Y-79384354D01*
X28384619Y-78816536D01*
X28829304Y-78023347D01*
X28918102Y-77599236D01*
X28639221Y-77433150D01*
X28235349Y-77410930D01*
X27625472Y-77292440D01*
X27560911Y-76957084D01*
X27970768Y-76499348D01*
X28548633Y-75756185D01*
X28982207Y-74733068D01*
X29122884Y-74014418D01*
X29252326Y-72934725D01*
X29446058Y-71952337D01*
X29664972Y-71226242D01*
X29869958Y-70915430D01*
X29885728Y-70913255D01*
X30156367Y-71097560D01*
X30161220Y-71134767D01*
X30222087Y-71493905D01*
X30383535Y-72310718D01*
X30621312Y-73465528D01*
X30911163Y-74838655D01*
X30924359Y-74900465D01*
X31223186Y-76314491D01*
X31478109Y-77548849D01*
X31662200Y-78471244D01*
X31748534Y-78949383D01*
X31748704Y-78950658D01*
X31989507Y-79563477D01*
X32442967Y-80125875D01*
X32936767Y-80461097D01*
X33221914Y-80461799D01*
X33366685Y-80446528D01*
X33201711Y-80656238D01*
X33081276Y-81192244D01*
X33413768Y-81959827D01*
X34154433Y-82872385D01*
X34538987Y-83244069D01*
X34964061Y-83685151D01*
X35059313Y-83903523D01*
X35036270Y-83908604D01*
X34702654Y-83725703D01*
X34100191Y-83257272D01*
X33660411Y-82874883D01*
X32699759Y-82123467D01*
X32004650Y-81861970D01*
X31531727Y-82076817D01*
X31454624Y-82184344D01*
X31516209Y-82617478D01*
X32108057Y-83203591D01*
X32942901Y-83760930D01*
X33394210Y-84221252D01*
X33503608Y-84499302D01*
X33745785Y-84989078D01*
X34252255Y-85609993D01*
X34856812Y-86194924D01*
X35393250Y-86576746D01*
X35628942Y-86636380D01*
X35877680Y-86854246D01*
X36175543Y-87483505D01*
X36336343Y-87971392D01*
X36620795Y-88940008D01*
X36834496Y-89461633D01*
X37078415Y-89654462D01*
X37453519Y-89636693D01*
X37716311Y-89586822D01*
X38220827Y-89448510D01*
X38196011Y-89280743D01*
X38018709Y-89168732D01*
X37589307Y-88772298D01*
X37652928Y-88446028D01*
X38074278Y-88338837D01*
X38613486Y-88136690D01*
X39274917Y-87636008D01*
X39424742Y-87488136D01*
X40239765Y-86637435D01*
X39332324Y-85991280D01*
X38623752Y-85375796D01*
X38473160Y-84926380D01*
X38876824Y-84626313D01*
X39018812Y-84584034D01*
X39538383Y-84186823D01*
X39775024Y-83651801D01*
X39996523Y-82870358D01*
X40194612Y-82394383D01*
X40422299Y-81784277D01*
X40634652Y-80936597D01*
X40652665Y-80843801D01*
X40843200Y-80148285D01*
X41059269Y-79787740D01*
X41102010Y-79773720D01*
X41315974Y-80028000D01*
X41576210Y-80649893D01*
X41812174Y-81427981D01*
X41953321Y-82150846D01*
X41967423Y-82367292D01*
X42206658Y-82793647D01*
X42412093Y-82915752D01*
X42804782Y-83297360D01*
X42855116Y-83514611D01*
X42703495Y-83795193D01*
X42559767Y-83760930D01*
X42287788Y-83738751D01*
X42275076Y-84093209D01*
X42485984Y-84689130D01*
X42884864Y-85391341D01*
X43050534Y-85621870D01*
X43521273Y-86273667D01*
X43652832Y-86643223D01*
X43475093Y-86909510D01*
X43289433Y-87052656D01*
X42916570Y-87378773D01*
X43006399Y-87643784D01*
X43315527Y-87900801D01*
X43996665Y-88390002D01*
X44405698Y-88649564D01*
X44869662Y-89074556D01*
X44785670Y-89412746D01*
X44258023Y-89554493D01*
X43858289Y-89604660D01*
X44026578Y-89700953D01*
X44110349Y-89723824D01*
X44564568Y-90030161D01*
X44562717Y-90430386D01*
X44139988Y-90690385D01*
X43962674Y-90706150D01*
X43528589Y-90752910D01*
X43630420Y-90930486D01*
X43741163Y-91008727D01*
X44300298Y-91151172D01*
X45255780Y-91168864D01*
X45937603Y-91116478D01*
X47328498Y-90818650D01*
X48227829Y-90293462D01*
X48606914Y-89563566D01*
X48572425Y-89035593D01*
X48576956Y-88453497D01*
X48738162Y-88205953D01*
X48942464Y-87808450D01*
X49051721Y-87067453D01*
X49057442Y-86844662D01*
X49156622Y-85994343D01*
X49416045Y-85681224D01*
X49778534Y-85893277D01*
X50186910Y-86618472D01*
X50374665Y-87121774D01*
X50640609Y-87992933D01*
X50793542Y-88633440D01*
X50809482Y-88820029D01*
X50857869Y-89277611D01*
X50987528Y-89771625D01*
X51140885Y-90138636D01*
X51399906Y-90326040D01*
X51911393Y-90366678D01*
X52822144Y-90293389D01*
X53160749Y-90257772D01*
X54189616Y-90103511D01*
X54976079Y-89903347D01*
X55337024Y-89711030D01*
X55547385Y-89229003D01*
X55803863Y-88428550D01*
X55888947Y-88117325D01*
X56133145Y-87357808D01*
X56366214Y-86911572D01*
X56441778Y-86862093D01*
X56693735Y-87126626D01*
X56903162Y-87797089D01*
X57018947Y-88688776D01*
X57027828Y-88979905D01*
X57262437Y-89665054D01*
X57934977Y-89989286D01*
X59011763Y-89947358D01*
X60459112Y-89534028D01*
X60497123Y-89519875D01*
X62193875Y-88876065D01*
X63407942Y-88383192D01*
X64213749Y-87995844D01*
X64685720Y-87668610D01*
X64898280Y-87356078D01*
X64925854Y-87012835D01*
X64897470Y-86834906D01*
X64857994Y-86239085D01*
X64989330Y-86115101D01*
X72127339Y-86115101D01*
X73440065Y-86932163D01*
X74284214Y-87494244D01*
X74662275Y-87903582D01*
X74627311Y-88289227D01*
X74232384Y-88780229D01*
X74209720Y-88804021D01*
X73886055Y-89195846D01*
X73915220Y-89490807D01*
X74352942Y-89880386D01*
X74570257Y-90042852D01*
X75164334Y-90461857D01*
X75460115Y-90537727D01*
X75631750Y-90281899D01*
X75694507Y-90116690D01*
X76011097Y-89592919D01*
X76339920Y-89602173D01*
X76647264Y-90088568D01*
X76899418Y-90996218D01*
X77062668Y-92269242D01*
X77071852Y-92399883D01*
X77274990Y-92926201D01*
X77558605Y-93064418D01*
X77938812Y-93249343D01*
X77950584Y-93648341D01*
X77610781Y-94027748D01*
X77484767Y-94087634D01*
X77148627Y-94270690D01*
X77274637Y-94502709D01*
X77557166Y-94721592D01*
X77944263Y-95078184D01*
X77853447Y-95330084D01*
X77704840Y-95434348D01*
X77399380Y-95673505D01*
X77535030Y-95694789D01*
X78010944Y-95515295D01*
X78431807Y-95311119D01*
X78911171Y-94977456D01*
X78849580Y-94769062D01*
X78834754Y-94763572D01*
X78650306Y-94551623D01*
X78893762Y-94113258D01*
X79035349Y-93942846D01*
X79352685Y-93527514D01*
X79341936Y-93423903D01*
X79316596Y-93437185D01*
X78821585Y-93459719D01*
X78598997Y-93363890D01*
X78409278Y-93111054D01*
X78554128Y-92686645D01*
X78982285Y-92074015D01*
X79471411Y-91328953D01*
X79749517Y-90704145D01*
X79773721Y-90554243D01*
X79909257Y-89913072D01*
X80105988Y-89451249D01*
X80438256Y-88830402D01*
X80784385Y-89477150D01*
X80979167Y-89790281D01*
X81205159Y-89887393D01*
X81579498Y-89728325D01*
X82219320Y-89272911D01*
X82888746Y-88755619D01*
X83709222Y-88157546D01*
X84792128Y-87424441D01*
X86029635Y-86622705D01*
X87313914Y-85818741D01*
X88537139Y-85078951D01*
X89591479Y-84469736D01*
X90369108Y-84057499D01*
X90759655Y-83908604D01*
X91038095Y-84029826D01*
X90822659Y-84368647D01*
X90152356Y-84887804D01*
X89066196Y-85550032D01*
X89005943Y-85583842D01*
X88121882Y-86127159D01*
X87025644Y-86873384D01*
X85811720Y-87749280D01*
X84574604Y-88681613D01*
X83408789Y-89597146D01*
X82408766Y-90422644D01*
X81669030Y-91084872D01*
X81284073Y-91510594D01*
X81250465Y-91594634D01*
X81427724Y-92295616D01*
X81850663Y-92951788D01*
X82356024Y-93333243D01*
X82503881Y-93359767D01*
X82916848Y-93510880D01*
X82942693Y-93728953D01*
X82587651Y-94005012D01*
X82327383Y-94011355D01*
X81898584Y-94048834D01*
X81882120Y-94290698D01*
X82222169Y-94581119D01*
X82579535Y-94715228D01*
X83138338Y-94962072D01*
X83311103Y-95242141D01*
X83040131Y-95416345D01*
X82874884Y-95427209D01*
X82510033Y-95633819D01*
X82458248Y-96107545D01*
X82697238Y-96629229D01*
X83025220Y-96905377D01*
X83454451Y-97329580D01*
X83436225Y-97949490D01*
X83382512Y-98482068D01*
X83701820Y-98662609D01*
X84024261Y-98676046D01*
X84623648Y-98538621D01*
X84794651Y-98266783D01*
X84923887Y-97721981D01*
X85211012Y-97054985D01*
X85627372Y-96252449D01*
X85972127Y-96896629D01*
X86184297Y-97544159D01*
X86166749Y-97932045D01*
X86209615Y-98455485D01*
X86429962Y-98868850D01*
X86805294Y-99488287D01*
X86720041Y-99796209D01*
X86345233Y-99861964D01*
X86012745Y-99916473D01*
X86235660Y-100124304D01*
X86244612Y-100129987D01*
X86872056Y-100284471D01*
X87181492Y-100019415D01*
X97576551Y-100019415D01*
X97730930Y-100211860D01*
X98047845Y-100809475D01*
X98085349Y-101073294D01*
X98321278Y-101606284D01*
X98887563Y-101777121D01*
X99149700Y-101718683D01*
X99181231Y-101455804D01*
X98842685Y-100933544D01*
X98662017Y-100728469D01*
X98094311Y-100177949D01*
X97679747Y-99876712D01*
X97612433Y-99857441D01*
X97576551Y-100019415D01*
X87181492Y-100019415D01*
X87356139Y-99869816D01*
X87650253Y-99069712D01*
X87930732Y-98282007D01*
X88235451Y-98035126D01*
X88506836Y-98342665D01*
X88636462Y-98836859D01*
X88914758Y-99525194D01*
X89299961Y-99801454D01*
X89667123Y-99747019D01*
X89635272Y-99435875D01*
X89647767Y-99086562D01*
X90124992Y-98972733D01*
X90227006Y-98971395D01*
X90847804Y-98821660D01*
X90996977Y-98475504D01*
X91099708Y-97775154D01*
X91351289Y-97016096D01*
X91666797Y-96395036D01*
X91961310Y-96108681D01*
X92017753Y-96111043D01*
X92232037Y-96439742D01*
X92422048Y-97155984D01*
X92485920Y-97579689D01*
X92609983Y-98421419D01*
X92740679Y-98984403D01*
X92792811Y-99093586D01*
X93092381Y-99024428D01*
X93651349Y-98668836D01*
X93812750Y-98544560D01*
X94363157Y-98068878D01*
X94496752Y-97749916D01*
X94269372Y-97390102D01*
X94170394Y-97279142D01*
X93738177Y-96725915D01*
X93771648Y-96420353D01*
X94295884Y-96216691D01*
X94355803Y-96201430D01*
X94977695Y-95789771D01*
X95234466Y-95135691D01*
X95491508Y-94431095D01*
X95840279Y-94305390D01*
X96243168Y-94761106D01*
X96389823Y-95058023D01*
X96802221Y-95779918D01*
X97195700Y-96239418D01*
X97468966Y-96563407D01*
X97285307Y-96874839D01*
X97069015Y-97051627D01*
X96716950Y-97380552D01*
X96850862Y-97491329D01*
X96949403Y-97494651D01*
X97586107Y-97759658D01*
X98166245Y-98445435D01*
X98537379Y-99340581D01*
X98865066Y-99976058D01*
X99249538Y-100152790D01*
X99858370Y-100019717D01*
X99949085Y-99605227D01*
X99766222Y-99221821D01*
X99591814Y-98760322D01*
X99816707Y-98362541D01*
X100152791Y-98078835D01*
X100602417Y-97686119D01*
X100585925Y-97523709D01*
X100374302Y-97501218D01*
X99940809Y-97308352D01*
X99914359Y-96828511D01*
X100277345Y-96185329D01*
X100612438Y-95828958D01*
X101064796Y-95281423D01*
X101188120Y-94852381D01*
X101170167Y-94810065D01*
X101181052Y-94395629D01*
X101409099Y-93733234D01*
X101748657Y-93049075D01*
X102094074Y-92569344D01*
X102261436Y-92473720D01*
X102424181Y-92735478D01*
X102595222Y-93394137D01*
X102653105Y-93728953D01*
X102866587Y-95055579D01*
X103053770Y-95931817D01*
X103257929Y-96493865D01*
X103522344Y-96877919D01*
X103713717Y-97066777D01*
X104204151Y-97618839D01*
X104160481Y-97952398D01*
X103569279Y-98127912D01*
X103475465Y-98139568D01*
X102663256Y-98233023D01*
X103475465Y-98950820D01*
X104054727Y-99550277D01*
X104272374Y-99964400D01*
X104101410Y-100108112D01*
X103819972Y-100036514D01*
X103476294Y-100004817D01*
X103569239Y-100345616D01*
X104101805Y-101066932D01*
X104287674Y-101288535D01*
X104822720Y-101880585D01*
X105100514Y-102012042D01*
X105232809Y-101683575D01*
X105285518Y-101294503D01*
X105424143Y-100545749D01*
X105542397Y-100152790D01*
X105754303Y-99552740D01*
X105980990Y-98842180D01*
X106307108Y-98092011D01*
X106627664Y-97926068D01*
X106906896Y-98338654D01*
X107066221Y-99015110D01*
X107303416Y-100078293D01*
X107625664Y-101000516D01*
X107980202Y-101702977D01*
X108314266Y-102106875D01*
X108575090Y-102133407D01*
X108662684Y-101854271D01*
X113276238Y-101854271D01*
X113566550Y-101901566D01*
X113949622Y-101847265D01*
X113954196Y-101746443D01*
X113558904Y-101675938D01*
X113388110Y-101723126D01*
X113276238Y-101854271D01*
X108662684Y-101854271D01*
X108709911Y-101703771D01*
X108717907Y-101481860D01*
X228334186Y-101481860D01*
X228481860Y-101629534D01*
X228629535Y-101481860D01*
X228481860Y-101334186D01*
X228334186Y-101481860D01*
X108717907Y-101481860D01*
X108791642Y-101197610D01*
X116987674Y-101197610D01*
X117083242Y-101456727D01*
X117470208Y-101389284D01*
X117754028Y-101267697D01*
X118251311Y-101005025D01*
X118245915Y-100891162D01*
X153906279Y-100891162D01*
X154053953Y-101038837D01*
X154201628Y-100891162D01*
X154053953Y-100743488D01*
X153906279Y-100891162D01*
X118245915Y-100891162D01*
X118243379Y-100837656D01*
X117975539Y-100720288D01*
X117301876Y-100632982D01*
X117004190Y-101000046D01*
X116987674Y-101197610D01*
X108791642Y-101197610D01*
X108871955Y-100888005D01*
X109160930Y-100743488D01*
X109509889Y-100496483D01*
X164104843Y-100496483D01*
X164110569Y-100647279D01*
X164243488Y-100743488D01*
X164836439Y-101015478D01*
X165108417Y-100891162D01*
X199980698Y-100891162D01*
X200043888Y-101285219D01*
X200096773Y-101334186D01*
X200287216Y-101103236D01*
X200382852Y-100891162D01*
X200388991Y-100510854D01*
X200266777Y-100448139D01*
X200012926Y-100687500D01*
X199980698Y-100891162D01*
X165108417Y-100891162D01*
X165204857Y-100847081D01*
X165277209Y-100743488D01*
X165167343Y-100530808D01*
X164630105Y-100452662D01*
X164104843Y-100496483D01*
X109509889Y-100496483D01*
X109519096Y-100489966D01*
X109603953Y-100060807D01*
X109800956Y-99341492D01*
X110194651Y-98744087D01*
X110672068Y-97850630D01*
X110785349Y-97039365D01*
X110875725Y-96298477D01*
X111100195Y-96079636D01*
X111388766Y-96350563D01*
X111671449Y-97078982D01*
X111767400Y-97492249D01*
X112082224Y-98518705D01*
X112558167Y-99459127D01*
X113095532Y-100154772D01*
X113594624Y-100446899D01*
X113623801Y-100448139D01*
X113934203Y-100193281D01*
X114200893Y-99665606D01*
X123234976Y-99665606D01*
X123407237Y-99856691D01*
X123429137Y-99857441D01*
X123770415Y-99620791D01*
X123813100Y-99542863D01*
X164611251Y-99542863D01*
X164651650Y-99562093D01*
X164921181Y-99354173D01*
X164981860Y-99266744D01*
X165057121Y-98990625D01*
X165016722Y-98971395D01*
X164747191Y-99179315D01*
X164686512Y-99266744D01*
X164611251Y-99542863D01*
X123813100Y-99542863D01*
X123896974Y-99389739D01*
X123904984Y-99043502D01*
X123725521Y-99039012D01*
X123371304Y-99309559D01*
X123234976Y-99665606D01*
X114200893Y-99665606D01*
X114254530Y-99559479D01*
X114329063Y-99340581D01*
X114595650Y-98503901D01*
X114814894Y-97865016D01*
X114818231Y-97856210D01*
X115852035Y-97856210D01*
X115938049Y-98059614D01*
X116127238Y-98286655D01*
X116416235Y-98327602D01*
X116478766Y-98310085D01*
X122727401Y-98310085D01*
X123017713Y-98357380D01*
X123400785Y-98303079D01*
X123405359Y-98202257D01*
X123010066Y-98131752D01*
X122839273Y-98178940D01*
X122727401Y-98310085D01*
X116478766Y-98310085D01*
X116973834Y-98171401D01*
X117453308Y-97997545D01*
X124260455Y-97997545D01*
X124666744Y-98038714D01*
X125086030Y-97992300D01*
X125035930Y-97889745D01*
X124431249Y-97850735D01*
X124297558Y-97889745D01*
X124260455Y-97997545D01*
X117453308Y-97997545D01*
X117578372Y-97952197D01*
X118612093Y-97568635D01*
X118538591Y-97554211D01*
X130134124Y-97554211D01*
X130248114Y-97774214D01*
X130313185Y-97817765D01*
X130938409Y-98027315D01*
X131696700Y-98066345D01*
X132312255Y-97937279D01*
X132488137Y-97798658D01*
X132404079Y-97531391D01*
X131926653Y-97336521D01*
X131252576Y-97259462D01*
X130578560Y-97345631D01*
X130556013Y-97352597D01*
X130134124Y-97554211D01*
X118538591Y-97554211D01*
X117482473Y-97346960D01*
X116580568Y-97285086D01*
X116002146Y-97470960D01*
X115852035Y-97856210D01*
X114818231Y-97856210D01*
X114843321Y-97790000D01*
X115087648Y-97085570D01*
X115140740Y-96807340D01*
X151671190Y-96807340D01*
X151902753Y-97131189D01*
X152142347Y-97199302D01*
X152242922Y-97051627D01*
X160699302Y-97051627D01*
X160846977Y-97199302D01*
X160994651Y-97051627D01*
X160846977Y-96903953D01*
X160699302Y-97051627D01*
X152242922Y-97051627D01*
X152290179Y-96982239D01*
X152241643Y-96757975D01*
X151961363Y-96459572D01*
X151803071Y-96483034D01*
X151671190Y-96807340D01*
X115140740Y-96807340D01*
X115178663Y-96608604D01*
X115440581Y-96320920D01*
X115507554Y-96313255D01*
X115946149Y-96139874D01*
X116319763Y-95875840D01*
X116326678Y-95870275D01*
X122420101Y-95870275D01*
X122451628Y-96017907D01*
X122877693Y-96286697D01*
X123077187Y-96313255D01*
X123369202Y-96165538D01*
X123337674Y-96017907D01*
X122911609Y-95749116D01*
X122712116Y-95722558D01*
X122420101Y-95870275D01*
X116326678Y-95870275D01*
X116995380Y-95332160D01*
X117430698Y-94999186D01*
X117834054Y-94672395D01*
X117739579Y-94564930D01*
X117356860Y-94550555D01*
X116825913Y-94468431D01*
X116759425Y-94192697D01*
X117156592Y-93646934D01*
X117345206Y-93441251D01*
X117998087Y-92746291D01*
X117345206Y-92575559D01*
X116795372Y-92263780D01*
X116762848Y-91852120D01*
X117227892Y-91486661D01*
X117504535Y-91396704D01*
X118416610Y-90973436D01*
X118818210Y-90311981D01*
X118729237Y-89587605D01*
X118614233Y-89119105D01*
X118729712Y-89058634D01*
X119041759Y-88979503D01*
X119162573Y-88780164D01*
X119450315Y-88362435D01*
X119757894Y-88516437D01*
X120068671Y-89224330D01*
X120261128Y-89957888D01*
X120601673Y-91084073D01*
X121005908Y-91665951D01*
X121168356Y-91749884D01*
X121645803Y-92047699D01*
X121623812Y-92385438D01*
X121344070Y-92548534D01*
X121352705Y-92702766D01*
X121814092Y-92942231D01*
X122082442Y-93039075D01*
X122887993Y-93439340D01*
X123172800Y-93898583D01*
X122909426Y-94353567D01*
X122709871Y-94485155D01*
X122463114Y-94696729D01*
X122704514Y-94862130D01*
X123060815Y-94962435D01*
X123802850Y-95284921D01*
X124255168Y-95667836D01*
X124640613Y-95966837D01*
X124861647Y-95921453D01*
X124848064Y-95609163D01*
X124590447Y-95390381D01*
X124126902Y-94918682D01*
X124236536Y-94391841D01*
X124666744Y-94019007D01*
X125151052Y-93580455D01*
X125217006Y-93214793D01*
X124846018Y-93064418D01*
X124393504Y-92825552D01*
X124258703Y-92606055D01*
X124238062Y-92301174D01*
X124374778Y-92328137D01*
X124624815Y-92259223D01*
X124666744Y-92048128D01*
X124909740Y-91647137D01*
X125183605Y-91564357D01*
X125463486Y-91488717D01*
X125331279Y-91392070D01*
X124982743Y-91040599D01*
X125129335Y-90564293D01*
X125700465Y-90110930D01*
X126258964Y-89712968D01*
X126438520Y-89378033D01*
X126179381Y-89225628D01*
X126143488Y-89224883D01*
X125879916Y-89021054D01*
X125897371Y-88607756D01*
X126173363Y-88282279D01*
X126216073Y-88265417D01*
X126568968Y-87900514D01*
X126609606Y-87723944D01*
X126694767Y-87155120D01*
X126864680Y-86364190D01*
X126869289Y-86345232D01*
X127151109Y-85698890D01*
X127511644Y-85402374D01*
X127811798Y-85507081D01*
X127915581Y-85958615D01*
X128032542Y-86511254D01*
X128172135Y-86690442D01*
X128379215Y-87060000D01*
X128573409Y-87779792D01*
X128612515Y-87998584D01*
X128846529Y-88844079D01*
X129189297Y-89462636D01*
X129262541Y-89535080D01*
X129585097Y-90095054D01*
X129585659Y-90469138D01*
X129713553Y-91077877D01*
X130155823Y-91483622D01*
X130745780Y-91981126D01*
X130789466Y-92320607D01*
X130287706Y-92469619D01*
X130130698Y-92473720D01*
X129575646Y-92574822D01*
X129392326Y-92769069D01*
X129575971Y-93056219D01*
X129631983Y-93064418D01*
X130055054Y-93257305D01*
X130545946Y-93703503D01*
X130922962Y-94204315D01*
X131004408Y-94561046D01*
X131002885Y-94563587D01*
X130647753Y-94715051D01*
X130553313Y-94676224D01*
X130266970Y-94591158D01*
X130294668Y-94820439D01*
X130569208Y-95227218D01*
X131023391Y-95674643D01*
X131056575Y-95701121D01*
X131878954Y-96215287D01*
X132422998Y-96228485D01*
X132598057Y-95947294D01*
X151671587Y-95947294D01*
X151961899Y-95994589D01*
X152344971Y-95940288D01*
X152349545Y-95839467D01*
X151954253Y-95768962D01*
X151783459Y-95816150D01*
X151671587Y-95947294D01*
X132598057Y-95947294D01*
X132718606Y-95753661D01*
X132632855Y-95217028D01*
X132118424Y-94853930D01*
X131371905Y-94513793D01*
X132523394Y-93908223D01*
X133331465Y-93445799D01*
X133951125Y-93026328D01*
X134069584Y-92925962D01*
X134138161Y-92822343D01*
X138105116Y-92822343D01*
X139138837Y-93114176D01*
X139909432Y-93384349D01*
X140430404Y-93660173D01*
X140465472Y-93690569D01*
X140795500Y-93717655D01*
X141027466Y-93372100D01*
X141361960Y-92893241D01*
X141603211Y-92769069D01*
X141640629Y-92629694D01*
X141336566Y-92349097D01*
X140872300Y-92081977D01*
X140607413Y-92219602D01*
X140527068Y-92349097D01*
X140090209Y-92638554D01*
X139321292Y-92790269D01*
X139197998Y-92795706D01*
X138105116Y-92822343D01*
X134138161Y-92822343D01*
X134234156Y-92677297D01*
X133960488Y-92577062D01*
X133432105Y-92570114D01*
X132457457Y-92432742D01*
X131747769Y-92037625D01*
X131460263Y-91474160D01*
X131459767Y-91448637D01*
X131710113Y-91128081D01*
X132338892Y-90753336D01*
X132641163Y-90622514D01*
X133358057Y-90257347D01*
X133781764Y-89885846D01*
X133831887Y-89608029D01*
X133527209Y-89520232D01*
X133223587Y-89356170D01*
X133281490Y-88991993D01*
X133620676Y-88619714D01*
X133970233Y-88460120D01*
X134562601Y-88123161D01*
X134708605Y-87568446D01*
X134603344Y-87028903D01*
X134413256Y-86862093D01*
X134112207Y-86668455D01*
X134127516Y-86222410D01*
X134398494Y-85726254D01*
X134856279Y-85385348D01*
X135424651Y-84996723D01*
X135638380Y-84580449D01*
X135695271Y-83824135D01*
X135712218Y-83566105D01*
X135860332Y-83006895D01*
X135963837Y-82852345D01*
X136139190Y-82406046D01*
X136185349Y-81939612D01*
X136333810Y-81402119D01*
X136591453Y-81250465D01*
X136924988Y-81522189D01*
X137189315Y-82244222D01*
X137343579Y-83276859D01*
X137366744Y-83901534D01*
X137504747Y-84621737D01*
X137857362Y-85576286D01*
X138128919Y-86140126D01*
X138552401Y-86972424D01*
X138707240Y-87452733D01*
X138614825Y-87743654D01*
X138367818Y-87956208D01*
X138093641Y-88247964D01*
X138196341Y-88338837D01*
X138445527Y-88594711D01*
X138548140Y-89203787D01*
X138718480Y-89998505D01*
X139135025Y-90665825D01*
X139656058Y-90990980D01*
X139731404Y-90996976D01*
X140169479Y-90900199D01*
X140814436Y-90682169D01*
X141642442Y-90367361D01*
X140907500Y-89802690D01*
X140434515Y-89413980D01*
X140414764Y-89260763D01*
X140782749Y-89231451D01*
X141378196Y-89002639D01*
X142063192Y-88440656D01*
X142687777Y-87716015D01*
X143101989Y-86999227D01*
X143173963Y-86512517D01*
X143294326Y-85903218D01*
X143661858Y-85530809D01*
X144035364Y-85241424D01*
X143977297Y-85118189D01*
X143416077Y-85090349D01*
X143215919Y-85090000D01*
X142094559Y-85004390D01*
X141399207Y-84765048D01*
X141206279Y-84467703D01*
X141453160Y-84251192D01*
X141779546Y-84203953D01*
X142354611Y-84054150D01*
X142553374Y-83879438D01*
X142945336Y-83545893D01*
X143624976Y-83176249D01*
X143678363Y-83152627D01*
X144602791Y-82750330D01*
X143790581Y-82738769D01*
X143150554Y-82590817D01*
X143002246Y-82254050D01*
X143335475Y-81851133D01*
X143886572Y-81582347D01*
X144450332Y-81288610D01*
X144620836Y-80991761D01*
X144607513Y-80962757D01*
X144576462Y-80473162D01*
X144659197Y-80290581D01*
X144882981Y-79778469D01*
X145137406Y-78973117D01*
X145193488Y-78761951D01*
X145465757Y-78028281D01*
X145792534Y-77555324D01*
X146077198Y-77428914D01*
X146223131Y-77734889D01*
X146227209Y-77843608D01*
X146350513Y-78393433D01*
X146660526Y-79205499D01*
X146814273Y-79540592D01*
X147177793Y-80506628D01*
X147136255Y-81071357D01*
X147111930Y-81104388D01*
X147067542Y-81451355D01*
X147572041Y-81794604D01*
X147572484Y-81794806D01*
X148284466Y-82052038D01*
X148751571Y-82136511D01*
X149147929Y-82263863D01*
X149114613Y-82523542D01*
X148721084Y-82731981D01*
X148516163Y-82758628D01*
X148105429Y-82800956D01*
X148194993Y-82914293D01*
X148663837Y-83110992D01*
X149323815Y-83455033D01*
X149400720Y-83747984D01*
X148897820Y-84010347D01*
X148811512Y-84036956D01*
X148416415Y-84185070D01*
X148447075Y-84349506D01*
X148952311Y-84637287D01*
X149125043Y-84724296D01*
X149827194Y-85211022D01*
X149974510Y-85705266D01*
X149970681Y-85720795D01*
X149999552Y-86087163D01*
X150247848Y-86070024D01*
X150599329Y-86148171D01*
X150657442Y-86387470D01*
X150432263Y-86798901D01*
X150209759Y-86862093D01*
X150096353Y-87022183D01*
X150450968Y-87479011D01*
X150726619Y-87743703D01*
X151328259Y-88397098D01*
X151413655Y-88789767D01*
X151351419Y-88851261D01*
X151319576Y-89161739D01*
X151833317Y-89681969D01*
X152007823Y-89815581D01*
X152666444Y-90461949D01*
X152998120Y-91108452D01*
X152974912Y-91623548D01*
X152568879Y-91875696D01*
X152446965Y-91883023D01*
X151877591Y-92024470D01*
X151683738Y-92190386D01*
X151283938Y-92367879D01*
X150854098Y-92329435D01*
X150730342Y-92356137D01*
X151060768Y-92596841D01*
X151617326Y-92913779D01*
X152401870Y-93409978D01*
X152911033Y-93876499D01*
X153020233Y-94103800D01*
X153233647Y-94492267D01*
X153414031Y-94541162D01*
X153943690Y-94395536D01*
X153944654Y-94031929D01*
X153680177Y-93758156D01*
X153328937Y-93418907D01*
X153460805Y-93140853D01*
X153684767Y-92958021D01*
X154108614Y-92393250D01*
X154206075Y-91998137D01*
X154309111Y-91307740D01*
X154557941Y-90456669D01*
X154875053Y-89654811D01*
X155182938Y-89112052D01*
X155312435Y-89002288D01*
X155530813Y-89200120D01*
X155734564Y-89810616D01*
X155789963Y-90099509D01*
X156033112Y-90963830D01*
X156389560Y-91290684D01*
X156420234Y-91292325D01*
X156808755Y-91055830D01*
X156859767Y-90849302D01*
X157019247Y-90456261D01*
X157155116Y-90406279D01*
X157399840Y-90160491D01*
X157450465Y-89850028D01*
X157708439Y-89327424D01*
X158092418Y-89125903D01*
X158830005Y-89070848D01*
X159126177Y-89398299D01*
X159066995Y-89840437D01*
X159063047Y-90305630D01*
X159350330Y-90406279D01*
X159742323Y-90596495D01*
X159763268Y-91025156D01*
X159423085Y-91479284D01*
X159296395Y-91564017D01*
X159051206Y-91763755D01*
X159277594Y-91855694D01*
X159813256Y-91878564D01*
X160862920Y-91990094D01*
X161414020Y-92275685D01*
X161432451Y-92712300D01*
X161311582Y-92890739D01*
X161088179Y-93286595D01*
X161349902Y-93513890D01*
X161404411Y-93535546D01*
X161834456Y-93899232D01*
X161787946Y-94311777D01*
X161308082Y-94541366D01*
X161216163Y-94545685D01*
X160499211Y-94658353D01*
X160151307Y-94803870D01*
X159999694Y-95044764D01*
X160338451Y-95340937D01*
X160620867Y-95491486D01*
X161227790Y-95753349D01*
X161541610Y-95659291D01*
X161790465Y-95131299D01*
X161807742Y-95085627D01*
X162159051Y-94412537D01*
X162473441Y-94322387D01*
X162736617Y-94807851D01*
X162906757Y-95648720D01*
X163114275Y-96620474D01*
X163407712Y-97422284D01*
X163532975Y-97635613D01*
X164192664Y-98082532D01*
X165140501Y-98218860D01*
X166161529Y-98043533D01*
X166921508Y-97652365D01*
X167417104Y-97238122D01*
X167474422Y-96944315D01*
X167134426Y-96546058D01*
X167124784Y-96536412D01*
X166431510Y-96146205D01*
X166000474Y-96170376D01*
X165572262Y-96197931D01*
X165430456Y-95808145D01*
X165424884Y-95602371D01*
X165639702Y-94907912D01*
X166310930Y-94393488D01*
X166915298Y-93963222D01*
X167194718Y-93532164D01*
X167196977Y-93499857D01*
X167434915Y-93118998D01*
X167657431Y-93064418D01*
X167961626Y-92919105D01*
X167932371Y-92764252D01*
X167591241Y-92585694D01*
X167492326Y-92621395D01*
X167133140Y-92569458D01*
X167044284Y-92465600D01*
X167040151Y-91993338D01*
X167436155Y-91536526D01*
X168064178Y-91271885D01*
X168193024Y-91258064D01*
X168582514Y-91210125D01*
X168405458Y-91116171D01*
X168304535Y-91088734D01*
X167866220Y-90825620D01*
X167787674Y-90638694D01*
X167999341Y-90224228D01*
X168304535Y-89931371D01*
X168648544Y-89631018D01*
X168483960Y-89538492D01*
X168228724Y-89529625D01*
X167659148Y-89345605D01*
X166728130Y-88847998D01*
X165527945Y-88101460D01*
X164150866Y-87170645D01*
X162689166Y-86120208D01*
X161235120Y-85014803D01*
X159881000Y-83919087D01*
X158719082Y-82897712D01*
X158587025Y-82773827D01*
X157496880Y-81726696D01*
X156748417Y-80940759D01*
X156247145Y-80278872D01*
X155898572Y-79603886D01*
X155716788Y-79087249D01*
X159033013Y-79087249D01*
X159278477Y-79611021D01*
X159827235Y-80357512D01*
X160727436Y-81395533D01*
X161512289Y-82246836D01*
X162178723Y-82909248D01*
X163093995Y-83752277D01*
X164161279Y-84694469D01*
X165283746Y-85654368D01*
X166364568Y-86550519D01*
X167306919Y-87301466D01*
X168013971Y-87825754D01*
X168388896Y-88041928D01*
X168402892Y-88043488D01*
X168819666Y-87788794D01*
X169212266Y-87169085D01*
X169453109Y-86400924D01*
X169473624Y-86226001D01*
X169562881Y-85233672D01*
X169665290Y-84704501D01*
X169810874Y-84511192D01*
X169880874Y-84499302D01*
X170092399Y-84245138D01*
X170294007Y-83631849D01*
X170298140Y-83613255D01*
X170511434Y-82993232D01*
X170755855Y-82727377D01*
X170761139Y-82727209D01*
X170944888Y-82984175D01*
X171147862Y-83609745D01*
X171319812Y-84385924D01*
X171410486Y-85094718D01*
X171391790Y-85463027D01*
X171500062Y-85824776D01*
X171845742Y-86489063D01*
X172086680Y-86888147D01*
X172539894Y-87712605D01*
X172634747Y-88234564D01*
X172516642Y-88482431D01*
X172344874Y-88889266D01*
X172519049Y-89080789D01*
X172729580Y-89493021D01*
X172696137Y-89682662D01*
X172806019Y-90080139D01*
X173119338Y-90263487D01*
X173620082Y-90585584D01*
X174041815Y-91098651D01*
X174237115Y-91590465D01*
X174180450Y-91791022D01*
X174272821Y-92066192D01*
X174695046Y-92552370D01*
X174821056Y-92671847D01*
X175307010Y-93202087D01*
X175321948Y-93497751D01*
X175216752Y-93561622D01*
X175093667Y-93799120D01*
X175432513Y-94267217D01*
X175751331Y-94574802D01*
X176344959Y-95258226D01*
X176467981Y-95755552D01*
X176113445Y-96002345D01*
X175907013Y-96017907D01*
X175422381Y-96247443D01*
X175240647Y-96474369D01*
X174950812Y-96761663D01*
X174454600Y-96719414D01*
X174118413Y-96603622D01*
X173639304Y-96434245D01*
X173502222Y-96460991D01*
X173730328Y-96758656D01*
X174346781Y-97402037D01*
X174374440Y-97430466D01*
X174982606Y-98123836D01*
X175351498Y-98678630D01*
X175408161Y-98896157D01*
X175533318Y-99309335D01*
X175909767Y-99779588D01*
X176365180Y-100153789D01*
X176655579Y-100107359D01*
X176847107Y-99882900D01*
X177033994Y-99379316D01*
X176882770Y-99119069D01*
X198208605Y-99119069D01*
X198356279Y-99266744D01*
X198503953Y-99119069D01*
X198356279Y-98971395D01*
X198208605Y-99119069D01*
X176882770Y-99119069D01*
X176796959Y-98971395D01*
X176573835Y-98576389D01*
X176735884Y-98135989D01*
X176965204Y-97833554D01*
X177342412Y-97051627D01*
X180192326Y-97051627D01*
X180340000Y-97199302D01*
X180487674Y-97051627D01*
X180340000Y-96903953D01*
X180192326Y-97051627D01*
X177342412Y-97051627D01*
X177375748Y-96982524D01*
X177367722Y-96707054D01*
X180881473Y-96707054D01*
X180922015Y-96882638D01*
X181078372Y-96903953D01*
X181321478Y-96795890D01*
X181275271Y-96707054D01*
X180924761Y-96671706D01*
X180881473Y-96707054D01*
X177367722Y-96707054D01*
X177360607Y-96462868D01*
X177338748Y-95870125D01*
X177486528Y-95604338D01*
X177713313Y-95249354D01*
X178035263Y-94484306D01*
X178386561Y-93467468D01*
X178421089Y-93357000D01*
X178832586Y-92181815D01*
X179177412Y-91497782D01*
X179433223Y-91327540D01*
X179577676Y-91693726D01*
X179601628Y-92160941D01*
X179680303Y-92834040D01*
X179858182Y-93188116D01*
X180061788Y-93555900D01*
X180258383Y-94281799D01*
X180308255Y-94556879D01*
X180519749Y-95360531D01*
X180800124Y-95658977D01*
X180863911Y-95651048D01*
X181280844Y-95273255D01*
X181732927Y-94497758D01*
X182134272Y-93505018D01*
X182398994Y-92475496D01*
X182411246Y-92399883D01*
X182576308Y-91688973D01*
X182772301Y-91311058D01*
X182818510Y-91292325D01*
X182981272Y-91555696D01*
X183223534Y-92243146D01*
X183503316Y-93200685D01*
X183778640Y-94274321D01*
X184007526Y-95310063D01*
X184147995Y-96153919D01*
X184151067Y-96180495D01*
X184364209Y-96979286D01*
X184729992Y-97442903D01*
X184907687Y-97494651D01*
X185050574Y-97260846D01*
X185013286Y-96941437D01*
X185063415Y-96493032D01*
X185562894Y-96142962D01*
X185853146Y-96026391D01*
X186837674Y-95664560D01*
X185882216Y-95324373D01*
X185165315Y-94964368D01*
X192079054Y-94964368D01*
X192567988Y-95454908D01*
X192670814Y-95529581D01*
X193431515Y-95874121D01*
X194130294Y-95885612D01*
X194565254Y-95567053D01*
X194592060Y-95501046D01*
X194454776Y-95202908D01*
X194098333Y-95131860D01*
X193605194Y-95012623D01*
X193483023Y-94836511D01*
X193230270Y-94614490D01*
X192744651Y-94541162D01*
X192138580Y-94651238D01*
X192079054Y-94964368D01*
X185165315Y-94964368D01*
X185157132Y-94960259D01*
X185021663Y-94586520D01*
X185474733Y-94191292D01*
X185766294Y-94048290D01*
X186263665Y-93804640D01*
X186243176Y-93704893D01*
X185913955Y-93679104D01*
X185227641Y-93462429D01*
X184920807Y-93215587D01*
X184730878Y-92830698D01*
X185066950Y-92589260D01*
X185106155Y-92574616D01*
X185749379Y-92245086D01*
X186360644Y-91832749D01*
X186816979Y-91456208D01*
X186817112Y-91313538D01*
X186468928Y-91292325D01*
X185897929Y-91078593D01*
X185681728Y-90561009D01*
X185687279Y-90539272D01*
X191116959Y-90539272D01*
X191236388Y-90820212D01*
X191676510Y-91072038D01*
X191737411Y-91089478D01*
X192176166Y-91337018D01*
X192164345Y-91847286D01*
X192142548Y-91918960D01*
X192107336Y-92480357D01*
X192474716Y-93003829D01*
X192780602Y-93267288D01*
X193349960Y-93710267D01*
X193676103Y-93940068D01*
X193697642Y-93948998D01*
X193853355Y-93711160D01*
X194160688Y-93123722D01*
X197310175Y-93123722D01*
X197399624Y-93705353D01*
X197737215Y-94221384D01*
X197765581Y-94245813D01*
X198124974Y-94823746D01*
X198208605Y-95284099D01*
X198381953Y-95881749D01*
X198651628Y-96124712D01*
X198996113Y-96449304D01*
X199085300Y-96890585D01*
X198887791Y-97181287D01*
X198777866Y-97199302D01*
X198725216Y-97395529D01*
X198999986Y-97879739D01*
X199092175Y-98001609D01*
X199489453Y-98564376D01*
X199519698Y-98889390D01*
X199240047Y-99157258D01*
X198920880Y-99445469D01*
X199120422Y-99585572D01*
X199294923Y-99626095D01*
X199944525Y-99563770D01*
X200502830Y-99319070D01*
X200953869Y-98986822D01*
X200942292Y-98879618D01*
X204743611Y-98879618D01*
X204886108Y-98971395D01*
X205337383Y-98810123D01*
X205757387Y-98547070D01*
X206129960Y-98240638D01*
X206025807Y-98171489D01*
X205810847Y-98195641D01*
X205342046Y-98358130D01*
X204932796Y-98631007D01*
X204743611Y-98879618D01*
X200942292Y-98879618D01*
X200927270Y-98740520D01*
X200650504Y-98514752D01*
X200335293Y-98223514D01*
X200374413Y-97923163D01*
X200800547Y-97417523D01*
X200840390Y-97375037D01*
X201355160Y-96614183D01*
X201614987Y-95823315D01*
X201617024Y-95800653D01*
X201743512Y-94937489D01*
X201887500Y-94364915D01*
X201941167Y-94015644D01*
X201748182Y-93759432D01*
X201197347Y-93520874D01*
X200224819Y-93237427D01*
X199173358Y-92950399D01*
X198298152Y-92709632D01*
X197839419Y-92581563D01*
X197459798Y-92680966D01*
X197310175Y-93123722D01*
X194160688Y-93123722D01*
X194168189Y-93109384D01*
X194330794Y-92778548D01*
X194897003Y-91606632D01*
X193292887Y-91006455D01*
X192374883Y-90680190D01*
X191673491Y-90462213D01*
X191404502Y-90406279D01*
X191116959Y-90539272D01*
X185687279Y-90539272D01*
X185844158Y-89924991D01*
X186235532Y-89476467D01*
X186759102Y-88817124D01*
X186775645Y-88339097D01*
X186800428Y-87839161D01*
X187024739Y-87731425D01*
X186958596Y-87611069D01*
X186448846Y-87301599D01*
X185590167Y-86857154D01*
X184995262Y-86570933D01*
X183841649Y-85991792D01*
X182576468Y-85296630D01*
X181290531Y-84543294D01*
X180074653Y-83789633D01*
X179019647Y-83093493D01*
X178216326Y-82512724D01*
X177755504Y-82105172D01*
X177713471Y-81932457D01*
X178097057Y-82024787D01*
X178850563Y-82366276D01*
X179842292Y-82894143D01*
X180371611Y-83199629D01*
X182139727Y-84200485D01*
X183808253Y-85060262D01*
X185290268Y-85740738D01*
X186498851Y-86203691D01*
X187347082Y-86410900D01*
X187643909Y-86397531D01*
X188033755Y-86232559D01*
X187933822Y-86015204D01*
X187670267Y-85801999D01*
X187402549Y-85552278D01*
X190340553Y-85552278D01*
X190515353Y-85813450D01*
X190548707Y-85854109D01*
X190812214Y-86273195D01*
X190641593Y-86476945D01*
X190579363Y-86499715D01*
X190448641Y-86732572D01*
X190771515Y-87230526D01*
X191017198Y-87499385D01*
X191519011Y-88084020D01*
X191617192Y-88426991D01*
X191418947Y-88632105D01*
X191163135Y-88823368D01*
X191159580Y-88999778D01*
X191488670Y-89223749D01*
X192230791Y-89557692D01*
X193040000Y-89890682D01*
X194812093Y-90612050D01*
X195167958Y-89844629D01*
X195442485Y-89049139D01*
X195537144Y-88467022D01*
X195505840Y-88367164D01*
X196405697Y-88367164D01*
X196610969Y-89017535D01*
X197007975Y-90256055D01*
X197333170Y-91064156D01*
X197704975Y-91570645D01*
X198241807Y-91904333D01*
X199062087Y-92194028D01*
X199713639Y-92392424D01*
X200828969Y-92691771D01*
X201773074Y-92873633D01*
X202366360Y-92904735D01*
X202417262Y-92893329D01*
X202802782Y-92900171D01*
X202930942Y-93343258D01*
X202934186Y-93502206D01*
X203072512Y-94318751D01*
X203398579Y-95173184D01*
X203673670Y-95898919D01*
X203715530Y-96450984D01*
X203706299Y-96479505D01*
X203803341Y-96931728D01*
X204193669Y-97338894D01*
X204785247Y-97719818D01*
X204968512Y-97734766D01*
X204869544Y-97519876D01*
X204989568Y-97214823D01*
X205490580Y-96774063D01*
X205738160Y-96609741D01*
X206389377Y-96113453D01*
X206748931Y-95657150D01*
X206773721Y-95550795D01*
X206941125Y-95173468D01*
X207069070Y-95131860D01*
X207309036Y-94884491D01*
X207364419Y-94541162D01*
X207179745Y-94060101D01*
X206921395Y-93950465D01*
X206521081Y-93813555D01*
X206572603Y-93514974D01*
X207037801Y-93222938D01*
X207090430Y-93205313D01*
X207526919Y-92890742D01*
X207546352Y-92604171D01*
X207564796Y-92140603D01*
X207672666Y-92022725D01*
X207946882Y-91628608D01*
X207955116Y-91552813D01*
X207764669Y-91411998D01*
X207585930Y-91484983D01*
X207474350Y-91434464D01*
X207673306Y-91017883D01*
X207745879Y-90903374D01*
X208089770Y-90143059D01*
X207979631Y-89661700D01*
X207528264Y-89520232D01*
X207077704Y-89430610D01*
X206232034Y-89192789D01*
X205153806Y-88853334D01*
X204863355Y-88756836D01*
X203795551Y-88418808D01*
X202960661Y-88193198D01*
X202499685Y-88116809D01*
X202455540Y-88128336D01*
X202647166Y-88289826D01*
X203273955Y-88607442D01*
X204219952Y-89024722D01*
X204713296Y-89227712D01*
X205976237Y-89791883D01*
X206671880Y-90213436D01*
X206812983Y-90461364D01*
X206412305Y-90504662D01*
X205482606Y-90312326D01*
X204403519Y-89980512D01*
X203255600Y-89612235D01*
X202490452Y-89405074D01*
X202149193Y-89360085D01*
X202272943Y-89478323D01*
X202902822Y-89760846D01*
X203395693Y-89954617D01*
X204233998Y-90341102D01*
X204545122Y-90623511D01*
X204387997Y-90771227D01*
X203821555Y-90753635D01*
X202904728Y-90540119D01*
X202512295Y-90413549D01*
X201572733Y-90124553D01*
X200858821Y-89967992D01*
X200561969Y-89969081D01*
X200254783Y-89915436D01*
X200227435Y-89864253D01*
X199916409Y-89649600D01*
X199198700Y-89331031D01*
X198504202Y-89077209D01*
X201457442Y-89077209D01*
X201605116Y-89224883D01*
X201752791Y-89077209D01*
X201605116Y-88929534D01*
X201457442Y-89077209D01*
X198504202Y-89077209D01*
X198267034Y-88990530D01*
X196405697Y-88367164D01*
X195505840Y-88367164D01*
X195407848Y-88054578D01*
X195210383Y-87895813D01*
X201752791Y-87895813D01*
X201900465Y-88043488D01*
X202048140Y-87895813D01*
X201900465Y-87748139D01*
X201752791Y-87895813D01*
X195210383Y-87895813D01*
X194929647Y-87670096D01*
X193996774Y-87232386D01*
X193852209Y-87173618D01*
X192737194Y-86696792D01*
X191678265Y-86198124D01*
X191139405Y-85915582D01*
X190524305Y-85583797D01*
X190340553Y-85552278D01*
X187402549Y-85552278D01*
X187299175Y-85455853D01*
X187406814Y-85184385D01*
X187668105Y-84970278D01*
X187859233Y-84767933D01*
X187836655Y-84546017D01*
X187531089Y-84242507D01*
X186873254Y-83795381D01*
X185793869Y-83142616D01*
X185305315Y-82855053D01*
X183780633Y-81939332D01*
X182807212Y-81335125D01*
X195598074Y-81335125D01*
X195669936Y-81500180D01*
X195967321Y-81817250D01*
X196138288Y-81752208D01*
X196141163Y-81710918D01*
X195931383Y-81461108D01*
X195800180Y-81369936D01*
X195598074Y-81335125D01*
X182807212Y-81335125D01*
X182109511Y-80902059D01*
X181863080Y-80744427D01*
X194712028Y-80744427D01*
X194783890Y-80909482D01*
X195081275Y-81226552D01*
X195252241Y-81161510D01*
X195255116Y-81120221D01*
X195045336Y-80870410D01*
X194914134Y-80779238D01*
X194712028Y-80744427D01*
X181863080Y-80744427D01*
X181499865Y-80512093D01*
X194073721Y-80512093D01*
X194221395Y-80659767D01*
X194369070Y-80512093D01*
X194221395Y-80364418D01*
X194073721Y-80512093D01*
X181499865Y-80512093D01*
X180555400Y-79907956D01*
X180480269Y-79858381D01*
X193235284Y-79858381D01*
X193307146Y-80023435D01*
X193604530Y-80340506D01*
X193775497Y-80275463D01*
X193778372Y-80234174D01*
X193568592Y-79984363D01*
X193437389Y-79893192D01*
X193235284Y-79858381D01*
X180480269Y-79858381D01*
X179896977Y-79473497D01*
X178994734Y-78889918D01*
X192025626Y-78889918D01*
X192098966Y-79042862D01*
X192263955Y-79256860D01*
X192695048Y-79716033D01*
X192887477Y-79714036D01*
X192892326Y-79662210D01*
X192690492Y-79415671D01*
X192375465Y-79145349D01*
X192025626Y-78889918D01*
X178994734Y-78889918D01*
X177929176Y-78200706D01*
X176393948Y-77307514D01*
X175295495Y-76796085D01*
X174638020Y-76668583D01*
X174524934Y-76707021D01*
X174332457Y-76730800D01*
X174395662Y-76585336D01*
X174323387Y-76224672D01*
X173924435Y-75900650D01*
X173464171Y-75676885D01*
X173460033Y-75795389D01*
X173694651Y-76107343D01*
X173980287Y-76491744D01*
X173873390Y-76460810D01*
X173620814Y-76267208D01*
X173199217Y-75696042D01*
X173103953Y-75293587D01*
X173059411Y-75195813D01*
X173399302Y-75195813D01*
X173546977Y-75343488D01*
X173694651Y-75195813D01*
X173546977Y-75048139D01*
X173399302Y-75195813D01*
X173059411Y-75195813D01*
X172858282Y-74754321D01*
X172246510Y-74237640D01*
X172219774Y-74222193D01*
X171624652Y-73821335D01*
X171338233Y-73506213D01*
X171333728Y-73480127D01*
X171146951Y-73372235D01*
X171039895Y-73421630D01*
X170873735Y-73373327D01*
X170929967Y-73127690D01*
X171052761Y-72915309D01*
X171254195Y-72892246D01*
X171617025Y-73111375D01*
X172224007Y-73625573D01*
X173157897Y-74487716D01*
X173370219Y-74686862D01*
X174187241Y-75281695D01*
X175460828Y-75992769D01*
X177081935Y-76765994D01*
X178941522Y-77547279D01*
X179804784Y-77878761D01*
X181816744Y-78629288D01*
X181571548Y-78381637D01*
X191167842Y-78381637D01*
X191239704Y-78546691D01*
X191537089Y-78863761D01*
X191708055Y-78798719D01*
X191710930Y-78757430D01*
X191501150Y-78507619D01*
X191369947Y-78416447D01*
X191167842Y-78381637D01*
X181571548Y-78381637D01*
X180694286Y-77495590D01*
X189986446Y-77495590D01*
X190058308Y-77660645D01*
X190355693Y-77977715D01*
X190526660Y-77912673D01*
X190529535Y-77871384D01*
X190319755Y-77621573D01*
X190188552Y-77530401D01*
X189986446Y-77495590D01*
X180694286Y-77495590D01*
X180109446Y-76904893D01*
X189100400Y-76904893D01*
X189172262Y-77069947D01*
X189469647Y-77387017D01*
X189640613Y-77321975D01*
X189643488Y-77280686D01*
X189433708Y-77030875D01*
X189302506Y-76939703D01*
X189100400Y-76904893D01*
X180109446Y-76904893D01*
X179327692Y-76115311D01*
X179229365Y-76018846D01*
X187919005Y-76018846D01*
X187990866Y-76183901D01*
X188288251Y-76500971D01*
X188459218Y-76435928D01*
X188462093Y-76394639D01*
X188252313Y-76144829D01*
X188121110Y-76053657D01*
X187919005Y-76018846D01*
X179229365Y-76018846D01*
X178346930Y-75153120D01*
X177509608Y-74384749D01*
X176903768Y-73887356D01*
X176617450Y-73738103D01*
X176616123Y-73738857D01*
X176289364Y-73662139D01*
X176179890Y-73530579D01*
X176140117Y-73323436D01*
X176307157Y-73395517D01*
X176649278Y-73534493D01*
X176589300Y-73291220D01*
X176148334Y-72695541D01*
X175347490Y-71777297D01*
X174580698Y-70955028D01*
X173711988Y-70012113D01*
X173023149Y-69207231D01*
X172601978Y-68646346D01*
X172513256Y-68459749D01*
X172649090Y-68319268D01*
X172867674Y-68491395D01*
X173300123Y-68796133D01*
X173574470Y-68800815D01*
X173518773Y-68504831D01*
X173483560Y-68303051D01*
X173653835Y-68377564D01*
X173886968Y-68702725D01*
X173860738Y-68816021D01*
X174038026Y-69047564D01*
X174603640Y-69514107D01*
X175445830Y-70136252D01*
X176452843Y-70834598D01*
X177512930Y-71529747D01*
X178514340Y-72142301D01*
X178663565Y-72228431D01*
X178617314Y-72125418D01*
X178209911Y-71683433D01*
X177507660Y-70971184D01*
X176576870Y-70057381D01*
X176448448Y-69933076D01*
X175397550Y-68896352D01*
X174588179Y-68021755D01*
X173920785Y-67169287D01*
X173295819Y-66198948D01*
X172937282Y-65553344D01*
X185275732Y-65553344D01*
X185388787Y-65948037D01*
X185879857Y-66769987D01*
X186529411Y-67719318D01*
X187339263Y-68913787D01*
X188158524Y-70197274D01*
X188761554Y-71208604D01*
X189832963Y-72848348D01*
X191294202Y-74703126D01*
X193043975Y-76659767D01*
X194980987Y-78605098D01*
X197003944Y-80425947D01*
X197035318Y-80452489D01*
X198699498Y-81800177D01*
X200220163Y-82878886D01*
X201830004Y-83839937D01*
X203761716Y-84834651D01*
X203811092Y-84858791D01*
X205345544Y-85608393D01*
X206424216Y-86140214D01*
X207121248Y-86497455D01*
X207510778Y-86723314D01*
X207666946Y-86860992D01*
X207663888Y-86953687D01*
X207575745Y-87044601D01*
X207570788Y-87049522D01*
X207200201Y-87074596D01*
X206534331Y-86892114D01*
X206414005Y-86845508D01*
X205427332Y-86420398D01*
X204103633Y-85813821D01*
X202590214Y-85097225D01*
X201034378Y-84342060D01*
X199583429Y-83619774D01*
X198384672Y-83001817D01*
X197617907Y-82579015D01*
X196944382Y-82199102D01*
X196754867Y-82145561D01*
X197027209Y-82403761D01*
X197497221Y-82713127D01*
X198372109Y-83217674D01*
X199555296Y-83867524D01*
X200950206Y-84612796D01*
X202460262Y-85403612D01*
X203988889Y-86190092D01*
X205439510Y-86922358D01*
X206715549Y-87550529D01*
X207720429Y-88024727D01*
X208357573Y-88295072D01*
X208518713Y-88338837D01*
X208804617Y-88100054D01*
X208841163Y-87895813D01*
X208960286Y-87483066D01*
X209226997Y-87517712D01*
X209505311Y-87928968D01*
X209615885Y-88299078D01*
X209758903Y-88731494D01*
X210064270Y-89080727D01*
X210646296Y-89423919D01*
X211619285Y-89838210D01*
X212266641Y-90087971D01*
X213364202Y-90533793D01*
X214213255Y-90933695D01*
X214688997Y-91226263D01*
X214748140Y-91309126D01*
X214751532Y-91466597D01*
X214688343Y-91543204D01*
X214448527Y-91519548D01*
X213922036Y-91376231D01*
X212998825Y-91093857D01*
X212298674Y-90877368D01*
X211154902Y-90543989D01*
X210504886Y-90408708D01*
X210288953Y-90463130D01*
X210359915Y-90604569D01*
X210566592Y-91029009D01*
X210382727Y-91252264D01*
X210213444Y-91571849D01*
X210418524Y-92184655D01*
X210473988Y-92294215D01*
X210733319Y-92940186D01*
X210764498Y-93353345D01*
X210760447Y-93360550D01*
X210853474Y-93698438D01*
X211272264Y-94216216D01*
X211347609Y-94289694D01*
X211942988Y-94996238D01*
X212018881Y-95476659D01*
X211576013Y-95706122D01*
X211305852Y-95722558D01*
X210769258Y-95748967D01*
X210731727Y-95927608D01*
X211084341Y-96345674D01*
X211703623Y-96858905D01*
X212580471Y-97397407D01*
X212902209Y-97559595D01*
X213644919Y-97977747D01*
X214095265Y-98363557D01*
X214157442Y-98501828D01*
X214348231Y-99004091D01*
X214511860Y-99207674D01*
X214948795Y-99463795D01*
X215444298Y-99555682D01*
X215779980Y-99473175D01*
X215781860Y-99266744D01*
X215661029Y-99196131D01*
X228462284Y-99196131D01*
X228752597Y-99243427D01*
X229135669Y-99189125D01*
X229140242Y-99088304D01*
X228744950Y-99017799D01*
X228574157Y-99064987D01*
X228462284Y-99196131D01*
X215661029Y-99196131D01*
X215368393Y-99025117D01*
X214980282Y-98971395D01*
X214559314Y-98935499D01*
X214579277Y-98823720D01*
X215929535Y-98823720D01*
X216077209Y-98971395D01*
X216224884Y-98823720D01*
X216077209Y-98676046D01*
X215929535Y-98823720D01*
X214579277Y-98823720D01*
X214596474Y-98727425D01*
X214871607Y-98407446D01*
X215124348Y-98085348D01*
X227448140Y-98085348D01*
X227660120Y-98372243D01*
X227726058Y-98380697D01*
X228126059Y-98166009D01*
X228186512Y-98085348D01*
X228119556Y-97832500D01*
X227908593Y-97790000D01*
X227504493Y-97944201D01*
X227448140Y-98085348D01*
X215124348Y-98085348D01*
X215206574Y-97980557D01*
X215100522Y-97770490D01*
X214769708Y-97649171D01*
X214247188Y-97298247D01*
X214237548Y-96830713D01*
X214544915Y-96537992D01*
X222555308Y-96537992D01*
X222845620Y-96585287D01*
X223228692Y-96530986D01*
X223233265Y-96430164D01*
X222837973Y-96359659D01*
X222667180Y-96406847D01*
X222555308Y-96537992D01*
X214544915Y-96537992D01*
X214716151Y-96374915D01*
X215043488Y-96222849D01*
X215671947Y-95941440D01*
X215695973Y-95904930D01*
X221345739Y-95904930D01*
X221393488Y-96017907D01*
X221665683Y-96284912D01*
X222022883Y-96139701D01*
X222374468Y-95812921D01*
X222702283Y-95455916D01*
X222591607Y-95423776D01*
X222329216Y-95517572D01*
X221733314Y-95691603D01*
X221499576Y-95722558D01*
X221345739Y-95904930D01*
X215695973Y-95904930D01*
X215870829Y-95639221D01*
X215649790Y-95170688D01*
X215154412Y-94551349D01*
X215131691Y-94521932D01*
X216001948Y-94521932D01*
X216042348Y-94541162D01*
X216311879Y-94333243D01*
X216372558Y-94245813D01*
X216447819Y-93969694D01*
X216407419Y-93950465D01*
X216137888Y-94158384D01*
X216077209Y-94245813D01*
X216001948Y-94521932D01*
X215131691Y-94521932D01*
X214696710Y-93958750D01*
X214485723Y-93586225D01*
X214489877Y-93538525D01*
X214806805Y-93337909D01*
X215191163Y-93116957D01*
X215575307Y-92868767D01*
X215472797Y-92802056D01*
X221047603Y-92802056D01*
X221358516Y-93223143D01*
X221688837Y-93512956D01*
X222362212Y-93987716D01*
X222901741Y-94234538D01*
X222978517Y-94244346D01*
X223257309Y-94467089D01*
X223227679Y-94836511D01*
X223211115Y-95307469D01*
X223340906Y-95427209D01*
X223564728Y-95181863D01*
X223608605Y-94885736D01*
X223718051Y-94309722D01*
X223830116Y-94122751D01*
X223991350Y-93690918D01*
X224051628Y-93045053D01*
X224034300Y-92914890D01*
X226085316Y-92914890D01*
X226185984Y-93239682D01*
X226547058Y-93602535D01*
X227037694Y-93837358D01*
X227633305Y-94103564D01*
X227652536Y-94411109D01*
X227099074Y-94689766D01*
X226991426Y-94718664D01*
X226476193Y-94892260D01*
X226473384Y-95140892D01*
X226731898Y-95451663D01*
X227062500Y-96123354D01*
X227023438Y-96523767D01*
X226938041Y-96864367D01*
X227156860Y-96719753D01*
X227171282Y-96705521D01*
X227688377Y-96489575D01*
X228163679Y-96673442D01*
X228334186Y-97083226D01*
X228555618Y-97429253D01*
X229019703Y-97473327D01*
X229308291Y-97308143D01*
X229335189Y-96934409D01*
X229186301Y-96545202D01*
X229051805Y-95941193D01*
X229340334Y-95457677D01*
X229634410Y-94985311D01*
X229458907Y-94599595D01*
X229437712Y-94577806D01*
X229259729Y-94232715D01*
X229308272Y-94186500D01*
X231878372Y-94186500D01*
X232115443Y-94529161D01*
X232355124Y-94660911D01*
X232700668Y-95049567D01*
X232686980Y-95601835D01*
X232713905Y-96278517D01*
X232948600Y-96515807D01*
X233301733Y-96852185D01*
X233299687Y-97269129D01*
X232952658Y-97493239D01*
X232912093Y-97494651D01*
X232519052Y-97654131D01*
X232469070Y-97790000D01*
X232686387Y-98018726D01*
X232801337Y-98011511D01*
X233180625Y-98174217D01*
X233284661Y-98353924D01*
X233258216Y-98638386D01*
X232956715Y-98586363D01*
X232636008Y-98533505D01*
X232736151Y-98851059D01*
X232768613Y-98908486D01*
X233087478Y-99570413D01*
X233347679Y-100226627D01*
X233758468Y-100814044D01*
X234329709Y-101058861D01*
X234853960Y-100895377D01*
X234979535Y-100743488D01*
X234889104Y-100511021D01*
X234553942Y-100448139D01*
X234061232Y-100263311D01*
X233983566Y-99839591D01*
X234336406Y-99373126D01*
X234462674Y-99290401D01*
X234764877Y-99049754D01*
X234707442Y-98980376D01*
X234298691Y-99153008D01*
X233895233Y-99460194D01*
X233496505Y-99715118D01*
X233355116Y-99625299D01*
X233564426Y-99180036D01*
X233622738Y-99136206D01*
X233782950Y-98751676D01*
X233749799Y-98433302D01*
X233802466Y-98021136D01*
X234273656Y-97660256D01*
X234811247Y-97423634D01*
X235573743Y-97039063D01*
X235975903Y-96668340D01*
X235958276Y-96398439D01*
X235570233Y-96313255D01*
X235230433Y-96085911D01*
X235137121Y-95587552D01*
X235312651Y-95093686D01*
X235460486Y-94960745D01*
X235593141Y-94700246D01*
X235154900Y-94449284D01*
X234165563Y-94216214D01*
X233428953Y-94103390D01*
X232460765Y-94024501D01*
X231942828Y-94098195D01*
X231878372Y-94186500D01*
X229308272Y-94186500D01*
X229590127Y-93918160D01*
X229656006Y-93880131D01*
X229906261Y-93685594D01*
X229796254Y-93525235D01*
X229245645Y-93351384D01*
X228474610Y-93179115D01*
X227476565Y-92977525D01*
X226691184Y-92834871D01*
X226349851Y-92788032D01*
X226085316Y-92914890D01*
X224034300Y-92914890D01*
X223980638Y-92511793D01*
X223690066Y-92127300D01*
X223562468Y-92061734D01*
X231679548Y-92061734D01*
X231730698Y-92129292D01*
X232178052Y-92366499D01*
X232953541Y-92607320D01*
X233889406Y-92820462D01*
X234817883Y-92974633D01*
X235571214Y-93038540D01*
X235981635Y-92980890D01*
X236013256Y-92928128D01*
X235745525Y-92770939D01*
X235036187Y-92552014D01*
X234026023Y-92308344D01*
X232855814Y-92076922D01*
X232616744Y-92035663D01*
X231872710Y-91956871D01*
X231679548Y-92061734D01*
X223562468Y-92061734D01*
X223063506Y-91805343D01*
X221984551Y-91459688D01*
X221865671Y-91425719D01*
X221368226Y-91341614D01*
X221296778Y-91565374D01*
X221358814Y-91751489D01*
X221357143Y-92321600D01*
X221181980Y-92530926D01*
X221047603Y-92802056D01*
X215472797Y-92802056D01*
X215447450Y-92785561D01*
X215265000Y-92778050D01*
X214796233Y-92664543D01*
X214844195Y-92378424D01*
X215375725Y-91962814D01*
X216235879Y-91515634D01*
X217723619Y-90836615D01*
X217048089Y-90111518D01*
X216960733Y-90005236D01*
X224111324Y-90005236D01*
X224118184Y-90030197D01*
X224367878Y-90384026D01*
X224452413Y-90417755D01*
X224804793Y-90502839D01*
X225576982Y-90719331D01*
X226623838Y-91026148D01*
X227005116Y-91140301D01*
X228573889Y-91584913D01*
X229623699Y-91815092D01*
X230184366Y-91834945D01*
X230285713Y-91648579D01*
X230253953Y-91587674D01*
X229842009Y-91347159D01*
X229424314Y-91286035D01*
X228853330Y-91190909D01*
X227902749Y-90943375D01*
X226748863Y-90590796D01*
X226375539Y-90466930D01*
X225103660Y-90070864D01*
X224345192Y-89916244D01*
X224111324Y-90005236D01*
X216960733Y-90005236D01*
X216586402Y-89549804D01*
X216374097Y-89161018D01*
X216372558Y-89142901D01*
X216121065Y-88923886D01*
X215652647Y-88655117D01*
X221984186Y-88655117D01*
X221988152Y-88774932D01*
X222405104Y-89064496D01*
X222427209Y-89077209D01*
X223063152Y-89386502D01*
X223460930Y-89499300D01*
X223456964Y-89379485D01*
X223040012Y-89089922D01*
X223017907Y-89077209D01*
X222381964Y-88767915D01*
X221984186Y-88655117D01*
X215652647Y-88655117D01*
X215445778Y-88536420D01*
X215346104Y-88486511D01*
X221245814Y-88486511D01*
X221393488Y-88634186D01*
X221541163Y-88486511D01*
X221393488Y-88338837D01*
X221245814Y-88486511D01*
X215346104Y-88486511D01*
X214465485Y-88045566D01*
X214006784Y-87832800D01*
X220407377Y-87832800D01*
X220479239Y-87997854D01*
X220776623Y-88314924D01*
X220947590Y-88249882D01*
X220950465Y-88208593D01*
X220740685Y-87958782D01*
X220609482Y-87867610D01*
X220407377Y-87832800D01*
X214006784Y-87832800D01*
X213836266Y-87753706D01*
X212963020Y-87343516D01*
X224691922Y-87343516D01*
X224707632Y-87434811D01*
X225069261Y-87729701D01*
X225085349Y-87742129D01*
X225637609Y-88146221D01*
X226190307Y-88478250D01*
X226849709Y-88778554D01*
X227722080Y-89087471D01*
X228913685Y-89445342D01*
X230530790Y-89892503D01*
X231287674Y-90096569D01*
X233154702Y-90592738D01*
X234527929Y-90939231D01*
X235482096Y-91146631D01*
X236091944Y-91225521D01*
X236432217Y-91186484D01*
X236577654Y-91040102D01*
X236595736Y-90908914D01*
X237984502Y-90908914D01*
X238234760Y-91408272D01*
X238240131Y-91416495D01*
X238647323Y-91847119D01*
X239299576Y-92160368D01*
X240346967Y-92420690D01*
X240757405Y-92497517D01*
X241994097Y-92764869D01*
X242644405Y-93000608D01*
X242712115Y-93176153D01*
X242201015Y-93262921D01*
X241114893Y-93232331D01*
X240665000Y-93194828D01*
X239493774Y-93119150D01*
X238867447Y-93152434D01*
X238754129Y-93276212D01*
X239121928Y-93472016D01*
X239938955Y-93721380D01*
X241173319Y-94005834D01*
X242498205Y-94256441D01*
X243844677Y-94487034D01*
X244978463Y-94674187D01*
X245772301Y-94797353D01*
X246090833Y-94836511D01*
X246337683Y-95066875D01*
X246350465Y-95170009D01*
X246292757Y-95296656D01*
X246068014Y-95368401D01*
X245598803Y-95381911D01*
X244807695Y-95333850D01*
X243617257Y-95220886D01*
X241950060Y-95039686D01*
X241104043Y-94944136D01*
X240208490Y-94863776D01*
X239776428Y-94905446D01*
X239688477Y-95095339D01*
X239732735Y-95245006D01*
X239744682Y-95645390D01*
X239605690Y-95722558D01*
X239592938Y-95910827D01*
X239917126Y-96387390D01*
X240164789Y-96674426D01*
X240695627Y-97296116D01*
X241003282Y-97734806D01*
X241034186Y-97819657D01*
X240791741Y-98228740D01*
X240272794Y-98510979D01*
X239791891Y-98497103D01*
X239601958Y-98446697D01*
X239831280Y-98786500D01*
X240403308Y-99301955D01*
X241086512Y-99736826D01*
X241715774Y-100168526D01*
X241901149Y-100531026D01*
X241611516Y-100729854D01*
X241418140Y-100743488D01*
X241092329Y-100823461D01*
X241270465Y-101097907D01*
X241592789Y-101557803D01*
X241398916Y-101863387D01*
X240828078Y-102060832D01*
X240320607Y-102266565D01*
X240396317Y-102486404D01*
X240400645Y-102489103D01*
X240683674Y-102921581D01*
X240680590Y-103107199D01*
X240826030Y-103493240D01*
X241360241Y-103691373D01*
X242104896Y-103678991D01*
X242881670Y-103433487D01*
X242953953Y-103395406D01*
X243527530Y-103001230D01*
X243762734Y-102516346D01*
X243767866Y-102250178D01*
X249682971Y-102250178D01*
X249744940Y-102546123D01*
X249765966Y-102602156D01*
X249999939Y-102963823D01*
X250132960Y-102966420D01*
X250099830Y-102653982D01*
X249931300Y-102436821D01*
X249682971Y-102250178D01*
X243767866Y-102250178D01*
X243778566Y-101695187D01*
X243778501Y-101693904D01*
X243799079Y-100861256D01*
X244010539Y-100437422D01*
X244265024Y-100306177D01*
X244672548Y-99953542D01*
X244661262Y-99551818D01*
X244687674Y-99073712D01*
X244986948Y-98971395D01*
X245382632Y-98860549D01*
X245429443Y-98749883D01*
X245402298Y-97928006D01*
X245547981Y-97246358D01*
X245817264Y-96911536D01*
X245869280Y-96903953D01*
X246127355Y-97127504D01*
X246328342Y-97834916D01*
X246477861Y-98971395D01*
X246632160Y-100146493D01*
X246823655Y-100809018D01*
X247076064Y-101036943D01*
X247106721Y-101038837D01*
X247495855Y-100874656D01*
X247402065Y-100464410D01*
X247242871Y-100277289D01*
X247166065Y-99840731D01*
X247343034Y-99156701D01*
X248779512Y-99156701D01*
X248861769Y-99564735D01*
X249051461Y-100037240D01*
X249247574Y-100051019D01*
X249547946Y-99571401D01*
X249702708Y-99266744D01*
X249972581Y-98667058D01*
X249938995Y-98425140D01*
X249594096Y-98380697D01*
X248964246Y-98582480D01*
X248779512Y-99156701D01*
X247343034Y-99156701D01*
X247343928Y-99153245D01*
X247678764Y-98437992D01*
X247949983Y-98080236D01*
X254354113Y-98080236D01*
X254445020Y-98299016D01*
X254582559Y-98473073D01*
X255124123Y-98929500D01*
X255550761Y-98813665D01*
X255653953Y-98676046D01*
X255646504Y-98465358D01*
X273274819Y-98465358D01*
X273346680Y-98630412D01*
X273644065Y-98947482D01*
X273815032Y-98882440D01*
X273817907Y-98841151D01*
X273608127Y-98591340D01*
X273476924Y-98500168D01*
X273274819Y-98465358D01*
X255646504Y-98465358D01*
X255644309Y-98403285D01*
X255547865Y-98380697D01*
X255046335Y-98284513D01*
X254718226Y-98177724D01*
X254354113Y-98080236D01*
X247949983Y-98080236D01*
X248072874Y-97918135D01*
X248331767Y-97790000D01*
X248669533Y-97552291D01*
X248713256Y-97346976D01*
X248879837Y-96954046D01*
X249022030Y-96903953D01*
X249525722Y-96683443D01*
X250070607Y-96159567D01*
X250487107Y-95538810D01*
X250605645Y-95027654D01*
X250594227Y-94989586D01*
X250637182Y-94433014D01*
X250925705Y-93953412D01*
X250984941Y-93877728D01*
X253254421Y-93877728D01*
X253561352Y-94396538D01*
X253572303Y-94413254D01*
X253884684Y-95119557D01*
X253770840Y-95530717D01*
X253623771Y-96000777D01*
X254001275Y-96493228D01*
X254472558Y-96812747D01*
X255098882Y-97128361D01*
X255342209Y-97136107D01*
X255141944Y-96852532D01*
X255033177Y-96756279D01*
X255801628Y-96756279D01*
X255949302Y-96903953D01*
X256096977Y-96756279D01*
X255949302Y-96608604D01*
X255801628Y-96756279D01*
X255033177Y-96756279D01*
X254949739Y-96682441D01*
X254504428Y-96016800D01*
X254592928Y-95307262D01*
X254946238Y-94934961D01*
X268895426Y-94934961D01*
X268935969Y-95110545D01*
X269092326Y-95131860D01*
X269335431Y-95023796D01*
X269289225Y-94934961D01*
X268938715Y-94899613D01*
X268895426Y-94934961D01*
X254946238Y-94934961D01*
X255184539Y-94683851D01*
X255457474Y-94532135D01*
X255747445Y-94393488D01*
X258459767Y-94393488D01*
X258607442Y-94541162D01*
X258755116Y-94393488D01*
X258607442Y-94245813D01*
X258459767Y-94393488D01*
X255747445Y-94393488D01*
X256244651Y-94155753D01*
X255506279Y-93934875D01*
X254621893Y-93752922D01*
X253921730Y-93684556D01*
X253349639Y-93692344D01*
X253254421Y-93877728D01*
X250984941Y-93877728D01*
X251257297Y-93529750D01*
X251126798Y-93338504D01*
X250740013Y-93242165D01*
X250030460Y-93119093D01*
X249038558Y-92975237D01*
X248565581Y-92914027D01*
X247745913Y-92781415D01*
X246499179Y-92541381D01*
X244972796Y-92223964D01*
X243314180Y-91859204D01*
X242688898Y-91716507D01*
X241146233Y-91364404D01*
X239805129Y-91065332D01*
X238771888Y-90842450D01*
X238152815Y-90718916D01*
X238030345Y-90701627D01*
X237984502Y-90908914D01*
X236595736Y-90908914D01*
X236603953Y-90849302D01*
X236483781Y-90455065D01*
X236382442Y-90405154D01*
X235885459Y-90330993D01*
X234940130Y-90131228D01*
X233667798Y-89836399D01*
X232189804Y-89477045D01*
X230627489Y-89083706D01*
X229102195Y-88686920D01*
X227735263Y-88317227D01*
X226648036Y-88005167D01*
X225971395Y-87784895D01*
X225090415Y-87459112D01*
X224691922Y-87343516D01*
X212963020Y-87343516D01*
X212487489Y-87120145D01*
X212266487Y-87009767D01*
X217701628Y-87009767D01*
X217849302Y-87157441D01*
X217996977Y-87009767D01*
X223903953Y-87009767D01*
X224051628Y-87157441D01*
X224199302Y-87009767D01*
X224051628Y-86862093D01*
X223903953Y-87009767D01*
X217996977Y-87009767D01*
X217849302Y-86862093D01*
X217701628Y-87009767D01*
X212266487Y-87009767D01*
X211675132Y-86714418D01*
X217110930Y-86714418D01*
X217258605Y-86862093D01*
X217406279Y-86714418D01*
X217258605Y-86566744D01*
X217110930Y-86714418D01*
X211675132Y-86714418D01*
X211133566Y-86443936D01*
X211087020Y-86419069D01*
X216520233Y-86419069D01*
X216667907Y-86566744D01*
X216815581Y-86419069D01*
X216667907Y-86271395D01*
X216520233Y-86419069D01*
X211087020Y-86419069D01*
X210534180Y-86123720D01*
X215929535Y-86123720D01*
X216077209Y-86271395D01*
X216224884Y-86123720D01*
X216077209Y-85976046D01*
X215929535Y-86123720D01*
X210534180Y-86123720D01*
X210012335Y-85844930D01*
X209983517Y-85828372D01*
X215338837Y-85828372D01*
X215486512Y-85976046D01*
X215634186Y-85828372D01*
X215486512Y-85680697D01*
X215338837Y-85828372D01*
X209983517Y-85828372D01*
X209754440Y-85696753D01*
X209440494Y-85533023D01*
X214748140Y-85533023D01*
X214895814Y-85680697D01*
X215043488Y-85533023D01*
X214895814Y-85385348D01*
X214748140Y-85533023D01*
X209440494Y-85533023D01*
X208887127Y-85244430D01*
X208868690Y-85237674D01*
X214157442Y-85237674D01*
X214305116Y-85385348D01*
X214452791Y-85237674D01*
X214305116Y-85090000D01*
X214157442Y-85237674D01*
X208868690Y-85237674D01*
X208199815Y-84992573D01*
X207888703Y-84983371D01*
X207707971Y-84996086D01*
X207771465Y-84852863D01*
X207675336Y-84509687D01*
X207131658Y-84091915D01*
X207004889Y-84023217D01*
X206473351Y-83760930D01*
X210908605Y-83760930D01*
X211056279Y-83908604D01*
X211203953Y-83760930D01*
X211056279Y-83613255D01*
X210908605Y-83760930D01*
X206473351Y-83760930D01*
X206396433Y-83722975D01*
X206223282Y-83703863D01*
X206402241Y-83964028D01*
X206440699Y-84010639D01*
X206645658Y-84389863D01*
X206550700Y-84499302D01*
X206127622Y-84307256D01*
X205809741Y-83898841D01*
X205783561Y-83525639D01*
X205807397Y-83496633D01*
X205789507Y-83465581D01*
X210317907Y-83465581D01*
X210465581Y-83613255D01*
X210613256Y-83465581D01*
X210465581Y-83317907D01*
X210317907Y-83465581D01*
X205789507Y-83465581D01*
X205759468Y-83413444D01*
X205461035Y-83500162D01*
X205074830Y-83569295D01*
X205102208Y-83394106D01*
X205023064Y-83170232D01*
X209727209Y-83170232D01*
X209874884Y-83317907D01*
X210022558Y-83170232D01*
X209874884Y-83022558D01*
X209727209Y-83170232D01*
X205023064Y-83170232D01*
X204987722Y-83070259D01*
X204759272Y-82874883D01*
X209136512Y-82874883D01*
X209284186Y-83022558D01*
X209431860Y-82874883D01*
X209284186Y-82727209D01*
X209136512Y-82874883D01*
X204759272Y-82874883D01*
X204448673Y-82609251D01*
X204401295Y-82579534D01*
X208545814Y-82579534D01*
X208693488Y-82727209D01*
X208841163Y-82579534D01*
X208693488Y-82431860D01*
X208545814Y-82579534D01*
X204401295Y-82579534D01*
X204043100Y-82354860D01*
X203923427Y-82284186D01*
X207955116Y-82284186D01*
X208102791Y-82431860D01*
X208250465Y-82284186D01*
X208102791Y-82136511D01*
X207955116Y-82284186D01*
X203923427Y-82284186D01*
X203339958Y-81939612D01*
X207167519Y-81939612D01*
X207208062Y-82115196D01*
X207364419Y-82136511D01*
X207607524Y-82028448D01*
X207561318Y-81939612D01*
X207210808Y-81904264D01*
X207167519Y-81939612D01*
X203339958Y-81939612D01*
X202923195Y-81693488D01*
X206478372Y-81693488D01*
X206626047Y-81841162D01*
X206773721Y-81693488D01*
X206626047Y-81545813D01*
X206478372Y-81693488D01*
X202923195Y-81693488D01*
X202423079Y-81398139D01*
X205887674Y-81398139D01*
X206035349Y-81545813D01*
X206183023Y-81398139D01*
X206035349Y-81250465D01*
X205887674Y-81398139D01*
X202423079Y-81398139D01*
X202107127Y-81211550D01*
X199944720Y-79878177D01*
X198756439Y-79118438D01*
X202451942Y-79118438D01*
X202455964Y-79126070D01*
X202772308Y-79422574D01*
X203398955Y-79897568D01*
X204163180Y-80432248D01*
X204892261Y-80907809D01*
X205413472Y-81205446D01*
X205544512Y-81250465D01*
X205567713Y-81129350D01*
X205188183Y-80825516D01*
X213602414Y-80825516D01*
X215430509Y-81477000D01*
X216639316Y-81853637D01*
X218131816Y-82242712D01*
X219607894Y-82566718D01*
X219769070Y-82597433D01*
X221266608Y-82929797D01*
X222297195Y-83294777D01*
X222984448Y-83737353D01*
X223038384Y-83786978D01*
X223600399Y-84205555D01*
X224004536Y-84306019D01*
X224045620Y-84281925D01*
X224157950Y-84266065D01*
X224089568Y-84412489D01*
X224107592Y-84785446D01*
X224597273Y-85194918D01*
X225591341Y-85658274D01*
X227122527Y-86192888D01*
X227891163Y-86430107D01*
X229494613Y-86922134D01*
X231286816Y-87488146D01*
X232916354Y-88016948D01*
X233126325Y-88086616D01*
X234421700Y-88490324D01*
X235642599Y-88823017D01*
X236585062Y-89030669D01*
X236818185Y-89064546D01*
X237529390Y-89192215D01*
X238654766Y-89453017D01*
X240042908Y-89809658D01*
X241542412Y-90224841D01*
X241624884Y-90248569D01*
X244083783Y-90918367D01*
X246368798Y-91465342D01*
X248373424Y-91867177D01*
X249991156Y-92101549D01*
X250706860Y-92151868D01*
X251388282Y-92094439D01*
X251647345Y-91813149D01*
X251666744Y-91612286D01*
X251803197Y-91094358D01*
X251969427Y-90945307D01*
X251869221Y-90777291D01*
X251340498Y-90416375D01*
X250485388Y-89929160D01*
X250104210Y-89728922D01*
X249814757Y-89565023D01*
X251690250Y-89565023D01*
X251870842Y-89824435D01*
X251888256Y-89844130D01*
X252357282Y-90604627D01*
X252552790Y-91384107D01*
X252552791Y-91385198D01*
X252584943Y-91827406D01*
X252774925Y-92064378D01*
X253263022Y-92160045D01*
X254189518Y-92178336D01*
X254293285Y-92178372D01*
X255383719Y-92129062D01*
X255993229Y-91965247D01*
X256203783Y-91735348D01*
X256192981Y-91501277D01*
X257470215Y-91501277D01*
X257514410Y-91765136D01*
X257589121Y-91911799D01*
X258060608Y-92301332D01*
X258773832Y-92475770D01*
X259458902Y-92404982D01*
X259800982Y-92158722D01*
X259872067Y-91996250D01*
X260822558Y-91996250D01*
X261064201Y-92355342D01*
X261687532Y-92447638D01*
X262540149Y-92258678D01*
X262742326Y-92178372D01*
X263333023Y-91924540D01*
X262742326Y-91899749D01*
X261959537Y-91800569D01*
X261935163Y-91795219D01*
X268390688Y-91795219D01*
X268796977Y-91836389D01*
X269216263Y-91789974D01*
X269166163Y-91687419D01*
X268561481Y-91648410D01*
X268427791Y-91687419D01*
X268390688Y-91795219D01*
X261935163Y-91795219D01*
X261487093Y-91696869D01*
X260964627Y-91669113D01*
X260822558Y-91996250D01*
X259872067Y-91996250D01*
X259918384Y-91890386D01*
X259770890Y-91726224D01*
X259240537Y-91605560D01*
X258538614Y-91509412D01*
X257772132Y-91432769D01*
X257470215Y-91501277D01*
X256192981Y-91501277D01*
X256190434Y-91446098D01*
X255781735Y-91315245D01*
X255177530Y-91292325D01*
X254297519Y-91189105D01*
X253464379Y-90814608D01*
X252602497Y-90194280D01*
X251938468Y-89690428D01*
X251690250Y-89565023D01*
X249814757Y-89565023D01*
X248933530Y-89066040D01*
X247511295Y-88171098D01*
X246048027Y-87180021D01*
X245149783Y-86530103D01*
X244026214Y-85698818D01*
X243335221Y-85213029D01*
X243043673Y-85054857D01*
X243118436Y-85206426D01*
X243526378Y-85649859D01*
X243535030Y-85658812D01*
X244419908Y-86493719D01*
X245526324Y-87429521D01*
X246414681Y-88114557D01*
X247253745Y-88755273D01*
X247863134Y-89277230D01*
X248120788Y-89575199D01*
X248122558Y-89586923D01*
X248063535Y-89777034D01*
X247805599Y-89739673D01*
X247227449Y-89438674D01*
X246810371Y-89195710D01*
X246077515Y-88799890D01*
X245795428Y-88726179D01*
X245945486Y-88938086D01*
X246509066Y-89399121D01*
X247147239Y-89855762D01*
X247934956Y-90453232D01*
X248220646Y-90798201D01*
X248038122Y-90886765D01*
X247421194Y-90715020D01*
X246403674Y-90279064D01*
X245844876Y-90006115D01*
X242977925Y-88279749D01*
X240076039Y-85969736D01*
X239156991Y-85123571D01*
X237722820Y-83760930D01*
X238320986Y-84957753D01*
X238842877Y-85817049D01*
X239600933Y-86852651D01*
X240309735Y-87701238D01*
X240972495Y-88483193D01*
X241412998Y-89091096D01*
X241543160Y-89402284D01*
X241537375Y-89410842D01*
X241253017Y-89314337D01*
X240668234Y-88903103D01*
X239949077Y-88300451D01*
X239363653Y-87798367D01*
X239125347Y-87640695D01*
X239275140Y-87852820D01*
X239335930Y-87920651D01*
X239846149Y-88527829D01*
X240128380Y-88952818D01*
X240148140Y-89019533D01*
X240007225Y-89232476D01*
X239567007Y-89062196D01*
X238801275Y-88490887D01*
X237683816Y-87500746D01*
X237086897Y-86940120D01*
X236176066Y-86079860D01*
X235488805Y-85442271D01*
X235093605Y-85090024D01*
X235053372Y-85079423D01*
X235371580Y-85657441D01*
X235422558Y-85933217D01*
X235336466Y-86168224D01*
X235006811Y-85981057D01*
X234829827Y-85826531D01*
X234103368Y-85273810D01*
X233576299Y-84960674D01*
X233050430Y-84552207D01*
X232517202Y-83993265D01*
X234288772Y-83993265D01*
X234360634Y-84158319D01*
X234658019Y-84475389D01*
X234828985Y-84410347D01*
X234831860Y-84369058D01*
X234622080Y-84119247D01*
X234490878Y-84028075D01*
X234288772Y-83993265D01*
X232517202Y-83993265D01*
X232360061Y-83828546D01*
X231793614Y-83127234D01*
X230671726Y-81623237D01*
X228845384Y-83525182D01*
X228031859Y-84326466D01*
X227378656Y-84883666D01*
X226980987Y-85119697D01*
X226907933Y-85093799D01*
X226990318Y-84625002D01*
X227221591Y-84260700D01*
X227618803Y-83684203D01*
X228093115Y-82853598D01*
X228233769Y-82579534D01*
X228744261Y-81597409D01*
X229263503Y-80663358D01*
X229361251Y-80497565D01*
X229638941Y-79992719D01*
X229737285Y-79565996D01*
X229643114Y-79033318D01*
X229343264Y-78210611D01*
X229165930Y-77766917D01*
X228430539Y-75936844D01*
X227336855Y-77524825D01*
X226534645Y-78623671D01*
X225856366Y-79427809D01*
X225360740Y-79877610D01*
X225106489Y-79913447D01*
X225085349Y-79811073D01*
X225211175Y-79384354D01*
X225540574Y-78606006D01*
X225988038Y-77673309D01*
X226500060Y-76624304D01*
X226934059Y-75674180D01*
X227169808Y-75097429D01*
X227282905Y-74701261D01*
X227174692Y-74685482D01*
X226786228Y-75081014D01*
X226432486Y-75484243D01*
X225836239Y-76109972D01*
X225391883Y-76460914D01*
X225244641Y-76487276D01*
X225302646Y-76171209D01*
X225608986Y-75484146D01*
X226102682Y-74558330D01*
X226260668Y-74283766D01*
X226410870Y-74014418D01*
X227448140Y-74014418D01*
X227595814Y-74162093D01*
X227743488Y-74014418D01*
X227595814Y-73866744D01*
X227448140Y-74014418D01*
X226410870Y-74014418D01*
X226854687Y-73218545D01*
X227256750Y-72400804D01*
X227442134Y-71897451D01*
X227386117Y-71775394D01*
X227069560Y-72094651D01*
X226532257Y-72667481D01*
X225799482Y-73342922D01*
X225019802Y-73997228D01*
X224341781Y-74506655D01*
X223913983Y-74747457D01*
X223878285Y-74752790D01*
X223863587Y-74549302D01*
X224162856Y-74025011D01*
X224527196Y-73530304D01*
X225039056Y-72851652D01*
X225179674Y-72557525D01*
X224970721Y-72591376D01*
X224866779Y-72644257D01*
X224051903Y-72917003D01*
X223504862Y-72980697D01*
X223063132Y-73095003D01*
X222531158Y-73485649D01*
X221831165Y-74224229D01*
X220885380Y-75382337D01*
X220857881Y-75417325D01*
X219544842Y-77032210D01*
X218421331Y-78298663D01*
X217524465Y-79179572D01*
X216891362Y-79637826D01*
X216599430Y-79674993D01*
X216201616Y-79699092D01*
X215477342Y-79941742D01*
X214967326Y-80167688D01*
X213602414Y-80825516D01*
X205188183Y-80825516D01*
X205184784Y-80822795D01*
X204554617Y-80380751D01*
X203821731Y-79896255D01*
X203130644Y-79462346D01*
X202625875Y-79172061D01*
X202451942Y-79118438D01*
X198756439Y-79118438D01*
X197807462Y-78511700D01*
X197610910Y-78381637D01*
X201505051Y-78381637D01*
X201576913Y-78546691D01*
X201874298Y-78863761D01*
X202045265Y-78798719D01*
X202048140Y-78757430D01*
X201838359Y-78507619D01*
X201707157Y-78416447D01*
X201505051Y-78381637D01*
X197610910Y-78381637D01*
X196561137Y-77686976D01*
X196370391Y-77558604D01*
X200276047Y-77558604D01*
X200423721Y-77706279D01*
X200571395Y-77558604D01*
X200423721Y-77410930D01*
X200276047Y-77558604D01*
X196370391Y-77558604D01*
X194470646Y-76280076D01*
X192853617Y-72361381D01*
X191236588Y-68442686D01*
X189184806Y-67580347D01*
X188019426Y-67046704D01*
X186937227Y-66476920D01*
X186173140Y-65994788D01*
X185538060Y-65573173D01*
X185275732Y-65553344D01*
X172937282Y-65553344D01*
X172613732Y-64970740D01*
X171803381Y-63400600D01*
X170929221Y-61635972D01*
X170349880Y-60357126D01*
X170059212Y-59541570D01*
X170051076Y-59166808D01*
X170319328Y-59210346D01*
X170752475Y-59552562D01*
X171065422Y-59810262D01*
X171149797Y-59764295D01*
X170995909Y-59337218D01*
X170622347Y-58512591D01*
X170561909Y-58360930D01*
X171331860Y-58360930D01*
X171479535Y-58508604D01*
X171627209Y-58360930D01*
X171479535Y-58213255D01*
X171331860Y-58360930D01*
X170561909Y-58360930D01*
X170326512Y-57770232D01*
X171036512Y-57770232D01*
X171184186Y-57917907D01*
X171331860Y-57770232D01*
X171184186Y-57622558D01*
X171036512Y-57770232D01*
X170326512Y-57770232D01*
X170257312Y-57596585D01*
X170086854Y-56903342D01*
X170111632Y-56522815D01*
X170332305Y-56544957D01*
X170610218Y-56857117D01*
X170971144Y-57225146D01*
X171123770Y-57080746D01*
X171070935Y-56463160D01*
X170815482Y-55411631D01*
X170411983Y-54118617D01*
X169965687Y-52843761D01*
X169623378Y-52037420D01*
X169328059Y-51599777D01*
X169022728Y-51431009D01*
X168868845Y-51416199D01*
X168061696Y-51334167D01*
X167505062Y-51218100D01*
X166779426Y-51024033D01*
X167435361Y-51857919D01*
X167888002Y-52528245D01*
X167902221Y-52808382D01*
X167494325Y-52685164D01*
X166890166Y-52298117D01*
X165958648Y-51634818D01*
X166461690Y-52607593D01*
X166873856Y-53357158D01*
X167469429Y-54384449D01*
X168114575Y-55458991D01*
X168668685Y-56382051D01*
X169076422Y-57095106D01*
X169260787Y-57462817D01*
X169264419Y-57480085D01*
X169077816Y-57646973D01*
X168619921Y-57470986D01*
X168043597Y-57020362D01*
X167895379Y-56868969D01*
X167415124Y-56400261D01*
X167234252Y-56370409D01*
X167351180Y-56802942D01*
X167764324Y-57721387D01*
X167828972Y-57855541D01*
X168191566Y-58714899D01*
X168243142Y-59200947D01*
X168102508Y-59382609D01*
X167963950Y-59664701D01*
X168070794Y-60259250D01*
X168442264Y-61261178D01*
X168521451Y-61451174D01*
X168890208Y-62399385D01*
X169113219Y-63118339D01*
X169142850Y-63454140D01*
X169141767Y-63455287D01*
X168857227Y-63359348D01*
X168278554Y-62945373D01*
X167526356Y-62315938D01*
X166721236Y-61573622D01*
X165983800Y-60821003D01*
X165791128Y-60605473D01*
X165123650Y-59837674D01*
X165706475Y-61371750D01*
X166234092Y-62578491D01*
X166890240Y-63845863D01*
X167168461Y-64318326D01*
X167624535Y-65107710D01*
X167887697Y-65676846D01*
X167913224Y-65865225D01*
X167644138Y-65758459D01*
X167104570Y-65337778D01*
X166718603Y-64986091D01*
X165658380Y-63972558D01*
X166278900Y-65006279D01*
X166758383Y-65892300D01*
X166868923Y-66355183D01*
X166615652Y-66428945D01*
X166487260Y-66387213D01*
X166401241Y-66550897D01*
X166580809Y-67177675D01*
X167008113Y-68212389D01*
X167245920Y-68731380D01*
X167746538Y-69860857D01*
X168113529Y-70808073D01*
X168295925Y-71435040D01*
X168301107Y-71588075D01*
X168061709Y-71608686D01*
X167559006Y-71221632D01*
X166865754Y-70505038D01*
X166054705Y-69537024D01*
X165198614Y-68395715D01*
X164822026Y-67852274D01*
X164251932Y-67028210D01*
X163835715Y-66465422D01*
X163654825Y-66273446D01*
X163652791Y-66279861D01*
X163784981Y-66589648D01*
X164142441Y-67302714D01*
X164666503Y-68304357D01*
X165142893Y-69193168D01*
X166179724Y-71032268D01*
X167114732Y-72539881D01*
X167913109Y-73667796D01*
X168540043Y-74367802D01*
X168960723Y-74591687D01*
X169025417Y-74570291D01*
X169215291Y-74545112D01*
X169136952Y-74720094D01*
X169118311Y-75213586D01*
X169281079Y-75511237D01*
X169508388Y-75983853D01*
X169302287Y-76164703D01*
X168787950Y-75954134D01*
X168754696Y-75930306D01*
X168668077Y-75909197D01*
X168949223Y-76225562D01*
X169517685Y-76791735D01*
X170171814Y-77466779D01*
X170581887Y-77973570D01*
X170661091Y-78180149D01*
X170381773Y-78091855D01*
X169881352Y-77671090D01*
X169289530Y-77060635D01*
X168736006Y-76403267D01*
X168350480Y-75841765D01*
X168255782Y-75532294D01*
X168126290Y-75167458D01*
X167659724Y-74536469D01*
X166954917Y-73771806D01*
X166907089Y-73724449D01*
X166068709Y-72925262D01*
X165602908Y-72566721D01*
X165483453Y-72653729D01*
X165684110Y-73191187D01*
X166026906Y-73888942D01*
X166480117Y-74605215D01*
X166859771Y-74886341D01*
X166958586Y-74865262D01*
X167148293Y-74841258D01*
X167074177Y-75007892D01*
X167083410Y-75491183D01*
X167423611Y-76240030D01*
X168007023Y-77103341D01*
X168745889Y-77930028D01*
X168802964Y-77984312D01*
X169315956Y-78586943D01*
X169557118Y-79107898D01*
X169559767Y-79148326D01*
X169379491Y-79241683D01*
X168860734Y-78895765D01*
X168304535Y-78393870D01*
X167570302Y-77758972D01*
X166960727Y-77357486D01*
X166672733Y-77276504D01*
X166506909Y-77274906D01*
X166611223Y-77212383D01*
X166755751Y-76925225D01*
X166585141Y-76647088D01*
X166154190Y-76388607D01*
X165936482Y-76426095D01*
X165768782Y-76424158D01*
X165824096Y-76300422D01*
X165724001Y-75958436D01*
X165293937Y-75301983D01*
X164612439Y-74443267D01*
X164171474Y-73939324D01*
X163129084Y-72767377D01*
X162416084Y-71946976D01*
X165129535Y-71946976D01*
X165277209Y-72094651D01*
X165424884Y-71946976D01*
X165277209Y-71799302D01*
X165129535Y-71946976D01*
X162416084Y-71946976D01*
X162032800Y-71505957D01*
X161087331Y-70391168D01*
X160920814Y-70190154D01*
X160208586Y-69336672D01*
X159790319Y-68895464D01*
X159587885Y-68820031D01*
X159523153Y-69063873D01*
X159517907Y-69355197D01*
X159698649Y-71290752D01*
X160263456Y-73215936D01*
X161246196Y-75195945D01*
X162680741Y-77295973D01*
X164600959Y-79581214D01*
X165128060Y-80154004D01*
X166073823Y-81209499D01*
X166716151Y-82012715D01*
X167036852Y-82524777D01*
X167017731Y-82706810D01*
X166640596Y-82519938D01*
X166003048Y-82023613D01*
X165354799Y-81580380D01*
X164858092Y-81417834D01*
X164763544Y-81441798D01*
X164579643Y-81457664D01*
X164625908Y-81348523D01*
X164498389Y-81040816D01*
X164019387Y-80416178D01*
X163264829Y-79565411D01*
X162310643Y-78579315D01*
X162308751Y-78577433D01*
X161348120Y-77644584D01*
X160558961Y-76921645D01*
X160020896Y-76478440D01*
X159813546Y-76384793D01*
X159813256Y-76389006D01*
X159975664Y-76881957D01*
X160374094Y-77527279D01*
X160875359Y-78156959D01*
X161346269Y-78602981D01*
X161646823Y-78702007D01*
X161830433Y-78681264D01*
X161745872Y-78866884D01*
X161854684Y-79240925D01*
X162403928Y-79978820D01*
X163381043Y-81065318D01*
X164506052Y-82218984D01*
X165570830Y-83291027D01*
X166468013Y-84208176D01*
X167123204Y-84893296D01*
X167462008Y-85269254D01*
X167492326Y-85315206D01*
X167275215Y-85367040D01*
X166753920Y-85189091D01*
X166123493Y-84867304D01*
X165578989Y-84487625D01*
X165544635Y-84457007D01*
X164823920Y-84060595D01*
X164363240Y-84075790D01*
X164014490Y-84157611D01*
X164181626Y-83988175D01*
X164208605Y-83968797D01*
X164396791Y-83703032D01*
X164138541Y-83380066D01*
X163817823Y-83154446D01*
X163274480Y-82703407D01*
X162484008Y-81930736D01*
X161577958Y-80968148D01*
X161116807Y-80450040D01*
X160173166Y-79409122D01*
X159536771Y-78811102D01*
X159166634Y-78621743D01*
X159042694Y-78717382D01*
X159033013Y-79087249D01*
X155716788Y-79087249D01*
X155608207Y-78778657D01*
X155435974Y-78200355D01*
X154994148Y-76877936D01*
X154555469Y-76024421D01*
X154320434Y-75786511D01*
X159517907Y-75786511D01*
X159665581Y-75934186D01*
X159813256Y-75786511D01*
X159665581Y-75638837D01*
X159517907Y-75786511D01*
X154320434Y-75786511D01*
X154058664Y-75521540D01*
X154042650Y-75510916D01*
X153623851Y-75195813D01*
X155383023Y-75195813D01*
X155530698Y-75343488D01*
X155678372Y-75195813D01*
X155530698Y-75048139D01*
X155383023Y-75195813D01*
X153623851Y-75195813D01*
X153515221Y-75114080D01*
X152675962Y-74425507D01*
X151650649Y-73550227D01*
X150798865Y-72802092D01*
X149692334Y-71835082D01*
X148921788Y-71218911D01*
X148395309Y-70897207D01*
X148020979Y-70813596D01*
X147712047Y-70908924D01*
X147243656Y-71218206D01*
X147113256Y-71384101D01*
X147306299Y-71406626D01*
X147434125Y-71340506D01*
X147814325Y-71411480D01*
X148423163Y-71814091D01*
X148787819Y-72135285D01*
X149578230Y-72952922D01*
X150411029Y-73907439D01*
X151202916Y-74890008D01*
X151870590Y-75791799D01*
X152330751Y-76503984D01*
X152500098Y-76917734D01*
X152484501Y-76964840D01*
X152217221Y-76842658D01*
X151636477Y-76359541D01*
X150826390Y-75591416D01*
X149871083Y-74614209D01*
X149818507Y-74558565D01*
X148965447Y-73672738D01*
X148364108Y-73086050D01*
X148060839Y-72840347D01*
X148101991Y-72977471D01*
X148161438Y-73062573D01*
X148693785Y-73850999D01*
X148843307Y-74214768D01*
X148607054Y-74151790D01*
X147982079Y-73659971D01*
X146965433Y-72737219D01*
X145554169Y-71381443D01*
X144933890Y-70772100D01*
X143670690Y-69538626D01*
X142503632Y-68423684D01*
X141516899Y-67505809D01*
X140794677Y-66863541D01*
X140460252Y-66598522D01*
X139918219Y-66301390D01*
X139550082Y-66388541D01*
X139148250Y-66818673D01*
X138775391Y-67427572D01*
X138701183Y-67901270D01*
X138681167Y-68153063D01*
X138571032Y-68121590D01*
X138346998Y-68294154D01*
X137998791Y-68900737D01*
X137595738Y-69817250D01*
X137531792Y-69981742D01*
X136965665Y-71353022D01*
X136491158Y-72303283D01*
X136138397Y-72812597D01*
X135937507Y-72861032D01*
X135918611Y-72428660D01*
X136111834Y-71495549D01*
X136311096Y-70789336D01*
X136541068Y-69966554D01*
X136577712Y-69583114D01*
X136418350Y-69519271D01*
X136283657Y-69562261D01*
X135649390Y-69768111D01*
X135092028Y-69920884D01*
X134478224Y-70286742D01*
X133899082Y-71114093D01*
X133658458Y-71597708D01*
X133303399Y-72457733D01*
X133116532Y-73102460D01*
X133117353Y-73329711D01*
X133060483Y-73561946D01*
X132989774Y-73571395D01*
X132697553Y-73815534D01*
X132366856Y-74407423D01*
X132348887Y-74450021D01*
X131930993Y-75126916D01*
X131228861Y-75963896D01*
X130614800Y-76573631D01*
X128934018Y-78113013D01*
X127522588Y-79430244D01*
X126410570Y-80495480D01*
X125628020Y-81278875D01*
X125204998Y-81750585D01*
X125171561Y-81880766D01*
X125404142Y-81747248D01*
X126191578Y-81313596D01*
X126627788Y-81250413D01*
X126649999Y-81503689D01*
X126195439Y-82019414D01*
X125953403Y-82219832D01*
X125279133Y-82771441D01*
X124384413Y-83533145D01*
X123648884Y-84176095D01*
X122608464Y-85058771D01*
X121378627Y-86046223D01*
X120396395Y-86796632D01*
X119550344Y-87464304D01*
X118945070Y-88023130D01*
X118692942Y-88367522D01*
X118693248Y-88397025D01*
X118591227Y-88546086D01*
X118482980Y-88497982D01*
X118142084Y-88572625D01*
X117480967Y-88887080D01*
X116664183Y-89343652D01*
X115856289Y-89844641D01*
X115221841Y-90292352D01*
X114925396Y-90589085D01*
X114920233Y-90613199D01*
X115116844Y-90603309D01*
X115261215Y-90525750D01*
X115462995Y-90490537D01*
X115388482Y-90660811D01*
X115057592Y-90890296D01*
X114939922Y-90861471D01*
X114599615Y-90930816D01*
X113849050Y-91227639D01*
X112800447Y-91703843D01*
X111613449Y-92287204D01*
X109807941Y-93188387D01*
X108464432Y-93817797D01*
X107531003Y-94194883D01*
X106955735Y-94339096D01*
X106686708Y-94269886D01*
X106650465Y-94146455D01*
X106882684Y-93766654D01*
X107452173Y-93311329D01*
X107556960Y-93246995D01*
X108197380Y-92822272D01*
X108313536Y-92626231D01*
X107927701Y-92663455D01*
X107062146Y-92938524D01*
X106703530Y-93071426D01*
X105610085Y-93463608D01*
X104957492Y-93626454D01*
X104648413Y-93574097D01*
X104583023Y-93379302D01*
X104827138Y-93111222D01*
X105459405Y-92700334D01*
X106133605Y-92341342D01*
X106163491Y-92326046D01*
X108717907Y-92326046D01*
X108865581Y-92473720D01*
X109013256Y-92326046D01*
X108865581Y-92178372D01*
X108717907Y-92326046D01*
X106163491Y-92326046D01*
X106848370Y-91975519D01*
X107185761Y-91771837D01*
X107093488Y-91769090D01*
X105981403Y-92062444D01*
X105329130Y-92114725D01*
X105167175Y-91968701D01*
X105526043Y-91667139D01*
X106436239Y-91252808D01*
X106664854Y-91168159D01*
X107470051Y-90855078D01*
X107967031Y-90615746D01*
X108052340Y-90528308D01*
X107759587Y-90576643D01*
X106989235Y-90751209D01*
X105835014Y-91028219D01*
X104390655Y-91383884D01*
X102749888Y-91794417D01*
X101006445Y-92236031D01*
X99254057Y-92684938D01*
X97586453Y-93117351D01*
X96097365Y-93509482D01*
X94880523Y-93837544D01*
X94029658Y-94077748D01*
X93841684Y-94134771D01*
X93428888Y-94150121D01*
X93409348Y-93949397D01*
X93717463Y-93731409D01*
X94485095Y-93372339D01*
X95610388Y-92914903D01*
X96991485Y-92401816D01*
X97653013Y-92169760D01*
X101068598Y-90990483D01*
X103962851Y-89985691D01*
X106374165Y-89141110D01*
X108340934Y-88442468D01*
X109901553Y-87875491D01*
X111094415Y-87425905D01*
X111957914Y-87079437D01*
X112530444Y-86821814D01*
X112850400Y-86638761D01*
X112956174Y-86516006D01*
X112948898Y-86483306D01*
X112951175Y-86323649D01*
X113121235Y-86402441D01*
X113562799Y-86423050D01*
X114325410Y-86255038D01*
X115229129Y-85963514D01*
X116094019Y-85613586D01*
X116740139Y-85270365D01*
X116987674Y-85003408D01*
X116806247Y-84564582D01*
X116487373Y-84140662D01*
X116157586Y-83749229D01*
X116246344Y-83695412D01*
X116535824Y-83798411D01*
X116914052Y-83868920D01*
X116871020Y-83663447D01*
X116866695Y-83357529D01*
X117001843Y-83317907D01*
X117216301Y-83531250D01*
X117179847Y-83751471D01*
X117185561Y-84228316D01*
X117300740Y-84362577D01*
X117457366Y-84717331D01*
X117418085Y-84815059D01*
X117386827Y-85068117D01*
X117802797Y-84972491D01*
X118196759Y-84779832D01*
X118598445Y-84453523D01*
X118639853Y-84248870D01*
X118649559Y-84007054D01*
X119153566Y-84007054D01*
X119194108Y-84182638D01*
X119350465Y-84203953D01*
X119593571Y-84095890D01*
X119547364Y-84007054D01*
X119196854Y-83971706D01*
X119153566Y-84007054D01*
X118649559Y-84007054D01*
X118656250Y-83840357D01*
X118770244Y-83599154D01*
X119068687Y-83327033D01*
X119518980Y-83471458D01*
X119642045Y-83545195D01*
X120043647Y-83717799D01*
X120435866Y-83620401D01*
X120978407Y-83184669D01*
X121367793Y-82806823D01*
X121960665Y-82206836D01*
X122308419Y-81832885D01*
X122349609Y-81764763D01*
X122006060Y-81666743D01*
X121623158Y-81271065D01*
X121419918Y-80811266D01*
X121417907Y-80771277D01*
X121631991Y-80437433D01*
X122115035Y-80389398D01*
X122628222Y-80611171D01*
X122851392Y-80867327D01*
X123149907Y-81201818D01*
X123539604Y-81031550D01*
X123601188Y-80981536D01*
X123901336Y-80540077D01*
X123879486Y-80285319D01*
X123875657Y-80112719D01*
X123988362Y-80162552D01*
X124328772Y-80056021D01*
X124989346Y-79604109D01*
X125881686Y-78888050D01*
X126917394Y-77989079D01*
X128008072Y-76988431D01*
X129065322Y-75967339D01*
X130000747Y-75007039D01*
X130725948Y-74188766D01*
X131152528Y-73593753D01*
X131167677Y-73565008D01*
X131595047Y-72677943D01*
X131733445Y-72234354D01*
X131596782Y-72170586D01*
X131456299Y-72244469D01*
X131203232Y-72123983D01*
X130987437Y-71573574D01*
X130971280Y-71498143D01*
X130724471Y-70803234D01*
X130386381Y-70414389D01*
X130376513Y-70410356D01*
X130126051Y-70174838D01*
X130306998Y-69845043D01*
X130756106Y-69467962D01*
X130989546Y-69585050D01*
X130954647Y-70027209D01*
X130965893Y-70507750D01*
X131147402Y-70617907D01*
X131368194Y-70778596D01*
X131332776Y-70879790D01*
X131384678Y-71261851D01*
X131564338Y-71468180D01*
X131921623Y-71592156D01*
X132222506Y-71205473D01*
X132256391Y-71132459D01*
X132463314Y-70405456D01*
X132477900Y-69962531D01*
X132502937Y-69552557D01*
X132594803Y-69494000D01*
X132953493Y-69404842D01*
X133660130Y-69133905D01*
X134186877Y-68906725D01*
X135003903Y-68509159D01*
X135390822Y-68180368D01*
X135468002Y-67774889D01*
X135413692Y-67424156D01*
X135385641Y-66731078D01*
X135702284Y-66392174D01*
X135732628Y-66379938D01*
X136059145Y-66087940D01*
X136038964Y-65894411D01*
X135970594Y-65620696D01*
X136230092Y-65681636D01*
X136649468Y-66018903D01*
X137031731Y-66503567D01*
X136940451Y-66697071D01*
X136702209Y-66669834D01*
X136504521Y-66660954D01*
X136572590Y-66709734D01*
X136582141Y-66995728D01*
X136279354Y-67473537D01*
X136016695Y-67811417D01*
X136126822Y-67778081D01*
X136630485Y-67375844D01*
X137360962Y-66748300D01*
X138265279Y-65941081D01*
X138794432Y-65456076D01*
X140074445Y-64267907D01*
X143019198Y-67335329D01*
X144205453Y-68565446D01*
X145071712Y-69413082D01*
X145710996Y-69918063D01*
X146216325Y-70120212D01*
X146680718Y-70059354D01*
X147197198Y-69775313D01*
X147771854Y-69370073D01*
X148108545Y-69225620D01*
X148499946Y-69338590D01*
X149072382Y-69773056D01*
X149691622Y-70343785D01*
X150602772Y-71185796D01*
X151750613Y-72212494D01*
X152918116Y-73230323D01*
X153162934Y-73439692D01*
X154121396Y-74252467D01*
X154673139Y-74700860D01*
X154860737Y-74803976D01*
X154726760Y-74580917D01*
X154313782Y-74050790D01*
X154196655Y-73903570D01*
X153367651Y-72890747D01*
X152433182Y-71789282D01*
X152017165Y-71313227D01*
X151430678Y-70595037D01*
X151082243Y-70055158D01*
X151038257Y-69843293D01*
X151320549Y-69947542D01*
X151936418Y-70369252D01*
X152779368Y-71031854D01*
X153295186Y-71466046D01*
X154315092Y-72326693D01*
X155256748Y-73091322D01*
X155968638Y-73637993D01*
X156159417Y-73771142D01*
X156847190Y-74423217D01*
X157330623Y-75181756D01*
X157594219Y-75703955D01*
X157710587Y-75689304D01*
X157723788Y-75491162D01*
X157579815Y-74793446D01*
X157302791Y-74162093D01*
X156980900Y-73296775D01*
X156870233Y-72529339D01*
X156834055Y-72089189D01*
X156697424Y-71642596D01*
X156401667Y-71087995D01*
X155888110Y-70323816D01*
X155098080Y-69248494D01*
X154570814Y-68548884D01*
X154033738Y-67795897D01*
X153685378Y-67224459D01*
X153610930Y-67029407D01*
X153747567Y-66787455D01*
X154155575Y-67066441D01*
X154832100Y-67864113D01*
X155067905Y-68178268D01*
X155622139Y-68855153D01*
X156034842Y-69218913D01*
X156195638Y-69213783D01*
X156153552Y-68749564D01*
X155910125Y-68058810D01*
X155567364Y-67361107D01*
X155227274Y-66876039D01*
X155064299Y-66778372D01*
X154712963Y-66598243D01*
X154100037Y-66139700D01*
X153719632Y-65818488D01*
X152726868Y-65130188D01*
X151842946Y-64859640D01*
X151794376Y-64858604D01*
X151236903Y-64745979D01*
X150642002Y-64348481D01*
X149889878Y-63576680D01*
X149554672Y-63186555D01*
X148674578Y-62141012D01*
X147978926Y-61314418D01*
X149180698Y-61314418D01*
X149328372Y-61462093D01*
X149476047Y-61314418D01*
X149328372Y-61166744D01*
X149180698Y-61314418D01*
X147978926Y-61314418D01*
X147615573Y-60882672D01*
X146578992Y-59650773D01*
X146382778Y-59417557D01*
X146088562Y-59067848D01*
X149659085Y-59067848D01*
X149872943Y-59800774D01*
X150334667Y-60887465D01*
X150545027Y-61342917D01*
X151012432Y-62389489D01*
X151206879Y-62971089D01*
X151134967Y-63143102D01*
X150803294Y-62960915D01*
X150731279Y-62906253D01*
X150424446Y-62689205D01*
X150503870Y-62838485D01*
X150764381Y-63151434D01*
X151411118Y-63629857D01*
X152112441Y-63637256D01*
X152715329Y-63625630D01*
X153228831Y-63950513D01*
X153666043Y-64463469D01*
X154364121Y-65288342D01*
X155218367Y-66186993D01*
X155524383Y-66483023D01*
X156270113Y-67195584D01*
X156901898Y-67822165D01*
X157104480Y-68033604D01*
X157517755Y-68449603D01*
X157667875Y-68430923D01*
X157618157Y-67916286D01*
X157562260Y-67590581D01*
X157222297Y-66123699D01*
X157073027Y-65744651D01*
X165720233Y-65744651D01*
X165867907Y-65892325D01*
X166015581Y-65744651D01*
X165867907Y-65596976D01*
X165720233Y-65744651D01*
X157073027Y-65744651D01*
X156711816Y-64827413D01*
X156014340Y-63677209D01*
X165424884Y-63677209D01*
X165572558Y-63824883D01*
X165720233Y-63677209D01*
X165572558Y-63529534D01*
X165424884Y-63677209D01*
X156014340Y-63677209D01*
X155954445Y-63578437D01*
X154873810Y-62253485D01*
X153393539Y-60729270D01*
X153188446Y-60530040D01*
X152003898Y-59396859D01*
X151163412Y-58632670D01*
X150595543Y-58186610D01*
X150228845Y-58007818D01*
X149991873Y-58045432D01*
X149869443Y-58167249D01*
X149666712Y-58564676D01*
X149659085Y-59067848D01*
X146088562Y-59067848D01*
X144618579Y-57320609D01*
X143759054Y-59243676D01*
X143248947Y-60273753D01*
X142825343Y-60928613D01*
X142533347Y-61168493D01*
X142418059Y-60953625D01*
X142499099Y-60354534D01*
X142662197Y-59501449D01*
X142805856Y-58550961D01*
X142911437Y-57664528D01*
X142960298Y-57003607D01*
X142933798Y-56729657D01*
X142916809Y-56736511D01*
X142472044Y-57248895D01*
X141829750Y-58059112D01*
X141072637Y-59054209D01*
X140283414Y-60121233D01*
X139544792Y-61147230D01*
X138939482Y-62019249D01*
X138550194Y-62624334D01*
X138449690Y-62837029D01*
X138316426Y-63092994D01*
X138223774Y-63068578D01*
X137907471Y-63158750D01*
X137547811Y-63583581D01*
X137289695Y-64117838D01*
X137278024Y-64536285D01*
X137278738Y-64537550D01*
X137303828Y-64698258D01*
X137209582Y-64629478D01*
X136895401Y-64710156D01*
X136295643Y-65133184D01*
X135530454Y-65811594D01*
X135397444Y-65941242D01*
X134622886Y-66655717D01*
X134003192Y-67134325D01*
X133655162Y-67288722D01*
X133631801Y-67276762D01*
X133666804Y-66946903D01*
X134031851Y-66427439D01*
X134062203Y-66394643D01*
X134493069Y-65710316D01*
X134582053Y-65115962D01*
X134644478Y-64616256D01*
X134878028Y-64514031D01*
X135130785Y-64616983D01*
X134963101Y-64907829D01*
X134760150Y-65239069D01*
X134792410Y-65301627D01*
X135033100Y-65081129D01*
X135501483Y-64507914D01*
X135996695Y-63842676D01*
X137044848Y-62383724D01*
X135950563Y-63004221D01*
X135095809Y-63576687D01*
X134117740Y-64355538D01*
X133601047Y-64820015D01*
X132869781Y-65451701D01*
X132441607Y-65675896D01*
X132345814Y-65569866D01*
X132530169Y-64975201D01*
X132715000Y-64704952D01*
X132697680Y-64682195D01*
X132322629Y-64995691D01*
X131666030Y-65580889D01*
X131459767Y-65768512D01*
X130680938Y-66449719D01*
X129568016Y-67384308D01*
X128232130Y-68482865D01*
X126784410Y-69655980D01*
X125335987Y-70814240D01*
X123997989Y-71868234D01*
X122881546Y-72728550D01*
X122097789Y-73305775D01*
X122053295Y-73336696D01*
X121385531Y-73963911D01*
X120916337Y-74706244D01*
X120749749Y-75371301D01*
X120817198Y-75622638D01*
X121140040Y-75623892D01*
X121876269Y-75239402D01*
X123034315Y-74464230D01*
X124017318Y-73748467D01*
X126001252Y-72241655D01*
X127498303Y-71035050D01*
X128522570Y-70115898D01*
X129088150Y-69471447D01*
X129209141Y-69088944D01*
X129196573Y-69063370D01*
X129192951Y-68890409D01*
X129307219Y-68940889D01*
X129703178Y-68887178D01*
X130137001Y-68543500D01*
X130706051Y-68041846D01*
X131024310Y-68061701D01*
X131084751Y-68530027D01*
X130965200Y-68973791D01*
X130843993Y-69046888D01*
X130586820Y-69241063D01*
X130088528Y-69803127D01*
X129449156Y-70618749D01*
X129340123Y-70765581D01*
X128644307Y-71728673D01*
X128117360Y-72493503D01*
X127798188Y-72996584D01*
X127725696Y-73174429D01*
X127938791Y-72963551D01*
X128143039Y-72719009D01*
X128616403Y-72271659D01*
X128915559Y-72338307D01*
X128936916Y-72369958D01*
X129361478Y-72596633D01*
X129585214Y-72561192D01*
X129869994Y-72549986D01*
X129846400Y-72667467D01*
X129945497Y-72954725D01*
X130274083Y-73127010D01*
X130753664Y-73392130D01*
X130869070Y-73591298D01*
X130684922Y-73849789D01*
X130311211Y-73753769D01*
X130109838Y-73537642D01*
X129682042Y-73339122D01*
X128927152Y-73346454D01*
X128057619Y-73525049D01*
X127285894Y-73840316D01*
X126996195Y-74044590D01*
X126615889Y-74572589D01*
X126572712Y-74971006D01*
X126568527Y-75233961D01*
X126450273Y-75202881D01*
X126140826Y-75287341D01*
X125826323Y-75679985D01*
X125673930Y-76123962D01*
X125730506Y-76308801D01*
X125671958Y-76571681D01*
X125526807Y-76688617D01*
X125307254Y-76745529D01*
X125416177Y-76496680D01*
X125540122Y-76236614D01*
X125315795Y-76368461D01*
X125153021Y-76498365D01*
X124802553Y-76975213D01*
X124783422Y-77288980D01*
X124695743Y-77748549D01*
X124427677Y-78053871D01*
X124096515Y-78291933D01*
X124151824Y-78140643D01*
X124353464Y-77853953D01*
X124447471Y-77650334D01*
X124173718Y-77841283D01*
X123934072Y-78058545D01*
X123409194Y-78608771D01*
X123283908Y-78983963D01*
X123495754Y-79377097D01*
X123503891Y-79387615D01*
X123767261Y-79742607D01*
X123664754Y-79701340D01*
X123317020Y-79411495D01*
X123033178Y-79205781D01*
X122722767Y-79127860D01*
X122277649Y-79206400D01*
X121589686Y-79470070D01*
X120550738Y-79947537D01*
X119630250Y-80388884D01*
X118134349Y-81103746D01*
X116580824Y-81835919D01*
X115191409Y-82481353D01*
X114477209Y-82806938D01*
X113517447Y-83251454D01*
X112165400Y-83894562D01*
X110557128Y-84670702D01*
X108828692Y-85514316D01*
X107536512Y-86151293D01*
X105191268Y-87303782D01*
X103245846Y-88234662D01*
X101576976Y-88996733D01*
X100061391Y-89642799D01*
X98575821Y-90225660D01*
X96997000Y-90798118D01*
X95441043Y-91332361D01*
X93575307Y-91938426D01*
X92238119Y-92325517D01*
X91435089Y-92501162D01*
X91171831Y-92472890D01*
X91453954Y-92248229D01*
X92287070Y-91834707D01*
X93676791Y-91239853D01*
X94984186Y-90719436D01*
X99810838Y-88573310D01*
X104602065Y-85921896D01*
X109232649Y-82843738D01*
X113577375Y-79417383D01*
X114976010Y-78179032D01*
X116096398Y-77147906D01*
X116781326Y-76505653D01*
X120013576Y-76505653D01*
X120053976Y-76524883D01*
X120323507Y-76316964D01*
X120384186Y-76229534D01*
X120459447Y-75953415D01*
X120419047Y-75934186D01*
X120149516Y-76142105D01*
X120088837Y-76229534D01*
X120013576Y-76505653D01*
X116781326Y-76505653D01*
X117034940Y-76267841D01*
X117717404Y-75609750D01*
X118069552Y-75244545D01*
X118100350Y-75194547D01*
X117788278Y-75193570D01*
X117087884Y-75260554D01*
X116668436Y-75312491D01*
X116125046Y-75405080D01*
X115657184Y-75569179D01*
X115178968Y-75875873D01*
X114604517Y-76396244D01*
X113847946Y-77201376D01*
X112823374Y-78362352D01*
X112412011Y-78835454D01*
X109508544Y-82179746D01*
X105495202Y-84109644D01*
X103313899Y-85136231D01*
X101129292Y-86123460D01*
X98995879Y-87050722D01*
X96968161Y-87897403D01*
X95100636Y-88642894D01*
X93447805Y-89266583D01*
X92064166Y-89747858D01*
X91004220Y-90066108D01*
X90322465Y-90200722D01*
X90073401Y-90131088D01*
X90278295Y-89864587D01*
X90672982Y-89647204D01*
X91459769Y-89292124D01*
X92478449Y-88871139D01*
X92621395Y-88814590D01*
X93793406Y-88316940D01*
X95256839Y-87643010D01*
X96784476Y-86899255D01*
X97622136Y-86471709D01*
X100555434Y-84942325D01*
X102679849Y-81603476D01*
X104804264Y-78264627D01*
X104372856Y-76552018D01*
X103941449Y-74839408D01*
X101618913Y-73880501D01*
X101077535Y-73669156D01*
X108033492Y-73669156D01*
X108243122Y-73764546D01*
X108801984Y-73876788D01*
X109590683Y-73986224D01*
X110489824Y-74073196D01*
X111376047Y-74117965D01*
X112452161Y-74100932D01*
X113851337Y-74025632D01*
X115310503Y-73907126D01*
X115642272Y-73873732D01*
X117464604Y-73605486D01*
X118954708Y-73192372D01*
X120104894Y-72699481D01*
X121595596Y-71854570D01*
X123416653Y-70637780D01*
X125491943Y-69105838D01*
X127745346Y-67315470D01*
X130100741Y-65323403D01*
X130654909Y-64837361D01*
X131806892Y-63849358D01*
X132815360Y-63039379D01*
X133594187Y-62472450D01*
X134057243Y-62213602D01*
X134134089Y-62210466D01*
X134646989Y-62198333D01*
X135471333Y-61779662D01*
X136542097Y-61003105D01*
X137794258Y-59917310D01*
X139162790Y-58570927D01*
X139562527Y-58148993D01*
X140686373Y-56916979D01*
X141474183Y-55966204D01*
X142014073Y-55166786D01*
X142394156Y-54388845D01*
X142692346Y-53535632D01*
X142718763Y-53445015D01*
X144195060Y-53445015D01*
X144230517Y-54346431D01*
X144513738Y-55126538D01*
X145073964Y-55934436D01*
X145940440Y-56919222D01*
X145982865Y-56965473D01*
X146790034Y-57846978D01*
X147428456Y-58548242D01*
X147805467Y-58967284D01*
X147866852Y-59038909D01*
X148029708Y-58850414D01*
X148395657Y-58272385D01*
X148852093Y-57488327D01*
X149367764Y-56641038D01*
X149799539Y-56049282D01*
X150034686Y-55850465D01*
X150330352Y-56061038D01*
X150899502Y-56623528D01*
X151639852Y-57434085D01*
X151971961Y-57817320D01*
X152840629Y-58794175D01*
X153668459Y-59655660D01*
X154310414Y-60252740D01*
X154443172Y-60356653D01*
X155235349Y-60929130D01*
X154423140Y-60176057D01*
X153779080Y-59504202D01*
X153592776Y-59138752D01*
X153815726Y-59081767D01*
X154399428Y-59335309D01*
X155295378Y-59901436D01*
X155608489Y-60125701D01*
X156356700Y-60673844D01*
X156871062Y-61049122D01*
X157024565Y-61159422D01*
X157020756Y-60889318D01*
X156996368Y-60158423D01*
X156959275Y-59183962D01*
X164586446Y-59183962D01*
X164658308Y-59349017D01*
X164955693Y-59666087D01*
X165126660Y-59601045D01*
X165129535Y-59559756D01*
X164919755Y-59309945D01*
X164788552Y-59218773D01*
X164586446Y-59183962D01*
X156959275Y-59183962D01*
X156955931Y-59096108D01*
X156950092Y-58951627D01*
X167492326Y-58951627D01*
X167640000Y-59099302D01*
X167787674Y-58951627D01*
X167640000Y-58803953D01*
X167492326Y-58951627D01*
X156950092Y-58951627D01*
X156929203Y-58434767D01*
X156848313Y-56973490D01*
X156712225Y-55792494D01*
X156475906Y-54719481D01*
X156094325Y-53582154D01*
X155522448Y-52208216D01*
X154995896Y-51037721D01*
X154356602Y-49723061D01*
X153895922Y-48970742D01*
X153614023Y-48781024D01*
X153570825Y-48822605D01*
X153406629Y-48883876D01*
X153356783Y-48395011D01*
X153358545Y-48319069D01*
X153304499Y-47426074D01*
X153168357Y-46768488D01*
X153042279Y-46199160D01*
X153176306Y-46096975D01*
X153537311Y-46416302D01*
X154092171Y-47111506D01*
X154807759Y-48136956D01*
X155650950Y-49447017D01*
X156588618Y-50996057D01*
X157587640Y-52738444D01*
X157864658Y-53238045D01*
X158446400Y-54240436D01*
X158976775Y-55060413D01*
X159350861Y-55536978D01*
X159379928Y-55563162D01*
X159661601Y-55781956D01*
X159772041Y-55773779D01*
X159700188Y-55447087D01*
X159434983Y-54710333D01*
X159202876Y-54097633D01*
X158689980Y-52875016D01*
X158133903Y-51752059D01*
X157853206Y-51272558D01*
X165720233Y-51272558D01*
X165867907Y-51420232D01*
X166015581Y-51272558D01*
X165867907Y-51124883D01*
X165720233Y-51272558D01*
X157853206Y-51272558D01*
X157599901Y-50839848D01*
X157153233Y-50249468D01*
X156859155Y-50092005D01*
X156852074Y-50095917D01*
X156503608Y-50033182D01*
X156391518Y-49902672D01*
X156351745Y-49695530D01*
X156518785Y-49767610D01*
X156840821Y-49871291D01*
X156822439Y-49618369D01*
X156506263Y-49101911D01*
X155934916Y-48414985D01*
X155865010Y-48340099D01*
X155319449Y-47736931D01*
X155018965Y-47355194D01*
X154999075Y-47285348D01*
X154932632Y-47075702D01*
X154606381Y-46555901D01*
X154494504Y-46395829D01*
X154019779Y-45859651D01*
X153645880Y-45657475D01*
X153591729Y-45672797D01*
X153435288Y-45616445D01*
X153475579Y-45439970D01*
X153383949Y-45033669D01*
X153008730Y-44287099D01*
X152420447Y-43332773D01*
X152118299Y-42889767D01*
X151466567Y-41918264D01*
X150997146Y-41133506D01*
X150777882Y-40653227D01*
X150779728Y-40566938D01*
X151055279Y-40670407D01*
X151597774Y-41112875D01*
X152169416Y-41675118D01*
X152685806Y-42214936D01*
X153022214Y-42522622D01*
X153177255Y-42541391D01*
X153149546Y-42214455D01*
X152937702Y-41485027D01*
X152540340Y-40296321D01*
X152104847Y-39025801D01*
X151823157Y-38227866D01*
X153703044Y-38227866D01*
X153763840Y-38461604D01*
X153964191Y-38789039D01*
X154371196Y-39436401D01*
X154609583Y-39827790D01*
X154880460Y-40182921D01*
X154944875Y-40031285D01*
X154787289Y-39425106D01*
X154756324Y-39334609D01*
X154402115Y-38664413D01*
X153996052Y-38295858D01*
X153703044Y-38227866D01*
X151823157Y-38227866D01*
X151598327Y-37590996D01*
X151184896Y-36649104D01*
X150771022Y-36132596D01*
X150263169Y-35973944D01*
X149567805Y-36105619D01*
X148591396Y-36460091D01*
X148565144Y-36470232D01*
X147681396Y-36831244D01*
X147121436Y-37099160D01*
X146995028Y-37220847D01*
X147010195Y-37222912D01*
X147349483Y-37435322D01*
X147912216Y-37965612D01*
X148589155Y-38688079D01*
X149271063Y-39477022D01*
X149848701Y-40206738D01*
X150212831Y-40751525D01*
X150271951Y-40976266D01*
X149992364Y-40868926D01*
X149376934Y-40443977D01*
X148530299Y-39777383D01*
X147962822Y-39299886D01*
X146963054Y-38455646D01*
X146311517Y-37962096D01*
X145920406Y-37771435D01*
X145701916Y-37835858D01*
X145601766Y-38014453D01*
X145526541Y-38488648D01*
X145459409Y-39440765D01*
X145405421Y-40758036D01*
X145369629Y-42327692D01*
X145358434Y-43445813D01*
X145329050Y-45582285D01*
X145257103Y-47267384D01*
X145130954Y-48639626D01*
X144938967Y-49837526D01*
X144750465Y-50681860D01*
X144378124Y-52273191D01*
X144195060Y-53445015D01*
X142718763Y-53445015D01*
X143107520Y-52111483D01*
X143295466Y-51199196D01*
X143229519Y-50789283D01*
X142883017Y-50872256D01*
X142229294Y-51438628D01*
X141241688Y-52478911D01*
X140871226Y-52887636D01*
X139922420Y-53916859D01*
X139102079Y-54761655D01*
X138496446Y-55336269D01*
X138191765Y-55554950D01*
X138188474Y-55555116D01*
X138055883Y-55545669D01*
X138003869Y-55468392D01*
X138069853Y-55249884D01*
X138291257Y-54816743D01*
X138705501Y-54095565D01*
X139350007Y-53012949D01*
X140235359Y-51540095D01*
X141063113Y-50127856D01*
X141857862Y-48706786D01*
X142573249Y-47367734D01*
X143162918Y-46201547D01*
X143580511Y-45299076D01*
X143779672Y-44751168D01*
X143762761Y-44627209D01*
X143564520Y-44852870D01*
X143149918Y-45436180D01*
X142753686Y-46030116D01*
X142127990Y-46891815D01*
X141366161Y-47801420D01*
X140568844Y-48656661D01*
X139836684Y-49355268D01*
X139270324Y-49794972D01*
X138970892Y-49873993D01*
X139033025Y-49559143D01*
X139366267Y-48900574D01*
X139900036Y-48036406D01*
X139942509Y-47972645D01*
X140693857Y-46813790D01*
X141453393Y-45584958D01*
X141928961Y-44774883D01*
X142262763Y-44184186D01*
X143864419Y-44184186D01*
X144012093Y-44331860D01*
X144159767Y-44184186D01*
X144012093Y-44036511D01*
X143864419Y-44184186D01*
X142262763Y-44184186D01*
X142763468Y-43298139D01*
X141763362Y-44211197D01*
X141016879Y-44853516D01*
X140008082Y-45671587D01*
X138951061Y-46491928D01*
X138917209Y-46517502D01*
X137927052Y-47307650D01*
X137311807Y-47942486D01*
X136945577Y-48579926D01*
X136731736Y-49258732D01*
X136324617Y-50248092D01*
X135588786Y-51482896D01*
X134635352Y-52814275D01*
X133575423Y-54093362D01*
X132520108Y-55171287D01*
X131979003Y-55626674D01*
X131116931Y-56514376D01*
X130333498Y-57732691D01*
X130152575Y-58100778D01*
X128989833Y-60208436D01*
X127421860Y-62424114D01*
X125575994Y-64600306D01*
X123579572Y-66589502D01*
X121559931Y-68244196D01*
X121144857Y-68535322D01*
X119319154Y-69650264D01*
X117220979Y-70727046D01*
X114990415Y-71710352D01*
X112767549Y-72544867D01*
X110692464Y-73175278D01*
X108905246Y-73546269D01*
X108292489Y-73610275D01*
X108033492Y-73669156D01*
X101077535Y-73669156D01*
X100528528Y-73454833D01*
X99638279Y-73152622D01*
X99093198Y-73021428D01*
X99010043Y-73024983D01*
X98715313Y-73251969D01*
X98064756Y-73822596D01*
X97129446Y-74672243D01*
X95980458Y-75736288D01*
X94688866Y-76950111D01*
X94590427Y-77043303D01*
X93087734Y-78453847D01*
X91910195Y-79519165D01*
X90964051Y-80310484D01*
X90155542Y-80899034D01*
X89390908Y-81356042D01*
X88576390Y-81752737D01*
X88142759Y-81941543D01*
X87102696Y-82423059D01*
X86322617Y-82860206D01*
X85924440Y-83181441D01*
X85898666Y-83258424D01*
X85759649Y-83479523D01*
X85603317Y-83452685D01*
X85229372Y-83549781D01*
X84464687Y-83914050D01*
X83413733Y-84490653D01*
X82180981Y-85224750D01*
X81925905Y-85383082D01*
X80673069Y-86152265D01*
X79589208Y-86791914D01*
X78777333Y-87243100D01*
X78340452Y-87446897D01*
X78307882Y-87452790D01*
X78020764Y-87283858D01*
X78116885Y-86955032D01*
X78370814Y-86782847D01*
X78748945Y-86552929D01*
X79478480Y-86044554D01*
X80443293Y-85340288D01*
X81219275Y-84757643D01*
X82941941Y-83458783D01*
X84289742Y-82469932D01*
X85350760Y-81734214D01*
X86213077Y-81194754D01*
X86964774Y-80794676D01*
X87693935Y-80477104D01*
X88069168Y-80334570D01*
X88611184Y-80137451D01*
X89046719Y-79948850D01*
X89419339Y-79702317D01*
X89772612Y-79331402D01*
X90150103Y-78769655D01*
X90595378Y-77950627D01*
X91152005Y-76807867D01*
X91863550Y-75274925D01*
X92773579Y-73285353D01*
X92964211Y-72868391D01*
X93183012Y-72390000D01*
X105328413Y-72390000D01*
X106210951Y-72388258D01*
X106890601Y-72343497D01*
X107968914Y-72225105D01*
X109261544Y-72054441D01*
X109899302Y-71960938D01*
X111403205Y-71700072D01*
X112837072Y-71393309D01*
X114091739Y-71070698D01*
X115058041Y-70762290D01*
X115626813Y-70498135D01*
X115730030Y-70355890D01*
X115798647Y-70072189D01*
X116672925Y-70072189D01*
X118175056Y-69237490D01*
X119213128Y-68604766D01*
X120198324Y-67914709D01*
X120621384Y-67573643D01*
X121194778Y-66973929D01*
X121261453Y-66632591D01*
X121196395Y-66589147D01*
X120948471Y-66217257D01*
X120829117Y-65512419D01*
X120827209Y-65407259D01*
X120761108Y-64777223D01*
X120598003Y-64534241D01*
X120557036Y-64547696D01*
X120290155Y-64848378D01*
X119776644Y-65533265D01*
X119095699Y-66493855D01*
X118479894Y-67393431D01*
X116672925Y-70072189D01*
X115798647Y-70072189D01*
X115819514Y-69985915D01*
X116025720Y-69554356D01*
X116276205Y-68991648D01*
X116629469Y-68060142D01*
X117034842Y-66911421D01*
X117441653Y-65697067D01*
X117799233Y-64568664D01*
X118056910Y-63677794D01*
X118164013Y-63176042D01*
X118164547Y-63155953D01*
X118063563Y-63005991D01*
X117885257Y-63225632D01*
X117571658Y-63536376D01*
X117396888Y-63376127D01*
X117402979Y-62856605D01*
X117497795Y-62495813D01*
X120531860Y-62495813D01*
X120679535Y-62643488D01*
X120827209Y-62495813D01*
X120679535Y-62348139D01*
X120531860Y-62495813D01*
X117497795Y-62495813D01*
X117544224Y-62319143D01*
X117812137Y-61414937D01*
X117858675Y-60950043D01*
X117709325Y-60964768D01*
X117389573Y-61499418D01*
X117235738Y-61831279D01*
X116840694Y-62624078D01*
X116500052Y-63132708D01*
X116359324Y-63234186D01*
X116143051Y-63175917D01*
X116152707Y-62891891D01*
X116370792Y-62269335D01*
X116611176Y-61574837D01*
X116864551Y-60779745D01*
X119444113Y-60779745D01*
X119628344Y-61226559D01*
X119909128Y-61670060D01*
X120067294Y-61826756D01*
X120406984Y-62022711D01*
X120400978Y-61866510D01*
X120061678Y-61314418D01*
X119688425Y-60791825D01*
X119473441Y-60576046D01*
X119444113Y-60779745D01*
X116864551Y-60779745D01*
X116923445Y-60594934D01*
X117093412Y-60034430D01*
X117546867Y-58507481D01*
X116726554Y-58083281D01*
X116236566Y-57860119D01*
X115914871Y-57896494D01*
X115616656Y-58285621D01*
X115234458Y-59043726D01*
X114735830Y-60016025D01*
X114076108Y-61230495D01*
X113402844Y-62416004D01*
X112723917Y-63502630D01*
X112172601Y-64167794D01*
X111636866Y-64529933D01*
X111292670Y-64646897D01*
X110528993Y-65016173D01*
X109806096Y-65778844D01*
X109415232Y-66351126D01*
X108685300Y-67491849D01*
X107880150Y-68736408D01*
X107519440Y-69288837D01*
X107093813Y-69986698D01*
X106927098Y-70368978D01*
X107043627Y-70360231D01*
X107423312Y-70107553D01*
X107533714Y-70281588D01*
X107536512Y-70386898D01*
X107312632Y-70806224D01*
X106747494Y-71362280D01*
X106432462Y-71604457D01*
X105328413Y-72390000D01*
X93183012Y-72390000D01*
X94839203Y-68768875D01*
X93524740Y-70042755D01*
X92864585Y-70755012D01*
X92458064Y-71337728D01*
X92389351Y-71631805D01*
X92415061Y-71792163D01*
X92326736Y-71728027D01*
X91951336Y-71694169D01*
X91564721Y-71967410D01*
X91426882Y-72340494D01*
X91458592Y-72420082D01*
X91384872Y-72556522D01*
X91159991Y-72502692D01*
X90810708Y-72309492D01*
X90764959Y-72025822D01*
X91055347Y-71531274D01*
X91613552Y-70827567D01*
X92525475Y-69721246D01*
X91465877Y-70346424D01*
X90809612Y-70763033D01*
X90437779Y-71056091D01*
X90406279Y-71107534D01*
X90602218Y-71109378D01*
X90747262Y-71032726D01*
X90949042Y-70997514D01*
X90874528Y-71167788D01*
X90515227Y-71379111D01*
X90375404Y-71337197D01*
X89969224Y-71348158D01*
X89207766Y-71556844D01*
X88459510Y-71836604D01*
X87585979Y-72220790D01*
X87200165Y-72468524D01*
X87232990Y-72640590D01*
X87436256Y-72737033D01*
X87931507Y-73131707D01*
X88016696Y-73655259D01*
X87729529Y-74025920D01*
X87322671Y-74000106D01*
X86832108Y-73683147D01*
X86475076Y-73258265D01*
X86443465Y-72941225D01*
X86463529Y-72702199D01*
X86161865Y-72736170D01*
X85717186Y-73002310D01*
X85560689Y-73142899D01*
X85309951Y-73728891D01*
X85588458Y-74371565D01*
X86351249Y-74989009D01*
X86665828Y-75156123D01*
X87205964Y-75512485D01*
X87173170Y-75776537D01*
X87162182Y-75783581D01*
X86736846Y-75730161D01*
X86094025Y-75293078D01*
X85869164Y-75087676D01*
X84927275Y-74174761D01*
X83162707Y-76872117D01*
X81479828Y-79253362D01*
X79823387Y-81168239D01*
X78080321Y-82724370D01*
X76137566Y-84029378D01*
X74981794Y-84659323D01*
X72127339Y-86115101D01*
X64989330Y-86115101D01*
X65166027Y-85948295D01*
X65605159Y-85826575D01*
X66325876Y-85589082D01*
X66636725Y-85332069D01*
X66485700Y-85140227D01*
X66057431Y-85090000D01*
X65442463Y-84997875D01*
X65346641Y-84768449D01*
X65736140Y-84472139D01*
X66208845Y-84302403D01*
X72783798Y-84302403D01*
X72824341Y-84477987D01*
X72980698Y-84499302D01*
X73223803Y-84391238D01*
X73177597Y-84302403D01*
X72827087Y-84267055D01*
X72783798Y-84302403D01*
X66208845Y-84302403D01*
X66483023Y-84203953D01*
X67319800Y-83875368D01*
X67683470Y-83378137D01*
X67691618Y-82546327D01*
X67686465Y-82505697D01*
X67850810Y-82165738D01*
X67979690Y-82136511D01*
X68187819Y-81885952D01*
X68130734Y-81123249D01*
X68126928Y-81102790D01*
X68044792Y-80402979D01*
X68187919Y-80112026D01*
X68438632Y-80069069D01*
X68771214Y-79980520D01*
X68746720Y-79871526D01*
X68762741Y-79531536D01*
X69006404Y-79168751D01*
X69233571Y-78876430D01*
X69136983Y-78770330D01*
X68618803Y-78825185D01*
X68063169Y-78925156D01*
X67181934Y-79055064D01*
X66611276Y-78976723D01*
X66087047Y-78618315D01*
X65741505Y-78293927D01*
X64338965Y-77316670D01*
X62751316Y-76875757D01*
X61066693Y-76983830D01*
X59780192Y-77438757D01*
X58888088Y-77810207D01*
X58221508Y-77889587D01*
X57575428Y-77734105D01*
X56310810Y-77477064D01*
X54795468Y-77431557D01*
X53331014Y-77599712D01*
X52914588Y-77701228D01*
X52207181Y-77856230D01*
X51782050Y-77860488D01*
X51754833Y-77843980D01*
X51763686Y-77571421D01*
X52236002Y-77299599D01*
X53044978Y-77051862D01*
X54063811Y-76851557D01*
X55165698Y-76722034D01*
X56223837Y-76686638D01*
X57111425Y-76768718D01*
X57322372Y-76818845D01*
X58149709Y-76944642D01*
X58838026Y-76699318D01*
X59087142Y-76533542D01*
X59877416Y-76107471D01*
X60897330Y-75723131D01*
X61235484Y-75627903D01*
X62730306Y-75500236D01*
X64316058Y-75769174D01*
X65765872Y-76374897D01*
X66676138Y-77062517D01*
X67272048Y-77590103D01*
X67795371Y-77743086D01*
X68545886Y-77605410D01*
X68581288Y-77596002D01*
X69320833Y-77325500D01*
X69682614Y-76895112D01*
X69853786Y-76176322D01*
X70065067Y-75349235D01*
X70318465Y-75088981D01*
X70574856Y-75402964D01*
X70743241Y-76008023D01*
X70920707Y-76890303D01*
X71143477Y-77993768D01*
X71234717Y-78444651D01*
X71414552Y-79437411D01*
X71530989Y-80278359D01*
X71552128Y-80553813D01*
X71811337Y-81166022D01*
X72276893Y-81564313D01*
X72774028Y-81979483D01*
X72908184Y-82357351D01*
X73118962Y-82727020D01*
X73794777Y-83102035D01*
X73991401Y-83175449D01*
X74736030Y-83394354D01*
X75298994Y-83382495D01*
X75949231Y-83102884D01*
X76403824Y-82843672D01*
X77188409Y-82287319D01*
X78001814Y-81558523D01*
X78739097Y-80775115D01*
X79295316Y-80054925D01*
X79565528Y-79515787D01*
X79540908Y-79321268D01*
X79539060Y-79222231D01*
X79685065Y-79291617D01*
X80054544Y-79236391D01*
X80383517Y-78847579D01*
X80513689Y-78370429D01*
X80427864Y-78140783D01*
X80421107Y-78037057D01*
X80554982Y-78100254D01*
X80914647Y-78036483D01*
X81193669Y-77521732D01*
X81263365Y-77186318D01*
X81513286Y-76868029D01*
X81714468Y-76731719D01*
X82087221Y-76364390D01*
X82136512Y-76197428D01*
X81944918Y-76051429D01*
X81767326Y-76121124D01*
X81589097Y-76160150D01*
X81803489Y-75843206D01*
X82195195Y-75436056D01*
X82382581Y-75369268D01*
X82258469Y-75680439D01*
X82255983Y-75684471D01*
X82219704Y-75885293D01*
X82406362Y-75802270D01*
X82643786Y-75373060D01*
X82612569Y-75175397D01*
X82658754Y-74697263D01*
X82785742Y-74568940D01*
X82974120Y-74546974D01*
X82903087Y-74707156D01*
X82805652Y-75014876D01*
X82854928Y-75048139D01*
X83072604Y-74811654D01*
X83479459Y-74194851D01*
X83934273Y-73423720D01*
X84471441Y-72577301D01*
X84958027Y-71989690D01*
X85254363Y-71799302D01*
X85731707Y-71602293D01*
X86303326Y-71134767D01*
X86670459Y-70800488D01*
X86734717Y-70841489D01*
X86709404Y-70889609D01*
X86636665Y-71176554D01*
X86985473Y-71111121D01*
X87520009Y-70940164D01*
X87698458Y-70908733D01*
X87669777Y-70771546D01*
X87452791Y-70594037D01*
X87225875Y-70392368D01*
X87504748Y-70424109D01*
X87656189Y-70465039D01*
X88208804Y-70445991D01*
X88987836Y-70223418D01*
X89830897Y-69873121D01*
X90575600Y-69470903D01*
X91059556Y-69092566D01*
X91140243Y-68838681D01*
X91187405Y-68663895D01*
X91350823Y-68695449D01*
X91778631Y-68606177D01*
X92494110Y-68233339D01*
X93159340Y-67787849D01*
X93941162Y-67182934D01*
X94306186Y-66782984D01*
X94332787Y-66470897D01*
X94193061Y-66243341D01*
X93951380Y-65907891D01*
X94114085Y-65989840D01*
X94282216Y-66118932D01*
X94873459Y-66354269D01*
X95202271Y-66324129D01*
X95643332Y-66420383D01*
X96444192Y-66854525D01*
X97518756Y-67577013D01*
X98016297Y-67943452D01*
X99049918Y-68698897D01*
X99926689Y-69296490D01*
X100529798Y-69658953D01*
X100719631Y-69731860D01*
X101103786Y-69605832D01*
X101891831Y-69264246D01*
X102962431Y-68761850D01*
X103991470Y-68255545D01*
X105322765Y-67568872D01*
X106232010Y-67036457D01*
X106835500Y-66569435D01*
X107249527Y-66078936D01*
X107566594Y-65523568D01*
X107977145Y-64709126D01*
X108270272Y-64261252D01*
X108621455Y-64033552D01*
X109206174Y-63879633D01*
X109654794Y-63781496D01*
X110879779Y-63324462D01*
X111928883Y-62500377D01*
X112882947Y-61229505D01*
X113612682Y-59877728D01*
X114403161Y-58362787D01*
X115064257Y-57367874D01*
X115631910Y-56845929D01*
X116011495Y-56736511D01*
X116765674Y-56928797D01*
X117710642Y-57417064D01*
X118630989Y-58068429D01*
X119311307Y-58750008D01*
X119340733Y-58790286D01*
X119812699Y-59267753D01*
X120613821Y-59898442D01*
X121624890Y-60607432D01*
X122726700Y-61319801D01*
X123800042Y-61960628D01*
X124725710Y-62454991D01*
X125384494Y-62727970D01*
X125630316Y-62743249D01*
X126108803Y-62281326D01*
X126758081Y-61440829D01*
X127482121Y-60370190D01*
X128184897Y-59217836D01*
X128770378Y-58132197D01*
X129103103Y-57375429D01*
X129690147Y-56104899D01*
X130415369Y-55242592D01*
X130749287Y-54986783D01*
X132005149Y-53974945D01*
X133219646Y-52729236D01*
X134303482Y-51371443D01*
X135167365Y-50023351D01*
X135721999Y-48806748D01*
X135883514Y-47984323D01*
X136073525Y-47527484D01*
X136666195Y-46895882D01*
X137707349Y-46044818D01*
X138396089Y-45533433D01*
X139641238Y-44584608D01*
X140637586Y-43693632D01*
X141250946Y-43002790D01*
G37*
G36*
X224690953Y-44881632D02*
G01*
X225207083Y-44882673D01*
X225641283Y-44884607D01*
X226000511Y-44887596D01*
X226291726Y-44891802D01*
X226521887Y-44897387D01*
X226697952Y-44904514D01*
X226826880Y-44913346D01*
X226915630Y-44924044D01*
X226971159Y-44936772D01*
X226997350Y-44949242D01*
X227034180Y-44984773D01*
X227060596Y-45039443D01*
X227078841Y-45129089D01*
X227091160Y-45269544D01*
X227099797Y-45476644D01*
X227105878Y-45715061D01*
X227121379Y-46412959D01*
X226992901Y-46532028D01*
X226900915Y-46609238D01*
X226839354Y-46646480D01*
X226833627Y-46647138D01*
X226778149Y-46646181D01*
X226642326Y-46645901D01*
X226441659Y-46646269D01*
X226191651Y-46647255D01*
X225907802Y-46648831D01*
X225904246Y-46648853D01*
X225005661Y-46654528D01*
X225005661Y-49958852D01*
X225005661Y-53263175D01*
X224895150Y-53382418D01*
X224848318Y-53429020D01*
X224797469Y-53461575D01*
X224725631Y-53482611D01*
X224615833Y-53494657D01*
X224451104Y-53500242D01*
X224214473Y-53501894D01*
X224092414Y-53502022D01*
X223821564Y-53501586D01*
X223629671Y-53498250D01*
X223499845Y-53489462D01*
X223415194Y-53472670D01*
X223358828Y-53445323D01*
X223313855Y-53404870D01*
X223292359Y-53381177D01*
X223184529Y-53259971D01*
X223184529Y-49957250D01*
X223184529Y-46654528D01*
X222285944Y-46648853D01*
X222001782Y-46647270D01*
X221751274Y-46646277D01*
X221549922Y-46645902D01*
X221413227Y-46646174D01*
X221356691Y-46647122D01*
X221356562Y-46647138D01*
X221304362Y-46620348D01*
X221216314Y-46549417D01*
X221200808Y-46535290D01*
X221151444Y-46486391D01*
X221117165Y-46435295D01*
X221095220Y-46364639D01*
X221082861Y-46257061D01*
X221077336Y-46095197D01*
X221075897Y-45861686D01*
X221075849Y-45746251D01*
X221077014Y-45475881D01*
X221081919Y-45284385D01*
X221092677Y-45154798D01*
X221111403Y-45070159D01*
X221140211Y-45013505D01*
X221171698Y-44977170D01*
X221194113Y-44957097D01*
X221223009Y-44940041D01*
X221265849Y-44925756D01*
X221330098Y-44913998D01*
X221423220Y-44904519D01*
X221552680Y-44897075D01*
X221725942Y-44891421D01*
X221950471Y-44887310D01*
X222233731Y-44884498D01*
X222583186Y-44882738D01*
X223006301Y-44881786D01*
X223510541Y-44881395D01*
X224085935Y-44881321D01*
X224690953Y-44881632D01*
G37*
G36*
X232354427Y-44882464D02*
G01*
X232558784Y-44887015D01*
X232698472Y-44896656D01*
X232789073Y-44913068D01*
X232846170Y-44937933D01*
X232881818Y-44968962D01*
X232895795Y-44990362D01*
X232908041Y-45025684D01*
X232918668Y-45080945D01*
X232927789Y-45162161D01*
X232935518Y-45275347D01*
X232941968Y-45426520D01*
X232947252Y-45621695D01*
X232951482Y-45866888D01*
X232954773Y-46168115D01*
X232957238Y-46531392D01*
X232958989Y-46962734D01*
X232960139Y-47468158D01*
X232960802Y-48053679D01*
X232961091Y-48725313D01*
X232961132Y-49186321D01*
X232961092Y-49910199D01*
X232960877Y-50544329D01*
X232960350Y-51094812D01*
X232959372Y-51567748D01*
X232957805Y-51969238D01*
X232955511Y-52305383D01*
X232952351Y-52582284D01*
X232948186Y-52806042D01*
X232942879Y-52982757D01*
X232936291Y-53118530D01*
X232928284Y-53219463D01*
X232918719Y-53291655D01*
X232907458Y-53341208D01*
X232894362Y-53374222D01*
X232879293Y-53396799D01*
X232865283Y-53411887D01*
X232819577Y-53449674D01*
X232759702Y-53476049D01*
X232669034Y-53493026D01*
X232530946Y-53502622D01*
X232328811Y-53506852D01*
X232074529Y-53507736D01*
X231799481Y-53506644D01*
X231603644Y-53502023D01*
X231470391Y-53491859D01*
X231383097Y-53474136D01*
X231325135Y-53446838D01*
X231283774Y-53411887D01*
X231266938Y-53393286D01*
X231252198Y-53369266D01*
X231239415Y-53333714D01*
X231228450Y-53280512D01*
X231219163Y-53203546D01*
X231211415Y-53096700D01*
X231205067Y-52953859D01*
X231199979Y-52768907D01*
X231196012Y-52535729D01*
X231193027Y-52248209D01*
X231190884Y-51900232D01*
X231189444Y-51485683D01*
X231188567Y-50998446D01*
X231188115Y-50432405D01*
X231187947Y-49781446D01*
X231187925Y-49205192D01*
X231188071Y-48475435D01*
X231188580Y-47835545D01*
X231189559Y-47279541D01*
X231191111Y-46801442D01*
X231193345Y-46395266D01*
X231196364Y-46055032D01*
X231200276Y-45774759D01*
X231205185Y-45548464D01*
X231211199Y-45370168D01*
X231218421Y-45233888D01*
X231226960Y-45133643D01*
X231236919Y-45063452D01*
X231248405Y-45017333D01*
X231261524Y-44989305D01*
X231262529Y-44987833D01*
X231295526Y-44947156D01*
X231338649Y-44918409D01*
X231407553Y-44899529D01*
X231517892Y-44888449D01*
X231685322Y-44883104D01*
X231925496Y-44881428D01*
X232069818Y-44881321D01*
X232354427Y-44882464D01*
G37*
G36*
X191085806Y-44837212D02*
G01*
X191329397Y-44849553D01*
X191500655Y-44876714D01*
X191611182Y-44922268D01*
X191672584Y-44989789D01*
X191696464Y-45082849D01*
X191698113Y-45125515D01*
X191679483Y-45195273D01*
X191625997Y-45343966D01*
X191541266Y-45562736D01*
X191428900Y-45842725D01*
X191292507Y-46175077D01*
X191135697Y-46550932D01*
X190962080Y-46961435D01*
X190775266Y-47397726D01*
X190719488Y-47526999D01*
X190530816Y-47965214D01*
X190354986Y-48376909D01*
X190195473Y-48753711D01*
X190055754Y-49087247D01*
X189939307Y-49369145D01*
X189849608Y-49591032D01*
X189790133Y-49744537D01*
X189764360Y-49821286D01*
X189763825Y-49828316D01*
X189816925Y-49840398D01*
X189949939Y-49850838D01*
X190146936Y-49858947D01*
X190391988Y-49864035D01*
X190622640Y-49865472D01*
X191458491Y-49865472D01*
X191458491Y-48787170D01*
X191457378Y-48405016D01*
X191459111Y-48107944D01*
X191471296Y-47885307D01*
X191501538Y-47726456D01*
X191557442Y-47620744D01*
X191646615Y-47557523D01*
X191776663Y-47526143D01*
X191955190Y-47515959D01*
X192189804Y-47516320D01*
X192365634Y-47517170D01*
X192653882Y-47518870D01*
X192861190Y-47524915D01*
X193002419Y-47536719D01*
X193092432Y-47555698D01*
X193146093Y-47583268D01*
X193156388Y-47592480D01*
X193181607Y-47630214D01*
X193200642Y-47694365D01*
X193214310Y-47797104D01*
X193223427Y-47950602D01*
X193228809Y-48167030D01*
X193231273Y-48458559D01*
X193231698Y-48715283D01*
X193232218Y-49086574D01*
X193236212Y-49372854D01*
X193247332Y-49584960D01*
X193269228Y-49733731D01*
X193305551Y-49830004D01*
X193359954Y-49884617D01*
X193436087Y-49908407D01*
X193537602Y-49912212D01*
X193633668Y-49908421D01*
X193794882Y-49903540D01*
X193913272Y-49914303D01*
X193995449Y-49953220D01*
X194048022Y-50032799D01*
X194077603Y-50165549D01*
X194090801Y-50363978D01*
X194094226Y-50640595D01*
X194094340Y-50780169D01*
X194094340Y-51547721D01*
X193928143Y-51617163D01*
X193775294Y-51659946D01*
X193590192Y-51684394D01*
X193525912Y-51686604D01*
X193364990Y-51697429D01*
X193280223Y-51733257D01*
X193260788Y-51762410D01*
X193250686Y-51834958D01*
X193242107Y-51984702D01*
X193235719Y-52192991D01*
X193232186Y-52441176D01*
X193231698Y-52577127D01*
X193231688Y-52898408D01*
X193223854Y-53136292D01*
X193196494Y-53303152D01*
X193137904Y-53411362D01*
X193036382Y-53473295D01*
X192880225Y-53501326D01*
X192657729Y-53507826D01*
X192357191Y-53505170D01*
X192353963Y-53505141D01*
X192084943Y-53502063D01*
X191894726Y-53496637D01*
X191766263Y-53486148D01*
X191682509Y-53467881D01*
X191626418Y-53439123D01*
X191580942Y-53397159D01*
X191564962Y-53379505D01*
X191525403Y-53329932D01*
X191497068Y-53273459D01*
X191478095Y-53194220D01*
X191466619Y-53076348D01*
X191460776Y-52903974D01*
X191458702Y-52661231D01*
X191458491Y-52473287D01*
X191458491Y-51686604D01*
X189481604Y-51685897D01*
X188956036Y-51684949D01*
X188519396Y-51682380D01*
X188164771Y-51677989D01*
X187885252Y-51671575D01*
X187673927Y-51662938D01*
X187523884Y-51651876D01*
X187428213Y-51638188D01*
X187385702Y-51624973D01*
X187335052Y-51599248D01*
X187292882Y-51572870D01*
X187261242Y-51539754D01*
X187242181Y-51493815D01*
X187237747Y-51428968D01*
X187249990Y-51339128D01*
X187280960Y-51218209D01*
X187332704Y-51060127D01*
X187407271Y-50858795D01*
X187506712Y-50608130D01*
X187633075Y-50302046D01*
X187788409Y-49934457D01*
X187974763Y-49499279D01*
X188194186Y-48990427D01*
X188448728Y-48401815D01*
X188549359Y-48169207D01*
X188775327Y-47647976D01*
X188991609Y-47151270D01*
X189195008Y-46686299D01*
X189382324Y-46260272D01*
X189550360Y-45880401D01*
X189695916Y-45553893D01*
X189815795Y-45287959D01*
X189906798Y-45089809D01*
X189965726Y-44966652D01*
X189987765Y-44926803D01*
X190028095Y-44893131D01*
X190092430Y-44869269D01*
X190196460Y-44853371D01*
X190355874Y-44843590D01*
X190586363Y-44838080D01*
X190758277Y-44836118D01*
X191085806Y-44837212D01*
G37*
G36*
X211059816Y-48196671D02*
G01*
X212840573Y-48196671D01*
X212842598Y-48415111D01*
X212846824Y-48571360D01*
X212853090Y-48649814D01*
X212854240Y-48654026D01*
X212891399Y-48680323D01*
X212986585Y-48698508D01*
X213150679Y-48709547D01*
X213394563Y-48714407D01*
X213538213Y-48714833D01*
X213803428Y-48713852D01*
X213993600Y-48709144D01*
X214129535Y-48697426D01*
X214232037Y-48675419D01*
X214321911Y-48639840D01*
X214419964Y-48587409D01*
X214448101Y-48571337D01*
X214699973Y-48379555D01*
X214868108Y-48141135D01*
X214952511Y-47856068D01*
X214963290Y-47684906D01*
X214937010Y-47418945D01*
X214852114Y-47201188D01*
X214693739Y-46996957D01*
X214649144Y-46951946D01*
X214513553Y-46835810D01*
X214369479Y-46753361D01*
X214198235Y-46700009D01*
X213981134Y-46671165D01*
X213699487Y-46662241D01*
X213479812Y-46664795D01*
X212856793Y-46678491D01*
X212843763Y-47635629D01*
X212840907Y-47931643D01*
X212840573Y-48196671D01*
X211059816Y-48196671D01*
X211059996Y-47816430D01*
X211060652Y-47264282D01*
X211061787Y-46789815D01*
X211063529Y-46386975D01*
X211066003Y-46049705D01*
X211069335Y-45771949D01*
X211073650Y-45547651D01*
X211079075Y-45370757D01*
X211085735Y-45235210D01*
X211093757Y-45134953D01*
X211103265Y-45063933D01*
X211114386Y-45016092D01*
X211127247Y-44985375D01*
X211141971Y-44965726D01*
X211147264Y-44960635D01*
X211180453Y-44938444D01*
X211232401Y-44920776D01*
X211313286Y-44907136D01*
X211433289Y-44897030D01*
X211602588Y-44889962D01*
X211831363Y-44885439D01*
X212129793Y-44882965D01*
X212508057Y-44882046D01*
X212764717Y-44882029D01*
X213245354Y-44883310D01*
X213642302Y-44887631D01*
X213967706Y-44896444D01*
X214233712Y-44911198D01*
X214452468Y-44933345D01*
X214636119Y-44964336D01*
X214796811Y-45005620D01*
X214946690Y-45058649D01*
X215097903Y-45124873D01*
X215196071Y-45172410D01*
X215654584Y-45449219D01*
X216046006Y-45789114D01*
X216364847Y-46185512D01*
X216605620Y-46631827D01*
X216739202Y-47023700D01*
X216786843Y-47296720D01*
X216806699Y-47616220D01*
X216798675Y-47941220D01*
X216762676Y-48230745D01*
X216742217Y-48320785D01*
X216587876Y-48751005D01*
X216367353Y-49151136D01*
X216093511Y-49503492D01*
X215779211Y-49790383D01*
X215576510Y-49923768D01*
X215443029Y-50007095D01*
X215351799Y-50078778D01*
X215324906Y-50116536D01*
X215351833Y-50166233D01*
X215428270Y-50284221D01*
X215547701Y-50461026D01*
X215703608Y-50687169D01*
X215889475Y-50953174D01*
X216098785Y-51249565D01*
X216252751Y-51465829D01*
X216480777Y-51785357D01*
X216696002Y-52087460D01*
X216890758Y-52361333D01*
X217057376Y-52596173D01*
X217188187Y-52781176D01*
X217275521Y-52905538D01*
X217303944Y-52946674D01*
X217392615Y-53124106D01*
X217393656Y-53273511D01*
X217306919Y-53406027D01*
X217297664Y-53414857D01*
X217252899Y-53446455D01*
X217186927Y-53469391D01*
X217084974Y-53485127D01*
X216932265Y-53495124D01*
X216714024Y-53500842D01*
X216415477Y-53503742D01*
X216397701Y-53503842D01*
X216125737Y-53503061D01*
X215885323Y-53498089D01*
X215693673Y-53489621D01*
X215567999Y-53478353D01*
X215527708Y-53468694D01*
X215489190Y-53421872D01*
X215403000Y-53303507D01*
X215274756Y-53121724D01*
X215110077Y-52884649D01*
X214914582Y-52600407D01*
X214693889Y-52277125D01*
X214453617Y-51922927D01*
X214243388Y-51611347D01*
X213909052Y-51117330D01*
X213622983Y-50700377D01*
X213385680Y-50361182D01*
X213197640Y-50100440D01*
X213059364Y-49918845D01*
X212971348Y-49817092D01*
X212938322Y-49793585D01*
X212917152Y-49799751D01*
X212899698Y-49824205D01*
X212885432Y-49875883D01*
X212873828Y-49963718D01*
X212864360Y-50096646D01*
X212856499Y-50283602D01*
X212849720Y-50533520D01*
X212843496Y-50855335D01*
X212837299Y-51257982D01*
X212832830Y-51582678D01*
X212826429Y-52044694D01*
X212820450Y-52420255D01*
X212814300Y-52718750D01*
X212807388Y-52949569D01*
X212799124Y-53122099D01*
X212788915Y-53245731D01*
X212776170Y-53329852D01*
X212760298Y-53383852D01*
X212740706Y-53417120D01*
X212716804Y-53439045D01*
X212715840Y-53439753D01*
X212648944Y-53468941D01*
X212532701Y-53489121D01*
X212353886Y-53501447D01*
X212099277Y-53507074D01*
X211937067Y-53507736D01*
X211663990Y-53506614D01*
X211469983Y-53501876D01*
X211338280Y-53491468D01*
X211252116Y-53473332D01*
X211194724Y-53445413D01*
X211155472Y-53411887D01*
X211138688Y-53393346D01*
X211123987Y-53369404D01*
X211111231Y-53333966D01*
X211100282Y-53280939D01*
X211091002Y-53204227D01*
X211083253Y-53097736D01*
X211076897Y-52955372D01*
X211071797Y-52771040D01*
X211067813Y-52538646D01*
X211064809Y-52252096D01*
X211062647Y-51905296D01*
X211061187Y-51492150D01*
X211060293Y-51006564D01*
X211059826Y-50442445D01*
X211059649Y-49793697D01*
X211059623Y-49177994D01*
X211059695Y-48452315D01*
X211059816Y-48196671D01*
G37*
G36*
X197853636Y-49187405D02*
G01*
X199658939Y-49187405D01*
X199681560Y-49550478D01*
X199738774Y-49885300D01*
X199797707Y-50081132D01*
X199881026Y-50273330D01*
X199984564Y-50471375D01*
X200096458Y-50657044D01*
X200204843Y-50812113D01*
X200297854Y-50918360D01*
X200363628Y-50957561D01*
X200368025Y-50957136D01*
X200407890Y-50916226D01*
X200496664Y-50803680D01*
X200629014Y-50626887D01*
X200799608Y-50393235D01*
X201003112Y-50110112D01*
X201234193Y-49784907D01*
X201487518Y-49425007D01*
X201757755Y-49037802D01*
X201865171Y-48883019D01*
X202139024Y-48486143D01*
X202395211Y-48111695D01*
X202628684Y-47767274D01*
X202834393Y-47460478D01*
X203007293Y-47198908D01*
X203142334Y-46990161D01*
X203234470Y-46841837D01*
X203278652Y-46761535D01*
X203281809Y-46750377D01*
X203223909Y-46678203D01*
X203081194Y-46615941D01*
X202864438Y-46566476D01*
X202584417Y-46532697D01*
X202433208Y-46523021D01*
X201939226Y-46536777D01*
X201491075Y-46630711D01*
X201077906Y-46809057D01*
X200688868Y-47076052D01*
X200442883Y-47300053D01*
X200126734Y-47665875D01*
X199895190Y-48051705D01*
X199737012Y-48476685D01*
X199724403Y-48523585D01*
X199672644Y-48832850D01*
X199658939Y-49187405D01*
X197853636Y-49187405D01*
X197853149Y-49170550D01*
X197866982Y-48758416D01*
X197906573Y-48378393D01*
X197967140Y-48078664D01*
X198187491Y-47449245D01*
X198491689Y-46865932D01*
X198878103Y-46331471D01*
X199229015Y-45956512D01*
X199514318Y-45696179D01*
X199776801Y-45490756D01*
X200049554Y-45317298D01*
X200365662Y-45152861D01*
X200436034Y-45119488D01*
X200820026Y-44954480D01*
X201174247Y-44838524D01*
X201529915Y-44765044D01*
X201918251Y-44727464D01*
X202337359Y-44718975D01*
X202790534Y-44733936D01*
X203177968Y-44777059D01*
X203527043Y-44853810D01*
X203865143Y-44969658D01*
X204094986Y-45069914D01*
X204390914Y-45208388D01*
X204575336Y-44960986D01*
X204759758Y-44713585D01*
X205304211Y-44699974D01*
X205550075Y-44696050D01*
X205719009Y-44700130D01*
X205829742Y-44714205D01*
X205901005Y-44740264D01*
X205938105Y-44767308D01*
X206003540Y-44853111D01*
X206018644Y-44957520D01*
X205979761Y-45093699D01*
X205883236Y-45274815D01*
X205734324Y-45501200D01*
X205441101Y-45924332D01*
X205781700Y-46345371D01*
X206106933Y-46803714D01*
X206385568Y-47309026D01*
X206599632Y-47827043D01*
X206660388Y-48020377D01*
X206717765Y-48296306D01*
X206756351Y-48637228D01*
X206775905Y-49015233D01*
X206776190Y-49402414D01*
X206756966Y-49770862D01*
X206717994Y-50092667D01*
X206679690Y-50272092D01*
X206460404Y-50905566D01*
X206161925Y-51487855D01*
X205788964Y-52014113D01*
X205346230Y-52479494D01*
X204838435Y-52879151D01*
X204270288Y-53208240D01*
X203646500Y-53461914D01*
X203548979Y-53492990D01*
X203384599Y-53541355D01*
X203241010Y-53575970D01*
X203096542Y-53599106D01*
X202929525Y-53613034D01*
X202718287Y-53620025D01*
X202441160Y-53622350D01*
X202313397Y-53622482D01*
X202005663Y-53621355D01*
X201772045Y-53616449D01*
X201590821Y-53605473D01*
X201440269Y-53586137D01*
X201298667Y-53556152D01*
X201144294Y-53513227D01*
X201073700Y-53491798D01*
X200869872Y-53426261D01*
X200688223Y-53362769D01*
X200557651Y-53311615D01*
X200525242Y-53296416D01*
X200463694Y-53268884D01*
X200412658Y-53270230D01*
X200355749Y-53312772D01*
X200276581Y-53408831D01*
X200158768Y-53570727D01*
X200156847Y-53573407D01*
X199911931Y-53915094D01*
X199376954Y-53928631D01*
X199139782Y-53933040D01*
X198978550Y-53930259D01*
X198873456Y-53917662D01*
X198804699Y-53892623D01*
X198752480Y-53852516D01*
X198744574Y-53844763D01*
X198671769Y-53736006D01*
X198647170Y-53640826D01*
X198673412Y-53561654D01*
X198744943Y-53423851D01*
X198850971Y-53246517D01*
X198980704Y-53048751D01*
X198986475Y-53040334D01*
X199325780Y-52546374D01*
X199064974Y-52264673D01*
X198642022Y-51738825D01*
X198596061Y-51661487D01*
X201522642Y-51661487D01*
X201567310Y-51730647D01*
X201690369Y-51784451D01*
X201875397Y-51821614D01*
X202105974Y-51840855D01*
X202365682Y-51840889D01*
X202638098Y-51820434D01*
X202906803Y-51778207D01*
X202936415Y-51771964D01*
X203369514Y-51631261D01*
X203781202Y-51408038D01*
X204154493Y-51115522D01*
X204472402Y-50766939D01*
X204710352Y-50390595D01*
X204867651Y-49992127D01*
X204961670Y-49555633D01*
X204989463Y-49109840D01*
X204948081Y-48683472D01*
X204904381Y-48499623D01*
X204840025Y-48311544D01*
X204754465Y-48106585D01*
X204658611Y-47906166D01*
X204563370Y-47731707D01*
X204479651Y-47604628D01*
X204419014Y-47546589D01*
X204347392Y-47565519D01*
X204256020Y-47651493D01*
X204237847Y-47674812D01*
X204134098Y-47817644D01*
X203992483Y-48017354D01*
X203819233Y-48264794D01*
X203620580Y-48550814D01*
X203402755Y-48866265D01*
X203171989Y-49201998D01*
X202934513Y-49548865D01*
X202696559Y-49897716D01*
X202464357Y-50239402D01*
X202244138Y-50564774D01*
X202042134Y-50864683D01*
X201864576Y-51129980D01*
X201717695Y-51351517D01*
X201607722Y-51520143D01*
X201540888Y-51626710D01*
X201522642Y-51661487D01*
X198596061Y-51661487D01*
X198300947Y-51164898D01*
X198044885Y-50548533D01*
X197966313Y-50288963D01*
X197902803Y-49966890D01*
X197865086Y-49583730D01*
X197853636Y-49187405D01*
G37*
%TD*%
M02*
