%TF.GenerationSoftware,KiCad,Pcbnew,(7.0.0)*%
%TF.CreationDate,2024-05-15T17:01:43+02:00*%
%TF.ProjectId,forti usb port,666f7274-6920-4757-9362-20706f72742e,rev?*%
%TF.SameCoordinates,Original*%
%TF.FileFunction,Legend,Top*%
%TF.FilePolarity,Positive*%
%FSLAX46Y46*%
G04 Gerber Fmt 4.6, Leading zero omitted, Abs format (unit mm)*
G04 Created by KiCad (PCBNEW (7.0.0)) date 2024-05-15 17:01:43*
%MOMM*%
%LPD*%
G01*
G04 APERTURE LIST*
%ADD10C,0.120000*%
G04 APERTURE END LIST*
D10*
%TO.C,J1*%
X238969115Y-29437500D02*
X238969115Y-27437500D01*
X238969115Y-25537500D02*
X238969115Y-23637500D01*
X238969115Y-23637500D02*
X229569115Y-23637500D01*
X229569115Y-29437500D02*
X229569115Y-27437500D01*
X229569115Y-25537500D02*
X229569115Y-23637500D01*
%TO.C,G\u002A\u002A\u002A*%
G36*
X108267886Y-97447092D02*
G01*
X109310714Y-97447092D01*
X109324252Y-97626423D01*
X109360496Y-97824206D01*
X109412888Y-98010764D01*
X109462022Y-98131982D01*
X109532476Y-98260081D01*
X109609213Y-98377295D01*
X109682460Y-98470691D01*
X109742446Y-98527336D01*
X109769059Y-98538331D01*
X109800809Y-98511649D01*
X109866689Y-98432971D01*
X109965161Y-98304396D01*
X110094688Y-98128021D01*
X110253732Y-97905945D01*
X110440754Y-97640268D01*
X110654216Y-97333089D01*
X110687922Y-97284285D01*
X110863327Y-97029736D01*
X111027495Y-96790749D01*
X111176734Y-96572754D01*
X111307347Y-96381184D01*
X111415640Y-96221470D01*
X111497920Y-96099044D01*
X111550490Y-96019336D01*
X111569527Y-95988190D01*
X111556216Y-95944893D01*
X111489564Y-95905562D01*
X111380983Y-95871853D01*
X111241888Y-95845422D01*
X111083692Y-95827926D01*
X110917807Y-95821021D01*
X110755648Y-95826362D01*
X110608628Y-95845605D01*
X110599522Y-95847449D01*
X110311497Y-95939194D01*
X110047734Y-96085378D01*
X109814533Y-96278183D01*
X109618190Y-96509792D01*
X109465005Y-96772388D01*
X109361275Y-97058153D01*
X109313299Y-97359270D01*
X109310714Y-97447092D01*
X108267886Y-97447092D01*
X108264577Y-97341173D01*
X108310964Y-96948895D01*
X108416082Y-96563239D01*
X108580001Y-96190010D01*
X108802786Y-95835013D01*
X108871499Y-95744982D01*
X109078139Y-95523784D01*
X109332448Y-95313634D01*
X109617302Y-95125390D01*
X109915574Y-94969908D01*
X110210138Y-94858047D01*
X110315051Y-94829818D01*
X110722460Y-94766616D01*
X111135673Y-94765376D01*
X111544377Y-94825377D01*
X111929726Y-94942565D01*
X112048819Y-94987408D01*
X112145855Y-95021214D01*
X112204187Y-95038268D01*
X112211446Y-95039265D01*
X112248994Y-95014071D01*
X112296256Y-94952328D01*
X112301675Y-94943399D01*
X112356182Y-94857271D01*
X112407992Y-94801007D01*
X112472370Y-94768275D01*
X112564584Y-94752742D01*
X112699898Y-94748075D01*
X112773130Y-94747832D01*
X112959404Y-94754167D01*
X113085416Y-94776941D01*
X113154025Y-94821805D01*
X113168088Y-94894414D01*
X113130465Y-95000420D01*
X113044013Y-95145474D01*
X113004081Y-95204581D01*
X112931088Y-95315500D01*
X112875175Y-95409910D01*
X112845008Y-95472772D01*
X112842092Y-95485683D01*
X112862299Y-95533059D01*
X112914746Y-95609308D01*
X112973405Y-95680819D01*
X113215691Y-96003043D01*
X113407077Y-96357621D01*
X113544374Y-96735279D01*
X113624389Y-97126739D01*
X113643930Y-97522725D01*
X113639341Y-97616333D01*
X113581099Y-98023580D01*
X113467058Y-98405025D01*
X113302189Y-98757350D01*
X113091464Y-99077235D01*
X112839854Y-99361359D01*
X112552330Y-99606404D01*
X112233865Y-99809050D01*
X111889429Y-99965977D01*
X111523995Y-100073866D01*
X111142533Y-100129396D01*
X110750015Y-100129249D01*
X110351413Y-100070105D01*
X110078322Y-99994126D01*
X109952565Y-99952688D01*
X109852065Y-99920403D01*
X109791148Y-99901831D01*
X109779848Y-99899108D01*
X109756597Y-99923833D01*
X109707696Y-99988934D01*
X109643327Y-100080802D01*
X109637452Y-100089434D01*
X109565745Y-100187281D01*
X109500729Y-100262688D01*
X109456190Y-100299705D01*
X109455406Y-100300021D01*
X109399677Y-100309438D01*
X109298336Y-100316526D01*
X109170559Y-100320082D01*
X109132190Y-100320281D01*
X108982027Y-100316584D01*
X108883831Y-100304174D01*
X108825124Y-100281075D01*
X108810860Y-100269370D01*
X108772427Y-100212619D01*
X108766318Y-100143573D01*
X108795351Y-100053071D01*
X108862340Y-99931951D01*
X108959276Y-99786519D01*
X109059827Y-99635055D01*
X109117465Y-99530170D01*
X109132891Y-99470524D01*
X109129365Y-99461214D01*
X109096169Y-99419740D01*
X109032378Y-99342679D01*
X108949408Y-99243774D01*
X108911293Y-99198678D01*
X108736299Y-98958294D01*
X110452942Y-98958294D01*
X110453003Y-98959567D01*
X110492006Y-99006899D01*
X110582524Y-99043550D01*
X110711979Y-99068359D01*
X110867792Y-99080164D01*
X111037385Y-99077805D01*
X111208181Y-99060120D01*
X111316372Y-99039273D01*
X111624868Y-98934704D01*
X111899716Y-98776557D01*
X112136197Y-98569234D01*
X112329590Y-98317135D01*
X112475178Y-98024663D01*
X112510024Y-97925995D01*
X112565801Y-97670013D01*
X112578287Y-97399083D01*
X112549845Y-97128494D01*
X112482834Y-96873539D01*
X112379616Y-96649509D01*
X112294131Y-96527602D01*
X112230781Y-96460577D01*
X112187317Y-96441304D01*
X112157771Y-96454979D01*
X112125545Y-96492957D01*
X112063897Y-96575145D01*
X111979673Y-96692060D01*
X111879722Y-96834220D01*
X111789158Y-96965418D01*
X111677811Y-97127678D01*
X111539172Y-97329137D01*
X111382911Y-97555773D01*
X111218702Y-97793567D01*
X111056214Y-98028500D01*
X110954884Y-98174788D01*
X110821689Y-98369064D01*
X110702066Y-98547627D01*
X110600697Y-98703153D01*
X110522264Y-98828321D01*
X110471452Y-98915809D01*
X110452942Y-98958294D01*
X108736299Y-98958294D01*
X108665020Y-98860380D01*
X108477145Y-98499675D01*
X108347735Y-98122368D01*
X108276857Y-97734266D01*
X108267886Y-97447092D01*
G37*
G36*
X104187845Y-94846614D02*
G01*
X104328315Y-94853130D01*
X104422225Y-94867202D01*
X104478670Y-94891459D01*
X104506749Y-94928530D01*
X104515558Y-94981044D01*
X104515816Y-94996461D01*
X104503295Y-95040654D01*
X104467448Y-95137938D01*
X104410851Y-95282010D01*
X104336082Y-95466567D01*
X104245716Y-95685306D01*
X104142329Y-95931924D01*
X104028498Y-96200119D01*
X103929184Y-96431685D01*
X103808202Y-96714466D01*
X103696704Y-96978946D01*
X103597117Y-97219090D01*
X103511869Y-97428865D01*
X103443389Y-97602235D01*
X103394103Y-97733166D01*
X103366440Y-97815623D01*
X103361520Y-97842657D01*
X103377366Y-97861483D01*
X103414204Y-97874456D01*
X103481297Y-97882283D01*
X103587906Y-97885673D01*
X103743295Y-97885333D01*
X103891456Y-97883161D01*
X104402423Y-97874235D01*
X104411211Y-97212567D01*
X104416314Y-96961965D01*
X104424162Y-96762114D01*
X104434509Y-96616904D01*
X104447111Y-96530230D01*
X104455676Y-96507911D01*
X104502018Y-96489786D01*
X104597505Y-96476160D01*
X104727520Y-96467070D01*
X104877449Y-96462554D01*
X105032675Y-96462651D01*
X105178584Y-96467398D01*
X105300560Y-96476833D01*
X105383987Y-96490994D01*
X105412947Y-96505421D01*
X105421633Y-96548875D01*
X105430720Y-96646743D01*
X105439585Y-96788656D01*
X105447602Y-96964239D01*
X105454149Y-97163122D01*
X105455357Y-97210077D01*
X105471556Y-97874235D01*
X105691457Y-97890434D01*
X105839608Y-97909135D01*
X105924669Y-97938693D01*
X105942046Y-97955230D01*
X105953816Y-98005023D01*
X105963498Y-98105296D01*
X105970124Y-98241743D01*
X105972725Y-98400060D01*
X105972732Y-98408801D01*
X105970372Y-98567879D01*
X105963935Y-98705848D01*
X105954391Y-98808400D01*
X105942707Y-98861232D01*
X105942046Y-98862373D01*
X105885134Y-98896696D01*
X105764880Y-98920228D01*
X105691457Y-98927169D01*
X105471556Y-98943368D01*
X105462581Y-99443271D01*
X105456735Y-99642828D01*
X105447400Y-99804648D01*
X105435271Y-99920259D01*
X105421041Y-99981191D01*
X105418117Y-99985937D01*
X105383061Y-100004604D01*
X105308974Y-100017463D01*
X105188197Y-100025193D01*
X105013075Y-100028475D01*
X104936990Y-100028699D01*
X104740894Y-100026822D01*
X104601842Y-100020737D01*
X104512176Y-100009763D01*
X104464241Y-99993220D01*
X104455862Y-99985937D01*
X104441308Y-99936514D01*
X104428720Y-99830780D01*
X104418793Y-99677205D01*
X104412221Y-99484260D01*
X104411398Y-99443271D01*
X104402423Y-98943368D01*
X103173415Y-98934873D01*
X102854895Y-98932418D01*
X102594938Y-98929689D01*
X102387308Y-98926389D01*
X102225772Y-98922217D01*
X102104096Y-98916877D01*
X102016045Y-98910068D01*
X101955386Y-98901492D01*
X101915884Y-98890851D01*
X101891305Y-98877845D01*
X101885596Y-98873155D01*
X101839775Y-98816611D01*
X101826785Y-98779720D01*
X101839197Y-98738199D01*
X101873641Y-98647775D01*
X101925931Y-98518802D01*
X101991883Y-98361631D01*
X102057261Y-98209677D01*
X102120390Y-98064369D01*
X102205123Y-97869053D01*
X102307357Y-97633202D01*
X102422991Y-97366286D01*
X102547920Y-97077778D01*
X102678042Y-96777149D01*
X102809255Y-96473870D01*
X102869172Y-96335332D01*
X102990469Y-96055639D01*
X103105275Y-95792434D01*
X103210765Y-95552084D01*
X103304117Y-95340953D01*
X103382506Y-95165407D01*
X103443108Y-95031812D01*
X103483100Y-94946532D01*
X103497989Y-94917921D01*
X103520111Y-94888829D01*
X103549564Y-94868718D01*
X103597545Y-94855936D01*
X103675250Y-94848829D01*
X103793876Y-94845745D01*
X103964617Y-94845031D01*
X103991716Y-94845026D01*
X104187845Y-94846614D01*
G37*
G36*
X196260300Y-94556148D02*
G01*
X196263193Y-94562542D01*
X196267291Y-94575856D01*
X196272987Y-94597064D01*
X196275762Y-94607822D01*
X196314731Y-94741028D01*
X196362407Y-94870567D01*
X196418632Y-94996129D01*
X196483249Y-95117405D01*
X196556102Y-95234086D01*
X196637034Y-95345863D01*
X196673411Y-95391291D01*
X196717938Y-95442655D01*
X196768685Y-95496632D01*
X196823576Y-95551209D01*
X196880533Y-95604377D01*
X196937479Y-95654122D01*
X196983603Y-95691650D01*
X197083202Y-95764183D01*
X197189456Y-95831275D01*
X197300883Y-95892201D01*
X197416000Y-95946233D01*
X197533328Y-95992644D01*
X197651382Y-96030708D01*
X197703455Y-96044695D01*
X197726415Y-96050516D01*
X197746402Y-96055660D01*
X197761406Y-96059605D01*
X197769419Y-96061828D01*
X197769782Y-96061943D01*
X197767942Y-96063836D01*
X197758243Y-96067542D01*
X197742052Y-96072620D01*
X197720739Y-96078629D01*
X197705652Y-96082604D01*
X197575005Y-96121007D01*
X197448259Y-96167903D01*
X197325748Y-96222981D01*
X197207809Y-96285928D01*
X197094775Y-96356432D01*
X196986982Y-96434180D01*
X196884764Y-96518860D01*
X196788457Y-96610160D01*
X196698394Y-96707768D01*
X196614911Y-96811371D01*
X196538343Y-96920657D01*
X196469025Y-97035314D01*
X196407291Y-97155029D01*
X196353476Y-97279491D01*
X196318239Y-97376585D01*
X196307915Y-97408543D01*
X196297192Y-97443512D01*
X196287125Y-97477938D01*
X196278770Y-97508270D01*
X196276325Y-97517734D01*
X196269937Y-97542941D01*
X196265395Y-97559938D01*
X196262229Y-97569727D01*
X196259967Y-97573312D01*
X196258137Y-97571695D01*
X196256268Y-97565879D01*
X196255344Y-97562370D01*
X196244168Y-97519722D01*
X196234773Y-97484562D01*
X196226662Y-97455155D01*
X196219337Y-97429766D01*
X196212300Y-97406661D01*
X196205053Y-97384105D01*
X196198749Y-97365231D01*
X196150984Y-97238763D01*
X196094792Y-97116336D01*
X196030520Y-96998338D01*
X195958511Y-96885158D01*
X195879110Y-96777184D01*
X195792661Y-96674804D01*
X195699511Y-96578408D01*
X195600002Y-96488384D01*
X195494480Y-96405119D01*
X195383290Y-96329004D01*
X195266776Y-96260425D01*
X195178478Y-96215307D01*
X195095626Y-96178036D01*
X195009289Y-96143770D01*
X194922369Y-96113551D01*
X194837766Y-96088420D01*
X194794877Y-96077525D01*
X194775893Y-96072655D01*
X194761409Y-96068245D01*
X194753194Y-96064878D01*
X194752124Y-96063449D01*
X194757831Y-96061206D01*
X194770944Y-96057221D01*
X194789642Y-96052015D01*
X194812104Y-96046110D01*
X194817453Y-96044748D01*
X194944384Y-96007754D01*
X195068666Y-95961866D01*
X195189773Y-95907448D01*
X195307180Y-95844866D01*
X195420361Y-95774485D01*
X195528789Y-95696671D01*
X195631939Y-95611790D01*
X195729286Y-95520206D01*
X195820303Y-95422285D01*
X195904466Y-95318393D01*
X195947109Y-95259605D01*
X196020811Y-95145823D01*
X196086295Y-95027735D01*
X196143694Y-94905040D01*
X196193141Y-94777435D01*
X196234772Y-94644619D01*
X196256551Y-94560214D01*
X196258217Y-94555697D01*
X196260300Y-94556148D01*
G37*
G36*
X194876642Y-95315275D02*
G01*
X194918781Y-95357468D01*
X194958879Y-95397714D01*
X194996441Y-95435510D01*
X195030972Y-95470354D01*
X195061979Y-95501744D01*
X195088965Y-95529177D01*
X195111436Y-95552151D01*
X195128897Y-95570164D01*
X195140853Y-95582712D01*
X195146810Y-95589293D01*
X195147396Y-95590184D01*
X195142989Y-95593608D01*
X195132453Y-95601607D01*
X195117263Y-95613065D01*
X195098897Y-95626863D01*
X195094628Y-95630064D01*
X194975644Y-95713404D01*
X194850468Y-95789794D01*
X194719710Y-95858914D01*
X194583985Y-95920442D01*
X194443904Y-95974059D01*
X194424722Y-95980664D01*
X194387972Y-95992715D01*
X194346451Y-96005599D01*
X194302675Y-96018592D01*
X194259159Y-96030971D01*
X194218419Y-96042011D01*
X194182970Y-96050988D01*
X194169034Y-96054248D01*
X194153968Y-96057884D01*
X194142742Y-96061025D01*
X194138859Y-96062473D01*
X194141772Y-96064356D01*
X194152456Y-96068029D01*
X194169450Y-96073050D01*
X194191290Y-96078976D01*
X194205364Y-96082593D01*
X194354009Y-96124230D01*
X194496309Y-96172670D01*
X194632832Y-96228200D01*
X194764147Y-96291104D01*
X194890822Y-96361670D01*
X195013424Y-96440183D01*
X195132522Y-96526928D01*
X195206980Y-96586742D01*
X195226617Y-96603742D01*
X195249806Y-96624879D01*
X195275744Y-96649330D01*
X195303632Y-96676271D01*
X195332667Y-96704878D01*
X195362048Y-96734329D01*
X195390973Y-96763800D01*
X195418642Y-96792468D01*
X195444252Y-96819510D01*
X195467002Y-96844102D01*
X195486091Y-96865420D01*
X195500717Y-96882643D01*
X195510080Y-96894945D01*
X195513376Y-96901503D01*
X195508688Y-96901746D01*
X195494872Y-96901983D01*
X195472299Y-96902214D01*
X195441343Y-96902439D01*
X195402375Y-96902655D01*
X195355769Y-96902864D01*
X195301896Y-96903063D01*
X195241128Y-96903252D01*
X195173839Y-96903430D01*
X195100400Y-96903597D01*
X195021183Y-96903751D01*
X194936562Y-96903892D01*
X194846908Y-96904019D01*
X194752594Y-96904131D01*
X194653992Y-96904228D01*
X194551474Y-96904308D01*
X194445413Y-96904371D01*
X194336181Y-96904416D01*
X194224151Y-96904443D01*
X194127459Y-96904450D01*
X192741542Y-96904450D01*
X192276028Y-97369982D01*
X191810515Y-97835514D01*
X192276028Y-98301046D01*
X192741542Y-98766578D01*
X194603675Y-98766578D01*
X196465808Y-98766578D01*
X195534753Y-99697642D01*
X194603698Y-100628706D01*
X193437483Y-100628706D01*
X192271269Y-100628706D01*
X191341397Y-99698825D01*
X190411525Y-98768944D01*
X190411525Y-97835505D01*
X190411525Y-96902065D01*
X191341406Y-95972193D01*
X192271287Y-95042321D01*
X193437503Y-95042321D01*
X194603720Y-95042321D01*
X194876642Y-95315275D01*
G37*
G36*
X194267611Y-97831959D02*
G01*
X194327193Y-97891565D01*
X194384926Y-97949363D01*
X194440453Y-98004996D01*
X194493419Y-98058104D01*
X194543469Y-98108331D01*
X194590245Y-98155318D01*
X194633394Y-98198706D01*
X194672558Y-98238138D01*
X194707382Y-98273256D01*
X194737511Y-98303702D01*
X194762588Y-98329117D01*
X194782259Y-98349144D01*
X194796167Y-98363423D01*
X194803956Y-98371598D01*
X194805578Y-98373496D01*
X194800948Y-98374061D01*
X194787544Y-98374598D01*
X194766092Y-98375100D01*
X194737316Y-98375561D01*
X194701943Y-98375973D01*
X194660700Y-98376328D01*
X194614311Y-98376621D01*
X194563504Y-98376843D01*
X194509003Y-98376989D01*
X194451535Y-98377050D01*
X194440982Y-98377051D01*
X194076387Y-98377051D01*
X193534865Y-97835514D01*
X192993343Y-97293977D01*
X193361494Y-97293977D01*
X193729644Y-97293977D01*
X194267611Y-97831959D01*
G37*
G36*
X195202230Y-97564745D02*
G01*
X195472967Y-97835514D01*
X195104817Y-97835514D01*
X194736667Y-97835514D01*
X194465929Y-97564745D01*
X194195192Y-97293977D01*
X194563342Y-97293977D01*
X194931493Y-97293977D01*
X195202230Y-97564745D01*
G37*
%TD*%
M02*
