%TF.GenerationSoftware,KiCad,Pcbnew,(7.0.0)*%
%TF.CreationDate,2024-04-06T15:01:54+02:00*%
%TF.ProjectId,forti GND,666f7274-6920-4474-9e44-2e6b69636164,rev?*%
%TF.SameCoordinates,Original*%
%TF.FileFunction,Legend,Top*%
%TF.FilePolarity,Positive*%
%FSLAX46Y46*%
G04 Gerber Fmt 4.6, Leading zero omitted, Abs format (unit mm)*
G04 Created by KiCad (PCBNEW (7.0.0)) date 2024-04-06 15:01:54*
%MOMM*%
%LPD*%
G01*
G04 APERTURE LIST*
%ADD10C,0.150000*%
%ADD11C,0.120000*%
G04 APERTURE END LIST*
D10*
X49906250Y-115093750D02*
X49906250Y-111918750D01*
X50700000Y-111125050D02*
G75*
G03*
X49906250Y-111918750I0J-793750D01*
G01*
X66575000Y-115887450D02*
G75*
G03*
X67368750Y-115093750I0J793750D01*
G01*
X49906200Y-115093750D02*
G75*
G03*
X50700000Y-115887500I793800J50D01*
G01*
X67368750Y-111918750D02*
X67368750Y-115093750D01*
X50700000Y-111125000D02*
X66575000Y-111125000D01*
X67368800Y-111918750D02*
G75*
G03*
X66575000Y-111125000I-793800J-50D01*
G01*
X66575000Y-115887500D02*
X50700000Y-115887500D01*
X238295059Y-26882592D02*
X238056964Y-27882592D01*
X238056964Y-27882592D02*
X237866488Y-27168307D01*
X237866488Y-27168307D02*
X237676012Y-27882592D01*
X237676012Y-27882592D02*
X237437917Y-26882592D01*
X236628393Y-27882592D02*
X236628393Y-27358783D01*
X236628393Y-27358783D02*
X236676012Y-27263545D01*
X236676012Y-27263545D02*
X236771250Y-27215926D01*
X236771250Y-27215926D02*
X236961726Y-27215926D01*
X236961726Y-27215926D02*
X237056964Y-27263545D01*
X236628393Y-27834973D02*
X236723631Y-27882592D01*
X236723631Y-27882592D02*
X236961726Y-27882592D01*
X236961726Y-27882592D02*
X237056964Y-27834973D01*
X237056964Y-27834973D02*
X237104583Y-27739735D01*
X237104583Y-27739735D02*
X237104583Y-27644497D01*
X237104583Y-27644497D02*
X237056964Y-27549259D01*
X237056964Y-27549259D02*
X236961726Y-27501640D01*
X236961726Y-27501640D02*
X236723631Y-27501640D01*
X236723631Y-27501640D02*
X236628393Y-27454021D01*
X236247440Y-27215926D02*
X236009345Y-27882592D01*
X235771250Y-27215926D02*
X236009345Y-27882592D01*
X236009345Y-27882592D02*
X236104583Y-28120688D01*
X236104583Y-28120688D02*
X236152202Y-28168307D01*
X236152202Y-28168307D02*
X236247440Y-28215926D01*
X235485535Y-26882592D02*
X235247440Y-27882592D01*
X235247440Y-27882592D02*
X235056964Y-27168307D01*
X235056964Y-27168307D02*
X234866488Y-27882592D01*
X234866488Y-27882592D02*
X234628393Y-26882592D01*
X233818869Y-27882592D02*
X233818869Y-27358783D01*
X233818869Y-27358783D02*
X233866488Y-27263545D01*
X233866488Y-27263545D02*
X233961726Y-27215926D01*
X233961726Y-27215926D02*
X234152202Y-27215926D01*
X234152202Y-27215926D02*
X234247440Y-27263545D01*
X233818869Y-27834973D02*
X233914107Y-27882592D01*
X233914107Y-27882592D02*
X234152202Y-27882592D01*
X234152202Y-27882592D02*
X234247440Y-27834973D01*
X234247440Y-27834973D02*
X234295059Y-27739735D01*
X234295059Y-27739735D02*
X234295059Y-27644497D01*
X234295059Y-27644497D02*
X234247440Y-27549259D01*
X234247440Y-27549259D02*
X234152202Y-27501640D01*
X234152202Y-27501640D02*
X233914107Y-27501640D01*
X233914107Y-27501640D02*
X233818869Y-27454021D01*
X233437916Y-27215926D02*
X233199821Y-27882592D01*
X232961726Y-27215926D02*
X233199821Y-27882592D01*
X233199821Y-27882592D02*
X233295059Y-28120688D01*
X233295059Y-28120688D02*
X233342678Y-28168307D01*
X233342678Y-28168307D02*
X233437916Y-28215926D01*
X232676011Y-26882592D02*
X232437916Y-27882592D01*
X232437916Y-27882592D02*
X232247440Y-27168307D01*
X232247440Y-27168307D02*
X232056964Y-27882592D01*
X232056964Y-27882592D02*
X231818869Y-26882592D01*
X231009345Y-27882592D02*
X231009345Y-27358783D01*
X231009345Y-27358783D02*
X231056964Y-27263545D01*
X231056964Y-27263545D02*
X231152202Y-27215926D01*
X231152202Y-27215926D02*
X231342678Y-27215926D01*
X231342678Y-27215926D02*
X231437916Y-27263545D01*
X231009345Y-27834973D02*
X231104583Y-27882592D01*
X231104583Y-27882592D02*
X231342678Y-27882592D01*
X231342678Y-27882592D02*
X231437916Y-27834973D01*
X231437916Y-27834973D02*
X231485535Y-27739735D01*
X231485535Y-27739735D02*
X231485535Y-27644497D01*
X231485535Y-27644497D02*
X231437916Y-27549259D01*
X231437916Y-27549259D02*
X231342678Y-27501640D01*
X231342678Y-27501640D02*
X231104583Y-27501640D01*
X231104583Y-27501640D02*
X231009345Y-27454021D01*
X230628392Y-27215926D02*
X230390297Y-27882592D01*
X230152202Y-27215926D02*
X230390297Y-27882592D01*
X230390297Y-27882592D02*
X230485535Y-28120688D01*
X230485535Y-28120688D02*
X230533154Y-28168307D01*
X230533154Y-28168307D02*
X230628392Y-28215926D01*
D11*
%TO.C,J1*%
X238969115Y-28093750D02*
X238969115Y-26093750D01*
X238969115Y-24193750D02*
X238969115Y-22293750D01*
X238969115Y-22293750D02*
X229569115Y-22293750D01*
X229569115Y-28093750D02*
X229569115Y-26093750D01*
X229569115Y-24193750D02*
X229569115Y-22293750D01*
%TO.C,G\u002A\u002A\u002A*%
G36*
X104187845Y-94846614D02*
G01*
X104328315Y-94853130D01*
X104422225Y-94867202D01*
X104478670Y-94891459D01*
X104506749Y-94928530D01*
X104515558Y-94981044D01*
X104515816Y-94996461D01*
X104503295Y-95040654D01*
X104467448Y-95137938D01*
X104410851Y-95282010D01*
X104336082Y-95466567D01*
X104245716Y-95685306D01*
X104142329Y-95931924D01*
X104028498Y-96200119D01*
X103929184Y-96431685D01*
X103808202Y-96714466D01*
X103696704Y-96978946D01*
X103597117Y-97219090D01*
X103511869Y-97428865D01*
X103443389Y-97602235D01*
X103394103Y-97733166D01*
X103366440Y-97815623D01*
X103361520Y-97842657D01*
X103377366Y-97861483D01*
X103414204Y-97874456D01*
X103481297Y-97882283D01*
X103587906Y-97885673D01*
X103743295Y-97885333D01*
X103891456Y-97883161D01*
X104402423Y-97874235D01*
X104411211Y-97212567D01*
X104416314Y-96961965D01*
X104424162Y-96762114D01*
X104434509Y-96616904D01*
X104447111Y-96530230D01*
X104455676Y-96507911D01*
X104502018Y-96489786D01*
X104597505Y-96476160D01*
X104727520Y-96467070D01*
X104877449Y-96462554D01*
X105032675Y-96462651D01*
X105178584Y-96467398D01*
X105300560Y-96476833D01*
X105383987Y-96490994D01*
X105412947Y-96505421D01*
X105421633Y-96548875D01*
X105430720Y-96646743D01*
X105439585Y-96788656D01*
X105447602Y-96964239D01*
X105454149Y-97163122D01*
X105455357Y-97210077D01*
X105471556Y-97874235D01*
X105691457Y-97890434D01*
X105839608Y-97909135D01*
X105924669Y-97938693D01*
X105942046Y-97955230D01*
X105953816Y-98005023D01*
X105963498Y-98105296D01*
X105970124Y-98241743D01*
X105972725Y-98400060D01*
X105972732Y-98408801D01*
X105970372Y-98567879D01*
X105963935Y-98705848D01*
X105954391Y-98808400D01*
X105942707Y-98861232D01*
X105942046Y-98862373D01*
X105885134Y-98896696D01*
X105764880Y-98920228D01*
X105691457Y-98927169D01*
X105471556Y-98943368D01*
X105462581Y-99443271D01*
X105456735Y-99642828D01*
X105447400Y-99804648D01*
X105435271Y-99920259D01*
X105421041Y-99981191D01*
X105418117Y-99985937D01*
X105383061Y-100004604D01*
X105308974Y-100017463D01*
X105188197Y-100025193D01*
X105013075Y-100028475D01*
X104936990Y-100028699D01*
X104740894Y-100026822D01*
X104601842Y-100020737D01*
X104512176Y-100009763D01*
X104464241Y-99993220D01*
X104455862Y-99985937D01*
X104441308Y-99936514D01*
X104428720Y-99830780D01*
X104418793Y-99677205D01*
X104412221Y-99484260D01*
X104411398Y-99443271D01*
X104402423Y-98943368D01*
X103173415Y-98934873D01*
X102854895Y-98932418D01*
X102594938Y-98929689D01*
X102387308Y-98926389D01*
X102225772Y-98922217D01*
X102104096Y-98916877D01*
X102016045Y-98910068D01*
X101955386Y-98901492D01*
X101915884Y-98890851D01*
X101891305Y-98877845D01*
X101885596Y-98873155D01*
X101839775Y-98816611D01*
X101826785Y-98779720D01*
X101839197Y-98738199D01*
X101873641Y-98647775D01*
X101925931Y-98518802D01*
X101991883Y-98361631D01*
X102057261Y-98209677D01*
X102120390Y-98064369D01*
X102205123Y-97869053D01*
X102307357Y-97633202D01*
X102422991Y-97366286D01*
X102547920Y-97077778D01*
X102678042Y-96777149D01*
X102809255Y-96473870D01*
X102869172Y-96335332D01*
X102990469Y-96055639D01*
X103105275Y-95792434D01*
X103210765Y-95552084D01*
X103304117Y-95340953D01*
X103382506Y-95165407D01*
X103443108Y-95031812D01*
X103483100Y-94946532D01*
X103497989Y-94917921D01*
X103520111Y-94888829D01*
X103549564Y-94868718D01*
X103597545Y-94855936D01*
X103675250Y-94848829D01*
X103793876Y-94845745D01*
X103964617Y-94845031D01*
X103991716Y-94845026D01*
X104187845Y-94846614D01*
G37*
G36*
X108267886Y-97447092D02*
G01*
X109310714Y-97447092D01*
X109324252Y-97626423D01*
X109360496Y-97824206D01*
X109412888Y-98010764D01*
X109462022Y-98131982D01*
X109532476Y-98260081D01*
X109609213Y-98377295D01*
X109682460Y-98470691D01*
X109742446Y-98527336D01*
X109769059Y-98538331D01*
X109800809Y-98511649D01*
X109866689Y-98432971D01*
X109965161Y-98304396D01*
X110094688Y-98128021D01*
X110253732Y-97905945D01*
X110440754Y-97640268D01*
X110654216Y-97333089D01*
X110687922Y-97284285D01*
X110863327Y-97029736D01*
X111027495Y-96790749D01*
X111176734Y-96572754D01*
X111307347Y-96381184D01*
X111415640Y-96221470D01*
X111497920Y-96099044D01*
X111550490Y-96019336D01*
X111569527Y-95988190D01*
X111556216Y-95944893D01*
X111489564Y-95905562D01*
X111380983Y-95871853D01*
X111241888Y-95845422D01*
X111083692Y-95827926D01*
X110917807Y-95821021D01*
X110755648Y-95826362D01*
X110608628Y-95845605D01*
X110599522Y-95847449D01*
X110311497Y-95939194D01*
X110047734Y-96085378D01*
X109814533Y-96278183D01*
X109618190Y-96509792D01*
X109465005Y-96772388D01*
X109361275Y-97058153D01*
X109313299Y-97359270D01*
X109310714Y-97447092D01*
X108267886Y-97447092D01*
X108264577Y-97341173D01*
X108310964Y-96948895D01*
X108416082Y-96563239D01*
X108580001Y-96190010D01*
X108802786Y-95835013D01*
X108871499Y-95744982D01*
X109078139Y-95523784D01*
X109332448Y-95313634D01*
X109617302Y-95125390D01*
X109915574Y-94969908D01*
X110210138Y-94858047D01*
X110315051Y-94829818D01*
X110722460Y-94766616D01*
X111135673Y-94765376D01*
X111544377Y-94825377D01*
X111929726Y-94942565D01*
X112048819Y-94987408D01*
X112145855Y-95021214D01*
X112204187Y-95038268D01*
X112211446Y-95039265D01*
X112248994Y-95014071D01*
X112296256Y-94952328D01*
X112301675Y-94943399D01*
X112356182Y-94857271D01*
X112407992Y-94801007D01*
X112472370Y-94768275D01*
X112564584Y-94752742D01*
X112699898Y-94748075D01*
X112773130Y-94747832D01*
X112959404Y-94754167D01*
X113085416Y-94776941D01*
X113154025Y-94821805D01*
X113168088Y-94894414D01*
X113130465Y-95000420D01*
X113044013Y-95145474D01*
X113004081Y-95204581D01*
X112931088Y-95315500D01*
X112875175Y-95409910D01*
X112845008Y-95472772D01*
X112842092Y-95485683D01*
X112862299Y-95533059D01*
X112914746Y-95609308D01*
X112973405Y-95680819D01*
X113215691Y-96003043D01*
X113407077Y-96357621D01*
X113544374Y-96735279D01*
X113624389Y-97126739D01*
X113643930Y-97522725D01*
X113639341Y-97616333D01*
X113581099Y-98023580D01*
X113467058Y-98405025D01*
X113302189Y-98757350D01*
X113091464Y-99077235D01*
X112839854Y-99361359D01*
X112552330Y-99606404D01*
X112233865Y-99809050D01*
X111889429Y-99965977D01*
X111523995Y-100073866D01*
X111142533Y-100129396D01*
X110750015Y-100129249D01*
X110351413Y-100070105D01*
X110078322Y-99994126D01*
X109952565Y-99952688D01*
X109852065Y-99920403D01*
X109791148Y-99901831D01*
X109779848Y-99899108D01*
X109756597Y-99923833D01*
X109707696Y-99988934D01*
X109643327Y-100080802D01*
X109637452Y-100089434D01*
X109565745Y-100187281D01*
X109500729Y-100262688D01*
X109456190Y-100299705D01*
X109455406Y-100300021D01*
X109399677Y-100309438D01*
X109298336Y-100316526D01*
X109170559Y-100320082D01*
X109132190Y-100320281D01*
X108982027Y-100316584D01*
X108883831Y-100304174D01*
X108825124Y-100281075D01*
X108810860Y-100269370D01*
X108772427Y-100212619D01*
X108766318Y-100143573D01*
X108795351Y-100053071D01*
X108862340Y-99931951D01*
X108959276Y-99786519D01*
X109059827Y-99635055D01*
X109117465Y-99530170D01*
X109132891Y-99470524D01*
X109129365Y-99461214D01*
X109096169Y-99419740D01*
X109032378Y-99342679D01*
X108949408Y-99243774D01*
X108911293Y-99198678D01*
X108736299Y-98958294D01*
X110452942Y-98958294D01*
X110453003Y-98959567D01*
X110492006Y-99006899D01*
X110582524Y-99043550D01*
X110711979Y-99068359D01*
X110867792Y-99080164D01*
X111037385Y-99077805D01*
X111208181Y-99060120D01*
X111316372Y-99039273D01*
X111624868Y-98934704D01*
X111899716Y-98776557D01*
X112136197Y-98569234D01*
X112329590Y-98317135D01*
X112475178Y-98024663D01*
X112510024Y-97925995D01*
X112565801Y-97670013D01*
X112578287Y-97399083D01*
X112549845Y-97128494D01*
X112482834Y-96873539D01*
X112379616Y-96649509D01*
X112294131Y-96527602D01*
X112230781Y-96460577D01*
X112187317Y-96441304D01*
X112157771Y-96454979D01*
X112125545Y-96492957D01*
X112063897Y-96575145D01*
X111979673Y-96692060D01*
X111879722Y-96834220D01*
X111789158Y-96965418D01*
X111677811Y-97127678D01*
X111539172Y-97329137D01*
X111382911Y-97555773D01*
X111218702Y-97793567D01*
X111056214Y-98028500D01*
X110954884Y-98174788D01*
X110821689Y-98369064D01*
X110702066Y-98547627D01*
X110600697Y-98703153D01*
X110522264Y-98828321D01*
X110471452Y-98915809D01*
X110452942Y-98958294D01*
X108736299Y-98958294D01*
X108665020Y-98860380D01*
X108477145Y-98499675D01*
X108347735Y-98122368D01*
X108276857Y-97734266D01*
X108267886Y-97447092D01*
G37*
G36*
X193879050Y-94556148D02*
G01*
X193881943Y-94562542D01*
X193886041Y-94575856D01*
X193891737Y-94597064D01*
X193894512Y-94607822D01*
X193933481Y-94741028D01*
X193981157Y-94870567D01*
X194037382Y-94996129D01*
X194101999Y-95117405D01*
X194174852Y-95234086D01*
X194255784Y-95345863D01*
X194292161Y-95391291D01*
X194336688Y-95442655D01*
X194387435Y-95496632D01*
X194442326Y-95551209D01*
X194499283Y-95604377D01*
X194556229Y-95654122D01*
X194602353Y-95691650D01*
X194701952Y-95764183D01*
X194808206Y-95831275D01*
X194919633Y-95892201D01*
X195034750Y-95946233D01*
X195152078Y-95992644D01*
X195270132Y-96030708D01*
X195322205Y-96044695D01*
X195345165Y-96050516D01*
X195365152Y-96055660D01*
X195380156Y-96059605D01*
X195388169Y-96061828D01*
X195388532Y-96061943D01*
X195386692Y-96063836D01*
X195376993Y-96067542D01*
X195360802Y-96072620D01*
X195339489Y-96078629D01*
X195324402Y-96082604D01*
X195193755Y-96121007D01*
X195067009Y-96167903D01*
X194944498Y-96222981D01*
X194826559Y-96285928D01*
X194713525Y-96356432D01*
X194605732Y-96434180D01*
X194503514Y-96518860D01*
X194407207Y-96610160D01*
X194317144Y-96707768D01*
X194233661Y-96811371D01*
X194157093Y-96920657D01*
X194087775Y-97035314D01*
X194026041Y-97155029D01*
X193972226Y-97279491D01*
X193936989Y-97376585D01*
X193926665Y-97408543D01*
X193915942Y-97443512D01*
X193905875Y-97477938D01*
X193897520Y-97508270D01*
X193895075Y-97517734D01*
X193888687Y-97542941D01*
X193884145Y-97559938D01*
X193880979Y-97569727D01*
X193878717Y-97573312D01*
X193876887Y-97571695D01*
X193875018Y-97565879D01*
X193874094Y-97562370D01*
X193862918Y-97519722D01*
X193853523Y-97484562D01*
X193845412Y-97455155D01*
X193838087Y-97429766D01*
X193831050Y-97406661D01*
X193823803Y-97384105D01*
X193817499Y-97365231D01*
X193769734Y-97238763D01*
X193713542Y-97116336D01*
X193649270Y-96998338D01*
X193577261Y-96885158D01*
X193497860Y-96777184D01*
X193411411Y-96674804D01*
X193318261Y-96578408D01*
X193218752Y-96488384D01*
X193113230Y-96405119D01*
X193002040Y-96329004D01*
X192885526Y-96260425D01*
X192797228Y-96215307D01*
X192714376Y-96178036D01*
X192628039Y-96143770D01*
X192541119Y-96113551D01*
X192456516Y-96088420D01*
X192413627Y-96077525D01*
X192394643Y-96072655D01*
X192380159Y-96068245D01*
X192371944Y-96064878D01*
X192370874Y-96063449D01*
X192376581Y-96061206D01*
X192389694Y-96057221D01*
X192408392Y-96052015D01*
X192430854Y-96046110D01*
X192436203Y-96044748D01*
X192563134Y-96007754D01*
X192687416Y-95961866D01*
X192808523Y-95907448D01*
X192925930Y-95844866D01*
X193039111Y-95774485D01*
X193147539Y-95696671D01*
X193250689Y-95611790D01*
X193348036Y-95520206D01*
X193439053Y-95422285D01*
X193523216Y-95318393D01*
X193565859Y-95259605D01*
X193639561Y-95145823D01*
X193705045Y-95027735D01*
X193762444Y-94905040D01*
X193811891Y-94777435D01*
X193853522Y-94644619D01*
X193875301Y-94560214D01*
X193876967Y-94555697D01*
X193879050Y-94556148D01*
G37*
G36*
X192495392Y-95315275D02*
G01*
X192537531Y-95357468D01*
X192577629Y-95397714D01*
X192615191Y-95435510D01*
X192649722Y-95470354D01*
X192680729Y-95501744D01*
X192707715Y-95529177D01*
X192730186Y-95552151D01*
X192747647Y-95570164D01*
X192759603Y-95582712D01*
X192765560Y-95589293D01*
X192766146Y-95590184D01*
X192761739Y-95593608D01*
X192751203Y-95601607D01*
X192736013Y-95613065D01*
X192717647Y-95626863D01*
X192713378Y-95630064D01*
X192594394Y-95713404D01*
X192469218Y-95789794D01*
X192338460Y-95858914D01*
X192202735Y-95920442D01*
X192062654Y-95974059D01*
X192043472Y-95980664D01*
X192006722Y-95992715D01*
X191965201Y-96005599D01*
X191921425Y-96018592D01*
X191877909Y-96030971D01*
X191837169Y-96042011D01*
X191801720Y-96050988D01*
X191787784Y-96054248D01*
X191772718Y-96057884D01*
X191761492Y-96061025D01*
X191757609Y-96062473D01*
X191760522Y-96064356D01*
X191771206Y-96068029D01*
X191788200Y-96073050D01*
X191810040Y-96078976D01*
X191824114Y-96082593D01*
X191972759Y-96124230D01*
X192115059Y-96172670D01*
X192251582Y-96228200D01*
X192382897Y-96291104D01*
X192509572Y-96361670D01*
X192632174Y-96440183D01*
X192751272Y-96526928D01*
X192825730Y-96586742D01*
X192845367Y-96603742D01*
X192868556Y-96624879D01*
X192894494Y-96649330D01*
X192922382Y-96676271D01*
X192951417Y-96704878D01*
X192980798Y-96734329D01*
X193009723Y-96763800D01*
X193037392Y-96792468D01*
X193063002Y-96819510D01*
X193085752Y-96844102D01*
X193104841Y-96865420D01*
X193119467Y-96882643D01*
X193128830Y-96894945D01*
X193132126Y-96901503D01*
X193127438Y-96901746D01*
X193113622Y-96901983D01*
X193091049Y-96902214D01*
X193060093Y-96902439D01*
X193021125Y-96902655D01*
X192974519Y-96902864D01*
X192920646Y-96903063D01*
X192859878Y-96903252D01*
X192792589Y-96903430D01*
X192719150Y-96903597D01*
X192639933Y-96903751D01*
X192555312Y-96903892D01*
X192465658Y-96904019D01*
X192371344Y-96904131D01*
X192272742Y-96904228D01*
X192170224Y-96904308D01*
X192064163Y-96904371D01*
X191954931Y-96904416D01*
X191842901Y-96904443D01*
X191746209Y-96904450D01*
X190360292Y-96904450D01*
X189894778Y-97369982D01*
X189429265Y-97835514D01*
X189894778Y-98301046D01*
X190360292Y-98766578D01*
X192222425Y-98766578D01*
X194084558Y-98766578D01*
X193153503Y-99697642D01*
X192222448Y-100628706D01*
X191056233Y-100628706D01*
X189890019Y-100628706D01*
X188960147Y-99698825D01*
X188030275Y-98768944D01*
X188030275Y-97835505D01*
X188030275Y-96902065D01*
X188960156Y-95972193D01*
X189890037Y-95042321D01*
X191056253Y-95042321D01*
X192222470Y-95042321D01*
X192495392Y-95315275D01*
G37*
G36*
X191886361Y-97831959D02*
G01*
X191945943Y-97891565D01*
X192003676Y-97949363D01*
X192059203Y-98004996D01*
X192112169Y-98058104D01*
X192162219Y-98108331D01*
X192208995Y-98155318D01*
X192252144Y-98198706D01*
X192291308Y-98238138D01*
X192326132Y-98273256D01*
X192356261Y-98303702D01*
X192381338Y-98329117D01*
X192401009Y-98349144D01*
X192414917Y-98363423D01*
X192422706Y-98371598D01*
X192424328Y-98373496D01*
X192419698Y-98374061D01*
X192406294Y-98374598D01*
X192384842Y-98375100D01*
X192356066Y-98375561D01*
X192320693Y-98375973D01*
X192279450Y-98376328D01*
X192233061Y-98376621D01*
X192182254Y-98376843D01*
X192127753Y-98376989D01*
X192070285Y-98377050D01*
X192059732Y-98377051D01*
X191695137Y-98377051D01*
X191153615Y-97835514D01*
X190612093Y-97293977D01*
X190980244Y-97293977D01*
X191348394Y-97293977D01*
X191886361Y-97831959D01*
G37*
G36*
X192820980Y-97564745D02*
G01*
X193091717Y-97835514D01*
X192723567Y-97835514D01*
X192355417Y-97835514D01*
X192084679Y-97564745D01*
X191813942Y-97293977D01*
X192182092Y-97293977D01*
X192550243Y-97293977D01*
X192820980Y-97564745D01*
G37*
G36*
X66485038Y-111834006D02*
G01*
X66555252Y-111835684D01*
X66602986Y-111839374D01*
X66634241Y-111845807D01*
X66655017Y-111855713D01*
X66669612Y-111868096D01*
X66675667Y-111874787D01*
X66680969Y-111883426D01*
X66685567Y-111896213D01*
X66689512Y-111915348D01*
X66692853Y-111943030D01*
X66695641Y-111981459D01*
X66697926Y-112032834D01*
X66699757Y-112099355D01*
X66701185Y-112183221D01*
X66702260Y-112286632D01*
X66703032Y-112411787D01*
X66703551Y-112560885D01*
X66703867Y-112736127D01*
X66704030Y-112939712D01*
X66704091Y-113173838D01*
X66704099Y-113382871D01*
X66704073Y-113643175D01*
X66703964Y-113871177D01*
X66703726Y-114069062D01*
X66703314Y-114239017D01*
X66702682Y-114383226D01*
X66701784Y-114503875D01*
X66700575Y-114603149D01*
X66699009Y-114683235D01*
X66697040Y-114746317D01*
X66694623Y-114794581D01*
X66691712Y-114830213D01*
X66688261Y-114855398D01*
X66684225Y-114872321D01*
X66679558Y-114883169D01*
X66674214Y-114890126D01*
X66672565Y-114891697D01*
X66641350Y-114904355D01*
X66584261Y-114913824D01*
X66508889Y-114920104D01*
X66422821Y-114923193D01*
X66333647Y-114923093D01*
X66248955Y-114919802D01*
X66176335Y-114913319D01*
X66123376Y-114903646D01*
X66098370Y-114891724D01*
X66094075Y-114881650D01*
X66090272Y-114861056D01*
X66086922Y-114827927D01*
X66083988Y-114780246D01*
X66081432Y-114716000D01*
X66079216Y-114633173D01*
X66077301Y-114529750D01*
X66075650Y-114403716D01*
X66074224Y-114253055D01*
X66072986Y-114075752D01*
X66071897Y-113869792D01*
X66070920Y-113633160D01*
X66070110Y-113394205D01*
X66069310Y-113135404D01*
X66068665Y-112908865D01*
X66068222Y-112712365D01*
X66068026Y-112543678D01*
X66068123Y-112400579D01*
X66068560Y-112280845D01*
X66069383Y-112182250D01*
X66070637Y-112102570D01*
X66072370Y-112039581D01*
X66074628Y-111991057D01*
X66077455Y-111954774D01*
X66080900Y-111928507D01*
X66085007Y-111910033D01*
X66089823Y-111897125D01*
X66095394Y-111887560D01*
X66101538Y-111879403D01*
X66116472Y-111861534D01*
X66132423Y-111849048D01*
X66155391Y-111840981D01*
X66191380Y-111836367D01*
X66246389Y-111834242D01*
X66326421Y-111833640D01*
X66386342Y-111833609D01*
X66485038Y-111834006D01*
G37*
G36*
X63726783Y-111833697D02*
G01*
X63907719Y-111834007D01*
X64059473Y-111834609D01*
X64184696Y-111835571D01*
X64286039Y-111836963D01*
X64366156Y-111838853D01*
X64427699Y-111841310D01*
X64473318Y-111844405D01*
X64505667Y-111848205D01*
X64527398Y-111852779D01*
X64541162Y-111858198D01*
X64544797Y-111860452D01*
X64559609Y-111872503D01*
X64570017Y-111888278D01*
X64576794Y-111913504D01*
X64580717Y-111953909D01*
X64582561Y-112015220D01*
X64583098Y-112103164D01*
X64583122Y-112143742D01*
X64582506Y-112247256D01*
X64580317Y-112321658D01*
X64576042Y-112372305D01*
X64569171Y-112404555D01*
X64559190Y-112423767D01*
X64556024Y-112427285D01*
X64541525Y-112436917D01*
X64516920Y-112444029D01*
X64477523Y-112448977D01*
X64418647Y-112452113D01*
X64335605Y-112453792D01*
X64223710Y-112454369D01*
X64197355Y-112454383D01*
X64067312Y-112455192D01*
X63969324Y-112457715D01*
X63900991Y-112462092D01*
X63859917Y-112468464D01*
X63845090Y-112475075D01*
X63840825Y-112487758D01*
X63837131Y-112517902D01*
X63833978Y-112567332D01*
X63831333Y-112637875D01*
X63829166Y-112731357D01*
X63827446Y-112849604D01*
X63826142Y-112994442D01*
X63825222Y-113167698D01*
X63824656Y-113371196D01*
X63824413Y-113606764D01*
X63824398Y-113690151D01*
X63824374Y-113922022D01*
X63824256Y-114121832D01*
X63823978Y-114292009D01*
X63823473Y-114434980D01*
X63822675Y-114553171D01*
X63821516Y-114649009D01*
X63819930Y-114724922D01*
X63817850Y-114783337D01*
X63815210Y-114826680D01*
X63811942Y-114857379D01*
X63807979Y-114877860D01*
X63803255Y-114890551D01*
X63797704Y-114897879D01*
X63791258Y-114902270D01*
X63791044Y-114902384D01*
X63762025Y-114908905D01*
X63705481Y-114914325D01*
X63628367Y-114918208D01*
X63537640Y-114920114D01*
X63507754Y-114920235D01*
X63405579Y-114919590D01*
X63332445Y-114917302D01*
X63282923Y-114912839D01*
X63251585Y-114905671D01*
X63233002Y-114895266D01*
X63230721Y-114893137D01*
X63225393Y-114884970D01*
X63220803Y-114870296D01*
X63216896Y-114846715D01*
X63213619Y-114811827D01*
X63210919Y-114763230D01*
X63208742Y-114698525D01*
X63207033Y-114615311D01*
X63205741Y-114511188D01*
X63204809Y-114383755D01*
X63204187Y-114230611D01*
X63203818Y-114049355D01*
X63203651Y-113837589D01*
X63203624Y-113680904D01*
X63203477Y-113435555D01*
X63203014Y-113222860D01*
X63202205Y-113040988D01*
X63201018Y-112888104D01*
X63199421Y-112762378D01*
X63197383Y-112661977D01*
X63194872Y-112585069D01*
X63191858Y-112529821D01*
X63188308Y-112494402D01*
X63184191Y-112476979D01*
X63182932Y-112475075D01*
X63161893Y-112467010D01*
X63115509Y-112461052D01*
X63041383Y-112457061D01*
X62937116Y-112454895D01*
X62830667Y-112454383D01*
X62712415Y-112453985D01*
X62623956Y-112452555D01*
X62560605Y-112449740D01*
X62517674Y-112445185D01*
X62490475Y-112438536D01*
X62474323Y-112429438D01*
X62471998Y-112427285D01*
X62461125Y-112410584D01*
X62453495Y-112382236D01*
X62448595Y-112336884D01*
X62445913Y-112269169D01*
X62444938Y-112173734D01*
X62444900Y-112143742D01*
X62445151Y-112044453D01*
X62446419Y-111973924D01*
X62449479Y-111926427D01*
X62455107Y-111896234D01*
X62464077Y-111877619D01*
X62477163Y-111864854D01*
X62483225Y-111860452D01*
X62494694Y-111854701D01*
X62513139Y-111849819D01*
X62541212Y-111845738D01*
X62581565Y-111842388D01*
X62636851Y-111839700D01*
X62709721Y-111837607D01*
X62802827Y-111836037D01*
X62918821Y-111834922D01*
X63060356Y-111834194D01*
X63230084Y-111833783D01*
X63430656Y-111833620D01*
X63514011Y-111833609D01*
X63726783Y-111833697D01*
G37*
G36*
X58823753Y-113031927D02*
G01*
X59464530Y-113031927D01*
X59465192Y-113113449D01*
X59466610Y-113172960D01*
X59468729Y-113205004D01*
X59469456Y-113208350D01*
X59489541Y-113217876D01*
X59536474Y-113224820D01*
X59602710Y-113229133D01*
X59680704Y-113230772D01*
X59762910Y-113229688D01*
X59841782Y-113225837D01*
X59909775Y-113219171D01*
X59953160Y-113211313D01*
X60011645Y-113188150D01*
X60074252Y-113150973D01*
X60101088Y-113130368D01*
X60176648Y-113045627D01*
X60222272Y-112950317D01*
X60238629Y-112849768D01*
X60226385Y-112749310D01*
X60186209Y-112654273D01*
X60118769Y-112569988D01*
X60024733Y-112501786D01*
X60022158Y-112500393D01*
X59990568Y-112485342D01*
X59956870Y-112474964D01*
X59913984Y-112468410D01*
X59854835Y-112464830D01*
X59772343Y-112463376D01*
X59711771Y-112463173D01*
X59470359Y-112463005D01*
X59465686Y-112824677D01*
X59464677Y-112933851D01*
X59464530Y-113031927D01*
X58823753Y-113031927D01*
X58823794Y-112887476D01*
X58823966Y-112690881D01*
X58824298Y-112522146D01*
X58824843Y-112379062D01*
X58825654Y-112259421D01*
X58826782Y-112161013D01*
X58828281Y-112081630D01*
X58830203Y-112019063D01*
X58832601Y-111971102D01*
X58835528Y-111935539D01*
X58839036Y-111910165D01*
X58843177Y-111892770D01*
X58848005Y-111881145D01*
X58853572Y-111873083D01*
X58859607Y-111866696D01*
X58870279Y-111856953D01*
X58883145Y-111849209D01*
X58901884Y-111843291D01*
X58930173Y-111839021D01*
X58971692Y-111836227D01*
X59030118Y-111834732D01*
X59109130Y-111834361D01*
X59212407Y-111834940D01*
X59343627Y-111836294D01*
X59467448Y-111837771D01*
X59628640Y-111839955D01*
X59759346Y-111842331D01*
X59863569Y-111845122D01*
X59945310Y-111848555D01*
X60008573Y-111852855D01*
X60057358Y-111858247D01*
X60095669Y-111864957D01*
X60127506Y-111873210D01*
X60134242Y-111875320D01*
X60310023Y-111947695D01*
X60466315Y-112043504D01*
X60601121Y-112159625D01*
X60712444Y-112292936D01*
X60798286Y-112440317D01*
X60856649Y-112598645D01*
X60885536Y-112764799D01*
X60882950Y-112935657D01*
X60868906Y-113023426D01*
X60818552Y-113190592D01*
X60742314Y-113343411D01*
X60643448Y-113477178D01*
X60525210Y-113587185D01*
X60439654Y-113643640D01*
X60389416Y-113673805D01*
X60353930Y-113698572D01*
X60341166Y-113712092D01*
X60350856Y-113728552D01*
X60378464Y-113769885D01*
X60421799Y-113832947D01*
X60478669Y-113914594D01*
X60546882Y-114011681D01*
X60624248Y-114121064D01*
X60708573Y-114239599D01*
X60720528Y-114256352D01*
X60817207Y-114392806D01*
X60902296Y-114514981D01*
X60974221Y-114620511D01*
X61031409Y-114707028D01*
X61072285Y-114772165D01*
X61095276Y-114813555D01*
X61099890Y-114826891D01*
X61097549Y-114858353D01*
X61087686Y-114881884D01*
X61066044Y-114898523D01*
X61028366Y-114909307D01*
X60970394Y-114915274D01*
X60887871Y-114917462D01*
X60776540Y-114916909D01*
X60733090Y-114916307D01*
X60421251Y-114911613D01*
X59979797Y-114256352D01*
X59868579Y-114091838D01*
X59774789Y-113954432D01*
X59697099Y-113842302D01*
X59634178Y-113753616D01*
X59584697Y-113686543D01*
X59547325Y-113639252D01*
X59520733Y-113609910D01*
X59503592Y-113596686D01*
X59500040Y-113595580D01*
X59461737Y-113590070D01*
X59461737Y-114216828D01*
X59461569Y-114383710D01*
X59460976Y-114519495D01*
X59459821Y-114627572D01*
X59457965Y-114711328D01*
X59455274Y-114774152D01*
X59451610Y-114819435D01*
X59446836Y-114850563D01*
X59440816Y-114870926D01*
X59434893Y-114881910D01*
X59423062Y-114896506D01*
X59407605Y-114906834D01*
X59382912Y-114913631D01*
X59343372Y-114917632D01*
X59283373Y-114919574D01*
X59197305Y-114920192D01*
X59142728Y-114920235D01*
X59041517Y-114920002D01*
X58969183Y-114918815D01*
X58920112Y-114915936D01*
X58888695Y-114910629D01*
X58869321Y-114902159D01*
X58856377Y-114889790D01*
X58850562Y-114881910D01*
X58845785Y-114872186D01*
X58841602Y-114856099D01*
X58837974Y-114831490D01*
X58834862Y-114796201D01*
X58832229Y-114748073D01*
X58830035Y-114684946D01*
X58828244Y-114604664D01*
X58826815Y-114505066D01*
X58825711Y-114383994D01*
X58824894Y-114239290D01*
X58824324Y-114068794D01*
X58823964Y-113870348D01*
X58823775Y-113641794D01*
X58823719Y-113380972D01*
X58823719Y-113373085D01*
X58823729Y-113114141D01*
X58823753Y-113031927D01*
G37*
G36*
X51495650Y-111829078D02*
G01*
X51533796Y-111829710D01*
X51648634Y-111832947D01*
X51733325Y-111838721D01*
X51792186Y-111848251D01*
X51829532Y-111862757D01*
X51849679Y-111883458D01*
X51856943Y-111911573D01*
X51857256Y-111921089D01*
X51850576Y-111942406D01*
X51831395Y-111992245D01*
X51801002Y-112067517D01*
X51760684Y-112165133D01*
X51711731Y-112282005D01*
X51655431Y-112415043D01*
X51593071Y-112561159D01*
X51525941Y-112717265D01*
X51503359Y-112769525D01*
X51423681Y-112954728D01*
X51353053Y-113120993D01*
X51292228Y-113266458D01*
X51241964Y-113389256D01*
X51203014Y-113487526D01*
X51176135Y-113559402D01*
X51162083Y-113603021D01*
X51160329Y-113615879D01*
X51168144Y-113626425D01*
X51185512Y-113634020D01*
X51217334Y-113639131D01*
X51268512Y-113642221D01*
X51343948Y-113643754D01*
X51448544Y-113644197D01*
X51459047Y-113644199D01*
X51581311Y-113643176D01*
X51671280Y-113640011D01*
X51731088Y-113634561D01*
X51762869Y-113626683D01*
X51767589Y-113623507D01*
X51775057Y-113604078D01*
X51780726Y-113560944D01*
X51784726Y-113491600D01*
X51787182Y-113393545D01*
X51788225Y-113264275D01*
X51788281Y-113219257D01*
X51787881Y-113085095D01*
X51788556Y-112981460D01*
X51793122Y-112904437D01*
X51804391Y-112850110D01*
X51825178Y-112814562D01*
X51858297Y-112793879D01*
X51906563Y-112784143D01*
X51972790Y-112781440D01*
X52059791Y-112781853D01*
X52102505Y-112782013D01*
X52194888Y-112781529D01*
X52266653Y-112782637D01*
X52320390Y-112789183D01*
X52358687Y-112805011D01*
X52384134Y-112833965D01*
X52399321Y-112879888D01*
X52406837Y-112946626D01*
X52409271Y-113038023D01*
X52409212Y-113157922D01*
X52409055Y-113237127D01*
X52408881Y-113366023D01*
X52409384Y-113464511D01*
X52412102Y-113536658D01*
X52418574Y-113586533D01*
X52430338Y-113618203D01*
X52448932Y-113635737D01*
X52475895Y-113643202D01*
X52512765Y-113644668D01*
X52561081Y-113644201D01*
X52562986Y-113644199D01*
X52618368Y-113645612D01*
X52658862Y-113652958D01*
X52686794Y-113670896D01*
X52704491Y-113704087D01*
X52714279Y-113757191D01*
X52718485Y-113834868D01*
X52719436Y-113941778D01*
X52719442Y-113957583D01*
X52718911Y-114066360D01*
X52715421Y-114145523D01*
X52706127Y-114199946D01*
X52688184Y-114234502D01*
X52658747Y-114254065D01*
X52614972Y-114263507D01*
X52554013Y-114267703D01*
X52537995Y-114268407D01*
X52417677Y-114273595D01*
X52412934Y-114565859D01*
X52410608Y-114677075D01*
X52407431Y-114758877D01*
X52402887Y-114816332D01*
X52396461Y-114854513D01*
X52387638Y-114878489D01*
X52380085Y-114889178D01*
X52365309Y-114901404D01*
X52342996Y-114909974D01*
X52307452Y-114915515D01*
X52252981Y-114918651D01*
X52173887Y-114920008D01*
X52097227Y-114920235D01*
X51994061Y-114919612D01*
X51919988Y-114917397D01*
X51869634Y-114913075D01*
X51837621Y-114906128D01*
X51818574Y-114896040D01*
X51815378Y-114893137D01*
X51804830Y-114877032D01*
X51797326Y-114849713D01*
X51792398Y-114805992D01*
X51789579Y-114740684D01*
X51788401Y-114648603D01*
X51788281Y-114592783D01*
X51787644Y-114497462D01*
X51785886Y-114413055D01*
X51783236Y-114346157D01*
X51779924Y-114303364D01*
X51777814Y-114292249D01*
X51772312Y-114285551D01*
X51759407Y-114280033D01*
X51736070Y-114275583D01*
X51699274Y-114272090D01*
X51645989Y-114269442D01*
X51573187Y-114267527D01*
X51477838Y-114266235D01*
X51356914Y-114265453D01*
X51207386Y-114265070D01*
X51037566Y-114264973D01*
X50852911Y-114264943D01*
X50699791Y-114264609D01*
X50575254Y-114263602D01*
X50476349Y-114261557D01*
X50400123Y-114258105D01*
X50343624Y-114252881D01*
X50303900Y-114245517D01*
X50277999Y-114235645D01*
X50262968Y-114222900D01*
X50255857Y-114206914D01*
X50253713Y-114187319D01*
X50253590Y-114167498D01*
X50260298Y-114145143D01*
X50279530Y-114094317D01*
X50309952Y-114018128D01*
X50350229Y-113919686D01*
X50399027Y-113802099D01*
X50455009Y-113668476D01*
X50516841Y-113521925D01*
X50583189Y-113365557D01*
X50652717Y-113202478D01*
X50724090Y-113035798D01*
X50795973Y-112868626D01*
X50867032Y-112704071D01*
X50935931Y-112545241D01*
X51001336Y-112395245D01*
X51061911Y-112257192D01*
X51116322Y-112134191D01*
X51163233Y-112029350D01*
X51201311Y-111945778D01*
X51229218Y-111886583D01*
X51245622Y-111854876D01*
X51248393Y-111850853D01*
X51263707Y-111840685D01*
X51290873Y-111833810D01*
X51335108Y-111829842D01*
X51401628Y-111828394D01*
X51495650Y-111829078D01*
G37*
G36*
X54079190Y-113455886D02*
G01*
X54709348Y-113455886D01*
X54727421Y-113578037D01*
X54751967Y-113668724D01*
X54785867Y-113759676D01*
X54825890Y-113845209D01*
X54868802Y-113919639D01*
X54911371Y-113977281D01*
X54950365Y-114012450D01*
X54978941Y-114020333D01*
X54997301Y-114004520D01*
X55034271Y-113960248D01*
X55089568Y-113887904D01*
X55162905Y-113787880D01*
X55254000Y-113660566D01*
X55362567Y-113506351D01*
X55488322Y-113325625D01*
X55529848Y-113265586D01*
X55628657Y-113122277D01*
X55721283Y-112987415D01*
X55805915Y-112863677D01*
X55880737Y-112753739D01*
X55943938Y-112660276D01*
X55993702Y-112585966D01*
X56028219Y-112533484D01*
X56045672Y-112505506D01*
X56047480Y-112501671D01*
X56031417Y-112483143D01*
X55987471Y-112462687D01*
X55922009Y-112442420D01*
X55841397Y-112424461D01*
X55789599Y-112415849D01*
X55626262Y-112408900D01*
X55462847Y-112433384D01*
X55304345Y-112486620D01*
X55155746Y-112565928D01*
X55022039Y-112668626D01*
X54908213Y-112792035D01*
X54819258Y-112933474D01*
X54816774Y-112938480D01*
X54747313Y-113112222D01*
X54711629Y-113283803D01*
X54709348Y-113455886D01*
X54079190Y-113455886D01*
X54078224Y-113292985D01*
X54104323Y-113084075D01*
X54157240Y-112879988D01*
X54236440Y-112683697D01*
X54341390Y-112498177D01*
X54471557Y-112326405D01*
X54626409Y-112171355D01*
X54805411Y-112036002D01*
X54969748Y-111941843D01*
X55131563Y-111870788D01*
X55291394Y-111822117D01*
X55458461Y-111793992D01*
X55641988Y-111784580D01*
X55749881Y-111786581D01*
X55897343Y-111795833D01*
X56021596Y-111812640D01*
X56133524Y-111839374D01*
X56244013Y-111878404D01*
X56317115Y-111910067D01*
X56370092Y-111933395D01*
X56410367Y-111949428D01*
X56427128Y-111954315D01*
X56442892Y-111940944D01*
X56469959Y-111906323D01*
X56494833Y-111869629D01*
X56528819Y-111821741D01*
X56559708Y-111786703D01*
X56575638Y-111774788D01*
X56606306Y-111769674D01*
X56660277Y-111766483D01*
X56728199Y-111765140D01*
X56800718Y-111765571D01*
X56868481Y-111767698D01*
X56922135Y-111771449D01*
X56952327Y-111776747D01*
X56954505Y-111777831D01*
X56976860Y-111802127D01*
X56993910Y-111829298D01*
X57003092Y-111850840D01*
X57004616Y-111872802D01*
X56996023Y-111900634D01*
X56974852Y-111939783D01*
X56938644Y-111995698D01*
X56884938Y-112073828D01*
X56880835Y-112079729D01*
X56787627Y-112213766D01*
X56878823Y-112316808D01*
X57013058Y-112492973D01*
X57122676Y-112688038D01*
X57205769Y-112896448D01*
X57260434Y-113112643D01*
X57284764Y-113331069D01*
X57281987Y-113492629D01*
X57247760Y-113723553D01*
X57181875Y-113943744D01*
X57086218Y-114150478D01*
X56962676Y-114341030D01*
X56813135Y-114512673D01*
X56639484Y-114662683D01*
X56443608Y-114788334D01*
X56353332Y-114834049D01*
X56135973Y-114917311D01*
X55911689Y-114967273D01*
X55682582Y-114983922D01*
X55450757Y-114967241D01*
X55218319Y-114917217D01*
X55010050Y-114843552D01*
X54989196Y-114844385D01*
X54962800Y-114866112D01*
X54926396Y-114912864D01*
X54910939Y-114935204D01*
X54862450Y-115003418D01*
X54821294Y-115048466D01*
X54778133Y-115075127D01*
X54723626Y-115088175D01*
X54648433Y-115092387D01*
X54603009Y-115092672D01*
X54526109Y-115091927D01*
X54475238Y-115088517D01*
X54441951Y-115080682D01*
X54417803Y-115066663D01*
X54399921Y-115050346D01*
X54371151Y-115015416D01*
X54357725Y-114986978D01*
X54357596Y-114985049D01*
X54366940Y-114962923D01*
X54392505Y-114918682D01*
X54430587Y-114858364D01*
X54477484Y-114788005D01*
X54486819Y-114774386D01*
X54616043Y-114586694D01*
X54514641Y-114481094D01*
X54368642Y-114305731D01*
X54356925Y-114286699D01*
X55379303Y-114286699D01*
X55403851Y-114310029D01*
X55455872Y-114327892D01*
X55528733Y-114339911D01*
X55615796Y-114345712D01*
X55710428Y-114344920D01*
X55805993Y-114337160D01*
X55895856Y-114322055D01*
X55916679Y-114317081D01*
X56060785Y-114270131D01*
X56185393Y-114205503D01*
X56303408Y-114116182D01*
X56329752Y-114092536D01*
X56454501Y-113955930D01*
X56550811Y-113803106D01*
X56602150Y-113681971D01*
X56631742Y-113557524D01*
X56644075Y-113416155D01*
X56639154Y-113270797D01*
X56616984Y-113134384D01*
X56601939Y-113081058D01*
X56571054Y-113000133D01*
X56534020Y-112923230D01*
X56495018Y-112857331D01*
X56458227Y-112809421D01*
X56427828Y-112786482D01*
X56425194Y-112785809D01*
X56410513Y-112798538D01*
X56378822Y-112836681D01*
X56332357Y-112897030D01*
X56273351Y-112976380D01*
X56204039Y-113071525D01*
X56126654Y-113179258D01*
X56043432Y-113296372D01*
X55956607Y-113419663D01*
X55868412Y-113545923D01*
X55781082Y-113671945D01*
X55696852Y-113794525D01*
X55617955Y-113910456D01*
X55546626Y-114016530D01*
X55485100Y-114109543D01*
X55435609Y-114186288D01*
X55400390Y-114243558D01*
X55381675Y-114278148D01*
X55379303Y-114286699D01*
X54356925Y-114286699D01*
X54252659Y-114117339D01*
X54166159Y-113918893D01*
X54108608Y-113713369D01*
X54079474Y-113503741D01*
X54079190Y-113455886D01*
G37*
%TD*%
M02*
