%TF.GenerationSoftware,KiCad,Pcbnew,8.0.8*%
%TF.CreationDate,2025-02-23T20:37:23+01:00*%
%TF.ProjectId,forti rev 3,666f7274-6920-4726-9576-20332e6b6963,rev?*%
%TF.SameCoordinates,Original*%
%TF.FileFunction,Copper,L1,Top*%
%TF.FilePolarity,Positive*%
%FSLAX46Y46*%
G04 Gerber Fmt 4.6, Leading zero omitted, Abs format (unit mm)*
G04 Created by KiCad (PCBNEW 8.0.8) date 2025-02-23 20:37:23*
%MOMM*%
%LPD*%
G01*
G04 APERTURE LIST*
%TA.AperFunction,SMDPad,CuDef*%
%ADD10R,0.600000X1.450000*%
%TD*%
%TA.AperFunction,SMDPad,CuDef*%
%ADD11R,0.280000X1.450000*%
%TD*%
%TA.AperFunction,ComponentPad*%
%ADD12O,1.000000X2.100000*%
%TD*%
%TA.AperFunction,ComponentPad*%
%ADD13O,1.000000X1.600000*%
%TD*%
%TA.AperFunction,ComponentPad*%
%ADD14C,2.300000*%
%TD*%
%TA.AperFunction,ViaPad*%
%ADD15C,0.800000*%
%TD*%
%TA.AperFunction,Conductor*%
%ADD16C,0.381000*%
%TD*%
%TA.AperFunction,Conductor*%
%ADD17C,0.250000*%
%TD*%
%TA.AperFunction,Conductor*%
%ADD18C,0.200000*%
%TD*%
G04 APERTURE END LIST*
D10*
%TO.P,J1,A1,GND*%
%TO.N,GND*%
X237519115Y-31582500D03*
%TO.P,J1,A4,VBUS*%
%TO.N,VBUS*%
X236719115Y-31582500D03*
D11*
%TO.P,J1,A5,CC1*%
%TO.N,/CC1*%
X235519115Y-31582500D03*
%TO.P,J1,A6,D+*%
%TO.N,D_USB_P*%
X234519115Y-31582500D03*
%TO.P,J1,A7,D-*%
%TO.N,D_USB_N*%
X234019115Y-31582500D03*
%TO.P,J1,A8,SBU1*%
%TO.N,unconnected-(J1-SBU1-PadA8)*%
X233019115Y-31582500D03*
D10*
%TO.P,J1,A9,VBUS*%
%TO.N,VBUS*%
X231819115Y-31582500D03*
%TO.P,J1,A12,GND*%
%TO.N,GND*%
X231019115Y-31582500D03*
%TO.P,J1,B1,GND*%
X231019115Y-31582500D03*
%TO.P,J1,B4,VBUS*%
%TO.N,VBUS*%
X231819115Y-31582500D03*
D11*
%TO.P,J1,B5,CC2*%
%TO.N,/CC2*%
X232519115Y-31582500D03*
%TO.P,J1,B6,D+*%
%TO.N,D_USB_P*%
X233519115Y-31582500D03*
%TO.P,J1,B7,D-*%
%TO.N,D_USB_N*%
X235019115Y-31582500D03*
%TO.P,J1,B8,SBU2*%
%TO.N,unconnected-(J1-SBU2-PadB8)*%
X236019115Y-31582500D03*
D10*
%TO.P,J1,B9,VBUS*%
%TO.N,VBUS*%
X236719115Y-31582500D03*
%TO.P,J1,B12,GND*%
%TO.N,GND*%
X237519115Y-31582500D03*
D12*
%TO.P,J1,S1,SHIELD*%
X238589115Y-30667500D03*
D13*
X238589115Y-26487500D03*
D12*
X229949115Y-30667500D03*
D13*
X229949115Y-26487500D03*
%TD*%
D14*
%TO.P,MX51,1,1*%
%TO.N,COL9*%
X227171250Y-95885000D03*
%TO.P,MX51,2,2*%
%TO.N,Net-(D45-A)*%
X233521250Y-93345000D03*
%TD*%
%TO.P,MX23,1,1*%
%TO.N,COL10*%
X236696250Y-57785000D03*
%TO.P,MX23,2,2*%
%TO.N,Net-(D23-A)*%
X243046250Y-55245000D03*
%TD*%
%TO.P,MX55,1,1*%
%TO.N,COL11*%
X255746250Y-95885000D03*
%TO.P,MX55,2,2*%
%TO.N,Net-(D47-A)*%
X262096250Y-93345000D03*
%TD*%
%TO.P,MX43,1,1*%
%TO.N,COL2*%
X70008750Y-95885000D03*
%TO.P,MX43,2,2*%
%TO.N,Net-(D39-A)*%
X76358750Y-93345000D03*
%TD*%
%TO.P,MXshift2.1,1,1*%
%TO.N,COL0*%
X43815000Y-76835000D03*
%TO.P,MXshift2.1,2,2*%
%TO.N,Net-(D25-A)*%
X50165000Y-74295000D03*
%TD*%
%TO.P,MX27,1,1*%
%TO.N,COL2*%
X74771250Y-76835000D03*
%TO.P,MX27,2,2*%
%TO.N,Net-(D27-A)*%
X81121250Y-74295000D03*
%TD*%
%TO.P,MX11,1,1*%
%TO.N,COL10*%
X231933750Y-38735000D03*
%TO.P,MX11,2,2*%
%TO.N,Net-(D11-A)*%
X238283750Y-36195000D03*
%TD*%
%TO.P,MX46,1,1*%
%TO.N,COL3*%
X84296250Y-95885000D03*
%TO.P,MX46,2,2*%
%TO.N,Net-(D40-A)*%
X90646250Y-93345000D03*
%TD*%
%TO.P,MXenter2.1,1,1*%
%TO.N,COL11*%
X248602500Y-57785000D03*
%TO.P,MXenter2.1,2,2*%
%TO.N,Net-(D24-A)*%
X254952500Y-55245000D03*
%TD*%
%TO.P,MX49,1,1*%
%TO.N,COL8*%
X208121250Y-95885000D03*
%TO.P,MX49,2,2*%
%TO.N,Net-(D44-A)*%
X214471250Y-93345000D03*
%TD*%
%TO.P,MX31,1,1*%
%TO.N,COL6*%
X150971250Y-76835000D03*
%TO.P,MX31,2,2*%
%TO.N,Net-(D31-A)*%
X157321250Y-74295000D03*
%TD*%
%TO.P,MX16,1,1*%
%TO.N,COL3*%
X103346250Y-57785000D03*
%TO.P,MX16,2,2*%
%TO.N,Net-(D16-A)*%
X109696250Y-55245000D03*
%TD*%
%TO.P,MX38,1,1*%
%TO.N,COL11*%
X260508750Y-76835000D03*
%TO.P,MX38,2,2*%
%TO.N,Net-(D36-A)*%
X266858750Y-74295000D03*
%TD*%
%TO.P,MX35,1,1*%
%TO.N,COL10*%
X227171250Y-76835000D03*
%TO.P,MX35,2,2*%
%TO.N,Net-(D35-A)*%
X233521250Y-74295000D03*
%TD*%
%TO.P,MXsplit2.75(1)1,1,1*%
%TO.N,COL7*%
X167640000Y-95885000D03*
%TO.P,MXsplit2.75(1)1,2,2*%
%TO.N,Net-(D43-A)*%
X173990000Y-93345000D03*
%TD*%
%TO.P,MX8,1,1*%
%TO.N,COL7*%
X174783750Y-38735000D03*
%TO.P,MX8,2,2*%
%TO.N,Net-(D8-A)*%
X181133750Y-36195000D03*
%TD*%
%TO.P,MX13,1,1*%
%TO.N,COL0*%
X39052500Y-57785000D03*
%TO.P,MX13,2,2*%
%TO.N,Net-(D13-A)*%
X45402500Y-55245000D03*
%TD*%
%TO.P,MX32,1,1*%
%TO.N,COL7*%
X170021250Y-76835000D03*
%TO.P,MX32,2,2*%
%TO.N,Net-(D32-A)*%
X176371250Y-74295000D03*
%TD*%
%TO.P,MXISO1,1,1*%
%TO.N,COL11*%
X258127500Y-48260000D03*
%TO.P,MXISO1,2,2*%
%TO.N,Net-(D12-A)*%
X264477500Y-45720000D03*
%TD*%
%TO.P,MX21,1,1*%
%TO.N,COL8*%
X198596250Y-57785000D03*
%TO.P,MX21,2,2*%
%TO.N,Net-(D21-A)*%
X204946250Y-55245000D03*
%TD*%
%TO.P,MXsplit2.1,1,1*%
%TO.N,COL5*%
X124777500Y-95885000D03*
%TO.P,MXsplit2.1,2,2*%
%TO.N,Net-(D41-A)*%
X131127500Y-93345000D03*
%TD*%
%TO.P,MX4,1,1*%
%TO.N,COL3*%
X98583750Y-38735000D03*
%TO.P,MX4,2,2*%
%TO.N,Net-(D4-A)*%
X104933750Y-36195000D03*
%TD*%
%TO.P,MX45,1,1*%
%TO.N,COL3*%
X89058750Y-95885000D03*
%TO.P,MX45,2,2*%
%TO.N,Net-(D40-A)*%
X95408750Y-93345000D03*
%TD*%
%TO.P,MX30,1,1*%
%TO.N,COL5*%
X131921250Y-76835000D03*
%TO.P,MX30,2,2*%
%TO.N,Net-(D30-A)*%
X138271250Y-74295000D03*
%TD*%
%TO.P,MX1,1,1*%
%TO.N,COL0*%
X36671250Y-38735000D03*
%TO.P,MX1,2,2*%
%TO.N,Net-(D1-A)*%
X43021250Y-36195000D03*
%TD*%
%TO.P,MX34,1,1*%
%TO.N,COL9*%
X208121250Y-76835000D03*
%TO.P,MX34,2,2*%
%TO.N,Net-(D34-A)*%
X214471250Y-74295000D03*
%TD*%
%TO.P,MX25,1,1*%
%TO.N,COL0*%
X34290000Y-76835000D03*
%TO.P,MX25,2,2*%
%TO.N,Net-(D25-A)*%
X40640000Y-74295000D03*
%TD*%
%TO.P,MX29,1,1*%
%TO.N,COL4*%
X112871250Y-76835000D03*
%TO.P,MX29,2,2*%
%TO.N,Net-(D29-A)*%
X119221250Y-74295000D03*
%TD*%
%TO.P,MX53,1,1*%
%TO.N,COL10*%
X231933750Y-95885000D03*
%TO.P,MX53,2,2*%
%TO.N,Net-(D46-A)*%
X238283750Y-93345000D03*
%TD*%
%TO.P,MX22,1,1*%
%TO.N,COL9*%
X217646250Y-57785000D03*
%TO.P,MX22,2,2*%
%TO.N,Net-(D22-A)*%
X223996250Y-55245000D03*
%TD*%
%TO.P,MX17,1,1*%
%TO.N,COL4*%
X122396250Y-57785000D03*
%TO.P,MX17,2,2*%
%TO.N,Net-(D17-A)*%
X128746250Y-55245000D03*
%TD*%
%TO.P,MX47,1,1*%
%TO.N,COL6*%
X146208750Y-95885000D03*
%TO.P,MX47,2,2*%
%TO.N,Net-(D42-A)*%
X152558750Y-93345000D03*
%TD*%
%TO.P,MX44,1,1*%
%TO.N,COL2*%
X65246250Y-95885000D03*
%TO.P,MX44,2,2*%
%TO.N,Net-(D39-A)*%
X71596250Y-93345000D03*
%TD*%
%TO.P,MX36,1,1*%
%TO.N,COL10*%
X234315000Y-76835000D03*
%TO.P,MX36,2,2*%
%TO.N,Net-(D35-A)*%
X240665000Y-74295000D03*
%TD*%
%TO.P,MX26,1,1*%
%TO.N,COL1*%
X55721250Y-76835000D03*
%TO.P,MX26,2,2*%
%TO.N,Net-(D26-A)*%
X62071250Y-74295000D03*
%TD*%
%TO.P,MX3,1,1*%
%TO.N,COL2*%
X79533750Y-38735000D03*
%TO.P,MX3,2,2*%
%TO.N,Net-(D3-A)*%
X85883750Y-36195000D03*
%TD*%
%TO.P,MX37,1,1*%
%TO.N,COL11*%
X253365000Y-76835000D03*
%TO.P,MX37,2,2*%
%TO.N,Net-(D36-A)*%
X259715000Y-74295000D03*
%TD*%
%TO.P,MX24,1,1*%
%TO.N,COL11*%
X258127500Y-57785000D03*
%TO.P,MX24,2,2*%
%TO.N,Net-(D24-A)*%
X264477500Y-55245000D03*
%TD*%
%TO.P,MX42,1,1*%
%TO.N,COL1*%
X60483750Y-95885000D03*
%TO.P,MX42,2,2*%
%TO.N,Net-(D38-A)*%
X66833750Y-93345000D03*
%TD*%
%TO.P,MX33,1,1*%
%TO.N,COL8*%
X189071250Y-76835000D03*
%TO.P,MX33,2,2*%
%TO.N,Net-(D33-A)*%
X195421250Y-74295000D03*
%TD*%
%TO.P,MX5,1,1*%
%TO.N,COL4*%
X117633750Y-38735000D03*
%TO.P,MX5,2,2*%
%TO.N,Net-(D5-A)*%
X123983750Y-36195000D03*
%TD*%
%TO.P,MX50,1,1*%
%TO.N,COL9*%
X222408750Y-95885000D03*
%TO.P,MX50,2,2*%
%TO.N,Net-(D45-A)*%
X228758750Y-93345000D03*
%TD*%
%TO.P,MXsplit2.25(1)1,1,1*%
%TO.N,COL5*%
X120015000Y-95885000D03*
%TO.P,MXsplit2.25(1)1,2,2*%
%TO.N,Net-(D41-A)*%
X126365000Y-93345000D03*
%TD*%
%TO.P,MX28,1,1*%
%TO.N,COL3*%
X93821250Y-76835000D03*
%TO.P,MX28,2,2*%
%TO.N,Net-(D28-A)*%
X100171250Y-74295000D03*
%TD*%
%TO.P,MX18,1,1*%
%TO.N,COL5*%
X141446250Y-57785000D03*
%TO.P,MX18,2,2*%
%TO.N,Net-(D18-A)*%
X147796250Y-55245000D03*
%TD*%
%TO.P,MXcaps1,1,1*%
%TO.N,COL0*%
X34290000Y-57785000D03*
%TO.P,MXcaps1,2,2*%
%TO.N,Net-(D13-A)*%
X40640000Y-55245000D03*
%TD*%
%TO.P,MX40,1,1*%
%TO.N,COL0*%
X36671250Y-95885000D03*
%TO.P,MX40,2,2*%
%TO.N,Net-(D37-A)*%
X43021250Y-93345000D03*
%TD*%
%TO.P,MX15,1,1*%
%TO.N,COL2*%
X84296250Y-57785000D03*
%TO.P,MX15,2,2*%
%TO.N,Net-(D15-A)*%
X90646250Y-55245000D03*
%TD*%
%TO.P,MX54,1,1*%
%TO.N,COL11*%
X260508750Y-95885000D03*
%TO.P,MX54,2,2*%
%TO.N,Net-(D47-A)*%
X266858750Y-93345000D03*
%TD*%
%TO.P,MX39,1,1*%
%TO.N,COL0*%
X31908750Y-95885000D03*
%TO.P,MX39,2,2*%
%TO.N,Net-(D37-A)*%
X38258750Y-93345000D03*
%TD*%
%TO.P,MX10,1,1*%
%TO.N,COL9*%
X212883750Y-38735000D03*
%TO.P,MX10,2,2*%
%TO.N,Net-(D10-A)*%
X219233750Y-36195000D03*
%TD*%
%TO.P,MX9,1,1*%
%TO.N,COL8*%
X193833750Y-38735000D03*
%TO.P,MX9,2,2*%
%TO.N,Net-(D9-A)*%
X200183750Y-36195000D03*
%TD*%
%TO.P,MX52,1,1*%
%TO.N,COL10*%
X241458750Y-95885000D03*
%TO.P,MX52,2,2*%
%TO.N,Net-(D46-A)*%
X247808750Y-93345000D03*
%TD*%
%TO.P,MX20,1,1*%
%TO.N,COL7*%
X179546250Y-57785000D03*
%TO.P,MX20,2,2*%
%TO.N,Net-(D20-A)*%
X185896250Y-55245000D03*
%TD*%
%TO.P,MX6,1,1*%
%TO.N,COL5*%
X136683750Y-38735000D03*
%TO.P,MX6,2,2*%
%TO.N,Net-(D6-A)*%
X143033750Y-36195000D03*
%TD*%
%TO.P,MXshift2.2,1,1*%
%TO.N,COL11*%
X243840000Y-76835000D03*
%TO.P,MXshift2.2,2,2*%
%TO.N,Net-(D36-A)*%
X250190000Y-74295000D03*
%TD*%
%TO.P,MX12,1,1*%
%TO.N,COL11*%
X255746250Y-38735000D03*
%TO.P,MX12,2,2*%
%TO.N,Net-(D12-A)*%
X262096250Y-36195000D03*
%TD*%
%TO.P,MX19,1,1*%
%TO.N,COL6*%
X160496250Y-57785000D03*
%TO.P,MX19,2,2*%
%TO.N,Net-(D19-A)*%
X166846250Y-55245000D03*
%TD*%
%TO.P,MXsplit2.2,1,1*%
%TO.N,COL7*%
X172402500Y-95885000D03*
%TO.P,MXsplit2.2,2,2*%
%TO.N,Net-(D43-A)*%
X178752500Y-93345000D03*
%TD*%
%TO.P,MX7,1,1*%
%TO.N,COL6*%
X155733750Y-38735000D03*
%TO.P,MX7,2,2*%
%TO.N,Net-(D7-A)*%
X162083750Y-36195000D03*
%TD*%
%TO.P,MX14,1,1*%
%TO.N,COL1*%
X65246250Y-57785000D03*
%TO.P,MX14,2,2*%
%TO.N,Net-(D14-A)*%
X71596250Y-55245000D03*
%TD*%
%TO.P,MX48,1,1*%
%TO.N,COL8*%
X203358750Y-95885000D03*
%TO.P,MX48,2,2*%
%TO.N,Net-(D44-A)*%
X209708750Y-93345000D03*
%TD*%
%TO.P,MX41,1,1*%
%TO.N,COL1*%
X50958750Y-95885000D03*
%TO.P,MX41,2,2*%
%TO.N,Net-(D38-A)*%
X57308750Y-93345000D03*
%TD*%
%TO.P,MX2,1,1*%
%TO.N,COL1*%
X60483750Y-38735000D03*
%TO.P,MX2,2,2*%
%TO.N,Net-(D2-A)*%
X66833750Y-36195000D03*
%TD*%
D15*
%TO.N,+5V*%
X224614785Y-39143159D03*
%TO.N,GND*%
X227806250Y-38687497D03*
%TO.N,+5V*%
X227806250Y-39687500D03*
%TO.N,ROW0*%
X227806250Y-44450000D03*
X224635000Y-44450000D03*
%TO.N,ROW1*%
X71558211Y-63675454D03*
X56177537Y-63595035D03*
%TO.N,GND*%
X61383494Y-65360784D03*
X218273122Y-48819724D03*
X224523397Y-33524822D03*
X61335259Y-55462097D03*
X55405316Y-61872013D03*
X57355316Y-61856934D03*
X219874863Y-49742270D03*
X246249822Y-33524822D03*
X65570925Y-61316672D03*
X79670438Y-68278415D03*
X61475875Y-61238510D03*
X68830511Y-78563503D03*
X56445750Y-66353872D03*
X218281250Y-50800000D03*
%TO.N,+3V3*%
X69850000Y-64293750D03*
X69850000Y-75406250D03*
X63500000Y-69056250D03*
X75828969Y-69056250D03*
X75828969Y-70643750D03*
%TO.N,VBUS*%
X231805189Y-33352069D03*
%TO.N,/CC1*%
X235519115Y-34131250D03*
%TO.N,D_USB_P*%
X233362500Y-33804800D03*
%TO.N,D_USB_N*%
X233362500Y-34925000D03*
%TO.N,/CC2*%
X230981250Y-34131250D03*
%TO.N,BOOT0*%
X71850104Y-68930176D03*
X61912500Y-69056250D03*
%TD*%
D16*
%TO.N,GND*%
X223824285Y-46032687D02*
X223824285Y-36512500D01*
X223824285Y-46032687D02*
G75*
G02*
X220114702Y-49742285I-3709585J-13D01*
G01*
X220114702Y-49742270D02*
X219874863Y-49742270D01*
%TO.N,+5V*%
X227806250Y-39687500D02*
X225159126Y-39687500D01*
X225159126Y-39687500D02*
G75*
G02*
X224614800Y-39143159I-26J544300D01*
G01*
%TO.N,GND*%
X224523397Y-33524822D02*
X228600000Y-33524822D01*
X227806250Y-34318572D02*
G75*
G02*
X228600000Y-33524850I793750J-28D01*
G01*
X227806250Y-38687497D02*
X227806250Y-34318572D01*
X228600000Y-33524822D02*
X228968043Y-33524822D01*
D17*
%TO.N,ROW0*%
X224635000Y-44450000D02*
X227806250Y-44450000D01*
%TO.N,Net-(D12-A)*%
X265906250Y-38516476D02*
X265906250Y-43056465D01*
X265033125Y-45164375D02*
X264477500Y-45720000D01*
X262096250Y-36195000D02*
X264258294Y-36195000D01*
X265086815Y-36538185D02*
G75*
G02*
X265906260Y-38516476I-1978315J-1978315D01*
G01*
X265906250Y-43056465D02*
G75*
G02*
X265033146Y-45164396I-2981050J-35D01*
G01*
X264258294Y-36195000D02*
G75*
G02*
X265086817Y-36538183I6J-1171700D01*
G01*
%TO.N,ROW1*%
X71451507Y-63568750D02*
X56203822Y-63568750D01*
X56203822Y-63568750D02*
G75*
G03*
X56177550Y-63595035I-22J-26250D01*
G01*
X71558211Y-63675454D02*
G75*
G03*
X71451507Y-63568789I-106711J-46D01*
G01*
%TO.N,COL0*%
X44022963Y-90120787D02*
X38844536Y-95299214D01*
X34290000Y-57785000D02*
X39052500Y-57785000D01*
X43815000Y-70861007D02*
X43815000Y-76835000D01*
X36446495Y-55496495D02*
X34383346Y-57559644D01*
X36671250Y-95885000D02*
X31908750Y-95885000D01*
D18*
X34290000Y-76835000D02*
X43815000Y-76835000D01*
D17*
X34290000Y-57785000D02*
X34290000Y-59036704D01*
X44608750Y-78751282D02*
X44608750Y-88706573D01*
X31908750Y-95885000D02*
X37430323Y-95885000D01*
X34875787Y-60450918D02*
X42774934Y-68350066D01*
X36671250Y-38735000D02*
X36671250Y-54953889D01*
X34383346Y-57559644D02*
G75*
G03*
X34290000Y-57785000I225354J-225356D01*
G01*
X42774934Y-68350066D02*
G75*
G02*
X43814997Y-70861007I-2510934J-2510934D01*
G01*
X34875787Y-60450918D02*
G75*
G02*
X34289997Y-59036704I1414213J1414218D01*
G01*
X43815000Y-76835000D02*
G75*
G02*
X44608757Y-78751282I-1916300J-1916300D01*
G01*
X38844536Y-95299214D02*
G75*
G02*
X37430323Y-95885016I-1414236J1414214D01*
G01*
X36671250Y-54953889D02*
G75*
G02*
X36446498Y-55496498I-767350J-11D01*
G01*
X44022963Y-90120787D02*
G75*
G03*
X44608745Y-88706573I-1414163J1414187D01*
G01*
%TO.N,COL1*%
X54678895Y-59440159D02*
X54678895Y-59390754D01*
X60483750Y-95885000D02*
X50958750Y-95885000D01*
X60483750Y-38735000D02*
X60483750Y-52194073D01*
X64611250Y-58420000D02*
X55654021Y-58420000D01*
X55135463Y-91708287D02*
X50958750Y-95885000D01*
X55721250Y-76835000D02*
X55721250Y-90294073D01*
X61069537Y-53608287D02*
X65246250Y-57785000D01*
X54680316Y-59441580D02*
X54680316Y-75794066D01*
X65246250Y-57785000D02*
G75*
G02*
X64611250Y-58419950I-634950J0D01*
G01*
X60483750Y-52194073D02*
G75*
G03*
X61069534Y-53608290I1999950J-27D01*
G01*
X54678895Y-59390754D02*
G75*
G02*
X55651835Y-58417795I972905J54D01*
G01*
X55721250Y-90294073D02*
G75*
G02*
X55135466Y-91708290I-1999950J-27D01*
G01*
X54680316Y-75794066D02*
G75*
G03*
X55721250Y-76835084I1040984J-34D01*
G01*
%TO.N,COL2*%
X74185463Y-93334632D02*
X72220881Y-95299214D01*
X80119537Y-53608287D02*
X84296250Y-57785000D01*
X74771250Y-76835000D02*
X74771250Y-91920418D01*
X70008750Y-95885000D02*
X65246250Y-95885000D01*
X84296250Y-57785000D02*
X84296250Y-66481573D01*
X83710463Y-67895787D02*
X74771250Y-76835000D01*
X79533750Y-38735000D02*
X79533750Y-52194073D01*
X70806668Y-95885000D02*
X70008750Y-95885000D01*
X79533750Y-52194073D02*
G75*
G03*
X80119534Y-53608290I1999950J-27D01*
G01*
X70806668Y-95885000D02*
G75*
G03*
X72220897Y-95299230I32J2000000D01*
G01*
X84296250Y-66481573D02*
G75*
G02*
X83710466Y-67895790I-1999950J-27D01*
G01*
X74771250Y-91920418D02*
G75*
G02*
X74185444Y-93334613I-1999950J18D01*
G01*
%TO.N,COL3*%
X99169537Y-53608287D02*
X103346250Y-57785000D01*
X93235463Y-86453156D02*
X89644536Y-90044083D01*
X98583750Y-38735000D02*
X98583750Y-52194073D01*
X93821250Y-76835000D02*
X93821250Y-85038942D01*
X103346250Y-57785000D02*
X103346250Y-66481573D01*
X89058750Y-95885000D02*
X84296250Y-95885000D01*
X89058750Y-91458296D02*
X89058750Y-95885000D01*
X102760463Y-67895787D02*
X93821250Y-76835000D01*
X93235463Y-86453156D02*
G75*
G03*
X93821294Y-85038942I-1414163J1414256D01*
G01*
X103346250Y-66481573D02*
G75*
G02*
X102760466Y-67895790I-1999950J-27D01*
G01*
X89058750Y-91458296D02*
G75*
G02*
X89644548Y-90044095I1999950J-4D01*
G01*
X99169537Y-53608287D02*
G75*
G02*
X98583755Y-52194073I1414163J1414187D01*
G01*
%TO.N,COL4*%
X117633750Y-38735000D02*
X117633750Y-52194073D01*
X118219537Y-53608287D02*
X122396250Y-57785000D01*
X121810463Y-67895787D02*
X112871250Y-76835000D01*
X122396250Y-57785000D02*
X122396250Y-66481573D01*
X117633750Y-52194073D02*
G75*
G03*
X118219534Y-53608290I1999950J-27D01*
G01*
X122396250Y-66481573D02*
G75*
G02*
X121810466Y-67895790I-1999950J-27D01*
G01*
%TO.N,COL5*%
X124777500Y-95885000D02*
X120015000Y-95885000D01*
X131335463Y-90953382D02*
X126989631Y-95299214D01*
X141446250Y-57785000D02*
X141446250Y-66481573D01*
X137269537Y-53608287D02*
X141446250Y-57785000D01*
X131921250Y-76835000D02*
X131921250Y-89539168D01*
X125575418Y-95885000D02*
X124777500Y-95885000D01*
X140860463Y-67895787D02*
X131921250Y-76835000D01*
X136683750Y-38735000D02*
X136683750Y-52194073D01*
X126989631Y-95299214D02*
G75*
G02*
X125575418Y-95885013I-1414231J1414214D01*
G01*
X131921250Y-89539168D02*
G75*
G02*
X131335469Y-90953388I-1999950J-32D01*
G01*
X137269537Y-53608287D02*
G75*
G02*
X136683755Y-52194073I1414163J1414187D01*
G01*
X141446250Y-66481573D02*
G75*
G02*
X140860466Y-67895790I-1999950J-27D01*
G01*
%TO.N,COL6*%
X150385463Y-91708287D02*
X146208750Y-95885000D01*
X150971250Y-76835000D02*
X150971250Y-90294073D01*
X159910463Y-67895787D02*
X150971250Y-76835000D01*
X156319537Y-53608287D02*
X160496250Y-57785000D01*
X155733750Y-38735000D02*
X155733750Y-52194073D01*
X160496250Y-57785000D02*
X160496250Y-66481573D01*
X150385463Y-91708287D02*
G75*
G03*
X150971245Y-90294073I-1414163J1414187D01*
G01*
X156319537Y-53608287D02*
G75*
G02*
X155733755Y-52194073I1414163J1414187D01*
G01*
X160496250Y-66481573D02*
G75*
G02*
X159910466Y-67895790I-1999950J-27D01*
G01*
%TO.N,COL7*%
X175369537Y-53608287D02*
X179546250Y-57785000D01*
X178960463Y-67895787D02*
X170021250Y-76835000D01*
X170021250Y-76835000D02*
X170021250Y-92675323D01*
X174783750Y-38735000D02*
X174783750Y-52194073D01*
X179546250Y-57785000D02*
X179546250Y-66481573D01*
X167640000Y-95885000D02*
X172402500Y-95885000D01*
X169435463Y-94089537D02*
X167640000Y-95885000D01*
X170021250Y-92675323D02*
G75*
G02*
X169435441Y-94089515I-1999950J23D01*
G01*
X174783750Y-52194073D02*
G75*
G03*
X175369534Y-53608290I1999950J-27D01*
G01*
X178960463Y-67895787D02*
G75*
G03*
X179546245Y-66481573I-1414163J1414187D01*
G01*
%TO.N,COL8*%
X198596250Y-57785000D02*
X198596250Y-66481573D01*
X203358750Y-95885000D02*
X208121250Y-95885000D01*
X189657037Y-82183287D02*
X203358750Y-95885000D01*
X193833750Y-38735000D02*
X193833750Y-52194073D01*
X194419537Y-53608287D02*
X198596250Y-57785000D01*
X198010463Y-67895787D02*
X189071250Y-76835000D01*
X189071250Y-76835000D02*
X189071250Y-80769073D01*
X189071250Y-80769073D02*
G75*
G03*
X189657034Y-82183290I1999950J-27D01*
G01*
X194419537Y-53608287D02*
G75*
G02*
X193833755Y-52194073I1414163J1414187D01*
G01*
X198010463Y-67895787D02*
G75*
G03*
X198596245Y-66481573I-1414163J1414187D01*
G01*
%TO.N,COL9*%
X208121250Y-76835000D02*
X208121250Y-80769073D01*
X217646250Y-57785000D02*
X217646250Y-66481573D01*
X217060463Y-67895787D02*
X208121250Y-76835000D01*
X212883750Y-38735000D02*
X212883750Y-52194073D01*
X222408750Y-95885000D02*
X227171250Y-95885000D01*
X213469537Y-53608287D02*
X217646250Y-57785000D01*
X208707037Y-82183287D02*
X222408750Y-95885000D01*
X217060463Y-67895787D02*
G75*
G03*
X217646245Y-66481573I-1414163J1414187D01*
G01*
X212883750Y-52194073D02*
G75*
G03*
X213469534Y-53608290I1999950J-27D01*
G01*
X208121250Y-80769073D02*
G75*
G03*
X208707034Y-82183290I1999950J-27D01*
G01*
%TO.N,COL10*%
X227757037Y-90257321D02*
X231347964Y-93848248D01*
X236110463Y-67895787D02*
X227171250Y-76835000D01*
X231933750Y-38735000D02*
X231933750Y-52194073D01*
X231933750Y-95885000D02*
X241458750Y-95885000D01*
D18*
X227171250Y-76835000D02*
X234315000Y-76835000D01*
D17*
X231933750Y-95262461D02*
X231933750Y-95885000D01*
X236696250Y-57785000D02*
X236696250Y-66481573D01*
X227171250Y-76835000D02*
X227171250Y-88843107D01*
X232519537Y-53608287D02*
X236696250Y-57785000D01*
X231933750Y-52194073D02*
G75*
G03*
X232519534Y-53608290I1999950J-27D01*
G01*
X227757037Y-90257321D02*
G75*
G02*
X227171230Y-88843107I1414163J1414221D01*
G01*
X236696250Y-66481573D02*
G75*
G02*
X236110466Y-67895790I-1999950J-27D01*
G01*
X231347964Y-93848248D02*
G75*
G02*
X231933792Y-95262461I-1414164J-1414252D01*
G01*
%TO.N,COL11*%
X248602500Y-57785000D02*
X248602500Y-71244073D01*
X256051400Y-45355473D02*
X256051400Y-39687500D01*
X254806100Y-79104527D02*
X254806100Y-94116423D01*
X243840000Y-76835000D02*
X253365000Y-76835000D01*
X256051400Y-39687500D02*
X256051400Y-38735000D01*
X248016713Y-72658287D02*
X243840000Y-76835000D01*
X255391887Y-95530637D02*
X255746250Y-95885000D01*
X253365000Y-76835000D02*
X254220314Y-77690314D01*
X256637187Y-46769687D02*
X258127500Y-48260000D01*
X255746250Y-95885000D02*
X260508750Y-95885000D01*
X253365000Y-76835000D02*
X260508750Y-76835000D01*
X248602500Y-57785000D02*
X258127500Y-57785000D01*
X258127500Y-48260000D02*
X258127500Y-57785000D01*
X254806100Y-79104527D02*
G75*
G03*
X254220328Y-77690300I-2000000J27D01*
G01*
X254806100Y-94116423D02*
G75*
G03*
X255391898Y-95530626I2000000J23D01*
G01*
X256051400Y-45355473D02*
G75*
G03*
X256637173Y-46769701I2000000J-27D01*
G01*
X248602500Y-71244073D02*
G75*
G02*
X248016727Y-72658301I-2000000J-27D01*
G01*
D16*
%TO.N,GND*%
X69777679Y-78171173D02*
X79670438Y-68278415D01*
D17*
X237519115Y-31549800D02*
X237674115Y-31549800D01*
D16*
X219338980Y-49742270D02*
X219874863Y-49742270D01*
X58737500Y-61238510D02*
X56038819Y-61238510D01*
X229949115Y-32543750D02*
X229949115Y-30667500D01*
X74911011Y-63518989D02*
X79670438Y-68278415D01*
D17*
X231019115Y-31549800D02*
X230864115Y-31549800D01*
D16*
X57173464Y-66651536D02*
X68650255Y-78128327D01*
X246249822Y-33524822D02*
X239525536Y-33524822D01*
X238589115Y-30667500D02*
X238589115Y-32588401D01*
X61475875Y-61238510D02*
X58737500Y-61238510D01*
X61877865Y-61640500D02*
X65247097Y-61640500D01*
D17*
X229949115Y-26487500D02*
X238589115Y-26487500D01*
D16*
X223824285Y-36196960D02*
X223824285Y-36512500D01*
X223824285Y-36512500D02*
X223824285Y-34223934D01*
X61475875Y-61238510D02*
X61475875Y-61263979D01*
X219195668Y-49742270D02*
X219874863Y-49742270D01*
X56445750Y-66353872D02*
X56454840Y-66353872D01*
X61335259Y-55462097D02*
X61291111Y-55417949D01*
X57438838Y-65360784D02*
X61383494Y-65360784D01*
X58737500Y-61238510D02*
X57973740Y-61238510D01*
X67035535Y-62781282D02*
X73130029Y-62781282D01*
X57355316Y-61856934D02*
G75*
G02*
X57973740Y-61238516I618384J34D01*
G01*
X55405316Y-61872013D02*
G75*
G02*
X56038819Y-61238516I633484J13D01*
G01*
X239525536Y-33524822D02*
G75*
G02*
X238589078Y-32588401I-36J936422D01*
G01*
X61475875Y-61238510D02*
G75*
G03*
X61877865Y-61640525I402025J10D01*
G01*
D17*
X237674115Y-31549800D02*
G75*
G03*
X238589100Y-30634800I-15J915000D01*
G01*
X230864115Y-31549800D02*
G75*
G02*
X229949100Y-30634800I-15J915000D01*
G01*
D16*
X218273122Y-48819724D02*
G75*
G03*
X219195668Y-49742278I922578J24D01*
G01*
X228968043Y-33524822D02*
G75*
G03*
X229949022Y-32543750I-43J981022D01*
G01*
X68650255Y-78128327D02*
G75*
G02*
X68830515Y-78563503I-435155J-435173D01*
G01*
X223824285Y-34223934D02*
G75*
G02*
X224523397Y-33524785I699115J34D01*
G01*
X218281250Y-50800000D02*
G75*
G02*
X219338980Y-49742250I1057750J0D01*
G01*
X56445750Y-66353872D02*
G75*
G02*
X57438838Y-65360850I993050J-28D01*
G01*
X73130029Y-62781282D02*
G75*
G02*
X74911003Y-63518997I-29J-2518718D01*
G01*
X56454840Y-66353872D02*
G75*
G02*
X57173452Y-66651548I-40J-1016328D01*
G01*
X69777679Y-78171173D02*
G75*
G02*
X68830511Y-78563509I-947179J947173D01*
G01*
X65247097Y-61640500D02*
G75*
G03*
X65570900Y-61316672I3J323800D01*
G01*
X65570925Y-61316672D02*
G75*
G03*
X67035535Y-62781275I1464575J-28D01*
G01*
%TO.N,+3V3*%
X75828969Y-69056250D02*
X75828969Y-70643750D01*
X70238042Y-75406250D02*
X69850000Y-75406250D01*
X69850000Y-75406250D02*
X63500000Y-69056250D01*
X69850000Y-64293750D02*
X70238042Y-64293750D01*
X75828969Y-70643750D02*
X71652255Y-74820464D01*
X71652256Y-64879537D02*
X75828969Y-69056250D01*
X70238042Y-75406250D02*
G75*
G03*
X71652224Y-74820433I-42J1999950D01*
G01*
X71652256Y-64879537D02*
G75*
G03*
X70238042Y-64293706I-1414256J-1414163D01*
G01*
%TO.N,VBUS*%
X231805189Y-33352069D02*
X231805189Y-31175709D01*
X236719115Y-31581206D02*
X236719115Y-31142087D01*
X233490222Y-29936106D02*
X235048008Y-29936106D01*
X232076009Y-30521892D02*
G75*
G02*
X233490222Y-29936120I1414191J-1414208D01*
G01*
X236719115Y-31142087D02*
G75*
G03*
X236462221Y-30521894I-877115J-13D01*
G01*
X231805189Y-31175709D02*
G75*
G02*
X232076010Y-30521893I924611J9D01*
G01*
X231819115Y-31142088D02*
G75*
G02*
X232076016Y-30521899I877085J-12D01*
G01*
X236462222Y-30521893D02*
G75*
G03*
X235048008Y-29936099I-1414222J-1414207D01*
G01*
D18*
%TO.N,/CC1*%
X235519115Y-34131250D02*
X235519115Y-31582500D01*
%TO.N,D_USB_P*%
X234519115Y-31582500D02*
X234519115Y-30784514D01*
X233720763Y-30557500D02*
X234292101Y-30557500D01*
X233519115Y-31582500D02*
X233519115Y-33648185D01*
X233519115Y-31582500D02*
X233519115Y-30759148D01*
X234519115Y-30784514D02*
G75*
G03*
X234292101Y-30557485I-227015J14D01*
G01*
X233519115Y-30759148D02*
G75*
G02*
X233720763Y-30557415I201685J48D01*
G01*
X233519115Y-33648185D02*
G75*
G02*
X233362500Y-33804815I-156615J-15D01*
G01*
%TO.N,D_USB_N*%
X234220000Y-32607500D02*
X234803206Y-32607500D01*
X235019115Y-31582500D02*
X235019115Y-32391591D01*
X234156250Y-34131250D02*
X234156250Y-32671250D01*
X234019115Y-31582500D02*
X234019115Y-32406615D01*
X233362500Y-34925000D02*
G75*
G03*
X234156300Y-34131250I0J793800D01*
G01*
X234156250Y-32671250D02*
G75*
G02*
X234220000Y-32607550I63750J-50D01*
G01*
X234220000Y-32607500D02*
G75*
G02*
X234019100Y-32406615I0J200900D01*
G01*
X235019115Y-32391591D02*
G75*
G02*
X234803206Y-32607515I-215915J-9D01*
G01*
%TO.N,/CC2*%
X232519115Y-33628093D02*
X232519115Y-31582500D01*
X230981250Y-34131250D02*
X232015958Y-34131250D01*
X232015958Y-34131250D02*
G75*
G03*
X232519150Y-33628093I42J503150D01*
G01*
%TO.N,BOOT0*%
X63500000Y-68356250D02*
X70464525Y-68356250D01*
X61984942Y-68983807D02*
X61912500Y-69056250D01*
X70464525Y-68356250D02*
G75*
G02*
X71850101Y-68930179I-25J-1959550D01*
G01*
X63500000Y-68356250D02*
G75*
G03*
X61984935Y-68983800I0J-2142650D01*
G01*
%TD*%
M02*
