%TF.GenerationSoftware,KiCad,Pcbnew,(7.0.0)*%
%TF.CreationDate,2024-06-01T16:49:59+02:00*%
%TF.ProjectId,forti rev 3,666f7274-6920-4726-9576-20332e6b6963,rev?*%
%TF.SameCoordinates,Original*%
%TF.FileFunction,Soldermask,Bot*%
%TF.FilePolarity,Negative*%
%FSLAX46Y46*%
G04 Gerber Fmt 4.6, Leading zero omitted, Abs format (unit mm)*
G04 Created by KiCad (PCBNEW (7.0.0)) date 2024-06-01 16:49:59*
%MOMM*%
%LPD*%
G01*
G04 APERTURE LIST*
G04 Aperture macros list*
%AMRoundRect*
0 Rectangle with rounded corners*
0 $1 Rounding radius*
0 $2 $3 $4 $5 $6 $7 $8 $9 X,Y pos of 4 corners*
0 Add a 4 corners polygon primitive as box body*
4,1,4,$2,$3,$4,$5,$6,$7,$8,$9,$2,$3,0*
0 Add four circle primitives for the rounded corners*
1,1,$1+$1,$2,$3*
1,1,$1+$1,$4,$5*
1,1,$1+$1,$6,$7*
1,1,$1+$1,$8,$9*
0 Add four rect primitives between the rounded corners*
20,1,$1+$1,$2,$3,$4,$5,0*
20,1,$1+$1,$4,$5,$6,$7,0*
20,1,$1+$1,$6,$7,$8,$9,0*
20,1,$1+$1,$8,$9,$2,$3,0*%
G04 Aperture macros list end*
%ADD10C,0.150000*%
%ADD11C,3.987800*%
%ADD12C,3.048000*%
%ADD13C,0.650000*%
%ADD14O,1.000000X2.100000*%
%ADD15O,1.000000X1.600000*%
%ADD16C,1.750000*%
%ADD17C,2.300000*%
%ADD18C,4.000000*%
%ADD19RoundRect,0.105000X-0.245000X0.245000X-0.245000X-0.245000X0.245000X-0.245000X0.245000X0.245000X0*%
%ADD20RoundRect,0.250000X0.300000X-0.300000X0.300000X0.300000X-0.300000X0.300000X-0.300000X-0.300000X0*%
%ADD21RoundRect,0.105000X0.245000X0.245000X-0.245000X0.245000X-0.245000X-0.245000X0.245000X-0.245000X0*%
%ADD22RoundRect,0.200000X-0.275000X0.200000X-0.275000X-0.200000X0.275000X-0.200000X0.275000X0.200000X0*%
%ADD23RoundRect,0.200000X0.200000X0.275000X-0.200000X0.275000X-0.200000X-0.275000X0.200000X-0.275000X0*%
%ADD24RoundRect,0.105000X0.245000X-0.245000X0.245000X0.245000X-0.245000X0.245000X-0.245000X-0.245000X0*%
%ADD25RoundRect,0.150000X0.150000X-0.512500X0.150000X0.512500X-0.150000X0.512500X-0.150000X-0.512500X0*%
%ADD26R,1.800000X1.100000*%
%ADD27RoundRect,0.225000X-0.250000X0.225000X-0.250000X-0.225000X0.250000X-0.225000X0.250000X0.225000X0*%
%ADD28RoundRect,0.225000X0.335876X0.017678X0.017678X0.335876X-0.335876X-0.017678X-0.017678X-0.335876X0*%
%ADD29RoundRect,0.225000X0.225000X0.375000X-0.225000X0.375000X-0.225000X-0.375000X0.225000X-0.375000X0*%
%ADD30RoundRect,0.225000X-0.225000X-0.250000X0.225000X-0.250000X0.225000X0.250000X-0.225000X0.250000X0*%
%ADD31RoundRect,0.070000X0.521491X-0.422496X-0.422496X0.521491X-0.521491X0.422496X0.422496X-0.521491X0*%
%ADD32RoundRect,0.070000X0.521491X0.422496X0.422496X0.521491X-0.521491X-0.422496X-0.422496X-0.521491X0*%
%ADD33RoundRect,0.150000X0.150000X-0.587500X0.150000X0.587500X-0.150000X0.587500X-0.150000X-0.587500X0*%
%ADD34RoundRect,0.150000X-0.512500X-0.150000X0.512500X-0.150000X0.512500X0.150000X-0.512500X0.150000X0*%
%ADD35RoundRect,0.225000X0.225000X0.250000X-0.225000X0.250000X-0.225000X-0.250000X0.225000X-0.250000X0*%
%ADD36RoundRect,0.200000X0.275000X-0.200000X0.275000X0.200000X-0.275000X0.200000X-0.275000X-0.200000X0*%
%ADD37RoundRect,0.225000X0.017678X-0.335876X0.335876X-0.017678X-0.017678X0.335876X-0.335876X0.017678X0*%
%ADD38RoundRect,0.225000X0.250000X-0.225000X0.250000X0.225000X-0.250000X0.225000X-0.250000X-0.225000X0*%
%ADD39RoundRect,0.250000X-0.375000X-0.625000X0.375000X-0.625000X0.375000X0.625000X-0.375000X0.625000X0*%
G04 APERTURE END LIST*
D10*
X54410000Y-51000000D02*
X54410000Y-47190000D01*
X34090000Y-51000000D02*
G75*
G03*
X35360000Y-52270000I1270000J0D01*
G01*
X53140000Y-45920000D02*
X35360000Y-45920000D01*
X35360000Y-52270000D02*
X53140000Y-52270000D01*
X53139999Y-52269999D02*
G75*
G03*
X54409999Y-50999999I1J1269999D01*
G01*
X35360000Y-45920000D02*
G75*
G03*
X34090000Y-47190000I0J-1270000D01*
G01*
X34090000Y-47190000D02*
X34090000Y-51000000D01*
X54410000Y-47190000D02*
G75*
G03*
X53140000Y-45920000I-1270000J0D01*
G01*
X52680000Y-50060642D02*
X52680000Y-49160642D01*
X52680000Y-50017785D02*
X52765714Y-50060642D01*
X52765714Y-50060642D02*
X52937142Y-50060642D01*
X52937142Y-50060642D02*
X53022857Y-50017785D01*
X53022857Y-50017785D02*
X53065714Y-49974928D01*
X53065714Y-49974928D02*
X53108571Y-49889214D01*
X53108571Y-49889214D02*
X53108571Y-49632071D01*
X53108571Y-49632071D02*
X53065714Y-49546357D01*
X53065714Y-49546357D02*
X53022857Y-49503500D01*
X53022857Y-49503500D02*
X52937142Y-49460642D01*
X52937142Y-49460642D02*
X52765714Y-49460642D01*
X52765714Y-49460642D02*
X52680000Y-49503500D01*
X51908571Y-50017785D02*
X51994285Y-50060642D01*
X51994285Y-50060642D02*
X52165714Y-50060642D01*
X52165714Y-50060642D02*
X52251428Y-50017785D01*
X52251428Y-50017785D02*
X52294285Y-49932071D01*
X52294285Y-49932071D02*
X52294285Y-49589214D01*
X52294285Y-49589214D02*
X52251428Y-49503500D01*
X52251428Y-49503500D02*
X52165714Y-49460642D01*
X52165714Y-49460642D02*
X51994285Y-49460642D01*
X51994285Y-49460642D02*
X51908571Y-49503500D01*
X51908571Y-49503500D02*
X51865714Y-49589214D01*
X51865714Y-49589214D02*
X51865714Y-49674928D01*
X51865714Y-49674928D02*
X52294285Y-49760642D01*
X51522856Y-50017785D02*
X51437142Y-50060642D01*
X51437142Y-50060642D02*
X51265713Y-50060642D01*
X51265713Y-50060642D02*
X51179999Y-50017785D01*
X51179999Y-50017785D02*
X51137142Y-49932071D01*
X51137142Y-49932071D02*
X51137142Y-49889214D01*
X51137142Y-49889214D02*
X51179999Y-49803500D01*
X51179999Y-49803500D02*
X51265713Y-49760642D01*
X51265713Y-49760642D02*
X51394285Y-49760642D01*
X51394285Y-49760642D02*
X51479999Y-49717785D01*
X51479999Y-49717785D02*
X51522856Y-49632071D01*
X51522856Y-49632071D02*
X51522856Y-49589214D01*
X51522856Y-49589214D02*
X51479999Y-49503500D01*
X51479999Y-49503500D02*
X51394285Y-49460642D01*
X51394285Y-49460642D02*
X51265713Y-49460642D01*
X51265713Y-49460642D02*
X51179999Y-49503500D01*
X50751428Y-50060642D02*
X50751428Y-49460642D01*
X50751428Y-49160642D02*
X50794285Y-49203500D01*
X50794285Y-49203500D02*
X50751428Y-49246357D01*
X50751428Y-49246357D02*
X50708571Y-49203500D01*
X50708571Y-49203500D02*
X50751428Y-49160642D01*
X50751428Y-49160642D02*
X50751428Y-49246357D01*
X49937143Y-49460642D02*
X49937143Y-50189214D01*
X49937143Y-50189214D02*
X49980000Y-50274928D01*
X49980000Y-50274928D02*
X50022857Y-50317785D01*
X50022857Y-50317785D02*
X50108571Y-50360642D01*
X50108571Y-50360642D02*
X50237143Y-50360642D01*
X50237143Y-50360642D02*
X50322857Y-50317785D01*
X49937143Y-50017785D02*
X50022857Y-50060642D01*
X50022857Y-50060642D02*
X50194285Y-50060642D01*
X50194285Y-50060642D02*
X50280000Y-50017785D01*
X50280000Y-50017785D02*
X50322857Y-49974928D01*
X50322857Y-49974928D02*
X50365714Y-49889214D01*
X50365714Y-49889214D02*
X50365714Y-49632071D01*
X50365714Y-49632071D02*
X50322857Y-49546357D01*
X50322857Y-49546357D02*
X50280000Y-49503500D01*
X50280000Y-49503500D02*
X50194285Y-49460642D01*
X50194285Y-49460642D02*
X50022857Y-49460642D01*
X50022857Y-49460642D02*
X49937143Y-49503500D01*
X49508571Y-49460642D02*
X49508571Y-50060642D01*
X49508571Y-49546357D02*
X49465714Y-49503500D01*
X49465714Y-49503500D02*
X49379999Y-49460642D01*
X49379999Y-49460642D02*
X49251428Y-49460642D01*
X49251428Y-49460642D02*
X49165714Y-49503500D01*
X49165714Y-49503500D02*
X49122857Y-49589214D01*
X49122857Y-49589214D02*
X49122857Y-50060642D01*
X48154285Y-50060642D02*
X48154285Y-49160642D01*
X48154285Y-49503500D02*
X48068571Y-49460642D01*
X48068571Y-49460642D02*
X47897142Y-49460642D01*
X47897142Y-49460642D02*
X47811428Y-49503500D01*
X47811428Y-49503500D02*
X47768571Y-49546357D01*
X47768571Y-49546357D02*
X47725713Y-49632071D01*
X47725713Y-49632071D02*
X47725713Y-49889214D01*
X47725713Y-49889214D02*
X47768571Y-49974928D01*
X47768571Y-49974928D02*
X47811428Y-50017785D01*
X47811428Y-50017785D02*
X47897142Y-50060642D01*
X47897142Y-50060642D02*
X48068571Y-50060642D01*
X48068571Y-50060642D02*
X48154285Y-50017785D01*
X47425713Y-49460642D02*
X47211427Y-50060642D01*
X46997142Y-49460642D02*
X47211427Y-50060642D01*
X47211427Y-50060642D02*
X47297142Y-50274928D01*
X47297142Y-50274928D02*
X47339999Y-50317785D01*
X47339999Y-50317785D02*
X47425713Y-50360642D01*
X46199999Y-50060642D02*
X45728571Y-49460642D01*
X46199999Y-49460642D02*
X45728571Y-50060642D01*
X45257142Y-50060642D02*
X45342857Y-50017785D01*
X45342857Y-50017785D02*
X45385714Y-49974928D01*
X45385714Y-49974928D02*
X45428571Y-49889214D01*
X45428571Y-49889214D02*
X45428571Y-49632071D01*
X45428571Y-49632071D02*
X45385714Y-49546357D01*
X45385714Y-49546357D02*
X45342857Y-49503500D01*
X45342857Y-49503500D02*
X45257142Y-49460642D01*
X45257142Y-49460642D02*
X45128571Y-49460642D01*
X45128571Y-49460642D02*
X45042857Y-49503500D01*
X45042857Y-49503500D02*
X45000000Y-49546357D01*
X45000000Y-49546357D02*
X44957142Y-49632071D01*
X44957142Y-49632071D02*
X44957142Y-49889214D01*
X44957142Y-49889214D02*
X45000000Y-49974928D01*
X45000000Y-49974928D02*
X45042857Y-50017785D01*
X45042857Y-50017785D02*
X45128571Y-50060642D01*
X45128571Y-50060642D02*
X45257142Y-50060642D01*
X44571428Y-49460642D02*
X44571428Y-50060642D01*
X44571428Y-49546357D02*
X44528571Y-49503500D01*
X44528571Y-49503500D02*
X44442856Y-49460642D01*
X44442856Y-49460642D02*
X44314285Y-49460642D01*
X44314285Y-49460642D02*
X44228571Y-49503500D01*
X44228571Y-49503500D02*
X44185714Y-49589214D01*
X44185714Y-49589214D02*
X44185714Y-50060642D01*
X43371428Y-49460642D02*
X43371428Y-50060642D01*
X43757142Y-49460642D02*
X43757142Y-49932071D01*
X43757142Y-49932071D02*
X43714285Y-50017785D01*
X43714285Y-50017785D02*
X43628570Y-50060642D01*
X43628570Y-50060642D02*
X43499999Y-50060642D01*
X43499999Y-50060642D02*
X43414285Y-50017785D01*
X43414285Y-50017785D02*
X43371428Y-49974928D01*
X42985713Y-50017785D02*
X42899999Y-50060642D01*
X42899999Y-50060642D02*
X42728570Y-50060642D01*
X42728570Y-50060642D02*
X42642856Y-50017785D01*
X42642856Y-50017785D02*
X42599999Y-49932071D01*
X42599999Y-49932071D02*
X42599999Y-49889214D01*
X42599999Y-49889214D02*
X42642856Y-49803500D01*
X42642856Y-49803500D02*
X42728570Y-49760642D01*
X42728570Y-49760642D02*
X42857142Y-49760642D01*
X42857142Y-49760642D02*
X42942856Y-49717785D01*
X42942856Y-49717785D02*
X42985713Y-49632071D01*
X42985713Y-49632071D02*
X42985713Y-49589214D01*
X42985713Y-49589214D02*
X42942856Y-49503500D01*
X42942856Y-49503500D02*
X42857142Y-49460642D01*
X42857142Y-49460642D02*
X42728570Y-49460642D01*
X42728570Y-49460642D02*
X42642856Y-49503500D01*
X42257142Y-50017785D02*
X42171428Y-50060642D01*
X42171428Y-50060642D02*
X41999999Y-50060642D01*
X41999999Y-50060642D02*
X41914285Y-50017785D01*
X41914285Y-50017785D02*
X41871428Y-49932071D01*
X41871428Y-49932071D02*
X41871428Y-49889214D01*
X41871428Y-49889214D02*
X41914285Y-49803500D01*
X41914285Y-49803500D02*
X41999999Y-49760642D01*
X41999999Y-49760642D02*
X42128571Y-49760642D01*
X42128571Y-49760642D02*
X42214285Y-49717785D01*
X42214285Y-49717785D02*
X42257142Y-49632071D01*
X42257142Y-49632071D02*
X42257142Y-49589214D01*
X42257142Y-49589214D02*
X42214285Y-49503500D01*
X42214285Y-49503500D02*
X42128571Y-49460642D01*
X42128571Y-49460642D02*
X41999999Y-49460642D01*
X41999999Y-49460642D02*
X41914285Y-49503500D01*
X40217142Y-50060642D02*
X40260000Y-50060642D01*
X40260000Y-50060642D02*
X40345714Y-50017785D01*
X40345714Y-50017785D02*
X40474285Y-49889214D01*
X40474285Y-49889214D02*
X40688571Y-49632071D01*
X40688571Y-49632071D02*
X40774285Y-49503500D01*
X40774285Y-49503500D02*
X40817142Y-49374928D01*
X40817142Y-49374928D02*
X40817142Y-49289214D01*
X40817142Y-49289214D02*
X40774285Y-49203500D01*
X40774285Y-49203500D02*
X40688571Y-49160642D01*
X40688571Y-49160642D02*
X40645714Y-49160642D01*
X40645714Y-49160642D02*
X40560000Y-49203500D01*
X40560000Y-49203500D02*
X40517142Y-49289214D01*
X40517142Y-49289214D02*
X40517142Y-49332071D01*
X40517142Y-49332071D02*
X40560000Y-49417785D01*
X40560000Y-49417785D02*
X40602857Y-49460642D01*
X40602857Y-49460642D02*
X40860000Y-49632071D01*
X40860000Y-49632071D02*
X40902857Y-49674928D01*
X40902857Y-49674928D02*
X40945714Y-49760642D01*
X40945714Y-49760642D02*
X40945714Y-49889214D01*
X40945714Y-49889214D02*
X40902857Y-49974928D01*
X40902857Y-49974928D02*
X40860000Y-50017785D01*
X40860000Y-50017785D02*
X40774285Y-50060642D01*
X40774285Y-50060642D02*
X40645714Y-50060642D01*
X40645714Y-50060642D02*
X40560000Y-50017785D01*
X40560000Y-50017785D02*
X40517142Y-49974928D01*
X40517142Y-49974928D02*
X40388571Y-49803500D01*
X40388571Y-49803500D02*
X40345714Y-49674928D01*
X40345714Y-49674928D02*
X40345714Y-49589214D01*
X39377142Y-50060642D02*
X38905714Y-49460642D01*
X39377142Y-49460642D02*
X38905714Y-50060642D01*
X38220000Y-50017785D02*
X38305714Y-50060642D01*
X38305714Y-50060642D02*
X38477143Y-50060642D01*
X38477143Y-50060642D02*
X38562857Y-50017785D01*
X38562857Y-50017785D02*
X38605714Y-49932071D01*
X38605714Y-49932071D02*
X38605714Y-49589214D01*
X38605714Y-49589214D02*
X38562857Y-49503500D01*
X38562857Y-49503500D02*
X38477143Y-49460642D01*
X38477143Y-49460642D02*
X38305714Y-49460642D01*
X38305714Y-49460642D02*
X38220000Y-49503500D01*
X38220000Y-49503500D02*
X38177143Y-49589214D01*
X38177143Y-49589214D02*
X38177143Y-49674928D01*
X38177143Y-49674928D02*
X38605714Y-49760642D01*
X37877142Y-49460642D02*
X37405714Y-49460642D01*
X37405714Y-49460642D02*
X37877142Y-50060642D01*
X37877142Y-50060642D02*
X37405714Y-50060642D01*
X37062857Y-50060642D02*
X37062857Y-49460642D01*
X37062857Y-49160642D02*
X37105714Y-49203500D01*
X37105714Y-49203500D02*
X37062857Y-49246357D01*
X37062857Y-49246357D02*
X37020000Y-49203500D01*
X37020000Y-49203500D02*
X37062857Y-49160642D01*
X37062857Y-49160642D02*
X37062857Y-49246357D01*
X36505714Y-50060642D02*
X36591429Y-50017785D01*
X36591429Y-50017785D02*
X36634286Y-49974928D01*
X36634286Y-49974928D02*
X36677143Y-49889214D01*
X36677143Y-49889214D02*
X36677143Y-49632071D01*
X36677143Y-49632071D02*
X36634286Y-49546357D01*
X36634286Y-49546357D02*
X36591429Y-49503500D01*
X36591429Y-49503500D02*
X36505714Y-49460642D01*
X36505714Y-49460642D02*
X36377143Y-49460642D01*
X36377143Y-49460642D02*
X36291429Y-49503500D01*
X36291429Y-49503500D02*
X36248572Y-49546357D01*
X36248572Y-49546357D02*
X36205714Y-49632071D01*
X36205714Y-49632071D02*
X36205714Y-49889214D01*
X36205714Y-49889214D02*
X36248572Y-49974928D01*
X36248572Y-49974928D02*
X36291429Y-50017785D01*
X36291429Y-50017785D02*
X36377143Y-50060642D01*
X36377143Y-50060642D02*
X36505714Y-50060642D01*
X35820000Y-50060642D02*
X35820000Y-49160642D01*
X35434286Y-50060642D02*
X35434286Y-49589214D01*
X35434286Y-49589214D02*
X35477143Y-49503500D01*
X35477143Y-49503500D02*
X35562857Y-49460642D01*
X35562857Y-49460642D02*
X35691428Y-49460642D01*
X35691428Y-49460642D02*
X35777143Y-49503500D01*
X35777143Y-49503500D02*
X35820000Y-49546357D01*
X50232858Y-51048142D02*
X50232858Y-51948142D01*
X50232858Y-51091000D02*
X50147144Y-51048142D01*
X50147144Y-51048142D02*
X49975715Y-51048142D01*
X49975715Y-51048142D02*
X49890001Y-51091000D01*
X49890001Y-51091000D02*
X49847144Y-51133857D01*
X49847144Y-51133857D02*
X49804286Y-51219571D01*
X49804286Y-51219571D02*
X49804286Y-51476714D01*
X49804286Y-51476714D02*
X49847144Y-51562428D01*
X49847144Y-51562428D02*
X49890001Y-51605285D01*
X49890001Y-51605285D02*
X49975715Y-51648142D01*
X49975715Y-51648142D02*
X50147144Y-51648142D01*
X50147144Y-51648142D02*
X50232858Y-51605285D01*
X49032858Y-51605285D02*
X49118572Y-51648142D01*
X49118572Y-51648142D02*
X49290000Y-51648142D01*
X49290000Y-51648142D02*
X49375715Y-51605285D01*
X49375715Y-51605285D02*
X49418572Y-51562428D01*
X49418572Y-51562428D02*
X49461429Y-51476714D01*
X49461429Y-51476714D02*
X49461429Y-51219571D01*
X49461429Y-51219571D02*
X49418572Y-51133857D01*
X49418572Y-51133857D02*
X49375715Y-51091000D01*
X49375715Y-51091000D02*
X49290000Y-51048142D01*
X49290000Y-51048142D02*
X49118572Y-51048142D01*
X49118572Y-51048142D02*
X49032858Y-51091000D01*
X48647143Y-51648142D02*
X48647143Y-50748142D01*
X48647143Y-51091000D02*
X48561429Y-51048142D01*
X48561429Y-51048142D02*
X48390000Y-51048142D01*
X48390000Y-51048142D02*
X48304286Y-51091000D01*
X48304286Y-51091000D02*
X48261429Y-51133857D01*
X48261429Y-51133857D02*
X48218571Y-51219571D01*
X48218571Y-51219571D02*
X48218571Y-51476714D01*
X48218571Y-51476714D02*
X48261429Y-51562428D01*
X48261429Y-51562428D02*
X48304286Y-51605285D01*
X48304286Y-51605285D02*
X48390000Y-51648142D01*
X48390000Y-51648142D02*
X48561429Y-51648142D01*
X48561429Y-51648142D02*
X48647143Y-51605285D01*
X47292857Y-51648142D02*
X47292857Y-50748142D01*
X47292857Y-51091000D02*
X47207143Y-51048142D01*
X47207143Y-51048142D02*
X47035714Y-51048142D01*
X47035714Y-51048142D02*
X46950000Y-51091000D01*
X46950000Y-51091000D02*
X46907143Y-51133857D01*
X46907143Y-51133857D02*
X46864285Y-51219571D01*
X46864285Y-51219571D02*
X46864285Y-51476714D01*
X46864285Y-51476714D02*
X46907143Y-51562428D01*
X46907143Y-51562428D02*
X46950000Y-51605285D01*
X46950000Y-51605285D02*
X47035714Y-51648142D01*
X47035714Y-51648142D02*
X47207143Y-51648142D01*
X47207143Y-51648142D02*
X47292857Y-51605285D01*
X46564285Y-51048142D02*
X46349999Y-51648142D01*
X46135714Y-51048142D02*
X46349999Y-51648142D01*
X46349999Y-51648142D02*
X46435714Y-51862428D01*
X46435714Y-51862428D02*
X46478571Y-51905285D01*
X46478571Y-51905285D02*
X46564285Y-51948142D01*
X44867143Y-51605285D02*
X44952857Y-51648142D01*
X44952857Y-51648142D02*
X45124285Y-51648142D01*
X45124285Y-51648142D02*
X45210000Y-51605285D01*
X45210000Y-51605285D02*
X45252857Y-51562428D01*
X45252857Y-51562428D02*
X45295714Y-51476714D01*
X45295714Y-51476714D02*
X45295714Y-51219571D01*
X45295714Y-51219571D02*
X45252857Y-51133857D01*
X45252857Y-51133857D02*
X45210000Y-51091000D01*
X45210000Y-51091000D02*
X45124285Y-51048142D01*
X45124285Y-51048142D02*
X44952857Y-51048142D01*
X44952857Y-51048142D02*
X44867143Y-51091000D01*
X44095714Y-51648142D02*
X44095714Y-51176714D01*
X44095714Y-51176714D02*
X44138571Y-51091000D01*
X44138571Y-51091000D02*
X44224285Y-51048142D01*
X44224285Y-51048142D02*
X44395714Y-51048142D01*
X44395714Y-51048142D02*
X44481428Y-51091000D01*
X44095714Y-51605285D02*
X44181428Y-51648142D01*
X44181428Y-51648142D02*
X44395714Y-51648142D01*
X44395714Y-51648142D02*
X44481428Y-51605285D01*
X44481428Y-51605285D02*
X44524285Y-51519571D01*
X44524285Y-51519571D02*
X44524285Y-51433857D01*
X44524285Y-51433857D02*
X44481428Y-51348142D01*
X44481428Y-51348142D02*
X44395714Y-51305285D01*
X44395714Y-51305285D02*
X44181428Y-51305285D01*
X44181428Y-51305285D02*
X44095714Y-51262428D01*
X43538570Y-51648142D02*
X43624285Y-51605285D01*
X43624285Y-51605285D02*
X43667142Y-51519571D01*
X43667142Y-51519571D02*
X43667142Y-50748142D01*
X43281427Y-51048142D02*
X43067141Y-51648142D01*
X43067141Y-51648142D02*
X42852856Y-51048142D01*
X42509999Y-51648142D02*
X42509999Y-51048142D01*
X42509999Y-50748142D02*
X42552856Y-50791000D01*
X42552856Y-50791000D02*
X42509999Y-50833857D01*
X42509999Y-50833857D02*
X42467142Y-50791000D01*
X42467142Y-50791000D02*
X42509999Y-50748142D01*
X42509999Y-50748142D02*
X42509999Y-50833857D01*
X42081428Y-51048142D02*
X42081428Y-51648142D01*
X42081428Y-51133857D02*
X42038571Y-51091000D01*
X42038571Y-51091000D02*
X41952856Y-51048142D01*
X41952856Y-51048142D02*
X41824285Y-51048142D01*
X41824285Y-51048142D02*
X41738571Y-51091000D01*
X41738571Y-51091000D02*
X41695714Y-51176714D01*
X41695714Y-51176714D02*
X41695714Y-51648142D01*
X41095713Y-50748142D02*
X41009999Y-50748142D01*
X41009999Y-50748142D02*
X40924285Y-50791000D01*
X40924285Y-50791000D02*
X40881428Y-50833857D01*
X40881428Y-50833857D02*
X40838570Y-50919571D01*
X40838570Y-50919571D02*
X40795713Y-51091000D01*
X40795713Y-51091000D02*
X40795713Y-51305285D01*
X40795713Y-51305285D02*
X40838570Y-51476714D01*
X40838570Y-51476714D02*
X40881428Y-51562428D01*
X40881428Y-51562428D02*
X40924285Y-51605285D01*
X40924285Y-51605285D02*
X41009999Y-51648142D01*
X41009999Y-51648142D02*
X41095713Y-51648142D01*
X41095713Y-51648142D02*
X41181428Y-51605285D01*
X41181428Y-51605285D02*
X41224285Y-51562428D01*
X41224285Y-51562428D02*
X41267142Y-51476714D01*
X41267142Y-51476714D02*
X41309999Y-51305285D01*
X41309999Y-51305285D02*
X41309999Y-51091000D01*
X41309999Y-51091000D02*
X41267142Y-50919571D01*
X41267142Y-50919571D02*
X41224285Y-50833857D01*
X41224285Y-50833857D02*
X41181428Y-50791000D01*
X41181428Y-50791000D02*
X41095713Y-50748142D01*
X39981427Y-50748142D02*
X40409999Y-50748142D01*
X40409999Y-50748142D02*
X40452856Y-51176714D01*
X40452856Y-51176714D02*
X40409999Y-51133857D01*
X40409999Y-51133857D02*
X40324285Y-51091000D01*
X40324285Y-51091000D02*
X40109999Y-51091000D01*
X40109999Y-51091000D02*
X40024285Y-51133857D01*
X40024285Y-51133857D02*
X39981427Y-51176714D01*
X39981427Y-51176714D02*
X39938570Y-51262428D01*
X39938570Y-51262428D02*
X39938570Y-51476714D01*
X39938570Y-51476714D02*
X39981427Y-51562428D01*
X39981427Y-51562428D02*
X40024285Y-51605285D01*
X40024285Y-51605285D02*
X40109999Y-51648142D01*
X40109999Y-51648142D02*
X40324285Y-51648142D01*
X40324285Y-51648142D02*
X40409999Y-51605285D01*
X40409999Y-51605285D02*
X40452856Y-51562428D01*
X39167142Y-50748142D02*
X39338570Y-50748142D01*
X39338570Y-50748142D02*
X39424284Y-50791000D01*
X39424284Y-50791000D02*
X39467142Y-50833857D01*
X39467142Y-50833857D02*
X39552856Y-50962428D01*
X39552856Y-50962428D02*
X39595713Y-51133857D01*
X39595713Y-51133857D02*
X39595713Y-51476714D01*
X39595713Y-51476714D02*
X39552856Y-51562428D01*
X39552856Y-51562428D02*
X39509999Y-51605285D01*
X39509999Y-51605285D02*
X39424284Y-51648142D01*
X39424284Y-51648142D02*
X39252856Y-51648142D01*
X39252856Y-51648142D02*
X39167142Y-51605285D01*
X39167142Y-51605285D02*
X39124284Y-51562428D01*
X39124284Y-51562428D02*
X39081427Y-51476714D01*
X39081427Y-51476714D02*
X39081427Y-51262428D01*
X39081427Y-51262428D02*
X39124284Y-51176714D01*
X39124284Y-51176714D02*
X39167142Y-51133857D01*
X39167142Y-51133857D02*
X39252856Y-51091000D01*
X39252856Y-51091000D02*
X39424284Y-51091000D01*
X39424284Y-51091000D02*
X39509999Y-51133857D01*
X39509999Y-51133857D02*
X39552856Y-51176714D01*
X39552856Y-51176714D02*
X39595713Y-51262428D01*
X38781427Y-50748142D02*
X38224284Y-50748142D01*
X38224284Y-50748142D02*
X38524284Y-51091000D01*
X38524284Y-51091000D02*
X38395713Y-51091000D01*
X38395713Y-51091000D02*
X38309999Y-51133857D01*
X38309999Y-51133857D02*
X38267141Y-51176714D01*
X38267141Y-51176714D02*
X38224284Y-51262428D01*
X38224284Y-51262428D02*
X38224284Y-51476714D01*
X38224284Y-51476714D02*
X38267141Y-51562428D01*
X38267141Y-51562428D02*
X38309999Y-51605285D01*
X38309999Y-51605285D02*
X38395713Y-51648142D01*
X38395713Y-51648142D02*
X38652856Y-51648142D01*
X38652856Y-51648142D02*
X38738570Y-51605285D01*
X38738570Y-51605285D02*
X38781427Y-51562428D01*
%TO.C,G\u002A\u002A\u002A*%
G36*
X193727006Y-92580284D02*
G01*
X193762942Y-92602014D01*
X193813128Y-92639706D01*
X193872870Y-92689341D01*
X193937475Y-92746897D01*
X194002251Y-92808354D01*
X194062504Y-92869691D01*
X194105480Y-92917353D01*
X194146770Y-92963229D01*
X194180842Y-92996837D01*
X194201064Y-93011702D01*
X194202330Y-93011920D01*
X194218076Y-93001391D01*
X194212814Y-92975252D01*
X194189398Y-92941673D01*
X194171884Y-92924740D01*
X194126590Y-92880972D01*
X194087486Y-92834415D01*
X194059455Y-92792133D01*
X194047383Y-92761189D01*
X194051070Y-92750041D01*
X194074060Y-92753949D01*
X194111475Y-92778983D01*
X194156803Y-92819878D01*
X194203533Y-92871368D01*
X194208253Y-92877172D01*
X194234628Y-92907619D01*
X194277347Y-92954445D01*
X194329268Y-93009879D01*
X194358204Y-93040229D01*
X194406229Y-93092784D01*
X194442441Y-93137294D01*
X194462280Y-93167855D01*
X194464213Y-93177475D01*
X194468364Y-93198671D01*
X194490848Y-93232250D01*
X194502270Y-93245296D01*
X194538040Y-93284712D01*
X194585227Y-93338171D01*
X194632743Y-93393086D01*
X194685449Y-93453389D01*
X194748913Y-93524108D01*
X194810612Y-93591313D01*
X194818857Y-93600139D01*
X194875695Y-93661910D01*
X194932771Y-93725731D01*
X194979482Y-93779712D01*
X194987292Y-93789058D01*
X195019744Y-93827691D01*
X195069178Y-93885821D01*
X195130504Y-93957494D01*
X195198632Y-94036759D01*
X195254079Y-94101020D01*
X195334221Y-94194470D01*
X195421139Y-94297048D01*
X195506568Y-94398927D01*
X195582246Y-94490278D01*
X195614236Y-94529413D01*
X195772272Y-94723976D01*
X195895402Y-94604002D01*
X195952180Y-94550779D01*
X196004763Y-94505193D01*
X196045689Y-94473538D01*
X196061603Y-94463823D01*
X196110473Y-94440976D01*
X196144636Y-94425077D01*
X196178037Y-94398828D01*
X196212247Y-94356154D01*
X196220785Y-94342149D01*
X196259753Y-94292360D01*
X196321391Y-94236776D01*
X196370313Y-94200811D01*
X196448552Y-94147530D01*
X196503249Y-94109707D01*
X196538838Y-94084036D01*
X196559754Y-94067208D01*
X196570430Y-94055918D01*
X196574699Y-94048366D01*
X196592655Y-94024906D01*
X196630662Y-93986078D01*
X196682425Y-93937505D01*
X196741652Y-93884814D01*
X196802047Y-93833631D01*
X196857317Y-93789579D01*
X196894002Y-93762991D01*
X196947539Y-93723883D01*
X196993711Y-93684808D01*
X197017340Y-93660260D01*
X197046390Y-93630803D01*
X197070403Y-93618289D01*
X197070681Y-93618286D01*
X197095340Y-93605887D01*
X197115285Y-93584599D01*
X197139586Y-93558672D01*
X197155018Y-93550912D01*
X197174996Y-93540577D01*
X197211288Y-93513725D01*
X197248150Y-93482948D01*
X197306563Y-93432214D01*
X197372257Y-93375692D01*
X197409405Y-93343989D01*
X197466512Y-93294301D01*
X197524561Y-93241960D01*
X197556712Y-93211886D01*
X197608066Y-93165088D01*
X197661951Y-93119564D01*
X197679961Y-93105382D01*
X197724257Y-93069662D01*
X197761236Y-93036643D01*
X197768463Y-93029385D01*
X197822060Y-92979998D01*
X197890698Y-92927055D01*
X197967331Y-92874879D01*
X198044916Y-92827796D01*
X198116407Y-92790130D01*
X198174759Y-92766205D01*
X198207520Y-92759867D01*
X198258778Y-92765356D01*
X198326001Y-92778565D01*
X198395437Y-92796165D01*
X198453335Y-92814826D01*
X198476548Y-92825003D01*
X198504999Y-92851388D01*
X198513296Y-92874918D01*
X198528219Y-92906880D01*
X198565331Y-92931307D01*
X198613149Y-92941641D01*
X198628817Y-92940902D01*
X198670579Y-92950400D01*
X198687770Y-92969617D01*
X198712598Y-93009041D01*
X198736472Y-93043474D01*
X198762969Y-93103768D01*
X198756213Y-93164184D01*
X198721652Y-93216325D01*
X198689496Y-93259817D01*
X198687922Y-93289622D01*
X198716133Y-93304138D01*
X198764861Y-93303006D01*
X198809888Y-93300666D01*
X198832214Y-93307469D01*
X198833323Y-93310667D01*
X198848186Y-93323490D01*
X198885046Y-93334189D01*
X198896486Y-93336006D01*
X198985664Y-93357811D01*
X199055865Y-93394856D01*
X199101209Y-93443612D01*
X199110754Y-93464639D01*
X199137791Y-93516730D01*
X199175294Y-93560750D01*
X199204144Y-93587965D01*
X199211663Y-93610107D01*
X199200619Y-93642270D01*
X199193148Y-93658124D01*
X199178407Y-93702385D01*
X199176210Y-93739940D01*
X199185604Y-93762142D01*
X199204498Y-93761073D01*
X199230627Y-93761398D01*
X199257348Y-93781570D01*
X199271111Y-93810861D01*
X199271254Y-93813933D01*
X199257975Y-93832295D01*
X199222114Y-93863660D01*
X199169635Y-93903142D01*
X199124707Y-93933986D01*
X199056267Y-93982461D01*
X198999259Y-94028878D01*
X198960762Y-94067240D01*
X198950768Y-94081341D01*
X198917368Y-94122594D01*
X198870404Y-94159275D01*
X198861506Y-94164312D01*
X198822960Y-94188169D01*
X198801333Y-94208461D01*
X198799636Y-94213127D01*
X198785221Y-94238979D01*
X198750738Y-94262147D01*
X198709323Y-94274284D01*
X198702785Y-94274646D01*
X198674004Y-94282906D01*
X198665009Y-94312590D01*
X198664888Y-94319278D01*
X198650968Y-94366305D01*
X198609957Y-94430008D01*
X198542975Y-94508655D01*
X198540797Y-94510991D01*
X198509111Y-94542806D01*
X198462037Y-94587535D01*
X198405139Y-94640175D01*
X198343977Y-94695725D01*
X198284114Y-94749182D01*
X198231113Y-94795545D01*
X198190535Y-94829811D01*
X198167944Y-94846978D01*
X198166172Y-94847883D01*
X198145046Y-94866097D01*
X198115115Y-94903605D01*
X198095448Y-94932680D01*
X198062882Y-94975423D01*
X198012213Y-95032014D01*
X197950940Y-95094408D01*
X197899210Y-95143201D01*
X197829858Y-95207231D01*
X197759619Y-95273901D01*
X197698112Y-95333993D01*
X197664938Y-95367696D01*
X197603338Y-95427852D01*
X197531876Y-95491620D01*
X197478949Y-95534968D01*
X197414428Y-95587728D01*
X197346882Y-95647748D01*
X197282562Y-95708941D01*
X197227716Y-95765220D01*
X197188594Y-95810498D01*
X197174238Y-95831752D01*
X197149302Y-95860078D01*
X197107626Y-95891308D01*
X197093167Y-95899935D01*
X197046392Y-95931248D01*
X196990057Y-95976207D01*
X196945808Y-96016180D01*
X196905610Y-96056101D01*
X196882647Y-96086839D01*
X196877480Y-96115933D01*
X196890675Y-96150920D01*
X196922794Y-96199339D01*
X196963603Y-96254294D01*
X196988620Y-96288016D01*
X197020140Y-96331124D01*
X197060145Y-96386376D01*
X197110618Y-96456530D01*
X197173539Y-96544344D01*
X197250891Y-96652576D01*
X197344654Y-96783984D01*
X197404772Y-96868307D01*
X197472182Y-96962071D01*
X197539093Y-97053686D01*
X197601736Y-97138117D01*
X197656340Y-97210329D01*
X197699135Y-97265287D01*
X197726351Y-97297955D01*
X197726936Y-97298591D01*
X197752129Y-97329851D01*
X197786890Y-97378118D01*
X197826534Y-97436217D01*
X197866375Y-97496976D01*
X197901728Y-97553221D01*
X197927908Y-97597779D01*
X197940228Y-97623477D01*
X197940617Y-97625734D01*
X197949108Y-97656933D01*
X197972203Y-97710143D01*
X198006332Y-97779009D01*
X198047927Y-97857178D01*
X198093419Y-97938295D01*
X198139239Y-98016006D01*
X198181819Y-98083956D01*
X198217590Y-98135790D01*
X198242983Y-98165155D01*
X198244058Y-98166031D01*
X198263144Y-98188396D01*
X198293900Y-98231966D01*
X198331211Y-98288741D01*
X198369963Y-98350718D01*
X198405040Y-98409894D01*
X198431328Y-98458269D01*
X198432985Y-98461609D01*
X198484986Y-98562397D01*
X198537148Y-98654429D01*
X198579980Y-98721867D01*
X198628412Y-98802086D01*
X198651102Y-98864596D01*
X198647557Y-98908028D01*
X198647069Y-98908967D01*
X198627587Y-98934663D01*
X198604952Y-98935943D01*
X198572721Y-98911502D01*
X198551328Y-98889587D01*
X198503435Y-98838342D01*
X198504155Y-98884913D01*
X198497104Y-98925148D01*
X198475602Y-98936446D01*
X198441666Y-98919258D01*
X198397311Y-98874036D01*
X198384673Y-98858198D01*
X198349024Y-98814276D01*
X198320673Y-98783499D01*
X198306963Y-98773114D01*
X198294536Y-98783275D01*
X198303865Y-98813578D01*
X198333544Y-98859708D01*
X198336439Y-98863539D01*
X198363015Y-98901691D01*
X198377840Y-98929383D01*
X198378923Y-98934000D01*
X198388707Y-98956874D01*
X198411766Y-98990762D01*
X198412235Y-98991363D01*
X198433747Y-99031541D01*
X198444463Y-99076795D01*
X198443730Y-99116569D01*
X198430890Y-99140306D01*
X198421651Y-99142954D01*
X198392848Y-99152847D01*
X198389279Y-99183327D01*
X198405589Y-99225671D01*
X198422947Y-99281210D01*
X198422231Y-99349580D01*
X198420767Y-99361117D01*
X198405980Y-99421483D01*
X198382789Y-99466215D01*
X198355581Y-99489783D01*
X198328742Y-99486657D01*
X198324251Y-99482795D01*
X198286003Y-99464039D01*
X198245183Y-99477591D01*
X198233597Y-99487621D01*
X198208217Y-99503154D01*
X198175356Y-99496735D01*
X198165581Y-99492499D01*
X198130497Y-99481394D01*
X198108730Y-99491204D01*
X198102996Y-99498019D01*
X198078174Y-99523314D01*
X198038339Y-99557180D01*
X198020755Y-99570837D01*
X197974166Y-99601004D01*
X197935204Y-99610943D01*
X197899953Y-99607533D01*
X197856410Y-99604569D01*
X197831982Y-99613288D01*
X197831454Y-99614055D01*
X197804089Y-99629348D01*
X197758687Y-99618410D01*
X197696953Y-99582304D01*
X197620593Y-99522093D01*
X197531315Y-99438840D01*
X197501010Y-99408239D01*
X197442299Y-99352443D01*
X197397794Y-99321253D01*
X197362802Y-99311391D01*
X197362290Y-99311389D01*
X197327869Y-99302989D01*
X197295461Y-99273513D01*
X197271484Y-99239804D01*
X197243048Y-99197068D01*
X197221843Y-99167249D01*
X197215614Y-99159798D01*
X197200599Y-99142294D01*
X197173459Y-99107652D01*
X197158661Y-99088141D01*
X197121177Y-99047946D01*
X197065823Y-98999914D01*
X197003635Y-98953507D01*
X196994388Y-98947264D01*
X196930328Y-98906919D01*
X196884818Y-98884664D01*
X196850257Y-98877355D01*
X196829777Y-98879187D01*
X196794587Y-98879954D01*
X196756136Y-98864875D01*
X196704624Y-98829976D01*
X196700178Y-98826614D01*
X196582402Y-98724658D01*
X196457778Y-98593063D01*
X196342552Y-98452370D01*
X196298017Y-98397270D01*
X196244617Y-98335219D01*
X196187187Y-98271349D01*
X196130561Y-98210795D01*
X196079575Y-98158688D01*
X196039062Y-98120163D01*
X196013858Y-98100352D01*
X196009540Y-98098790D01*
X195989881Y-98086736D01*
X195955846Y-98055044D01*
X195914317Y-98010206D01*
X195908479Y-98003462D01*
X195866273Y-97954494D01*
X195831315Y-97914291D01*
X195810583Y-97890873D01*
X195809566Y-97889769D01*
X195790376Y-97867434D01*
X195757812Y-97828011D01*
X195725349Y-97787995D01*
X195680963Y-97735375D01*
X195623762Y-97671000D01*
X195564627Y-97607060D01*
X195552470Y-97594295D01*
X195499723Y-97537509D01*
X195451751Y-97482776D01*
X195416684Y-97439472D01*
X195409300Y-97429243D01*
X195383656Y-97394523D01*
X195366002Y-97375693D01*
X195363561Y-97374579D01*
X195347128Y-97384967D01*
X195316281Y-97410973D01*
X195304609Y-97421647D01*
X195268654Y-97452559D01*
X195214530Y-97496030D01*
X195151331Y-97544835D01*
X195119331Y-97568861D01*
X195061450Y-97612160D01*
X195014206Y-97648061D01*
X194983842Y-97671788D01*
X194976161Y-97678370D01*
X194945457Y-97701734D01*
X194896446Y-97729226D01*
X194842666Y-97753989D01*
X194797656Y-97769169D01*
X194796230Y-97769480D01*
X194740961Y-97796985D01*
X194680734Y-97857362D01*
X194678813Y-97859726D01*
X194591890Y-97957229D01*
X194512081Y-98025263D01*
X194458897Y-98056761D01*
X194412989Y-98082780D01*
X194358033Y-98119216D01*
X194332571Y-98137857D01*
X194285921Y-98171384D01*
X194246001Y-98196595D01*
X194230454Y-98204379D01*
X194198932Y-98229233D01*
X194189288Y-98245656D01*
X194168699Y-98282110D01*
X194142130Y-98309989D01*
X194125205Y-98317622D01*
X194108253Y-98328131D01*
X194073353Y-98355991D01*
X194027312Y-98395704D01*
X194015736Y-98406051D01*
X193955241Y-98456276D01*
X193890929Y-98503114D01*
X193836672Y-98536467D01*
X193836439Y-98536588D01*
X193784342Y-98566246D01*
X193741151Y-98595276D01*
X193725740Y-98608173D01*
X193693460Y-98631156D01*
X193671745Y-98637649D01*
X193643242Y-98650177D01*
X193625425Y-98668425D01*
X193598274Y-98694692D01*
X193551356Y-98730134D01*
X193494673Y-98768157D01*
X193438228Y-98802170D01*
X193392024Y-98825581D01*
X193380244Y-98830011D01*
X193347289Y-98847764D01*
X193303727Y-98880095D01*
X193282131Y-98898800D01*
X193228244Y-98941538D01*
X193168776Y-98979423D01*
X193150250Y-98989003D01*
X193093183Y-99020680D01*
X193032636Y-99061109D01*
X193013893Y-99075375D01*
X192963032Y-99112785D01*
X192913118Y-99144582D01*
X192895988Y-99153801D01*
X192812520Y-99196770D01*
X192750457Y-99233466D01*
X192714341Y-99261157D01*
X192710710Y-99265272D01*
X192690182Y-99282776D01*
X192650328Y-99311068D01*
X192599484Y-99344824D01*
X192545984Y-99378718D01*
X192498165Y-99407427D01*
X192464363Y-99425623D01*
X192453959Y-99429294D01*
X192435316Y-99439647D01*
X192407682Y-99462834D01*
X192374902Y-99488274D01*
X192321167Y-99524368D01*
X192253747Y-99566802D01*
X192179916Y-99611264D01*
X192106944Y-99653441D01*
X192042105Y-99689019D01*
X191992668Y-99713685D01*
X191969975Y-99722455D01*
X191917144Y-99731705D01*
X191850530Y-99737922D01*
X191780333Y-99740838D01*
X191716751Y-99740184D01*
X191669983Y-99735691D01*
X191653780Y-99730789D01*
X191630046Y-99698086D01*
X191624304Y-99653738D01*
X191622392Y-99614137D01*
X191610610Y-99599829D01*
X191579885Y-99602432D01*
X191570737Y-99604231D01*
X191521840Y-99605387D01*
X191472059Y-99584769D01*
X191457043Y-99575347D01*
X191406054Y-99542301D01*
X191357773Y-99511819D01*
X191350597Y-99507398D01*
X191314809Y-99469525D01*
X191307871Y-99420390D01*
X191328457Y-99363713D01*
X191375244Y-99303212D01*
X191444227Y-99244519D01*
X191514880Y-99177271D01*
X191546891Y-99120230D01*
X191571777Y-99071931D01*
X191611337Y-99011976D01*
X191657101Y-98953181D01*
X191658025Y-98952101D01*
X191697984Y-98904763D01*
X191727675Y-98868219D01*
X191741741Y-98849099D01*
X191742209Y-98847926D01*
X191736913Y-98829530D01*
X191726617Y-98800955D01*
X191720812Y-98773547D01*
X191730173Y-98747467D01*
X191759237Y-98713236D01*
X191777147Y-98695379D01*
X191813762Y-98657364D01*
X191837774Y-98628097D01*
X191843270Y-98617387D01*
X191832518Y-98596740D01*
X191810292Y-98570985D01*
X191790231Y-98543579D01*
X191783479Y-98508089D01*
X191787103Y-98455357D01*
X191789839Y-98396188D01*
X191781392Y-98364106D01*
X191777972Y-98361015D01*
X191759528Y-98334759D01*
X191770599Y-98296383D01*
X191811568Y-98245151D01*
X191863112Y-98197011D01*
X191919735Y-98148055D01*
X191973217Y-98101780D01*
X192013105Y-98067230D01*
X192016967Y-98063881D01*
X192048328Y-98033040D01*
X192056517Y-98009644D01*
X192046770Y-97983329D01*
X192037399Y-97957467D01*
X192044728Y-97933896D01*
X192072975Y-97902177D01*
X192083772Y-97891779D01*
X192169784Y-97812452D01*
X192252573Y-97740629D01*
X192326561Y-97680883D01*
X192386168Y-97637784D01*
X192414056Y-97621120D01*
X192492026Y-97578628D01*
X192543124Y-97543599D01*
X192572053Y-97511752D01*
X192583514Y-97478805D01*
X192584269Y-97466119D01*
X192597283Y-97414636D01*
X192638743Y-97361999D01*
X192639927Y-97360847D01*
X192676854Y-97328508D01*
X192705660Y-97309306D01*
X192713112Y-97307012D01*
X192736598Y-97295636D01*
X192761240Y-97273325D01*
X192791523Y-97248021D01*
X192813335Y-97239638D01*
X192834433Y-97226903D01*
X192865823Y-97194119D01*
X192889375Y-97163843D01*
X192921085Y-97122183D01*
X192945474Y-97094653D01*
X192954620Y-97088047D01*
X192973925Y-97077938D01*
X192998084Y-97058517D01*
X193057413Y-97006986D01*
X193132988Y-96944362D01*
X193215794Y-96877828D01*
X193296815Y-96814564D01*
X193367036Y-96761752D01*
X193401293Y-96737339D01*
X193450868Y-96699741D01*
X193516621Y-96644910D01*
X193590924Y-96579447D01*
X193666148Y-96509955D01*
X193686474Y-96490542D01*
X193752605Y-96428646D01*
X193812208Y-96376167D01*
X193860316Y-96337230D01*
X193891960Y-96315965D01*
X193899895Y-96313246D01*
X193927914Y-96302084D01*
X193967833Y-96273495D01*
X193993925Y-96250083D01*
X194042210Y-96204165D01*
X194101372Y-96149545D01*
X194147299Y-96108147D01*
X194235944Y-96029375D01*
X194014096Y-95762856D01*
X193893235Y-95619944D01*
X193766972Y-95474799D01*
X193639679Y-95332189D01*
X193515724Y-95196883D01*
X193399477Y-95073650D01*
X193295308Y-94967258D01*
X193207587Y-94882478D01*
X193206584Y-94881548D01*
X193137393Y-94817131D01*
X193064684Y-94748912D01*
X192999635Y-94687400D01*
X192971994Y-94661022D01*
X192909207Y-94604678D01*
X192839529Y-94547998D01*
X192778892Y-94503844D01*
X192726964Y-94466597D01*
X192685023Y-94431508D01*
X192663674Y-94408149D01*
X192636118Y-94375435D01*
X192591661Y-94334259D01*
X192538331Y-94290776D01*
X192484154Y-94251143D01*
X192437156Y-94221517D01*
X192405363Y-94208053D01*
X192402469Y-94207808D01*
X192373478Y-94192793D01*
X192350573Y-94154960D01*
X192338025Y-94105130D01*
X192340104Y-94054125D01*
X192340753Y-94051401D01*
X192339866Y-94009465D01*
X192314070Y-93974853D01*
X192290380Y-93942980D01*
X192286142Y-93916042D01*
X192284093Y-93883887D01*
X192277068Y-93873543D01*
X192270279Y-93855161D01*
X192287167Y-93844284D01*
X192302568Y-93834101D01*
X192295716Y-93818197D01*
X192269475Y-93793727D01*
X192223294Y-93760134D01*
X192176732Y-93734779D01*
X192176475Y-93734672D01*
X192143109Y-93713377D01*
X192129609Y-93690302D01*
X192118952Y-93665727D01*
X192091074Y-93625729D01*
X192053813Y-93581041D01*
X192015058Y-93533717D01*
X191987735Y-93492297D01*
X191978018Y-93466935D01*
X191986938Y-93435674D01*
X192007062Y-93413241D01*
X192028434Y-93408424D01*
X192036464Y-93415346D01*
X192061039Y-93429952D01*
X192096998Y-93431744D01*
X192127022Y-93421323D01*
X192134316Y-93411953D01*
X192132611Y-93383050D01*
X192118188Y-93344084D01*
X192103107Y-93298628D01*
X192114851Y-93272746D01*
X192154066Y-93264572D01*
X192188161Y-93255955D01*
X192202081Y-93241895D01*
X192220216Y-93228736D01*
X192264771Y-93220574D01*
X192339237Y-93216778D01*
X192341331Y-93216737D01*
X192404014Y-93214711D01*
X192452275Y-93211583D01*
X192477417Y-93207957D01*
X192478965Y-93207170D01*
X192477712Y-93188762D01*
X192468436Y-93167168D01*
X192457276Y-93134688D01*
X192470384Y-93125143D01*
X192507178Y-93138718D01*
X192525358Y-93148856D01*
X192564443Y-93168883D01*
X192586446Y-93166399D01*
X192600343Y-93137147D01*
X192607333Y-93109997D01*
X192630921Y-93071008D01*
X192674781Y-93036272D01*
X192725842Y-93014832D01*
X192749090Y-93011920D01*
X192765342Y-93003241D01*
X192765744Y-92972505D01*
X192763531Y-92960208D01*
X192759093Y-92924775D01*
X192769528Y-92912645D01*
X192792091Y-92913594D01*
X192832730Y-92908055D01*
X192878047Y-92887665D01*
X192880335Y-92886190D01*
X192932686Y-92863346D01*
X193001198Y-92856832D01*
X193018104Y-92857268D01*
X193069706Y-92856385D01*
X193100971Y-92849801D01*
X193106532Y-92843744D01*
X193093874Y-92827179D01*
X193089689Y-92826641D01*
X193073174Y-92816418D01*
X193079033Y-92790251D01*
X193104746Y-92754891D01*
X193123230Y-92736786D01*
X193181412Y-92699558D01*
X193237841Y-92694871D01*
X193274551Y-92708514D01*
X193310788Y-92712932D01*
X193359657Y-92702623D01*
X193406298Y-92682329D01*
X193435666Y-92657096D01*
X193458841Y-92646468D01*
X193486457Y-92648517D01*
X193525081Y-92646958D01*
X193541902Y-92629694D01*
X193554226Y-92614283D01*
X193571863Y-92614303D01*
X193603662Y-92631505D01*
X193626649Y-92646441D01*
X193667751Y-92672799D01*
X193695778Y-92689201D01*
X193702152Y-92691893D01*
X193711536Y-92677912D01*
X193717006Y-92647276D01*
X193716854Y-92616943D01*
X193710990Y-92604052D01*
X193705675Y-92588509D01*
X193710011Y-92578539D01*
X193727006Y-92580284D01*
G37*
G36*
X104775840Y-93098217D02*
G01*
X104776985Y-93100258D01*
X104778806Y-93103539D01*
X104781275Y-93108006D01*
X104784361Y-93113604D01*
X104788036Y-93120280D01*
X104792268Y-93127979D01*
X104797029Y-93136647D01*
X104802289Y-93146230D01*
X104808018Y-93156673D01*
X104814187Y-93167924D01*
X104820765Y-93179928D01*
X104827724Y-93192630D01*
X104835034Y-93205977D01*
X104842664Y-93219914D01*
X104850585Y-93234388D01*
X104858768Y-93249344D01*
X104867183Y-93264728D01*
X104875800Y-93280486D01*
X104880184Y-93288506D01*
X104888890Y-93304430D01*
X104897408Y-93320006D01*
X104905707Y-93335181D01*
X104913758Y-93349900D01*
X104921532Y-93364109D01*
X104928999Y-93377755D01*
X104936130Y-93390783D01*
X104942894Y-93403139D01*
X104949263Y-93414769D01*
X104955206Y-93425619D01*
X104960694Y-93435635D01*
X104965697Y-93444763D01*
X104970186Y-93452949D01*
X104974132Y-93460139D01*
X104977504Y-93466278D01*
X104980272Y-93471313D01*
X104982408Y-93475190D01*
X104983882Y-93477854D01*
X104984664Y-93479252D01*
X104984786Y-93479459D01*
X104985510Y-93479898D01*
X104987529Y-93481043D01*
X104990787Y-93482865D01*
X104995233Y-93485334D01*
X105000811Y-93488422D01*
X105007468Y-93492097D01*
X105015150Y-93496332D01*
X105023804Y-93501095D01*
X105033375Y-93506359D01*
X105043811Y-93512092D01*
X105055056Y-93518266D01*
X105067057Y-93524851D01*
X105079761Y-93531817D01*
X105093114Y-93539136D01*
X105107062Y-93546776D01*
X105121550Y-93554710D01*
X105136526Y-93562907D01*
X105151936Y-93571337D01*
X105167725Y-93579972D01*
X105177006Y-93585046D01*
X105192981Y-93593780D01*
X105208603Y-93602323D01*
X105223819Y-93610647D01*
X105238575Y-93618722D01*
X105252817Y-93626518D01*
X105266493Y-93634006D01*
X105279548Y-93641157D01*
X105291929Y-93647941D01*
X105303582Y-93654330D01*
X105314454Y-93660293D01*
X105324492Y-93665801D01*
X105333641Y-93670826D01*
X105341849Y-93675336D01*
X105349061Y-93679305D01*
X105355225Y-93682701D01*
X105360286Y-93685495D01*
X105364191Y-93687659D01*
X105366887Y-93689162D01*
X105368321Y-93689976D01*
X105368552Y-93690120D01*
X105367890Y-93690516D01*
X105365933Y-93691619D01*
X105362736Y-93693400D01*
X105358351Y-93695829D01*
X105352832Y-93698877D01*
X105346234Y-93702515D01*
X105338608Y-93706714D01*
X105330009Y-93711444D01*
X105320490Y-93716675D01*
X105310104Y-93722379D01*
X105298905Y-93728525D01*
X105286947Y-93735086D01*
X105274283Y-93742030D01*
X105260966Y-93749330D01*
X105247050Y-93756955D01*
X105232588Y-93764876D01*
X105217634Y-93773065D01*
X105202241Y-93781490D01*
X105186463Y-93790124D01*
X105176801Y-93795410D01*
X104985022Y-93900316D01*
X104880203Y-94091989D01*
X104871461Y-94107971D01*
X104862910Y-94123599D01*
X104854577Y-94138821D01*
X104846493Y-94153584D01*
X104838687Y-94167833D01*
X104831188Y-94181515D01*
X104824026Y-94194576D01*
X104817230Y-94206964D01*
X104810829Y-94218624D01*
X104804853Y-94229504D01*
X104799332Y-94239549D01*
X104794294Y-94248706D01*
X104789769Y-94256921D01*
X104785786Y-94264142D01*
X104782376Y-94270315D01*
X104779566Y-94275385D01*
X104777387Y-94279300D01*
X104775869Y-94282006D01*
X104775039Y-94283449D01*
X104774885Y-94283687D01*
X104774453Y-94283032D01*
X104773338Y-94281121D01*
X104771591Y-94278046D01*
X104769263Y-94273901D01*
X104766405Y-94268778D01*
X104763070Y-94262770D01*
X104759308Y-94255970D01*
X104755171Y-94248469D01*
X104750710Y-94240362D01*
X104745977Y-94231739D01*
X104741023Y-94222695D01*
X104739430Y-94219783D01*
X104735248Y-94212135D01*
X104730394Y-94203257D01*
X104724931Y-94193267D01*
X104718923Y-94182280D01*
X104712436Y-94170416D01*
X104705532Y-94157790D01*
X104698277Y-94144520D01*
X104690733Y-94130725D01*
X104682966Y-94116520D01*
X104675040Y-94102023D01*
X104667018Y-94087352D01*
X104658965Y-94072624D01*
X104650944Y-94057956D01*
X104643021Y-94043465D01*
X104635259Y-94029269D01*
X104634624Y-94028107D01*
X104564775Y-93900360D01*
X104373287Y-93795634D01*
X104357312Y-93786895D01*
X104341688Y-93778345D01*
X104326470Y-93770014D01*
X104311710Y-93761931D01*
X104297463Y-93754125D01*
X104283783Y-93746627D01*
X104270722Y-93739464D01*
X104258334Y-93732668D01*
X104246673Y-93726266D01*
X104235793Y-93720290D01*
X104225747Y-93714767D01*
X104216589Y-93709729D01*
X104208372Y-93705203D01*
X104201150Y-93701220D01*
X104194977Y-93697808D01*
X104189906Y-93694998D01*
X104185990Y-93692819D01*
X104183284Y-93691300D01*
X104181840Y-93690471D01*
X104181603Y-93690317D01*
X104182251Y-93689905D01*
X104184194Y-93688785D01*
X104187378Y-93686988D01*
X104191750Y-93684544D01*
X104197256Y-93681481D01*
X104203843Y-93677829D01*
X104211457Y-93673617D01*
X104220045Y-93668876D01*
X104229553Y-93663633D01*
X104239928Y-93657919D01*
X104251118Y-93651763D01*
X104263067Y-93645195D01*
X104275723Y-93638244D01*
X104289033Y-93630939D01*
X104302942Y-93623309D01*
X104317398Y-93615385D01*
X104332347Y-93607195D01*
X104347735Y-93598770D01*
X104363510Y-93590137D01*
X104373096Y-93584894D01*
X104564786Y-93480061D01*
X104669653Y-93288274D01*
X104680531Y-93268383D01*
X104690696Y-93249804D01*
X104700168Y-93232502D01*
X104708967Y-93216439D01*
X104717114Y-93201578D01*
X104724628Y-93187884D01*
X104731530Y-93175320D01*
X104737841Y-93163848D01*
X104743580Y-93153433D01*
X104748768Y-93144038D01*
X104753425Y-93135626D01*
X104757571Y-93128161D01*
X104761228Y-93121606D01*
X104764414Y-93115924D01*
X104767150Y-93111079D01*
X104769457Y-93107035D01*
X104771355Y-93103754D01*
X104772864Y-93101200D01*
X104774005Y-93099337D01*
X104774797Y-93098127D01*
X104775261Y-93097535D01*
X104775403Y-93097469D01*
X104775840Y-93098217D01*
G37*
G36*
X104775812Y-97805597D02*
G01*
X104776947Y-97807644D01*
X104778761Y-97810931D01*
X104781222Y-97815403D01*
X104784301Y-97821007D01*
X104787970Y-97827688D01*
X104792198Y-97835393D01*
X104796955Y-97844067D01*
X104802213Y-97853657D01*
X104807941Y-97864109D01*
X104814110Y-97875369D01*
X104820690Y-97887382D01*
X104827653Y-97900094D01*
X104834967Y-97913453D01*
X104842604Y-97927403D01*
X104850534Y-97941890D01*
X104858727Y-97956862D01*
X104867154Y-97972263D01*
X104875786Y-97988040D01*
X104880553Y-97996755D01*
X104984955Y-98187616D01*
X105176452Y-98292382D01*
X105192425Y-98301123D01*
X105208046Y-98309676D01*
X105223260Y-98318009D01*
X105238013Y-98326095D01*
X105252254Y-98333904D01*
X105265927Y-98341406D01*
X105278980Y-98348571D01*
X105291358Y-98355371D01*
X105303009Y-98361776D01*
X105313879Y-98367757D01*
X105323914Y-98373283D01*
X105333060Y-98378326D01*
X105341265Y-98382856D01*
X105348475Y-98386843D01*
X105354636Y-98390259D01*
X105359695Y-98393073D01*
X105363598Y-98395257D01*
X105366292Y-98396780D01*
X105367722Y-98397614D01*
X105367953Y-98397770D01*
X105367288Y-98398186D01*
X105365329Y-98399308D01*
X105362129Y-98401107D01*
X105357741Y-98403554D01*
X105352220Y-98406619D01*
X105345619Y-98410274D01*
X105337991Y-98414487D01*
X105329389Y-98419230D01*
X105319868Y-98424474D01*
X105309481Y-98430189D01*
X105298281Y-98436346D01*
X105286322Y-98442914D01*
X105273658Y-98449866D01*
X105260341Y-98457170D01*
X105246426Y-98464799D01*
X105231966Y-98472721D01*
X105217015Y-98480909D01*
X105201626Y-98489332D01*
X105185852Y-98497962D01*
X105176489Y-98503082D01*
X104985022Y-98607772D01*
X104880331Y-98799179D01*
X104871592Y-98815154D01*
X104863044Y-98830780D01*
X104854714Y-98846003D01*
X104846633Y-98860768D01*
X104838829Y-98875023D01*
X104831334Y-98888714D01*
X104824175Y-98901786D01*
X104817383Y-98914186D01*
X104810986Y-98925861D01*
X104805015Y-98936757D01*
X104799498Y-98946819D01*
X104794466Y-98955995D01*
X104789947Y-98964230D01*
X104785971Y-98971471D01*
X104782568Y-98977664D01*
X104779766Y-98982755D01*
X104777596Y-98986691D01*
X104776087Y-98989417D01*
X104775268Y-98990881D01*
X104775121Y-98991130D01*
X104774714Y-98990511D01*
X104773602Y-98988597D01*
X104771812Y-98985441D01*
X104769374Y-98981097D01*
X104766319Y-98975618D01*
X104762675Y-98969058D01*
X104758471Y-98961470D01*
X104753738Y-98952906D01*
X104748504Y-98943422D01*
X104742799Y-98933069D01*
X104736651Y-98921901D01*
X104730092Y-98909971D01*
X104723149Y-98897334D01*
X104715853Y-98884041D01*
X104708232Y-98870147D01*
X104700316Y-98855705D01*
X104692135Y-98840768D01*
X104683717Y-98825389D01*
X104675093Y-98809622D01*
X104669886Y-98800098D01*
X104658252Y-98778820D01*
X104647340Y-98758875D01*
X104637140Y-98740246D01*
X104627643Y-98722917D01*
X104618839Y-98706870D01*
X104610720Y-98692088D01*
X104603276Y-98678555D01*
X104596497Y-98666253D01*
X104590373Y-98655165D01*
X104584897Y-98645274D01*
X104580057Y-98636564D01*
X104575845Y-98629016D01*
X104572251Y-98622614D01*
X104569266Y-98617341D01*
X104566880Y-98613180D01*
X104565084Y-98610114D01*
X104563868Y-98608126D01*
X104563224Y-98607199D01*
X104563154Y-98607133D01*
X104562319Y-98606653D01*
X104560190Y-98605466D01*
X104556822Y-98603603D01*
X104552269Y-98601093D01*
X104546587Y-98597967D01*
X104539829Y-98594253D01*
X104532049Y-98589983D01*
X104523303Y-98585186D01*
X104513645Y-98579891D01*
X104503129Y-98574129D01*
X104491810Y-98567929D01*
X104479742Y-98561322D01*
X104466980Y-98554336D01*
X104453577Y-98547002D01*
X104439590Y-98539350D01*
X104425071Y-98531410D01*
X104410076Y-98523211D01*
X104394659Y-98514783D01*
X104378875Y-98506157D01*
X104370892Y-98501794D01*
X104180645Y-98397844D01*
X104184291Y-98395759D01*
X104185266Y-98395218D01*
X104187534Y-98393971D01*
X104191038Y-98392048D01*
X104195723Y-98389479D01*
X104201535Y-98386294D01*
X104208416Y-98382525D01*
X104216313Y-98378201D01*
X104225169Y-98373353D01*
X104234929Y-98368012D01*
X104245538Y-98362206D01*
X104256939Y-98355967D01*
X104269079Y-98349326D01*
X104281900Y-98342312D01*
X104295349Y-98334955D01*
X104309368Y-98327287D01*
X104323904Y-98319337D01*
X104338900Y-98311137D01*
X104354301Y-98302715D01*
X104370051Y-98294103D01*
X104375689Y-98291020D01*
X104391514Y-98282367D01*
X104406992Y-98273902D01*
X104422066Y-98265656D01*
X104436684Y-98257658D01*
X104450791Y-98249938D01*
X104464333Y-98242526D01*
X104477254Y-98235452D01*
X104489501Y-98228745D01*
X104501019Y-98222436D01*
X104511755Y-98216553D01*
X104521653Y-98211127D01*
X104530659Y-98206188D01*
X104538719Y-98201766D01*
X104545778Y-98197890D01*
X104551783Y-98194589D01*
X104556678Y-98191895D01*
X104560409Y-98189836D01*
X104562923Y-98188443D01*
X104564164Y-98187744D01*
X104564291Y-98187667D01*
X104564726Y-98186943D01*
X104565867Y-98184926D01*
X104567685Y-98181667D01*
X104570151Y-98177222D01*
X104573235Y-98171645D01*
X104576908Y-98164988D01*
X104581139Y-98157306D01*
X104585900Y-98148653D01*
X104591161Y-98139082D01*
X104596892Y-98128647D01*
X104603064Y-98117401D01*
X104609647Y-98105400D01*
X104616613Y-98092696D01*
X104623930Y-98079343D01*
X104631570Y-98065395D01*
X104639503Y-98050906D01*
X104647701Y-98035929D01*
X104656132Y-98020519D01*
X104664768Y-98004728D01*
X104669878Y-97995381D01*
X104680965Y-97975105D01*
X104691337Y-97956147D01*
X104701010Y-97938477D01*
X104710002Y-97922063D01*
X104718330Y-97906873D01*
X104726012Y-97892878D01*
X104733064Y-97880046D01*
X104739504Y-97868345D01*
X104745349Y-97857744D01*
X104750616Y-97848213D01*
X104755323Y-97839720D01*
X104759487Y-97832234D01*
X104763125Y-97825724D01*
X104766255Y-97820158D01*
X104768893Y-97815506D01*
X104771057Y-97811736D01*
X104772764Y-97808818D01*
X104774031Y-97806719D01*
X104774876Y-97805410D01*
X104775316Y-97804858D01*
X104775384Y-97804844D01*
X104775812Y-97805597D01*
G37*
G36*
X101116097Y-96061051D02*
G01*
X101462387Y-96061051D01*
X101463514Y-96132711D01*
X101466164Y-96204486D01*
X101466507Y-96211537D01*
X101470800Y-96282711D01*
X101476609Y-96353659D01*
X101483928Y-96424361D01*
X101492751Y-96494796D01*
X101503073Y-96564946D01*
X101514886Y-96634789D01*
X101528187Y-96704305D01*
X101542968Y-96773475D01*
X101559224Y-96842279D01*
X101576950Y-96910695D01*
X101596139Y-96978705D01*
X101616786Y-97046287D01*
X101638885Y-97113422D01*
X101662430Y-97180090D01*
X101687415Y-97246270D01*
X101713835Y-97311943D01*
X101741684Y-97377088D01*
X101770956Y-97441686D01*
X101801645Y-97505715D01*
X101833745Y-97569156D01*
X101867251Y-97631990D01*
X101883289Y-97660958D01*
X101918654Y-97722526D01*
X101955340Y-97783317D01*
X101993328Y-97843309D01*
X102032599Y-97902478D01*
X102073136Y-97960803D01*
X102114920Y-98018259D01*
X102157933Y-98074825D01*
X102202158Y-98130478D01*
X102247575Y-98185194D01*
X102294168Y-98238951D01*
X102341917Y-98291725D01*
X102390804Y-98343496D01*
X102440812Y-98394238D01*
X102491923Y-98443930D01*
X102544117Y-98492549D01*
X102545109Y-98493453D01*
X102598547Y-98541099D01*
X102652903Y-98587514D01*
X102708173Y-98632696D01*
X102764350Y-98676638D01*
X102821428Y-98719337D01*
X102879400Y-98760789D01*
X102938262Y-98800989D01*
X102998007Y-98839933D01*
X103058629Y-98877617D01*
X103120121Y-98914037D01*
X103182479Y-98949188D01*
X103194651Y-98955846D01*
X103223511Y-98971337D01*
X103253500Y-98987016D01*
X103284257Y-99002703D01*
X103315420Y-99018218D01*
X103346627Y-99033381D01*
X103377518Y-99048011D01*
X103405825Y-99061063D01*
X103470669Y-99089706D01*
X103536077Y-99116923D01*
X103602025Y-99142709D01*
X103668488Y-99167059D01*
X103735441Y-99189965D01*
X103802861Y-99211421D01*
X103870723Y-99231422D01*
X103939003Y-99249961D01*
X104007675Y-99267033D01*
X104076716Y-99282630D01*
X104146102Y-99296746D01*
X104215807Y-99309377D01*
X104285808Y-99320514D01*
X104356079Y-99330153D01*
X104426598Y-99338287D01*
X104497338Y-99344910D01*
X104543092Y-99348378D01*
X104577148Y-99350555D01*
X104611233Y-99352392D01*
X104645720Y-99353907D01*
X104680979Y-99355116D01*
X104717023Y-99356027D01*
X104721315Y-99356092D01*
X104726980Y-99356138D01*
X104733856Y-99356165D01*
X104741779Y-99356175D01*
X104750588Y-99356170D01*
X104760120Y-99356149D01*
X104770212Y-99356114D01*
X104780703Y-99356067D01*
X104791429Y-99356007D01*
X104802228Y-99355937D01*
X104812939Y-99355857D01*
X104823398Y-99355768D01*
X104833442Y-99355671D01*
X104842911Y-99355568D01*
X104851640Y-99355460D01*
X104859469Y-99355346D01*
X104866233Y-99355230D01*
X104871771Y-99355111D01*
X104875595Y-99355001D01*
X104924341Y-99353057D01*
X104971871Y-99350577D01*
X105018420Y-99347543D01*
X105064218Y-99343934D01*
X105109499Y-99339731D01*
X105154494Y-99334914D01*
X105199436Y-99329463D01*
X105238796Y-99324173D01*
X105309079Y-99313533D01*
X105379002Y-99301404D01*
X105448545Y-99287796D01*
X105517685Y-99272719D01*
X105586404Y-99256182D01*
X105654681Y-99238193D01*
X105722495Y-99218763D01*
X105789827Y-99197901D01*
X105856655Y-99175616D01*
X105922959Y-99151917D01*
X105988719Y-99126814D01*
X106053915Y-99100316D01*
X106118525Y-99072433D01*
X106182531Y-99043174D01*
X106245910Y-99012547D01*
X106308644Y-98980563D01*
X106370711Y-98947231D01*
X106432091Y-98912560D01*
X106492764Y-98876560D01*
X106552710Y-98839239D01*
X106611907Y-98800608D01*
X106670336Y-98760675D01*
X106727976Y-98719451D01*
X106784807Y-98676943D01*
X106840808Y-98633162D01*
X106895960Y-98588117D01*
X106950241Y-98541817D01*
X106954699Y-98537925D01*
X107008087Y-98490213D01*
X107060354Y-98441452D01*
X107111504Y-98391637D01*
X107161543Y-98340763D01*
X107210476Y-98288824D01*
X107258309Y-98235814D01*
X107305046Y-98181728D01*
X107350694Y-98126560D01*
X107363562Y-98110566D01*
X107407613Y-98054251D01*
X107450367Y-97997117D01*
X107491816Y-97939178D01*
X107531954Y-97880448D01*
X107570772Y-97820942D01*
X107608264Y-97760673D01*
X107644423Y-97699657D01*
X107679241Y-97637907D01*
X107712712Y-97575438D01*
X107744827Y-97512264D01*
X107775580Y-97448398D01*
X107804963Y-97383856D01*
X107832969Y-97318651D01*
X107859591Y-97252799D01*
X107884822Y-97186312D01*
X107908655Y-97119205D01*
X107931082Y-97051493D01*
X107952096Y-96983190D01*
X107971689Y-96914310D01*
X107972564Y-96911099D01*
X107989708Y-96845225D01*
X108005508Y-96778667D01*
X108019951Y-96711502D01*
X108033025Y-96643810D01*
X108044719Y-96575669D01*
X108055019Y-96507158D01*
X108063913Y-96438356D01*
X108071391Y-96369341D01*
X108077439Y-96300192D01*
X108082045Y-96230988D01*
X108084252Y-96186196D01*
X108084822Y-96172223D01*
X108085315Y-96158846D01*
X108085734Y-96145864D01*
X108086082Y-96133075D01*
X108086363Y-96120279D01*
X108086579Y-96107273D01*
X108086734Y-96093856D01*
X108086830Y-96079826D01*
X108086871Y-96064983D01*
X108086859Y-96049125D01*
X108086798Y-96032050D01*
X108086741Y-96021480D01*
X108086656Y-96007984D01*
X108086568Y-95995849D01*
X108086473Y-95984898D01*
X108086368Y-95974956D01*
X108086249Y-95965848D01*
X108086111Y-95957398D01*
X108085951Y-95949430D01*
X108085764Y-95941770D01*
X108085548Y-95934241D01*
X108085299Y-95926668D01*
X108085011Y-95918876D01*
X108084682Y-95910689D01*
X108084308Y-95901931D01*
X108083904Y-95892856D01*
X108079914Y-95821436D01*
X108074414Y-95750264D01*
X108067409Y-95679359D01*
X108058903Y-95608738D01*
X108048903Y-95538419D01*
X108037412Y-95468420D01*
X108024435Y-95398758D01*
X108009978Y-95329453D01*
X107994046Y-95260520D01*
X107976642Y-95191980D01*
X107957773Y-95123848D01*
X107937443Y-95056143D01*
X107915656Y-94988883D01*
X107892419Y-94922086D01*
X107867735Y-94855770D01*
X107841609Y-94789951D01*
X107814048Y-94724649D01*
X107785054Y-94659882D01*
X107754634Y-94595666D01*
X107722792Y-94532020D01*
X107696668Y-94482214D01*
X107662563Y-94420136D01*
X107627100Y-94358762D01*
X107590300Y-94298124D01*
X107552185Y-94238250D01*
X107512775Y-94179172D01*
X107472093Y-94120919D01*
X107430160Y-94063522D01*
X107386998Y-94007011D01*
X107342627Y-93951417D01*
X107297070Y-93896769D01*
X107250348Y-93843098D01*
X107216561Y-93805690D01*
X107184772Y-93771550D01*
X107151863Y-93737218D01*
X107118158Y-93703016D01*
X107083978Y-93669267D01*
X107049646Y-93636292D01*
X107015484Y-93604414D01*
X107012645Y-93601808D01*
X106959314Y-93553953D01*
X106905077Y-93507335D01*
X106849944Y-93461962D01*
X106793928Y-93417842D01*
X106737038Y-93374981D01*
X106679288Y-93333387D01*
X106620686Y-93293068D01*
X106561246Y-93254030D01*
X106500978Y-93216281D01*
X106439893Y-93179829D01*
X106378002Y-93144680D01*
X106315317Y-93110842D01*
X106251849Y-93078323D01*
X106187608Y-93047129D01*
X106122607Y-93017268D01*
X106113074Y-93013030D01*
X106048163Y-92985127D01*
X105982680Y-92958644D01*
X105916649Y-92933589D01*
X105850098Y-92909965D01*
X105783052Y-92887781D01*
X105715538Y-92867041D01*
X105647582Y-92847753D01*
X105579209Y-92829922D01*
X105510446Y-92813554D01*
X105441318Y-92798656D01*
X105371853Y-92785233D01*
X105302076Y-92773293D01*
X105232013Y-92762840D01*
X105161690Y-92753881D01*
X105091133Y-92746423D01*
X105020369Y-92740470D01*
X104949423Y-92736031D01*
X104933572Y-92735247D01*
X104923239Y-92734767D01*
X104913779Y-92734343D01*
X104905014Y-92733969D01*
X104896766Y-92733643D01*
X104888855Y-92733360D01*
X104881103Y-92733116D01*
X104873332Y-92732906D01*
X104865363Y-92732727D01*
X104857017Y-92732574D01*
X104848117Y-92732442D01*
X104838483Y-92732328D01*
X104827937Y-92732228D01*
X104816300Y-92732137D01*
X104803394Y-92732050D01*
X104796501Y-92732008D01*
X104767246Y-92731916D01*
X104739288Y-92732000D01*
X104712397Y-92732270D01*
X104686344Y-92732731D01*
X104660898Y-92733394D01*
X104635830Y-92734265D01*
X104610910Y-92735352D01*
X104585908Y-92736663D01*
X104560595Y-92738207D01*
X104534741Y-92739990D01*
X104510840Y-92741805D01*
X104439878Y-92748177D01*
X104369159Y-92756060D01*
X104298704Y-92765448D01*
X104228535Y-92776335D01*
X104158674Y-92788717D01*
X104089141Y-92802586D01*
X104019960Y-92817939D01*
X103951150Y-92834768D01*
X103882733Y-92853070D01*
X103814732Y-92872837D01*
X103747168Y-92894065D01*
X103680061Y-92916748D01*
X103613434Y-92940880D01*
X103547308Y-92966456D01*
X103481705Y-92993471D01*
X103416647Y-93021918D01*
X103401601Y-93028736D01*
X103370661Y-93043073D01*
X103338948Y-93058194D01*
X103306867Y-93073896D01*
X103274824Y-93089978D01*
X103243223Y-93106238D01*
X103212469Y-93122472D01*
X103195419Y-93131667D01*
X103133135Y-93166403D01*
X103071669Y-93202435D01*
X103011038Y-93239747D01*
X102951261Y-93278324D01*
X102892357Y-93318151D01*
X102834342Y-93359212D01*
X102777236Y-93401492D01*
X102721056Y-93444975D01*
X102665821Y-93489647D01*
X102611548Y-93535491D01*
X102558256Y-93582492D01*
X102505962Y-93630635D01*
X102454686Y-93679904D01*
X102404444Y-93730284D01*
X102355256Y-93781760D01*
X102307140Y-93834315D01*
X102260112Y-93887936D01*
X102214192Y-93942605D01*
X102169398Y-93998309D01*
X102155204Y-94016480D01*
X102112325Y-94073009D01*
X102070685Y-94130429D01*
X102030299Y-94188710D01*
X101991183Y-94247825D01*
X101953351Y-94307745D01*
X101916820Y-94368443D01*
X101881604Y-94429890D01*
X101847718Y-94492057D01*
X101815179Y-94554918D01*
X101784002Y-94618443D01*
X101754201Y-94682605D01*
X101725793Y-94747375D01*
X101698792Y-94812726D01*
X101673214Y-94878628D01*
X101649272Y-94944493D01*
X101626391Y-95011920D01*
X101604993Y-95079743D01*
X101585078Y-95147945D01*
X101566650Y-95216509D01*
X101549711Y-95285416D01*
X101534264Y-95354649D01*
X101520310Y-95424191D01*
X101507854Y-95494024D01*
X101496896Y-95564130D01*
X101487441Y-95634492D01*
X101479490Y-95705092D01*
X101473045Y-95775913D01*
X101468110Y-95846937D01*
X101464687Y-95918146D01*
X101462778Y-95989523D01*
X101462387Y-96061051D01*
X101116097Y-96061051D01*
X101116135Y-96007948D01*
X101117340Y-95941559D01*
X101119403Y-95882490D01*
X101123379Y-95807716D01*
X101128872Y-95733151D01*
X101135876Y-95658813D01*
X101144385Y-95584723D01*
X101154394Y-95510901D01*
X101165897Y-95437367D01*
X101178888Y-95364143D01*
X101193362Y-95291247D01*
X101209312Y-95218700D01*
X101226734Y-95146523D01*
X101245621Y-95074735D01*
X101265968Y-95003357D01*
X101287768Y-94932410D01*
X101311018Y-94861913D01*
X101335709Y-94791886D01*
X101361838Y-94722350D01*
X101389398Y-94653326D01*
X101418384Y-94584833D01*
X101448789Y-94516891D01*
X101480609Y-94449521D01*
X101513837Y-94382744D01*
X101548468Y-94316579D01*
X101572679Y-94272192D01*
X101609658Y-94207081D01*
X101647942Y-94142775D01*
X101687513Y-94079294D01*
X101728359Y-94016656D01*
X101770462Y-93954881D01*
X101813809Y-93893986D01*
X101858383Y-93833990D01*
X101904171Y-93774913D01*
X101951157Y-93716773D01*
X101999325Y-93659588D01*
X102048662Y-93603377D01*
X102099151Y-93548159D01*
X102150778Y-93493952D01*
X102203527Y-93440776D01*
X102257384Y-93388649D01*
X102312333Y-93337589D01*
X102366081Y-93289608D01*
X102422815Y-93240962D01*
X102480506Y-93193501D01*
X102539127Y-93147240D01*
X102598652Y-93102198D01*
X102659055Y-93058391D01*
X102720309Y-93015835D01*
X102782387Y-92974547D01*
X102845265Y-92934545D01*
X102908914Y-92895845D01*
X102973309Y-92858465D01*
X103038423Y-92822420D01*
X103104231Y-92787727D01*
X103170705Y-92754405D01*
X103237819Y-92722469D01*
X103292175Y-92697832D01*
X103361034Y-92668141D01*
X103430352Y-92639915D01*
X103500118Y-92613157D01*
X103570322Y-92587869D01*
X103640954Y-92564052D01*
X103712006Y-92541709D01*
X103783466Y-92520843D01*
X103855326Y-92501456D01*
X103927574Y-92483550D01*
X104000202Y-92467127D01*
X104073200Y-92452189D01*
X104146557Y-92438740D01*
X104220263Y-92426780D01*
X104294310Y-92416313D01*
X104368687Y-92407341D01*
X104443384Y-92399866D01*
X104518392Y-92393890D01*
X104593700Y-92389416D01*
X104631017Y-92387760D01*
X104658738Y-92386805D01*
X104687672Y-92386069D01*
X104717512Y-92385553D01*
X104747949Y-92385256D01*
X104778678Y-92385179D01*
X104809390Y-92385320D01*
X104839779Y-92385682D01*
X104869537Y-92386262D01*
X104898357Y-92387062D01*
X104918214Y-92387768D01*
X104993557Y-92391472D01*
X105068625Y-92396682D01*
X105143407Y-92403395D01*
X105217889Y-92411609D01*
X105292061Y-92421319D01*
X105365908Y-92432525D01*
X105439419Y-92445221D01*
X105512582Y-92459406D01*
X105585383Y-92475076D01*
X105657812Y-92492229D01*
X105729855Y-92510861D01*
X105801499Y-92530970D01*
X105872734Y-92552553D01*
X105943545Y-92575606D01*
X106013922Y-92600127D01*
X106083851Y-92626112D01*
X106153320Y-92653559D01*
X106222316Y-92682465D01*
X106290829Y-92712827D01*
X106306203Y-92719872D01*
X106332817Y-92732301D01*
X106360338Y-92745459D01*
X106388425Y-92759176D01*
X106416739Y-92773281D01*
X106444940Y-92787603D01*
X106472691Y-92801973D01*
X106499651Y-92816220D01*
X106523495Y-92829088D01*
X106588888Y-92865637D01*
X106653494Y-92903500D01*
X106717291Y-92942658D01*
X106780257Y-92983095D01*
X106842372Y-93024794D01*
X106903613Y-93067737D01*
X106963959Y-93111909D01*
X107023389Y-93157292D01*
X107081881Y-93203869D01*
X107139415Y-93251622D01*
X107195967Y-93300536D01*
X107251518Y-93350593D01*
X107306045Y-93401776D01*
X107359526Y-93454069D01*
X107411942Y-93507453D01*
X107463269Y-93561913D01*
X107496120Y-93597972D01*
X107545796Y-93654377D01*
X107594260Y-93711716D01*
X107641500Y-93769972D01*
X107687506Y-93829126D01*
X107732264Y-93889161D01*
X107775764Y-93950060D01*
X107817995Y-94011805D01*
X107858944Y-94074378D01*
X107898600Y-94137762D01*
X107936951Y-94201939D01*
X107973987Y-94266893D01*
X108009694Y-94332604D01*
X108044063Y-94399056D01*
X108077080Y-94466232D01*
X108098624Y-94512033D01*
X108129126Y-94579887D01*
X108158209Y-94648322D01*
X108185870Y-94717315D01*
X108212101Y-94786839D01*
X108236897Y-94856872D01*
X108260251Y-94927388D01*
X108282158Y-94998364D01*
X108302612Y-95069775D01*
X108321606Y-95141596D01*
X108339135Y-95213803D01*
X108355193Y-95286372D01*
X108369774Y-95359278D01*
X108382871Y-95432497D01*
X108394479Y-95506005D01*
X108404592Y-95579778D01*
X108413204Y-95653790D01*
X108420309Y-95728018D01*
X108425900Y-95802436D01*
X108429056Y-95857533D01*
X108431058Y-95904112D01*
X108432487Y-95951532D01*
X108433341Y-95999415D01*
X108433618Y-96047384D01*
X108433315Y-96095063D01*
X108432430Y-96142073D01*
X108430973Y-96187732D01*
X108427317Y-96262429D01*
X108422152Y-96336940D01*
X108415484Y-96411241D01*
X108407319Y-96485310D01*
X108397664Y-96559121D01*
X108386526Y-96632653D01*
X108373909Y-96705880D01*
X108359821Y-96778780D01*
X108344268Y-96851328D01*
X108327256Y-96923502D01*
X108308792Y-96995277D01*
X108288881Y-97066630D01*
X108267530Y-97137537D01*
X108244745Y-97207975D01*
X108220533Y-97277919D01*
X108194900Y-97347348D01*
X108167852Y-97416235D01*
X108139395Y-97484560D01*
X108109535Y-97552296D01*
X108078280Y-97619422D01*
X108045635Y-97685912D01*
X108019187Y-97737365D01*
X107983544Y-97803704D01*
X107946621Y-97869202D01*
X107908431Y-97933844D01*
X107868987Y-97997615D01*
X107828302Y-98060499D01*
X107786390Y-98122482D01*
X107743263Y-98183547D01*
X107698935Y-98243682D01*
X107653419Y-98302869D01*
X107606728Y-98361094D01*
X107558875Y-98418342D01*
X107509873Y-98474598D01*
X107459736Y-98529846D01*
X107408477Y-98584072D01*
X107356109Y-98637260D01*
X107302644Y-98689396D01*
X107248097Y-98740463D01*
X107192480Y-98790448D01*
X107135807Y-98839335D01*
X107078090Y-98887108D01*
X107019343Y-98933753D01*
X106959579Y-98979255D01*
X106900952Y-99022068D01*
X106839590Y-99065022D01*
X106777476Y-99106643D01*
X106714628Y-99146922D01*
X106651066Y-99185854D01*
X106586811Y-99223432D01*
X106521881Y-99259648D01*
X106456296Y-99294496D01*
X106390078Y-99327969D01*
X106323244Y-99360061D01*
X106255815Y-99390763D01*
X106187811Y-99420070D01*
X106119252Y-99447975D01*
X106050157Y-99474471D01*
X105980546Y-99499550D01*
X105910439Y-99523206D01*
X105839856Y-99545433D01*
X105768817Y-99566223D01*
X105697341Y-99585570D01*
X105625448Y-99603466D01*
X105553157Y-99619905D01*
X105480490Y-99634879D01*
X105407465Y-99648383D01*
X105334102Y-99660409D01*
X105260422Y-99670951D01*
X105186443Y-99680001D01*
X105112186Y-99687553D01*
X105037671Y-99693599D01*
X104962917Y-99698134D01*
X104945859Y-99698954D01*
X104920265Y-99700014D01*
X104893567Y-99700908D01*
X104866077Y-99701633D01*
X104838105Y-99702184D01*
X104809964Y-99702558D01*
X104781965Y-99702751D01*
X104754420Y-99702759D01*
X104727640Y-99702579D01*
X104701938Y-99702208D01*
X104691298Y-99701988D01*
X104616230Y-99699528D01*
X104541324Y-99695553D01*
X104466602Y-99690068D01*
X104392090Y-99683077D01*
X104317809Y-99674582D01*
X104243784Y-99664587D01*
X104170038Y-99653097D01*
X104096595Y-99640115D01*
X104023478Y-99625645D01*
X103950711Y-99609690D01*
X103878317Y-99592254D01*
X103806320Y-99573341D01*
X103734742Y-99552954D01*
X103724708Y-99549968D01*
X103653431Y-99527845D01*
X103582691Y-99504287D01*
X103512506Y-99479304D01*
X103442896Y-99452907D01*
X103373879Y-99425105D01*
X103305474Y-99395909D01*
X103237698Y-99365330D01*
X103170571Y-99333378D01*
X103104112Y-99300062D01*
X103038338Y-99265395D01*
X102973268Y-99229385D01*
X102908922Y-99192043D01*
X102845317Y-99153379D01*
X102782473Y-99113405D01*
X102720407Y-99072130D01*
X102659139Y-99029564D01*
X102598686Y-98985718D01*
X102539068Y-98940602D01*
X102480303Y-98894227D01*
X102422409Y-98846603D01*
X102365406Y-98797740D01*
X102351902Y-98785867D01*
X102305971Y-98744545D01*
X102260208Y-98701908D01*
X102214834Y-98658176D01*
X102170067Y-98613569D01*
X102126129Y-98568306D01*
X102083239Y-98522608D01*
X102041617Y-98476695D01*
X102032882Y-98466847D01*
X101983719Y-98410054D01*
X101935794Y-98352368D01*
X101889116Y-98293806D01*
X101843695Y-98234387D01*
X101799542Y-98174130D01*
X101756668Y-98113054D01*
X101715082Y-98051176D01*
X101674795Y-97988515D01*
X101635816Y-97925089D01*
X101598157Y-97860918D01*
X101561828Y-97796019D01*
X101526839Y-97730411D01*
X101493200Y-97664113D01*
X101460921Y-97597142D01*
X101430013Y-97529518D01*
X101400486Y-97461259D01*
X101372350Y-97392383D01*
X101345615Y-97322909D01*
X101320293Y-97252856D01*
X101296393Y-97182241D01*
X101273925Y-97111083D01*
X101268781Y-97094041D01*
X101248141Y-97022371D01*
X101228987Y-96950313D01*
X101211319Y-96877882D01*
X101195141Y-96805090D01*
X101180456Y-96731952D01*
X101167265Y-96658481D01*
X101155571Y-96584690D01*
X101145377Y-96510594D01*
X101136684Y-96436206D01*
X101129496Y-96361539D01*
X101123814Y-96286607D01*
X101122873Y-96271817D01*
X101119460Y-96206671D01*
X101117197Y-96140788D01*
X101116088Y-96074452D01*
X101116097Y-96061051D01*
G37*
G36*
X103266616Y-96086656D02*
G01*
X103430141Y-96086656D01*
X103431164Y-96130747D01*
X103433594Y-96174760D01*
X103433896Y-96178901D01*
X103438002Y-96223800D01*
X103443610Y-96268447D01*
X103450705Y-96312804D01*
X103459272Y-96356833D01*
X103469299Y-96400496D01*
X103480770Y-96443755D01*
X103493672Y-96486573D01*
X103507990Y-96528911D01*
X103523710Y-96570732D01*
X103540819Y-96611998D01*
X103559300Y-96652671D01*
X103579142Y-96692713D01*
X103600329Y-96732086D01*
X103622847Y-96770752D01*
X103646682Y-96808674D01*
X103671820Y-96845813D01*
X103696353Y-96879614D01*
X103724197Y-96915477D01*
X103753158Y-96950339D01*
X103783198Y-96984172D01*
X103814282Y-97016945D01*
X103846374Y-97048631D01*
X103879437Y-97079200D01*
X103913436Y-97108624D01*
X103948335Y-97136873D01*
X103984097Y-97163919D01*
X104020688Y-97189733D01*
X104058070Y-97214286D01*
X104096208Y-97237549D01*
X104135066Y-97259492D01*
X104174607Y-97280088D01*
X104214797Y-97299308D01*
X104223924Y-97303439D01*
X104265493Y-97321247D01*
X104307396Y-97337575D01*
X104349658Y-97352430D01*
X104392300Y-97365816D01*
X104435345Y-97377738D01*
X104478816Y-97388202D01*
X104522735Y-97397212D01*
X104567125Y-97404774D01*
X104612008Y-97410894D01*
X104657408Y-97415576D01*
X104703346Y-97418825D01*
X104731229Y-97420091D01*
X104735597Y-97420209D01*
X104741267Y-97420303D01*
X104748008Y-97420372D01*
X104755586Y-97420417D01*
X104763770Y-97420440D01*
X104772326Y-97420440D01*
X104781021Y-97420418D01*
X104789624Y-97420375D01*
X104797902Y-97420311D01*
X104805621Y-97420228D01*
X104812549Y-97420125D01*
X104818454Y-97420004D01*
X104823103Y-97419864D01*
X104823762Y-97419838D01*
X104870027Y-97417199D01*
X104915834Y-97413095D01*
X104961192Y-97407524D01*
X105006112Y-97400482D01*
X105050604Y-97391968D01*
X105094678Y-97381980D01*
X105138344Y-97370514D01*
X105181613Y-97357568D01*
X105224494Y-97343140D01*
X105266998Y-97327227D01*
X105309135Y-97309827D01*
X105347089Y-97292736D01*
X105352437Y-97290201D01*
X105358450Y-97287298D01*
X105364964Y-97284109D01*
X105371817Y-97280719D01*
X105378844Y-97277210D01*
X105385883Y-97273665D01*
X105392770Y-97270168D01*
X105399341Y-97266801D01*
X105405434Y-97263648D01*
X105410884Y-97260793D01*
X105415529Y-97258317D01*
X105419204Y-97256305D01*
X105421747Y-97254839D01*
X105422566Y-97254322D01*
X105422977Y-97253871D01*
X105422562Y-97253497D01*
X105421122Y-97253142D01*
X105418459Y-97252745D01*
X105416423Y-97252491D01*
X105374323Y-97246646D01*
X105332544Y-97239304D01*
X105291121Y-97230481D01*
X105250091Y-97220190D01*
X105209491Y-97208446D01*
X105169357Y-97195261D01*
X105129727Y-97180651D01*
X105090637Y-97164628D01*
X105052124Y-97147207D01*
X105014224Y-97128402D01*
X104976974Y-97108227D01*
X104940411Y-97086695D01*
X104904572Y-97063820D01*
X104886627Y-97051671D01*
X104851952Y-97026802D01*
X104818261Y-97000758D01*
X104785575Y-96973561D01*
X104753917Y-96945233D01*
X104723310Y-96915799D01*
X104693774Y-96885279D01*
X104665333Y-96853697D01*
X104638008Y-96821075D01*
X104611822Y-96787436D01*
X104586797Y-96752803D01*
X104573228Y-96732876D01*
X104559770Y-96712296D01*
X104547199Y-96692245D01*
X104535294Y-96672340D01*
X104523834Y-96652202D01*
X104512599Y-96631448D01*
X104501368Y-96609697D01*
X104497516Y-96602017D01*
X104479206Y-96563546D01*
X104462349Y-96524580D01*
X104446950Y-96485138D01*
X104433014Y-96445237D01*
X104420546Y-96404897D01*
X104409551Y-96364135D01*
X104400036Y-96322970D01*
X104392004Y-96281420D01*
X104385462Y-96239504D01*
X104380414Y-96197239D01*
X104379597Y-96188884D01*
X104376330Y-96146133D01*
X104374581Y-96103442D01*
X104374431Y-96076266D01*
X104537862Y-96076266D01*
X104537930Y-96082666D01*
X104538082Y-96089936D01*
X104538311Y-96097912D01*
X104538610Y-96106427D01*
X104538972Y-96115316D01*
X104539391Y-96124414D01*
X104539859Y-96133556D01*
X104540371Y-96142577D01*
X104540919Y-96151310D01*
X104541497Y-96159591D01*
X104542098Y-96167255D01*
X104542715Y-96174135D01*
X104542730Y-96174294D01*
X104547329Y-96213748D01*
X104553420Y-96252866D01*
X104560992Y-96291615D01*
X104570033Y-96329963D01*
X104580533Y-96367876D01*
X104592481Y-96405324D01*
X104605866Y-96442272D01*
X104620676Y-96478690D01*
X104636902Y-96514544D01*
X104654531Y-96549802D01*
X104673553Y-96584432D01*
X104693074Y-96616991D01*
X104714557Y-96649921D01*
X104737308Y-96681991D01*
X104761305Y-96713178D01*
X104786527Y-96743456D01*
X104812952Y-96772801D01*
X104840559Y-96801189D01*
X104869326Y-96828594D01*
X104899232Y-96854993D01*
X104906195Y-96860857D01*
X104935860Y-96884671D01*
X104966640Y-96907522D01*
X104998374Y-96929297D01*
X105030896Y-96949884D01*
X105058741Y-96966196D01*
X105092932Y-96984626D01*
X105127889Y-97001746D01*
X105163536Y-97017530D01*
X105199798Y-97031952D01*
X105236599Y-97044986D01*
X105273863Y-97056608D01*
X105311515Y-97066790D01*
X105349480Y-97075506D01*
X105387681Y-97082732D01*
X105408905Y-97086082D01*
X105433183Y-97089381D01*
X105456925Y-97092058D01*
X105480526Y-97094143D01*
X105504382Y-97095666D01*
X105528888Y-97096657D01*
X105554439Y-97097145D01*
X105555832Y-97097158D01*
X105574518Y-97097316D01*
X105527036Y-97049405D01*
X105524181Y-97046530D01*
X105520270Y-97042595D01*
X105515330Y-97037630D01*
X105509389Y-97031663D01*
X105502475Y-97024721D01*
X105494617Y-97016834D01*
X105485842Y-97008028D01*
X105476179Y-96998333D01*
X105465655Y-96987777D01*
X105454299Y-96976387D01*
X105442139Y-96964192D01*
X105429204Y-96951220D01*
X105415520Y-96937500D01*
X105401116Y-96923058D01*
X105386021Y-96907925D01*
X105370262Y-96892127D01*
X105353868Y-96875693D01*
X105336866Y-96858651D01*
X105319285Y-96841029D01*
X105301152Y-96822855D01*
X105282497Y-96804158D01*
X105263347Y-96784966D01*
X105243729Y-96765307D01*
X105223673Y-96745209D01*
X105203207Y-96724700D01*
X105182357Y-96703808D01*
X105161154Y-96682562D01*
X105139624Y-96660990D01*
X105117795Y-96639120D01*
X105095697Y-96616979D01*
X105073356Y-96594597D01*
X105050801Y-96572002D01*
X105028061Y-96549221D01*
X105009211Y-96530338D01*
X104538869Y-96059180D01*
X104538227Y-96063943D01*
X104538004Y-96066740D01*
X104537884Y-96070902D01*
X104537862Y-96076266D01*
X104374431Y-96076266D01*
X104374346Y-96060845D01*
X104375620Y-96018377D01*
X104378396Y-95976073D01*
X104382669Y-95933967D01*
X104388434Y-95892093D01*
X104395685Y-95850487D01*
X104404417Y-95809183D01*
X104414624Y-95768215D01*
X104426300Y-95727619D01*
X104439441Y-95687428D01*
X104454040Y-95647678D01*
X104470092Y-95608402D01*
X104473449Y-95600668D01*
X104491341Y-95561752D01*
X104510541Y-95523633D01*
X104531032Y-95486334D01*
X104552798Y-95449877D01*
X104575820Y-95414287D01*
X104600081Y-95379584D01*
X104625564Y-95345792D01*
X104652251Y-95312933D01*
X104680126Y-95281031D01*
X104709169Y-95250107D01*
X104739366Y-95220185D01*
X104770697Y-95191288D01*
X104803145Y-95163437D01*
X104817234Y-95151951D01*
X104851114Y-95125728D01*
X104885768Y-95100819D01*
X104921169Y-95077239D01*
X104957288Y-95054998D01*
X104994095Y-95034111D01*
X105031561Y-95014588D01*
X105069657Y-94996443D01*
X105108354Y-94979688D01*
X105147623Y-94964336D01*
X105187435Y-94950399D01*
X105227760Y-94937890D01*
X105268570Y-94926821D01*
X105309836Y-94917204D01*
X105351527Y-94909053D01*
X105393616Y-94902380D01*
X105400276Y-94901465D01*
X105405739Y-94900742D01*
X105410807Y-94900093D01*
X105415247Y-94899547D01*
X105418828Y-94899132D01*
X105421317Y-94898876D01*
X105422399Y-94898803D01*
X105423888Y-94898611D01*
X105424327Y-94898144D01*
X105424306Y-94898104D01*
X105423450Y-94897460D01*
X105421359Y-94896198D01*
X105418169Y-94894392D01*
X105414016Y-94892114D01*
X105409036Y-94889438D01*
X105403367Y-94886437D01*
X105397145Y-94883184D01*
X105390506Y-94879751D01*
X105383587Y-94876212D01*
X105379725Y-94874254D01*
X105339385Y-94854721D01*
X105298407Y-94836577D01*
X105256832Y-94819833D01*
X105214700Y-94804500D01*
X105172053Y-94790588D01*
X105128930Y-94778109D01*
X105085374Y-94767074D01*
X105041423Y-94757494D01*
X104997120Y-94749379D01*
X104952505Y-94742741D01*
X104907618Y-94737590D01*
X104862501Y-94733938D01*
X104859085Y-94733724D01*
X104834140Y-94732460D01*
X104808216Y-94731662D01*
X104781741Y-94731329D01*
X104755147Y-94731459D01*
X104728862Y-94732052D01*
X104703316Y-94733107D01*
X104686307Y-94734106D01*
X104641265Y-94737866D01*
X104596449Y-94743133D01*
X104551897Y-94749892D01*
X104507649Y-94758128D01*
X104463745Y-94767826D01*
X104420222Y-94778970D01*
X104377120Y-94791547D01*
X104334478Y-94805541D01*
X104292336Y-94820937D01*
X104250731Y-94837720D01*
X104209704Y-94855875D01*
X104169293Y-94875387D01*
X104129538Y-94896240D01*
X104090477Y-94918421D01*
X104052149Y-94941914D01*
X104014594Y-94966704D01*
X103977851Y-94992776D01*
X103942590Y-95019617D01*
X103910972Y-95045368D01*
X103879756Y-95072463D01*
X103849125Y-95100723D01*
X103819264Y-95129972D01*
X103790355Y-95160031D01*
X103762583Y-95190725D01*
X103748414Y-95207158D01*
X103719879Y-95242006D01*
X103692576Y-95277755D01*
X103666522Y-95314367D01*
X103641733Y-95351804D01*
X103618226Y-95390028D01*
X103596018Y-95429002D01*
X103575124Y-95468688D01*
X103555561Y-95509048D01*
X103537346Y-95550044D01*
X103520496Y-95591639D01*
X103505026Y-95633795D01*
X103490954Y-95676474D01*
X103478296Y-95719639D01*
X103467068Y-95763250D01*
X103457286Y-95807272D01*
X103448969Y-95851666D01*
X103442131Y-95896394D01*
X103440051Y-95912438D01*
X103435480Y-95955378D01*
X103432302Y-95998826D01*
X103430521Y-96042633D01*
X103430141Y-96086656D01*
X103266616Y-96086656D01*
X103266347Y-96071753D01*
X103266282Y-96050875D01*
X103266502Y-96029475D01*
X103266998Y-96008044D01*
X103267763Y-95987073D01*
X103268771Y-95967343D01*
X103272386Y-95919173D01*
X103277502Y-95871304D01*
X103284109Y-95823763D01*
X103292198Y-95776576D01*
X103301758Y-95729769D01*
X103312780Y-95683371D01*
X103325255Y-95637407D01*
X103339173Y-95591904D01*
X103354524Y-95546888D01*
X103371298Y-95502388D01*
X103389487Y-95458429D01*
X103409079Y-95415037D01*
X103430066Y-95372241D01*
X103452438Y-95330066D01*
X103476185Y-95288539D01*
X103501297Y-95247688D01*
X103527765Y-95207537D01*
X103555580Y-95168116D01*
X103559638Y-95162578D01*
X103563386Y-95157530D01*
X103567686Y-95151808D01*
X103572366Y-95145633D01*
X103577256Y-95139229D01*
X103582184Y-95132819D01*
X103586978Y-95126625D01*
X103591466Y-95120871D01*
X103595476Y-95115779D01*
X103598838Y-95111572D01*
X103600372Y-95109688D01*
X103604710Y-95104408D01*
X103468843Y-94968010D01*
X103456540Y-94955659D01*
X103444393Y-94943466D01*
X103432458Y-94931487D01*
X103420789Y-94919775D01*
X103409439Y-94908385D01*
X103398463Y-94897371D01*
X103387915Y-94886788D01*
X103377848Y-94876688D01*
X103368317Y-94867128D01*
X103359377Y-94858160D01*
X103351080Y-94849839D01*
X103343482Y-94842220D01*
X103336635Y-94835356D01*
X103330595Y-94829303D01*
X103325416Y-94824113D01*
X103321150Y-94819842D01*
X103317854Y-94816543D01*
X103315579Y-94814271D01*
X103315360Y-94814052D01*
X103297743Y-94796493D01*
X103282408Y-94814899D01*
X103248422Y-94856865D01*
X103215575Y-94899809D01*
X103183906Y-94943668D01*
X103153457Y-94988380D01*
X103124266Y-95033881D01*
X103096375Y-95080109D01*
X103069823Y-95127001D01*
X103044650Y-95174496D01*
X103020924Y-95222475D01*
X102997997Y-95272304D01*
X102976537Y-95322585D01*
X102956548Y-95373305D01*
X102938031Y-95424456D01*
X102920991Y-95476024D01*
X102905429Y-95527998D01*
X102891348Y-95580369D01*
X102878752Y-95633123D01*
X102867643Y-95686251D01*
X102858025Y-95739740D01*
X102849899Y-95793580D01*
X102843268Y-95847759D01*
X102838137Y-95902266D01*
X102834513Y-95956976D01*
X102833412Y-95981884D01*
X102832648Y-96007930D01*
X102832219Y-96034754D01*
X102832127Y-96061995D01*
X102832368Y-96089294D01*
X102832944Y-96116291D01*
X102833852Y-96142625D01*
X102834912Y-96164695D01*
X102838680Y-96219520D01*
X102843948Y-96274042D01*
X102850707Y-96328240D01*
X102858953Y-96382093D01*
X102868676Y-96435578D01*
X102879871Y-96488674D01*
X102892531Y-96541360D01*
X102906648Y-96593614D01*
X102922215Y-96645414D01*
X102939226Y-96696740D01*
X102957674Y-96747570D01*
X102977551Y-96797881D01*
X102998851Y-96847653D01*
X103021567Y-96896864D01*
X103045691Y-96945493D01*
X103071217Y-96993517D01*
X103098138Y-97040917D01*
X103126446Y-97087669D01*
X103142123Y-97112353D01*
X103153070Y-97129310D01*
X103064054Y-97585382D01*
X103058920Y-97611683D01*
X103053850Y-97637664D01*
X103048850Y-97663281D01*
X103043929Y-97688491D01*
X103039097Y-97713251D01*
X103034361Y-97737518D01*
X103029729Y-97761249D01*
X103025211Y-97784400D01*
X103020814Y-97806928D01*
X103016548Y-97828790D01*
X103012420Y-97849942D01*
X103008438Y-97870341D01*
X103004613Y-97889945D01*
X103000951Y-97908710D01*
X102997461Y-97926592D01*
X102994152Y-97943548D01*
X102991032Y-97959536D01*
X102988110Y-97974512D01*
X102985393Y-97988432D01*
X102982892Y-98001254D01*
X102980613Y-98012933D01*
X102978565Y-98023428D01*
X102976757Y-98032695D01*
X102975197Y-98040690D01*
X102973894Y-98047370D01*
X102972856Y-98052692D01*
X102972092Y-98056613D01*
X102971609Y-98059090D01*
X102971485Y-98059726D01*
X102970477Y-98064782D01*
X102969533Y-98069283D01*
X102968698Y-98073027D01*
X102968019Y-98075812D01*
X102967542Y-98077435D01*
X102967350Y-98077772D01*
X102966652Y-98077215D01*
X102964971Y-98075755D01*
X102962456Y-98073525D01*
X102959258Y-98070659D01*
X102955525Y-98067290D01*
X102951407Y-98063552D01*
X102950754Y-98062956D01*
X102930599Y-98044368D01*
X102909955Y-98024901D01*
X102889030Y-98004760D01*
X102868028Y-97984154D01*
X102847157Y-97963290D01*
X102826623Y-97942374D01*
X102806631Y-97921613D01*
X102787389Y-97901216D01*
X102769101Y-97881389D01*
X102760691Y-97872098D01*
X102717602Y-97823065D01*
X102675817Y-97773228D01*
X102635339Y-97722590D01*
X102596171Y-97671159D01*
X102558317Y-97618938D01*
X102521781Y-97565933D01*
X102486565Y-97512150D01*
X102452673Y-97457592D01*
X102420108Y-97402267D01*
X102388875Y-97346178D01*
X102358975Y-97289332D01*
X102330414Y-97231732D01*
X102303193Y-97173385D01*
X102301785Y-97170267D01*
X102276042Y-97111274D01*
X102251746Y-97051775D01*
X102228901Y-96991786D01*
X102207512Y-96931326D01*
X102187584Y-96870412D01*
X102169120Y-96809064D01*
X102152125Y-96747298D01*
X102136602Y-96685133D01*
X102122557Y-96622587D01*
X102109994Y-96559679D01*
X102098916Y-96496425D01*
X102089329Y-96432845D01*
X102081236Y-96368955D01*
X102074642Y-96304775D01*
X102069550Y-96240323D01*
X102065966Y-96175616D01*
X102065842Y-96172758D01*
X102064793Y-96143887D01*
X102064050Y-96113951D01*
X102063612Y-96083326D01*
X102063480Y-96052384D01*
X102063654Y-96021500D01*
X102064133Y-95991049D01*
X102064919Y-95961404D01*
X102065847Y-95936627D01*
X102069381Y-95872370D01*
X102074437Y-95808277D01*
X102081012Y-95744373D01*
X102089100Y-95680684D01*
X102098694Y-95617237D01*
X102109789Y-95554058D01*
X102122381Y-95491171D01*
X102136462Y-95428604D01*
X102152028Y-95366383D01*
X102169074Y-95304532D01*
X102187592Y-95243079D01*
X102207578Y-95182050D01*
X102229027Y-95121469D01*
X102251932Y-95061364D01*
X102256263Y-95050464D01*
X102280800Y-94991160D01*
X102306731Y-94932487D01*
X102334041Y-94874470D01*
X102362714Y-94817133D01*
X102392732Y-94760503D01*
X102424080Y-94704604D01*
X102456742Y-94649461D01*
X102490700Y-94595099D01*
X102525938Y-94541543D01*
X102562441Y-94488819D01*
X102600192Y-94436950D01*
X102639175Y-94385964D01*
X102679372Y-94335883D01*
X102720769Y-94286734D01*
X102763348Y-94238542D01*
X102807093Y-94191331D01*
X102836487Y-94160833D01*
X102855758Y-94141351D01*
X102875554Y-94121728D01*
X102895598Y-94102231D01*
X102915615Y-94083123D01*
X102935328Y-94064672D01*
X102954463Y-94047141D01*
X102958123Y-94043835D01*
X102972315Y-94031045D01*
X103026147Y-94085003D01*
X103029651Y-94088514D01*
X103034206Y-94093079D01*
X103039779Y-94098664D01*
X103046337Y-94105236D01*
X103053847Y-94112762D01*
X103062275Y-94121207D01*
X103071588Y-94130540D01*
X103081753Y-94140725D01*
X103092736Y-94151730D01*
X103104504Y-94163522D01*
X103117024Y-94176067D01*
X103130262Y-94189331D01*
X103144185Y-94203282D01*
X103158759Y-94217886D01*
X103173952Y-94233109D01*
X103189730Y-94248918D01*
X103206060Y-94265280D01*
X103222908Y-94282162D01*
X103240241Y-94299529D01*
X103258025Y-94317349D01*
X103276228Y-94335588D01*
X103294816Y-94354212D01*
X103313756Y-94373189D01*
X103333014Y-94392485D01*
X103352557Y-94412066D01*
X103372352Y-94431900D01*
X103392366Y-94451952D01*
X103412564Y-94472190D01*
X103432914Y-94492579D01*
X103452202Y-94511904D01*
X103824424Y-94884847D01*
X103841080Y-94871737D01*
X103879554Y-94842419D01*
X103918784Y-94814427D01*
X103958743Y-94787770D01*
X103999406Y-94762460D01*
X104040745Y-94738505D01*
X104082732Y-94715917D01*
X104125341Y-94694707D01*
X104168546Y-94674883D01*
X104212318Y-94656458D01*
X104256632Y-94639440D01*
X104301460Y-94623841D01*
X104346774Y-94609671D01*
X104392550Y-94596940D01*
X104438758Y-94585658D01*
X104485373Y-94575837D01*
X104532367Y-94567485D01*
X104579713Y-94560614D01*
X104627385Y-94555234D01*
X104675172Y-94551368D01*
X104707325Y-94549649D01*
X104740294Y-94548607D01*
X104773647Y-94548241D01*
X104806950Y-94548550D01*
X104839772Y-94549536D01*
X104871680Y-94551198D01*
X104874059Y-94551352D01*
X104920122Y-94555050D01*
X104965536Y-94560059D01*
X105010504Y-94566409D01*
X105055227Y-94574134D01*
X105099908Y-94583263D01*
X105143765Y-94593582D01*
X105189707Y-94605875D01*
X105235171Y-94619617D01*
X105280122Y-94634788D01*
X105324530Y-94651369D01*
X105368363Y-94669339D01*
X105411586Y-94688678D01*
X105454169Y-94709367D01*
X105496079Y-94731385D01*
X105537283Y-94754713D01*
X105577750Y-94779330D01*
X105617447Y-94805216D01*
X105656341Y-94832352D01*
X105694400Y-94860717D01*
X105731592Y-94890291D01*
X105767885Y-94921054D01*
X105803246Y-94952987D01*
X105837642Y-94986070D01*
X105871042Y-95020281D01*
X105903413Y-95055602D01*
X105918395Y-95072734D01*
X105921703Y-95076595D01*
X105925360Y-95080903D01*
X105929231Y-95085492D01*
X105933181Y-95090202D01*
X105937076Y-95094870D01*
X105940781Y-95099333D01*
X105944160Y-95103429D01*
X105947080Y-95106995D01*
X105949404Y-95109868D01*
X105950998Y-95111887D01*
X105951713Y-95112865D01*
X105951499Y-95113241D01*
X105949981Y-95112880D01*
X105948602Y-95112369D01*
X105946591Y-95111570D01*
X105943505Y-95110340D01*
X105939695Y-95108820D01*
X105935510Y-95107148D01*
X105933385Y-95106299D01*
X105921480Y-95101673D01*
X105908472Y-95096862D01*
X105894758Y-95092009D01*
X105880737Y-95087257D01*
X105877711Y-95086260D01*
X105840084Y-95074722D01*
X105802098Y-95064667D01*
X105763799Y-95056097D01*
X105725235Y-95049012D01*
X105686452Y-95043416D01*
X105647497Y-95039308D01*
X105608418Y-95036692D01*
X105569260Y-95035568D01*
X105530071Y-95035939D01*
X105490898Y-95037805D01*
X105451788Y-95041170D01*
X105412787Y-95046033D01*
X105373943Y-95052398D01*
X105335302Y-95060265D01*
X105309846Y-95066302D01*
X105271951Y-95076592D01*
X105234566Y-95088320D01*
X105197727Y-95101463D01*
X105161471Y-95115999D01*
X105125835Y-95131906D01*
X105090855Y-95149160D01*
X105056567Y-95167739D01*
X105023009Y-95187620D01*
X104990217Y-95208781D01*
X104958227Y-95231198D01*
X104927077Y-95254849D01*
X104896802Y-95279711D01*
X104867439Y-95305762D01*
X104839025Y-95332979D01*
X104811597Y-95361338D01*
X104785191Y-95390819D01*
X104783030Y-95393334D01*
X104757995Y-95423717D01*
X104734270Y-95454867D01*
X104711834Y-95486818D01*
X104690666Y-95519603D01*
X104670745Y-95553257D01*
X104652051Y-95587812D01*
X104634562Y-95623303D01*
X104619421Y-95657038D01*
X104612212Y-95673861D01*
X104677279Y-95739204D01*
X104683635Y-95745585D01*
X104690918Y-95752895D01*
X104699107Y-95761112D01*
X104708179Y-95770213D01*
X104718109Y-95780173D01*
X104728876Y-95790971D01*
X104740455Y-95802583D01*
X104752825Y-95814985D01*
X104765961Y-95828155D01*
X104779840Y-95842070D01*
X104794441Y-95856706D01*
X104809738Y-95872040D01*
X104825710Y-95888049D01*
X104842332Y-95904710D01*
X104859583Y-95921999D01*
X104877439Y-95939894D01*
X104895876Y-95958372D01*
X104914872Y-95977408D01*
X104934403Y-95996981D01*
X104954447Y-96017066D01*
X104974980Y-96037642D01*
X104995979Y-96058684D01*
X105017422Y-96080169D01*
X105039284Y-96102074D01*
X105061543Y-96124377D01*
X105084175Y-96147053D01*
X105107158Y-96170081D01*
X105130469Y-96193436D01*
X105154084Y-96217095D01*
X105177980Y-96241036D01*
X105202134Y-96265235D01*
X105226523Y-96289668D01*
X105251123Y-96314314D01*
X105275913Y-96339148D01*
X105300868Y-96364148D01*
X105325966Y-96389290D01*
X105351182Y-96414552D01*
X105376496Y-96439909D01*
X105401882Y-96465340D01*
X105427318Y-96490820D01*
X105452781Y-96516326D01*
X105478248Y-96541836D01*
X105503695Y-96567326D01*
X105529100Y-96592774D01*
X105554440Y-96618155D01*
X105579690Y-96643447D01*
X105604829Y-96668627D01*
X105629833Y-96693671D01*
X105654678Y-96718556D01*
X105679343Y-96743260D01*
X105703803Y-96767758D01*
X105728036Y-96792029D01*
X105752018Y-96816048D01*
X105775726Y-96839792D01*
X105799138Y-96863239D01*
X105822229Y-96886365D01*
X105844978Y-96909147D01*
X105867360Y-96931562D01*
X105889353Y-96953587D01*
X105910934Y-96975198D01*
X105932079Y-96996373D01*
X105952766Y-97017088D01*
X105972971Y-97037320D01*
X105992671Y-97057046D01*
X106011842Y-97076243D01*
X106030463Y-97094887D01*
X106048510Y-97112956D01*
X106065959Y-97130426D01*
X106082787Y-97147274D01*
X106098972Y-97163477D01*
X106114491Y-97179012D01*
X106129319Y-97193856D01*
X106143435Y-97207985D01*
X106156814Y-97221376D01*
X106169434Y-97234007D01*
X106181272Y-97245854D01*
X106192304Y-97256893D01*
X106202508Y-97267103D01*
X106211860Y-97276458D01*
X106220338Y-97284938D01*
X106227917Y-97292517D01*
X106234575Y-97299174D01*
X106240290Y-97304884D01*
X106245037Y-97309625D01*
X106248793Y-97313374D01*
X106251536Y-97316107D01*
X106253242Y-97317802D01*
X106253889Y-97318435D01*
X106253894Y-97318439D01*
X106254566Y-97317843D01*
X106256097Y-97316166D01*
X106258388Y-97313527D01*
X106261342Y-97310046D01*
X106264861Y-97305842D01*
X106268846Y-97301035D01*
X106273200Y-97295744D01*
X106277824Y-97290090D01*
X106282621Y-97284192D01*
X106287492Y-97278170D01*
X106292340Y-97272143D01*
X106297065Y-97266231D01*
X106301571Y-97260553D01*
X106305759Y-97255230D01*
X106307206Y-97253377D01*
X106340273Y-97209708D01*
X106372023Y-97165267D01*
X106402447Y-97120078D01*
X106431535Y-97074167D01*
X106459278Y-97027558D01*
X106485665Y-96980278D01*
X106510686Y-96932352D01*
X106534333Y-96883804D01*
X106556594Y-96834661D01*
X106577460Y-96784947D01*
X106596922Y-96734688D01*
X106614969Y-96683910D01*
X106631591Y-96632636D01*
X106646779Y-96580894D01*
X106660523Y-96528707D01*
X106672813Y-96476101D01*
X106683639Y-96423103D01*
X106692992Y-96369736D01*
X106700860Y-96316026D01*
X106707236Y-96261999D01*
X106711602Y-96214225D01*
X106712793Y-96198617D01*
X106713821Y-96183895D01*
X106714696Y-96169803D01*
X106715429Y-96156085D01*
X106716028Y-96142483D01*
X106716503Y-96128741D01*
X106716863Y-96114603D01*
X106717119Y-96099811D01*
X106717279Y-96084110D01*
X106717354Y-96067243D01*
X106717362Y-96059492D01*
X106717350Y-96046057D01*
X106717308Y-96033936D01*
X106717229Y-96022907D01*
X106717107Y-96012747D01*
X106716937Y-96003236D01*
X106716713Y-95994150D01*
X106716430Y-95985268D01*
X106716080Y-95976369D01*
X106715659Y-95967230D01*
X106715161Y-95957629D01*
X106714579Y-95947344D01*
X106714309Y-95942770D01*
X106710275Y-95887962D01*
X106704740Y-95833476D01*
X106697705Y-95779321D01*
X106689174Y-95725505D01*
X106679148Y-95672036D01*
X106667628Y-95618923D01*
X106654618Y-95566174D01*
X106640119Y-95513797D01*
X106624133Y-95461800D01*
X106606662Y-95410192D01*
X106587709Y-95358980D01*
X106567275Y-95308173D01*
X106545363Y-95257780D01*
X106539599Y-95245128D01*
X106536763Y-95239055D01*
X106533320Y-95231841D01*
X106529374Y-95223693D01*
X106525028Y-95214816D01*
X106520384Y-95205414D01*
X106515546Y-95195692D01*
X106510616Y-95185857D01*
X106505698Y-95176112D01*
X106500893Y-95166664D01*
X106496306Y-95157717D01*
X106492039Y-95149475D01*
X106488195Y-95142146D01*
X106484877Y-95135932D01*
X106483956Y-95134238D01*
X106471063Y-95110899D01*
X106458508Y-95088739D01*
X106446129Y-95067486D01*
X106433765Y-95046868D01*
X106421254Y-95026611D01*
X106408436Y-95006442D01*
X106406298Y-95003132D01*
X106396041Y-94987285D01*
X106488598Y-94512825D01*
X106493806Y-94486133D01*
X106498942Y-94459812D01*
X106503998Y-94433903D01*
X106508968Y-94408446D01*
X106513842Y-94383480D01*
X106518613Y-94359048D01*
X106523274Y-94335188D01*
X106527815Y-94311941D01*
X106532230Y-94289348D01*
X106536510Y-94267450D01*
X106540648Y-94246285D01*
X106544635Y-94225896D01*
X106548463Y-94206322D01*
X106552126Y-94187603D01*
X106555614Y-94169780D01*
X106558920Y-94152894D01*
X106562036Y-94136985D01*
X106564955Y-94122092D01*
X106567667Y-94108258D01*
X106570166Y-94095521D01*
X106572443Y-94083922D01*
X106574491Y-94073502D01*
X106576301Y-94064301D01*
X106577866Y-94056359D01*
X106579178Y-94049718D01*
X106580229Y-94044416D01*
X106581010Y-94040495D01*
X106581515Y-94037995D01*
X106581735Y-94036956D01*
X106581743Y-94036930D01*
X106582050Y-94036648D01*
X106582676Y-94036772D01*
X106583735Y-94037391D01*
X106585339Y-94038598D01*
X106587604Y-94040483D01*
X106590642Y-94043137D01*
X106594567Y-94046652D01*
X106599493Y-94051118D01*
X106599865Y-94051457D01*
X106641759Y-94090438D01*
X106683198Y-94130674D01*
X106723913Y-94171893D01*
X106763638Y-94213826D01*
X106802108Y-94256203D01*
X106802328Y-94256450D01*
X106844666Y-94305281D01*
X106885782Y-94355024D01*
X106925664Y-94405657D01*
X106964296Y-94457157D01*
X107001665Y-94509501D01*
X107037756Y-94562667D01*
X107072556Y-94616631D01*
X107106051Y-94671371D01*
X107138226Y-94726865D01*
X107169069Y-94783089D01*
X107198563Y-94840021D01*
X107226697Y-94897639D01*
X107253455Y-94955918D01*
X107278823Y-95014838D01*
X107296419Y-95058143D01*
X107319423Y-95118283D01*
X107340958Y-95178860D01*
X107361021Y-95239854D01*
X107379607Y-95301244D01*
X107396714Y-95363012D01*
X107412339Y-95425136D01*
X107426477Y-95487597D01*
X107439127Y-95550375D01*
X107450284Y-95613449D01*
X107459945Y-95676800D01*
X107468108Y-95740407D01*
X107474768Y-95804250D01*
X107479923Y-95868309D01*
X107483569Y-95932565D01*
X107485702Y-95996996D01*
X107486321Y-96061584D01*
X107485421Y-96126307D01*
X107482999Y-96191146D01*
X107482609Y-96198866D01*
X107478501Y-96263367D01*
X107472885Y-96327601D01*
X107465769Y-96391546D01*
X107457160Y-96455181D01*
X107447068Y-96518484D01*
X107435499Y-96581434D01*
X107422463Y-96644008D01*
X107407966Y-96706185D01*
X107392017Y-96767944D01*
X107374625Y-96829263D01*
X107355796Y-96890120D01*
X107335538Y-96950494D01*
X107313861Y-97010362D01*
X107290772Y-97069705D01*
X107266279Y-97128499D01*
X107240389Y-97186723D01*
X107213111Y-97244355D01*
X107184454Y-97301375D01*
X107154424Y-97357759D01*
X107123030Y-97413488D01*
X107090279Y-97468538D01*
X107056181Y-97522889D01*
X107020743Y-97576518D01*
X106983972Y-97629405D01*
X106945877Y-97681527D01*
X106923585Y-97710872D01*
X106884402Y-97760500D01*
X106843914Y-97809357D01*
X106802177Y-97857382D01*
X106759246Y-97904514D01*
X106715177Y-97950695D01*
X106670026Y-97995863D01*
X106623849Y-98039958D01*
X106589762Y-98071221D01*
X106586206Y-98074399D01*
X106583021Y-98077194D01*
X106580387Y-98079451D01*
X106578483Y-98081017D01*
X106577489Y-98081739D01*
X106577405Y-98081770D01*
X106576834Y-98081231D01*
X106575204Y-98079630D01*
X106572541Y-98076994D01*
X106568872Y-98073349D01*
X106564221Y-98068720D01*
X106558616Y-98063134D01*
X106552082Y-98056617D01*
X106544646Y-98049194D01*
X106536332Y-98040892D01*
X106527167Y-98031736D01*
X106517178Y-98021753D01*
X106506389Y-98010968D01*
X106494828Y-97999408D01*
X106482519Y-97987099D01*
X106469489Y-97974065D01*
X106455765Y-97960335D01*
X106441371Y-97945933D01*
X106426334Y-97930885D01*
X106410679Y-97915218D01*
X106394434Y-97898957D01*
X106377623Y-97882128D01*
X106360273Y-97864758D01*
X106342409Y-97846872D01*
X106324059Y-97828497D01*
X106305247Y-97809658D01*
X106285999Y-97790381D01*
X106266342Y-97770692D01*
X106246302Y-97750618D01*
X106225904Y-97730184D01*
X106205174Y-97709417D01*
X106184139Y-97688341D01*
X106162825Y-97666984D01*
X106151091Y-97655226D01*
X106127827Y-97631916D01*
X106104989Y-97609035D01*
X106082597Y-97586605D01*
X106060674Y-97564648D01*
X106039240Y-97543185D01*
X106018318Y-97522237D01*
X105997930Y-97501827D01*
X105978095Y-97481975D01*
X105958838Y-97462704D01*
X105940178Y-97444035D01*
X105922138Y-97425990D01*
X105904738Y-97408590D01*
X105888002Y-97391857D01*
X105871951Y-97375812D01*
X105856605Y-97360478D01*
X105841987Y-97345875D01*
X105828118Y-97332025D01*
X105815020Y-97318950D01*
X105802715Y-97306672D01*
X105791224Y-97295211D01*
X105780569Y-97284590D01*
X105770771Y-97274830D01*
X105761852Y-97265954D01*
X105753834Y-97257981D01*
X105746738Y-97250935D01*
X105740587Y-97244836D01*
X105735400Y-97239706D01*
X105731201Y-97235567D01*
X105728010Y-97232441D01*
X105725850Y-97230348D01*
X105724742Y-97229312D01*
X105724589Y-97229195D01*
X105723720Y-97229833D01*
X105721882Y-97231251D01*
X105719306Y-97233269D01*
X105716222Y-97235707D01*
X105714532Y-97237051D01*
X105676637Y-97266270D01*
X105637825Y-97294285D01*
X105598150Y-97321062D01*
X105557667Y-97346570D01*
X105516431Y-97370776D01*
X105474496Y-97393646D01*
X105431917Y-97415149D01*
X105388749Y-97435252D01*
X105365519Y-97445384D01*
X105321274Y-97463396D01*
X105276493Y-97479976D01*
X105231213Y-97495114D01*
X105185474Y-97508800D01*
X105139312Y-97521026D01*
X105092768Y-97531782D01*
X105045879Y-97541060D01*
X104998684Y-97548850D01*
X104951222Y-97555143D01*
X104903530Y-97559931D01*
X104872140Y-97562249D01*
X104842124Y-97563819D01*
X104811225Y-97564803D01*
X104779873Y-97565199D01*
X104748500Y-97565007D01*
X104717536Y-97564227D01*
X104687414Y-97562861D01*
X104677476Y-97562264D01*
X104629359Y-97558424D01*
X104581517Y-97553075D01*
X104533970Y-97546221D01*
X104486739Y-97537869D01*
X104439845Y-97528022D01*
X104393307Y-97516686D01*
X104347147Y-97503866D01*
X104301385Y-97489568D01*
X104256040Y-97473795D01*
X104211135Y-97456554D01*
X104166689Y-97437850D01*
X104152996Y-97431750D01*
X104146475Y-97428755D01*
X104138842Y-97425161D01*
X104130343Y-97421091D01*
X104121224Y-97416665D01*
X104111729Y-97412007D01*
X104102103Y-97407237D01*
X104092592Y-97402477D01*
X104083442Y-97397848D01*
X104074897Y-97393473D01*
X104067203Y-97389473D01*
X104060605Y-97385970D01*
X104059491Y-97385368D01*
X104017203Y-97361582D01*
X103975804Y-97336555D01*
X103935315Y-97310307D01*
X103895757Y-97282854D01*
X103857151Y-97254216D01*
X103819520Y-97224409D01*
X103782885Y-97193452D01*
X103747266Y-97161362D01*
X103712686Y-97128158D01*
X103679165Y-97093858D01*
X103646726Y-97058478D01*
X103615389Y-97022038D01*
X103594607Y-96996518D01*
X103565156Y-96958321D01*
X103537015Y-96919340D01*
X103510196Y-96879604D01*
X103484710Y-96839142D01*
X103460569Y-96797982D01*
X103437782Y-96756153D01*
X103416363Y-96713684D01*
X103396322Y-96670604D01*
X103377670Y-96626941D01*
X103360419Y-96582723D01*
X103344579Y-96537980D01*
X103330163Y-96492740D01*
X103317181Y-96447032D01*
X103305646Y-96400884D01*
X103295567Y-96354326D01*
X103286956Y-96307385D01*
X103279826Y-96260090D01*
X103274186Y-96212471D01*
X103270706Y-96173526D01*
X103270047Y-96164749D01*
X103269481Y-96156826D01*
X103268994Y-96149493D01*
X103268573Y-96142487D01*
X103268207Y-96135546D01*
X103267881Y-96128406D01*
X103267584Y-96120805D01*
X103267301Y-96112480D01*
X103267022Y-96103169D01*
X103266732Y-96092607D01*
X103266705Y-96091616D01*
X103266616Y-96086656D01*
G37*
G36*
X38767666Y-46257113D02*
G01*
X38825482Y-46257547D01*
X38865221Y-46259083D01*
X38891220Y-46262416D01*
X38907813Y-46268244D01*
X38919336Y-46277263D01*
X38930124Y-46290172D01*
X38934563Y-46296065D01*
X38938587Y-46302975D01*
X38942067Y-46312300D01*
X38945034Y-46325646D01*
X38947522Y-46344621D01*
X38949565Y-46370833D01*
X38951195Y-46405887D01*
X38952447Y-46451391D01*
X38953354Y-46508953D01*
X38953948Y-46580179D01*
X38954264Y-46666677D01*
X38954334Y-46770053D01*
X38954192Y-46891915D01*
X38953872Y-47033869D01*
X38953406Y-47197524D01*
X38952828Y-47384485D01*
X38952243Y-47557109D01*
X38951537Y-47728055D01*
X38950751Y-47876843D01*
X38949856Y-48004929D01*
X38948826Y-48113769D01*
X38947633Y-48204818D01*
X38946250Y-48279532D01*
X38944649Y-48339367D01*
X38942802Y-48385779D01*
X38940683Y-48420224D01*
X38938263Y-48444157D01*
X38935516Y-48459035D01*
X38932413Y-48466312D01*
X38914348Y-48474925D01*
X38876090Y-48481913D01*
X38823628Y-48486596D01*
X38762446Y-48488973D01*
X38698025Y-48489046D01*
X38635849Y-48486814D01*
X38581399Y-48482278D01*
X38540157Y-48475437D01*
X38517607Y-48466292D01*
X38516416Y-48465157D01*
X38512555Y-48460132D01*
X38509183Y-48452295D01*
X38506268Y-48440070D01*
X38503775Y-48421876D01*
X38501672Y-48396135D01*
X38499926Y-48361268D01*
X38498503Y-48315697D01*
X38497372Y-48257842D01*
X38496499Y-48186125D01*
X38495850Y-48098966D01*
X38495393Y-47994788D01*
X38495096Y-47872011D01*
X38494924Y-47729056D01*
X38494845Y-47564344D01*
X38494826Y-47376297D01*
X38494832Y-47225289D01*
X38494876Y-47056153D01*
X38494994Y-46909081D01*
X38495222Y-46782484D01*
X38495597Y-46674773D01*
X38496155Y-46584360D01*
X38496931Y-46509655D01*
X38497963Y-46449069D01*
X38499286Y-46401013D01*
X38500936Y-46363899D01*
X38502950Y-46336138D01*
X38505364Y-46316140D01*
X38508214Y-46302316D01*
X38511536Y-46293078D01*
X38515366Y-46286838D01*
X38519740Y-46282004D01*
X38530284Y-46273058D01*
X38545293Y-46265902D01*
X38567872Y-46261255D01*
X38602355Y-46258589D01*
X38653079Y-46257377D01*
X38724378Y-46257090D01*
X38767666Y-46257113D01*
G37*
G36*
X40859604Y-46257098D02*
G01*
X41004500Y-46257216D01*
X41127113Y-46257513D01*
X41229360Y-46258039D01*
X41313156Y-46258844D01*
X41380417Y-46259978D01*
X41433059Y-46261491D01*
X41472998Y-46263432D01*
X41502150Y-46265852D01*
X41522430Y-46268801D01*
X41535755Y-46272327D01*
X41544041Y-46276482D01*
X41548420Y-46279662D01*
X41557873Y-46288884D01*
X41564353Y-46302332D01*
X41568419Y-46324143D01*
X41570629Y-46358456D01*
X41571546Y-46409407D01*
X41571727Y-46481134D01*
X41571700Y-46502801D01*
X41570995Y-46571745D01*
X41569058Y-46620663D01*
X41565518Y-46653426D01*
X41560006Y-46673904D01*
X41552151Y-46685970D01*
X41550471Y-46687525D01*
X41538803Y-46694097D01*
X41519154Y-46698901D01*
X41488140Y-46702191D01*
X41442374Y-46704225D01*
X41378471Y-46705258D01*
X41293044Y-46705545D01*
X41216144Y-46705916D01*
X41140820Y-46707480D01*
X41087270Y-46710364D01*
X41053762Y-46714668D01*
X41038563Y-46720494D01*
X41037654Y-46721869D01*
X41034680Y-46734456D01*
X41032115Y-46760043D01*
X41029937Y-46799955D01*
X41028124Y-46855514D01*
X41026651Y-46928045D01*
X41025497Y-47018871D01*
X41024640Y-47129316D01*
X41024055Y-47260704D01*
X41023721Y-47414357D01*
X41023615Y-47591600D01*
X41023595Y-47704791D01*
X41023474Y-47857774D01*
X41023208Y-47988715D01*
X41022758Y-48099349D01*
X41022086Y-48191408D01*
X41021152Y-48266628D01*
X41019918Y-48326743D01*
X41018345Y-48373487D01*
X41016394Y-48408593D01*
X41014027Y-48433797D01*
X41011205Y-48450832D01*
X41007888Y-48461433D01*
X41004039Y-48467333D01*
X41002392Y-48468871D01*
X40988967Y-48476387D01*
X40966328Y-48481566D01*
X40930553Y-48484790D01*
X40877720Y-48486443D01*
X40803907Y-48486909D01*
X40782317Y-48486821D01*
X40716775Y-48485444D01*
X40661067Y-48482640D01*
X40620219Y-48478724D01*
X40599255Y-48474013D01*
X40599100Y-48473930D01*
X40594444Y-48470758D01*
X40590433Y-48465465D01*
X40587021Y-48456297D01*
X40584158Y-48441501D01*
X40581797Y-48419324D01*
X40579890Y-48388012D01*
X40578387Y-48345813D01*
X40577241Y-48290972D01*
X40576404Y-48221737D01*
X40575828Y-48136354D01*
X40575463Y-48033070D01*
X40575262Y-47910132D01*
X40575177Y-47765787D01*
X40575160Y-47598280D01*
X40575149Y-47538041D01*
X40574973Y-47367863D01*
X40574564Y-47220853D01*
X40573900Y-47095691D01*
X40572958Y-46991058D01*
X40571715Y-46905635D01*
X40570150Y-46838102D01*
X40568239Y-46787141D01*
X40565961Y-46751432D01*
X40563292Y-46729656D01*
X40560211Y-46720494D01*
X40549500Y-46715718D01*
X40519828Y-46711115D01*
X40470463Y-46707953D01*
X40399675Y-46706130D01*
X40305731Y-46705545D01*
X40286691Y-46705535D01*
X40205857Y-46705119D01*
X40145866Y-46703905D01*
X40103333Y-46701640D01*
X40074873Y-46698066D01*
X40057098Y-46692928D01*
X40046623Y-46685970D01*
X40044337Y-46683428D01*
X40037126Y-46669549D01*
X40032162Y-46646251D01*
X40029074Y-46609663D01*
X40027493Y-46555914D01*
X40027048Y-46481134D01*
X40027065Y-46451820D01*
X40027453Y-46388288D01*
X40028785Y-46343997D01*
X40031619Y-46314808D01*
X40036515Y-46296584D01*
X40044033Y-46285188D01*
X40054734Y-46276482D01*
X40057360Y-46274854D01*
X40067303Y-46270939D01*
X40083002Y-46267634D01*
X40106371Y-46264889D01*
X40139327Y-46262654D01*
X40183786Y-46260878D01*
X40241664Y-46259513D01*
X40314876Y-46258508D01*
X40405338Y-46257813D01*
X40514967Y-46257378D01*
X40645678Y-46257154D01*
X40799387Y-46257090D01*
X40859604Y-46257098D01*
G37*
G36*
X44187691Y-47123046D02*
G01*
X44187708Y-47182164D01*
X44187715Y-47369228D01*
X44187715Y-47374926D01*
X44187674Y-47563347D01*
X44187538Y-47728457D01*
X44187278Y-47871817D01*
X44186866Y-47994985D01*
X44186276Y-48099522D01*
X44185478Y-48186985D01*
X44184446Y-48258936D01*
X44183152Y-48316933D01*
X44181567Y-48362537D01*
X44179665Y-48397305D01*
X44177417Y-48422799D01*
X44174796Y-48440576D01*
X44171774Y-48452198D01*
X44168323Y-48459223D01*
X44164122Y-48464915D01*
X44154772Y-48473851D01*
X44140775Y-48479969D01*
X44118079Y-48483803D01*
X44082630Y-48485883D01*
X44030374Y-48486741D01*
X43957259Y-48486909D01*
X43917831Y-48486878D01*
X43855655Y-48486431D01*
X43812311Y-48485029D01*
X43783747Y-48482138D01*
X43765908Y-48477228D01*
X43754742Y-48469767D01*
X43746195Y-48459223D01*
X43741916Y-48451287D01*
X43737567Y-48436577D01*
X43734118Y-48414089D01*
X43731471Y-48381377D01*
X43729527Y-48335992D01*
X43728187Y-48275485D01*
X43727352Y-48197409D01*
X43726923Y-48099317D01*
X43726803Y-47978759D01*
X43726803Y-47525980D01*
X43699391Y-47529961D01*
X43697752Y-47530396D01*
X43685808Y-47539178D01*
X43666809Y-47559930D01*
X43639826Y-47593929D01*
X43603933Y-47642450D01*
X43558202Y-47706772D01*
X43501705Y-47788172D01*
X43433515Y-47887925D01*
X43352705Y-48007311D01*
X43033431Y-48480680D01*
X42808257Y-48484071D01*
X42777056Y-48484504D01*
X42696603Y-48484906D01*
X42636968Y-48483328D01*
X42595073Y-48479019D01*
X42567843Y-48471230D01*
X42552201Y-48459210D01*
X42545072Y-48442209D01*
X42543379Y-48419476D01*
X42546713Y-48409842D01*
X42563322Y-48379941D01*
X42592851Y-48332885D01*
X42634164Y-48270384D01*
X42686124Y-48194148D01*
X42747593Y-48105887D01*
X42817435Y-48007311D01*
X42826072Y-47995209D01*
X42886990Y-47909577D01*
X42942879Y-47830557D01*
X42992158Y-47760421D01*
X43033241Y-47701438D01*
X43064547Y-47655881D01*
X43084491Y-47626022D01*
X43091491Y-47614131D01*
X43082270Y-47604364D01*
X43056635Y-47586472D01*
X43020342Y-47564680D01*
X42958536Y-47523897D01*
X42873119Y-47444426D01*
X42801697Y-47347791D01*
X42746621Y-47237393D01*
X42710245Y-47116629D01*
X42700100Y-47053224D01*
X42699080Y-46985830D01*
X43166234Y-46985830D01*
X43172836Y-47046475D01*
X43201574Y-47120056D01*
X43251763Y-47182892D01*
X43321947Y-47232676D01*
X43326463Y-47235031D01*
X43351014Y-47245545D01*
X43379764Y-47252955D01*
X43417892Y-47257993D01*
X43470575Y-47261388D01*
X43542994Y-47263871D01*
X43610440Y-47265273D01*
X43661594Y-47265061D01*
X43694690Y-47262844D01*
X43713243Y-47258378D01*
X43720768Y-47251414D01*
X43721329Y-47248923D01*
X43722995Y-47225466D01*
X43724135Y-47182185D01*
X43724705Y-47123046D01*
X43724658Y-47052013D01*
X43723950Y-46973051D01*
X43720574Y-46711774D01*
X43546175Y-46711896D01*
X43502417Y-46712042D01*
X43442824Y-46713093D01*
X43400093Y-46715679D01*
X43369112Y-46720414D01*
X43344768Y-46727911D01*
X43321947Y-46738783D01*
X43267815Y-46774705D01*
X43212312Y-46834595D01*
X43177986Y-46905708D01*
X43166234Y-46985830D01*
X42699080Y-46985830D01*
X42698231Y-46929794D01*
X42719100Y-46809762D01*
X42761262Y-46695384D01*
X42823275Y-46588914D01*
X42903696Y-46492608D01*
X43001082Y-46408721D01*
X43113990Y-46339508D01*
X43240976Y-46287223D01*
X43245842Y-46285698D01*
X43268842Y-46279736D01*
X43296518Y-46274889D01*
X43331761Y-46270994D01*
X43377463Y-46267888D01*
X43436514Y-46265407D01*
X43511806Y-46263391D01*
X43606230Y-46261675D01*
X43722677Y-46260097D01*
X43812126Y-46259030D01*
X43906921Y-46258052D01*
X43981530Y-46257634D01*
X44038610Y-46257902D01*
X44080817Y-46258982D01*
X44110811Y-46261000D01*
X44131248Y-46264084D01*
X44144785Y-46268360D01*
X44154079Y-46273954D01*
X44161789Y-46280993D01*
X44166149Y-46285607D01*
X44170170Y-46291431D01*
X44173658Y-46299829D01*
X44176650Y-46312395D01*
X44179184Y-46330726D01*
X44181298Y-46356417D01*
X44183031Y-46391065D01*
X44184419Y-46436264D01*
X44185502Y-46493612D01*
X44186317Y-46564702D01*
X44186903Y-46651133D01*
X44187296Y-46754498D01*
X44187536Y-46876395D01*
X44187661Y-47018418D01*
X44187691Y-47123046D01*
G37*
G36*
X49605435Y-46251602D02*
G01*
X49645186Y-46260216D01*
X49666418Y-46273965D01*
X49668396Y-46277170D01*
X49680116Y-46300823D01*
X49700082Y-46344195D01*
X49727335Y-46405046D01*
X49760921Y-46481135D01*
X49799882Y-46570223D01*
X49843262Y-46670068D01*
X49890105Y-46778430D01*
X49939452Y-46893069D01*
X49990349Y-47011744D01*
X50041839Y-47132214D01*
X50092965Y-47252239D01*
X50142770Y-47369579D01*
X50190298Y-47481993D01*
X50234592Y-47587241D01*
X50274697Y-47683081D01*
X50309654Y-47767274D01*
X50338509Y-47837579D01*
X50360303Y-47891756D01*
X50374082Y-47927563D01*
X50378887Y-47942761D01*
X50378800Y-47957272D01*
X50377253Y-47971479D01*
X50372117Y-47983068D01*
X50361260Y-47992306D01*
X50342549Y-47999459D01*
X50313852Y-48004794D01*
X50273035Y-48008577D01*
X50217968Y-48011074D01*
X50146516Y-48012552D01*
X50056548Y-48013278D01*
X49945931Y-48013519D01*
X49812532Y-48013539D01*
X49689852Y-48013609D01*
X49581831Y-48013886D01*
X49494475Y-48014451D01*
X49425593Y-48015385D01*
X49373000Y-48016768D01*
X49334506Y-48018680D01*
X49307924Y-48021204D01*
X49291065Y-48024419D01*
X49281743Y-48028405D01*
X49277767Y-48033244D01*
X49276243Y-48041273D01*
X49273851Y-48072187D01*
X49271937Y-48120515D01*
X49270666Y-48181492D01*
X49270206Y-48250353D01*
X49270119Y-48290678D01*
X49269268Y-48357199D01*
X49267232Y-48404378D01*
X49263672Y-48435963D01*
X49258251Y-48455699D01*
X49250631Y-48467333D01*
X49248322Y-48469430D01*
X49234562Y-48476718D01*
X49211436Y-48481737D01*
X49175059Y-48484859D01*
X49121548Y-48486459D01*
X49047020Y-48486909D01*
X48991639Y-48486745D01*
X48934501Y-48485764D01*
X48895150Y-48483499D01*
X48869473Y-48479496D01*
X48853354Y-48473305D01*
X48842680Y-48464473D01*
X48837223Y-48456751D01*
X48830849Y-48439430D01*
X48826207Y-48411848D01*
X48822924Y-48370341D01*
X48820629Y-48311247D01*
X48818949Y-48230903D01*
X48815523Y-48019768D01*
X48728603Y-48016020D01*
X48717032Y-48015512D01*
X48672994Y-48012480D01*
X48641370Y-48005659D01*
X48620105Y-47991527D01*
X48607143Y-47966563D01*
X48600429Y-47927247D01*
X48597907Y-47870058D01*
X48597523Y-47791476D01*
X48597528Y-47780059D01*
X48598215Y-47702826D01*
X48601253Y-47646711D01*
X48608324Y-47608348D01*
X48621109Y-47584370D01*
X48641287Y-47571411D01*
X48670540Y-47566105D01*
X48710549Y-47565084D01*
X48711926Y-47565085D01*
X48746829Y-47565422D01*
X48773465Y-47564364D01*
X48792943Y-47558971D01*
X48806376Y-47546304D01*
X48814874Y-47523425D01*
X48819550Y-47487395D01*
X48821514Y-47435275D01*
X48821877Y-47364126D01*
X48821751Y-47271010D01*
X48821638Y-47213791D01*
X48821595Y-47127174D01*
X48823353Y-47061149D01*
X48828783Y-47012936D01*
X48839754Y-46979760D01*
X48858138Y-46958844D01*
X48885804Y-46947410D01*
X48924624Y-46942681D01*
X48976468Y-46941880D01*
X49043207Y-46942230D01*
X49074064Y-46942114D01*
X49136915Y-46941816D01*
X49184758Y-46943769D01*
X49219626Y-46950802D01*
X49243552Y-46965744D01*
X49258569Y-46991423D01*
X49266709Y-47030670D01*
X49270007Y-47086313D01*
X49270495Y-47161180D01*
X49270206Y-47258101D01*
X49270247Y-47290622D01*
X49271000Y-47384008D01*
X49272775Y-47454845D01*
X49275664Y-47504939D01*
X49279760Y-47536100D01*
X49285155Y-47550136D01*
X49288565Y-47552430D01*
X49311523Y-47558122D01*
X49354729Y-47562059D01*
X49419724Y-47564345D01*
X49508049Y-47565084D01*
X49515637Y-47565083D01*
X49591198Y-47564763D01*
X49645694Y-47563655D01*
X49682666Y-47561423D01*
X49705655Y-47557731D01*
X49718201Y-47552243D01*
X49723847Y-47544625D01*
X49722580Y-47535336D01*
X49712428Y-47503825D01*
X49693011Y-47451901D01*
X49664873Y-47380910D01*
X49628561Y-47292199D01*
X49584621Y-47187114D01*
X49533598Y-47067001D01*
X49476038Y-46933208D01*
X49459790Y-46895606D01*
X49411283Y-46782775D01*
X49366222Y-46677125D01*
X49325539Y-46580891D01*
X49290164Y-46496311D01*
X49261029Y-46425620D01*
X49239066Y-46371054D01*
X49225205Y-46334851D01*
X49220378Y-46319246D01*
X49221562Y-46305002D01*
X49230150Y-46286511D01*
X49249969Y-46273150D01*
X49284440Y-46263707D01*
X49336983Y-46256972D01*
X49411018Y-46251732D01*
X49463616Y-46249190D01*
X49545475Y-46247976D01*
X49605435Y-46251602D01*
G37*
G36*
X47615991Y-47401689D02*
G01*
X47616161Y-47451746D01*
X47595525Y-47607102D01*
X47553689Y-47758900D01*
X47490620Y-47904812D01*
X47414446Y-48029185D01*
X47406284Y-48042511D01*
X47300649Y-48169668D01*
X47227394Y-48245955D01*
X47320747Y-48381546D01*
X47327492Y-48391384D01*
X47361370Y-48442213D01*
X47388881Y-48485787D01*
X47407350Y-48517747D01*
X47414100Y-48533731D01*
X47414007Y-48535125D01*
X47404308Y-48555669D01*
X47383524Y-48580903D01*
X47370606Y-48592690D01*
X47353160Y-48602818D01*
X47329114Y-48608478D01*
X47292364Y-48610941D01*
X47236810Y-48611480D01*
X47203996Y-48611273D01*
X47149675Y-48608231D01*
X47110299Y-48598805D01*
X47079118Y-48579545D01*
X47049387Y-48547001D01*
X47014358Y-48497723D01*
X47003191Y-48481584D01*
X46976893Y-48447810D01*
X46957824Y-48432114D01*
X46942759Y-48431512D01*
X46859828Y-48463260D01*
X46704926Y-48506694D01*
X46550952Y-48530129D01*
X46403278Y-48532559D01*
X46324569Y-48525349D01*
X46160668Y-48493159D01*
X46006101Y-48439562D01*
X45862495Y-48366177D01*
X45731473Y-48274620D01*
X45614660Y-48166509D01*
X45513680Y-48043464D01*
X45430158Y-47907101D01*
X45365718Y-47759038D01*
X45321984Y-47600893D01*
X45300581Y-47434285D01*
X45300375Y-47415599D01*
X45761240Y-47415599D01*
X45762646Y-47434654D01*
X45784879Y-47562503D01*
X45829110Y-47679347D01*
X45895974Y-47786510D01*
X45986106Y-47885320D01*
X46016553Y-47912602D01*
X46099182Y-47973975D01*
X46186551Y-48018494D01*
X46287798Y-48051183D01*
X46302760Y-48054758D01*
X46367703Y-48065684D01*
X46436760Y-48071298D01*
X46505139Y-48071871D01*
X46568047Y-48067674D01*
X46620692Y-48058980D01*
X46658281Y-48046060D01*
X46676022Y-48029185D01*
X46674184Y-48023665D01*
X46660542Y-47999560D01*
X46635061Y-47958870D01*
X46599348Y-47903924D01*
X46555011Y-47837052D01*
X46503659Y-47760584D01*
X46446900Y-47676847D01*
X46386341Y-47588172D01*
X46323591Y-47496888D01*
X46260258Y-47405323D01*
X46197950Y-47315808D01*
X46138276Y-47230671D01*
X46082843Y-47152241D01*
X46033259Y-47082848D01*
X45991133Y-47024822D01*
X45958072Y-46980490D01*
X45935686Y-46952183D01*
X45925581Y-46942230D01*
X45913934Y-46945240D01*
X45892061Y-46964468D01*
X45865699Y-47003259D01*
X45833270Y-47063686D01*
X45789927Y-47169458D01*
X45764160Y-47289219D01*
X45761240Y-47415599D01*
X45300375Y-47415599D01*
X45299543Y-47340127D01*
X45316592Y-47180673D01*
X45356037Y-47023376D01*
X45416503Y-46872115D01*
X45493076Y-46737014D01*
X46197138Y-46737014D01*
X46198118Y-46740002D01*
X46210006Y-46760678D01*
X46234272Y-46799018D01*
X46269619Y-46853083D01*
X46314752Y-46920931D01*
X46368377Y-47000622D01*
X46429197Y-47090216D01*
X46495917Y-47187774D01*
X46567242Y-47291354D01*
X46600652Y-47339643D01*
X46690372Y-47468511D01*
X46767986Y-47578693D01*
X46833232Y-47669832D01*
X46885851Y-47741569D01*
X46925581Y-47793549D01*
X46952162Y-47825415D01*
X46965333Y-47836808D01*
X46986033Y-47831055D01*
X47014173Y-47805586D01*
X47044898Y-47763908D01*
X47075871Y-47710130D01*
X47104759Y-47648361D01*
X47129225Y-47582711D01*
X47146934Y-47517287D01*
X47153587Y-47483222D01*
X47163043Y-47401689D01*
X47160597Y-47323066D01*
X47146218Y-47234972D01*
X47111135Y-47118650D01*
X47052785Y-47003888D01*
X46975162Y-46902140D01*
X46880398Y-46815706D01*
X46770629Y-46746886D01*
X46647989Y-46697981D01*
X46586261Y-46684726D01*
X46503524Y-46676950D01*
X46416923Y-46677074D01*
X46335644Y-46685031D01*
X46268875Y-46700752D01*
X46239966Y-46711846D01*
X46210263Y-46726282D01*
X46197138Y-46737014D01*
X45493076Y-46737014D01*
X45496614Y-46730771D01*
X45594996Y-46603224D01*
X45658842Y-46532046D01*
X45591393Y-46435053D01*
X45588218Y-46430486D01*
X45549456Y-46374092D01*
X45523327Y-46333732D01*
X45508052Y-46305474D01*
X45501856Y-46285384D01*
X45502962Y-46269529D01*
X45509593Y-46253976D01*
X45521910Y-46234347D01*
X45538059Y-46216795D01*
X45539633Y-46216013D01*
X45561444Y-46212185D01*
X45600204Y-46209476D01*
X45649157Y-46207938D01*
X45701546Y-46207628D01*
X45750613Y-46208598D01*
X45789603Y-46210903D01*
X45811758Y-46214597D01*
X45823266Y-46223205D01*
X45845580Y-46248517D01*
X45870132Y-46283111D01*
X45888088Y-46309631D01*
X45907557Y-46334634D01*
X45918825Y-46344290D01*
X45919040Y-46344282D01*
X45935124Y-46339196D01*
X45966945Y-46326503D01*
X46007841Y-46308854D01*
X46045859Y-46292291D01*
X46108882Y-46267482D01*
X46166806Y-46249644D01*
X46225624Y-46237702D01*
X46291328Y-46230582D01*
X46369910Y-46227210D01*
X46467362Y-46226514D01*
X46525118Y-46226761D01*
X46591442Y-46227694D01*
X46641866Y-46229835D01*
X46681723Y-46233770D01*
X46716349Y-46240090D01*
X46751078Y-46249382D01*
X46791246Y-46262234D01*
X46885035Y-46296712D01*
X47029976Y-46366394D01*
X47159455Y-46451889D01*
X47277502Y-46555631D01*
X47296652Y-46575228D01*
X47402514Y-46703055D01*
X47487375Y-46841289D01*
X47551204Y-46987602D01*
X47593967Y-47139668D01*
X47615630Y-47295159D01*
X47615991Y-47401689D01*
G37*
%TD*%
D11*
%TO.C,ISO1*%
X253682500Y-38893750D03*
X253682500Y-62706250D03*
D12*
X268922500Y-38893750D03*
X268922500Y-62706250D03*
%TD*%
D13*
%TO.C,J1*%
X237159115Y-30137500D03*
X231379115Y-30137500D03*
D14*
X238589114Y-30667499D03*
D15*
X238589114Y-26487499D03*
D14*
X229949114Y-30667499D03*
D15*
X229949114Y-26487499D03*
%TD*%
D16*
%TO.C,MX51*%
X225901250Y-98425000D03*
D11*
X230981250Y-98425000D03*
D16*
X236061250Y-98425000D03*
D17*
X227171250Y-95885000D03*
X233521250Y-93345000D03*
%TD*%
D16*
%TO.C,MX23*%
X235426250Y-60325000D03*
D11*
X240506250Y-60325000D03*
D16*
X245586250Y-60325000D03*
D17*
X236696250Y-57785000D03*
X243046250Y-55245000D03*
%TD*%
D16*
%TO.C,MX55*%
X254476250Y-98425000D03*
D11*
X259556250Y-98425000D03*
D16*
X264636250Y-98425000D03*
D17*
X255746250Y-95885000D03*
X262096250Y-93345000D03*
%TD*%
D16*
%TO.C,MX43*%
X68738750Y-98425000D03*
D11*
X73818750Y-98425000D03*
D16*
X78898750Y-98425000D03*
D17*
X70008750Y-95885000D03*
X76358750Y-93345000D03*
%TD*%
D16*
%TO.C,MXshift2.1*%
X42545000Y-79375000D03*
D11*
X47625000Y-79375000D03*
D16*
X52705000Y-79375000D03*
D17*
X43815000Y-76835000D03*
X50165000Y-74295000D03*
%TD*%
D16*
%TO.C,MX27*%
X73501250Y-79375000D03*
D11*
X78581250Y-79375000D03*
D16*
X83661250Y-79375000D03*
D17*
X74771250Y-76835000D03*
X81121250Y-74295000D03*
%TD*%
D16*
%TO.C,MX11*%
X230663750Y-41275000D03*
D11*
X235743750Y-41275000D03*
D16*
X240823750Y-41275000D03*
D17*
X231933750Y-38735000D03*
X238283750Y-36195000D03*
%TD*%
D16*
%TO.C,MX46*%
X83026250Y-98425000D03*
D11*
X88106250Y-98425000D03*
D16*
X93186250Y-98425000D03*
D17*
X84296250Y-95885000D03*
X90646250Y-93345000D03*
%TD*%
D16*
%TO.C,MXenter2.1*%
X247332500Y-60325000D03*
D11*
X252412500Y-60325000D03*
D16*
X257492500Y-60325000D03*
D17*
X248602500Y-57785000D03*
X254952500Y-55245000D03*
%TD*%
D18*
%TO.C,S2*%
X207168750Y-105410000D03*
D11*
X207168750Y-90170000D03*
D18*
X92868750Y-105410000D03*
D11*
X92868750Y-90170000D03*
%TD*%
D16*
%TO.C,MX49*%
X206851250Y-98425000D03*
D11*
X211931250Y-98425000D03*
D16*
X217011250Y-98425000D03*
D17*
X208121250Y-95885000D03*
X214471250Y-93345000D03*
%TD*%
D16*
%TO.C,MX31*%
X149701250Y-79375000D03*
D11*
X154781250Y-79375000D03*
D16*
X159861250Y-79375000D03*
D17*
X150971250Y-76835000D03*
X157321250Y-74295000D03*
%TD*%
D16*
%TO.C,MX16*%
X102076250Y-60325000D03*
D11*
X107156250Y-60325000D03*
D16*
X112236250Y-60325000D03*
D17*
X103346250Y-57785000D03*
X109696250Y-55245000D03*
%TD*%
D16*
%TO.C,MX38*%
X259238750Y-79375000D03*
D11*
X264318750Y-79375000D03*
D16*
X269398750Y-79375000D03*
D17*
X260508750Y-76835000D03*
X266858750Y-74295000D03*
%TD*%
D16*
%TO.C,MX35*%
X225901250Y-79375000D03*
D11*
X230981250Y-79375000D03*
D16*
X236061250Y-79375000D03*
D17*
X227171250Y-76835000D03*
X233521250Y-74295000D03*
%TD*%
D16*
%TO.C,MXsplit2.75(1)1*%
X166370000Y-98425000D03*
D11*
X171450000Y-98425000D03*
D16*
X176530000Y-98425000D03*
D17*
X167640000Y-95885000D03*
X173990000Y-93345000D03*
%TD*%
D18*
%TO.C,shift2.2*%
X35718750Y-72390000D03*
D11*
X35718750Y-87630000D03*
D18*
X59531250Y-72390000D03*
D11*
X59531250Y-87630000D03*
%TD*%
D16*
%TO.C,MX8*%
X173513750Y-41275000D03*
D11*
X178593750Y-41275000D03*
D16*
X183673750Y-41275000D03*
D17*
X174783750Y-38735000D03*
X181133750Y-36195000D03*
%TD*%
D16*
%TO.C,MX13*%
X37782500Y-60325000D03*
D11*
X42862500Y-60325000D03*
D16*
X47942500Y-60325000D03*
D17*
X39052500Y-57785000D03*
X45402500Y-55245000D03*
%TD*%
D16*
%TO.C,MX32*%
X168751250Y-79375000D03*
D11*
X173831250Y-79375000D03*
D16*
X178911250Y-79375000D03*
D17*
X170021250Y-76835000D03*
X176371250Y-74295000D03*
%TD*%
D16*
%TO.C,MXISO1*%
X256857500Y-50800000D03*
D11*
X261937500Y-50800000D03*
D16*
X267017500Y-50800000D03*
D17*
X258127500Y-48260000D03*
X264477500Y-45720000D03*
%TD*%
D16*
%TO.C,MX21*%
X197326250Y-60325000D03*
D11*
X202406250Y-60325000D03*
D16*
X207486250Y-60325000D03*
D17*
X198596250Y-57785000D03*
X204946250Y-55245000D03*
%TD*%
D16*
%TO.C,MXsplit2.1*%
X123507500Y-98425000D03*
D11*
X128587500Y-98425000D03*
D16*
X133667500Y-98425000D03*
D17*
X124777500Y-95885000D03*
X131127500Y-93345000D03*
%TD*%
D16*
%TO.C,MX4*%
X97313750Y-41275000D03*
D11*
X102393750Y-41275000D03*
D16*
X107473750Y-41275000D03*
D17*
X98583750Y-38735000D03*
X104933750Y-36195000D03*
%TD*%
D16*
%TO.C,MX45*%
X87788750Y-98425000D03*
D11*
X92868750Y-98425000D03*
D16*
X97948750Y-98425000D03*
D17*
X89058750Y-95885000D03*
X95408750Y-93345000D03*
%TD*%
D16*
%TO.C,MX30*%
X130651250Y-79375000D03*
D11*
X135731250Y-79375000D03*
D16*
X140811250Y-79375000D03*
D17*
X131921250Y-76835000D03*
X138271250Y-74295000D03*
%TD*%
D16*
%TO.C,MX1*%
X35401250Y-41275000D03*
D11*
X40481250Y-41275000D03*
D16*
X45561250Y-41275000D03*
D17*
X36671250Y-38735000D03*
X43021250Y-36195000D03*
%TD*%
D16*
%TO.C,MX34*%
X206851250Y-79375000D03*
D11*
X211931250Y-79375000D03*
D16*
X217011250Y-79375000D03*
D17*
X208121250Y-76835000D03*
X214471250Y-74295000D03*
%TD*%
D16*
%TO.C,MX25*%
X33020000Y-79375000D03*
D11*
X38100000Y-79375000D03*
D16*
X43180000Y-79375000D03*
D17*
X34290000Y-76835000D03*
X40640000Y-74295000D03*
%TD*%
D18*
%TO.C,enter2.1*%
X264318750Y-67310000D03*
D11*
X264318750Y-52070000D03*
D18*
X240506250Y-67310000D03*
D11*
X240506250Y-52070000D03*
%TD*%
D16*
%TO.C,MX29*%
X111601250Y-79375000D03*
D11*
X116681250Y-79375000D03*
D16*
X121761250Y-79375000D03*
D17*
X112871250Y-76835000D03*
X119221250Y-74295000D03*
%TD*%
D16*
%TO.C,MX53*%
X230663750Y-98425000D03*
D11*
X235743750Y-98425000D03*
D16*
X240823750Y-98425000D03*
D17*
X231933750Y-95885000D03*
X238283750Y-93345000D03*
%TD*%
D16*
%TO.C,MX22*%
X216376250Y-60325000D03*
D11*
X221456250Y-60325000D03*
D16*
X226536250Y-60325000D03*
D17*
X217646250Y-57785000D03*
X223996250Y-55245000D03*
%TD*%
D16*
%TO.C,MX17*%
X121126250Y-60325000D03*
D11*
X126206250Y-60325000D03*
D16*
X131286250Y-60325000D03*
D17*
X122396250Y-57785000D03*
X128746250Y-55245000D03*
%TD*%
D16*
%TO.C,MX47*%
X144938750Y-98425000D03*
D11*
X150018750Y-98425000D03*
D16*
X155098750Y-98425000D03*
D17*
X146208750Y-95885000D03*
X152558750Y-93345000D03*
%TD*%
D18*
%TO.C,S1*%
X135731250Y-105410000D03*
D11*
X135731250Y-90170000D03*
D18*
X111918750Y-105410000D03*
D11*
X111918750Y-90170000D03*
%TD*%
D16*
%TO.C,MX44*%
X63976250Y-98425000D03*
D11*
X69056250Y-98425000D03*
D16*
X74136250Y-98425000D03*
D17*
X65246250Y-95885000D03*
X71596250Y-93345000D03*
%TD*%
D16*
%TO.C,MX36*%
X233045000Y-79375000D03*
D11*
X238125000Y-79375000D03*
D16*
X243205000Y-79375000D03*
D17*
X234315000Y-76835000D03*
X240665000Y-74295000D03*
%TD*%
D16*
%TO.C,MX26*%
X54451250Y-79375000D03*
D11*
X59531250Y-79375000D03*
D16*
X64611250Y-79375000D03*
D17*
X55721250Y-76835000D03*
X62071250Y-74295000D03*
%TD*%
D16*
%TO.C,MX3*%
X78263750Y-41275000D03*
D11*
X83343750Y-41275000D03*
D16*
X88423750Y-41275000D03*
D17*
X79533750Y-38735000D03*
X85883750Y-36195000D03*
%TD*%
D18*
%TO.C,S4*%
X188118750Y-105410000D03*
D11*
X188118750Y-90170000D03*
D18*
X164306250Y-105410000D03*
D11*
X164306250Y-90170000D03*
%TD*%
D16*
%TO.C,MX37*%
X252095000Y-79375000D03*
D11*
X257175000Y-79375000D03*
D16*
X262255000Y-79375000D03*
D17*
X253365000Y-76835000D03*
X259715000Y-74295000D03*
%TD*%
D16*
%TO.C,MX24*%
X256857500Y-60325000D03*
D11*
X261937500Y-60325000D03*
D16*
X267017500Y-60325000D03*
D17*
X258127500Y-57785000D03*
X264477500Y-55245000D03*
%TD*%
D18*
%TO.C,S3*%
X183356250Y-105410000D03*
D11*
X183356250Y-90170000D03*
D18*
X159543750Y-105410000D03*
D11*
X159543750Y-90170000D03*
%TD*%
D16*
%TO.C,MX42*%
X59213750Y-98425000D03*
D11*
X64293750Y-98425000D03*
D16*
X69373750Y-98425000D03*
D17*
X60483750Y-95885000D03*
X66833750Y-93345000D03*
%TD*%
D16*
%TO.C,MX33*%
X187801250Y-79375000D03*
D11*
X192881250Y-79375000D03*
D16*
X197961250Y-79375000D03*
D17*
X189071250Y-76835000D03*
X195421250Y-74295000D03*
%TD*%
D16*
%TO.C,MX5*%
X116363750Y-41275000D03*
D11*
X121443750Y-41275000D03*
D16*
X126523750Y-41275000D03*
D17*
X117633750Y-38735000D03*
X123983750Y-36195000D03*
%TD*%
D16*
%TO.C,MX50*%
X221138750Y-98425000D03*
D11*
X226218750Y-98425000D03*
D16*
X231298750Y-98425000D03*
D17*
X222408750Y-95885000D03*
X228758750Y-93345000D03*
%TD*%
D18*
%TO.C,S5*%
X140493750Y-105410000D03*
D11*
X140493750Y-90170000D03*
D18*
X116681250Y-105410000D03*
D11*
X116681250Y-90170000D03*
%TD*%
D16*
%TO.C,MXsplit2.25(1)1*%
X118745000Y-98425000D03*
D11*
X123825000Y-98425000D03*
D16*
X128905000Y-98425000D03*
D17*
X120015000Y-95885000D03*
X126365000Y-93345000D03*
%TD*%
D16*
%TO.C,MX28*%
X92551250Y-79375000D03*
D11*
X97631250Y-79375000D03*
D16*
X102711250Y-79375000D03*
D17*
X93821250Y-76835000D03*
X100171250Y-74295000D03*
%TD*%
D16*
%TO.C,MX18*%
X140176250Y-60325000D03*
D11*
X145256250Y-60325000D03*
D16*
X150336250Y-60325000D03*
D17*
X141446250Y-57785000D03*
X147796250Y-55245000D03*
%TD*%
D16*
%TO.C,MXcaps1*%
X33020000Y-60325000D03*
D11*
X38100000Y-60325000D03*
D16*
X43180000Y-60325000D03*
D17*
X34290000Y-57785000D03*
X40640000Y-55245000D03*
%TD*%
D16*
%TO.C,MX40*%
X35401250Y-98425000D03*
D11*
X40481250Y-98425000D03*
D16*
X45561250Y-98425000D03*
D17*
X36671250Y-95885000D03*
X43021250Y-93345000D03*
%TD*%
D16*
%TO.C,MX15*%
X83026250Y-60325000D03*
D11*
X88106250Y-60325000D03*
D16*
X93186250Y-60325000D03*
D17*
X84296250Y-57785000D03*
X90646250Y-55245000D03*
%TD*%
D16*
%TO.C,MX54*%
X259238750Y-98425000D03*
D11*
X264318750Y-98425000D03*
D16*
X269398750Y-98425000D03*
D17*
X260508750Y-95885000D03*
X266858750Y-93345000D03*
%TD*%
D16*
%TO.C,MX39*%
X30638750Y-98425000D03*
D11*
X35718750Y-98425000D03*
D16*
X40798750Y-98425000D03*
D17*
X31908750Y-95885000D03*
X38258750Y-93345000D03*
%TD*%
D18*
%TO.C,shift2.1*%
X235743750Y-72390000D03*
D11*
X235743750Y-87630000D03*
D18*
X259556250Y-72390000D03*
D11*
X259556250Y-87630000D03*
%TD*%
D16*
%TO.C,MX10*%
X211613750Y-41275000D03*
D11*
X216693750Y-41275000D03*
D16*
X221773750Y-41275000D03*
D17*
X212883750Y-38735000D03*
X219233750Y-36195000D03*
%TD*%
D16*
%TO.C,MX9*%
X192563750Y-41275000D03*
D11*
X197643750Y-41275000D03*
D16*
X202723750Y-41275000D03*
D17*
X193833750Y-38735000D03*
X200183750Y-36195000D03*
%TD*%
D16*
%TO.C,MX52*%
X240188750Y-98425000D03*
D11*
X245268750Y-98425000D03*
D16*
X250348750Y-98425000D03*
D17*
X241458750Y-95885000D03*
X247808750Y-93345000D03*
%TD*%
D16*
%TO.C,MX20*%
X178276250Y-60325000D03*
D11*
X183356250Y-60325000D03*
D16*
X188436250Y-60325000D03*
D17*
X179546250Y-57785000D03*
X185896250Y-55245000D03*
%TD*%
D16*
%TO.C,MX6*%
X135413750Y-41275000D03*
D11*
X140493750Y-41275000D03*
D16*
X145573750Y-41275000D03*
D17*
X136683750Y-38735000D03*
X143033750Y-36195000D03*
%TD*%
D16*
%TO.C,MXshift2.2*%
X242570000Y-79375000D03*
D11*
X247650000Y-79375000D03*
D16*
X252730000Y-79375000D03*
D17*
X243840000Y-76835000D03*
X250190000Y-74295000D03*
%TD*%
D16*
%TO.C,MX12*%
X254476250Y-41275000D03*
D11*
X259556250Y-41275000D03*
D16*
X264636250Y-41275000D03*
D17*
X255746250Y-38735000D03*
X262096250Y-36195000D03*
%TD*%
D16*
%TO.C,MX19*%
X159226250Y-60325000D03*
D11*
X164306250Y-60325000D03*
D16*
X169386250Y-60325000D03*
D17*
X160496250Y-57785000D03*
X166846250Y-55245000D03*
%TD*%
D16*
%TO.C,MXsplit2.2*%
X171132500Y-98425000D03*
D11*
X176212500Y-98425000D03*
D16*
X181292500Y-98425000D03*
D17*
X172402500Y-95885000D03*
X178752500Y-93345000D03*
%TD*%
D16*
%TO.C,MX7*%
X154463750Y-41275000D03*
D11*
X159543750Y-41275000D03*
D16*
X164623750Y-41275000D03*
D17*
X155733750Y-38735000D03*
X162083750Y-36195000D03*
%TD*%
D16*
%TO.C,MX14*%
X63976250Y-60325000D03*
D11*
X69056250Y-60325000D03*
D16*
X74136250Y-60325000D03*
D17*
X65246250Y-57785000D03*
X71596250Y-55245000D03*
%TD*%
D16*
%TO.C,MX48*%
X202088750Y-98425000D03*
D11*
X207168750Y-98425000D03*
D16*
X212248750Y-98425000D03*
D17*
X203358750Y-95885000D03*
X209708750Y-93345000D03*
%TD*%
D16*
%TO.C,MX41*%
X49688750Y-98425000D03*
D11*
X54768750Y-98425000D03*
D16*
X59848750Y-98425000D03*
D17*
X50958750Y-95885000D03*
X57308750Y-93345000D03*
%TD*%
D16*
%TO.C,MX2*%
X59213750Y-41275000D03*
D11*
X64293750Y-41275000D03*
D16*
X69373750Y-41275000D03*
D17*
X60483750Y-38735000D03*
X66833750Y-36195000D03*
%TD*%
D19*
%TO.C,LED2*%
X28660000Y-68935000D03*
X29760000Y-68935000D03*
X29760000Y-70765000D03*
X28660000Y-70765000D03*
%TD*%
D20*
%TO.C,D29*%
X119856250Y-80775000D03*
X119856250Y-77975000D03*
%TD*%
%TO.C,D36*%
X267493750Y-80775000D03*
X267493750Y-77975000D03*
%TD*%
%TO.C,D13*%
X46037500Y-61725000D03*
X46037500Y-58925000D03*
%TD*%
D21*
%TO.C,LED10*%
X150933750Y-34375000D03*
X150933750Y-35475000D03*
X149103750Y-35475000D03*
X149103750Y-34375000D03*
%TD*%
D20*
%TO.C,D41*%
X131762500Y-99825000D03*
X131762500Y-97025000D03*
%TD*%
%TO.C,D20*%
X186531250Y-61725000D03*
X186531250Y-58925000D03*
%TD*%
%TO.C,D26*%
X62706250Y-80775000D03*
X62706250Y-77975000D03*
%TD*%
D22*
%TO.C,R1*%
X244475000Y-35687500D03*
X244475000Y-37337500D03*
%TD*%
D20*
%TO.C,D22*%
X224631250Y-61725000D03*
X224631250Y-58925000D03*
%TD*%
D21*
%TO.C,LED7*%
X93783750Y-33581250D03*
X93783750Y-34681250D03*
X91953750Y-34681250D03*
X91953750Y-33581250D03*
%TD*%
D20*
%TO.C,D32*%
X177006250Y-80775000D03*
X177006250Y-77975000D03*
%TD*%
D23*
%TO.C,R2*%
X227043750Y-33537500D03*
X225393750Y-33537500D03*
%TD*%
D21*
%TO.C,LED9*%
X131883750Y-33581250D03*
X131883750Y-34681250D03*
X130053750Y-34681250D03*
X130053750Y-33581250D03*
%TD*%
%TO.C,LED12*%
X189033750Y-33581250D03*
X189033750Y-34681250D03*
X187203750Y-34681250D03*
X187203750Y-33581250D03*
%TD*%
D20*
%TO.C,D15*%
X91281250Y-61725000D03*
X91281250Y-58925000D03*
%TD*%
%TO.C,D40*%
X96043750Y-99825000D03*
X96043750Y-97025000D03*
%TD*%
D21*
%TO.C,LED13*%
X207290000Y-33581250D03*
X207290000Y-34681250D03*
X205460000Y-34681250D03*
X205460000Y-33581250D03*
%TD*%
D20*
%TO.C,D31*%
X157956250Y-80775000D03*
X157956250Y-77975000D03*
%TD*%
%TO.C,D21*%
X205581250Y-61725000D03*
X205581250Y-58925000D03*
%TD*%
%TO.C,D4*%
X105568750Y-42675000D03*
X105568750Y-39875000D03*
%TD*%
%TO.C,D9*%
X200818750Y-42675000D03*
X200818750Y-39875000D03*
%TD*%
%TO.C,D34*%
X215106250Y-80775000D03*
X215106250Y-77975000D03*
%TD*%
%TO.C,D24*%
X265112500Y-61912500D03*
X265112500Y-59112500D03*
%TD*%
%TO.C,D27*%
X81756250Y-80775000D03*
X81756250Y-77975000D03*
%TD*%
D24*
%TO.C,LED17*%
X271060000Y-70765000D03*
X269960000Y-70765000D03*
X269960000Y-68935000D03*
X271060000Y-68935000D03*
%TD*%
D20*
%TO.C,D16*%
X110331250Y-61725000D03*
X110331250Y-58925000D03*
%TD*%
D21*
%TO.C,LED6*%
X74733750Y-33581250D03*
X74733750Y-34681250D03*
X72903750Y-34681250D03*
X72903750Y-33581250D03*
%TD*%
D20*
%TO.C,D3*%
X86518750Y-42487500D03*
X86518750Y-39687500D03*
%TD*%
D25*
%TO.C,U4*%
X53361566Y-59637816D03*
X52411566Y-59637816D03*
X51461566Y-59637816D03*
X51461566Y-57362816D03*
X53361566Y-57362816D03*
%TD*%
D20*
%TO.C,D42*%
X153193750Y-99825000D03*
X153193750Y-97025000D03*
%TD*%
%TO.C,D28*%
X100806250Y-80775000D03*
X100806250Y-77975000D03*
%TD*%
D26*
%TO.C,SW1*%
X53899999Y-65618749D03*
X47699999Y-65618749D03*
X53899999Y-69318749D03*
X47699999Y-69318749D03*
%TD*%
D20*
%TO.C,D10*%
X219868750Y-42675000D03*
X219868750Y-39875000D03*
%TD*%
D21*
%TO.C,LED5*%
X53302500Y-33581250D03*
X53302500Y-34681250D03*
X51472500Y-34681250D03*
X51472500Y-33581250D03*
%TD*%
D27*
%TO.C,C7*%
X70105094Y-77012500D03*
X70105094Y-78562500D03*
%TD*%
D28*
%TO.C,C4*%
X63254258Y-67223008D03*
X62158242Y-66126992D03*
%TD*%
D29*
%TO.C,D_PWR1*%
X227868750Y-42862500D03*
X224568750Y-42862500D03*
%TD*%
D20*
%TO.C,D38*%
X47625000Y-99825000D03*
X47625000Y-97025000D03*
%TD*%
D19*
%TO.C,LED3*%
X28660000Y-49885000D03*
X29760000Y-49885000D03*
X29760000Y-51715000D03*
X28660000Y-51715000D03*
%TD*%
D20*
%TO.C,D44*%
X215106250Y-99825000D03*
X215106250Y-97025000D03*
%TD*%
%TO.C,D2*%
X67468750Y-42487500D03*
X67468750Y-39687500D03*
%TD*%
D30*
%TO.C,C8*%
X77012500Y-70643750D03*
X78562500Y-70643750D03*
%TD*%
D20*
%TO.C,D23*%
X243681250Y-61725000D03*
X243681250Y-58925000D03*
%TD*%
%TO.C,D1*%
X43656250Y-42487500D03*
X43656250Y-39687500D03*
%TD*%
%TO.C,D39*%
X76993750Y-99825000D03*
X76993750Y-97025000D03*
%TD*%
%TO.C,D30*%
X138906250Y-80775000D03*
X138906250Y-77975000D03*
%TD*%
D21*
%TO.C,LED14*%
X248565000Y-33581250D03*
X248565000Y-34681250D03*
X246735000Y-34681250D03*
X246735000Y-33581250D03*
%TD*%
D24*
%TO.C,LED18*%
X271060000Y-89815000D03*
X269960000Y-89815000D03*
X269960000Y-87985000D03*
X271060000Y-87985000D03*
%TD*%
D31*
%TO.C,U2*%
X74737876Y-70848788D03*
X74384322Y-71202342D03*
X74030769Y-71555895D03*
X73677215Y-71909449D03*
X73323662Y-72263002D03*
X72970109Y-72616555D03*
X72616555Y-72970109D03*
X72263002Y-73323662D03*
X71909449Y-73677215D03*
X71555895Y-74030769D03*
X71202342Y-74384322D03*
X70848788Y-74737876D03*
D32*
X68851212Y-74737876D03*
X68497658Y-74384322D03*
X68144105Y-74030769D03*
X67790551Y-73677215D03*
X67436998Y-73323662D03*
X67083445Y-72970109D03*
X66729891Y-72616555D03*
X66376338Y-72263002D03*
X66022785Y-71909449D03*
X65669231Y-71555895D03*
X65315678Y-71202342D03*
X64962124Y-70848788D03*
D31*
X64962124Y-68851212D03*
X65315678Y-68497658D03*
X65669231Y-68144105D03*
X66022785Y-67790551D03*
X66376338Y-67436998D03*
X66729891Y-67083445D03*
X67083445Y-66729891D03*
X67436998Y-66376338D03*
X67790551Y-66022785D03*
X68144105Y-65669231D03*
X68497658Y-65315678D03*
X68851212Y-64962124D03*
D32*
X70848788Y-64962124D03*
X71202342Y-65315678D03*
X71555895Y-65669231D03*
X71909449Y-66022785D03*
X72263002Y-66376338D03*
X72616555Y-66729891D03*
X72970109Y-67083445D03*
X73323662Y-67436998D03*
X73677215Y-67790551D03*
X74030769Y-68144105D03*
X74384322Y-68497658D03*
X74737876Y-68851212D03*
%TD*%
D24*
%TO.C,LED16*%
X271060000Y-51715000D03*
X269960000Y-51715000D03*
X269960000Y-49885000D03*
X271060000Y-49885000D03*
%TD*%
D20*
%TO.C,D8*%
X181768750Y-42675000D03*
X181768750Y-39875000D03*
%TD*%
D33*
%TO.C,U3*%
X60440000Y-59357500D03*
X58540000Y-59357500D03*
X59490000Y-57482500D03*
%TD*%
D20*
%TO.C,D11*%
X238918750Y-42675000D03*
X238918750Y-39875000D03*
%TD*%
%TO.C,D25*%
X50800000Y-80775000D03*
X50800000Y-77975000D03*
%TD*%
D21*
%TO.C,LED15*%
X269996250Y-34375000D03*
X269996250Y-35475000D03*
X268166250Y-35475000D03*
X268166250Y-34375000D03*
%TD*%
%TO.C,LED4*%
X31871250Y-34375000D03*
X31871250Y-35475000D03*
X30041250Y-35475000D03*
X30041250Y-34375000D03*
%TD*%
D20*
%TO.C,D35*%
X227806250Y-81568750D03*
X227806250Y-78768750D03*
%TD*%
%TO.C,D12*%
X262731250Y-42675000D03*
X262731250Y-39875000D03*
%TD*%
%TO.C,D6*%
X143668750Y-42675000D03*
X143668750Y-39875000D03*
%TD*%
D34*
%TO.C,U1*%
X221118613Y-50692270D03*
X221118613Y-49742270D03*
X221118613Y-48792270D03*
X223393613Y-48792270D03*
X223393613Y-49742270D03*
X223393613Y-50692270D03*
%TD*%
D20*
%TO.C,D17*%
X129381250Y-61725000D03*
X129381250Y-58925000D03*
%TD*%
%TO.C,D7*%
X162718750Y-42675000D03*
X162718750Y-39875000D03*
%TD*%
D21*
%TO.C,LED8*%
X112833750Y-33581250D03*
X112833750Y-34681250D03*
X111003750Y-34681250D03*
X111003750Y-33581250D03*
%TD*%
D35*
%TO.C,C2*%
X60265808Y-61249873D03*
X58715808Y-61249873D03*
%TD*%
D20*
%TO.C,D5*%
X124618750Y-42675000D03*
X124618750Y-39875000D03*
%TD*%
%TO.C,D18*%
X148431250Y-61725000D03*
X148431250Y-58925000D03*
%TD*%
D36*
%TO.C,R3*%
X56356250Y-69087500D03*
X56356250Y-67437500D03*
%TD*%
D20*
%TO.C,D45*%
X219075000Y-99825000D03*
X219075000Y-97025000D03*
%TD*%
D37*
%TO.C,C5*%
X66494471Y-64398395D03*
X67590487Y-63302379D03*
%TD*%
D20*
%TO.C,D14*%
X72231250Y-61725000D03*
X72231250Y-58925000D03*
%TD*%
D38*
%TO.C,C10*%
X55024896Y-58799878D03*
X55024896Y-57249878D03*
%TD*%
D39*
%TO.C,F1*%
X224818750Y-40481250D03*
X227618750Y-40481250D03*
%TD*%
D20*
%TO.C,D47*%
X267493750Y-99825000D03*
X267493750Y-97025000D03*
%TD*%
D21*
%TO.C,LED11*%
X170777500Y-33581250D03*
X170777500Y-34681250D03*
X168947500Y-34681250D03*
X168947500Y-33581250D03*
%TD*%
D19*
%TO.C,LED1*%
X28660000Y-87985000D03*
X29760000Y-87985000D03*
X29760000Y-89815000D03*
X28660000Y-89815000D03*
%TD*%
D27*
%TO.C,C9*%
X71737281Y-77025116D03*
X71737281Y-78575116D03*
%TD*%
D20*
%TO.C,D46*%
X248443750Y-99825000D03*
X248443750Y-97025000D03*
%TD*%
%TO.C,D33*%
X196056250Y-80775000D03*
X196056250Y-77975000D03*
%TD*%
%TO.C,D43*%
X179387500Y-99825000D03*
X179387500Y-97025000D03*
%TD*%
%TO.C,D19*%
X167481250Y-61725000D03*
X167481250Y-58925000D03*
%TD*%
%TO.C,D37*%
X43656250Y-99825000D03*
X43656250Y-97025000D03*
%TD*%
D35*
%TO.C,C1*%
X60265000Y-55457500D03*
X58715000Y-55457500D03*
%TD*%
D30*
%TO.C,C6*%
X77012500Y-68281250D03*
X78562500Y-68281250D03*
%TD*%
D37*
%TO.C,C3*%
X65336300Y-63265551D03*
X66432316Y-62169535D03*
%TD*%
M02*
