%TF.GenerationSoftware,KiCad,Pcbnew,(7.0.0)*%
%TF.CreationDate,2023-10-10T16:54:36+02:00*%
%TF.ProjectId,mekanical,6d656b61-6e69-4636-916c-2e6b69636164,rev?*%
%TF.SameCoordinates,Original*%
%TF.FileFunction,Paste,Bot*%
%TF.FilePolarity,Positive*%
%FSLAX46Y46*%
G04 Gerber Fmt 4.6, Leading zero omitted, Abs format (unit mm)*
G04 Created by KiCad (PCBNEW (7.0.0)) date 2023-10-10 16:54:36*
%MOMM*%
%LPD*%
G01*
G04 APERTURE LIST*
G04 Aperture macros list*
%AMRoundRect*
0 Rectangle with rounded corners*
0 $1 Rounding radius*
0 $2 $3 $4 $5 $6 $7 $8 $9 X,Y pos of 4 corners*
0 Add a 4 corners polygon primitive as box body*
4,1,4,$2,$3,$4,$5,$6,$7,$8,$9,$2,$3,0*
0 Add four circle primitives for the rounded corners*
1,1,$1+$1,$2,$3*
1,1,$1+$1,$4,$5*
1,1,$1+$1,$6,$7*
1,1,$1+$1,$8,$9*
0 Add four rect primitives between the rounded corners*
20,1,$1+$1,$2,$3,$4,$5,0*
20,1,$1+$1,$4,$5,$6,$7,0*
20,1,$1+$1,$6,$7,$8,$9,0*
20,1,$1+$1,$8,$9,$2,$3,0*%
G04 Aperture macros list end*
%ADD10RoundRect,0.105000X-0.245000X-0.245000X0.245000X-0.245000X0.245000X0.245000X-0.245000X0.245000X0*%
%ADD11RoundRect,0.250000X0.300000X-0.300000X0.300000X0.300000X-0.300000X0.300000X-0.300000X-0.300000X0*%
%ADD12RoundRect,0.105000X0.245000X0.245000X-0.245000X0.245000X-0.245000X-0.245000X0.245000X-0.245000X0*%
%ADD13RoundRect,0.200000X-0.200000X-0.275000X0.200000X-0.275000X0.200000X0.275000X-0.200000X0.275000X0*%
%ADD14RoundRect,0.200000X0.200000X0.275000X-0.200000X0.275000X-0.200000X-0.275000X0.200000X-0.275000X0*%
%ADD15RoundRect,0.150000X0.150000X-0.512500X0.150000X0.512500X-0.150000X0.512500X-0.150000X-0.512500X0*%
%ADD16R,1.800000X1.100000*%
%ADD17RoundRect,0.225000X-0.250000X0.225000X-0.250000X-0.225000X0.250000X-0.225000X0.250000X0.225000X0*%
%ADD18RoundRect,0.225000X0.335876X0.017678X0.017678X0.335876X-0.335876X-0.017678X-0.017678X-0.335876X0*%
%ADD19RoundRect,0.225000X0.375000X-0.225000X0.375000X0.225000X-0.375000X0.225000X-0.375000X-0.225000X0*%
%ADD20RoundRect,0.225000X-0.225000X-0.250000X0.225000X-0.250000X0.225000X0.250000X-0.225000X0.250000X0*%
%ADD21RoundRect,0.070000X0.521491X-0.422496X-0.422496X0.521491X-0.521491X0.422496X0.422496X-0.521491X0*%
%ADD22RoundRect,0.070000X0.521491X0.422496X0.422496X0.521491X-0.521491X-0.422496X-0.422496X-0.521491X0*%
%ADD23RoundRect,0.150000X0.150000X-0.587500X0.150000X0.587500X-0.150000X0.587500X-0.150000X-0.587500X0*%
%ADD24RoundRect,0.225000X0.225000X0.250000X-0.225000X0.250000X-0.225000X-0.250000X0.225000X-0.250000X0*%
%ADD25RoundRect,0.200000X0.275000X-0.200000X0.275000X0.200000X-0.275000X0.200000X-0.275000X-0.200000X0*%
%ADD26RoundRect,0.225000X0.017678X-0.335876X0.335876X-0.017678X-0.017678X0.335876X-0.335876X0.017678X0*%
%ADD27RoundRect,0.225000X0.250000X-0.225000X0.250000X0.225000X-0.250000X0.225000X-0.250000X-0.225000X0*%
%ADD28RoundRect,0.250000X-0.625000X0.375000X-0.625000X-0.375000X0.625000X-0.375000X0.625000X0.375000X0*%
G04 APERTURE END LIST*
D10*
%TO.C,LED2*%
X30041250Y-70400000D03*
X30041250Y-69300000D03*
X31871250Y-69300000D03*
X31871250Y-70400000D03*
%TD*%
D11*
%TO.C,D29*%
X119856250Y-80775000D03*
X119856250Y-77975000D03*
%TD*%
%TO.C,D36*%
X267493750Y-80775000D03*
X267493750Y-77975000D03*
%TD*%
%TO.C,D13*%
X46037500Y-61725000D03*
X46037500Y-58925000D03*
%TD*%
D10*
%TO.C,LED23*%
X149103750Y-34681250D03*
X149103750Y-33581250D03*
X150933750Y-33581250D03*
X150933750Y-34681250D03*
%TD*%
D11*
%TO.C,D40*%
X131762500Y-99825000D03*
X131762500Y-97025000D03*
%TD*%
D12*
%TO.C,LED11*%
X197765000Y-105018750D03*
X197765000Y-106118750D03*
X195935000Y-106118750D03*
X195935000Y-105018750D03*
%TD*%
D11*
%TO.C,D20*%
X186531250Y-61725000D03*
X186531250Y-58925000D03*
%TD*%
%TO.C,D26*%
X62706250Y-80775000D03*
X62706250Y-77975000D03*
%TD*%
D13*
%TO.C,R1*%
X238887500Y-33337500D03*
X240537500Y-33337500D03*
%TD*%
D11*
%TO.C,D22*%
X224631250Y-61725000D03*
X224631250Y-58925000D03*
%TD*%
D12*
%TO.C,LED5*%
X46158750Y-105018750D03*
X46158750Y-106118750D03*
X44328750Y-106118750D03*
X44328750Y-105018750D03*
%TD*%
D10*
%TO.C,LED25*%
X91953750Y-34681250D03*
X91953750Y-33581250D03*
X93783750Y-33581250D03*
X93783750Y-34681250D03*
%TD*%
D12*
%TO.C,LED10*%
X174746250Y-105018750D03*
X174746250Y-106118750D03*
X172916250Y-106118750D03*
X172916250Y-105018750D03*
%TD*%
D11*
%TO.C,D32*%
X177006250Y-80775000D03*
X177006250Y-77975000D03*
%TD*%
D14*
%TO.C,R2*%
X228631250Y-33337500D03*
X226981250Y-33337500D03*
%TD*%
D10*
%TO.C,LED30*%
X130053750Y-34681250D03*
X130053750Y-33581250D03*
X131883750Y-33581250D03*
X131883750Y-34681250D03*
%TD*%
%TO.C,LED21*%
X187203750Y-34681250D03*
X187203750Y-33581250D03*
X189033750Y-33581250D03*
X189033750Y-34681250D03*
%TD*%
D12*
%TO.C,LED14*%
X269996250Y-105018750D03*
X269996250Y-106118750D03*
X268166250Y-106118750D03*
X268166250Y-105018750D03*
%TD*%
D11*
%TO.C,D15*%
X91281250Y-61725000D03*
X91281250Y-58925000D03*
%TD*%
%TO.C,D41*%
X96043750Y-99825000D03*
X96043750Y-97025000D03*
%TD*%
D12*
%TO.C,LED7*%
X84258750Y-105018750D03*
X84258750Y-106118750D03*
X82428750Y-106118750D03*
X82428750Y-105018750D03*
%TD*%
%TO.C,LED12*%
X217608750Y-105018750D03*
X217608750Y-106118750D03*
X215778750Y-106118750D03*
X215778750Y-105018750D03*
%TD*%
D10*
%TO.C,LED20*%
X205460000Y-34681250D03*
X205460000Y-33581250D03*
X207290000Y-33581250D03*
X207290000Y-34681250D03*
%TD*%
D11*
%TO.C,D31*%
X157956250Y-80775000D03*
X157956250Y-77975000D03*
%TD*%
%TO.C,D21*%
X205581250Y-61725000D03*
X205581250Y-58925000D03*
%TD*%
%TO.C,D4*%
X105568750Y-42675000D03*
X105568750Y-39875000D03*
%TD*%
%TO.C,D9*%
X200818750Y-42675000D03*
X200818750Y-39875000D03*
%TD*%
D12*
%TO.C,LED6*%
X65208750Y-105018750D03*
X65208750Y-106118750D03*
X63378750Y-106118750D03*
X63378750Y-105018750D03*
%TD*%
D11*
%TO.C,D34*%
X215106250Y-80775000D03*
X215106250Y-77975000D03*
%TD*%
%TO.C,D24*%
X265112500Y-61912500D03*
X265112500Y-59112500D03*
%TD*%
%TO.C,D27*%
X81756250Y-80775000D03*
X81756250Y-77975000D03*
%TD*%
D12*
%TO.C,LED16*%
X269996250Y-69300000D03*
X269996250Y-70400000D03*
X268166250Y-70400000D03*
X268166250Y-69300000D03*
%TD*%
D11*
%TO.C,D16*%
X110331250Y-61725000D03*
X110331250Y-58925000D03*
%TD*%
D10*
%TO.C,LED26*%
X72903750Y-34681250D03*
X72903750Y-33581250D03*
X74733750Y-33581250D03*
X74733750Y-34681250D03*
%TD*%
D11*
%TO.C,D3*%
X86518750Y-42487500D03*
X86518750Y-39687500D03*
%TD*%
D15*
%TO.C,U4*%
X54925000Y-55112500D03*
X53975000Y-55112500D03*
X53025000Y-55112500D03*
X53025000Y-52837500D03*
X54925000Y-52837500D03*
%TD*%
D11*
%TO.C,D42*%
X153193750Y-99825000D03*
X153193750Y-97025000D03*
%TD*%
%TO.C,D28*%
X100806250Y-80775000D03*
X100806250Y-77975000D03*
%TD*%
D16*
%TO.C,SW2*%
X53899999Y-65618749D03*
X47699999Y-65618749D03*
X53899999Y-69318749D03*
X47699999Y-69318749D03*
%TD*%
D11*
%TO.C,D10*%
X219868750Y-42675000D03*
X219868750Y-39875000D03*
%TD*%
D10*
%TO.C,LED31*%
X51472500Y-34681250D03*
X51472500Y-33581250D03*
X53302500Y-33581250D03*
X53302500Y-34681250D03*
%TD*%
D12*
%TO.C,LED8*%
X103308750Y-105018750D03*
X103308750Y-106118750D03*
X101478750Y-106118750D03*
X101478750Y-105018750D03*
%TD*%
D17*
%TO.C,C8*%
X70105094Y-77012500D03*
X70105094Y-78562500D03*
%TD*%
D18*
%TO.C,C5*%
X63254258Y-69604258D03*
X62158242Y-68508242D03*
%TD*%
D19*
%TO.C,D_PWR1*%
X235493750Y-36172840D03*
X235493750Y-32872840D03*
%TD*%
D11*
%TO.C,D38*%
X57943750Y-99825000D03*
X57943750Y-97025000D03*
%TD*%
D10*
%TO.C,LED1*%
X30041250Y-51350000D03*
X30041250Y-50250000D03*
X31871250Y-50250000D03*
X31871250Y-51350000D03*
%TD*%
D11*
%TO.C,D43*%
X210343750Y-99825000D03*
X210343750Y-97025000D03*
%TD*%
%TO.C,D2*%
X67468750Y-42487500D03*
X67468750Y-39687500D03*
%TD*%
D20*
%TO.C,C9*%
X77012500Y-70643750D03*
X78562500Y-70643750D03*
%TD*%
D11*
%TO.C,D23*%
X243681250Y-61725000D03*
X243681250Y-58925000D03*
%TD*%
%TO.C,D1*%
X43656250Y-42487500D03*
X43656250Y-39687500D03*
%TD*%
%TO.C,D39*%
X76993750Y-99825000D03*
X76993750Y-97025000D03*
%TD*%
%TO.C,D30*%
X138906250Y-80775000D03*
X138906250Y-77975000D03*
%TD*%
D10*
%TO.C,LED19*%
X246735000Y-34681250D03*
X246735000Y-33581250D03*
X248565000Y-33581250D03*
X248565000Y-34681250D03*
%TD*%
D12*
%TO.C,LED15*%
X269996250Y-88350000D03*
X269996250Y-89450000D03*
X268166250Y-89450000D03*
X268166250Y-88350000D03*
%TD*%
D21*
%TO.C,U3*%
X74737876Y-70848788D03*
X74384322Y-71202342D03*
X74030769Y-71555895D03*
X73677215Y-71909449D03*
X73323662Y-72263002D03*
X72970109Y-72616555D03*
X72616555Y-72970109D03*
X72263002Y-73323662D03*
X71909449Y-73677215D03*
X71555895Y-74030769D03*
X71202342Y-74384322D03*
X70848788Y-74737876D03*
D22*
X68851212Y-74737876D03*
X68497658Y-74384322D03*
X68144105Y-74030769D03*
X67790551Y-73677215D03*
X67436998Y-73323662D03*
X67083445Y-72970109D03*
X66729891Y-72616555D03*
X66376338Y-72263002D03*
X66022785Y-71909449D03*
X65669231Y-71555895D03*
X65315678Y-71202342D03*
X64962124Y-70848788D03*
D21*
X64962124Y-68851212D03*
X65315678Y-68497658D03*
X65669231Y-68144105D03*
X66022785Y-67790551D03*
X66376338Y-67436998D03*
X66729891Y-67083445D03*
X67083445Y-66729891D03*
X67436998Y-66376338D03*
X67790551Y-66022785D03*
X68144105Y-65669231D03*
X68497658Y-65315678D03*
X68851212Y-64962124D03*
D22*
X70848788Y-64962124D03*
X71202342Y-65315678D03*
X71555895Y-65669231D03*
X71909449Y-66022785D03*
X72263002Y-66376338D03*
X72616555Y-66729891D03*
X72970109Y-67083445D03*
X73323662Y-67436998D03*
X73677215Y-67790551D03*
X74030769Y-68144105D03*
X74384322Y-68497658D03*
X74737876Y-68851212D03*
%TD*%
D12*
%TO.C,LED17*%
X269996250Y-47075000D03*
X269996250Y-48175000D03*
X268166250Y-48175000D03*
X268166250Y-47075000D03*
%TD*%
D11*
%TO.C,D8*%
X181768750Y-42675000D03*
X181768750Y-39875000D03*
%TD*%
D12*
%TO.C,LED9*%
X127121250Y-105018750D03*
X127121250Y-106118750D03*
X125291250Y-106118750D03*
X125291250Y-105018750D03*
%TD*%
D23*
%TO.C,U2*%
X62068750Y-54912500D03*
X60168750Y-54912500D03*
X61118750Y-53037500D03*
%TD*%
D11*
%TO.C,D11*%
X238918750Y-42675000D03*
X238918750Y-39875000D03*
%TD*%
%TO.C,D25*%
X41275000Y-80775000D03*
X41275000Y-77975000D03*
%TD*%
D10*
%TO.C,LED18*%
X268166250Y-34681250D03*
X268166250Y-33581250D03*
X269996250Y-33581250D03*
X269996250Y-34681250D03*
%TD*%
%TO.C,LED27*%
X30041250Y-34681250D03*
X30041250Y-33581250D03*
X31871250Y-33581250D03*
X31871250Y-34681250D03*
%TD*%
D11*
%TO.C,D35*%
X227806250Y-81568750D03*
X227806250Y-78768750D03*
%TD*%
%TO.C,D12*%
X262731250Y-42675000D03*
X262731250Y-39875000D03*
%TD*%
%TO.C,D6*%
X143668750Y-42675000D03*
X143668750Y-39875000D03*
%TD*%
D15*
%TO.C,U1*%
X227962500Y-38443750D03*
X227012500Y-38443750D03*
X226062500Y-38443750D03*
X226062500Y-36168750D03*
X227012500Y-36168750D03*
X227962500Y-36168750D03*
%TD*%
D11*
%TO.C,D17*%
X129381250Y-61725000D03*
X129381250Y-58925000D03*
%TD*%
D12*
%TO.C,LED29*%
X236658750Y-105018750D03*
X236658750Y-106118750D03*
X234828750Y-106118750D03*
X234828750Y-105018750D03*
%TD*%
D11*
%TO.C,D7*%
X162718750Y-42675000D03*
X162718750Y-39875000D03*
%TD*%
D10*
%TO.C,LED24*%
X111003750Y-34681250D03*
X111003750Y-33581250D03*
X112833750Y-33581250D03*
X112833750Y-34681250D03*
%TD*%
D24*
%TO.C,C2*%
X61894558Y-56804873D03*
X60344558Y-56804873D03*
%TD*%
D12*
%TO.C,LED4*%
X31871250Y-105018750D03*
X31871250Y-106118750D03*
X30041250Y-106118750D03*
X30041250Y-105018750D03*
%TD*%
%TO.C,LED28*%
X150933750Y-105018750D03*
X150933750Y-106118750D03*
X149103750Y-106118750D03*
X149103750Y-105018750D03*
%TD*%
D11*
%TO.C,D5*%
X124618750Y-42675000D03*
X124618750Y-39875000D03*
%TD*%
%TO.C,D18*%
X148431250Y-61725000D03*
X148431250Y-58925000D03*
%TD*%
D25*
%TO.C,R6*%
X56356250Y-69087500D03*
X56356250Y-67437500D03*
%TD*%
D11*
%TO.C,D44*%
X234156250Y-99637500D03*
X234156250Y-96837500D03*
%TD*%
D26*
%TO.C,C6*%
X66494471Y-64398395D03*
X67590487Y-63302379D03*
%TD*%
D12*
%TO.C,LED13*%
X255708750Y-105018750D03*
X255708750Y-106118750D03*
X253878750Y-106118750D03*
X253878750Y-105018750D03*
%TD*%
D11*
%TO.C,D14*%
X72231250Y-61725000D03*
X72231250Y-58925000D03*
%TD*%
D27*
%TO.C,C12*%
X56588330Y-54274562D03*
X56588330Y-52724562D03*
%TD*%
D28*
%TO.C,F1*%
X230981250Y-33122840D03*
X230981250Y-35922840D03*
%TD*%
D11*
%TO.C,D46*%
X267493750Y-99825000D03*
X267493750Y-97025000D03*
%TD*%
D20*
%TO.C,C3*%
X60343749Y-58387112D03*
X61893749Y-58387112D03*
%TD*%
D10*
%TO.C,LED22*%
X168947500Y-34681250D03*
X168947500Y-33581250D03*
X170777500Y-33581250D03*
X170777500Y-34681250D03*
%TD*%
%TO.C,LED3*%
X30041250Y-89450000D03*
X30041250Y-88350000D03*
X31871250Y-88350000D03*
X31871250Y-89450000D03*
%TD*%
D17*
%TO.C,C13*%
X71737281Y-77025116D03*
X71737281Y-78575116D03*
%TD*%
D11*
%TO.C,D45*%
X248443750Y-99825000D03*
X248443750Y-97025000D03*
%TD*%
%TO.C,D33*%
X196056250Y-80775000D03*
X196056250Y-77975000D03*
%TD*%
%TO.C,D47*%
X179387500Y-99825000D03*
X179387500Y-97025000D03*
%TD*%
%TO.C,D19*%
X167481250Y-61725000D03*
X167481250Y-58925000D03*
%TD*%
%TO.C,D37*%
X43656250Y-99825000D03*
X43656250Y-97025000D03*
%TD*%
D20*
%TO.C,C1*%
X60343750Y-51012500D03*
X61893750Y-51012500D03*
%TD*%
%TO.C,C7*%
X77012500Y-68281250D03*
X78562500Y-68281250D03*
%TD*%
D26*
%TO.C,C4*%
X65211544Y-63395111D03*
X66307560Y-62299095D03*
%TD*%
M02*
