%TF.GenerationSoftware,KiCad,Pcbnew,(7.0.0)*%
%TF.CreationDate,2023-09-29T19:41:41+02:00*%
%TF.ProjectId,mekanical,6d656b61-6e69-4636-916c-2e6b69636164,rev?*%
%TF.SameCoordinates,Original*%
%TF.FileFunction,Legend,Bot*%
%TF.FilePolarity,Positive*%
%FSLAX46Y46*%
G04 Gerber Fmt 4.6, Leading zero omitted, Abs format (unit mm)*
G04 Created by KiCad (PCBNEW (7.0.0)) date 2023-09-29 19:41:41*
%MOMM*%
%LPD*%
G01*
G04 APERTURE LIST*
%ADD10C,0.150000*%
%ADD11C,0.120000*%
G04 APERTURE END LIST*
D10*
X41120181Y-62706250D02*
X41120181Y-64293750D01*
X150352082Y-100967380D02*
X149685416Y-100967380D01*
X149685416Y-100967380D02*
X150113987Y-101967380D01*
X249126189Y-82012619D02*
X249078570Y-81965000D01*
X249078570Y-81965000D02*
X248983332Y-81917380D01*
X248983332Y-81917380D02*
X248745237Y-81917380D01*
X248745237Y-81917380D02*
X248649999Y-81965000D01*
X248649999Y-81965000D02*
X248602380Y-82012619D01*
X248602380Y-82012619D02*
X248554761Y-82107857D01*
X248554761Y-82107857D02*
X248554761Y-82203095D01*
X248554761Y-82203095D02*
X248602380Y-82345952D01*
X248602380Y-82345952D02*
X249173808Y-82917380D01*
X249173808Y-82917380D02*
X248554761Y-82917380D01*
X248126189Y-82822142D02*
X248078570Y-82869761D01*
X248078570Y-82869761D02*
X248126189Y-82917380D01*
X248126189Y-82917380D02*
X248173808Y-82869761D01*
X248173808Y-82869761D02*
X248126189Y-82822142D01*
X248126189Y-82822142D02*
X248126189Y-82917380D01*
X247745237Y-81917380D02*
X247078571Y-81917380D01*
X247078571Y-81917380D02*
X247507142Y-82917380D01*
X246221428Y-81917380D02*
X246697618Y-81917380D01*
X246697618Y-81917380D02*
X246745237Y-82393571D01*
X246745237Y-82393571D02*
X246697618Y-82345952D01*
X246697618Y-82345952D02*
X246602380Y-82298333D01*
X246602380Y-82298333D02*
X246364285Y-82298333D01*
X246364285Y-82298333D02*
X246269047Y-82345952D01*
X246269047Y-82345952D02*
X246221428Y-82393571D01*
X246221428Y-82393571D02*
X246173809Y-82488809D01*
X246173809Y-82488809D02*
X246173809Y-82726904D01*
X246173809Y-82726904D02*
X246221428Y-82822142D01*
X246221428Y-82822142D02*
X246269047Y-82869761D01*
X246269047Y-82869761D02*
X246364285Y-82917380D01*
X246364285Y-82917380D02*
X246602380Y-82917380D01*
X246602380Y-82917380D02*
X246697618Y-82869761D01*
X246697618Y-82869761D02*
X246745237Y-82822142D01*
X130063689Y-101062619D02*
X130016070Y-101015000D01*
X130016070Y-101015000D02*
X129920832Y-100967380D01*
X129920832Y-100967380D02*
X129682737Y-100967380D01*
X129682737Y-100967380D02*
X129587499Y-101015000D01*
X129587499Y-101015000D02*
X129539880Y-101062619D01*
X129539880Y-101062619D02*
X129492261Y-101157857D01*
X129492261Y-101157857D02*
X129492261Y-101253095D01*
X129492261Y-101253095D02*
X129539880Y-101395952D01*
X129539880Y-101395952D02*
X130111308Y-101967380D01*
X130111308Y-101967380D02*
X129492261Y-101967380D01*
X129063689Y-101872142D02*
X129016070Y-101919761D01*
X129016070Y-101919761D02*
X129063689Y-101967380D01*
X129063689Y-101967380D02*
X129111308Y-101919761D01*
X129111308Y-101919761D02*
X129063689Y-101872142D01*
X129063689Y-101872142D02*
X129063689Y-101967380D01*
X128682737Y-100967380D02*
X128016071Y-100967380D01*
X128016071Y-100967380D02*
X128444642Y-101967380D01*
X127158928Y-100967380D02*
X127635118Y-100967380D01*
X127635118Y-100967380D02*
X127682737Y-101443571D01*
X127682737Y-101443571D02*
X127635118Y-101395952D01*
X127635118Y-101395952D02*
X127539880Y-101348333D01*
X127539880Y-101348333D02*
X127301785Y-101348333D01*
X127301785Y-101348333D02*
X127206547Y-101395952D01*
X127206547Y-101395952D02*
X127158928Y-101443571D01*
X127158928Y-101443571D02*
X127111309Y-101538809D01*
X127111309Y-101538809D02*
X127111309Y-101776904D01*
X127111309Y-101776904D02*
X127158928Y-101872142D01*
X127158928Y-101872142D02*
X127206547Y-101919761D01*
X127206547Y-101919761D02*
X127301785Y-101967380D01*
X127301785Y-101967380D02*
X127539880Y-101967380D01*
X127539880Y-101967380D02*
X127635118Y-101919761D01*
X127635118Y-101919761D02*
X127682737Y-101872142D01*
X69484821Y-101967380D02*
X70056249Y-101967380D01*
X69770535Y-101967380D02*
X69770535Y-100967380D01*
X69770535Y-100967380D02*
X69865773Y-101110238D01*
X69865773Y-101110238D02*
X69961011Y-101205476D01*
X69961011Y-101205476D02*
X70056249Y-101253095D01*
X69056249Y-101872142D02*
X69008630Y-101919761D01*
X69008630Y-101919761D02*
X69056249Y-101967380D01*
X69056249Y-101967380D02*
X69103868Y-101919761D01*
X69103868Y-101919761D02*
X69056249Y-101872142D01*
X69056249Y-101872142D02*
X69056249Y-101967380D01*
X68103869Y-100967380D02*
X68580059Y-100967380D01*
X68580059Y-100967380D02*
X68627678Y-101443571D01*
X68627678Y-101443571D02*
X68580059Y-101395952D01*
X68580059Y-101395952D02*
X68484821Y-101348333D01*
X68484821Y-101348333D02*
X68246726Y-101348333D01*
X68246726Y-101348333D02*
X68151488Y-101395952D01*
X68151488Y-101395952D02*
X68103869Y-101443571D01*
X68103869Y-101443571D02*
X68056250Y-101538809D01*
X68056250Y-101538809D02*
X68056250Y-101776904D01*
X68056250Y-101776904D02*
X68103869Y-101872142D01*
X68103869Y-101872142D02*
X68151488Y-101919761D01*
X68151488Y-101919761D02*
X68246726Y-101967380D01*
X68246726Y-101967380D02*
X68484821Y-101967380D01*
X68484821Y-101967380D02*
X68580059Y-101919761D01*
X68580059Y-101919761D02*
X68627678Y-101872142D01*
X40909821Y-101967380D02*
X41481249Y-101967380D01*
X41195535Y-101967380D02*
X41195535Y-100967380D01*
X41195535Y-100967380D02*
X41290773Y-101110238D01*
X41290773Y-101110238D02*
X41386011Y-101205476D01*
X41386011Y-101205476D02*
X41481249Y-101253095D01*
X40481249Y-101872142D02*
X40433630Y-101919761D01*
X40433630Y-101919761D02*
X40481249Y-101967380D01*
X40481249Y-101967380D02*
X40528868Y-101919761D01*
X40528868Y-101919761D02*
X40481249Y-101872142D01*
X40481249Y-101872142D02*
X40481249Y-101967380D01*
X39528869Y-100967380D02*
X40005059Y-100967380D01*
X40005059Y-100967380D02*
X40052678Y-101443571D01*
X40052678Y-101443571D02*
X40005059Y-101395952D01*
X40005059Y-101395952D02*
X39909821Y-101348333D01*
X39909821Y-101348333D02*
X39671726Y-101348333D01*
X39671726Y-101348333D02*
X39576488Y-101395952D01*
X39576488Y-101395952D02*
X39528869Y-101443571D01*
X39528869Y-101443571D02*
X39481250Y-101538809D01*
X39481250Y-101538809D02*
X39481250Y-101776904D01*
X39481250Y-101776904D02*
X39528869Y-101872142D01*
X39528869Y-101872142D02*
X39576488Y-101919761D01*
X39576488Y-101919761D02*
X39671726Y-101967380D01*
X39671726Y-101967380D02*
X39909821Y-101967380D01*
X39909821Y-101967380D02*
X40005059Y-101919761D01*
X40005059Y-101919761D02*
X40052678Y-101872142D01*
X49894939Y-82012619D02*
X49847320Y-81965000D01*
X49847320Y-81965000D02*
X49752082Y-81917380D01*
X49752082Y-81917380D02*
X49513987Y-81917380D01*
X49513987Y-81917380D02*
X49418749Y-81965000D01*
X49418749Y-81965000D02*
X49371130Y-82012619D01*
X49371130Y-82012619D02*
X49323511Y-82107857D01*
X49323511Y-82107857D02*
X49323511Y-82203095D01*
X49323511Y-82203095D02*
X49371130Y-82345952D01*
X49371130Y-82345952D02*
X49942558Y-82917380D01*
X49942558Y-82917380D02*
X49323511Y-82917380D01*
X48894939Y-82822142D02*
X48847320Y-82869761D01*
X48847320Y-82869761D02*
X48894939Y-82917380D01*
X48894939Y-82917380D02*
X48942558Y-82869761D01*
X48942558Y-82869761D02*
X48894939Y-82822142D01*
X48894939Y-82822142D02*
X48894939Y-82917380D01*
X48466368Y-82012619D02*
X48418749Y-81965000D01*
X48418749Y-81965000D02*
X48323511Y-81917380D01*
X48323511Y-81917380D02*
X48085416Y-81917380D01*
X48085416Y-81917380D02*
X47990178Y-81965000D01*
X47990178Y-81965000D02*
X47942559Y-82012619D01*
X47942559Y-82012619D02*
X47894940Y-82107857D01*
X47894940Y-82107857D02*
X47894940Y-82203095D01*
X47894940Y-82203095D02*
X47942559Y-82345952D01*
X47942559Y-82345952D02*
X48513987Y-82917380D01*
X48513987Y-82917380D02*
X47894940Y-82917380D01*
X46990178Y-81917380D02*
X47466368Y-81917380D01*
X47466368Y-81917380D02*
X47513987Y-82393571D01*
X47513987Y-82393571D02*
X47466368Y-82345952D01*
X47466368Y-82345952D02*
X47371130Y-82298333D01*
X47371130Y-82298333D02*
X47133035Y-82298333D01*
X47133035Y-82298333D02*
X47037797Y-82345952D01*
X47037797Y-82345952D02*
X46990178Y-82393571D01*
X46990178Y-82393571D02*
X46942559Y-82488809D01*
X46942559Y-82488809D02*
X46942559Y-82726904D01*
X46942559Y-82726904D02*
X46990178Y-82822142D01*
X46990178Y-82822142D02*
X47037797Y-82869761D01*
X47037797Y-82869761D02*
X47133035Y-82917380D01*
X47133035Y-82917380D02*
X47371130Y-82917380D01*
X47371130Y-82917380D02*
X47466368Y-82869761D01*
X47466368Y-82869761D02*
X47513987Y-82822142D01*
X125301189Y-101062619D02*
X125253570Y-101015000D01*
X125253570Y-101015000D02*
X125158332Y-100967380D01*
X125158332Y-100967380D02*
X124920237Y-100967380D01*
X124920237Y-100967380D02*
X124824999Y-101015000D01*
X124824999Y-101015000D02*
X124777380Y-101062619D01*
X124777380Y-101062619D02*
X124729761Y-101157857D01*
X124729761Y-101157857D02*
X124729761Y-101253095D01*
X124729761Y-101253095D02*
X124777380Y-101395952D01*
X124777380Y-101395952D02*
X125348808Y-101967380D01*
X125348808Y-101967380D02*
X124729761Y-101967380D01*
X124301189Y-101872142D02*
X124253570Y-101919761D01*
X124253570Y-101919761D02*
X124301189Y-101967380D01*
X124301189Y-101967380D02*
X124348808Y-101919761D01*
X124348808Y-101919761D02*
X124301189Y-101872142D01*
X124301189Y-101872142D02*
X124301189Y-101967380D01*
X123872618Y-101062619D02*
X123824999Y-101015000D01*
X123824999Y-101015000D02*
X123729761Y-100967380D01*
X123729761Y-100967380D02*
X123491666Y-100967380D01*
X123491666Y-100967380D02*
X123396428Y-101015000D01*
X123396428Y-101015000D02*
X123348809Y-101062619D01*
X123348809Y-101062619D02*
X123301190Y-101157857D01*
X123301190Y-101157857D02*
X123301190Y-101253095D01*
X123301190Y-101253095D02*
X123348809Y-101395952D01*
X123348809Y-101395952D02*
X123920237Y-101967380D01*
X123920237Y-101967380D02*
X123301190Y-101967380D01*
X122396428Y-100967380D02*
X122872618Y-100967380D01*
X122872618Y-100967380D02*
X122920237Y-101443571D01*
X122920237Y-101443571D02*
X122872618Y-101395952D01*
X122872618Y-101395952D02*
X122777380Y-101348333D01*
X122777380Y-101348333D02*
X122539285Y-101348333D01*
X122539285Y-101348333D02*
X122444047Y-101395952D01*
X122444047Y-101395952D02*
X122396428Y-101443571D01*
X122396428Y-101443571D02*
X122348809Y-101538809D01*
X122348809Y-101538809D02*
X122348809Y-101776904D01*
X122348809Y-101776904D02*
X122396428Y-101872142D01*
X122396428Y-101872142D02*
X122444047Y-101919761D01*
X122444047Y-101919761D02*
X122539285Y-101967380D01*
X122539285Y-101967380D02*
X122777380Y-101967380D01*
X122777380Y-101967380D02*
X122872618Y-101919761D01*
X122872618Y-101919761D02*
X122920237Y-101872142D01*
X262143749Y-54342380D02*
X262143749Y-53342380D01*
X261715178Y-54294761D02*
X261572321Y-54342380D01*
X261572321Y-54342380D02*
X261334226Y-54342380D01*
X261334226Y-54342380D02*
X261238988Y-54294761D01*
X261238988Y-54294761D02*
X261191369Y-54247142D01*
X261191369Y-54247142D02*
X261143750Y-54151904D01*
X261143750Y-54151904D02*
X261143750Y-54056666D01*
X261143750Y-54056666D02*
X261191369Y-53961428D01*
X261191369Y-53961428D02*
X261238988Y-53913809D01*
X261238988Y-53913809D02*
X261334226Y-53866190D01*
X261334226Y-53866190D02*
X261524702Y-53818571D01*
X261524702Y-53818571D02*
X261619940Y-53770952D01*
X261619940Y-53770952D02*
X261667559Y-53723333D01*
X261667559Y-53723333D02*
X261715178Y-53628095D01*
X261715178Y-53628095D02*
X261715178Y-53532857D01*
X261715178Y-53532857D02*
X261667559Y-53437619D01*
X261667559Y-53437619D02*
X261619940Y-53390000D01*
X261619940Y-53390000D02*
X261524702Y-53342380D01*
X261524702Y-53342380D02*
X261286607Y-53342380D01*
X261286607Y-53342380D02*
X261143750Y-53390000D01*
X260524702Y-53342380D02*
X260334226Y-53342380D01*
X260334226Y-53342380D02*
X260238988Y-53390000D01*
X260238988Y-53390000D02*
X260143750Y-53485238D01*
X260143750Y-53485238D02*
X260096131Y-53675714D01*
X260096131Y-53675714D02*
X260096131Y-54009047D01*
X260096131Y-54009047D02*
X260143750Y-54199523D01*
X260143750Y-54199523D02*
X260238988Y-54294761D01*
X260238988Y-54294761D02*
X260334226Y-54342380D01*
X260334226Y-54342380D02*
X260524702Y-54342380D01*
X260524702Y-54342380D02*
X260619940Y-54294761D01*
X260619940Y-54294761D02*
X260715178Y-54199523D01*
X260715178Y-54199523D02*
X260762797Y-54009047D01*
X260762797Y-54009047D02*
X260762797Y-53675714D01*
X260762797Y-53675714D02*
X260715178Y-53485238D01*
X260715178Y-53485238D02*
X260619940Y-53390000D01*
X260619940Y-53390000D02*
X260524702Y-53342380D01*
X39004761Y-82917380D02*
X39576189Y-82917380D01*
X39290475Y-82917380D02*
X39290475Y-81917380D01*
X39290475Y-81917380D02*
X39385713Y-82060238D01*
X39385713Y-82060238D02*
X39480951Y-82155476D01*
X39480951Y-82155476D02*
X39576189Y-82203095D01*
X38576189Y-82822142D02*
X38528570Y-82869761D01*
X38528570Y-82869761D02*
X38576189Y-82917380D01*
X38576189Y-82917380D02*
X38623808Y-82869761D01*
X38623808Y-82869761D02*
X38576189Y-82822142D01*
X38576189Y-82822142D02*
X38576189Y-82917380D01*
X38147618Y-82012619D02*
X38099999Y-81965000D01*
X38099999Y-81965000D02*
X38004761Y-81917380D01*
X38004761Y-81917380D02*
X37766666Y-81917380D01*
X37766666Y-81917380D02*
X37671428Y-81965000D01*
X37671428Y-81965000D02*
X37623809Y-82012619D01*
X37623809Y-82012619D02*
X37576190Y-82107857D01*
X37576190Y-82107857D02*
X37576190Y-82203095D01*
X37576190Y-82203095D02*
X37623809Y-82345952D01*
X37623809Y-82345952D02*
X38195237Y-82917380D01*
X38195237Y-82917380D02*
X37576190Y-82917380D01*
X36671428Y-81917380D02*
X37147618Y-81917380D01*
X37147618Y-81917380D02*
X37195237Y-82393571D01*
X37195237Y-82393571D02*
X37147618Y-82345952D01*
X37147618Y-82345952D02*
X37052380Y-82298333D01*
X37052380Y-82298333D02*
X36814285Y-82298333D01*
X36814285Y-82298333D02*
X36719047Y-82345952D01*
X36719047Y-82345952D02*
X36671428Y-82393571D01*
X36671428Y-82393571D02*
X36623809Y-82488809D01*
X36623809Y-82488809D02*
X36623809Y-82726904D01*
X36623809Y-82726904D02*
X36671428Y-82822142D01*
X36671428Y-82822142D02*
X36719047Y-82869761D01*
X36719047Y-82869761D02*
X36814285Y-82917380D01*
X36814285Y-82917380D02*
X37052380Y-82917380D01*
X37052380Y-82917380D02*
X37147618Y-82869761D01*
X37147618Y-82869761D02*
X37195237Y-82822142D01*
X172926189Y-101062619D02*
X172878570Y-101015000D01*
X172878570Y-101015000D02*
X172783332Y-100967380D01*
X172783332Y-100967380D02*
X172545237Y-100967380D01*
X172545237Y-100967380D02*
X172449999Y-101015000D01*
X172449999Y-101015000D02*
X172402380Y-101062619D01*
X172402380Y-101062619D02*
X172354761Y-101157857D01*
X172354761Y-101157857D02*
X172354761Y-101253095D01*
X172354761Y-101253095D02*
X172402380Y-101395952D01*
X172402380Y-101395952D02*
X172973808Y-101967380D01*
X172973808Y-101967380D02*
X172354761Y-101967380D01*
X171926189Y-101872142D02*
X171878570Y-101919761D01*
X171878570Y-101919761D02*
X171926189Y-101967380D01*
X171926189Y-101967380D02*
X171973808Y-101919761D01*
X171973808Y-101919761D02*
X171926189Y-101872142D01*
X171926189Y-101872142D02*
X171926189Y-101967380D01*
X171545237Y-100967380D02*
X170878571Y-100967380D01*
X170878571Y-100967380D02*
X171307142Y-101967380D01*
X170021428Y-100967380D02*
X170497618Y-100967380D01*
X170497618Y-100967380D02*
X170545237Y-101443571D01*
X170545237Y-101443571D02*
X170497618Y-101395952D01*
X170497618Y-101395952D02*
X170402380Y-101348333D01*
X170402380Y-101348333D02*
X170164285Y-101348333D01*
X170164285Y-101348333D02*
X170069047Y-101395952D01*
X170069047Y-101395952D02*
X170021428Y-101443571D01*
X170021428Y-101443571D02*
X169973809Y-101538809D01*
X169973809Y-101538809D02*
X169973809Y-101776904D01*
X169973809Y-101776904D02*
X170021428Y-101872142D01*
X170021428Y-101872142D02*
X170069047Y-101919761D01*
X170069047Y-101919761D02*
X170164285Y-101967380D01*
X170164285Y-101967380D02*
X170402380Y-101967380D01*
X170402380Y-101967380D02*
X170497618Y-101919761D01*
X170497618Y-101919761D02*
X170545237Y-101872142D01*
X230695535Y-82917380D02*
X231266963Y-82917380D01*
X230981249Y-82917380D02*
X230981249Y-81917380D01*
X230981249Y-81917380D02*
X231076487Y-82060238D01*
X231076487Y-82060238D02*
X231171725Y-82155476D01*
X231171725Y-82155476D02*
X231266963Y-82203095D01*
X264033035Y-82917380D02*
X264604463Y-82917380D01*
X264318749Y-82917380D02*
X264318749Y-81917380D01*
X264318749Y-81917380D02*
X264413987Y-82060238D01*
X264413987Y-82060238D02*
X264509225Y-82155476D01*
X264509225Y-82155476D02*
X264604463Y-82203095D01*
X258079761Y-82917380D02*
X258651189Y-82917380D01*
X258365475Y-82917380D02*
X258365475Y-81917380D01*
X258365475Y-81917380D02*
X258460713Y-82060238D01*
X258460713Y-82060238D02*
X258555951Y-82155476D01*
X258555951Y-82155476D02*
X258651189Y-82203095D01*
X257651189Y-82822142D02*
X257603570Y-82869761D01*
X257603570Y-82869761D02*
X257651189Y-82917380D01*
X257651189Y-82917380D02*
X257698808Y-82869761D01*
X257698808Y-82869761D02*
X257651189Y-82822142D01*
X257651189Y-82822142D02*
X257651189Y-82917380D01*
X257270237Y-81917380D02*
X256603571Y-81917380D01*
X256603571Y-81917380D02*
X257032142Y-82917380D01*
X255746428Y-81917380D02*
X256222618Y-81917380D01*
X256222618Y-81917380D02*
X256270237Y-82393571D01*
X256270237Y-82393571D02*
X256222618Y-82345952D01*
X256222618Y-82345952D02*
X256127380Y-82298333D01*
X256127380Y-82298333D02*
X255889285Y-82298333D01*
X255889285Y-82298333D02*
X255794047Y-82345952D01*
X255794047Y-82345952D02*
X255746428Y-82393571D01*
X255746428Y-82393571D02*
X255698809Y-82488809D01*
X255698809Y-82488809D02*
X255698809Y-82726904D01*
X255698809Y-82726904D02*
X255746428Y-82822142D01*
X255746428Y-82822142D02*
X255794047Y-82869761D01*
X255794047Y-82869761D02*
X255889285Y-82917380D01*
X255889285Y-82917380D02*
X256127380Y-82917380D01*
X256127380Y-82917380D02*
X256222618Y-82869761D01*
X256222618Y-82869761D02*
X256270237Y-82822142D01*
X239029761Y-82917380D02*
X239601189Y-82917380D01*
X239315475Y-82917380D02*
X239315475Y-81917380D01*
X239315475Y-81917380D02*
X239410713Y-82060238D01*
X239410713Y-82060238D02*
X239505951Y-82155476D01*
X239505951Y-82155476D02*
X239601189Y-82203095D01*
X238601189Y-82822142D02*
X238553570Y-82869761D01*
X238553570Y-82869761D02*
X238601189Y-82917380D01*
X238601189Y-82917380D02*
X238648808Y-82869761D01*
X238648808Y-82869761D02*
X238601189Y-82822142D01*
X238601189Y-82822142D02*
X238601189Y-82917380D01*
X238220237Y-81917380D02*
X237553571Y-81917380D01*
X237553571Y-81917380D02*
X237982142Y-82917380D01*
X236696428Y-81917380D02*
X237172618Y-81917380D01*
X237172618Y-81917380D02*
X237220237Y-82393571D01*
X237220237Y-82393571D02*
X237172618Y-82345952D01*
X237172618Y-82345952D02*
X237077380Y-82298333D01*
X237077380Y-82298333D02*
X236839285Y-82298333D01*
X236839285Y-82298333D02*
X236744047Y-82345952D01*
X236744047Y-82345952D02*
X236696428Y-82393571D01*
X236696428Y-82393571D02*
X236648809Y-82488809D01*
X236648809Y-82488809D02*
X236648809Y-82726904D01*
X236648809Y-82726904D02*
X236696428Y-82822142D01*
X236696428Y-82822142D02*
X236744047Y-82869761D01*
X236744047Y-82869761D02*
X236839285Y-82917380D01*
X236839285Y-82917380D02*
X237077380Y-82917380D01*
X237077380Y-82917380D02*
X237172618Y-82869761D01*
X237172618Y-82869761D02*
X237220237Y-82822142D01*
X206883035Y-101967380D02*
X207454463Y-101967380D01*
X207168749Y-101967380D02*
X207168749Y-100967380D01*
X207168749Y-100967380D02*
X207263987Y-101110238D01*
X207263987Y-101110238D02*
X207359225Y-101205476D01*
X207359225Y-101205476D02*
X207454463Y-101253095D01*
X231409821Y-101967380D02*
X231981249Y-101967380D01*
X231695535Y-101967380D02*
X231695535Y-100967380D01*
X231695535Y-100967380D02*
X231790773Y-101110238D01*
X231790773Y-101110238D02*
X231886011Y-101205476D01*
X231886011Y-101205476D02*
X231981249Y-101253095D01*
X230981249Y-101872142D02*
X230933630Y-101919761D01*
X230933630Y-101919761D02*
X230981249Y-101967380D01*
X230981249Y-101967380D02*
X231028868Y-101919761D01*
X231028868Y-101919761D02*
X230981249Y-101872142D01*
X230981249Y-101872142D02*
X230981249Y-101967380D01*
X230028869Y-100967380D02*
X230505059Y-100967380D01*
X230505059Y-100967380D02*
X230552678Y-101443571D01*
X230552678Y-101443571D02*
X230505059Y-101395952D01*
X230505059Y-101395952D02*
X230409821Y-101348333D01*
X230409821Y-101348333D02*
X230171726Y-101348333D01*
X230171726Y-101348333D02*
X230076488Y-101395952D01*
X230076488Y-101395952D02*
X230028869Y-101443571D01*
X230028869Y-101443571D02*
X229981250Y-101538809D01*
X229981250Y-101538809D02*
X229981250Y-101776904D01*
X229981250Y-101776904D02*
X230028869Y-101872142D01*
X230028869Y-101872142D02*
X230076488Y-101919761D01*
X230076488Y-101919761D02*
X230171726Y-101967380D01*
X230171726Y-101967380D02*
X230409821Y-101967380D01*
X230409821Y-101967380D02*
X230505059Y-101919761D01*
X230505059Y-101919761D02*
X230552678Y-101872142D01*
X43767261Y-63867380D02*
X44338689Y-63867380D01*
X44052975Y-63867380D02*
X44052975Y-62867380D01*
X44052975Y-62867380D02*
X44148213Y-63010238D01*
X44148213Y-63010238D02*
X44243451Y-63105476D01*
X44243451Y-63105476D02*
X44338689Y-63153095D01*
X43338689Y-63772142D02*
X43291070Y-63819761D01*
X43291070Y-63819761D02*
X43338689Y-63867380D01*
X43338689Y-63867380D02*
X43386308Y-63819761D01*
X43386308Y-63819761D02*
X43338689Y-63772142D01*
X43338689Y-63772142D02*
X43338689Y-63867380D01*
X42957737Y-62867380D02*
X42291071Y-62867380D01*
X42291071Y-62867380D02*
X42719642Y-63867380D01*
X41433928Y-62867380D02*
X41910118Y-62867380D01*
X41910118Y-62867380D02*
X41957737Y-63343571D01*
X41957737Y-63343571D02*
X41910118Y-63295952D01*
X41910118Y-63295952D02*
X41814880Y-63248333D01*
X41814880Y-63248333D02*
X41576785Y-63248333D01*
X41576785Y-63248333D02*
X41481547Y-63295952D01*
X41481547Y-63295952D02*
X41433928Y-63343571D01*
X41433928Y-63343571D02*
X41386309Y-63438809D01*
X41386309Y-63438809D02*
X41386309Y-63676904D01*
X41386309Y-63676904D02*
X41433928Y-63772142D01*
X41433928Y-63772142D02*
X41481547Y-63819761D01*
X41481547Y-63819761D02*
X41576785Y-63867380D01*
X41576785Y-63867380D02*
X41814880Y-63867380D01*
X41814880Y-63867380D02*
X41910118Y-63819761D01*
X41910118Y-63819761D02*
X41957737Y-63772142D01*
X262842261Y-63867380D02*
X263413689Y-63867380D01*
X263127975Y-63867380D02*
X263127975Y-62867380D01*
X263127975Y-62867380D02*
X263223213Y-63010238D01*
X263223213Y-63010238D02*
X263318451Y-63105476D01*
X263318451Y-63105476D02*
X263413689Y-63153095D01*
X262413689Y-63772142D02*
X262366070Y-63819761D01*
X262366070Y-63819761D02*
X262413689Y-63867380D01*
X262413689Y-63867380D02*
X262461308Y-63819761D01*
X262461308Y-63819761D02*
X262413689Y-63772142D01*
X262413689Y-63772142D02*
X262413689Y-63867380D01*
X261985118Y-62962619D02*
X261937499Y-62915000D01*
X261937499Y-62915000D02*
X261842261Y-62867380D01*
X261842261Y-62867380D02*
X261604166Y-62867380D01*
X261604166Y-62867380D02*
X261508928Y-62915000D01*
X261508928Y-62915000D02*
X261461309Y-62962619D01*
X261461309Y-62962619D02*
X261413690Y-63057857D01*
X261413690Y-63057857D02*
X261413690Y-63153095D01*
X261413690Y-63153095D02*
X261461309Y-63295952D01*
X261461309Y-63295952D02*
X262032737Y-63867380D01*
X262032737Y-63867380D02*
X261413690Y-63867380D01*
X260508928Y-62867380D02*
X260985118Y-62867380D01*
X260985118Y-62867380D02*
X261032737Y-63343571D01*
X261032737Y-63343571D02*
X260985118Y-63295952D01*
X260985118Y-63295952D02*
X260889880Y-63248333D01*
X260889880Y-63248333D02*
X260651785Y-63248333D01*
X260651785Y-63248333D02*
X260556547Y-63295952D01*
X260556547Y-63295952D02*
X260508928Y-63343571D01*
X260508928Y-63343571D02*
X260461309Y-63438809D01*
X260461309Y-63438809D02*
X260461309Y-63676904D01*
X260461309Y-63676904D02*
X260508928Y-63772142D01*
X260508928Y-63772142D02*
X260556547Y-63819761D01*
X260556547Y-63819761D02*
X260651785Y-63867380D01*
X260651785Y-63867380D02*
X260889880Y-63867380D01*
X260889880Y-63867380D02*
X260985118Y-63819761D01*
X260985118Y-63819761D02*
X261032737Y-63772142D01*
X40909821Y-44817380D02*
X41481249Y-44817380D01*
X41195535Y-44817380D02*
X41195535Y-43817380D01*
X41195535Y-43817380D02*
X41290773Y-43960238D01*
X41290773Y-43960238D02*
X41386011Y-44055476D01*
X41386011Y-44055476D02*
X41481249Y-44103095D01*
X40481249Y-44722142D02*
X40433630Y-44769761D01*
X40433630Y-44769761D02*
X40481249Y-44817380D01*
X40481249Y-44817380D02*
X40528868Y-44769761D01*
X40528868Y-44769761D02*
X40481249Y-44722142D01*
X40481249Y-44722142D02*
X40481249Y-44817380D01*
X39528869Y-43817380D02*
X40005059Y-43817380D01*
X40005059Y-43817380D02*
X40052678Y-44293571D01*
X40052678Y-44293571D02*
X40005059Y-44245952D01*
X40005059Y-44245952D02*
X39909821Y-44198333D01*
X39909821Y-44198333D02*
X39671726Y-44198333D01*
X39671726Y-44198333D02*
X39576488Y-44245952D01*
X39576488Y-44245952D02*
X39528869Y-44293571D01*
X39528869Y-44293571D02*
X39481250Y-44388809D01*
X39481250Y-44388809D02*
X39481250Y-44626904D01*
X39481250Y-44626904D02*
X39528869Y-44722142D01*
X39528869Y-44722142D02*
X39576488Y-44769761D01*
X39576488Y-44769761D02*
X39671726Y-44817380D01*
X39671726Y-44817380D02*
X39909821Y-44817380D01*
X39909821Y-44817380D02*
X40005059Y-44769761D01*
X40005059Y-44769761D02*
X40052678Y-44722142D01*
X40814285Y-63819761D02*
X40719047Y-63867380D01*
X40719047Y-63867380D02*
X40528571Y-63867380D01*
X40528571Y-63867380D02*
X40433333Y-63819761D01*
X40433333Y-63819761D02*
X40385714Y-63724523D01*
X40385714Y-63724523D02*
X40385714Y-63676904D01*
X40385714Y-63676904D02*
X40433333Y-63581666D01*
X40433333Y-63581666D02*
X40528571Y-63534047D01*
X40528571Y-63534047D02*
X40671428Y-63534047D01*
X40671428Y-63534047D02*
X40766666Y-63486428D01*
X40766666Y-63486428D02*
X40814285Y-63391190D01*
X40814285Y-63391190D02*
X40814285Y-63343571D01*
X40814285Y-63343571D02*
X40766666Y-63248333D01*
X40766666Y-63248333D02*
X40671428Y-63200714D01*
X40671428Y-63200714D02*
X40528571Y-63200714D01*
X40528571Y-63200714D02*
X40433333Y-63248333D01*
X40099999Y-63200714D02*
X39719047Y-63200714D01*
X39957142Y-62867380D02*
X39957142Y-63724523D01*
X39957142Y-63724523D02*
X39909523Y-63819761D01*
X39909523Y-63819761D02*
X39814285Y-63867380D01*
X39814285Y-63867380D02*
X39719047Y-63867380D01*
X39004761Y-63819761D02*
X39099999Y-63867380D01*
X39099999Y-63867380D02*
X39290475Y-63867380D01*
X39290475Y-63867380D02*
X39385713Y-63819761D01*
X39385713Y-63819761D02*
X39433332Y-63724523D01*
X39433332Y-63724523D02*
X39433332Y-63343571D01*
X39433332Y-63343571D02*
X39385713Y-63248333D01*
X39385713Y-63248333D02*
X39290475Y-63200714D01*
X39290475Y-63200714D02*
X39099999Y-63200714D01*
X39099999Y-63200714D02*
X39004761Y-63248333D01*
X39004761Y-63248333D02*
X38957142Y-63343571D01*
X38957142Y-63343571D02*
X38957142Y-63438809D01*
X38957142Y-63438809D02*
X39433332Y-63534047D01*
X38528570Y-63200714D02*
X38528570Y-64200714D01*
X38528570Y-63248333D02*
X38433332Y-63200714D01*
X38433332Y-63200714D02*
X38242856Y-63200714D01*
X38242856Y-63200714D02*
X38147618Y-63248333D01*
X38147618Y-63248333D02*
X38099999Y-63295952D01*
X38099999Y-63295952D02*
X38052380Y-63391190D01*
X38052380Y-63391190D02*
X38052380Y-63676904D01*
X38052380Y-63676904D02*
X38099999Y-63772142D01*
X38099999Y-63772142D02*
X38147618Y-63819761D01*
X38147618Y-63819761D02*
X38242856Y-63867380D01*
X38242856Y-63867380D02*
X38433332Y-63867380D01*
X38433332Y-63867380D02*
X38528570Y-63819761D01*
X37623808Y-63200714D02*
X37623808Y-64200714D01*
X37623808Y-63248333D02*
X37528570Y-63200714D01*
X37528570Y-63200714D02*
X37338094Y-63200714D01*
X37338094Y-63200714D02*
X37242856Y-63248333D01*
X37242856Y-63248333D02*
X37195237Y-63295952D01*
X37195237Y-63295952D02*
X37147618Y-63391190D01*
X37147618Y-63391190D02*
X37147618Y-63676904D01*
X37147618Y-63676904D02*
X37195237Y-63772142D01*
X37195237Y-63772142D02*
X37242856Y-63819761D01*
X37242856Y-63819761D02*
X37338094Y-63867380D01*
X37338094Y-63867380D02*
X37528570Y-63867380D01*
X37528570Y-63867380D02*
X37623808Y-63819761D01*
X36338094Y-63819761D02*
X36433332Y-63867380D01*
X36433332Y-63867380D02*
X36623808Y-63867380D01*
X36623808Y-63867380D02*
X36719046Y-63819761D01*
X36719046Y-63819761D02*
X36766665Y-63724523D01*
X36766665Y-63724523D02*
X36766665Y-63343571D01*
X36766665Y-63343571D02*
X36719046Y-63248333D01*
X36719046Y-63248333D02*
X36623808Y-63200714D01*
X36623808Y-63200714D02*
X36433332Y-63200714D01*
X36433332Y-63200714D02*
X36338094Y-63248333D01*
X36338094Y-63248333D02*
X36290475Y-63343571D01*
X36290475Y-63343571D02*
X36290475Y-63438809D01*
X36290475Y-63438809D02*
X36766665Y-63534047D01*
X35433332Y-63867380D02*
X35433332Y-62867380D01*
X35433332Y-63819761D02*
X35528570Y-63867380D01*
X35528570Y-63867380D02*
X35719046Y-63867380D01*
X35719046Y-63867380D02*
X35814284Y-63819761D01*
X35814284Y-63819761D02*
X35861903Y-63772142D01*
X35861903Y-63772142D02*
X35909522Y-63676904D01*
X35909522Y-63676904D02*
X35909522Y-63391190D01*
X35909522Y-63391190D02*
X35861903Y-63295952D01*
X35861903Y-63295952D02*
X35814284Y-63248333D01*
X35814284Y-63248333D02*
X35719046Y-63200714D01*
X35719046Y-63200714D02*
X35528570Y-63200714D01*
X35528570Y-63200714D02*
X35433332Y-63248333D01*
X259984821Y-44817380D02*
X260556249Y-44817380D01*
X260270535Y-44817380D02*
X260270535Y-43817380D01*
X260270535Y-43817380D02*
X260365773Y-43960238D01*
X260365773Y-43960238D02*
X260461011Y-44055476D01*
X260461011Y-44055476D02*
X260556249Y-44103095D01*
X259556249Y-44722142D02*
X259508630Y-44769761D01*
X259508630Y-44769761D02*
X259556249Y-44817380D01*
X259556249Y-44817380D02*
X259603868Y-44769761D01*
X259603868Y-44769761D02*
X259556249Y-44722142D01*
X259556249Y-44722142D02*
X259556249Y-44817380D01*
X258603869Y-43817380D02*
X259080059Y-43817380D01*
X259080059Y-43817380D02*
X259127678Y-44293571D01*
X259127678Y-44293571D02*
X259080059Y-44245952D01*
X259080059Y-44245952D02*
X258984821Y-44198333D01*
X258984821Y-44198333D02*
X258746726Y-44198333D01*
X258746726Y-44198333D02*
X258651488Y-44245952D01*
X258651488Y-44245952D02*
X258603869Y-44293571D01*
X258603869Y-44293571D02*
X258556250Y-44388809D01*
X258556250Y-44388809D02*
X258556250Y-44626904D01*
X258556250Y-44626904D02*
X258603869Y-44722142D01*
X258603869Y-44722142D02*
X258651488Y-44769761D01*
X258651488Y-44769761D02*
X258746726Y-44817380D01*
X258746726Y-44817380D02*
X258984821Y-44817380D01*
X258984821Y-44817380D02*
X259080059Y-44769761D01*
X259080059Y-44769761D02*
X259127678Y-44722142D01*
X253888689Y-65343869D02*
X253841070Y-65296250D01*
X253841070Y-65296250D02*
X253745832Y-65248630D01*
X253745832Y-65248630D02*
X253507737Y-65248630D01*
X253507737Y-65248630D02*
X253412499Y-65296250D01*
X253412499Y-65296250D02*
X253364880Y-65343869D01*
X253364880Y-65343869D02*
X253317261Y-65439107D01*
X253317261Y-65439107D02*
X253317261Y-65534345D01*
X253317261Y-65534345D02*
X253364880Y-65677202D01*
X253364880Y-65677202D02*
X253936308Y-66248630D01*
X253936308Y-66248630D02*
X253317261Y-66248630D01*
X252888689Y-66153392D02*
X252841070Y-66201011D01*
X252841070Y-66201011D02*
X252888689Y-66248630D01*
X252888689Y-66248630D02*
X252936308Y-66201011D01*
X252936308Y-66201011D02*
X252888689Y-66153392D01*
X252888689Y-66153392D02*
X252888689Y-66248630D01*
X252460118Y-65343869D02*
X252412499Y-65296250D01*
X252412499Y-65296250D02*
X252317261Y-65248630D01*
X252317261Y-65248630D02*
X252079166Y-65248630D01*
X252079166Y-65248630D02*
X251983928Y-65296250D01*
X251983928Y-65296250D02*
X251936309Y-65343869D01*
X251936309Y-65343869D02*
X251888690Y-65439107D01*
X251888690Y-65439107D02*
X251888690Y-65534345D01*
X251888690Y-65534345D02*
X251936309Y-65677202D01*
X251936309Y-65677202D02*
X252507737Y-66248630D01*
X252507737Y-66248630D02*
X251888690Y-66248630D01*
X250983928Y-65248630D02*
X251460118Y-65248630D01*
X251460118Y-65248630D02*
X251507737Y-65724821D01*
X251507737Y-65724821D02*
X251460118Y-65677202D01*
X251460118Y-65677202D02*
X251364880Y-65629583D01*
X251364880Y-65629583D02*
X251126785Y-65629583D01*
X251126785Y-65629583D02*
X251031547Y-65677202D01*
X251031547Y-65677202D02*
X250983928Y-65724821D01*
X250983928Y-65724821D02*
X250936309Y-65820059D01*
X250936309Y-65820059D02*
X250936309Y-66058154D01*
X250936309Y-66058154D02*
X250983928Y-66153392D01*
X250983928Y-66153392D02*
X251031547Y-66201011D01*
X251031547Y-66201011D02*
X251126785Y-66248630D01*
X251126785Y-66248630D02*
X251364880Y-66248630D01*
X251364880Y-66248630D02*
X251460118Y-66201011D01*
X251460118Y-66201011D02*
X251507737Y-66153392D01*
X259984821Y-101967380D02*
X260556249Y-101967380D01*
X260270535Y-101967380D02*
X260270535Y-100967380D01*
X260270535Y-100967380D02*
X260365773Y-101110238D01*
X260365773Y-101110238D02*
X260461011Y-101205476D01*
X260461011Y-101205476D02*
X260556249Y-101253095D01*
X259556249Y-101872142D02*
X259508630Y-101919761D01*
X259508630Y-101919761D02*
X259556249Y-101967380D01*
X259556249Y-101967380D02*
X259603868Y-101919761D01*
X259603868Y-101919761D02*
X259556249Y-101872142D01*
X259556249Y-101872142D02*
X259556249Y-101967380D01*
X258603869Y-100967380D02*
X259080059Y-100967380D01*
X259080059Y-100967380D02*
X259127678Y-101443571D01*
X259127678Y-101443571D02*
X259080059Y-101395952D01*
X259080059Y-101395952D02*
X258984821Y-101348333D01*
X258984821Y-101348333D02*
X258746726Y-101348333D01*
X258746726Y-101348333D02*
X258651488Y-101395952D01*
X258651488Y-101395952D02*
X258603869Y-101443571D01*
X258603869Y-101443571D02*
X258556250Y-101538809D01*
X258556250Y-101538809D02*
X258556250Y-101776904D01*
X258556250Y-101776904D02*
X258603869Y-101872142D01*
X258603869Y-101872142D02*
X258651488Y-101919761D01*
X258651488Y-101919761D02*
X258746726Y-101967380D01*
X258746726Y-101967380D02*
X258984821Y-101967380D01*
X258984821Y-101967380D02*
X259080059Y-101919761D01*
X259080059Y-101919761D02*
X259127678Y-101872142D01*
X177688689Y-101062619D02*
X177641070Y-101015000D01*
X177641070Y-101015000D02*
X177545832Y-100967380D01*
X177545832Y-100967380D02*
X177307737Y-100967380D01*
X177307737Y-100967380D02*
X177212499Y-101015000D01*
X177212499Y-101015000D02*
X177164880Y-101062619D01*
X177164880Y-101062619D02*
X177117261Y-101157857D01*
X177117261Y-101157857D02*
X177117261Y-101253095D01*
X177117261Y-101253095D02*
X177164880Y-101395952D01*
X177164880Y-101395952D02*
X177736308Y-101967380D01*
X177736308Y-101967380D02*
X177117261Y-101967380D01*
X176688689Y-101872142D02*
X176641070Y-101919761D01*
X176641070Y-101919761D02*
X176688689Y-101967380D01*
X176688689Y-101967380D02*
X176736308Y-101919761D01*
X176736308Y-101919761D02*
X176688689Y-101872142D01*
X176688689Y-101872142D02*
X176688689Y-101967380D01*
X176260118Y-101062619D02*
X176212499Y-101015000D01*
X176212499Y-101015000D02*
X176117261Y-100967380D01*
X176117261Y-100967380D02*
X175879166Y-100967380D01*
X175879166Y-100967380D02*
X175783928Y-101015000D01*
X175783928Y-101015000D02*
X175736309Y-101062619D01*
X175736309Y-101062619D02*
X175688690Y-101157857D01*
X175688690Y-101157857D02*
X175688690Y-101253095D01*
X175688690Y-101253095D02*
X175736309Y-101395952D01*
X175736309Y-101395952D02*
X176307737Y-101967380D01*
X176307737Y-101967380D02*
X175688690Y-101967380D01*
X174783928Y-100967380D02*
X175260118Y-100967380D01*
X175260118Y-100967380D02*
X175307737Y-101443571D01*
X175307737Y-101443571D02*
X175260118Y-101395952D01*
X175260118Y-101395952D02*
X175164880Y-101348333D01*
X175164880Y-101348333D02*
X174926785Y-101348333D01*
X174926785Y-101348333D02*
X174831547Y-101395952D01*
X174831547Y-101395952D02*
X174783928Y-101443571D01*
X174783928Y-101443571D02*
X174736309Y-101538809D01*
X174736309Y-101538809D02*
X174736309Y-101776904D01*
X174736309Y-101776904D02*
X174783928Y-101872142D01*
X174783928Y-101872142D02*
X174831547Y-101919761D01*
X174831547Y-101919761D02*
X174926785Y-101967380D01*
X174926785Y-101967380D02*
X175164880Y-101967380D01*
X175164880Y-101967380D02*
X175260118Y-101919761D01*
X175260118Y-101919761D02*
X175307737Y-101872142D01*
X92583035Y-101967380D02*
X93154463Y-101967380D01*
X92868749Y-101967380D02*
X92868749Y-100967380D01*
X92868749Y-100967380D02*
X92963987Y-101110238D01*
X92963987Y-101110238D02*
X93059225Y-101205476D01*
X93059225Y-101205476D02*
X93154463Y-101253095D01*
D11*
%TO.C,LED2*%
X29456250Y-70500000D02*
X29456250Y-71000000D01*
X29456250Y-71000000D02*
X29956250Y-71000000D01*
X30556250Y-70850000D02*
X31356250Y-70850000D01*
%TO.C,D29*%
X118856250Y-81585000D02*
X118856250Y-77725000D01*
X120856250Y-81585000D02*
X118856250Y-81585000D01*
X120856250Y-81585000D02*
X120856250Y-77725000D01*
%TO.C,D36*%
X266493750Y-81585000D02*
X266493750Y-77725000D01*
X268493750Y-81585000D02*
X266493750Y-81585000D01*
X268493750Y-81585000D02*
X268493750Y-77725000D01*
%TO.C,D13*%
X45037500Y-62535000D02*
X45037500Y-58675000D01*
X47037500Y-62535000D02*
X45037500Y-62535000D01*
X47037500Y-62535000D02*
X47037500Y-58675000D01*
%TO.C,LED23*%
X148518750Y-34781250D02*
X148518750Y-35281250D01*
X148518750Y-35281250D02*
X149018750Y-35281250D01*
X149618750Y-35131250D02*
X150418750Y-35131250D01*
%TO.C,D40*%
X130762500Y-100635000D02*
X130762500Y-96775000D01*
X132762500Y-100635000D02*
X130762500Y-100635000D01*
X132762500Y-100635000D02*
X132762500Y-96775000D01*
%TO.C,LED11*%
X198350000Y-104918750D02*
X198350000Y-104418750D01*
X198350000Y-104418750D02*
X197850000Y-104418750D01*
X197250000Y-104568750D02*
X196450000Y-104568750D01*
%TO.C,D20*%
X185531250Y-62535000D02*
X185531250Y-58675000D01*
X187531250Y-62535000D02*
X185531250Y-62535000D01*
X187531250Y-62535000D02*
X187531250Y-58675000D01*
%TO.C,D26*%
X61706250Y-81585000D02*
X61706250Y-77725000D01*
X63706250Y-81585000D02*
X61706250Y-81585000D01*
X63706250Y-81585000D02*
X63706250Y-77725000D01*
%TO.C,R1*%
X239475242Y-32815000D02*
X239949758Y-32815000D01*
X239475242Y-33860000D02*
X239949758Y-33860000D01*
%TO.C,D22*%
X223631250Y-62535000D02*
X223631250Y-58675000D01*
X225631250Y-62535000D02*
X223631250Y-62535000D01*
X225631250Y-62535000D02*
X225631250Y-58675000D01*
%TO.C,LED5*%
X46743750Y-104918750D02*
X46743750Y-104418750D01*
X46743750Y-104418750D02*
X46243750Y-104418750D01*
X45643750Y-104568750D02*
X44843750Y-104568750D01*
%TO.C,LED25*%
X91368750Y-34781250D02*
X91368750Y-35281250D01*
X91368750Y-35281250D02*
X91868750Y-35281250D01*
X92468750Y-35131250D02*
X93268750Y-35131250D01*
%TO.C,LED10*%
X175331250Y-104918750D02*
X175331250Y-104418750D01*
X175331250Y-104418750D02*
X174831250Y-104418750D01*
X174231250Y-104568750D02*
X173431250Y-104568750D01*
%TO.C,D32*%
X176006250Y-81585000D02*
X176006250Y-77725000D01*
X178006250Y-81585000D02*
X176006250Y-81585000D01*
X178006250Y-81585000D02*
X178006250Y-77725000D01*
%TO.C,R2*%
X228043508Y-33860000D02*
X227568992Y-33860000D01*
X228043508Y-32815000D02*
X227568992Y-32815000D01*
%TO.C,LED30*%
X129468750Y-34781250D02*
X129468750Y-35281250D01*
X129468750Y-35281250D02*
X129968750Y-35281250D01*
X130568750Y-35131250D02*
X131368750Y-35131250D01*
%TO.C,LED21*%
X186618750Y-34781250D02*
X186618750Y-35281250D01*
X186618750Y-35281250D02*
X187118750Y-35281250D01*
X187718750Y-35131250D02*
X188518750Y-35131250D01*
%TO.C,LED14*%
X270581250Y-104918750D02*
X270581250Y-104418750D01*
X270581250Y-104418750D02*
X270081250Y-104418750D01*
X269481250Y-104568750D02*
X268681250Y-104568750D01*
%TO.C,D15*%
X90281250Y-62535000D02*
X90281250Y-58675000D01*
X92281250Y-62535000D02*
X90281250Y-62535000D01*
X92281250Y-62535000D02*
X92281250Y-58675000D01*
%TO.C,D41*%
X95043750Y-100635000D02*
X95043750Y-96775000D01*
X97043750Y-100635000D02*
X95043750Y-100635000D01*
X97043750Y-100635000D02*
X97043750Y-96775000D01*
%TO.C,LED7*%
X84843750Y-104918750D02*
X84843750Y-104418750D01*
X84843750Y-104418750D02*
X84343750Y-104418750D01*
X83743750Y-104568750D02*
X82943750Y-104568750D01*
%TO.C,LED12*%
X218193750Y-104918750D02*
X218193750Y-104418750D01*
X218193750Y-104418750D02*
X217693750Y-104418750D01*
X217093750Y-104568750D02*
X216293750Y-104568750D01*
%TO.C,LED20*%
X204875000Y-34781250D02*
X204875000Y-35281250D01*
X204875000Y-35281250D02*
X205375000Y-35281250D01*
X205975000Y-35131250D02*
X206775000Y-35131250D01*
%TO.C,D31*%
X156956250Y-81585000D02*
X156956250Y-77725000D01*
X158956250Y-81585000D02*
X156956250Y-81585000D01*
X158956250Y-81585000D02*
X158956250Y-77725000D01*
%TO.C,D21*%
X204581250Y-62535000D02*
X204581250Y-58675000D01*
X206581250Y-62535000D02*
X204581250Y-62535000D01*
X206581250Y-62535000D02*
X206581250Y-58675000D01*
%TO.C,D4*%
X104568750Y-43485000D02*
X104568750Y-39625000D01*
X106568750Y-43485000D02*
X104568750Y-43485000D01*
X106568750Y-43485000D02*
X106568750Y-39625000D01*
%TO.C,D9*%
X199818750Y-43485000D02*
X199818750Y-39625000D01*
X201818750Y-43485000D02*
X199818750Y-43485000D01*
X201818750Y-43485000D02*
X201818750Y-39625000D01*
%TO.C,LED6*%
X65793750Y-104918750D02*
X65793750Y-104418750D01*
X65793750Y-104418750D02*
X65293750Y-104418750D01*
X64693750Y-104568750D02*
X63893750Y-104568750D01*
%TO.C,D34*%
X214106250Y-81585000D02*
X214106250Y-77725000D01*
X216106250Y-81585000D02*
X214106250Y-81585000D01*
X216106250Y-81585000D02*
X216106250Y-77725000D01*
%TO.C,D24*%
X264112500Y-62722500D02*
X264112500Y-58862500D01*
X266112500Y-62722500D02*
X264112500Y-62722500D01*
X266112500Y-62722500D02*
X266112500Y-58862500D01*
%TO.C,D27*%
X80756250Y-81585000D02*
X80756250Y-77725000D01*
X82756250Y-81585000D02*
X80756250Y-81585000D01*
X82756250Y-81585000D02*
X82756250Y-77725000D01*
%TO.C,LED16*%
X270581250Y-69200000D02*
X270581250Y-68700000D01*
X270581250Y-68700000D02*
X270081250Y-68700000D01*
X269481250Y-68850000D02*
X268681250Y-68850000D01*
%TO.C,D16*%
X109331250Y-62535000D02*
X109331250Y-58675000D01*
X111331250Y-62535000D02*
X109331250Y-62535000D01*
X111331250Y-62535000D02*
X111331250Y-58675000D01*
%TO.C,LED26*%
X72318750Y-34781250D02*
X72318750Y-35281250D01*
X72318750Y-35281250D02*
X72818750Y-35281250D01*
X73418750Y-35131250D02*
X74218750Y-35131250D01*
%TO.C,D3*%
X85518750Y-43297500D02*
X85518750Y-39437500D01*
X87518750Y-43297500D02*
X85518750Y-43297500D01*
X87518750Y-43297500D02*
X87518750Y-39437500D01*
%TO.C,U4*%
X52415000Y-53975000D02*
X52415000Y-54775000D01*
X52415000Y-53975000D02*
X52415000Y-53175000D01*
X55535000Y-53975000D02*
X55535000Y-55775000D01*
X55535000Y-53975000D02*
X55535000Y-53175000D01*
%TO.C,D42*%
X152193750Y-100635000D02*
X152193750Y-96775000D01*
X154193750Y-100635000D02*
X152193750Y-100635000D01*
X154193750Y-100635000D02*
X154193750Y-96775000D01*
%TO.C,D28*%
X99806250Y-81585000D02*
X99806250Y-77725000D01*
X101806250Y-81585000D02*
X99806250Y-81585000D01*
X101806250Y-81585000D02*
X101806250Y-77725000D01*
%TO.C,SW2*%
X53520000Y-68508750D02*
X53520000Y-66428750D01*
X52250000Y-70188750D02*
X52740000Y-69698750D01*
X52250000Y-70188750D02*
X49350000Y-70188750D01*
X52250000Y-64748750D02*
X52740000Y-65238750D01*
X52250000Y-64748750D02*
X49350000Y-64748750D01*
X49350000Y-70188750D02*
X48860000Y-69698750D01*
X49350000Y-64748750D02*
X48860000Y-65238750D01*
X48080000Y-68508750D02*
X48080000Y-66428750D01*
%TO.C,D10*%
X218868750Y-43485000D02*
X218868750Y-39625000D01*
X220868750Y-43485000D02*
X218868750Y-43485000D01*
X220868750Y-43485000D02*
X220868750Y-39625000D01*
%TO.C,LED31*%
X50887500Y-34781250D02*
X50887500Y-35281250D01*
X50887500Y-35281250D02*
X51387500Y-35281250D01*
X51987500Y-35131250D02*
X52787500Y-35131250D01*
%TO.C,LED8*%
X103893750Y-104918750D02*
X103893750Y-104418750D01*
X103893750Y-104418750D02*
X103393750Y-104418750D01*
X102793750Y-104568750D02*
X101993750Y-104568750D01*
%TO.C,C8*%
X70615094Y-77646920D02*
X70615094Y-77928080D01*
X69595094Y-77646920D02*
X69595094Y-77928080D01*
%TO.C,C5*%
X62445031Y-69516280D02*
X62246220Y-69317469D01*
X63166280Y-68795031D02*
X62967469Y-68596220D01*
%TO.C,D_PWR1*%
X234493750Y-36882840D02*
X234493750Y-32872840D01*
X236493750Y-36882840D02*
X234493750Y-36882840D01*
X236493750Y-36882840D02*
X236493750Y-32872840D01*
%TO.C,D38*%
X56943750Y-100635000D02*
X56943750Y-96775000D01*
X58943750Y-100635000D02*
X56943750Y-100635000D01*
X58943750Y-100635000D02*
X58943750Y-96775000D01*
%TO.C,LED1*%
X29456250Y-51450000D02*
X29456250Y-51950000D01*
X29456250Y-51950000D02*
X29956250Y-51950000D01*
X30556250Y-51800000D02*
X31356250Y-51800000D01*
%TO.C,D43*%
X209343750Y-100635000D02*
X209343750Y-96775000D01*
X211343750Y-100635000D02*
X209343750Y-100635000D01*
X211343750Y-100635000D02*
X211343750Y-96775000D01*
%TO.C,D2*%
X66468750Y-43297500D02*
X66468750Y-39437500D01*
X68468750Y-43297500D02*
X66468750Y-43297500D01*
X68468750Y-43297500D02*
X68468750Y-39437500D01*
%TO.C,C9*%
X77646920Y-70133750D02*
X77928080Y-70133750D01*
X77646920Y-71153750D02*
X77928080Y-71153750D01*
%TO.C,D23*%
X242681250Y-62535000D02*
X242681250Y-58675000D01*
X244681250Y-62535000D02*
X242681250Y-62535000D01*
X244681250Y-62535000D02*
X244681250Y-58675000D01*
%TO.C,D1*%
X42656250Y-43297500D02*
X42656250Y-39437500D01*
X44656250Y-43297500D02*
X42656250Y-43297500D01*
X44656250Y-43297500D02*
X44656250Y-39437500D01*
%TO.C,D39*%
X75993750Y-100635000D02*
X75993750Y-96775000D01*
X77993750Y-100635000D02*
X75993750Y-100635000D01*
X77993750Y-100635000D02*
X77993750Y-96775000D01*
%TO.C,D30*%
X137906250Y-81585000D02*
X137906250Y-77725000D01*
X139906250Y-81585000D02*
X137906250Y-81585000D01*
X139906250Y-81585000D02*
X139906250Y-77725000D01*
%TO.C,LED19*%
X246150000Y-34781250D02*
X246150000Y-35281250D01*
X246150000Y-35281250D02*
X246650000Y-35281250D01*
X247250000Y-35131250D02*
X248050000Y-35131250D01*
%TO.C,LED15*%
X270581250Y-88250000D02*
X270581250Y-87750000D01*
X270581250Y-87750000D02*
X270081250Y-87750000D01*
X269481250Y-87900000D02*
X268681250Y-87900000D01*
%TO.C,U3*%
X69850000Y-74955311D02*
X70168198Y-74637113D01*
X74637113Y-70168198D02*
X75549281Y-71080366D01*
X74955311Y-69850000D02*
X74637113Y-70168198D01*
X69531802Y-74637113D02*
X69850000Y-74955311D01*
X74637113Y-69531802D02*
X74955311Y-69850000D01*
X65062887Y-70168198D02*
X64744689Y-69850000D01*
X70168198Y-65062887D02*
X69850000Y-64744689D01*
X64744689Y-69850000D02*
X65062887Y-69531802D01*
X69850000Y-64744689D02*
X69531802Y-65062887D01*
%TO.C,LED17*%
X270581250Y-46975000D02*
X270581250Y-46475000D01*
X270581250Y-46475000D02*
X270081250Y-46475000D01*
X269481250Y-46625000D02*
X268681250Y-46625000D01*
%TO.C,D8*%
X180768750Y-43485000D02*
X180768750Y-39625000D01*
X182768750Y-43485000D02*
X180768750Y-43485000D01*
X182768750Y-43485000D02*
X182768750Y-39625000D01*
%TO.C,LED9*%
X127706250Y-104918750D02*
X127706250Y-104418750D01*
X127706250Y-104418750D02*
X127206250Y-104418750D01*
X126606250Y-104568750D02*
X125806250Y-104568750D01*
%TO.C,U2*%
X59558750Y-53975000D02*
X59558750Y-54625000D01*
X59558750Y-53975000D02*
X59558750Y-53325000D01*
X62678750Y-53975000D02*
X62678750Y-55650000D01*
X62678750Y-53975000D02*
X62678750Y-53325000D01*
%TO.C,D11*%
X237918750Y-43485000D02*
X237918750Y-39625000D01*
X239918750Y-43485000D02*
X237918750Y-43485000D01*
X239918750Y-43485000D02*
X239918750Y-39625000D01*
%TO.C,D25*%
X40275000Y-81585000D02*
X40275000Y-77725000D01*
X42275000Y-81585000D02*
X40275000Y-81585000D01*
X42275000Y-81585000D02*
X42275000Y-77725000D01*
%TO.C,LED18*%
X267581250Y-34781250D02*
X267581250Y-35281250D01*
X267581250Y-35281250D02*
X268081250Y-35281250D01*
X268681250Y-35131250D02*
X269481250Y-35131250D01*
%TO.C,LED27*%
X29456250Y-34781250D02*
X29456250Y-35281250D01*
X29456250Y-35281250D02*
X29956250Y-35281250D01*
X30556250Y-35131250D02*
X31356250Y-35131250D01*
%TO.C,D35*%
X226806250Y-82378750D02*
X226806250Y-78518750D01*
X228806250Y-82378750D02*
X226806250Y-82378750D01*
X228806250Y-82378750D02*
X228806250Y-78518750D01*
%TO.C,D12*%
X261731250Y-43485000D02*
X261731250Y-39625000D01*
X263731250Y-43485000D02*
X261731250Y-43485000D01*
X263731250Y-43485000D02*
X263731250Y-39625000D01*
%TO.C,D6*%
X142668750Y-43485000D02*
X142668750Y-39625000D01*
X144668750Y-43485000D02*
X142668750Y-43485000D01*
X144668750Y-43485000D02*
X144668750Y-39625000D01*
%TO.C,U1*%
X225452500Y-37306250D02*
X225452500Y-38106250D01*
X225452500Y-37306250D02*
X225452500Y-36506250D01*
X228572500Y-37306250D02*
X228572500Y-39106250D01*
X228572500Y-37306250D02*
X228572500Y-36506250D01*
%TO.C,D17*%
X128381250Y-62535000D02*
X128381250Y-58675000D01*
X130381250Y-62535000D02*
X128381250Y-62535000D01*
X130381250Y-62535000D02*
X130381250Y-58675000D01*
%TO.C,LED29*%
X237243750Y-104918750D02*
X237243750Y-104418750D01*
X237243750Y-104418750D02*
X236743750Y-104418750D01*
X236143750Y-104568750D02*
X235343750Y-104568750D01*
%TO.C,D7*%
X161718750Y-43485000D02*
X161718750Y-39625000D01*
X163718750Y-43485000D02*
X161718750Y-43485000D01*
X163718750Y-43485000D02*
X163718750Y-39625000D01*
%TO.C,LED24*%
X110418750Y-34781250D02*
X110418750Y-35281250D01*
X110418750Y-35281250D02*
X110918750Y-35281250D01*
X111518750Y-35131250D02*
X112318750Y-35131250D01*
%TO.C,C2*%
X61260138Y-57314873D02*
X60978978Y-57314873D01*
X61260138Y-56294873D02*
X60978978Y-56294873D01*
%TO.C,LED4*%
X32456250Y-104918750D02*
X32456250Y-104418750D01*
X32456250Y-104418750D02*
X31956250Y-104418750D01*
X31356250Y-104568750D02*
X30556250Y-104568750D01*
%TO.C,LED28*%
X151518750Y-104918750D02*
X151518750Y-104418750D01*
X151518750Y-104418750D02*
X151018750Y-104418750D01*
X150418750Y-104568750D02*
X149618750Y-104568750D01*
%TO.C,D5*%
X123618750Y-43485000D02*
X123618750Y-39625000D01*
X125618750Y-43485000D02*
X123618750Y-43485000D01*
X125618750Y-43485000D02*
X125618750Y-39625000D01*
%TO.C,D18*%
X147431250Y-62535000D02*
X147431250Y-58675000D01*
X149431250Y-62535000D02*
X147431250Y-62535000D01*
X149431250Y-62535000D02*
X149431250Y-58675000D01*
%TO.C,R6*%
X55833750Y-68499758D02*
X55833750Y-68025242D01*
X56878750Y-68499758D02*
X56878750Y-68025242D01*
%TO.C,D44*%
X233156250Y-100447500D02*
X233156250Y-96587500D01*
X235156250Y-100447500D02*
X233156250Y-100447500D01*
X235156250Y-100447500D02*
X235156250Y-96587500D01*
%TO.C,C6*%
X66582449Y-63589168D02*
X66781260Y-63390357D01*
X67303698Y-64310417D02*
X67502509Y-64111606D01*
%TO.C,LED13*%
X256293750Y-104918750D02*
X256293750Y-104418750D01*
X256293750Y-104418750D02*
X255793750Y-104418750D01*
X255193750Y-104568750D02*
X254393750Y-104568750D01*
%TO.C,D14*%
X71231250Y-62535000D02*
X71231250Y-58675000D01*
X73231250Y-62535000D02*
X71231250Y-62535000D01*
X73231250Y-62535000D02*
X73231250Y-58675000D01*
%TO.C,C12*%
X56078330Y-53640142D02*
X56078330Y-53358982D01*
X57098330Y-53640142D02*
X57098330Y-53358982D01*
%TO.C,F1*%
X231891250Y-33920776D02*
X231891250Y-35124904D01*
X230071250Y-33920776D02*
X230071250Y-35124904D01*
%TO.C,D46*%
X266493750Y-100635000D02*
X266493750Y-96775000D01*
X268493750Y-100635000D02*
X266493750Y-100635000D01*
X268493750Y-100635000D02*
X268493750Y-96775000D01*
%TO.C,C3*%
X60978169Y-57877112D02*
X61259329Y-57877112D01*
X60978169Y-58897112D02*
X61259329Y-58897112D01*
%TO.C,LED22*%
X168362500Y-34781250D02*
X168362500Y-35281250D01*
X168362500Y-35281250D02*
X168862500Y-35281250D01*
X169462500Y-35131250D02*
X170262500Y-35131250D01*
%TO.C,LED3*%
X29456250Y-89550000D02*
X29456250Y-90050000D01*
X29456250Y-90050000D02*
X29956250Y-90050000D01*
X30556250Y-89900000D02*
X31356250Y-89900000D01*
%TO.C,C13*%
X72247281Y-77659536D02*
X72247281Y-77940696D01*
X71227281Y-77659536D02*
X71227281Y-77940696D01*
%TO.C,D45*%
X247443750Y-100635000D02*
X247443750Y-96775000D01*
X249443750Y-100635000D02*
X247443750Y-100635000D01*
X249443750Y-100635000D02*
X249443750Y-96775000D01*
%TO.C,D33*%
X195056250Y-81585000D02*
X195056250Y-77725000D01*
X197056250Y-81585000D02*
X195056250Y-81585000D01*
X197056250Y-81585000D02*
X197056250Y-77725000D01*
%TO.C,D47*%
X178387500Y-100635000D02*
X178387500Y-96775000D01*
X180387500Y-100635000D02*
X178387500Y-100635000D01*
X180387500Y-100635000D02*
X180387500Y-96775000D01*
%TO.C,D19*%
X166481250Y-62535000D02*
X166481250Y-58675000D01*
X168481250Y-62535000D02*
X166481250Y-62535000D01*
X168481250Y-62535000D02*
X168481250Y-58675000D01*
%TO.C,D37*%
X42656250Y-100635000D02*
X42656250Y-96775000D01*
X44656250Y-100635000D02*
X42656250Y-100635000D01*
X44656250Y-100635000D02*
X44656250Y-96775000D01*
%TO.C,C1*%
X60978170Y-50502500D02*
X61259330Y-50502500D01*
X60978170Y-51522500D02*
X61259330Y-51522500D01*
%TO.C,C7*%
X77646920Y-67771250D02*
X77928080Y-67771250D01*
X77646920Y-68791250D02*
X77928080Y-68791250D01*
%TO.C,C4*%
X65299522Y-62585884D02*
X65498333Y-62387073D01*
X66020771Y-63307133D02*
X66219582Y-63108322D01*
%TD*%
M02*
