%TF.GenerationSoftware,KiCad,Pcbnew,(7.0.0)*%
%TF.CreationDate,2024-04-06T15:31:58+02:00*%
%TF.ProjectId,forti EC,666f7274-6920-4454-932e-6b696361645f,rev?*%
%TF.SameCoordinates,Original*%
%TF.FileFunction,Soldermask,Bot*%
%TF.FilePolarity,Negative*%
%FSLAX46Y46*%
G04 Gerber Fmt 4.6, Leading zero omitted, Abs format (unit mm)*
G04 Created by KiCad (PCBNEW (7.0.0)) date 2024-04-06 15:31:58*
%MOMM*%
%LPD*%
G01*
G04 APERTURE LIST*
G04 Aperture macros list*
%AMRoundRect*
0 Rectangle with rounded corners*
0 $1 Rounding radius*
0 $2 $3 $4 $5 $6 $7 $8 $9 X,Y pos of 4 corners*
0 Add a 4 corners polygon primitive as box body*
4,1,4,$2,$3,$4,$5,$6,$7,$8,$9,$2,$3,0*
0 Add four circle primitives for the rounded corners*
1,1,$1+$1,$2,$3*
1,1,$1+$1,$4,$5*
1,1,$1+$1,$6,$7*
1,1,$1+$1,$8,$9*
0 Add four rect primitives between the rounded corners*
20,1,$1+$1,$2,$3,$4,$5,0*
20,1,$1+$1,$4,$5,$6,$7,0*
20,1,$1+$1,$6,$7,$8,$9,0*
20,1,$1+$1,$8,$9,$2,$3,0*%
G04 Aperture macros list end*
%ADD10C,2.200000*%
%ADD11C,0.650000*%
%ADD12O,1.000000X2.100000*%
%ADD13O,1.000000X1.600000*%
%ADD14RoundRect,0.105000X-0.245000X0.245000X-0.245000X-0.245000X0.245000X-0.245000X0.245000X0.245000X0*%
%ADD15RoundRect,0.135000X-0.185000X0.135000X-0.185000X-0.135000X0.185000X-0.135000X0.185000X0.135000X0*%
%ADD16RoundRect,0.105000X0.245000X0.245000X-0.245000X0.245000X-0.245000X-0.245000X0.245000X-0.245000X0*%
%ADD17RoundRect,0.062500X-0.375000X-0.062500X0.375000X-0.062500X0.375000X0.062500X-0.375000X0.062500X0*%
%ADD18RoundRect,0.062500X-0.062500X-0.375000X0.062500X-0.375000X0.062500X0.375000X-0.062500X0.375000X0*%
%ADD19R,5.600000X5.600000*%
%ADD20RoundRect,0.135000X0.185000X-0.135000X0.185000X0.135000X-0.185000X0.135000X-0.185000X-0.135000X0*%
%ADD21RoundRect,0.200000X-0.200000X-0.275000X0.200000X-0.275000X0.200000X0.275000X-0.200000X0.275000X0*%
%ADD22RoundRect,0.140000X0.140000X0.170000X-0.140000X0.170000X-0.140000X-0.170000X0.140000X-0.170000X0*%
%ADD23RoundRect,0.135000X-0.135000X-0.185000X0.135000X-0.185000X0.135000X0.185000X-0.135000X0.185000X0*%
%ADD24RoundRect,0.140000X0.170000X-0.140000X0.170000X0.140000X-0.170000X0.140000X-0.170000X-0.140000X0*%
%ADD25RoundRect,0.200000X0.200000X0.275000X-0.200000X0.275000X-0.200000X-0.275000X0.200000X-0.275000X0*%
%ADD26R,1.900000X0.400000*%
%ADD27R,1.700000X1.700000*%
%ADD28O,1.700000X1.700000*%
%ADD29RoundRect,0.135000X0.135000X0.185000X-0.135000X0.185000X-0.135000X-0.185000X0.135000X-0.185000X0*%
%ADD30RoundRect,0.150000X0.512500X0.150000X-0.512500X0.150000X-0.512500X-0.150000X0.512500X-0.150000X0*%
%ADD31RoundRect,0.105000X0.245000X-0.245000X0.245000X0.245000X-0.245000X0.245000X-0.245000X-0.245000X0*%
%ADD32R,1.778000X0.419100*%
%ADD33RoundRect,0.150000X-0.150000X0.512500X-0.150000X-0.512500X0.150000X-0.512500X0.150000X0.512500X0*%
%ADD34RoundRect,0.225000X0.375000X-0.225000X0.375000X0.225000X-0.375000X0.225000X-0.375000X-0.225000X0*%
%ADD35RoundRect,0.140000X-0.140000X-0.170000X0.140000X-0.170000X0.140000X0.170000X-0.140000X0.170000X0*%
%ADD36RoundRect,0.140000X-0.170000X0.140000X-0.170000X-0.140000X0.170000X-0.140000X0.170000X0.140000X0*%
%ADD37RoundRect,0.150000X0.150000X-0.587500X0.150000X0.587500X-0.150000X0.587500X-0.150000X-0.587500X0*%
%ADD38RoundRect,0.150000X0.150000X-0.512500X0.150000X0.512500X-0.150000X0.512500X-0.150000X-0.512500X0*%
%ADD39RoundRect,0.225000X0.225000X0.250000X-0.225000X0.250000X-0.225000X-0.250000X0.225000X-0.250000X0*%
%ADD40RoundRect,0.225000X-0.250000X0.225000X-0.250000X-0.225000X0.250000X-0.225000X0.250000X0.225000X0*%
%ADD41RoundRect,0.250000X-0.625000X0.375000X-0.625000X-0.375000X0.625000X-0.375000X0.625000X0.375000X0*%
%ADD42RoundRect,0.225000X-0.225000X-0.250000X0.225000X-0.250000X0.225000X0.250000X-0.225000X0.250000X0*%
G04 APERTURE END LIST*
D10*
%TO.C,H22*%
X135731250Y-60325000D03*
%TD*%
%TO.C,H3*%
X111918750Y-41275000D03*
%TD*%
D11*
%TO.C,J2*%
X237159115Y-28793750D03*
X231379115Y-28793750D03*
D12*
X238589114Y-29323749D03*
D13*
X238589114Y-25143749D03*
D12*
X229949114Y-29323749D03*
D13*
X229949114Y-25143749D03*
%TD*%
D10*
%TO.C,H15*%
X207168750Y-41275000D03*
%TD*%
%TO.C,H17*%
X254793750Y-98425000D03*
%TD*%
%TO.C,H4*%
X169068750Y-41275000D03*
%TD*%
%TO.C,H6*%
X97631250Y-60325000D03*
%TD*%
%TO.C,H2*%
X73818750Y-41275000D03*
%TD*%
%TO.C,H9*%
X69056250Y-79375000D03*
%TD*%
%TO.C,H1*%
X30956250Y-41275000D03*
%TD*%
%TO.C,H5*%
X250031250Y-41275000D03*
%TD*%
%TO.C,H13*%
X185737500Y-98425000D03*
%TD*%
%TO.C,H7*%
X173831250Y-60325000D03*
%TD*%
%TO.C,H18*%
X102393750Y-98425000D03*
%TD*%
%TO.C,H11*%
X183356250Y-79375000D03*
%TD*%
%TO.C,H20*%
X64293750Y-98425000D03*
%TD*%
%TO.C,H23*%
X159543750Y-98425000D03*
%TD*%
%TO.C,H19*%
X197643750Y-98425000D03*
%TD*%
%TO.C,H16*%
X45243750Y-98425000D03*
%TD*%
%TO.C,H12*%
X114300000Y-98425000D03*
%TD*%
%TO.C,H24*%
X269081250Y-41275000D03*
%TD*%
%TO.C,H10*%
X126206250Y-79375000D03*
%TD*%
%TO.C,H14*%
X221456250Y-79375000D03*
%TD*%
%TO.C,H21*%
X235743750Y-98425000D03*
%TD*%
%TO.C,H8*%
X230981250Y-60325000D03*
%TD*%
D14*
%TO.C,LED2*%
X28268750Y-68935000D03*
X29368750Y-68935000D03*
X29368750Y-70765000D03*
X28268750Y-70765000D03*
%TD*%
D15*
%TO.C,R24*%
X49212500Y-52311250D03*
X49212500Y-53331250D03*
%TD*%
D16*
%TO.C,LED23*%
X150933750Y-34375000D03*
X150933750Y-35475000D03*
X149103750Y-35475000D03*
X149103750Y-34375000D03*
%TD*%
D17*
%TO.C,U8*%
X53012500Y-56975000D03*
X53012500Y-56475000D03*
X53012500Y-55975000D03*
X53012500Y-55475000D03*
X53012500Y-54975000D03*
X53012500Y-54475000D03*
X53012500Y-53975000D03*
X53012500Y-53475000D03*
X53012500Y-52975000D03*
X53012500Y-52475000D03*
X53012500Y-51975000D03*
X53012500Y-51475000D03*
D18*
X53700000Y-50787500D03*
X54200000Y-50787500D03*
X54700000Y-50787500D03*
X55200000Y-50787500D03*
X55700000Y-50787500D03*
X56200000Y-50787500D03*
X56700000Y-50787500D03*
X57200000Y-50787500D03*
X57700000Y-50787500D03*
X58200000Y-50787500D03*
X58700000Y-50787500D03*
X59200000Y-50787500D03*
D17*
X59887500Y-51475000D03*
X59887500Y-51975000D03*
X59887500Y-52475000D03*
X59887500Y-52975000D03*
X59887500Y-53475000D03*
X59887500Y-53975000D03*
X59887500Y-54475000D03*
X59887500Y-54975000D03*
X59887500Y-55475000D03*
X59887500Y-55975000D03*
X59887500Y-56475000D03*
X59887500Y-56975000D03*
D18*
X59200000Y-57662500D03*
X58700000Y-57662500D03*
X58200000Y-57662500D03*
X57700000Y-57662500D03*
X57200000Y-57662500D03*
X56700000Y-57662500D03*
X56200000Y-57662500D03*
X55700000Y-57662500D03*
X55200000Y-57662500D03*
X54700000Y-57662500D03*
X54200000Y-57662500D03*
X53700000Y-57662500D03*
D19*
X56449999Y-54224999D03*
%TD*%
D20*
%TO.C,R17*%
X61912500Y-52955000D03*
X61912500Y-53975000D03*
%TD*%
D21*
%TO.C,R1*%
X238918750Y-33337500D03*
X240568750Y-33337500D03*
%TD*%
D22*
%TO.C,C22*%
X51280000Y-53281250D03*
X50320000Y-53281250D03*
%TD*%
D15*
%TO.C,R8*%
X100336691Y-92358750D03*
X100336691Y-93378750D03*
%TD*%
D23*
%TO.C,R11*%
X193948643Y-88418191D03*
X194968643Y-88418191D03*
%TD*%
D24*
%TO.C,C4*%
X55705048Y-65257684D03*
X55705048Y-64297684D03*
%TD*%
D16*
%TO.C,LED25*%
X93783750Y-33581250D03*
X93783750Y-34681250D03*
X91953750Y-34681250D03*
X91953750Y-33581250D03*
%TD*%
D15*
%TO.C,R18*%
X115093750Y-92358750D03*
X115093750Y-93378750D03*
%TD*%
D25*
%TO.C,R2*%
X228631250Y-33337500D03*
X226981250Y-33337500D03*
%TD*%
D22*
%TO.C,C17*%
X51373750Y-58193750D03*
X50413750Y-58193750D03*
%TD*%
D16*
%TO.C,LED30*%
X131883750Y-33581250D03*
X131883750Y-34681250D03*
X130053750Y-34681250D03*
X130053750Y-33581250D03*
%TD*%
%TO.C,LED21*%
X189033750Y-33581250D03*
X189033750Y-34681250D03*
X187203750Y-34681250D03*
X187203750Y-33581250D03*
%TD*%
D26*
%TO.C,Y1*%
X50593749Y-54612499D03*
X50593749Y-55812499D03*
X50593749Y-57012499D03*
%TD*%
D27*
%TO.C,SW1*%
X78581249Y-59049999D03*
D28*
X78581249Y-61589999D03*
%TD*%
D16*
%TO.C,LED20*%
X207290000Y-33581250D03*
X207290000Y-34681250D03*
X205460000Y-34681250D03*
X205460000Y-33581250D03*
%TD*%
D29*
%TO.C,R26*%
X54485000Y-62029065D03*
X53465000Y-62029065D03*
%TD*%
D15*
%TO.C,R15*%
X252187965Y-89783782D03*
X252187965Y-90803782D03*
%TD*%
D30*
%TO.C,U3*%
X54260288Y-63343750D03*
X54260288Y-64293750D03*
X54260288Y-65243750D03*
X51985288Y-65243750D03*
X51985288Y-63343750D03*
%TD*%
D15*
%TO.C,R5*%
X66859797Y-91106023D03*
X66859797Y-92126023D03*
%TD*%
D31*
%TO.C,LED16*%
X272012500Y-70765000D03*
X270912500Y-70765000D03*
X270912500Y-68935000D03*
X272012500Y-68935000D03*
%TD*%
D32*
%TO.C,U7*%
X195161839Y-89801699D03*
X195161839Y-90451939D03*
X195161839Y-91102179D03*
X195161839Y-91752419D03*
X195161839Y-92397579D03*
X195161839Y-93047819D03*
X195161839Y-93698059D03*
X195161839Y-94348299D03*
X189213159Y-94348299D03*
X189213159Y-93698059D03*
X189213159Y-93047819D03*
X189213159Y-92397579D03*
X189213159Y-91752419D03*
X189213159Y-91102179D03*
X189213159Y-90451939D03*
X189213159Y-89801699D03*
%TD*%
D16*
%TO.C,LED26*%
X74733750Y-33581250D03*
X74733750Y-34681250D03*
X72903750Y-34681250D03*
X72903750Y-33581250D03*
%TD*%
D33*
%TO.C,U4*%
X36356250Y-87762500D03*
X37306250Y-87762500D03*
X38256250Y-87762500D03*
X38256250Y-90037500D03*
X36356250Y-90037500D03*
%TD*%
D16*
%TO.C,LED31*%
X53302500Y-33581250D03*
X53302500Y-34681250D03*
X51472500Y-34681250D03*
X51472500Y-33581250D03*
%TD*%
D32*
%TO.C,U5*%
X111324339Y-89801699D03*
X111324339Y-90451939D03*
X111324339Y-91102179D03*
X111324339Y-91752419D03*
X111324339Y-92397579D03*
X111324339Y-93047819D03*
X111324339Y-93698059D03*
X111324339Y-94348299D03*
X105375659Y-94348299D03*
X105375659Y-93698059D03*
X105375659Y-93047819D03*
X105375659Y-92397579D03*
X105375659Y-91752419D03*
X105375659Y-91102179D03*
X105375659Y-90451939D03*
X105375659Y-89801699D03*
%TD*%
D34*
%TO.C,D_PWR1*%
X243681250Y-36172840D03*
X243681250Y-32872840D03*
%TD*%
D14*
%TO.C,LED1*%
X28268750Y-49885000D03*
X29368750Y-49885000D03*
X29368750Y-51715000D03*
X28268750Y-51715000D03*
%TD*%
D15*
%TO.C,R14*%
X214312500Y-91281250D03*
X214312500Y-92301250D03*
%TD*%
D16*
%TO.C,LED19*%
X248565000Y-33581250D03*
X248565000Y-34681250D03*
X246735000Y-34681250D03*
X246735000Y-33581250D03*
%TD*%
D31*
%TO.C,LED15*%
X272012500Y-89815000D03*
X270912500Y-89815000D03*
X270912500Y-87985000D03*
X272012500Y-87985000D03*
%TD*%
D15*
%TO.C,R12*%
X183336947Y-91098718D03*
X183336947Y-92118718D03*
%TD*%
D31*
%TO.C,LED17*%
X272012500Y-51715000D03*
X270912500Y-51715000D03*
X270912500Y-49885000D03*
X272012500Y-49885000D03*
%TD*%
D35*
%TO.C,C16*%
X58351250Y-49462500D03*
X59311250Y-49462500D03*
%TD*%
D36*
%TO.C,C19*%
X61118750Y-58507500D03*
X61118750Y-59467500D03*
%TD*%
D24*
%TO.C,C3*%
X50566538Y-63769503D03*
X50566538Y-62809503D03*
%TD*%
D36*
%TO.C,C20*%
X53275000Y-58951250D03*
X53275000Y-59911250D03*
%TD*%
D37*
%TO.C,U2*%
X225581250Y-48532386D03*
X223681250Y-48532386D03*
X224631250Y-46657386D03*
%TD*%
D16*
%TO.C,LED18*%
X271583750Y-34375000D03*
X271583750Y-35475000D03*
X269753750Y-35475000D03*
X269753750Y-34375000D03*
%TD*%
%TO.C,LED27*%
X30283750Y-34375000D03*
X30283750Y-35475000D03*
X28453750Y-35475000D03*
X28453750Y-34375000D03*
%TD*%
D22*
%TO.C,C21*%
X51280000Y-52337500D03*
X50320000Y-52337500D03*
%TD*%
D20*
%TO.C,R23*%
X50578259Y-65734247D03*
X50578259Y-64714247D03*
%TD*%
D15*
%TO.C,R7*%
X46831250Y-90487500D03*
X46831250Y-91507500D03*
%TD*%
D29*
%TO.C,R25*%
X59341250Y-48468750D03*
X58321250Y-48468750D03*
%TD*%
D22*
%TO.C,C10*%
X105255000Y-88900000D03*
X104295000Y-88900000D03*
%TD*%
D38*
%TO.C,U1*%
X227962500Y-42412500D03*
X227012500Y-42412500D03*
X226062500Y-42412500D03*
X226062500Y-40137500D03*
X227012500Y-40137500D03*
X227962500Y-40137500D03*
%TD*%
D15*
%TO.C,R22*%
X56349625Y-48470642D03*
X56349625Y-49490642D03*
%TD*%
D16*
%TO.C,LED24*%
X112833750Y-33581250D03*
X112833750Y-34681250D03*
X111003750Y-34681250D03*
X111003750Y-33581250D03*
%TD*%
D39*
%TO.C,C2*%
X225407058Y-50424759D03*
X223857058Y-50424759D03*
%TD*%
D29*
%TO.C,R27*%
X55372500Y-58987500D03*
X54352500Y-58987500D03*
%TD*%
D15*
%TO.C,R16*%
X233614521Y-90547112D03*
X233614521Y-91567112D03*
%TD*%
D29*
%TO.C,R20*%
X42512505Y-51593750D03*
X41492505Y-51593750D03*
%TD*%
D40*
%TO.C,C12*%
X34692920Y-88600438D03*
X34692920Y-90150438D03*
%TD*%
D29*
%TO.C,R6*%
X54485000Y-61020669D03*
X53465000Y-61020669D03*
%TD*%
D15*
%TO.C,R13*%
X158719886Y-90521552D03*
X158719886Y-91541552D03*
%TD*%
D41*
%TO.C,F1*%
X223837500Y-33525000D03*
X223837500Y-36325000D03*
%TD*%
D29*
%TO.C,R19*%
X42525754Y-52602880D03*
X41505754Y-52602880D03*
%TD*%
D16*
%TO.C,LED22*%
X170777500Y-33581250D03*
X170777500Y-34681250D03*
X168947500Y-34681250D03*
X168947500Y-33581250D03*
%TD*%
D14*
%TO.C,LED3*%
X28268750Y-87985000D03*
X29368750Y-87985000D03*
X29368750Y-89815000D03*
X28268750Y-89815000D03*
%TD*%
D24*
%TO.C,C18*%
X61212500Y-50292500D03*
X61212500Y-49332500D03*
%TD*%
D15*
%TO.C,R4*%
X85778534Y-91759061D03*
X85778534Y-92779061D03*
%TD*%
D22*
%TO.C,C15*%
X189027024Y-88929977D03*
X188067024Y-88929977D03*
%TD*%
D42*
%TO.C,C1*%
X223856250Y-44632386D03*
X225406250Y-44632386D03*
%TD*%
D20*
%TO.C,R9*%
X115093750Y-91113750D03*
X115093750Y-90093750D03*
%TD*%
D23*
%TO.C,R21*%
X41472631Y-50537229D03*
X42492631Y-50537229D03*
%TD*%
M02*
