%TF.GenerationSoftware,KiCad,Pcbnew,(7.0.0)*%
%TF.CreationDate,2024-04-06T15:31:58+02:00*%
%TF.ProjectId,forti EC,666f7274-6920-4454-932e-6b696361645f,rev?*%
%TF.SameCoordinates,Original*%
%TF.FileFunction,Soldermask,Top*%
%TF.FilePolarity,Negative*%
%FSLAX46Y46*%
G04 Gerber Fmt 4.6, Leading zero omitted, Abs format (unit mm)*
G04 Created by KiCad (PCBNEW (7.0.0)) date 2024-04-06 15:31:58*
%MOMM*%
%LPD*%
G01*
G04 APERTURE LIST*
%ADD10C,2.200000*%
%ADD11C,0.650000*%
%ADD12R,0.600000X1.450000*%
%ADD13R,0.280000X1.450000*%
%ADD14O,1.000000X2.100000*%
%ADD15O,1.000000X1.600000*%
%ADD16R,1.700000X1.700000*%
%ADD17O,1.700000X1.700000*%
G04 APERTURE END LIST*
D10*
%TO.C,H22*%
X135731250Y-60325000D03*
%TD*%
%TO.C,H3*%
X111918750Y-41275000D03*
%TD*%
D11*
%TO.C,J2*%
X237159115Y-28793750D03*
X231379115Y-28793750D03*
D12*
X237519114Y-30238749D03*
X236719114Y-30238749D03*
D13*
X235519114Y-30238749D03*
X234519114Y-30238749D03*
X234019114Y-30238749D03*
X233019114Y-30238749D03*
D12*
X231819114Y-30238749D03*
X231019114Y-30238749D03*
X231019114Y-30238749D03*
X231819114Y-30238749D03*
D13*
X232519114Y-30238749D03*
X233519114Y-30238749D03*
X235019114Y-30238749D03*
X236019114Y-30238749D03*
D12*
X236719114Y-30238749D03*
X237519114Y-30238749D03*
D14*
X238589114Y-29323749D03*
D15*
X238589114Y-25143749D03*
D14*
X229949114Y-29323749D03*
D15*
X229949114Y-25143749D03*
%TD*%
D10*
%TO.C,H15*%
X207168750Y-41275000D03*
%TD*%
%TO.C,H17*%
X254793750Y-98425000D03*
%TD*%
%TO.C,H4*%
X169068750Y-41275000D03*
%TD*%
%TO.C,H6*%
X97631250Y-60325000D03*
%TD*%
%TO.C,H2*%
X73818750Y-41275000D03*
%TD*%
%TO.C,H9*%
X69056250Y-79375000D03*
%TD*%
%TO.C,H1*%
X30956250Y-41275000D03*
%TD*%
%TO.C,H5*%
X250031250Y-41275000D03*
%TD*%
%TO.C,H13*%
X185737500Y-98425000D03*
%TD*%
%TO.C,H7*%
X173831250Y-60325000D03*
%TD*%
%TO.C,H18*%
X102393750Y-98425000D03*
%TD*%
%TO.C,H11*%
X183356250Y-79375000D03*
%TD*%
%TO.C,H20*%
X64293750Y-98425000D03*
%TD*%
%TO.C,H23*%
X159543750Y-98425000D03*
%TD*%
%TO.C,H19*%
X197643750Y-98425000D03*
%TD*%
%TO.C,H16*%
X45243750Y-98425000D03*
%TD*%
%TO.C,H12*%
X114300000Y-98425000D03*
%TD*%
%TO.C,H24*%
X269081250Y-41275000D03*
%TD*%
%TO.C,H10*%
X126206250Y-79375000D03*
%TD*%
%TO.C,H14*%
X221456250Y-79375000D03*
%TD*%
%TO.C,H21*%
X235743750Y-98425000D03*
%TD*%
%TO.C,H8*%
X230981250Y-60325000D03*
%TD*%
D16*
%TO.C,SW1*%
X78581249Y-59049999D03*
D17*
X78581249Y-61589999D03*
%TD*%
M02*
