%TF.GenerationSoftware,KiCad,Pcbnew,(7.0.0)*%
%TF.CreationDate,2024-04-06T15:18:24+02:00*%
%TF.ProjectId,forti EC,666f7274-6920-4454-932e-6b696361645f,rev?*%
%TF.SameCoordinates,Original*%
%TF.FileFunction,Legend,Top*%
%TF.FilePolarity,Positive*%
%FSLAX46Y46*%
G04 Gerber Fmt 4.6, Leading zero omitted, Abs format (unit mm)*
G04 Created by KiCad (PCBNEW (7.0.0)) date 2024-04-06 15:18:24*
%MOMM*%
%LPD*%
G01*
G04 APERTURE LIST*
%ADD10C,0.150000*%
%ADD11C,0.900000*%
%ADD12C,0.120000*%
%ADD13C,2.200000*%
G04 APERTURE END LIST*
D10*
X238295059Y-26882592D02*
X238056964Y-27882592D01*
X238056964Y-27882592D02*
X237866488Y-27168307D01*
X237866488Y-27168307D02*
X237676012Y-27882592D01*
X237676012Y-27882592D02*
X237437917Y-26882592D01*
X236628393Y-27882592D02*
X236628393Y-27358783D01*
X236628393Y-27358783D02*
X236676012Y-27263545D01*
X236676012Y-27263545D02*
X236771250Y-27215926D01*
X236771250Y-27215926D02*
X236961726Y-27215926D01*
X236961726Y-27215926D02*
X237056964Y-27263545D01*
X236628393Y-27834973D02*
X236723631Y-27882592D01*
X236723631Y-27882592D02*
X236961726Y-27882592D01*
X236961726Y-27882592D02*
X237056964Y-27834973D01*
X237056964Y-27834973D02*
X237104583Y-27739735D01*
X237104583Y-27739735D02*
X237104583Y-27644497D01*
X237104583Y-27644497D02*
X237056964Y-27549259D01*
X237056964Y-27549259D02*
X236961726Y-27501640D01*
X236961726Y-27501640D02*
X236723631Y-27501640D01*
X236723631Y-27501640D02*
X236628393Y-27454021D01*
X236247440Y-27215926D02*
X236009345Y-27882592D01*
X235771250Y-27215926D02*
X236009345Y-27882592D01*
X236009345Y-27882592D02*
X236104583Y-28120688D01*
X236104583Y-28120688D02*
X236152202Y-28168307D01*
X236152202Y-28168307D02*
X236247440Y-28215926D01*
X235485535Y-26882592D02*
X235247440Y-27882592D01*
X235247440Y-27882592D02*
X235056964Y-27168307D01*
X235056964Y-27168307D02*
X234866488Y-27882592D01*
X234866488Y-27882592D02*
X234628393Y-26882592D01*
X233818869Y-27882592D02*
X233818869Y-27358783D01*
X233818869Y-27358783D02*
X233866488Y-27263545D01*
X233866488Y-27263545D02*
X233961726Y-27215926D01*
X233961726Y-27215926D02*
X234152202Y-27215926D01*
X234152202Y-27215926D02*
X234247440Y-27263545D01*
X233818869Y-27834973D02*
X233914107Y-27882592D01*
X233914107Y-27882592D02*
X234152202Y-27882592D01*
X234152202Y-27882592D02*
X234247440Y-27834973D01*
X234247440Y-27834973D02*
X234295059Y-27739735D01*
X234295059Y-27739735D02*
X234295059Y-27644497D01*
X234295059Y-27644497D02*
X234247440Y-27549259D01*
X234247440Y-27549259D02*
X234152202Y-27501640D01*
X234152202Y-27501640D02*
X233914107Y-27501640D01*
X233914107Y-27501640D02*
X233818869Y-27454021D01*
X233437916Y-27215926D02*
X233199821Y-27882592D01*
X232961726Y-27215926D02*
X233199821Y-27882592D01*
X233199821Y-27882592D02*
X233295059Y-28120688D01*
X233295059Y-28120688D02*
X233342678Y-28168307D01*
X233342678Y-28168307D02*
X233437916Y-28215926D01*
X232676011Y-26882592D02*
X232437916Y-27882592D01*
X232437916Y-27882592D02*
X232247440Y-27168307D01*
X232247440Y-27168307D02*
X232056964Y-27882592D01*
X232056964Y-27882592D02*
X231818869Y-26882592D01*
X231009345Y-27882592D02*
X231009345Y-27358783D01*
X231009345Y-27358783D02*
X231056964Y-27263545D01*
X231056964Y-27263545D02*
X231152202Y-27215926D01*
X231152202Y-27215926D02*
X231342678Y-27215926D01*
X231342678Y-27215926D02*
X231437916Y-27263545D01*
X231009345Y-27834973D02*
X231104583Y-27882592D01*
X231104583Y-27882592D02*
X231342678Y-27882592D01*
X231342678Y-27882592D02*
X231437916Y-27834973D01*
X231437916Y-27834973D02*
X231485535Y-27739735D01*
X231485535Y-27739735D02*
X231485535Y-27644497D01*
X231485535Y-27644497D02*
X231437916Y-27549259D01*
X231437916Y-27549259D02*
X231342678Y-27501640D01*
X231342678Y-27501640D02*
X231104583Y-27501640D01*
X231104583Y-27501640D02*
X231009345Y-27454021D01*
X230628392Y-27215926D02*
X230390297Y-27882592D01*
X230152202Y-27215926D02*
X230390297Y-27882592D01*
X230390297Y-27882592D02*
X230485535Y-28120688D01*
X230485535Y-28120688D02*
X230533154Y-28168307D01*
X230533154Y-28168307D02*
X230628392Y-28215926D01*
D11*
%TO.C,SW_EC32*%
X180298250Y-79375000D02*
G75*
G03*
X180298250Y-79375000I-6467000J0D01*
G01*
%TO.C,SW_EC13*%
X44563200Y-60325000D02*
G75*
G03*
X44563200Y-60325000I-6467000J0D01*
G01*
X49329500Y-60325000D02*
G75*
G03*
X49329500Y-60325000I-6467000J0D01*
G01*
%TO.C,SW_EC23*%
X246973250Y-60325000D02*
G75*
G03*
X246973250Y-60325000I-6467000J0D01*
G01*
%TO.C,SW_EC40*%
X99335750Y-98425000D02*
G75*
G03*
X99335750Y-98425000I-6467000J0D01*
G01*
D12*
%TO.C,J2*%
X238969115Y-28093750D02*
X238969115Y-26093750D01*
X238969115Y-24193750D02*
X238969115Y-22293750D01*
X238969115Y-22293750D02*
X229569115Y-22293750D01*
X229569115Y-28093750D02*
X229569115Y-26093750D01*
X229569115Y-24193750D02*
X229569115Y-22293750D01*
D11*
%TO.C,SW_EC27*%
X85048250Y-79375000D02*
G75*
G03*
X85048250Y-79375000I-6467000J0D01*
G01*
%TO.C,SW_EC48*%
X268404500Y-50800000D02*
G75*
G03*
X268404500Y-50800000I-6467000J0D01*
G01*
%TO.C,SW_EC41*%
X130288200Y-98425000D02*
G75*
G03*
X130288200Y-98425000I-6467000J0D01*
G01*
X135054500Y-98425000D02*
G75*
G03*
X135054500Y-98425000I-6467000J0D01*
G01*
%TO.C,SW_EC4*%
X108860750Y-41275000D02*
G75*
G03*
X108860750Y-41275000I-6467000J0D01*
G01*
%TO.C,SW_EC47*%
X270785750Y-98425000D02*
G75*
G03*
X270785750Y-98425000I-6467000J0D01*
G01*
%TO.C,SW_EC36*%
X263642000Y-79375000D02*
G75*
G03*
X263642000Y-79375000I-6467000J0D01*
G01*
X270784954Y-79375000D02*
G75*
G03*
X270784954Y-79375000I-6467000J0D01*
G01*
%TO.C,SW_EC18*%
X151723250Y-60325000D02*
G75*
G03*
X151723250Y-60325000I-6467000J0D01*
G01*
%TO.C,SW_EC12*%
X266023250Y-41275000D02*
G75*
G03*
X266023250Y-41275000I-6467000J0D01*
G01*
%TO.C,SW_EC25*%
X44567000Y-79375000D02*
G75*
G03*
X44567000Y-79375000I-6467000J0D01*
G01*
%TO.C,SW_EC17*%
X132673250Y-60325000D02*
G75*
G03*
X132673250Y-60325000I-6467000J0D01*
G01*
%TO.C,SW_EC2*%
X70760750Y-41275000D02*
G75*
G03*
X70760750Y-41275000I-6467000J0D01*
G01*
%TO.C,SW_EC44*%
X213635750Y-98425000D02*
G75*
G03*
X213635750Y-98425000I-6467000J0D01*
G01*
%TO.C,SW_EC50*%
X54092000Y-79375000D02*
G75*
G03*
X54092000Y-79375000I-6467000J0D01*
G01*
%TO.C,SW_EC39*%
X85052050Y-98425000D02*
G75*
G03*
X85052050Y-98425000I-6467000J0D01*
G01*
X80285750Y-98425000D02*
G75*
G03*
X80285750Y-98425000I-6467000J0D01*
G01*
%TO.C,SW_EC5*%
X127910750Y-41275000D02*
G75*
G03*
X127910750Y-41275000I-6467000J0D01*
G01*
%TO.C,SW_EC10*%
X223160750Y-41275000D02*
G75*
G03*
X223160750Y-41275000I-6467000J0D01*
G01*
%TO.C,SW_EC30*%
X142198250Y-79375000D02*
G75*
G03*
X142198250Y-79375000I-6467000J0D01*
G01*
%TO.C,SW_EC11*%
X242210750Y-41275000D02*
G75*
G03*
X242210750Y-41275000I-6467000J0D01*
G01*
%TO.C,SW_EC31*%
X161248250Y-79375000D02*
G75*
G03*
X161248250Y-79375000I-6467000J0D01*
G01*
%TO.C,SW_EC29*%
X123148250Y-79375000D02*
G75*
G03*
X123148250Y-79375000I-6467000J0D01*
G01*
%TO.C,SW_EC28*%
X104098250Y-79375000D02*
G75*
G03*
X104098250Y-79375000I-6467000J0D01*
G01*
%TO.C,SW_EC26*%
X65998250Y-79375000D02*
G75*
G03*
X65998250Y-79375000I-6467000J0D01*
G01*
%TO.C,SW_EC9*%
X204110750Y-41275000D02*
G75*
G03*
X204110750Y-41275000I-6467000J0D01*
G01*
%TO.C,SW_EC33*%
X199348250Y-79375000D02*
G75*
G03*
X199348250Y-79375000I-6467000J0D01*
G01*
%TO.C,SW_EC49*%
X258879500Y-60325000D02*
G75*
G03*
X258879500Y-60325000I-6467000J0D01*
G01*
%TO.C,SW_EC6*%
X146960750Y-41275000D02*
G75*
G03*
X146960750Y-41275000I-6467000J0D01*
G01*
%TO.C,SW_EC14*%
X75523250Y-60325000D02*
G75*
G03*
X75523250Y-60325000I-6467000J0D01*
G01*
%TO.C,SW_EC42*%
X156485750Y-98425000D02*
G75*
G03*
X156485750Y-98425000I-6467000J0D01*
G01*
%TO.C,G\u002A\u002A\u002A*%
G36*
X37019304Y-38712599D02*
G01*
X37148515Y-38718578D01*
X37234899Y-38731534D01*
X37286836Y-38753915D01*
X37312706Y-38788169D01*
X37320891Y-38836745D01*
X37321156Y-38852014D01*
X37309615Y-38893000D01*
X37276573Y-38982809D01*
X37224410Y-39115632D01*
X37155499Y-39285658D01*
X37072219Y-39487075D01*
X36976945Y-39714072D01*
X36872055Y-39960839D01*
X36781202Y-40172318D01*
X36667905Y-40436660D01*
X36564070Y-40682538D01*
X36471857Y-40904591D01*
X36393425Y-41097460D01*
X36330933Y-41255783D01*
X36286539Y-41374201D01*
X36262404Y-41447354D01*
X36258845Y-41469163D01*
X36273267Y-41486614D01*
X36306599Y-41498649D01*
X36367397Y-41505928D01*
X36464219Y-41509112D01*
X36605624Y-41508860D01*
X36746627Y-41506805D01*
X37216814Y-41498592D01*
X37224900Y-40889732D01*
X37229596Y-40659132D01*
X37236817Y-40475231D01*
X37246339Y-40341611D01*
X37257935Y-40261854D01*
X37265816Y-40241317D01*
X37308460Y-40224639D01*
X37396325Y-40212100D01*
X37515964Y-40203735D01*
X37653926Y-40199580D01*
X37796764Y-40199669D01*
X37931027Y-40204037D01*
X38043268Y-40212719D01*
X38120037Y-40225750D01*
X38146686Y-40239026D01*
X38154678Y-40279011D01*
X38163040Y-40369069D01*
X38171197Y-40499655D01*
X38178575Y-40661224D01*
X38184599Y-40844234D01*
X38185710Y-40887441D01*
X38200616Y-41498592D01*
X38402967Y-41513498D01*
X38539293Y-41530706D01*
X38617566Y-41557905D01*
X38633555Y-41573122D01*
X38644387Y-41618941D01*
X38653296Y-41711211D01*
X38659393Y-41836768D01*
X38661786Y-41982450D01*
X38661793Y-41990493D01*
X38659621Y-42136875D01*
X38653698Y-42263831D01*
X38644916Y-42358199D01*
X38634164Y-42406814D01*
X38633555Y-42407864D01*
X38581186Y-42439448D01*
X38470530Y-42461101D01*
X38402967Y-42467488D01*
X38200616Y-42482394D01*
X38192358Y-42942399D01*
X38186978Y-43126029D01*
X38178389Y-43274934D01*
X38167227Y-43381318D01*
X38154134Y-43437387D01*
X38151442Y-43441754D01*
X38119185Y-43458931D01*
X38051010Y-43470764D01*
X37939873Y-43477877D01*
X37778728Y-43480897D01*
X37708715Y-43481103D01*
X37528270Y-43479376D01*
X37400316Y-43473776D01*
X37317807Y-43463678D01*
X37273697Y-43448456D01*
X37265988Y-43441754D01*
X37252595Y-43396276D01*
X37241012Y-43298980D01*
X37231877Y-43157662D01*
X37225829Y-42980117D01*
X37225072Y-42942399D01*
X37216814Y-42482394D01*
X36085895Y-42474578D01*
X35792797Y-42472318D01*
X35553588Y-42469807D01*
X35362529Y-42466770D01*
X35213886Y-42462932D01*
X35101921Y-42458018D01*
X35020897Y-42451753D01*
X34965079Y-42443861D01*
X34928730Y-42434069D01*
X34906113Y-42422101D01*
X34900860Y-42417786D01*
X34858714Y-42366009D01*
X34846743Y-42332405D01*
X34858158Y-42295355D01*
X34890090Y-42212217D01*
X34939067Y-42091488D01*
X35001622Y-41941666D01*
X35074283Y-41771250D01*
X35103537Y-41703516D01*
X35174905Y-41538797D01*
X35265423Y-41329789D01*
X35370573Y-41086928D01*
X35485837Y-40820651D01*
X35606699Y-40541394D01*
X35728640Y-40259594D01*
X35847143Y-39985687D01*
X35850395Y-39978169D01*
X35957278Y-39731902D01*
X36058232Y-39500846D01*
X36150516Y-39291161D01*
X36231388Y-39109008D01*
X36298106Y-38960549D01*
X36347931Y-38851944D01*
X36378119Y-38789355D01*
X36384312Y-38778228D01*
X36404776Y-38751456D01*
X36431969Y-38732950D01*
X36476199Y-38721188D01*
X36547776Y-38714649D01*
X36657008Y-38711811D01*
X36814204Y-38711155D01*
X36838886Y-38711150D01*
X37019304Y-38712599D01*
G37*
G36*
X40778048Y-41003315D02*
G01*
X41739404Y-41003315D01*
X41745959Y-41281394D01*
X41780486Y-41463154D01*
X41826885Y-41608996D01*
X41887966Y-41754187D01*
X41957341Y-41887766D01*
X42028622Y-41998774D01*
X42095423Y-42076250D01*
X42151355Y-42109235D01*
X42157278Y-42109684D01*
X42198879Y-42085095D01*
X42262591Y-42016623D01*
X42341211Y-41912306D01*
X42364290Y-41878697D01*
X42417522Y-41800388D01*
X42499700Y-41680353D01*
X42605809Y-41525878D01*
X42730836Y-41344245D01*
X42869768Y-41142739D01*
X43017590Y-40928644D01*
X43158486Y-40724859D01*
X43302822Y-40515794D01*
X43436522Y-40321277D01*
X43555753Y-40146950D01*
X43656682Y-39998456D01*
X43735474Y-39881437D01*
X43788296Y-39801536D01*
X43811313Y-39764396D01*
X43811828Y-39763253D01*
X43799377Y-39723820D01*
X43737974Y-39687743D01*
X43638265Y-39656599D01*
X43510896Y-39631964D01*
X43366513Y-39615417D01*
X43215762Y-39608534D01*
X43069288Y-39612892D01*
X42937739Y-39630070D01*
X42927386Y-39632214D01*
X42655034Y-39719241D01*
X42409857Y-39853785D01*
X42196079Y-40029105D01*
X42017921Y-40238459D01*
X41879608Y-40475106D01*
X41785362Y-40732305D01*
X41739404Y-41003315D01*
X40778048Y-41003315D01*
X40784699Y-40817938D01*
X40848178Y-40473263D01*
X40857314Y-40440258D01*
X40976324Y-40118153D01*
X41142241Y-39809075D01*
X41347216Y-39523531D01*
X41583401Y-39272030D01*
X41842945Y-39065080D01*
X41922411Y-39014325D01*
X42278907Y-38830692D01*
X42641401Y-38705654D01*
X43008111Y-38639412D01*
X43377254Y-38632167D01*
X43747050Y-38684119D01*
X44057852Y-38774000D01*
X44207165Y-38827109D01*
X44310658Y-38861109D01*
X44378743Y-38876724D01*
X44421830Y-38874677D01*
X44450329Y-38855692D01*
X44474650Y-38820492D01*
X44484584Y-38803656D01*
X44535050Y-38723564D01*
X44582798Y-38671233D01*
X44641894Y-38640777D01*
X44726405Y-38626310D01*
X44850395Y-38621948D01*
X44919436Y-38621714D01*
X45090843Y-38627543D01*
X45206798Y-38648499D01*
X45269931Y-38689783D01*
X45282872Y-38756597D01*
X45248251Y-38854142D01*
X45168699Y-38987619D01*
X45131954Y-39042008D01*
X45064843Y-39143701D01*
X45013412Y-39229769D01*
X44985614Y-39286552D01*
X44982893Y-39298040D01*
X45001080Y-39337167D01*
X45049793Y-39408724D01*
X45120262Y-39500299D01*
X45159658Y-39548219D01*
X45338986Y-39797490D01*
X45493625Y-40083166D01*
X45612407Y-40383583D01*
X45642571Y-40484977D01*
X45686764Y-40710090D01*
X45709590Y-40966682D01*
X45711034Y-41233596D01*
X45691083Y-41489675D01*
X45649722Y-41713763D01*
X45643434Y-41737089D01*
X45513246Y-42097789D01*
X45337038Y-42425703D01*
X45119733Y-42718199D01*
X44866256Y-42972641D01*
X44581531Y-43186395D01*
X44270480Y-43356828D01*
X43938029Y-43481305D01*
X43589100Y-43557192D01*
X43228618Y-43581855D01*
X42861506Y-43552660D01*
X42492689Y-43466972D01*
X42441087Y-43450280D01*
X42325080Y-43411821D01*
X42232271Y-43381816D01*
X42175791Y-43364474D01*
X42165055Y-43361855D01*
X42143659Y-43384606D01*
X42098661Y-43444512D01*
X42039429Y-43529048D01*
X42034023Y-43536991D01*
X41968039Y-43627029D01*
X41908212Y-43696416D01*
X41867228Y-43730479D01*
X41866507Y-43730770D01*
X41815225Y-43739436D01*
X41721973Y-43745957D01*
X41604394Y-43749230D01*
X41569087Y-43749413D01*
X41430909Y-43746011D01*
X41340550Y-43734592D01*
X41286529Y-43713336D01*
X41273403Y-43702565D01*
X41237788Y-43649683D01*
X41232510Y-43585254D01*
X41260124Y-43500805D01*
X41323186Y-43387864D01*
X41405429Y-43264766D01*
X41479428Y-43156329D01*
X41538510Y-43065228D01*
X41575457Y-43002872D01*
X41584302Y-42982019D01*
X41564477Y-42946789D01*
X41514793Y-42890149D01*
X41492480Y-42868078D01*
X41392642Y-42759473D01*
X41280177Y-42616013D01*
X41186652Y-42482394D01*
X42794081Y-42482394D01*
X42819602Y-42531425D01*
X42893469Y-42569793D01*
X43005161Y-42596316D01*
X43144159Y-42609810D01*
X43299941Y-42609094D01*
X43461989Y-42592983D01*
X43578945Y-42570645D01*
X43861470Y-42474612D01*
X44114045Y-42328974D01*
X44331917Y-42138164D01*
X44510331Y-41906616D01*
X44644534Y-41638764D01*
X44677329Y-41546220D01*
X44731933Y-41289578D01*
X44740379Y-41017821D01*
X44703356Y-40750724D01*
X44642779Y-40556914D01*
X44582005Y-40425761D01*
X44516073Y-40313739D01*
X44452058Y-40230302D01*
X44397036Y-40184904D01*
X44362996Y-40183048D01*
X44335555Y-40213642D01*
X44281002Y-40285135D01*
X44205559Y-40388994D01*
X44115450Y-40516683D01*
X44038664Y-40627808D01*
X43939285Y-40772548D01*
X43814484Y-40953736D01*
X43672889Y-41158875D01*
X43523133Y-41375469D01*
X43373846Y-41591023D01*
X43272517Y-41737089D01*
X43148374Y-41917847D01*
X43036128Y-42085018D01*
X42940190Y-42231731D01*
X42864974Y-42351112D01*
X42814888Y-42436291D01*
X42794346Y-42480395D01*
X42794081Y-42482394D01*
X41186652Y-42482394D01*
X41168508Y-42456472D01*
X41071059Y-42299629D01*
X41024198Y-42213034D01*
X40892790Y-41888126D01*
X40808245Y-41538533D01*
X40771802Y-41177416D01*
X40778048Y-41003315D01*
G37*
%TO.C,SW_EC34*%
X218398250Y-79375000D02*
G75*
G03*
X218398250Y-79375000I-6467000J0D01*
G01*
%TO.C,SW_EC8*%
X185060750Y-41275000D02*
G75*
G03*
X185060750Y-41275000I-6467000J0D01*
G01*
%TO.C,SW_EC20*%
X189823250Y-60325000D02*
G75*
G03*
X189823250Y-60325000I-6467000J0D01*
G01*
%TO.C,SW_EC22*%
X227923250Y-60325000D02*
G75*
G03*
X227923250Y-60325000I-6467000J0D01*
G01*
%TO.C,SW_EC46*%
X251735750Y-98425000D02*
G75*
G03*
X251735750Y-98425000I-6467000J0D01*
G01*
%TO.C,SW_EC3*%
X89810750Y-41275000D02*
G75*
G03*
X89810750Y-41275000I-6467000J0D01*
G01*
%TO.C,SW_EC38*%
X61235750Y-98425000D02*
G75*
G03*
X61235750Y-98425000I-6467000J0D01*
G01*
%TO.C,SW_EC1*%
X46948250Y-41275000D02*
G75*
G03*
X46948250Y-41275000I-6467000J0D01*
G01*
%TO.C,SW_EC24*%
X268404500Y-60325000D02*
G75*
G03*
X268404500Y-60325000I-6467000J0D01*
G01*
%TO.C,SW_EC7*%
X166010750Y-41275000D02*
G75*
G03*
X166010750Y-41275000I-6467000J0D01*
G01*
%TO.C,G\u002A\u002A\u002A*%
G36*
X189960377Y-94997108D02*
G01*
X189996313Y-95018838D01*
X190046499Y-95056530D01*
X190106241Y-95106165D01*
X190170846Y-95163721D01*
X190235622Y-95225178D01*
X190295875Y-95286515D01*
X190338851Y-95334177D01*
X190380141Y-95380053D01*
X190414213Y-95413661D01*
X190434435Y-95428526D01*
X190435701Y-95428744D01*
X190451447Y-95418215D01*
X190446185Y-95392076D01*
X190422769Y-95358497D01*
X190405255Y-95341564D01*
X190359961Y-95297796D01*
X190320857Y-95251239D01*
X190292826Y-95208957D01*
X190280754Y-95178013D01*
X190284441Y-95166865D01*
X190307431Y-95170773D01*
X190344846Y-95195807D01*
X190390174Y-95236702D01*
X190436904Y-95288192D01*
X190441624Y-95293996D01*
X190467999Y-95324443D01*
X190510718Y-95371269D01*
X190562639Y-95426703D01*
X190591575Y-95457053D01*
X190639600Y-95509608D01*
X190675812Y-95554118D01*
X190695651Y-95584679D01*
X190697584Y-95594299D01*
X190701735Y-95615495D01*
X190724219Y-95649074D01*
X190735641Y-95662120D01*
X190771411Y-95701536D01*
X190818598Y-95754995D01*
X190866114Y-95809910D01*
X190918820Y-95870213D01*
X190982284Y-95940932D01*
X191043983Y-96008137D01*
X191052228Y-96016963D01*
X191109066Y-96078734D01*
X191166142Y-96142555D01*
X191212853Y-96196536D01*
X191220663Y-96205882D01*
X191253115Y-96244515D01*
X191302549Y-96302645D01*
X191363875Y-96374318D01*
X191432003Y-96453583D01*
X191487450Y-96517844D01*
X191567592Y-96611294D01*
X191654510Y-96713872D01*
X191739939Y-96815751D01*
X191815617Y-96907102D01*
X191847607Y-96946237D01*
X192005643Y-97140800D01*
X192128773Y-97020826D01*
X192185551Y-96967603D01*
X192238134Y-96922017D01*
X192279060Y-96890362D01*
X192294974Y-96880647D01*
X192343844Y-96857800D01*
X192378007Y-96841901D01*
X192411408Y-96815652D01*
X192445618Y-96772978D01*
X192454156Y-96758973D01*
X192493124Y-96709184D01*
X192554762Y-96653600D01*
X192603684Y-96617635D01*
X192681923Y-96564354D01*
X192736620Y-96526531D01*
X192772209Y-96500860D01*
X192793125Y-96484032D01*
X192803801Y-96472742D01*
X192808070Y-96465190D01*
X192826026Y-96441730D01*
X192864033Y-96402902D01*
X192915796Y-96354329D01*
X192975023Y-96301638D01*
X193035418Y-96250455D01*
X193090688Y-96206403D01*
X193127373Y-96179815D01*
X193180910Y-96140707D01*
X193227082Y-96101632D01*
X193250711Y-96077084D01*
X193279761Y-96047627D01*
X193303774Y-96035113D01*
X193304052Y-96035110D01*
X193328711Y-96022711D01*
X193348656Y-96001423D01*
X193372957Y-95975496D01*
X193388389Y-95967736D01*
X193408367Y-95957401D01*
X193444659Y-95930549D01*
X193481521Y-95899772D01*
X193539934Y-95849038D01*
X193605628Y-95792516D01*
X193642776Y-95760813D01*
X193699883Y-95711125D01*
X193757932Y-95658784D01*
X193790083Y-95628710D01*
X193841437Y-95581912D01*
X193895322Y-95536388D01*
X193913332Y-95522206D01*
X193957628Y-95486486D01*
X193994607Y-95453467D01*
X194001834Y-95446209D01*
X194055431Y-95396822D01*
X194124069Y-95343879D01*
X194200702Y-95291703D01*
X194278287Y-95244620D01*
X194349778Y-95206954D01*
X194408130Y-95183029D01*
X194440891Y-95176691D01*
X194492149Y-95182180D01*
X194559372Y-95195389D01*
X194628808Y-95212989D01*
X194686706Y-95231650D01*
X194709919Y-95241827D01*
X194738370Y-95268212D01*
X194746667Y-95291742D01*
X194761590Y-95323704D01*
X194798702Y-95348131D01*
X194846520Y-95358465D01*
X194862188Y-95357726D01*
X194903950Y-95367224D01*
X194921141Y-95386441D01*
X194945969Y-95425865D01*
X194969843Y-95460298D01*
X194996340Y-95520592D01*
X194989584Y-95581008D01*
X194955023Y-95633149D01*
X194922867Y-95676641D01*
X194921293Y-95706446D01*
X194949504Y-95720962D01*
X194998232Y-95719830D01*
X195043259Y-95717490D01*
X195065585Y-95724293D01*
X195066694Y-95727491D01*
X195081557Y-95740314D01*
X195118417Y-95751013D01*
X195129857Y-95752830D01*
X195219035Y-95774635D01*
X195289236Y-95811680D01*
X195334580Y-95860436D01*
X195344125Y-95881463D01*
X195371162Y-95933554D01*
X195408665Y-95977574D01*
X195437515Y-96004789D01*
X195445034Y-96026931D01*
X195433990Y-96059094D01*
X195426519Y-96074948D01*
X195411778Y-96119209D01*
X195409581Y-96156764D01*
X195418975Y-96178966D01*
X195437869Y-96177897D01*
X195463998Y-96178222D01*
X195490719Y-96198394D01*
X195504482Y-96227685D01*
X195504625Y-96230757D01*
X195491346Y-96249119D01*
X195455485Y-96280484D01*
X195403006Y-96319966D01*
X195358078Y-96350810D01*
X195289638Y-96399285D01*
X195232630Y-96445702D01*
X195194133Y-96484064D01*
X195184139Y-96498165D01*
X195150739Y-96539418D01*
X195103775Y-96576099D01*
X195094877Y-96581136D01*
X195056331Y-96604993D01*
X195034704Y-96625285D01*
X195033007Y-96629951D01*
X195018592Y-96655803D01*
X194984109Y-96678971D01*
X194942694Y-96691108D01*
X194936156Y-96691470D01*
X194907375Y-96699730D01*
X194898380Y-96729414D01*
X194898259Y-96736102D01*
X194884339Y-96783129D01*
X194843328Y-96846832D01*
X194776346Y-96925479D01*
X194774168Y-96927815D01*
X194742482Y-96959630D01*
X194695408Y-97004359D01*
X194638510Y-97056999D01*
X194577348Y-97112549D01*
X194517485Y-97166006D01*
X194464484Y-97212369D01*
X194423906Y-97246635D01*
X194401315Y-97263802D01*
X194399543Y-97264707D01*
X194378417Y-97282921D01*
X194348486Y-97320429D01*
X194328819Y-97349504D01*
X194296253Y-97392247D01*
X194245584Y-97448838D01*
X194184311Y-97511232D01*
X194132581Y-97560025D01*
X194063229Y-97624055D01*
X193992990Y-97690725D01*
X193931483Y-97750817D01*
X193898309Y-97784520D01*
X193836709Y-97844676D01*
X193765247Y-97908444D01*
X193712320Y-97951792D01*
X193647799Y-98004552D01*
X193580253Y-98064572D01*
X193515933Y-98125765D01*
X193461087Y-98182044D01*
X193421965Y-98227322D01*
X193407609Y-98248576D01*
X193382673Y-98276902D01*
X193340997Y-98308132D01*
X193326538Y-98316759D01*
X193279763Y-98348072D01*
X193223428Y-98393031D01*
X193179179Y-98433004D01*
X193138981Y-98472925D01*
X193116018Y-98503663D01*
X193110851Y-98532757D01*
X193124046Y-98567744D01*
X193156165Y-98616163D01*
X193196974Y-98671118D01*
X193221991Y-98704840D01*
X193253511Y-98747948D01*
X193293516Y-98803200D01*
X193343989Y-98873354D01*
X193406910Y-98961168D01*
X193484262Y-99069400D01*
X193578025Y-99200808D01*
X193638143Y-99285131D01*
X193705553Y-99378895D01*
X193772464Y-99470510D01*
X193835107Y-99554941D01*
X193889711Y-99627153D01*
X193932506Y-99682111D01*
X193959722Y-99714779D01*
X193960307Y-99715415D01*
X193985500Y-99746675D01*
X194020261Y-99794942D01*
X194059905Y-99853041D01*
X194099746Y-99913800D01*
X194135099Y-99970045D01*
X194161279Y-100014603D01*
X194173599Y-100040301D01*
X194173988Y-100042558D01*
X194182479Y-100073757D01*
X194205574Y-100126967D01*
X194239703Y-100195833D01*
X194281298Y-100274002D01*
X194326790Y-100355119D01*
X194372610Y-100432830D01*
X194415190Y-100500780D01*
X194450961Y-100552614D01*
X194476354Y-100581979D01*
X194477429Y-100582855D01*
X194496515Y-100605220D01*
X194527271Y-100648790D01*
X194564582Y-100705565D01*
X194603334Y-100767542D01*
X194638411Y-100826718D01*
X194664699Y-100875093D01*
X194666356Y-100878433D01*
X194718357Y-100979221D01*
X194770519Y-101071253D01*
X194813351Y-101138691D01*
X194861783Y-101218910D01*
X194884473Y-101281420D01*
X194880928Y-101324852D01*
X194880440Y-101325791D01*
X194860958Y-101351487D01*
X194838323Y-101352767D01*
X194806092Y-101328326D01*
X194784699Y-101306411D01*
X194736806Y-101255166D01*
X194737526Y-101301737D01*
X194730475Y-101341972D01*
X194708973Y-101353270D01*
X194675037Y-101336082D01*
X194630682Y-101290860D01*
X194618044Y-101275022D01*
X194582395Y-101231100D01*
X194554044Y-101200323D01*
X194540334Y-101189938D01*
X194527907Y-101200099D01*
X194537236Y-101230402D01*
X194566915Y-101276532D01*
X194569810Y-101280363D01*
X194596386Y-101318515D01*
X194611211Y-101346207D01*
X194612294Y-101350824D01*
X194622078Y-101373698D01*
X194645137Y-101407586D01*
X194645606Y-101408187D01*
X194667118Y-101448365D01*
X194677834Y-101493619D01*
X194677101Y-101533393D01*
X194664261Y-101557130D01*
X194655022Y-101559778D01*
X194626219Y-101569671D01*
X194622650Y-101600151D01*
X194638960Y-101642495D01*
X194656318Y-101698034D01*
X194655602Y-101766404D01*
X194654138Y-101777941D01*
X194639351Y-101838307D01*
X194616160Y-101883039D01*
X194588952Y-101906607D01*
X194562113Y-101903481D01*
X194557622Y-101899619D01*
X194519374Y-101880863D01*
X194478554Y-101894415D01*
X194466968Y-101904445D01*
X194441588Y-101919978D01*
X194408727Y-101913559D01*
X194398952Y-101909323D01*
X194363868Y-101898218D01*
X194342101Y-101908028D01*
X194336367Y-101914843D01*
X194311545Y-101940138D01*
X194271710Y-101974004D01*
X194254126Y-101987661D01*
X194207537Y-102017828D01*
X194168575Y-102027767D01*
X194133324Y-102024357D01*
X194089781Y-102021393D01*
X194065353Y-102030112D01*
X194064825Y-102030879D01*
X194037460Y-102046172D01*
X193992058Y-102035234D01*
X193930324Y-101999128D01*
X193853964Y-101938917D01*
X193764686Y-101855664D01*
X193734381Y-101825063D01*
X193675670Y-101769267D01*
X193631165Y-101738077D01*
X193596173Y-101728215D01*
X193595661Y-101728213D01*
X193561240Y-101719813D01*
X193528832Y-101690337D01*
X193504855Y-101656628D01*
X193476419Y-101613892D01*
X193455214Y-101584073D01*
X193448985Y-101576622D01*
X193433970Y-101559118D01*
X193406830Y-101524476D01*
X193392032Y-101504965D01*
X193354548Y-101464770D01*
X193299194Y-101416738D01*
X193237006Y-101370331D01*
X193227759Y-101364088D01*
X193163699Y-101323743D01*
X193118189Y-101301488D01*
X193083628Y-101294179D01*
X193063148Y-101296011D01*
X193027958Y-101296778D01*
X192989507Y-101281699D01*
X192937995Y-101246800D01*
X192933549Y-101243438D01*
X192815773Y-101141482D01*
X192691149Y-101009887D01*
X192575923Y-100869194D01*
X192531388Y-100814094D01*
X192477988Y-100752043D01*
X192420558Y-100688173D01*
X192363932Y-100627619D01*
X192312946Y-100575512D01*
X192272433Y-100536987D01*
X192247229Y-100517176D01*
X192242911Y-100515614D01*
X192223252Y-100503560D01*
X192189217Y-100471868D01*
X192147688Y-100427030D01*
X192141850Y-100420286D01*
X192099644Y-100371318D01*
X192064686Y-100331115D01*
X192043954Y-100307697D01*
X192042937Y-100306593D01*
X192023747Y-100284258D01*
X191991183Y-100244835D01*
X191958720Y-100204819D01*
X191914334Y-100152199D01*
X191857133Y-100087824D01*
X191797998Y-100023884D01*
X191785841Y-100011119D01*
X191733094Y-99954333D01*
X191685122Y-99899600D01*
X191650055Y-99856296D01*
X191642671Y-99846067D01*
X191617027Y-99811347D01*
X191599373Y-99792517D01*
X191596932Y-99791403D01*
X191580499Y-99801791D01*
X191549652Y-99827797D01*
X191537980Y-99838471D01*
X191502025Y-99869383D01*
X191447901Y-99912854D01*
X191384702Y-99961659D01*
X191352702Y-99985685D01*
X191294821Y-100028984D01*
X191247577Y-100064885D01*
X191217213Y-100088612D01*
X191209532Y-100095194D01*
X191178828Y-100118558D01*
X191129817Y-100146050D01*
X191076037Y-100170813D01*
X191031027Y-100185993D01*
X191029601Y-100186304D01*
X190974332Y-100213809D01*
X190914105Y-100274186D01*
X190912184Y-100276550D01*
X190825261Y-100374053D01*
X190745452Y-100442087D01*
X190692268Y-100473585D01*
X190646360Y-100499604D01*
X190591404Y-100536040D01*
X190565942Y-100554681D01*
X190519292Y-100588208D01*
X190479372Y-100613419D01*
X190463825Y-100621203D01*
X190432303Y-100646057D01*
X190422659Y-100662480D01*
X190402070Y-100698934D01*
X190375501Y-100726813D01*
X190358576Y-100734446D01*
X190341624Y-100744955D01*
X190306724Y-100772815D01*
X190260683Y-100812528D01*
X190249107Y-100822875D01*
X190188612Y-100873100D01*
X190124300Y-100919938D01*
X190070043Y-100953291D01*
X190069810Y-100953412D01*
X190017713Y-100983070D01*
X189974522Y-101012100D01*
X189959111Y-101024997D01*
X189926831Y-101047980D01*
X189905116Y-101054473D01*
X189876613Y-101067001D01*
X189858796Y-101085249D01*
X189831645Y-101111516D01*
X189784727Y-101146958D01*
X189728044Y-101184981D01*
X189671599Y-101218994D01*
X189625395Y-101242405D01*
X189613615Y-101246835D01*
X189580660Y-101264588D01*
X189537098Y-101296919D01*
X189515502Y-101315624D01*
X189461615Y-101358362D01*
X189402147Y-101396247D01*
X189383621Y-101405827D01*
X189326554Y-101437504D01*
X189266007Y-101477933D01*
X189247264Y-101492199D01*
X189196403Y-101529609D01*
X189146489Y-101561406D01*
X189129359Y-101570625D01*
X189045891Y-101613594D01*
X188983828Y-101650290D01*
X188947712Y-101677981D01*
X188944081Y-101682096D01*
X188923553Y-101699600D01*
X188883699Y-101727892D01*
X188832855Y-101761648D01*
X188779355Y-101795542D01*
X188731536Y-101824251D01*
X188697734Y-101842447D01*
X188687330Y-101846118D01*
X188668687Y-101856471D01*
X188641053Y-101879658D01*
X188608273Y-101905098D01*
X188554538Y-101941192D01*
X188487118Y-101983626D01*
X188413287Y-102028088D01*
X188340315Y-102070265D01*
X188275476Y-102105843D01*
X188226039Y-102130509D01*
X188203346Y-102139279D01*
X188150515Y-102148529D01*
X188083901Y-102154746D01*
X188013704Y-102157662D01*
X187950122Y-102157008D01*
X187903354Y-102152515D01*
X187887151Y-102147613D01*
X187863417Y-102114910D01*
X187857675Y-102070562D01*
X187855763Y-102030961D01*
X187843981Y-102016653D01*
X187813256Y-102019256D01*
X187804108Y-102021055D01*
X187755211Y-102022211D01*
X187705430Y-102001593D01*
X187690414Y-101992171D01*
X187639425Y-101959125D01*
X187591144Y-101928643D01*
X187583968Y-101924222D01*
X187548180Y-101886349D01*
X187541242Y-101837214D01*
X187561828Y-101780537D01*
X187608615Y-101720036D01*
X187677598Y-101661343D01*
X187748251Y-101594095D01*
X187780262Y-101537054D01*
X187805148Y-101488755D01*
X187844708Y-101428800D01*
X187890472Y-101370005D01*
X187891396Y-101368925D01*
X187931355Y-101321587D01*
X187961046Y-101285043D01*
X187975112Y-101265923D01*
X187975580Y-101264750D01*
X187970284Y-101246354D01*
X187959988Y-101217779D01*
X187954183Y-101190371D01*
X187963544Y-101164291D01*
X187992608Y-101130060D01*
X188010518Y-101112203D01*
X188047133Y-101074188D01*
X188071145Y-101044921D01*
X188076641Y-101034211D01*
X188065889Y-101013564D01*
X188043663Y-100987809D01*
X188023602Y-100960403D01*
X188016850Y-100924913D01*
X188020474Y-100872181D01*
X188023210Y-100813012D01*
X188014763Y-100780930D01*
X188011343Y-100777839D01*
X187992899Y-100751583D01*
X188003970Y-100713207D01*
X188044939Y-100661975D01*
X188096483Y-100613835D01*
X188153106Y-100564879D01*
X188206588Y-100518604D01*
X188246476Y-100484054D01*
X188250338Y-100480705D01*
X188281699Y-100449864D01*
X188289888Y-100426468D01*
X188280141Y-100400153D01*
X188270770Y-100374291D01*
X188278099Y-100350720D01*
X188306346Y-100319001D01*
X188317143Y-100308603D01*
X188403155Y-100229276D01*
X188485944Y-100157453D01*
X188559932Y-100097707D01*
X188619539Y-100054608D01*
X188647427Y-100037944D01*
X188725397Y-99995452D01*
X188776495Y-99960423D01*
X188805424Y-99928576D01*
X188816885Y-99895629D01*
X188817640Y-99882943D01*
X188830654Y-99831460D01*
X188872114Y-99778823D01*
X188873298Y-99777671D01*
X188910225Y-99745332D01*
X188939031Y-99726130D01*
X188946483Y-99723836D01*
X188969969Y-99712460D01*
X188994611Y-99690149D01*
X189024894Y-99664845D01*
X189046706Y-99656462D01*
X189067804Y-99643727D01*
X189099194Y-99610943D01*
X189122746Y-99580667D01*
X189154456Y-99539007D01*
X189178845Y-99511477D01*
X189187991Y-99504871D01*
X189207296Y-99494762D01*
X189231455Y-99475341D01*
X189290784Y-99423810D01*
X189366359Y-99361186D01*
X189449165Y-99294652D01*
X189530186Y-99231388D01*
X189600407Y-99178576D01*
X189634664Y-99154163D01*
X189684239Y-99116565D01*
X189749992Y-99061734D01*
X189824295Y-98996271D01*
X189899519Y-98926779D01*
X189919845Y-98907366D01*
X189985976Y-98845470D01*
X190045579Y-98792991D01*
X190093687Y-98754054D01*
X190125331Y-98732789D01*
X190133266Y-98730070D01*
X190161285Y-98718908D01*
X190201204Y-98690319D01*
X190227296Y-98666907D01*
X190275581Y-98620989D01*
X190334743Y-98566369D01*
X190380670Y-98524971D01*
X190469315Y-98446199D01*
X190247467Y-98179680D01*
X190126606Y-98036768D01*
X190000343Y-97891623D01*
X189873050Y-97749013D01*
X189749095Y-97613707D01*
X189632848Y-97490474D01*
X189528679Y-97384082D01*
X189440958Y-97299302D01*
X189439955Y-97298372D01*
X189370764Y-97233955D01*
X189298055Y-97165736D01*
X189233006Y-97104224D01*
X189205365Y-97077846D01*
X189142578Y-97021502D01*
X189072900Y-96964822D01*
X189012263Y-96920668D01*
X188960335Y-96883421D01*
X188918394Y-96848332D01*
X188897045Y-96824973D01*
X188869489Y-96792259D01*
X188825032Y-96751083D01*
X188771702Y-96707600D01*
X188717525Y-96667967D01*
X188670527Y-96638341D01*
X188638734Y-96624877D01*
X188635840Y-96624632D01*
X188606849Y-96609617D01*
X188583944Y-96571784D01*
X188571396Y-96521954D01*
X188573475Y-96470949D01*
X188574124Y-96468225D01*
X188573237Y-96426289D01*
X188547441Y-96391677D01*
X188523751Y-96359804D01*
X188519513Y-96332866D01*
X188517464Y-96300711D01*
X188510439Y-96290367D01*
X188503650Y-96271985D01*
X188520538Y-96261108D01*
X188535939Y-96250925D01*
X188529087Y-96235021D01*
X188502846Y-96210551D01*
X188456665Y-96176958D01*
X188410103Y-96151603D01*
X188409846Y-96151496D01*
X188376480Y-96130201D01*
X188362980Y-96107126D01*
X188352323Y-96082551D01*
X188324445Y-96042553D01*
X188287184Y-95997865D01*
X188248429Y-95950541D01*
X188221106Y-95909121D01*
X188211389Y-95883759D01*
X188220309Y-95852498D01*
X188240433Y-95830065D01*
X188261805Y-95825248D01*
X188269835Y-95832170D01*
X188294410Y-95846776D01*
X188330369Y-95848568D01*
X188360393Y-95838147D01*
X188367687Y-95828777D01*
X188365982Y-95799874D01*
X188351559Y-95760908D01*
X188336478Y-95715452D01*
X188348222Y-95689570D01*
X188387437Y-95681396D01*
X188421532Y-95672779D01*
X188435452Y-95658719D01*
X188453587Y-95645560D01*
X188498142Y-95637398D01*
X188572608Y-95633602D01*
X188574702Y-95633561D01*
X188637385Y-95631535D01*
X188685646Y-95628407D01*
X188710788Y-95624781D01*
X188712336Y-95623994D01*
X188711083Y-95605586D01*
X188701807Y-95583992D01*
X188690647Y-95551512D01*
X188703755Y-95541967D01*
X188740549Y-95555542D01*
X188758729Y-95565680D01*
X188797814Y-95585707D01*
X188819817Y-95583223D01*
X188833714Y-95553971D01*
X188840704Y-95526821D01*
X188864292Y-95487832D01*
X188908152Y-95453096D01*
X188959213Y-95431656D01*
X188982461Y-95428744D01*
X188998713Y-95420065D01*
X188999115Y-95389329D01*
X188996902Y-95377032D01*
X188992464Y-95341599D01*
X189002899Y-95329469D01*
X189025462Y-95330418D01*
X189066101Y-95324879D01*
X189111418Y-95304489D01*
X189113706Y-95303014D01*
X189166057Y-95280170D01*
X189234569Y-95273656D01*
X189251475Y-95274092D01*
X189303077Y-95273209D01*
X189334342Y-95266625D01*
X189339903Y-95260568D01*
X189327245Y-95244003D01*
X189323060Y-95243465D01*
X189306545Y-95233242D01*
X189312404Y-95207075D01*
X189338117Y-95171715D01*
X189356601Y-95153610D01*
X189414783Y-95116382D01*
X189471212Y-95111695D01*
X189507922Y-95125338D01*
X189544159Y-95129756D01*
X189593028Y-95119447D01*
X189639669Y-95099153D01*
X189669037Y-95073920D01*
X189692212Y-95063292D01*
X189719828Y-95065341D01*
X189758452Y-95063782D01*
X189775273Y-95046518D01*
X189787597Y-95031107D01*
X189805234Y-95031127D01*
X189837033Y-95048329D01*
X189860020Y-95063265D01*
X189901122Y-95089623D01*
X189929149Y-95106025D01*
X189935523Y-95108717D01*
X189944907Y-95094736D01*
X189950377Y-95064100D01*
X189950225Y-95033767D01*
X189944361Y-95020876D01*
X189939046Y-95005333D01*
X189943382Y-94995363D01*
X189960377Y-94997108D01*
G37*
%TO.C,SW_EC35*%
X237448250Y-79375000D02*
G75*
G03*
X237448250Y-79375000I-6467000J0D01*
G01*
X244591204Y-79375000D02*
G75*
G03*
X244591204Y-79375000I-6467000J0D01*
G01*
%TO.C,SW_EC21*%
X208873250Y-60325000D02*
G75*
G03*
X208873250Y-60325000I-6467000J0D01*
G01*
%TO.C,SW_EC16*%
X113623250Y-60325000D02*
G75*
G03*
X113623250Y-60325000I-6467000J0D01*
G01*
%TO.C,SW_EC43*%
X177913200Y-98425000D02*
G75*
G03*
X177913200Y-98425000I-6467000J0D01*
G01*
X182679500Y-98425000D02*
G75*
G03*
X182679500Y-98425000I-6467000J0D01*
G01*
%TO.C,SW_EC45*%
X232689550Y-98425000D02*
G75*
G03*
X232689550Y-98425000I-6467000J0D01*
G01*
X227923250Y-98425000D02*
G75*
G03*
X227923250Y-98425000I-6467000J0D01*
G01*
%TO.C,G\u002A\u002A\u002A*%
G36*
X108311119Y-95506204D02*
G01*
X108312264Y-95508245D01*
X108314085Y-95511526D01*
X108316554Y-95515993D01*
X108319640Y-95521591D01*
X108323315Y-95528267D01*
X108327547Y-95535966D01*
X108332308Y-95544634D01*
X108337568Y-95554217D01*
X108343297Y-95564660D01*
X108349466Y-95575911D01*
X108356044Y-95587915D01*
X108363003Y-95600617D01*
X108370313Y-95613964D01*
X108377943Y-95627901D01*
X108385864Y-95642375D01*
X108394047Y-95657331D01*
X108402462Y-95672715D01*
X108411079Y-95688473D01*
X108415463Y-95696493D01*
X108424169Y-95712417D01*
X108432687Y-95727993D01*
X108440986Y-95743168D01*
X108449037Y-95757887D01*
X108456811Y-95772096D01*
X108464278Y-95785742D01*
X108471409Y-95798770D01*
X108478173Y-95811126D01*
X108484542Y-95822756D01*
X108490485Y-95833606D01*
X108495973Y-95843622D01*
X108500976Y-95852750D01*
X108505465Y-95860936D01*
X108509411Y-95868126D01*
X108512783Y-95874265D01*
X108515551Y-95879300D01*
X108517687Y-95883177D01*
X108519161Y-95885841D01*
X108519943Y-95887239D01*
X108520065Y-95887446D01*
X108520789Y-95887885D01*
X108522808Y-95889030D01*
X108526066Y-95890852D01*
X108530512Y-95893321D01*
X108536090Y-95896409D01*
X108542747Y-95900084D01*
X108550429Y-95904319D01*
X108559083Y-95909082D01*
X108568654Y-95914346D01*
X108579090Y-95920079D01*
X108590335Y-95926253D01*
X108602336Y-95932838D01*
X108615040Y-95939804D01*
X108628393Y-95947123D01*
X108642341Y-95954763D01*
X108656829Y-95962697D01*
X108671805Y-95970894D01*
X108687215Y-95979324D01*
X108703004Y-95987959D01*
X108712285Y-95993033D01*
X108728260Y-96001767D01*
X108743882Y-96010310D01*
X108759098Y-96018634D01*
X108773854Y-96026709D01*
X108788096Y-96034505D01*
X108801772Y-96041993D01*
X108814827Y-96049144D01*
X108827208Y-96055928D01*
X108838861Y-96062317D01*
X108849733Y-96068280D01*
X108859771Y-96073788D01*
X108868920Y-96078813D01*
X108877128Y-96083323D01*
X108884340Y-96087292D01*
X108890504Y-96090688D01*
X108895565Y-96093482D01*
X108899470Y-96095646D01*
X108902166Y-96097149D01*
X108903600Y-96097963D01*
X108903831Y-96098107D01*
X108903169Y-96098503D01*
X108901212Y-96099606D01*
X108898015Y-96101387D01*
X108893630Y-96103816D01*
X108888111Y-96106864D01*
X108881513Y-96110502D01*
X108873887Y-96114701D01*
X108865288Y-96119431D01*
X108855769Y-96124662D01*
X108845383Y-96130366D01*
X108834184Y-96136512D01*
X108822226Y-96143073D01*
X108809562Y-96150017D01*
X108796245Y-96157317D01*
X108782329Y-96164942D01*
X108767867Y-96172863D01*
X108752913Y-96181052D01*
X108737520Y-96189477D01*
X108721742Y-96198111D01*
X108712080Y-96203397D01*
X108520301Y-96308303D01*
X108415482Y-96499976D01*
X108406740Y-96515958D01*
X108398189Y-96531586D01*
X108389856Y-96546808D01*
X108381772Y-96561571D01*
X108373966Y-96575820D01*
X108366467Y-96589502D01*
X108359305Y-96602563D01*
X108352509Y-96614951D01*
X108346108Y-96626611D01*
X108340132Y-96637491D01*
X108334611Y-96647536D01*
X108329573Y-96656693D01*
X108325048Y-96664908D01*
X108321065Y-96672129D01*
X108317655Y-96678302D01*
X108314845Y-96683372D01*
X108312666Y-96687287D01*
X108311148Y-96689993D01*
X108310318Y-96691436D01*
X108310164Y-96691674D01*
X108309732Y-96691019D01*
X108308617Y-96689108D01*
X108306870Y-96686033D01*
X108304542Y-96681888D01*
X108301684Y-96676765D01*
X108298349Y-96670757D01*
X108294587Y-96663957D01*
X108290450Y-96656456D01*
X108285989Y-96648349D01*
X108281256Y-96639726D01*
X108276302Y-96630682D01*
X108274709Y-96627770D01*
X108270527Y-96620122D01*
X108265673Y-96611244D01*
X108260210Y-96601254D01*
X108254202Y-96590267D01*
X108247715Y-96578403D01*
X108240811Y-96565777D01*
X108233556Y-96552507D01*
X108226012Y-96538712D01*
X108218245Y-96524507D01*
X108210319Y-96510010D01*
X108202297Y-96495339D01*
X108194244Y-96480611D01*
X108186223Y-96465943D01*
X108178300Y-96451452D01*
X108170538Y-96437256D01*
X108169903Y-96436094D01*
X108100054Y-96308347D01*
X107908566Y-96203621D01*
X107892591Y-96194882D01*
X107876967Y-96186332D01*
X107861749Y-96178001D01*
X107846989Y-96169918D01*
X107832742Y-96162112D01*
X107819062Y-96154614D01*
X107806001Y-96147451D01*
X107793613Y-96140655D01*
X107781952Y-96134253D01*
X107771072Y-96128277D01*
X107761026Y-96122754D01*
X107751868Y-96117716D01*
X107743651Y-96113190D01*
X107736429Y-96109207D01*
X107730256Y-96105795D01*
X107725185Y-96102985D01*
X107721269Y-96100806D01*
X107718563Y-96099287D01*
X107717119Y-96098458D01*
X107716882Y-96098304D01*
X107717530Y-96097892D01*
X107719473Y-96096772D01*
X107722657Y-96094975D01*
X107727029Y-96092531D01*
X107732535Y-96089468D01*
X107739122Y-96085816D01*
X107746736Y-96081604D01*
X107755324Y-96076863D01*
X107764832Y-96071620D01*
X107775207Y-96065906D01*
X107786397Y-96059750D01*
X107798346Y-96053182D01*
X107811002Y-96046231D01*
X107824312Y-96038926D01*
X107838221Y-96031296D01*
X107852677Y-96023372D01*
X107867626Y-96015182D01*
X107883014Y-96006757D01*
X107898789Y-95998124D01*
X107908375Y-95992881D01*
X108100065Y-95888048D01*
X108204932Y-95696261D01*
X108215810Y-95676370D01*
X108225975Y-95657791D01*
X108235447Y-95640489D01*
X108244246Y-95624426D01*
X108252393Y-95609565D01*
X108259907Y-95595871D01*
X108266809Y-95583307D01*
X108273120Y-95571835D01*
X108278859Y-95561420D01*
X108284047Y-95552025D01*
X108288704Y-95543613D01*
X108292850Y-95536148D01*
X108296507Y-95529593D01*
X108299693Y-95523911D01*
X108302429Y-95519066D01*
X108304736Y-95515022D01*
X108306634Y-95511741D01*
X108308143Y-95509187D01*
X108309284Y-95507324D01*
X108310076Y-95506114D01*
X108310540Y-95505522D01*
X108310682Y-95505456D01*
X108311119Y-95506204D01*
G37*
G36*
X108311091Y-100213584D02*
G01*
X108312226Y-100215631D01*
X108314040Y-100218918D01*
X108316501Y-100223390D01*
X108319580Y-100228994D01*
X108323249Y-100235675D01*
X108327477Y-100243380D01*
X108332234Y-100252054D01*
X108337492Y-100261644D01*
X108343220Y-100272096D01*
X108349389Y-100283356D01*
X108355969Y-100295369D01*
X108362932Y-100308081D01*
X108370246Y-100321440D01*
X108377883Y-100335390D01*
X108385813Y-100349877D01*
X108394006Y-100364849D01*
X108402433Y-100380250D01*
X108411065Y-100396027D01*
X108415832Y-100404742D01*
X108520234Y-100595603D01*
X108711731Y-100700369D01*
X108727704Y-100709110D01*
X108743325Y-100717663D01*
X108758539Y-100725996D01*
X108773292Y-100734082D01*
X108787533Y-100741891D01*
X108801206Y-100749393D01*
X108814259Y-100756558D01*
X108826637Y-100763358D01*
X108838288Y-100769763D01*
X108849158Y-100775744D01*
X108859193Y-100781270D01*
X108868339Y-100786313D01*
X108876544Y-100790843D01*
X108883754Y-100794830D01*
X108889915Y-100798246D01*
X108894974Y-100801060D01*
X108898877Y-100803244D01*
X108901571Y-100804767D01*
X108903001Y-100805601D01*
X108903232Y-100805757D01*
X108902567Y-100806173D01*
X108900608Y-100807295D01*
X108897408Y-100809094D01*
X108893020Y-100811541D01*
X108887499Y-100814606D01*
X108880898Y-100818261D01*
X108873270Y-100822474D01*
X108864668Y-100827217D01*
X108855147Y-100832461D01*
X108844760Y-100838176D01*
X108833560Y-100844333D01*
X108821601Y-100850901D01*
X108808937Y-100857853D01*
X108795620Y-100865157D01*
X108781705Y-100872786D01*
X108767245Y-100880708D01*
X108752294Y-100888896D01*
X108736905Y-100897319D01*
X108721131Y-100905949D01*
X108711768Y-100911069D01*
X108520301Y-101015759D01*
X108415610Y-101207166D01*
X108406871Y-101223141D01*
X108398323Y-101238767D01*
X108389993Y-101253990D01*
X108381912Y-101268755D01*
X108374108Y-101283010D01*
X108366613Y-101296701D01*
X108359454Y-101309773D01*
X108352662Y-101322173D01*
X108346265Y-101333848D01*
X108340294Y-101344744D01*
X108334777Y-101354806D01*
X108329745Y-101363982D01*
X108325226Y-101372217D01*
X108321250Y-101379458D01*
X108317847Y-101385651D01*
X108315045Y-101390742D01*
X108312875Y-101394678D01*
X108311366Y-101397404D01*
X108310547Y-101398868D01*
X108310400Y-101399117D01*
X108309993Y-101398498D01*
X108308881Y-101396584D01*
X108307091Y-101393428D01*
X108304653Y-101389084D01*
X108301598Y-101383605D01*
X108297954Y-101377045D01*
X108293750Y-101369457D01*
X108289017Y-101360893D01*
X108283783Y-101351409D01*
X108278078Y-101341056D01*
X108271930Y-101329888D01*
X108265371Y-101317958D01*
X108258428Y-101305321D01*
X108251132Y-101292028D01*
X108243511Y-101278134D01*
X108235595Y-101263692D01*
X108227414Y-101248755D01*
X108218996Y-101233376D01*
X108210372Y-101217609D01*
X108205165Y-101208085D01*
X108193531Y-101186807D01*
X108182619Y-101166862D01*
X108172419Y-101148233D01*
X108162922Y-101130904D01*
X108154118Y-101114857D01*
X108145999Y-101100075D01*
X108138555Y-101086542D01*
X108131776Y-101074240D01*
X108125652Y-101063152D01*
X108120176Y-101053261D01*
X108115336Y-101044551D01*
X108111124Y-101037003D01*
X108107530Y-101030601D01*
X108104545Y-101025328D01*
X108102159Y-101021167D01*
X108100363Y-101018101D01*
X108099147Y-101016113D01*
X108098503Y-101015186D01*
X108098433Y-101015120D01*
X108097598Y-101014640D01*
X108095469Y-101013453D01*
X108092101Y-101011590D01*
X108087548Y-101009080D01*
X108081866Y-101005954D01*
X108075108Y-101002240D01*
X108067328Y-100997970D01*
X108058582Y-100993173D01*
X108048924Y-100987878D01*
X108038408Y-100982116D01*
X108027089Y-100975916D01*
X108015021Y-100969309D01*
X108002259Y-100962323D01*
X107988856Y-100954989D01*
X107974869Y-100947337D01*
X107960350Y-100939397D01*
X107945355Y-100931198D01*
X107929938Y-100922770D01*
X107914154Y-100914144D01*
X107906171Y-100909781D01*
X107715924Y-100805831D01*
X107719570Y-100803746D01*
X107720545Y-100803205D01*
X107722813Y-100801958D01*
X107726317Y-100800035D01*
X107731002Y-100797466D01*
X107736814Y-100794281D01*
X107743695Y-100790512D01*
X107751592Y-100786188D01*
X107760448Y-100781340D01*
X107770208Y-100775999D01*
X107780817Y-100770193D01*
X107792218Y-100763954D01*
X107804358Y-100757313D01*
X107817179Y-100750299D01*
X107830628Y-100742942D01*
X107844647Y-100735274D01*
X107859183Y-100727324D01*
X107874179Y-100719124D01*
X107889580Y-100710702D01*
X107905330Y-100702090D01*
X107910968Y-100699007D01*
X107926793Y-100690354D01*
X107942271Y-100681889D01*
X107957345Y-100673643D01*
X107971963Y-100665645D01*
X107986070Y-100657925D01*
X107999612Y-100650513D01*
X108012533Y-100643439D01*
X108024780Y-100636732D01*
X108036298Y-100630423D01*
X108047034Y-100624540D01*
X108056932Y-100619114D01*
X108065938Y-100614175D01*
X108073998Y-100609753D01*
X108081057Y-100605877D01*
X108087062Y-100602576D01*
X108091957Y-100599882D01*
X108095688Y-100597823D01*
X108098202Y-100596430D01*
X108099443Y-100595731D01*
X108099570Y-100595654D01*
X108100005Y-100594930D01*
X108101146Y-100592913D01*
X108102964Y-100589654D01*
X108105430Y-100585209D01*
X108108514Y-100579632D01*
X108112187Y-100572975D01*
X108116418Y-100565293D01*
X108121179Y-100556640D01*
X108126440Y-100547069D01*
X108132171Y-100536634D01*
X108138343Y-100525388D01*
X108144926Y-100513387D01*
X108151892Y-100500683D01*
X108159209Y-100487330D01*
X108166849Y-100473382D01*
X108174782Y-100458893D01*
X108182980Y-100443916D01*
X108191411Y-100428506D01*
X108200047Y-100412715D01*
X108205157Y-100403368D01*
X108216244Y-100383092D01*
X108226616Y-100364134D01*
X108236289Y-100346464D01*
X108245281Y-100330050D01*
X108253609Y-100314860D01*
X108261291Y-100300865D01*
X108268343Y-100288033D01*
X108274783Y-100276332D01*
X108280628Y-100265731D01*
X108285895Y-100256200D01*
X108290602Y-100247707D01*
X108294766Y-100240221D01*
X108298404Y-100233711D01*
X108301534Y-100228145D01*
X108304172Y-100223493D01*
X108306336Y-100219723D01*
X108308043Y-100216805D01*
X108309310Y-100214706D01*
X108310155Y-100213397D01*
X108310595Y-100212845D01*
X108310663Y-100212831D01*
X108311091Y-100213584D01*
G37*
G36*
X104651376Y-98469038D02*
G01*
X104997666Y-98469038D01*
X104998793Y-98540698D01*
X105001443Y-98612473D01*
X105001786Y-98619524D01*
X105006079Y-98690698D01*
X105011888Y-98761646D01*
X105019207Y-98832348D01*
X105028030Y-98902783D01*
X105038352Y-98972933D01*
X105050165Y-99042776D01*
X105063466Y-99112292D01*
X105078247Y-99181462D01*
X105094503Y-99250266D01*
X105112229Y-99318682D01*
X105131418Y-99386692D01*
X105152065Y-99454274D01*
X105174164Y-99521409D01*
X105197709Y-99588077D01*
X105222694Y-99654257D01*
X105249114Y-99719930D01*
X105276963Y-99785075D01*
X105306235Y-99849673D01*
X105336924Y-99913702D01*
X105369024Y-99977143D01*
X105402530Y-100039977D01*
X105418568Y-100068945D01*
X105453933Y-100130513D01*
X105490619Y-100191304D01*
X105528607Y-100251296D01*
X105567878Y-100310465D01*
X105608415Y-100368790D01*
X105650199Y-100426246D01*
X105693212Y-100482812D01*
X105737437Y-100538465D01*
X105782854Y-100593181D01*
X105829447Y-100646938D01*
X105877196Y-100699712D01*
X105926083Y-100751483D01*
X105976091Y-100802225D01*
X106027202Y-100851917D01*
X106079396Y-100900536D01*
X106080388Y-100901440D01*
X106133826Y-100949086D01*
X106188182Y-100995501D01*
X106243452Y-101040683D01*
X106299629Y-101084625D01*
X106356707Y-101127324D01*
X106414679Y-101168776D01*
X106473541Y-101208976D01*
X106533286Y-101247920D01*
X106593908Y-101285604D01*
X106655400Y-101322024D01*
X106717758Y-101357175D01*
X106729930Y-101363833D01*
X106758790Y-101379324D01*
X106788779Y-101395003D01*
X106819536Y-101410690D01*
X106850699Y-101426205D01*
X106881906Y-101441368D01*
X106912797Y-101455998D01*
X106941104Y-101469050D01*
X107005948Y-101497693D01*
X107071356Y-101524910D01*
X107137304Y-101550696D01*
X107203767Y-101575046D01*
X107270720Y-101597952D01*
X107338140Y-101619408D01*
X107406002Y-101639409D01*
X107474282Y-101657948D01*
X107542954Y-101675020D01*
X107611995Y-101690617D01*
X107681381Y-101704733D01*
X107751086Y-101717364D01*
X107821087Y-101728501D01*
X107891358Y-101738140D01*
X107961877Y-101746274D01*
X108032617Y-101752897D01*
X108078371Y-101756365D01*
X108112427Y-101758542D01*
X108146512Y-101760379D01*
X108180999Y-101761894D01*
X108216258Y-101763103D01*
X108252302Y-101764014D01*
X108256594Y-101764079D01*
X108262259Y-101764125D01*
X108269135Y-101764152D01*
X108277058Y-101764162D01*
X108285867Y-101764157D01*
X108295399Y-101764136D01*
X108305491Y-101764101D01*
X108315982Y-101764054D01*
X108326708Y-101763994D01*
X108337507Y-101763924D01*
X108348218Y-101763844D01*
X108358677Y-101763755D01*
X108368721Y-101763658D01*
X108378190Y-101763555D01*
X108386919Y-101763447D01*
X108394748Y-101763333D01*
X108401512Y-101763217D01*
X108407050Y-101763098D01*
X108410874Y-101762988D01*
X108459620Y-101761044D01*
X108507150Y-101758564D01*
X108553699Y-101755530D01*
X108599497Y-101751921D01*
X108644778Y-101747718D01*
X108689773Y-101742901D01*
X108734715Y-101737450D01*
X108774075Y-101732160D01*
X108844358Y-101721520D01*
X108914281Y-101709391D01*
X108983824Y-101695783D01*
X109052964Y-101680706D01*
X109121683Y-101664169D01*
X109189960Y-101646180D01*
X109257774Y-101626750D01*
X109325106Y-101605888D01*
X109391934Y-101583603D01*
X109458238Y-101559904D01*
X109523998Y-101534801D01*
X109589194Y-101508303D01*
X109653804Y-101480420D01*
X109717810Y-101451161D01*
X109781189Y-101420534D01*
X109843923Y-101388550D01*
X109905990Y-101355218D01*
X109967370Y-101320547D01*
X110028043Y-101284547D01*
X110087989Y-101247226D01*
X110147186Y-101208595D01*
X110205615Y-101168662D01*
X110263255Y-101127438D01*
X110320086Y-101084930D01*
X110376087Y-101041149D01*
X110431239Y-100996104D01*
X110485520Y-100949804D01*
X110489978Y-100945912D01*
X110543366Y-100898200D01*
X110595633Y-100849439D01*
X110646783Y-100799624D01*
X110696822Y-100748750D01*
X110745755Y-100696811D01*
X110793588Y-100643801D01*
X110840325Y-100589715D01*
X110885973Y-100534547D01*
X110898841Y-100518553D01*
X110942892Y-100462238D01*
X110985646Y-100405104D01*
X111027095Y-100347165D01*
X111067233Y-100288435D01*
X111106051Y-100228929D01*
X111143543Y-100168660D01*
X111179702Y-100107644D01*
X111214520Y-100045894D01*
X111247991Y-99983425D01*
X111280106Y-99920251D01*
X111310859Y-99856385D01*
X111340242Y-99791843D01*
X111368248Y-99726638D01*
X111394870Y-99660786D01*
X111420101Y-99594299D01*
X111443934Y-99527192D01*
X111466361Y-99459480D01*
X111487375Y-99391177D01*
X111506968Y-99322297D01*
X111507843Y-99319086D01*
X111524987Y-99253212D01*
X111540787Y-99186654D01*
X111555230Y-99119489D01*
X111568304Y-99051797D01*
X111579998Y-98983656D01*
X111590298Y-98915145D01*
X111599192Y-98846343D01*
X111606670Y-98777328D01*
X111612718Y-98708179D01*
X111617324Y-98638975D01*
X111619531Y-98594183D01*
X111620101Y-98580210D01*
X111620594Y-98566833D01*
X111621013Y-98553851D01*
X111621361Y-98541062D01*
X111621642Y-98528266D01*
X111621858Y-98515260D01*
X111622013Y-98501843D01*
X111622109Y-98487813D01*
X111622150Y-98472970D01*
X111622138Y-98457112D01*
X111622077Y-98440037D01*
X111622020Y-98429467D01*
X111621935Y-98415971D01*
X111621847Y-98403836D01*
X111621752Y-98392885D01*
X111621647Y-98382943D01*
X111621528Y-98373835D01*
X111621390Y-98365385D01*
X111621230Y-98357417D01*
X111621043Y-98349757D01*
X111620827Y-98342228D01*
X111620578Y-98334655D01*
X111620290Y-98326863D01*
X111619961Y-98318676D01*
X111619587Y-98309918D01*
X111619183Y-98300843D01*
X111615193Y-98229423D01*
X111609693Y-98158251D01*
X111602688Y-98087346D01*
X111594182Y-98016725D01*
X111584182Y-97946406D01*
X111572691Y-97876407D01*
X111559714Y-97806745D01*
X111545257Y-97737440D01*
X111529325Y-97668507D01*
X111511921Y-97599967D01*
X111493052Y-97531835D01*
X111472722Y-97464130D01*
X111450935Y-97396870D01*
X111427698Y-97330073D01*
X111403014Y-97263757D01*
X111376888Y-97197938D01*
X111349327Y-97132636D01*
X111320333Y-97067869D01*
X111289913Y-97003653D01*
X111258071Y-96940007D01*
X111231947Y-96890201D01*
X111197842Y-96828123D01*
X111162379Y-96766749D01*
X111125579Y-96706111D01*
X111087464Y-96646237D01*
X111048054Y-96587159D01*
X111007372Y-96528906D01*
X110965439Y-96471509D01*
X110922277Y-96414998D01*
X110877906Y-96359404D01*
X110832349Y-96304756D01*
X110785627Y-96251085D01*
X110751840Y-96213677D01*
X110720051Y-96179537D01*
X110687142Y-96145205D01*
X110653437Y-96111003D01*
X110619257Y-96077254D01*
X110584925Y-96044279D01*
X110550763Y-96012401D01*
X110547924Y-96009795D01*
X110494593Y-95961940D01*
X110440356Y-95915322D01*
X110385223Y-95869949D01*
X110329207Y-95825829D01*
X110272317Y-95782968D01*
X110214567Y-95741374D01*
X110155965Y-95701055D01*
X110096525Y-95662017D01*
X110036257Y-95624268D01*
X109975172Y-95587816D01*
X109913281Y-95552667D01*
X109850596Y-95518829D01*
X109787128Y-95486310D01*
X109722887Y-95455116D01*
X109657886Y-95425255D01*
X109648353Y-95421017D01*
X109583442Y-95393114D01*
X109517959Y-95366631D01*
X109451928Y-95341576D01*
X109385377Y-95317952D01*
X109318331Y-95295768D01*
X109250817Y-95275028D01*
X109182861Y-95255740D01*
X109114488Y-95237909D01*
X109045725Y-95221541D01*
X108976597Y-95206643D01*
X108907132Y-95193220D01*
X108837355Y-95181280D01*
X108767292Y-95170827D01*
X108696969Y-95161868D01*
X108626412Y-95154410D01*
X108555648Y-95148457D01*
X108484702Y-95144018D01*
X108468851Y-95143234D01*
X108458518Y-95142754D01*
X108449058Y-95142330D01*
X108440293Y-95141956D01*
X108432045Y-95141630D01*
X108424134Y-95141347D01*
X108416382Y-95141103D01*
X108408611Y-95140893D01*
X108400642Y-95140714D01*
X108392296Y-95140561D01*
X108383396Y-95140429D01*
X108373762Y-95140315D01*
X108363216Y-95140215D01*
X108351579Y-95140124D01*
X108338673Y-95140037D01*
X108331780Y-95139995D01*
X108302525Y-95139903D01*
X108274567Y-95139987D01*
X108247676Y-95140257D01*
X108221623Y-95140718D01*
X108196177Y-95141381D01*
X108171109Y-95142252D01*
X108146189Y-95143339D01*
X108121187Y-95144650D01*
X108095874Y-95146194D01*
X108070020Y-95147977D01*
X108046119Y-95149792D01*
X107975157Y-95156164D01*
X107904438Y-95164047D01*
X107833983Y-95173435D01*
X107763814Y-95184322D01*
X107693953Y-95196704D01*
X107624420Y-95210573D01*
X107555239Y-95225926D01*
X107486429Y-95242755D01*
X107418012Y-95261057D01*
X107350011Y-95280824D01*
X107282447Y-95302052D01*
X107215340Y-95324735D01*
X107148713Y-95348867D01*
X107082587Y-95374443D01*
X107016984Y-95401458D01*
X106951926Y-95429905D01*
X106936880Y-95436723D01*
X106905940Y-95451060D01*
X106874227Y-95466181D01*
X106842146Y-95481883D01*
X106810103Y-95497965D01*
X106778502Y-95514225D01*
X106747748Y-95530459D01*
X106730698Y-95539654D01*
X106668414Y-95574390D01*
X106606948Y-95610422D01*
X106546317Y-95647734D01*
X106486540Y-95686311D01*
X106427636Y-95726138D01*
X106369621Y-95767199D01*
X106312515Y-95809479D01*
X106256335Y-95852962D01*
X106201100Y-95897634D01*
X106146827Y-95943478D01*
X106093535Y-95990479D01*
X106041241Y-96038622D01*
X105989965Y-96087891D01*
X105939723Y-96138271D01*
X105890535Y-96189747D01*
X105842419Y-96242302D01*
X105795391Y-96295923D01*
X105749471Y-96350592D01*
X105704677Y-96406296D01*
X105690483Y-96424467D01*
X105647604Y-96480996D01*
X105605964Y-96538416D01*
X105565578Y-96596697D01*
X105526462Y-96655812D01*
X105488630Y-96715732D01*
X105452099Y-96776430D01*
X105416883Y-96837877D01*
X105382997Y-96900044D01*
X105350458Y-96962905D01*
X105319281Y-97026430D01*
X105289480Y-97090592D01*
X105261072Y-97155362D01*
X105234071Y-97220713D01*
X105208493Y-97286615D01*
X105184551Y-97352480D01*
X105161670Y-97419907D01*
X105140272Y-97487730D01*
X105120357Y-97555932D01*
X105101929Y-97624496D01*
X105084990Y-97693403D01*
X105069543Y-97762636D01*
X105055589Y-97832178D01*
X105043133Y-97902011D01*
X105032175Y-97972117D01*
X105022720Y-98042479D01*
X105014769Y-98113079D01*
X105008324Y-98183900D01*
X105003389Y-98254924D01*
X104999966Y-98326133D01*
X104998057Y-98397510D01*
X104997666Y-98469038D01*
X104651376Y-98469038D01*
X104651414Y-98415935D01*
X104652619Y-98349546D01*
X104654682Y-98290477D01*
X104658658Y-98215703D01*
X104664151Y-98141138D01*
X104671155Y-98066800D01*
X104679664Y-97992710D01*
X104689673Y-97918888D01*
X104701176Y-97845354D01*
X104714167Y-97772130D01*
X104728641Y-97699234D01*
X104744591Y-97626687D01*
X104762013Y-97554510D01*
X104780900Y-97482722D01*
X104801247Y-97411344D01*
X104823047Y-97340397D01*
X104846297Y-97269900D01*
X104870988Y-97199873D01*
X104897117Y-97130337D01*
X104924677Y-97061313D01*
X104953663Y-96992820D01*
X104984068Y-96924878D01*
X105015888Y-96857508D01*
X105049116Y-96790731D01*
X105083747Y-96724566D01*
X105107958Y-96680179D01*
X105144937Y-96615068D01*
X105183221Y-96550762D01*
X105222792Y-96487281D01*
X105263638Y-96424643D01*
X105305741Y-96362868D01*
X105349088Y-96301973D01*
X105393662Y-96241977D01*
X105439450Y-96182900D01*
X105486436Y-96124760D01*
X105534604Y-96067575D01*
X105583941Y-96011364D01*
X105634430Y-95956146D01*
X105686057Y-95901939D01*
X105738806Y-95848763D01*
X105792663Y-95796636D01*
X105847612Y-95745576D01*
X105901360Y-95697595D01*
X105958094Y-95648949D01*
X106015785Y-95601488D01*
X106074406Y-95555227D01*
X106133931Y-95510185D01*
X106194334Y-95466378D01*
X106255588Y-95423822D01*
X106317666Y-95382534D01*
X106380544Y-95342532D01*
X106444193Y-95303832D01*
X106508588Y-95266452D01*
X106573702Y-95230407D01*
X106639510Y-95195714D01*
X106705984Y-95162392D01*
X106773098Y-95130456D01*
X106827454Y-95105819D01*
X106896313Y-95076128D01*
X106965631Y-95047902D01*
X107035397Y-95021144D01*
X107105601Y-94995856D01*
X107176233Y-94972039D01*
X107247285Y-94949696D01*
X107318745Y-94928830D01*
X107390605Y-94909443D01*
X107462853Y-94891537D01*
X107535481Y-94875114D01*
X107608479Y-94860176D01*
X107681836Y-94846727D01*
X107755542Y-94834767D01*
X107829589Y-94824300D01*
X107903966Y-94815328D01*
X107978663Y-94807853D01*
X108053671Y-94801877D01*
X108128979Y-94797403D01*
X108166296Y-94795747D01*
X108194017Y-94794792D01*
X108222951Y-94794056D01*
X108252791Y-94793540D01*
X108283228Y-94793243D01*
X108313957Y-94793166D01*
X108344669Y-94793307D01*
X108375058Y-94793669D01*
X108404816Y-94794249D01*
X108433636Y-94795049D01*
X108453493Y-94795755D01*
X108528836Y-94799459D01*
X108603904Y-94804669D01*
X108678686Y-94811382D01*
X108753168Y-94819596D01*
X108827340Y-94829306D01*
X108901187Y-94840512D01*
X108974698Y-94853208D01*
X109047861Y-94867393D01*
X109120662Y-94883063D01*
X109193091Y-94900216D01*
X109265134Y-94918848D01*
X109336778Y-94938957D01*
X109408013Y-94960540D01*
X109478824Y-94983593D01*
X109549201Y-95008114D01*
X109619130Y-95034099D01*
X109688599Y-95061546D01*
X109757595Y-95090452D01*
X109826108Y-95120814D01*
X109841482Y-95127859D01*
X109868096Y-95140288D01*
X109895617Y-95153446D01*
X109923704Y-95167163D01*
X109952018Y-95181268D01*
X109980219Y-95195590D01*
X110007970Y-95209960D01*
X110034930Y-95224207D01*
X110058774Y-95237075D01*
X110124167Y-95273624D01*
X110188773Y-95311487D01*
X110252570Y-95350645D01*
X110315536Y-95391082D01*
X110377651Y-95432781D01*
X110438892Y-95475724D01*
X110499238Y-95519896D01*
X110558668Y-95565279D01*
X110617160Y-95611856D01*
X110674694Y-95659609D01*
X110731246Y-95708523D01*
X110786797Y-95758580D01*
X110841324Y-95809763D01*
X110894805Y-95862056D01*
X110947221Y-95915440D01*
X110998548Y-95969900D01*
X111031399Y-96005959D01*
X111081075Y-96062364D01*
X111129539Y-96119703D01*
X111176779Y-96177959D01*
X111222785Y-96237113D01*
X111267543Y-96297148D01*
X111311043Y-96358047D01*
X111353274Y-96419792D01*
X111394223Y-96482365D01*
X111433879Y-96545749D01*
X111472230Y-96609926D01*
X111509266Y-96674880D01*
X111544973Y-96740591D01*
X111579342Y-96807043D01*
X111612359Y-96874219D01*
X111633903Y-96920020D01*
X111664405Y-96987874D01*
X111693488Y-97056309D01*
X111721149Y-97125302D01*
X111747380Y-97194826D01*
X111772176Y-97264859D01*
X111795530Y-97335375D01*
X111817437Y-97406351D01*
X111837891Y-97477762D01*
X111856885Y-97549583D01*
X111874414Y-97621790D01*
X111890472Y-97694359D01*
X111905053Y-97767265D01*
X111918150Y-97840484D01*
X111929758Y-97913992D01*
X111939871Y-97987765D01*
X111948483Y-98061777D01*
X111955588Y-98136005D01*
X111961179Y-98210423D01*
X111964335Y-98265520D01*
X111966337Y-98312099D01*
X111967766Y-98359519D01*
X111968620Y-98407402D01*
X111968897Y-98455371D01*
X111968594Y-98503050D01*
X111967709Y-98550060D01*
X111966252Y-98595719D01*
X111962596Y-98670416D01*
X111957431Y-98744927D01*
X111950763Y-98819228D01*
X111942598Y-98893297D01*
X111932943Y-98967108D01*
X111921805Y-99040640D01*
X111909188Y-99113867D01*
X111895100Y-99186767D01*
X111879547Y-99259315D01*
X111862535Y-99331489D01*
X111844071Y-99403264D01*
X111824160Y-99474617D01*
X111802809Y-99545524D01*
X111780024Y-99615962D01*
X111755812Y-99685906D01*
X111730179Y-99755335D01*
X111703131Y-99824222D01*
X111674674Y-99892547D01*
X111644814Y-99960283D01*
X111613559Y-100027409D01*
X111580914Y-100093899D01*
X111554466Y-100145352D01*
X111518823Y-100211691D01*
X111481900Y-100277189D01*
X111443710Y-100341831D01*
X111404266Y-100405602D01*
X111363581Y-100468486D01*
X111321669Y-100530469D01*
X111278542Y-100591534D01*
X111234214Y-100651669D01*
X111188698Y-100710856D01*
X111142007Y-100769081D01*
X111094154Y-100826329D01*
X111045152Y-100882585D01*
X110995015Y-100937833D01*
X110943756Y-100992059D01*
X110891388Y-101045247D01*
X110837923Y-101097383D01*
X110783376Y-101148450D01*
X110727759Y-101198435D01*
X110671086Y-101247322D01*
X110613369Y-101295095D01*
X110554622Y-101341740D01*
X110494858Y-101387242D01*
X110436231Y-101430055D01*
X110374869Y-101473009D01*
X110312755Y-101514630D01*
X110249907Y-101554909D01*
X110186345Y-101593841D01*
X110122090Y-101631419D01*
X110057160Y-101667635D01*
X109991575Y-101702483D01*
X109925357Y-101735956D01*
X109858523Y-101768048D01*
X109791094Y-101798750D01*
X109723090Y-101828057D01*
X109654531Y-101855962D01*
X109585436Y-101882458D01*
X109515825Y-101907537D01*
X109445718Y-101931193D01*
X109375135Y-101953420D01*
X109304096Y-101974210D01*
X109232620Y-101993557D01*
X109160727Y-102011453D01*
X109088436Y-102027892D01*
X109015769Y-102042866D01*
X108942744Y-102056370D01*
X108869381Y-102068396D01*
X108795701Y-102078938D01*
X108721722Y-102087988D01*
X108647465Y-102095540D01*
X108572950Y-102101586D01*
X108498196Y-102106121D01*
X108481138Y-102106941D01*
X108455544Y-102108001D01*
X108428846Y-102108895D01*
X108401356Y-102109620D01*
X108373384Y-102110171D01*
X108345243Y-102110545D01*
X108317244Y-102110738D01*
X108289699Y-102110746D01*
X108262919Y-102110566D01*
X108237217Y-102110195D01*
X108226577Y-102109975D01*
X108151509Y-102107515D01*
X108076603Y-102103540D01*
X108001881Y-102098055D01*
X107927369Y-102091064D01*
X107853088Y-102082569D01*
X107779063Y-102072574D01*
X107705317Y-102061084D01*
X107631874Y-102048102D01*
X107558757Y-102033632D01*
X107485990Y-102017677D01*
X107413596Y-102000241D01*
X107341599Y-101981328D01*
X107270021Y-101960941D01*
X107259987Y-101957955D01*
X107188710Y-101935832D01*
X107117970Y-101912274D01*
X107047785Y-101887291D01*
X106978175Y-101860894D01*
X106909158Y-101833092D01*
X106840753Y-101803896D01*
X106772977Y-101773317D01*
X106705850Y-101741365D01*
X106639391Y-101708049D01*
X106573617Y-101673382D01*
X106508547Y-101637372D01*
X106444201Y-101600030D01*
X106380596Y-101561366D01*
X106317752Y-101521392D01*
X106255686Y-101480117D01*
X106194418Y-101437551D01*
X106133965Y-101393705D01*
X106074347Y-101348589D01*
X106015582Y-101302214D01*
X105957688Y-101254590D01*
X105900685Y-101205727D01*
X105887181Y-101193854D01*
X105841250Y-101152532D01*
X105795487Y-101109895D01*
X105750113Y-101066163D01*
X105705346Y-101021556D01*
X105661408Y-100976293D01*
X105618518Y-100930595D01*
X105576896Y-100884682D01*
X105568161Y-100874834D01*
X105518998Y-100818041D01*
X105471073Y-100760355D01*
X105424395Y-100701793D01*
X105378974Y-100642374D01*
X105334821Y-100582117D01*
X105291947Y-100521041D01*
X105250361Y-100459163D01*
X105210074Y-100396502D01*
X105171095Y-100333076D01*
X105133436Y-100268905D01*
X105097107Y-100204006D01*
X105062118Y-100138398D01*
X105028479Y-100072100D01*
X104996200Y-100005129D01*
X104965292Y-99937505D01*
X104935765Y-99869246D01*
X104907629Y-99800370D01*
X104880894Y-99730896D01*
X104855572Y-99660843D01*
X104831672Y-99590228D01*
X104809204Y-99519070D01*
X104804060Y-99502028D01*
X104783420Y-99430358D01*
X104764266Y-99358300D01*
X104746598Y-99285869D01*
X104730420Y-99213077D01*
X104715735Y-99139939D01*
X104702544Y-99066468D01*
X104690850Y-98992677D01*
X104680656Y-98918581D01*
X104671963Y-98844193D01*
X104664775Y-98769526D01*
X104659093Y-98694594D01*
X104658152Y-98679804D01*
X104654739Y-98614658D01*
X104652476Y-98548775D01*
X104651367Y-98482439D01*
X104651376Y-98469038D01*
G37*
G36*
X106801895Y-98494643D02*
G01*
X106965420Y-98494643D01*
X106966443Y-98538734D01*
X106968873Y-98582747D01*
X106969175Y-98586888D01*
X106973281Y-98631787D01*
X106978889Y-98676434D01*
X106985984Y-98720791D01*
X106994551Y-98764820D01*
X107004578Y-98808483D01*
X107016049Y-98851742D01*
X107028951Y-98894560D01*
X107043269Y-98936898D01*
X107058989Y-98978719D01*
X107076098Y-99019985D01*
X107094579Y-99060658D01*
X107114421Y-99100700D01*
X107135608Y-99140073D01*
X107158126Y-99178739D01*
X107181961Y-99216661D01*
X107207099Y-99253800D01*
X107231632Y-99287601D01*
X107259476Y-99323464D01*
X107288437Y-99358326D01*
X107318477Y-99392159D01*
X107349561Y-99424932D01*
X107381653Y-99456618D01*
X107414716Y-99487187D01*
X107448715Y-99516611D01*
X107483614Y-99544860D01*
X107519376Y-99571906D01*
X107555967Y-99597720D01*
X107593349Y-99622273D01*
X107631487Y-99645536D01*
X107670345Y-99667479D01*
X107709886Y-99688075D01*
X107750076Y-99707295D01*
X107759203Y-99711426D01*
X107800772Y-99729234D01*
X107842675Y-99745562D01*
X107884937Y-99760417D01*
X107927579Y-99773803D01*
X107970624Y-99785725D01*
X108014095Y-99796189D01*
X108058014Y-99805199D01*
X108102404Y-99812761D01*
X108147287Y-99818881D01*
X108192687Y-99823563D01*
X108238625Y-99826812D01*
X108266508Y-99828078D01*
X108270876Y-99828196D01*
X108276546Y-99828290D01*
X108283287Y-99828359D01*
X108290865Y-99828404D01*
X108299049Y-99828427D01*
X108307605Y-99828427D01*
X108316300Y-99828405D01*
X108324903Y-99828362D01*
X108333181Y-99828298D01*
X108340900Y-99828215D01*
X108347828Y-99828112D01*
X108353733Y-99827991D01*
X108358382Y-99827851D01*
X108359041Y-99827825D01*
X108405306Y-99825186D01*
X108451113Y-99821082D01*
X108496471Y-99815511D01*
X108541391Y-99808469D01*
X108585883Y-99799955D01*
X108629957Y-99789967D01*
X108673623Y-99778501D01*
X108716892Y-99765555D01*
X108759773Y-99751127D01*
X108802277Y-99735214D01*
X108844414Y-99717814D01*
X108882368Y-99700723D01*
X108887716Y-99698188D01*
X108893729Y-99695285D01*
X108900243Y-99692096D01*
X108907096Y-99688706D01*
X108914123Y-99685197D01*
X108921162Y-99681652D01*
X108928049Y-99678155D01*
X108934620Y-99674788D01*
X108940713Y-99671635D01*
X108946163Y-99668780D01*
X108950808Y-99666304D01*
X108954483Y-99664292D01*
X108957026Y-99662826D01*
X108957845Y-99662309D01*
X108958256Y-99661858D01*
X108957841Y-99661484D01*
X108956401Y-99661129D01*
X108953738Y-99660732D01*
X108951702Y-99660478D01*
X108909602Y-99654633D01*
X108867823Y-99647291D01*
X108826400Y-99638468D01*
X108785370Y-99628177D01*
X108744770Y-99616433D01*
X108704636Y-99603248D01*
X108665006Y-99588638D01*
X108625916Y-99572615D01*
X108587403Y-99555194D01*
X108549503Y-99536389D01*
X108512253Y-99516214D01*
X108475690Y-99494682D01*
X108439851Y-99471807D01*
X108421906Y-99459658D01*
X108387231Y-99434789D01*
X108353540Y-99408745D01*
X108320854Y-99381548D01*
X108289196Y-99353220D01*
X108258589Y-99323786D01*
X108229053Y-99293266D01*
X108200612Y-99261684D01*
X108173287Y-99229062D01*
X108147101Y-99195423D01*
X108122076Y-99160790D01*
X108108507Y-99140863D01*
X108095049Y-99120283D01*
X108082478Y-99100232D01*
X108070573Y-99080327D01*
X108059113Y-99060189D01*
X108047878Y-99039435D01*
X108036647Y-99017684D01*
X108032795Y-99010004D01*
X108014485Y-98971533D01*
X107997628Y-98932567D01*
X107982229Y-98893125D01*
X107968293Y-98853224D01*
X107955825Y-98812884D01*
X107944830Y-98772122D01*
X107935315Y-98730957D01*
X107927283Y-98689407D01*
X107920741Y-98647491D01*
X107915693Y-98605226D01*
X107914876Y-98596871D01*
X107911609Y-98554120D01*
X107909860Y-98511429D01*
X107909710Y-98484253D01*
X108073141Y-98484253D01*
X108073209Y-98490653D01*
X108073361Y-98497923D01*
X108073590Y-98505899D01*
X108073889Y-98514414D01*
X108074251Y-98523303D01*
X108074670Y-98532401D01*
X108075138Y-98541543D01*
X108075650Y-98550564D01*
X108076198Y-98559297D01*
X108076776Y-98567578D01*
X108077377Y-98575242D01*
X108077994Y-98582122D01*
X108078009Y-98582281D01*
X108082608Y-98621735D01*
X108088699Y-98660853D01*
X108096271Y-98699602D01*
X108105312Y-98737950D01*
X108115812Y-98775863D01*
X108127760Y-98813311D01*
X108141145Y-98850259D01*
X108155955Y-98886677D01*
X108172181Y-98922531D01*
X108189810Y-98957789D01*
X108208832Y-98992419D01*
X108228353Y-99024978D01*
X108249836Y-99057908D01*
X108272587Y-99089978D01*
X108296584Y-99121165D01*
X108321806Y-99151443D01*
X108348231Y-99180788D01*
X108375838Y-99209176D01*
X108404605Y-99236581D01*
X108434511Y-99262980D01*
X108441474Y-99268844D01*
X108471139Y-99292658D01*
X108501919Y-99315509D01*
X108533653Y-99337284D01*
X108566175Y-99357871D01*
X108594020Y-99374183D01*
X108628211Y-99392613D01*
X108663168Y-99409733D01*
X108698815Y-99425517D01*
X108735077Y-99439939D01*
X108771878Y-99452973D01*
X108809142Y-99464595D01*
X108846794Y-99474777D01*
X108884759Y-99483493D01*
X108922960Y-99490719D01*
X108944184Y-99494069D01*
X108968462Y-99497368D01*
X108992204Y-99500045D01*
X109015805Y-99502130D01*
X109039661Y-99503653D01*
X109064167Y-99504644D01*
X109089718Y-99505132D01*
X109091111Y-99505145D01*
X109109797Y-99505303D01*
X109062315Y-99457392D01*
X109059460Y-99454517D01*
X109055549Y-99450582D01*
X109050609Y-99445617D01*
X109044668Y-99439650D01*
X109037754Y-99432708D01*
X109029896Y-99424821D01*
X109021121Y-99416015D01*
X109011458Y-99406320D01*
X109000934Y-99395764D01*
X108989578Y-99384374D01*
X108977418Y-99372179D01*
X108964483Y-99359207D01*
X108950799Y-99345487D01*
X108936395Y-99331045D01*
X108921300Y-99315912D01*
X108905541Y-99300114D01*
X108889147Y-99283680D01*
X108872145Y-99266638D01*
X108854564Y-99249016D01*
X108836431Y-99230842D01*
X108817776Y-99212145D01*
X108798626Y-99192953D01*
X108779008Y-99173294D01*
X108758952Y-99153196D01*
X108738486Y-99132687D01*
X108717636Y-99111795D01*
X108696433Y-99090549D01*
X108674903Y-99068977D01*
X108653074Y-99047107D01*
X108630976Y-99024966D01*
X108608635Y-99002584D01*
X108586080Y-98979989D01*
X108563340Y-98957208D01*
X108544490Y-98938325D01*
X108074148Y-98467167D01*
X108073506Y-98471930D01*
X108073283Y-98474727D01*
X108073163Y-98478889D01*
X108073141Y-98484253D01*
X107909710Y-98484253D01*
X107909625Y-98468832D01*
X107910899Y-98426364D01*
X107913675Y-98384060D01*
X107917948Y-98341954D01*
X107923713Y-98300080D01*
X107930964Y-98258474D01*
X107939696Y-98217170D01*
X107949903Y-98176202D01*
X107961579Y-98135606D01*
X107974720Y-98095415D01*
X107989319Y-98055665D01*
X108005371Y-98016389D01*
X108008728Y-98008655D01*
X108026620Y-97969739D01*
X108045820Y-97931620D01*
X108066311Y-97894321D01*
X108088077Y-97857864D01*
X108111099Y-97822274D01*
X108135360Y-97787571D01*
X108160843Y-97753779D01*
X108187530Y-97720920D01*
X108215405Y-97689018D01*
X108244448Y-97658094D01*
X108274645Y-97628172D01*
X108305976Y-97599275D01*
X108338424Y-97571424D01*
X108352513Y-97559938D01*
X108386393Y-97533715D01*
X108421047Y-97508806D01*
X108456448Y-97485226D01*
X108492567Y-97462985D01*
X108529374Y-97442098D01*
X108566840Y-97422575D01*
X108604936Y-97404430D01*
X108643633Y-97387675D01*
X108682902Y-97372323D01*
X108722714Y-97358386D01*
X108763039Y-97345877D01*
X108803849Y-97334808D01*
X108845115Y-97325191D01*
X108886806Y-97317040D01*
X108928895Y-97310367D01*
X108935555Y-97309452D01*
X108941018Y-97308729D01*
X108946086Y-97308080D01*
X108950526Y-97307534D01*
X108954107Y-97307119D01*
X108956596Y-97306863D01*
X108957678Y-97306790D01*
X108959167Y-97306598D01*
X108959606Y-97306131D01*
X108959585Y-97306091D01*
X108958729Y-97305447D01*
X108956638Y-97304185D01*
X108953448Y-97302379D01*
X108949295Y-97300101D01*
X108944315Y-97297425D01*
X108938646Y-97294424D01*
X108932424Y-97291171D01*
X108925785Y-97287738D01*
X108918866Y-97284199D01*
X108915004Y-97282241D01*
X108874664Y-97262708D01*
X108833686Y-97244564D01*
X108792111Y-97227820D01*
X108749979Y-97212487D01*
X108707332Y-97198575D01*
X108664209Y-97186096D01*
X108620653Y-97175061D01*
X108576702Y-97165481D01*
X108532399Y-97157366D01*
X108487784Y-97150728D01*
X108442897Y-97145577D01*
X108397780Y-97141925D01*
X108394364Y-97141711D01*
X108369419Y-97140447D01*
X108343495Y-97139649D01*
X108317020Y-97139316D01*
X108290426Y-97139446D01*
X108264141Y-97140039D01*
X108238595Y-97141094D01*
X108221586Y-97142093D01*
X108176544Y-97145853D01*
X108131728Y-97151120D01*
X108087176Y-97157879D01*
X108042928Y-97166115D01*
X107999024Y-97175813D01*
X107955501Y-97186957D01*
X107912399Y-97199534D01*
X107869757Y-97213528D01*
X107827615Y-97228924D01*
X107786010Y-97245707D01*
X107744983Y-97263862D01*
X107704572Y-97283374D01*
X107664817Y-97304227D01*
X107625756Y-97326408D01*
X107587428Y-97349901D01*
X107549873Y-97374691D01*
X107513130Y-97400763D01*
X107477869Y-97427604D01*
X107446251Y-97453355D01*
X107415035Y-97480450D01*
X107384404Y-97508710D01*
X107354543Y-97537959D01*
X107325634Y-97568018D01*
X107297862Y-97598712D01*
X107283693Y-97615145D01*
X107255158Y-97649993D01*
X107227855Y-97685742D01*
X107201801Y-97722354D01*
X107177012Y-97759791D01*
X107153505Y-97798015D01*
X107131297Y-97836989D01*
X107110403Y-97876675D01*
X107090840Y-97917035D01*
X107072625Y-97958031D01*
X107055775Y-97999626D01*
X107040305Y-98041782D01*
X107026233Y-98084461D01*
X107013575Y-98127626D01*
X107002347Y-98171237D01*
X106992565Y-98215259D01*
X106984248Y-98259653D01*
X106977410Y-98304381D01*
X106975330Y-98320425D01*
X106970759Y-98363365D01*
X106967581Y-98406813D01*
X106965800Y-98450620D01*
X106965420Y-98494643D01*
X106801895Y-98494643D01*
X106801626Y-98479740D01*
X106801561Y-98458862D01*
X106801781Y-98437462D01*
X106802277Y-98416031D01*
X106803042Y-98395060D01*
X106804050Y-98375330D01*
X106807665Y-98327160D01*
X106812781Y-98279291D01*
X106819388Y-98231750D01*
X106827477Y-98184563D01*
X106837037Y-98137756D01*
X106848059Y-98091358D01*
X106860534Y-98045394D01*
X106874452Y-97999891D01*
X106889803Y-97954875D01*
X106906577Y-97910375D01*
X106924766Y-97866416D01*
X106944358Y-97823024D01*
X106965345Y-97780228D01*
X106987717Y-97738053D01*
X107011464Y-97696526D01*
X107036576Y-97655675D01*
X107063044Y-97615524D01*
X107090859Y-97576103D01*
X107094917Y-97570565D01*
X107098665Y-97565517D01*
X107102965Y-97559795D01*
X107107645Y-97553620D01*
X107112535Y-97547216D01*
X107117463Y-97540806D01*
X107122257Y-97534612D01*
X107126745Y-97528858D01*
X107130755Y-97523766D01*
X107134117Y-97519559D01*
X107135651Y-97517675D01*
X107139989Y-97512395D01*
X107004122Y-97375997D01*
X106991819Y-97363646D01*
X106979672Y-97351453D01*
X106967737Y-97339474D01*
X106956068Y-97327762D01*
X106944718Y-97316372D01*
X106933742Y-97305358D01*
X106923194Y-97294775D01*
X106913127Y-97284675D01*
X106903596Y-97275115D01*
X106894656Y-97266147D01*
X106886359Y-97257826D01*
X106878761Y-97250207D01*
X106871914Y-97243343D01*
X106865874Y-97237290D01*
X106860695Y-97232100D01*
X106856429Y-97227829D01*
X106853133Y-97224530D01*
X106850858Y-97222258D01*
X106850639Y-97222039D01*
X106833022Y-97204480D01*
X106817687Y-97222886D01*
X106783701Y-97264852D01*
X106750854Y-97307796D01*
X106719185Y-97351655D01*
X106688736Y-97396367D01*
X106659545Y-97441868D01*
X106631654Y-97488096D01*
X106605102Y-97534988D01*
X106579929Y-97582483D01*
X106556203Y-97630462D01*
X106533276Y-97680291D01*
X106511816Y-97730572D01*
X106491827Y-97781292D01*
X106473310Y-97832443D01*
X106456270Y-97884011D01*
X106440708Y-97935985D01*
X106426627Y-97988356D01*
X106414031Y-98041110D01*
X106402922Y-98094238D01*
X106393304Y-98147727D01*
X106385178Y-98201567D01*
X106378547Y-98255746D01*
X106373416Y-98310253D01*
X106369792Y-98364963D01*
X106368691Y-98389871D01*
X106367927Y-98415917D01*
X106367498Y-98442741D01*
X106367406Y-98469982D01*
X106367647Y-98497281D01*
X106368223Y-98524278D01*
X106369131Y-98550612D01*
X106370191Y-98572682D01*
X106373959Y-98627507D01*
X106379227Y-98682029D01*
X106385986Y-98736227D01*
X106394232Y-98790080D01*
X106403955Y-98843565D01*
X106415150Y-98896661D01*
X106427810Y-98949347D01*
X106441927Y-99001601D01*
X106457494Y-99053401D01*
X106474505Y-99104727D01*
X106492953Y-99155557D01*
X106512830Y-99205868D01*
X106534130Y-99255640D01*
X106556846Y-99304851D01*
X106580970Y-99353480D01*
X106606496Y-99401504D01*
X106633417Y-99448904D01*
X106661725Y-99495656D01*
X106677402Y-99520340D01*
X106688349Y-99537297D01*
X106599333Y-99993369D01*
X106594199Y-100019670D01*
X106589129Y-100045651D01*
X106584129Y-100071268D01*
X106579208Y-100096478D01*
X106574376Y-100121238D01*
X106569640Y-100145505D01*
X106565008Y-100169236D01*
X106560490Y-100192387D01*
X106556093Y-100214915D01*
X106551827Y-100236777D01*
X106547699Y-100257929D01*
X106543717Y-100278328D01*
X106539892Y-100297932D01*
X106536230Y-100316697D01*
X106532740Y-100334579D01*
X106529431Y-100351535D01*
X106526311Y-100367523D01*
X106523389Y-100382499D01*
X106520672Y-100396419D01*
X106518171Y-100409241D01*
X106515892Y-100420920D01*
X106513844Y-100431415D01*
X106512036Y-100440682D01*
X106510476Y-100448677D01*
X106509173Y-100455357D01*
X106508135Y-100460679D01*
X106507371Y-100464600D01*
X106506888Y-100467077D01*
X106506764Y-100467713D01*
X106505756Y-100472769D01*
X106504812Y-100477270D01*
X106503977Y-100481014D01*
X106503298Y-100483799D01*
X106502821Y-100485422D01*
X106502629Y-100485759D01*
X106501931Y-100485202D01*
X106500250Y-100483742D01*
X106497735Y-100481512D01*
X106494537Y-100478646D01*
X106490804Y-100475277D01*
X106486686Y-100471539D01*
X106486033Y-100470943D01*
X106465878Y-100452355D01*
X106445234Y-100432888D01*
X106424309Y-100412747D01*
X106403307Y-100392141D01*
X106382436Y-100371277D01*
X106361902Y-100350361D01*
X106341910Y-100329600D01*
X106322668Y-100309203D01*
X106304380Y-100289376D01*
X106295970Y-100280085D01*
X106252881Y-100231052D01*
X106211096Y-100181215D01*
X106170618Y-100130577D01*
X106131450Y-100079146D01*
X106093596Y-100026925D01*
X106057060Y-99973920D01*
X106021844Y-99920137D01*
X105987952Y-99865579D01*
X105955387Y-99810254D01*
X105924154Y-99754165D01*
X105894254Y-99697319D01*
X105865693Y-99639719D01*
X105838472Y-99581372D01*
X105837064Y-99578254D01*
X105811321Y-99519261D01*
X105787025Y-99459762D01*
X105764180Y-99399773D01*
X105742791Y-99339313D01*
X105722863Y-99278399D01*
X105704399Y-99217051D01*
X105687404Y-99155285D01*
X105671881Y-99093120D01*
X105657836Y-99030574D01*
X105645273Y-98967666D01*
X105634195Y-98904412D01*
X105624608Y-98840832D01*
X105616515Y-98776942D01*
X105609921Y-98712762D01*
X105604829Y-98648310D01*
X105601245Y-98583603D01*
X105601121Y-98580745D01*
X105600072Y-98551874D01*
X105599329Y-98521938D01*
X105598891Y-98491313D01*
X105598759Y-98460371D01*
X105598933Y-98429487D01*
X105599412Y-98399036D01*
X105600198Y-98369391D01*
X105601126Y-98344614D01*
X105604660Y-98280357D01*
X105609716Y-98216264D01*
X105616291Y-98152360D01*
X105624379Y-98088671D01*
X105633973Y-98025224D01*
X105645068Y-97962045D01*
X105657660Y-97899158D01*
X105671741Y-97836591D01*
X105687307Y-97774370D01*
X105704353Y-97712519D01*
X105722871Y-97651066D01*
X105742857Y-97590037D01*
X105764306Y-97529456D01*
X105787211Y-97469351D01*
X105791542Y-97458451D01*
X105816079Y-97399147D01*
X105842010Y-97340474D01*
X105869320Y-97282457D01*
X105897993Y-97225120D01*
X105928011Y-97168490D01*
X105959359Y-97112591D01*
X105992021Y-97057448D01*
X106025979Y-97003086D01*
X106061217Y-96949530D01*
X106097720Y-96896806D01*
X106135471Y-96844937D01*
X106174454Y-96793951D01*
X106214651Y-96743870D01*
X106256048Y-96694721D01*
X106298627Y-96646529D01*
X106342372Y-96599318D01*
X106371766Y-96568820D01*
X106391037Y-96549338D01*
X106410833Y-96529715D01*
X106430877Y-96510218D01*
X106450894Y-96491110D01*
X106470607Y-96472659D01*
X106489742Y-96455128D01*
X106493402Y-96451822D01*
X106507594Y-96439032D01*
X106561426Y-96492990D01*
X106564930Y-96496501D01*
X106569485Y-96501066D01*
X106575058Y-96506651D01*
X106581616Y-96513223D01*
X106589126Y-96520749D01*
X106597554Y-96529194D01*
X106606867Y-96538527D01*
X106617032Y-96548712D01*
X106628015Y-96559717D01*
X106639783Y-96571509D01*
X106652303Y-96584054D01*
X106665541Y-96597318D01*
X106679464Y-96611269D01*
X106694038Y-96625873D01*
X106709231Y-96641096D01*
X106725009Y-96656905D01*
X106741339Y-96673267D01*
X106758187Y-96690149D01*
X106775520Y-96707516D01*
X106793304Y-96725336D01*
X106811507Y-96743575D01*
X106830095Y-96762199D01*
X106849035Y-96781176D01*
X106868293Y-96800472D01*
X106887836Y-96820053D01*
X106907631Y-96839887D01*
X106927645Y-96859939D01*
X106947843Y-96880177D01*
X106968193Y-96900566D01*
X106987481Y-96919891D01*
X107359703Y-97292834D01*
X107376359Y-97279724D01*
X107414833Y-97250406D01*
X107454063Y-97222414D01*
X107494022Y-97195757D01*
X107534685Y-97170447D01*
X107576024Y-97146492D01*
X107618011Y-97123904D01*
X107660620Y-97102694D01*
X107703825Y-97082870D01*
X107747597Y-97064445D01*
X107791911Y-97047427D01*
X107836739Y-97031828D01*
X107882053Y-97017658D01*
X107927829Y-97004927D01*
X107974037Y-96993645D01*
X108020652Y-96983824D01*
X108067646Y-96975472D01*
X108114992Y-96968601D01*
X108162664Y-96963221D01*
X108210451Y-96959355D01*
X108242604Y-96957636D01*
X108275573Y-96956594D01*
X108308926Y-96956228D01*
X108342229Y-96956537D01*
X108375051Y-96957523D01*
X108406959Y-96959185D01*
X108409338Y-96959339D01*
X108455401Y-96963037D01*
X108500815Y-96968046D01*
X108545783Y-96974396D01*
X108590506Y-96982121D01*
X108635187Y-96991250D01*
X108679044Y-97001569D01*
X108724986Y-97013862D01*
X108770450Y-97027604D01*
X108815401Y-97042775D01*
X108859809Y-97059356D01*
X108903642Y-97077326D01*
X108946865Y-97096665D01*
X108989448Y-97117354D01*
X109031358Y-97139372D01*
X109072562Y-97162700D01*
X109113029Y-97187317D01*
X109152726Y-97213203D01*
X109191620Y-97240339D01*
X109229679Y-97268704D01*
X109266871Y-97298278D01*
X109303164Y-97329041D01*
X109338525Y-97360974D01*
X109372921Y-97394057D01*
X109406321Y-97428268D01*
X109438692Y-97463589D01*
X109453674Y-97480721D01*
X109456982Y-97484582D01*
X109460639Y-97488890D01*
X109464510Y-97493479D01*
X109468460Y-97498189D01*
X109472355Y-97502857D01*
X109476060Y-97507320D01*
X109479439Y-97511416D01*
X109482359Y-97514982D01*
X109484683Y-97517855D01*
X109486277Y-97519874D01*
X109486992Y-97520852D01*
X109486778Y-97521228D01*
X109485260Y-97520867D01*
X109483881Y-97520356D01*
X109481870Y-97519557D01*
X109478784Y-97518327D01*
X109474974Y-97516807D01*
X109470789Y-97515135D01*
X109468664Y-97514286D01*
X109456759Y-97509660D01*
X109443751Y-97504849D01*
X109430037Y-97499996D01*
X109416016Y-97495244D01*
X109412990Y-97494247D01*
X109375363Y-97482709D01*
X109337377Y-97472654D01*
X109299078Y-97464084D01*
X109260514Y-97456999D01*
X109221731Y-97451403D01*
X109182776Y-97447295D01*
X109143697Y-97444679D01*
X109104539Y-97443555D01*
X109065350Y-97443926D01*
X109026177Y-97445792D01*
X108987067Y-97449157D01*
X108948066Y-97454020D01*
X108909222Y-97460385D01*
X108870581Y-97468252D01*
X108845125Y-97474289D01*
X108807230Y-97484579D01*
X108769845Y-97496307D01*
X108733006Y-97509450D01*
X108696750Y-97523986D01*
X108661114Y-97539893D01*
X108626134Y-97557147D01*
X108591846Y-97575726D01*
X108558288Y-97595607D01*
X108525496Y-97616768D01*
X108493506Y-97639185D01*
X108462356Y-97662836D01*
X108432081Y-97687698D01*
X108402718Y-97713749D01*
X108374304Y-97740966D01*
X108346876Y-97769325D01*
X108320470Y-97798806D01*
X108318309Y-97801321D01*
X108293274Y-97831704D01*
X108269549Y-97862854D01*
X108247113Y-97894805D01*
X108225945Y-97927590D01*
X108206024Y-97961244D01*
X108187330Y-97995799D01*
X108169841Y-98031290D01*
X108154700Y-98065025D01*
X108147491Y-98081848D01*
X108212558Y-98147191D01*
X108218914Y-98153572D01*
X108226197Y-98160882D01*
X108234386Y-98169099D01*
X108243458Y-98178200D01*
X108253388Y-98188160D01*
X108264155Y-98198958D01*
X108275734Y-98210570D01*
X108288104Y-98222972D01*
X108301240Y-98236142D01*
X108315119Y-98250057D01*
X108329720Y-98264693D01*
X108345017Y-98280027D01*
X108360989Y-98296036D01*
X108377611Y-98312697D01*
X108394862Y-98329986D01*
X108412718Y-98347881D01*
X108431155Y-98366359D01*
X108450151Y-98385395D01*
X108469682Y-98404968D01*
X108489726Y-98425053D01*
X108510259Y-98445629D01*
X108531258Y-98466671D01*
X108552701Y-98488156D01*
X108574563Y-98510061D01*
X108596822Y-98532364D01*
X108619454Y-98555040D01*
X108642437Y-98578068D01*
X108665748Y-98601423D01*
X108689363Y-98625082D01*
X108713259Y-98649023D01*
X108737413Y-98673222D01*
X108761802Y-98697655D01*
X108786402Y-98722301D01*
X108811192Y-98747135D01*
X108836147Y-98772135D01*
X108861245Y-98797277D01*
X108886461Y-98822539D01*
X108911775Y-98847896D01*
X108937161Y-98873327D01*
X108962597Y-98898807D01*
X108988060Y-98924313D01*
X109013527Y-98949823D01*
X109038974Y-98975313D01*
X109064379Y-99000761D01*
X109089719Y-99026142D01*
X109114969Y-99051434D01*
X109140108Y-99076614D01*
X109165112Y-99101658D01*
X109189957Y-99126543D01*
X109214622Y-99151247D01*
X109239082Y-99175745D01*
X109263315Y-99200016D01*
X109287297Y-99224035D01*
X109311005Y-99247779D01*
X109334417Y-99271226D01*
X109357508Y-99294352D01*
X109380257Y-99317134D01*
X109402639Y-99339549D01*
X109424632Y-99361574D01*
X109446213Y-99383185D01*
X109467358Y-99404360D01*
X109488045Y-99425075D01*
X109508250Y-99445307D01*
X109527950Y-99465033D01*
X109547121Y-99484230D01*
X109565742Y-99502874D01*
X109583789Y-99520943D01*
X109601238Y-99538413D01*
X109618066Y-99555261D01*
X109634251Y-99571464D01*
X109649770Y-99586999D01*
X109664598Y-99601843D01*
X109678714Y-99615972D01*
X109692093Y-99629363D01*
X109704713Y-99641994D01*
X109716551Y-99653841D01*
X109727583Y-99664880D01*
X109737787Y-99675090D01*
X109747139Y-99684445D01*
X109755617Y-99692925D01*
X109763196Y-99700504D01*
X109769854Y-99707161D01*
X109775569Y-99712871D01*
X109780316Y-99717612D01*
X109784072Y-99721361D01*
X109786815Y-99724094D01*
X109788521Y-99725789D01*
X109789168Y-99726422D01*
X109789173Y-99726426D01*
X109789845Y-99725830D01*
X109791376Y-99724153D01*
X109793667Y-99721514D01*
X109796621Y-99718033D01*
X109800140Y-99713829D01*
X109804125Y-99709022D01*
X109808479Y-99703731D01*
X109813103Y-99698077D01*
X109817900Y-99692179D01*
X109822771Y-99686157D01*
X109827619Y-99680130D01*
X109832344Y-99674218D01*
X109836850Y-99668540D01*
X109841038Y-99663217D01*
X109842485Y-99661364D01*
X109875552Y-99617695D01*
X109907302Y-99573254D01*
X109937726Y-99528065D01*
X109966814Y-99482154D01*
X109994557Y-99435545D01*
X110020944Y-99388265D01*
X110045965Y-99340339D01*
X110069612Y-99291791D01*
X110091873Y-99242648D01*
X110112739Y-99192934D01*
X110132201Y-99142675D01*
X110150248Y-99091897D01*
X110166870Y-99040623D01*
X110182058Y-98988881D01*
X110195802Y-98936694D01*
X110208092Y-98884088D01*
X110218918Y-98831090D01*
X110228271Y-98777723D01*
X110236139Y-98724013D01*
X110242515Y-98669986D01*
X110246881Y-98622212D01*
X110248072Y-98606604D01*
X110249100Y-98591882D01*
X110249975Y-98577790D01*
X110250708Y-98564072D01*
X110251307Y-98550470D01*
X110251782Y-98536728D01*
X110252142Y-98522590D01*
X110252398Y-98507798D01*
X110252558Y-98492097D01*
X110252633Y-98475230D01*
X110252641Y-98467479D01*
X110252629Y-98454044D01*
X110252587Y-98441923D01*
X110252508Y-98430894D01*
X110252386Y-98420734D01*
X110252216Y-98411223D01*
X110251992Y-98402137D01*
X110251709Y-98393255D01*
X110251359Y-98384356D01*
X110250938Y-98375217D01*
X110250440Y-98365616D01*
X110249858Y-98355331D01*
X110249588Y-98350757D01*
X110245554Y-98295949D01*
X110240019Y-98241463D01*
X110232984Y-98187308D01*
X110224453Y-98133492D01*
X110214427Y-98080023D01*
X110202907Y-98026910D01*
X110189897Y-97974161D01*
X110175398Y-97921784D01*
X110159412Y-97869787D01*
X110141941Y-97818179D01*
X110122988Y-97766967D01*
X110102554Y-97716160D01*
X110080642Y-97665767D01*
X110074878Y-97653115D01*
X110072042Y-97647042D01*
X110068599Y-97639828D01*
X110064653Y-97631680D01*
X110060307Y-97622803D01*
X110055663Y-97613401D01*
X110050825Y-97603679D01*
X110045895Y-97593844D01*
X110040977Y-97584099D01*
X110036172Y-97574651D01*
X110031585Y-97565704D01*
X110027318Y-97557462D01*
X110023474Y-97550133D01*
X110020156Y-97543919D01*
X110019235Y-97542225D01*
X110006342Y-97518886D01*
X109993787Y-97496726D01*
X109981408Y-97475473D01*
X109969044Y-97454855D01*
X109956533Y-97434598D01*
X109943715Y-97414429D01*
X109941577Y-97411119D01*
X109931320Y-97395272D01*
X110023877Y-96920812D01*
X110029085Y-96894120D01*
X110034221Y-96867799D01*
X110039277Y-96841890D01*
X110044247Y-96816433D01*
X110049121Y-96791467D01*
X110053892Y-96767035D01*
X110058553Y-96743175D01*
X110063094Y-96719928D01*
X110067509Y-96697335D01*
X110071789Y-96675437D01*
X110075927Y-96654272D01*
X110079914Y-96633883D01*
X110083742Y-96614309D01*
X110087405Y-96595590D01*
X110090893Y-96577767D01*
X110094199Y-96560881D01*
X110097315Y-96544972D01*
X110100234Y-96530079D01*
X110102946Y-96516245D01*
X110105445Y-96503508D01*
X110107722Y-96491909D01*
X110109770Y-96481489D01*
X110111580Y-96472288D01*
X110113145Y-96464346D01*
X110114457Y-96457705D01*
X110115508Y-96452403D01*
X110116289Y-96448482D01*
X110116794Y-96445982D01*
X110117014Y-96444943D01*
X110117022Y-96444917D01*
X110117329Y-96444635D01*
X110117955Y-96444759D01*
X110119014Y-96445378D01*
X110120618Y-96446585D01*
X110122883Y-96448470D01*
X110125921Y-96451124D01*
X110129846Y-96454639D01*
X110134772Y-96459105D01*
X110135144Y-96459444D01*
X110177038Y-96498425D01*
X110218477Y-96538661D01*
X110259192Y-96579880D01*
X110298917Y-96621813D01*
X110337387Y-96664190D01*
X110337607Y-96664437D01*
X110379945Y-96713268D01*
X110421061Y-96763011D01*
X110460943Y-96813644D01*
X110499575Y-96865144D01*
X110536944Y-96917488D01*
X110573035Y-96970654D01*
X110607835Y-97024618D01*
X110641330Y-97079358D01*
X110673505Y-97134852D01*
X110704348Y-97191076D01*
X110733842Y-97248008D01*
X110761976Y-97305626D01*
X110788734Y-97363905D01*
X110814102Y-97422825D01*
X110831698Y-97466130D01*
X110854702Y-97526270D01*
X110876237Y-97586847D01*
X110896300Y-97647841D01*
X110914886Y-97709231D01*
X110931993Y-97770999D01*
X110947618Y-97833123D01*
X110961756Y-97895584D01*
X110974406Y-97958362D01*
X110985563Y-98021436D01*
X110995224Y-98084787D01*
X111003387Y-98148394D01*
X111010047Y-98212237D01*
X111015202Y-98276296D01*
X111018848Y-98340552D01*
X111020981Y-98404983D01*
X111021600Y-98469571D01*
X111020700Y-98534294D01*
X111018278Y-98599133D01*
X111017888Y-98606853D01*
X111013780Y-98671354D01*
X111008164Y-98735588D01*
X111001048Y-98799533D01*
X110992439Y-98863168D01*
X110982347Y-98926471D01*
X110970778Y-98989421D01*
X110957742Y-99051995D01*
X110943245Y-99114172D01*
X110927296Y-99175931D01*
X110909904Y-99237250D01*
X110891075Y-99298107D01*
X110870817Y-99358481D01*
X110849140Y-99418349D01*
X110826051Y-99477692D01*
X110801558Y-99536486D01*
X110775668Y-99594710D01*
X110748390Y-99652342D01*
X110719733Y-99709362D01*
X110689703Y-99765746D01*
X110658309Y-99821475D01*
X110625558Y-99876525D01*
X110591460Y-99930876D01*
X110556022Y-99984505D01*
X110519251Y-100037392D01*
X110481156Y-100089514D01*
X110458864Y-100118859D01*
X110419681Y-100168487D01*
X110379193Y-100217344D01*
X110337456Y-100265369D01*
X110294525Y-100312501D01*
X110250456Y-100358682D01*
X110205305Y-100403850D01*
X110159128Y-100447945D01*
X110125041Y-100479208D01*
X110121485Y-100482386D01*
X110118300Y-100485181D01*
X110115666Y-100487438D01*
X110113762Y-100489004D01*
X110112768Y-100489726D01*
X110112684Y-100489757D01*
X110112113Y-100489218D01*
X110110483Y-100487617D01*
X110107820Y-100484981D01*
X110104151Y-100481336D01*
X110099500Y-100476707D01*
X110093895Y-100471121D01*
X110087361Y-100464604D01*
X110079925Y-100457181D01*
X110071611Y-100448879D01*
X110062446Y-100439723D01*
X110052457Y-100429740D01*
X110041668Y-100418955D01*
X110030107Y-100407395D01*
X110017798Y-100395086D01*
X110004768Y-100382052D01*
X109991044Y-100368322D01*
X109976650Y-100353920D01*
X109961613Y-100338872D01*
X109945958Y-100323205D01*
X109929713Y-100306944D01*
X109912902Y-100290115D01*
X109895552Y-100272745D01*
X109877688Y-100254859D01*
X109859338Y-100236484D01*
X109840526Y-100217645D01*
X109821278Y-100198368D01*
X109801621Y-100178679D01*
X109781581Y-100158605D01*
X109761183Y-100138171D01*
X109740453Y-100117404D01*
X109719418Y-100096328D01*
X109698104Y-100074971D01*
X109686370Y-100063213D01*
X109663106Y-100039903D01*
X109640268Y-100017022D01*
X109617876Y-99994592D01*
X109595953Y-99972635D01*
X109574519Y-99951172D01*
X109553597Y-99930224D01*
X109533209Y-99909814D01*
X109513374Y-99889962D01*
X109494117Y-99870691D01*
X109475457Y-99852022D01*
X109457417Y-99833977D01*
X109440017Y-99816577D01*
X109423281Y-99799844D01*
X109407230Y-99783799D01*
X109391884Y-99768465D01*
X109377266Y-99753862D01*
X109363397Y-99740012D01*
X109350299Y-99726937D01*
X109337994Y-99714659D01*
X109326503Y-99703198D01*
X109315848Y-99692577D01*
X109306050Y-99682817D01*
X109297131Y-99673941D01*
X109289113Y-99665968D01*
X109282017Y-99658922D01*
X109275866Y-99652823D01*
X109270679Y-99647693D01*
X109266480Y-99643554D01*
X109263289Y-99640428D01*
X109261129Y-99638335D01*
X109260021Y-99637299D01*
X109259868Y-99637182D01*
X109258999Y-99637820D01*
X109257161Y-99639238D01*
X109254585Y-99641256D01*
X109251501Y-99643694D01*
X109249811Y-99645038D01*
X109211916Y-99674257D01*
X109173104Y-99702272D01*
X109133429Y-99729049D01*
X109092946Y-99754557D01*
X109051710Y-99778763D01*
X109009775Y-99801633D01*
X108967196Y-99823136D01*
X108924028Y-99843239D01*
X108900798Y-99853371D01*
X108856553Y-99871383D01*
X108811772Y-99887963D01*
X108766492Y-99903101D01*
X108720753Y-99916787D01*
X108674591Y-99929013D01*
X108628047Y-99939769D01*
X108581158Y-99949047D01*
X108533963Y-99956837D01*
X108486501Y-99963130D01*
X108438809Y-99967918D01*
X108407419Y-99970236D01*
X108377403Y-99971806D01*
X108346504Y-99972790D01*
X108315152Y-99973186D01*
X108283779Y-99972994D01*
X108252815Y-99972214D01*
X108222693Y-99970848D01*
X108212755Y-99970251D01*
X108164638Y-99966411D01*
X108116796Y-99961062D01*
X108069249Y-99954208D01*
X108022018Y-99945856D01*
X107975124Y-99936009D01*
X107928586Y-99924673D01*
X107882426Y-99911853D01*
X107836664Y-99897555D01*
X107791319Y-99881782D01*
X107746414Y-99864541D01*
X107701968Y-99845837D01*
X107688275Y-99839737D01*
X107681754Y-99836742D01*
X107674121Y-99833148D01*
X107665622Y-99829078D01*
X107656503Y-99824652D01*
X107647008Y-99819994D01*
X107637382Y-99815224D01*
X107627871Y-99810464D01*
X107618721Y-99805835D01*
X107610176Y-99801460D01*
X107602482Y-99797460D01*
X107595884Y-99793957D01*
X107594770Y-99793355D01*
X107552482Y-99769569D01*
X107511083Y-99744542D01*
X107470594Y-99718294D01*
X107431036Y-99690841D01*
X107392430Y-99662203D01*
X107354799Y-99632396D01*
X107318164Y-99601439D01*
X107282545Y-99569349D01*
X107247965Y-99536145D01*
X107214444Y-99501845D01*
X107182005Y-99466465D01*
X107150668Y-99430025D01*
X107129886Y-99404505D01*
X107100435Y-99366308D01*
X107072294Y-99327327D01*
X107045475Y-99287591D01*
X107019989Y-99247129D01*
X106995848Y-99205969D01*
X106973061Y-99164140D01*
X106951642Y-99121671D01*
X106931601Y-99078591D01*
X106912949Y-99034928D01*
X106895698Y-98990710D01*
X106879858Y-98945967D01*
X106865442Y-98900727D01*
X106852460Y-98855019D01*
X106840925Y-98808871D01*
X106830846Y-98762313D01*
X106822235Y-98715372D01*
X106815105Y-98668077D01*
X106809465Y-98620458D01*
X106805985Y-98581513D01*
X106805326Y-98572736D01*
X106804760Y-98564813D01*
X106804273Y-98557480D01*
X106803852Y-98550474D01*
X106803486Y-98543533D01*
X106803160Y-98536393D01*
X106802863Y-98528792D01*
X106802580Y-98520467D01*
X106802301Y-98511156D01*
X106802011Y-98500594D01*
X106801984Y-98499603D01*
X106801895Y-98494643D01*
G37*
%TO.C,SW_EC52*%
X254117000Y-79375000D02*
G75*
G03*
X254117000Y-79375000I-6467000J0D01*
G01*
%TO.C,SW_EC19*%
X170773250Y-60325000D02*
G75*
G03*
X170773250Y-60325000I-6467000J0D01*
G01*
%TO.C,SW_EC37*%
X42185750Y-98425000D02*
G75*
G03*
X42185750Y-98425000I-6467000J0D01*
G01*
%TO.C,SW_EC15*%
X94573250Y-60325000D02*
G75*
G03*
X94573250Y-60325000I-6467000J0D01*
G01*
%TD*%
D13*
%TO.C,H22*%
X135731250Y-60325000D03*
%TD*%
%TO.C,H3*%
X111918750Y-41275000D03*
%TD*%
%TO.C,H15*%
X207168750Y-41275000D03*
%TD*%
%TO.C,H17*%
X254793750Y-98425000D03*
%TD*%
%TO.C,H4*%
X169068750Y-41275000D03*
%TD*%
%TO.C,H6*%
X97631250Y-60325000D03*
%TD*%
%TO.C,H2*%
X73818750Y-41275000D03*
%TD*%
%TO.C,H9*%
X69056250Y-79375000D03*
%TD*%
%TO.C,H1*%
X30956250Y-41275000D03*
%TD*%
%TO.C,H5*%
X250031250Y-41275000D03*
%TD*%
%TO.C,H13*%
X185737500Y-98425000D03*
%TD*%
%TO.C,H7*%
X173831250Y-60325000D03*
%TD*%
%TO.C,H18*%
X102393750Y-98425000D03*
%TD*%
%TO.C,H11*%
X183356250Y-79375000D03*
%TD*%
%TO.C,H20*%
X64293750Y-98425000D03*
%TD*%
%TO.C,H23*%
X159543750Y-98425000D03*
%TD*%
%TO.C,H19*%
X197643750Y-98425000D03*
%TD*%
%TO.C,H16*%
X45243750Y-98425000D03*
%TD*%
%TO.C,H12*%
X114300000Y-98425000D03*
%TD*%
%TO.C,H24*%
X269081250Y-41275000D03*
%TD*%
%TO.C,H10*%
X126206250Y-79375000D03*
%TD*%
%TO.C,H14*%
X221456250Y-79375000D03*
%TD*%
%TO.C,H21*%
X235743750Y-98425000D03*
%TD*%
%TO.C,H8*%
X230981250Y-60325000D03*
%TD*%
M02*
