%TF.GenerationSoftware,KiCad,Pcbnew,(7.0.0)*%
%TF.CreationDate,2024-05-15T17:05:45+02:00*%
%TF.ProjectId,forti usb port,666f7274-6920-4757-9362-20706f72742e,rev?*%
%TF.SameCoordinates,Original*%
%TF.FileFunction,Other,Comment*%
%FSLAX46Y46*%
G04 Gerber Fmt 4.6, Leading zero omitted, Abs format (unit mm)*
G04 Created by KiCad (PCBNEW (7.0.0)) date 2024-05-15 17:05:45*
%MOMM*%
%LPD*%
G01*
G04 APERTURE LIST*
%ADD10C,0.150000*%
%ADD11C,0.030000*%
G04 APERTURE END LIST*
D10*
X150685416Y-69584761D02*
X150590178Y-69632380D01*
X150590178Y-69632380D02*
X150399702Y-69632380D01*
X150399702Y-69632380D02*
X150304464Y-69584761D01*
X150304464Y-69584761D02*
X150256845Y-69537142D01*
X150256845Y-69537142D02*
X150209226Y-69441904D01*
X150209226Y-69441904D02*
X150209226Y-69156190D01*
X150209226Y-69156190D02*
X150256845Y-69060952D01*
X150256845Y-69060952D02*
X150304464Y-69013333D01*
X150304464Y-69013333D02*
X150399702Y-68965714D01*
X150399702Y-68965714D02*
X150590178Y-68965714D01*
X150590178Y-68965714D02*
X150685416Y-69013333D01*
X151494940Y-69584761D02*
X151399702Y-69632380D01*
X151399702Y-69632380D02*
X151209226Y-69632380D01*
X151209226Y-69632380D02*
X151113988Y-69584761D01*
X151113988Y-69584761D02*
X151066369Y-69489523D01*
X151066369Y-69489523D02*
X151066369Y-69108571D01*
X151066369Y-69108571D02*
X151113988Y-69013333D01*
X151113988Y-69013333D02*
X151209226Y-68965714D01*
X151209226Y-68965714D02*
X151399702Y-68965714D01*
X151399702Y-68965714D02*
X151494940Y-69013333D01*
X151494940Y-69013333D02*
X151542559Y-69108571D01*
X151542559Y-69108571D02*
X151542559Y-69203809D01*
X151542559Y-69203809D02*
X151066369Y-69299047D01*
X151971131Y-68965714D02*
X151971131Y-69632380D01*
X151971131Y-69060952D02*
X152018750Y-69013333D01*
X152018750Y-69013333D02*
X152113988Y-68965714D01*
X152113988Y-68965714D02*
X152256845Y-68965714D01*
X152256845Y-68965714D02*
X152352083Y-69013333D01*
X152352083Y-69013333D02*
X152399702Y-69108571D01*
X152399702Y-69108571D02*
X152399702Y-69632380D01*
X152733036Y-68965714D02*
X153113988Y-68965714D01*
X152875893Y-68632380D02*
X152875893Y-69489523D01*
X152875893Y-69489523D02*
X152923512Y-69584761D01*
X152923512Y-69584761D02*
X153018750Y-69632380D01*
X153018750Y-69632380D02*
X153113988Y-69632380D01*
X153447322Y-69632380D02*
X153447322Y-68965714D01*
X153447322Y-69156190D02*
X153494941Y-69060952D01*
X153494941Y-69060952D02*
X153542560Y-69013333D01*
X153542560Y-69013333D02*
X153637798Y-68965714D01*
X153637798Y-68965714D02*
X153733036Y-68965714D01*
X154447322Y-69584761D02*
X154352084Y-69632380D01*
X154352084Y-69632380D02*
X154161608Y-69632380D01*
X154161608Y-69632380D02*
X154066370Y-69584761D01*
X154066370Y-69584761D02*
X154018751Y-69489523D01*
X154018751Y-69489523D02*
X154018751Y-69108571D01*
X154018751Y-69108571D02*
X154066370Y-69013333D01*
X154066370Y-69013333D02*
X154161608Y-68965714D01*
X154161608Y-68965714D02*
X154352084Y-68965714D01*
X154352084Y-68965714D02*
X154447322Y-69013333D01*
X154447322Y-69013333D02*
X154494941Y-69108571D01*
X154494941Y-69108571D02*
X154494941Y-69203809D01*
X154494941Y-69203809D02*
X154018751Y-69299047D01*
D11*
%TO.C,SW1*%
X47251428Y-67742226D02*
X47251428Y-67542226D01*
X47251428Y-67542226D02*
X47365713Y-67742226D01*
X47365713Y-67742226D02*
X47365713Y-67542226D01*
X47489523Y-67742226D02*
X47470475Y-67732702D01*
X47470475Y-67732702D02*
X47460952Y-67723178D01*
X47460952Y-67723178D02*
X47451428Y-67704130D01*
X47451428Y-67704130D02*
X47451428Y-67646988D01*
X47451428Y-67646988D02*
X47460952Y-67627940D01*
X47460952Y-67627940D02*
X47470475Y-67618416D01*
X47470475Y-67618416D02*
X47489523Y-67608892D01*
X47489523Y-67608892D02*
X47518094Y-67608892D01*
X47518094Y-67608892D02*
X47537142Y-67618416D01*
X47537142Y-67618416D02*
X47546666Y-67627940D01*
X47546666Y-67627940D02*
X47556190Y-67646988D01*
X47556190Y-67646988D02*
X47556190Y-67704130D01*
X47556190Y-67704130D02*
X47546666Y-67723178D01*
X47546666Y-67723178D02*
X47537142Y-67732702D01*
X47537142Y-67732702D02*
X47518094Y-67742226D01*
X47518094Y-67742226D02*
X47489523Y-67742226D01*
X47828570Y-67637464D02*
X47761904Y-67637464D01*
X47761904Y-67742226D02*
X47761904Y-67542226D01*
X47761904Y-67542226D02*
X47857142Y-67542226D01*
X47933333Y-67723178D02*
X47942856Y-67732702D01*
X47942856Y-67732702D02*
X47933333Y-67742226D01*
X47933333Y-67742226D02*
X47923809Y-67732702D01*
X47923809Y-67732702D02*
X47933333Y-67723178D01*
X47933333Y-67723178D02*
X47933333Y-67742226D01*
X48142856Y-67723178D02*
X48133332Y-67732702D01*
X48133332Y-67732702D02*
X48104761Y-67742226D01*
X48104761Y-67742226D02*
X48085713Y-67742226D01*
X48085713Y-67742226D02*
X48057142Y-67732702D01*
X48057142Y-67732702D02*
X48038094Y-67713654D01*
X48038094Y-67713654D02*
X48028571Y-67694607D01*
X48028571Y-67694607D02*
X48019047Y-67656511D01*
X48019047Y-67656511D02*
X48019047Y-67627940D01*
X48019047Y-67627940D02*
X48028571Y-67589845D01*
X48028571Y-67589845D02*
X48038094Y-67570797D01*
X48038094Y-67570797D02*
X48057142Y-67551750D01*
X48057142Y-67551750D02*
X48085713Y-67542226D01*
X48085713Y-67542226D02*
X48104761Y-67542226D01*
X48104761Y-67542226D02*
X48133332Y-67551750D01*
X48133332Y-67551750D02*
X48142856Y-67561273D01*
X48314285Y-67608892D02*
X48314285Y-67742226D01*
X48228571Y-67608892D02*
X48228571Y-67713654D01*
X48228571Y-67713654D02*
X48238094Y-67732702D01*
X48238094Y-67732702D02*
X48257142Y-67742226D01*
X48257142Y-67742226D02*
X48285713Y-67742226D01*
X48285713Y-67742226D02*
X48304761Y-67732702D01*
X48304761Y-67732702D02*
X48314285Y-67723178D01*
X48500951Y-67608892D02*
X48577142Y-67608892D01*
X48529523Y-67542226D02*
X48529523Y-67713654D01*
X48529523Y-67713654D02*
X48539046Y-67732702D01*
X48539046Y-67732702D02*
X48558094Y-67742226D01*
X48558094Y-67742226D02*
X48577142Y-67742226D01*
X48643809Y-67742226D02*
X48643809Y-67608892D01*
X48643809Y-67646988D02*
X48653332Y-67627940D01*
X48653332Y-67627940D02*
X48662856Y-67618416D01*
X48662856Y-67618416D02*
X48681904Y-67608892D01*
X48681904Y-67608892D02*
X48700951Y-67608892D01*
X48853333Y-67742226D02*
X48853333Y-67637464D01*
X48853333Y-67637464D02*
X48843809Y-67618416D01*
X48843809Y-67618416D02*
X48824761Y-67608892D01*
X48824761Y-67608892D02*
X48786666Y-67608892D01*
X48786666Y-67608892D02*
X48767619Y-67618416D01*
X48853333Y-67732702D02*
X48834285Y-67742226D01*
X48834285Y-67742226D02*
X48786666Y-67742226D01*
X48786666Y-67742226D02*
X48767619Y-67732702D01*
X48767619Y-67732702D02*
X48758095Y-67713654D01*
X48758095Y-67713654D02*
X48758095Y-67694607D01*
X48758095Y-67694607D02*
X48767619Y-67675559D01*
X48767619Y-67675559D02*
X48786666Y-67666035D01*
X48786666Y-67666035D02*
X48834285Y-67666035D01*
X48834285Y-67666035D02*
X48853333Y-67656511D01*
X49034285Y-67732702D02*
X49015237Y-67742226D01*
X49015237Y-67742226D02*
X48977142Y-67742226D01*
X48977142Y-67742226D02*
X48958094Y-67732702D01*
X48958094Y-67732702D02*
X48948571Y-67723178D01*
X48948571Y-67723178D02*
X48939047Y-67704130D01*
X48939047Y-67704130D02*
X48939047Y-67646988D01*
X48939047Y-67646988D02*
X48948571Y-67627940D01*
X48948571Y-67627940D02*
X48958094Y-67618416D01*
X48958094Y-67618416D02*
X48977142Y-67608892D01*
X48977142Y-67608892D02*
X49015237Y-67608892D01*
X49015237Y-67608892D02*
X49034285Y-67618416D01*
X49120000Y-67742226D02*
X49120000Y-67542226D01*
X49139047Y-67666035D02*
X49196190Y-67742226D01*
X49196190Y-67608892D02*
X49120000Y-67685083D01*
X49272381Y-67732702D02*
X49291428Y-67742226D01*
X49291428Y-67742226D02*
X49329524Y-67742226D01*
X49329524Y-67742226D02*
X49348571Y-67732702D01*
X49348571Y-67732702D02*
X49358095Y-67713654D01*
X49358095Y-67713654D02*
X49358095Y-67704130D01*
X49358095Y-67704130D02*
X49348571Y-67685083D01*
X49348571Y-67685083D02*
X49329524Y-67675559D01*
X49329524Y-67675559D02*
X49300952Y-67675559D01*
X49300952Y-67675559D02*
X49281905Y-67666035D01*
X49281905Y-67666035D02*
X49272381Y-67646988D01*
X49272381Y-67646988D02*
X49272381Y-67637464D01*
X49272381Y-67637464D02*
X49281905Y-67618416D01*
X49281905Y-67618416D02*
X49300952Y-67608892D01*
X49300952Y-67608892D02*
X49329524Y-67608892D01*
X49329524Y-67608892D02*
X49348571Y-67618416D01*
X52101905Y-67342226D02*
X52101905Y-67142226D01*
X52216190Y-67342226D02*
X52130476Y-67227940D01*
X52216190Y-67142226D02*
X52101905Y-67256511D01*
X52301905Y-67237464D02*
X52368571Y-67237464D01*
X52397143Y-67342226D02*
X52301905Y-67342226D01*
X52301905Y-67342226D02*
X52301905Y-67142226D01*
X52301905Y-67142226D02*
X52397143Y-67142226D01*
X52482857Y-67237464D02*
X52549523Y-67237464D01*
X52578095Y-67342226D02*
X52482857Y-67342226D01*
X52482857Y-67342226D02*
X52482857Y-67142226D01*
X52482857Y-67142226D02*
X52578095Y-67142226D01*
X52663809Y-67342226D02*
X52663809Y-67142226D01*
X52663809Y-67142226D02*
X52739999Y-67142226D01*
X52739999Y-67142226D02*
X52759047Y-67151750D01*
X52759047Y-67151750D02*
X52768570Y-67161273D01*
X52768570Y-67161273D02*
X52778094Y-67180321D01*
X52778094Y-67180321D02*
X52778094Y-67208892D01*
X52778094Y-67208892D02*
X52768570Y-67227940D01*
X52768570Y-67227940D02*
X52759047Y-67237464D01*
X52759047Y-67237464D02*
X52739999Y-67246988D01*
X52739999Y-67246988D02*
X52663809Y-67246988D01*
X52863809Y-67266035D02*
X53016190Y-67266035D01*
X53149523Y-67142226D02*
X53187618Y-67142226D01*
X53187618Y-67142226D02*
X53206666Y-67151750D01*
X53206666Y-67151750D02*
X53225713Y-67170797D01*
X53225713Y-67170797D02*
X53235237Y-67208892D01*
X53235237Y-67208892D02*
X53235237Y-67275559D01*
X53235237Y-67275559D02*
X53225713Y-67313654D01*
X53225713Y-67313654D02*
X53206666Y-67332702D01*
X53206666Y-67332702D02*
X53187618Y-67342226D01*
X53187618Y-67342226D02*
X53149523Y-67342226D01*
X53149523Y-67342226D02*
X53130475Y-67332702D01*
X53130475Y-67332702D02*
X53111428Y-67313654D01*
X53111428Y-67313654D02*
X53101904Y-67275559D01*
X53101904Y-67275559D02*
X53101904Y-67208892D01*
X53101904Y-67208892D02*
X53111428Y-67170797D01*
X53111428Y-67170797D02*
X53130475Y-67151750D01*
X53130475Y-67151750D02*
X53149523Y-67142226D01*
X53320952Y-67142226D02*
X53320952Y-67304130D01*
X53320952Y-67304130D02*
X53330475Y-67323178D01*
X53330475Y-67323178D02*
X53339999Y-67332702D01*
X53339999Y-67332702D02*
X53359047Y-67342226D01*
X53359047Y-67342226D02*
X53397142Y-67342226D01*
X53397142Y-67342226D02*
X53416190Y-67332702D01*
X53416190Y-67332702D02*
X53425713Y-67323178D01*
X53425713Y-67323178D02*
X53435237Y-67304130D01*
X53435237Y-67304130D02*
X53435237Y-67142226D01*
X53501904Y-67142226D02*
X53616190Y-67142226D01*
X53559047Y-67342226D02*
X53559047Y-67142226D01*
X53783809Y-67142226D02*
X53917142Y-67142226D01*
X53917142Y-67142226D02*
X53783809Y-67342226D01*
X53783809Y-67342226D02*
X53917142Y-67342226D01*
X54031428Y-67142226D02*
X54069523Y-67142226D01*
X54069523Y-67142226D02*
X54088571Y-67151750D01*
X54088571Y-67151750D02*
X54107618Y-67170797D01*
X54107618Y-67170797D02*
X54117142Y-67208892D01*
X54117142Y-67208892D02*
X54117142Y-67275559D01*
X54117142Y-67275559D02*
X54107618Y-67313654D01*
X54107618Y-67313654D02*
X54088571Y-67332702D01*
X54088571Y-67332702D02*
X54069523Y-67342226D01*
X54069523Y-67342226D02*
X54031428Y-67342226D01*
X54031428Y-67342226D02*
X54012380Y-67332702D01*
X54012380Y-67332702D02*
X53993333Y-67313654D01*
X53993333Y-67313654D02*
X53983809Y-67275559D01*
X53983809Y-67275559D02*
X53983809Y-67208892D01*
X53983809Y-67208892D02*
X53993333Y-67170797D01*
X53993333Y-67170797D02*
X54012380Y-67151750D01*
X54012380Y-67151750D02*
X54031428Y-67142226D01*
X54202857Y-67342226D02*
X54202857Y-67142226D01*
X54202857Y-67142226D02*
X54317142Y-67342226D01*
X54317142Y-67342226D02*
X54317142Y-67142226D01*
X54412381Y-67237464D02*
X54479047Y-67237464D01*
X54507619Y-67342226D02*
X54412381Y-67342226D01*
X54412381Y-67342226D02*
X54412381Y-67142226D01*
X54412381Y-67142226D02*
X54507619Y-67142226D01*
X47101905Y-67342226D02*
X47101905Y-67142226D01*
X47216190Y-67342226D02*
X47130476Y-67227940D01*
X47216190Y-67142226D02*
X47101905Y-67256511D01*
X47301905Y-67237464D02*
X47368571Y-67237464D01*
X47397143Y-67342226D02*
X47301905Y-67342226D01*
X47301905Y-67342226D02*
X47301905Y-67142226D01*
X47301905Y-67142226D02*
X47397143Y-67142226D01*
X47482857Y-67237464D02*
X47549523Y-67237464D01*
X47578095Y-67342226D02*
X47482857Y-67342226D01*
X47482857Y-67342226D02*
X47482857Y-67142226D01*
X47482857Y-67142226D02*
X47578095Y-67142226D01*
X47663809Y-67342226D02*
X47663809Y-67142226D01*
X47663809Y-67142226D02*
X47739999Y-67142226D01*
X47739999Y-67142226D02*
X47759047Y-67151750D01*
X47759047Y-67151750D02*
X47768570Y-67161273D01*
X47768570Y-67161273D02*
X47778094Y-67180321D01*
X47778094Y-67180321D02*
X47778094Y-67208892D01*
X47778094Y-67208892D02*
X47768570Y-67227940D01*
X47768570Y-67227940D02*
X47759047Y-67237464D01*
X47759047Y-67237464D02*
X47739999Y-67246988D01*
X47739999Y-67246988D02*
X47663809Y-67246988D01*
X47863809Y-67266035D02*
X48016190Y-67266035D01*
X48149523Y-67142226D02*
X48187618Y-67142226D01*
X48187618Y-67142226D02*
X48206666Y-67151750D01*
X48206666Y-67151750D02*
X48225713Y-67170797D01*
X48225713Y-67170797D02*
X48235237Y-67208892D01*
X48235237Y-67208892D02*
X48235237Y-67275559D01*
X48235237Y-67275559D02*
X48225713Y-67313654D01*
X48225713Y-67313654D02*
X48206666Y-67332702D01*
X48206666Y-67332702D02*
X48187618Y-67342226D01*
X48187618Y-67342226D02*
X48149523Y-67342226D01*
X48149523Y-67342226D02*
X48130475Y-67332702D01*
X48130475Y-67332702D02*
X48111428Y-67313654D01*
X48111428Y-67313654D02*
X48101904Y-67275559D01*
X48101904Y-67275559D02*
X48101904Y-67208892D01*
X48101904Y-67208892D02*
X48111428Y-67170797D01*
X48111428Y-67170797D02*
X48130475Y-67151750D01*
X48130475Y-67151750D02*
X48149523Y-67142226D01*
X48320952Y-67142226D02*
X48320952Y-67304130D01*
X48320952Y-67304130D02*
X48330475Y-67323178D01*
X48330475Y-67323178D02*
X48339999Y-67332702D01*
X48339999Y-67332702D02*
X48359047Y-67342226D01*
X48359047Y-67342226D02*
X48397142Y-67342226D01*
X48397142Y-67342226D02*
X48416190Y-67332702D01*
X48416190Y-67332702D02*
X48425713Y-67323178D01*
X48425713Y-67323178D02*
X48435237Y-67304130D01*
X48435237Y-67304130D02*
X48435237Y-67142226D01*
X48501904Y-67142226D02*
X48616190Y-67142226D01*
X48559047Y-67342226D02*
X48559047Y-67142226D01*
X48783809Y-67142226D02*
X48917142Y-67142226D01*
X48917142Y-67142226D02*
X48783809Y-67342226D01*
X48783809Y-67342226D02*
X48917142Y-67342226D01*
X49031428Y-67142226D02*
X49069523Y-67142226D01*
X49069523Y-67142226D02*
X49088571Y-67151750D01*
X49088571Y-67151750D02*
X49107618Y-67170797D01*
X49107618Y-67170797D02*
X49117142Y-67208892D01*
X49117142Y-67208892D02*
X49117142Y-67275559D01*
X49117142Y-67275559D02*
X49107618Y-67313654D01*
X49107618Y-67313654D02*
X49088571Y-67332702D01*
X49088571Y-67332702D02*
X49069523Y-67342226D01*
X49069523Y-67342226D02*
X49031428Y-67342226D01*
X49031428Y-67342226D02*
X49012380Y-67332702D01*
X49012380Y-67332702D02*
X48993333Y-67313654D01*
X48993333Y-67313654D02*
X48983809Y-67275559D01*
X48983809Y-67275559D02*
X48983809Y-67208892D01*
X48983809Y-67208892D02*
X48993333Y-67170797D01*
X48993333Y-67170797D02*
X49012380Y-67151750D01*
X49012380Y-67151750D02*
X49031428Y-67142226D01*
X49202857Y-67342226D02*
X49202857Y-67142226D01*
X49202857Y-67142226D02*
X49317142Y-67342226D01*
X49317142Y-67342226D02*
X49317142Y-67142226D01*
X49412381Y-67237464D02*
X49479047Y-67237464D01*
X49507619Y-67342226D02*
X49412381Y-67342226D01*
X49412381Y-67342226D02*
X49412381Y-67142226D01*
X49412381Y-67142226D02*
X49507619Y-67142226D01*
X52251428Y-67742226D02*
X52251428Y-67542226D01*
X52251428Y-67542226D02*
X52365713Y-67742226D01*
X52365713Y-67742226D02*
X52365713Y-67542226D01*
X52489523Y-67742226D02*
X52470475Y-67732702D01*
X52470475Y-67732702D02*
X52460952Y-67723178D01*
X52460952Y-67723178D02*
X52451428Y-67704130D01*
X52451428Y-67704130D02*
X52451428Y-67646988D01*
X52451428Y-67646988D02*
X52460952Y-67627940D01*
X52460952Y-67627940D02*
X52470475Y-67618416D01*
X52470475Y-67618416D02*
X52489523Y-67608892D01*
X52489523Y-67608892D02*
X52518094Y-67608892D01*
X52518094Y-67608892D02*
X52537142Y-67618416D01*
X52537142Y-67618416D02*
X52546666Y-67627940D01*
X52546666Y-67627940D02*
X52556190Y-67646988D01*
X52556190Y-67646988D02*
X52556190Y-67704130D01*
X52556190Y-67704130D02*
X52546666Y-67723178D01*
X52546666Y-67723178D02*
X52537142Y-67732702D01*
X52537142Y-67732702D02*
X52518094Y-67742226D01*
X52518094Y-67742226D02*
X52489523Y-67742226D01*
X52828570Y-67637464D02*
X52761904Y-67637464D01*
X52761904Y-67742226D02*
X52761904Y-67542226D01*
X52761904Y-67542226D02*
X52857142Y-67542226D01*
X52933333Y-67723178D02*
X52942856Y-67732702D01*
X52942856Y-67732702D02*
X52933333Y-67742226D01*
X52933333Y-67742226D02*
X52923809Y-67732702D01*
X52923809Y-67732702D02*
X52933333Y-67723178D01*
X52933333Y-67723178D02*
X52933333Y-67742226D01*
X53142856Y-67723178D02*
X53133332Y-67732702D01*
X53133332Y-67732702D02*
X53104761Y-67742226D01*
X53104761Y-67742226D02*
X53085713Y-67742226D01*
X53085713Y-67742226D02*
X53057142Y-67732702D01*
X53057142Y-67732702D02*
X53038094Y-67713654D01*
X53038094Y-67713654D02*
X53028571Y-67694607D01*
X53028571Y-67694607D02*
X53019047Y-67656511D01*
X53019047Y-67656511D02*
X53019047Y-67627940D01*
X53019047Y-67627940D02*
X53028571Y-67589845D01*
X53028571Y-67589845D02*
X53038094Y-67570797D01*
X53038094Y-67570797D02*
X53057142Y-67551750D01*
X53057142Y-67551750D02*
X53085713Y-67542226D01*
X53085713Y-67542226D02*
X53104761Y-67542226D01*
X53104761Y-67542226D02*
X53133332Y-67551750D01*
X53133332Y-67551750D02*
X53142856Y-67561273D01*
X53314285Y-67608892D02*
X53314285Y-67742226D01*
X53228571Y-67608892D02*
X53228571Y-67713654D01*
X53228571Y-67713654D02*
X53238094Y-67732702D01*
X53238094Y-67732702D02*
X53257142Y-67742226D01*
X53257142Y-67742226D02*
X53285713Y-67742226D01*
X53285713Y-67742226D02*
X53304761Y-67732702D01*
X53304761Y-67732702D02*
X53314285Y-67723178D01*
X53500951Y-67608892D02*
X53577142Y-67608892D01*
X53529523Y-67542226D02*
X53529523Y-67713654D01*
X53529523Y-67713654D02*
X53539046Y-67732702D01*
X53539046Y-67732702D02*
X53558094Y-67742226D01*
X53558094Y-67742226D02*
X53577142Y-67742226D01*
X53643809Y-67742226D02*
X53643809Y-67608892D01*
X53643809Y-67646988D02*
X53653332Y-67627940D01*
X53653332Y-67627940D02*
X53662856Y-67618416D01*
X53662856Y-67618416D02*
X53681904Y-67608892D01*
X53681904Y-67608892D02*
X53700951Y-67608892D01*
X53853333Y-67742226D02*
X53853333Y-67637464D01*
X53853333Y-67637464D02*
X53843809Y-67618416D01*
X53843809Y-67618416D02*
X53824761Y-67608892D01*
X53824761Y-67608892D02*
X53786666Y-67608892D01*
X53786666Y-67608892D02*
X53767619Y-67618416D01*
X53853333Y-67732702D02*
X53834285Y-67742226D01*
X53834285Y-67742226D02*
X53786666Y-67742226D01*
X53786666Y-67742226D02*
X53767619Y-67732702D01*
X53767619Y-67732702D02*
X53758095Y-67713654D01*
X53758095Y-67713654D02*
X53758095Y-67694607D01*
X53758095Y-67694607D02*
X53767619Y-67675559D01*
X53767619Y-67675559D02*
X53786666Y-67666035D01*
X53786666Y-67666035D02*
X53834285Y-67666035D01*
X53834285Y-67666035D02*
X53853333Y-67656511D01*
X54034285Y-67732702D02*
X54015237Y-67742226D01*
X54015237Y-67742226D02*
X53977142Y-67742226D01*
X53977142Y-67742226D02*
X53958094Y-67732702D01*
X53958094Y-67732702D02*
X53948571Y-67723178D01*
X53948571Y-67723178D02*
X53939047Y-67704130D01*
X53939047Y-67704130D02*
X53939047Y-67646988D01*
X53939047Y-67646988D02*
X53948571Y-67627940D01*
X53948571Y-67627940D02*
X53958094Y-67618416D01*
X53958094Y-67618416D02*
X53977142Y-67608892D01*
X53977142Y-67608892D02*
X54015237Y-67608892D01*
X54015237Y-67608892D02*
X54034285Y-67618416D01*
X54120000Y-67742226D02*
X54120000Y-67542226D01*
X54139047Y-67666035D02*
X54196190Y-67742226D01*
X54196190Y-67608892D02*
X54120000Y-67685083D01*
X54272381Y-67732702D02*
X54291428Y-67742226D01*
X54291428Y-67742226D02*
X54329524Y-67742226D01*
X54329524Y-67742226D02*
X54348571Y-67732702D01*
X54348571Y-67732702D02*
X54358095Y-67713654D01*
X54358095Y-67713654D02*
X54358095Y-67704130D01*
X54358095Y-67704130D02*
X54348571Y-67685083D01*
X54348571Y-67685083D02*
X54329524Y-67675559D01*
X54329524Y-67675559D02*
X54300952Y-67675559D01*
X54300952Y-67675559D02*
X54281905Y-67666035D01*
X54281905Y-67666035D02*
X54272381Y-67646988D01*
X54272381Y-67646988D02*
X54272381Y-67637464D01*
X54272381Y-67637464D02*
X54281905Y-67618416D01*
X54281905Y-67618416D02*
X54300952Y-67608892D01*
X54300952Y-67608892D02*
X54329524Y-67608892D01*
X54329524Y-67608892D02*
X54348571Y-67618416D01*
%TD*%
M02*
