%TF.GenerationSoftware,KiCad,Pcbnew,8.0.8*%
%TF.CreationDate,2025-02-11T12:17:45+01:00*%
%TF.ProjectId,forti rev 3,666f7274-6920-4726-9576-20332e6b6963,rev?*%
%TF.SameCoordinates,Original*%
%TF.FileFunction,Profile,NP*%
%FSLAX46Y46*%
G04 Gerber Fmt 4.6, Leading zero omitted, Abs format (unit mm)*
G04 Created by KiCad (PCBNEW 8.0.8) date 2025-02-11 12:17:45*
%MOMM*%
%LPD*%
G01*
G04 APERTURE LIST*
%TA.AperFunction,Profile*%
%ADD10C,0.200000*%
%TD*%
G04 APERTURE END LIST*
D10*
X146950712Y-33232775D02*
G75*
G02*
X145396397Y-32491388I-12J1999975D01*
G01*
X153086788Y-33232775D02*
X146950712Y-33232775D01*
X28193750Y-106470790D02*
X35612746Y-106470790D01*
X238762500Y-25075000D02*
X229762500Y-25075000D01*
X229262500Y-25575000D02*
G75*
G02*
X229762500Y-25075000I500000J0D01*
G01*
X145396885Y-107210395D02*
G75*
G02*
X143844015Y-107950012I-1552885J1260395D01*
G01*
X146949754Y-106470791D02*
X153087746Y-106470791D01*
X238762500Y-25075000D02*
G75*
G02*
X239262500Y-25575000I0J-500000D01*
G01*
X228262500Y-31750000D02*
X156195417Y-31750000D01*
X143842083Y-31750000D02*
X38720417Y-31750000D01*
X272843750Y-105470790D02*
X272843750Y-34232775D01*
X229262500Y-25575000D02*
X229262500Y-30750000D01*
X271843750Y-33232775D02*
G75*
G02*
X272843825Y-34232775I50J-1000025D01*
G01*
X154641103Y-32491388D02*
G75*
G02*
X156195417Y-31750014I1554297J-1258612D01*
G01*
X143842083Y-31750000D02*
G75*
G02*
X145396408Y-32491379I17J-2000000D01*
G01*
X271843750Y-33232775D02*
X264425712Y-33232775D01*
X264425712Y-33232775D02*
G75*
G02*
X262871397Y-32491388I-12J1999975D01*
G01*
X264424754Y-106470790D02*
X271843750Y-106470790D01*
X145396885Y-107210395D02*
G75*
G02*
X146949754Y-106470759I1552915J-1260405D01*
G01*
X262871885Y-107210395D02*
G75*
G02*
X261319015Y-107950012I-1552885J1260395D01*
G01*
X38718485Y-107950000D02*
G75*
G02*
X37165624Y-107210388I15J2000000D01*
G01*
X153087746Y-106470791D02*
G75*
G02*
X154640590Y-107210415I-46J-2000009D01*
G01*
X27193750Y-34232775D02*
X27193750Y-105470790D01*
X35611788Y-33232775D02*
X28193750Y-33232775D01*
X154641103Y-32491388D02*
G75*
G02*
X153086788Y-33232775I-1554303J1258588D01*
G01*
X262871885Y-107210395D02*
G75*
G02*
X264424754Y-106470759I1552915J-1260405D01*
G01*
X156193485Y-107950000D02*
X261319015Y-107950000D01*
X261317083Y-31750000D02*
G75*
G02*
X262871408Y-32491379I17J-2000000D01*
G01*
X240262500Y-31750000D02*
G75*
G02*
X239262500Y-30750000I0J1000000D01*
G01*
X28193750Y-106470790D02*
G75*
G02*
X27193710Y-105470790I-50J999990D01*
G01*
X156193485Y-107950000D02*
G75*
G02*
X154640624Y-107210388I15J2000000D01*
G01*
X37166103Y-32491388D02*
G75*
G02*
X35611788Y-33232775I-1554303J1258588D01*
G01*
X229262500Y-30750000D02*
G75*
G02*
X228262500Y-31750000I-1000000J0D01*
G01*
X38718485Y-107950000D02*
X143844015Y-107950000D01*
X261317083Y-31750000D02*
X240262500Y-31750000D01*
X27193750Y-34232775D02*
G75*
G02*
X28193750Y-33232850I999950J-25D01*
G01*
X35612746Y-106470790D02*
G75*
G02*
X37165591Y-107210415I-46J-2000010D01*
G01*
X272843750Y-105470790D02*
G75*
G02*
X271843750Y-106470750I-999950J-10D01*
G01*
X37166103Y-32491388D02*
G75*
G02*
X38720417Y-31750014I1554297J-1258612D01*
G01*
X239262500Y-30750000D02*
X239262500Y-25575000D01*
M02*
