M48
; DRILL file {KiCad (7.0.0)} date Wed Nov 22 13:33:22 2023
; FORMAT={-:-/ absolute / inch / decimal}
; #@! TF.CreationDate,2023-11-22T13:33:22+01:00
; #@! TF.GenerationSoftware,Kicad,Pcbnew,(7.0.0)
; #@! TF.FileFunction,Plated,1,2,PTH
FMAT,2
INCH
; #@! TA.AperFunction,Plated,PTH,ViaDrill
T1C0.0157
; #@! TA.AperFunction,Plated,PTH,ComponentDrill
T2C0.0236
; #@! TA.AperFunction,Plated,PTH,ComponentDrill
T3C0.0600
; #@! TA.AperFunction,Plated,PTH,ComponentDrill
T4C0.1200
%
G90
G05
T1
X1.2187Y-3.498
X1.2188Y-1.3438
X1.2188Y-2.0
X1.2188Y-2.75
X1.2189Y-2.0394
X1.2189Y-2.7894
X1.2194Y-3.5374
X1.297Y-1.3886
X2.0625Y-1.3438
X2.125Y-2.1201
X2.1408Y-1.3886
X2.2223Y-2.6124
X2.2272Y-2.1889
X2.2279Y-2.0348
X2.2721Y-2.7218
X2.3196Y-2.0759
X2.335Y-2.0083
X2.3929Y-2.5037
X2.4167Y-2.6671
X2.4844Y-2.236
X2.5227Y-2.7727
X2.5762Y-2.4185
X2.6932Y-2.7811
X2.75Y-2.5312
X2.75Y-2.9688
X2.7599Y-3.1413
X2.8173Y-2.5069
X2.8287Y-2.7138
X2.9062Y-1.3438
X2.9854Y-2.7188
X2.9854Y-2.7812
X2.9952Y-1.3915
X3.1366Y-2.6881
X3.6562Y-1.3438
X3.7452Y-1.3915
X4.4062Y-1.3438
X4.4952Y-1.3915
X5.1562Y-1.3438
X5.2345Y-1.3886
X5.9062Y-1.3438
X5.9862Y-1.389
X6.6875Y-1.3438
X6.7658Y-1.3886
X7.4062Y-1.3438
X7.4952Y-1.3915
X8.125Y-1.3438
X8.2124Y-1.3916
X8.8125Y-1.3125
X8.9001Y-1.75
X8.904Y-1.3674
X9.0Y-1.4688
X9.0Y-1.75
X9.0625Y-1.4688
X9.1262Y-1.2634
X9.1562Y-1.3125
X9.1864Y-1.3435
X9.1875Y-1.2812
X9.2713Y-1.3576
X9.3438Y-1.3125
X9.4903Y-1.3678
X9.5312Y-1.3125
X9.75Y-1.3438
X9.839Y-1.3915
X10.5936Y-1.8356
X10.5936Y-2.7106
X10.5936Y-3.4606
X10.5938Y-1.3438
X10.5938Y-1.875
X10.5938Y-2.75
X10.5938Y-3.5
X10.5939Y-1.3831
X10.6958Y-1.9389
X10.6958Y-1.3478
X10.6966Y-1.8457
X10.6971Y-2.7054
X10.6981Y-2.8079
X10.699Y-3.4649
T3
X1.2562Y-3.775
X1.35Y-2.275
X1.35Y-3.025
X1.4437Y-1.525
X1.4437Y-3.775
X1.5062Y-3.675
X1.5375Y-2.275
X1.6Y-2.175
X1.6Y-2.925
X1.6937Y-1.425
X1.6937Y-3.675
X1.725Y-3.025
X1.7875Y-2.175
X1.975Y-2.925
X2.0063Y-3.775
X2.1938Y-3.025
X2.2563Y-3.675
X2.3813Y-1.525
X2.3813Y-3.775
X2.4438Y-2.925
X2.5688Y-2.275
X2.5688Y-3.775
X2.6313Y-1.425
X2.6313Y-3.675
X2.7563Y-3.775
X2.8188Y-2.175
X2.8188Y-3.675
X2.9438Y-3.025
X3.0063Y-3.675
X3.1313Y-1.525
X3.1938Y-2.925
X3.3188Y-2.275
X3.3188Y-3.775
X3.3813Y-1.425
X3.5063Y-3.775
X3.5688Y-2.175
X3.5688Y-3.675
X3.6938Y-3.025
X3.7563Y-3.675
X3.8813Y-1.525
X3.9438Y-2.925
X4.0687Y-2.275
X4.1312Y-1.425
X4.3187Y-2.175
X4.4437Y-3.025
X4.6312Y-1.525
X4.6937Y-2.925
X4.725Y-3.775
X4.8187Y-2.275
X4.8812Y-1.425
X4.9125Y-3.775
X4.975Y-3.675
X5.0687Y-2.175
X5.1625Y-3.675
X5.1937Y-3.025
X5.3812Y-1.525
X5.4437Y-2.925
X5.5687Y-2.275
X5.6312Y-1.425
X5.7562Y-3.775
X5.8187Y-2.175
X5.9437Y-3.025
X6.0062Y-3.675
X6.1312Y-1.525
X6.1937Y-2.925
X6.3187Y-2.275
X6.3812Y-1.425
X6.5687Y-2.175
X6.6Y-3.775
X6.6937Y-3.025
X6.7875Y-3.775
X6.85Y-3.675
X6.8812Y-1.525
X6.9437Y-2.925
X7.0375Y-3.675
X7.0687Y-2.275
X7.1312Y-1.425
X7.3187Y-2.175
X7.4437Y-3.025
X7.6312Y-1.525
X7.6937Y-2.925
X7.8187Y-2.275
X7.8812Y-1.425
X8.0062Y-3.775
X8.0687Y-2.175
X8.1937Y-3.025
X8.1937Y-3.775
X8.2562Y-3.675
X8.3812Y-1.525
X8.4437Y-2.925
X8.4437Y-3.675
X8.5687Y-2.275
X8.6312Y-1.425
X8.7562Y-3.775
X8.8187Y-2.175
X8.9437Y-3.025
X8.9437Y-3.775
X9.0062Y-3.675
X9.1312Y-1.525
X9.1312Y-3.775
X9.1937Y-2.925
X9.1937Y-3.675
X9.225Y-3.025
X9.3187Y-2.275
X9.3812Y-1.425
X9.3812Y-3.675
X9.475Y-2.925
X9.5062Y-3.775
X9.5687Y-2.175
X9.6Y-3.025
X9.7562Y-3.675
X9.7875Y-2.275
X9.85Y-2.925
X9.975Y-3.025
X10.0375Y-2.175
X10.0687Y-1.525
X10.0687Y-3.775
X10.1625Y-1.9
X10.1625Y-2.275
X10.225Y-2.925
X10.2562Y-3.025
X10.2562Y-3.775
X10.3187Y-1.425
X10.3187Y-3.675
X10.4125Y-1.8
X10.4125Y-2.175
X10.5062Y-2.925
X10.5062Y-3.675
T4
X1.4062Y-2.85
X2.3438Y-2.85
X3.6562Y-4.15
X4.4062Y-4.15
X4.5938Y-4.15
X5.3438Y-4.15
X5.5312Y-4.15
X6.2812Y-4.15
X6.4688Y-4.15
X7.2188Y-4.15
X7.4062Y-4.15
X8.1562Y-4.15
X9.2812Y-2.85
X9.4688Y-2.65
X10.2188Y-2.85
X10.4062Y-2.65
T2
G00X9.0531Y-1.0148
M15
G01X9.0531Y-0.9911
M16
G05
G00X9.0531Y-1.1892
M15
G01X9.0531Y-1.1459
M16
G05
G00X9.3933Y-1.0148
M15
G01X9.3933Y-0.9911
M16
G05
G00X9.3933Y-1.1892
M15
G01X9.3933Y-1.1459
M16
G05
T0
M30
