%TF.GenerationSoftware,KiCad,Pcbnew,(7.0.0)*%
%TF.CreationDate,2024-05-15T17:05:45+02:00*%
%TF.ProjectId,forti usb port,666f7274-6920-4757-9362-20706f72742e,rev?*%
%TF.SameCoordinates,Original*%
%TF.FileFunction,Paste,Bot*%
%TF.FilePolarity,Positive*%
%FSLAX46Y46*%
G04 Gerber Fmt 4.6, Leading zero omitted, Abs format (unit mm)*
G04 Created by KiCad (PCBNEW (7.0.0)) date 2024-05-15 17:05:45*
%MOMM*%
%LPD*%
G01*
G04 APERTURE LIST*
G04 Aperture macros list*
%AMRoundRect*
0 Rectangle with rounded corners*
0 $1 Rounding radius*
0 $2 $3 $4 $5 $6 $7 $8 $9 X,Y pos of 4 corners*
0 Add a 4 corners polygon primitive as box body*
4,1,4,$2,$3,$4,$5,$6,$7,$8,$9,$2,$3,0*
0 Add four circle primitives for the rounded corners*
1,1,$1+$1,$2,$3*
1,1,$1+$1,$4,$5*
1,1,$1+$1,$6,$7*
1,1,$1+$1,$8,$9*
0 Add four rect primitives between the rounded corners*
20,1,$1+$1,$2,$3,$4,$5,0*
20,1,$1+$1,$4,$5,$6,$7,0*
20,1,$1+$1,$6,$7,$8,$9,0*
20,1,$1+$1,$8,$9,$2,$3,0*%
G04 Aperture macros list end*
%ADD10RoundRect,0.105000X-0.245000X0.245000X-0.245000X-0.245000X0.245000X-0.245000X0.245000X0.245000X0*%
%ADD11RoundRect,0.250000X0.300000X-0.300000X0.300000X0.300000X-0.300000X0.300000X-0.300000X-0.300000X0*%
%ADD12RoundRect,0.105000X0.245000X0.245000X-0.245000X0.245000X-0.245000X-0.245000X0.245000X-0.245000X0*%
%ADD13RoundRect,0.200000X-0.275000X0.200000X-0.275000X-0.200000X0.275000X-0.200000X0.275000X0.200000X0*%
%ADD14RoundRect,0.200000X0.200000X0.275000X-0.200000X0.275000X-0.200000X-0.275000X0.200000X-0.275000X0*%
%ADD15RoundRect,0.105000X0.245000X-0.245000X0.245000X0.245000X-0.245000X0.245000X-0.245000X-0.245000X0*%
%ADD16RoundRect,0.150000X0.150000X-0.512500X0.150000X0.512500X-0.150000X0.512500X-0.150000X-0.512500X0*%
%ADD17R,1.800000X1.100000*%
%ADD18RoundRect,0.225000X-0.250000X0.225000X-0.250000X-0.225000X0.250000X-0.225000X0.250000X0.225000X0*%
%ADD19RoundRect,0.225000X0.335876X0.017678X0.017678X0.335876X-0.335876X-0.017678X-0.017678X-0.335876X0*%
%ADD20RoundRect,0.225000X0.225000X0.375000X-0.225000X0.375000X-0.225000X-0.375000X0.225000X-0.375000X0*%
%ADD21RoundRect,0.225000X-0.225000X-0.250000X0.225000X-0.250000X0.225000X0.250000X-0.225000X0.250000X0*%
%ADD22RoundRect,0.070000X0.521491X-0.422496X-0.422496X0.521491X-0.521491X0.422496X0.422496X-0.521491X0*%
%ADD23RoundRect,0.070000X0.521491X0.422496X0.422496X0.521491X-0.521491X-0.422496X-0.422496X-0.521491X0*%
%ADD24RoundRect,0.150000X0.150000X-0.587500X0.150000X0.587500X-0.150000X0.587500X-0.150000X-0.587500X0*%
%ADD25RoundRect,0.150000X-0.512500X-0.150000X0.512500X-0.150000X0.512500X0.150000X-0.512500X0.150000X0*%
%ADD26RoundRect,0.225000X0.225000X0.250000X-0.225000X0.250000X-0.225000X-0.250000X0.225000X-0.250000X0*%
%ADD27RoundRect,0.200000X0.275000X-0.200000X0.275000X0.200000X-0.275000X0.200000X-0.275000X-0.200000X0*%
%ADD28RoundRect,0.225000X0.017678X-0.335876X0.335876X-0.017678X-0.017678X0.335876X-0.335876X0.017678X0*%
%ADD29RoundRect,0.225000X0.250000X-0.225000X0.250000X0.225000X-0.250000X0.225000X-0.250000X-0.225000X0*%
%ADD30RoundRect,0.250000X-0.375000X-0.625000X0.375000X-0.625000X0.375000X0.625000X-0.375000X0.625000X0*%
G04 APERTURE END LIST*
D10*
%TO.C,LED2*%
X28660000Y-68935000D03*
X29760000Y-68935000D03*
X29760000Y-70765000D03*
X28660000Y-70765000D03*
%TD*%
D11*
%TO.C,D29*%
X119856250Y-80775000D03*
X119856250Y-77975000D03*
%TD*%
%TO.C,D36*%
X267493750Y-80775000D03*
X267493750Y-77975000D03*
%TD*%
%TO.C,D13*%
X46037500Y-61725000D03*
X46037500Y-58925000D03*
%TD*%
D12*
%TO.C,LED10*%
X150933750Y-34375000D03*
X150933750Y-35475000D03*
X149103750Y-35475000D03*
X149103750Y-34375000D03*
%TD*%
D11*
%TO.C,D41*%
X131762500Y-99825000D03*
X131762500Y-97025000D03*
%TD*%
%TO.C,D20*%
X186531250Y-61725000D03*
X186531250Y-58925000D03*
%TD*%
%TO.C,D26*%
X62706250Y-80775000D03*
X62706250Y-77975000D03*
%TD*%
D13*
%TO.C,R1*%
X244475000Y-37337500D03*
X244475000Y-35687500D03*
%TD*%
D11*
%TO.C,D22*%
X224631250Y-61725000D03*
X224631250Y-58925000D03*
%TD*%
D12*
%TO.C,LED7*%
X93783750Y-33581250D03*
X93783750Y-34681250D03*
X91953750Y-34681250D03*
X91953750Y-33581250D03*
%TD*%
D11*
%TO.C,D32*%
X177006250Y-80775000D03*
X177006250Y-77975000D03*
%TD*%
D14*
%TO.C,R2*%
X225393750Y-33537500D03*
X227043750Y-33537500D03*
%TD*%
D12*
%TO.C,LED9*%
X131883750Y-33581250D03*
X131883750Y-34681250D03*
X130053750Y-34681250D03*
X130053750Y-33581250D03*
%TD*%
%TO.C,LED12*%
X189033750Y-33581250D03*
X189033750Y-34681250D03*
X187203750Y-34681250D03*
X187203750Y-33581250D03*
%TD*%
D11*
%TO.C,D15*%
X91281250Y-61725000D03*
X91281250Y-58925000D03*
%TD*%
%TO.C,D40*%
X96043750Y-99825000D03*
X96043750Y-97025000D03*
%TD*%
D12*
%TO.C,LED13*%
X207290000Y-33581250D03*
X207290000Y-34681250D03*
X205460000Y-34681250D03*
X205460000Y-33581250D03*
%TD*%
D11*
%TO.C,D31*%
X157956250Y-80775000D03*
X157956250Y-77975000D03*
%TD*%
%TO.C,D21*%
X205581250Y-61725000D03*
X205581250Y-58925000D03*
%TD*%
%TO.C,D4*%
X105568750Y-42675000D03*
X105568750Y-39875000D03*
%TD*%
%TO.C,D9*%
X200818750Y-42675000D03*
X200818750Y-39875000D03*
%TD*%
%TO.C,D34*%
X215106250Y-80775000D03*
X215106250Y-77975000D03*
%TD*%
%TO.C,D24*%
X265112500Y-61912500D03*
X265112500Y-59112500D03*
%TD*%
%TO.C,D27*%
X81756250Y-80775000D03*
X81756250Y-77975000D03*
%TD*%
D15*
%TO.C,LED17*%
X271060000Y-70765000D03*
X269960000Y-70765000D03*
X269960000Y-68935000D03*
X271060000Y-68935000D03*
%TD*%
D11*
%TO.C,D16*%
X110331250Y-61725000D03*
X110331250Y-58925000D03*
%TD*%
D12*
%TO.C,LED6*%
X74733750Y-33581250D03*
X74733750Y-34681250D03*
X72903750Y-34681250D03*
X72903750Y-33581250D03*
%TD*%
D11*
%TO.C,D3*%
X86518750Y-42487500D03*
X86518750Y-39687500D03*
%TD*%
D16*
%TO.C,U4*%
X53361566Y-59637816D03*
X52411566Y-59637816D03*
X51461566Y-59637816D03*
X51461566Y-57362816D03*
X53361566Y-57362816D03*
%TD*%
D11*
%TO.C,D42*%
X153193750Y-99825000D03*
X153193750Y-97025000D03*
%TD*%
%TO.C,D28*%
X100806250Y-80775000D03*
X100806250Y-77975000D03*
%TD*%
D17*
%TO.C,SW1*%
X53899999Y-65618749D03*
X47699999Y-65618749D03*
X53899999Y-69318749D03*
X47699999Y-69318749D03*
%TD*%
D11*
%TO.C,D10*%
X219868750Y-42675000D03*
X219868750Y-39875000D03*
%TD*%
D12*
%TO.C,LED5*%
X53302500Y-33581250D03*
X53302500Y-34681250D03*
X51472500Y-34681250D03*
X51472500Y-33581250D03*
%TD*%
D18*
%TO.C,C7*%
X70105094Y-77012500D03*
X70105094Y-78562500D03*
%TD*%
D19*
%TO.C,C4*%
X63254258Y-67223008D03*
X62158242Y-66126992D03*
%TD*%
D20*
%TO.C,D_PWR1*%
X227868750Y-42862500D03*
X224568750Y-42862500D03*
%TD*%
D11*
%TO.C,D38*%
X47625000Y-99825000D03*
X47625000Y-97025000D03*
%TD*%
D10*
%TO.C,LED3*%
X28660000Y-49885000D03*
X29760000Y-49885000D03*
X29760000Y-51715000D03*
X28660000Y-51715000D03*
%TD*%
D11*
%TO.C,D44*%
X215106250Y-99825000D03*
X215106250Y-97025000D03*
%TD*%
%TO.C,D2*%
X67468750Y-42487500D03*
X67468750Y-39687500D03*
%TD*%
D21*
%TO.C,C8*%
X77012500Y-70643750D03*
X78562500Y-70643750D03*
%TD*%
D11*
%TO.C,D23*%
X243681250Y-61725000D03*
X243681250Y-58925000D03*
%TD*%
%TO.C,D1*%
X43656250Y-42487500D03*
X43656250Y-39687500D03*
%TD*%
%TO.C,D39*%
X76993750Y-99825000D03*
X76993750Y-97025000D03*
%TD*%
%TO.C,D30*%
X138906250Y-80775000D03*
X138906250Y-77975000D03*
%TD*%
D12*
%TO.C,LED14*%
X248565000Y-33581250D03*
X248565000Y-34681250D03*
X246735000Y-34681250D03*
X246735000Y-33581250D03*
%TD*%
D15*
%TO.C,LED18*%
X271060000Y-89815000D03*
X269960000Y-89815000D03*
X269960000Y-87985000D03*
X271060000Y-87985000D03*
%TD*%
D22*
%TO.C,U2*%
X74737876Y-70848788D03*
X74384322Y-71202342D03*
X74030769Y-71555895D03*
X73677215Y-71909449D03*
X73323662Y-72263002D03*
X72970109Y-72616555D03*
X72616555Y-72970109D03*
X72263002Y-73323662D03*
X71909449Y-73677215D03*
X71555895Y-74030769D03*
X71202342Y-74384322D03*
X70848788Y-74737876D03*
D23*
X68851212Y-74737876D03*
X68497658Y-74384322D03*
X68144105Y-74030769D03*
X67790551Y-73677215D03*
X67436998Y-73323662D03*
X67083445Y-72970109D03*
X66729891Y-72616555D03*
X66376338Y-72263002D03*
X66022785Y-71909449D03*
X65669231Y-71555895D03*
X65315678Y-71202342D03*
X64962124Y-70848788D03*
D22*
X64962124Y-68851212D03*
X65315678Y-68497658D03*
X65669231Y-68144105D03*
X66022785Y-67790551D03*
X66376338Y-67436998D03*
X66729891Y-67083445D03*
X67083445Y-66729891D03*
X67436998Y-66376338D03*
X67790551Y-66022785D03*
X68144105Y-65669231D03*
X68497658Y-65315678D03*
X68851212Y-64962124D03*
D23*
X70848788Y-64962124D03*
X71202342Y-65315678D03*
X71555895Y-65669231D03*
X71909449Y-66022785D03*
X72263002Y-66376338D03*
X72616555Y-66729891D03*
X72970109Y-67083445D03*
X73323662Y-67436998D03*
X73677215Y-67790551D03*
X74030769Y-68144105D03*
X74384322Y-68497658D03*
X74737876Y-68851212D03*
%TD*%
D15*
%TO.C,LED16*%
X271060000Y-51715000D03*
X269960000Y-51715000D03*
X269960000Y-49885000D03*
X271060000Y-49885000D03*
%TD*%
D11*
%TO.C,D8*%
X181768750Y-42675000D03*
X181768750Y-39875000D03*
%TD*%
D24*
%TO.C,U3*%
X60440000Y-59357500D03*
X58540000Y-59357500D03*
X59490000Y-57482500D03*
%TD*%
D11*
%TO.C,D11*%
X238918750Y-42675000D03*
X238918750Y-39875000D03*
%TD*%
%TO.C,D25*%
X50800000Y-80775000D03*
X50800000Y-77975000D03*
%TD*%
D12*
%TO.C,LED15*%
X269996250Y-34375000D03*
X269996250Y-35475000D03*
X268166250Y-35475000D03*
X268166250Y-34375000D03*
%TD*%
%TO.C,LED4*%
X31871250Y-34375000D03*
X31871250Y-35475000D03*
X30041250Y-35475000D03*
X30041250Y-34375000D03*
%TD*%
D11*
%TO.C,D35*%
X227806250Y-81568750D03*
X227806250Y-78768750D03*
%TD*%
%TO.C,D12*%
X262731250Y-42675000D03*
X262731250Y-39875000D03*
%TD*%
%TO.C,D6*%
X143668750Y-42675000D03*
X143668750Y-39875000D03*
%TD*%
D25*
%TO.C,U1*%
X221118613Y-50692270D03*
X221118613Y-49742270D03*
X221118613Y-48792270D03*
X223393613Y-48792270D03*
X223393613Y-49742270D03*
X223393613Y-50692270D03*
%TD*%
D11*
%TO.C,D17*%
X129381250Y-61725000D03*
X129381250Y-58925000D03*
%TD*%
%TO.C,D7*%
X162718750Y-42675000D03*
X162718750Y-39875000D03*
%TD*%
D12*
%TO.C,LED8*%
X112833750Y-33581250D03*
X112833750Y-34681250D03*
X111003750Y-34681250D03*
X111003750Y-33581250D03*
%TD*%
D26*
%TO.C,C2*%
X60265808Y-61249873D03*
X58715808Y-61249873D03*
%TD*%
D11*
%TO.C,D5*%
X124618750Y-42675000D03*
X124618750Y-39875000D03*
%TD*%
%TO.C,D18*%
X148431250Y-61725000D03*
X148431250Y-58925000D03*
%TD*%
D27*
%TO.C,R3*%
X56356250Y-69087500D03*
X56356250Y-67437500D03*
%TD*%
D11*
%TO.C,D45*%
X219075000Y-99825000D03*
X219075000Y-97025000D03*
%TD*%
D28*
%TO.C,C5*%
X66494471Y-64398395D03*
X67590487Y-63302379D03*
%TD*%
D11*
%TO.C,D14*%
X72231250Y-61725000D03*
X72231250Y-58925000D03*
%TD*%
D29*
%TO.C,C10*%
X55024896Y-58799878D03*
X55024896Y-57249878D03*
%TD*%
D30*
%TO.C,F1*%
X224818750Y-40481250D03*
X227618750Y-40481250D03*
%TD*%
D11*
%TO.C,D47*%
X267493750Y-99825000D03*
X267493750Y-97025000D03*
%TD*%
D12*
%TO.C,LED11*%
X170777500Y-33581250D03*
X170777500Y-34681250D03*
X168947500Y-34681250D03*
X168947500Y-33581250D03*
%TD*%
D10*
%TO.C,LED1*%
X28660000Y-87985000D03*
X29760000Y-87985000D03*
X29760000Y-89815000D03*
X28660000Y-89815000D03*
%TD*%
D18*
%TO.C,C9*%
X71737281Y-77025116D03*
X71737281Y-78575116D03*
%TD*%
D11*
%TO.C,D46*%
X248443750Y-99825000D03*
X248443750Y-97025000D03*
%TD*%
%TO.C,D33*%
X196056250Y-80775000D03*
X196056250Y-77975000D03*
%TD*%
%TO.C,D43*%
X179387500Y-99825000D03*
X179387500Y-97025000D03*
%TD*%
%TO.C,D19*%
X167481250Y-61725000D03*
X167481250Y-58925000D03*
%TD*%
%TO.C,D37*%
X43656250Y-99825000D03*
X43656250Y-97025000D03*
%TD*%
D26*
%TO.C,C1*%
X60265000Y-55457500D03*
X58715000Y-55457500D03*
%TD*%
D21*
%TO.C,C6*%
X77012500Y-68281250D03*
X78562500Y-68281250D03*
%TD*%
D28*
%TO.C,C3*%
X65336300Y-63265551D03*
X66432316Y-62169535D03*
%TD*%
M02*
