%TF.GenerationSoftware,KiCad,Pcbnew,(7.0.0)*%
%TF.CreationDate,2024-04-22T22:07:44+02:00*%
%TF.ProjectId,forti,666f7274-692e-46b6-9963-61645f706362,rev?*%
%TF.SameCoordinates,Original*%
%TF.FileFunction,Profile,NP*%
%FSLAX46Y46*%
G04 Gerber Fmt 4.6, Leading zero omitted, Abs format (unit mm)*
G04 Created by KiCad (PCBNEW (7.0.0)) date 2024-04-22 22:07:45*
%MOMM*%
%LPD*%
G01*
G04 APERTURE LIST*
%TA.AperFunction,Profile*%
%ADD10C,0.200000*%
%TD*%
G04 APERTURE END LIST*
D10*
X271843750Y-33232775D02*
X264425712Y-33232775D01*
X156193485Y-107950000D02*
X261319015Y-107950000D01*
X228262500Y-31750000D02*
G75*
G03*
X229262500Y-30750000I0J1000000D01*
G01*
X261319015Y-107950011D02*
G75*
G03*
X262871884Y-107210394I-15J2000011D01*
G01*
X27193750Y-34232775D02*
X27193750Y-105470790D01*
X145396397Y-32491388D02*
G75*
G03*
X146950712Y-33232775I1554303J1258588D01*
G01*
X28193750Y-33232850D02*
G75*
G03*
X27193750Y-34232775I-50J-999950D01*
G01*
X262871397Y-32491388D02*
G75*
G03*
X264425712Y-33232775I1554303J1258588D01*
G01*
X146949754Y-106470759D02*
G75*
G03*
X145396885Y-107210395I46J-2000041D01*
G01*
X228262500Y-31750000D02*
X156195417Y-31750000D01*
X264424754Y-106470759D02*
G75*
G03*
X262871885Y-107210395I46J-2000041D01*
G01*
X229762500Y-24125000D02*
G75*
G03*
X229262500Y-24625000I0J-500000D01*
G01*
X38720417Y-31750015D02*
G75*
G03*
X37166104Y-32491389I-17J-1999985D01*
G01*
X37165591Y-107210415D02*
G75*
G03*
X35612746Y-106470790I-1552891J-1260385D01*
G01*
X146949754Y-106470791D02*
X153087746Y-106470791D01*
X239262500Y-30750000D02*
X239262500Y-24625000D01*
X153086788Y-33232775D02*
G75*
G03*
X154641103Y-32491388I12J1999975D01*
G01*
X156195417Y-31750015D02*
G75*
G03*
X154641104Y-32491389I-17J-1999985D01*
G01*
X143844015Y-107950011D02*
G75*
G03*
X145396884Y-107210394I-15J2000011D01*
G01*
X238762500Y-24125000D02*
X229762500Y-24125000D01*
X239262500Y-24625000D02*
G75*
G03*
X238762500Y-24125000I-500000J0D01*
G01*
X271843750Y-106470750D02*
G75*
G03*
X272843750Y-105470790I50J999950D01*
G01*
X154640590Y-107210415D02*
G75*
G03*
X153087746Y-106470791I-1552890J-1260385D01*
G01*
X145396408Y-32491379D02*
G75*
G03*
X143842083Y-31750000I-1554308J-1258621D01*
G01*
X261317083Y-31750000D02*
X240262500Y-31750000D01*
X37165624Y-107210388D02*
G75*
G03*
X38718485Y-107950000I1552876J1260388D01*
G01*
X272843825Y-34232775D02*
G75*
G03*
X271843750Y-33232775I-1000025J-25D01*
G01*
X264424754Y-106470790D02*
X271843750Y-106470790D01*
X27193710Y-105470790D02*
G75*
G03*
X28193750Y-106470790I999990J-10D01*
G01*
X28193750Y-106470790D02*
X35612746Y-106470790D01*
X272843750Y-105470790D02*
X272843750Y-34232775D01*
X35611788Y-33232775D02*
X28193750Y-33232775D01*
X143842083Y-31750000D02*
X38720417Y-31750000D01*
X35611788Y-33232775D02*
G75*
G03*
X37166103Y-32491388I12J1999975D01*
G01*
X154640624Y-107210388D02*
G75*
G03*
X156193485Y-107950000I1552876J1260388D01*
G01*
X153086788Y-33232775D02*
X146950712Y-33232775D01*
X262871408Y-32491379D02*
G75*
G03*
X261317083Y-31750000I-1554308J-1258621D01*
G01*
X38718485Y-107950000D02*
X143844015Y-107950000D01*
X239262500Y-30750000D02*
G75*
G03*
X240262500Y-31750000I1000000J0D01*
G01*
X229262500Y-24625000D02*
X229262500Y-30750000D01*
M02*
