M48
; DRILL file {KiCad (7.0.0)} date Mon Apr 22 22:07:45 2024
; FORMAT={-:-/ absolute / inch / decimal}
; #@! TF.CreationDate,2024-04-22T22:07:45+02:00
; #@! TF.GenerationSoftware,Kicad,Pcbnew,(7.0.0)
; #@! TF.FileFunction,NonPlated,1,2,NPTH
FMAT,2
INCH
; #@! TA.AperFunction,NonPlated,NPTH,ComponentDrill
T1C0.0256
; #@! TA.AperFunction,NonPlated,NPTH,ComponentDrill
T2C0.0689
; #@! TA.AperFunction,NonPlated,NPTH,ComponentDrill
T3C0.1200
; #@! TA.AperFunction,NonPlated,NPTH,ComponentDrill
T4C0.1570
%
G90
G05
T1
X9.1094Y-1.1336
X9.337Y-1.1336
T2
X1.2063Y-3.875
X1.3Y-2.375
X1.3Y-3.125
X1.3938Y-1.625
X1.3938Y-3.875
X1.4875Y-2.375
X1.6062Y-3.875
X1.675Y-3.125
X1.7Y-2.375
X1.7Y-3.125
X1.7937Y-1.625
X1.7937Y-3.875
X1.8875Y-2.375
X1.9563Y-3.875
X2.075Y-3.125
X2.1437Y-3.125
X2.3312Y-1.625
X2.3312Y-3.875
X2.3562Y-3.875
X2.5187Y-2.375
X2.5187Y-3.875
X2.5437Y-3.125
X2.7062Y-3.875
X2.7312Y-1.625
X2.7312Y-3.875
X2.8937Y-3.125
X2.9187Y-2.375
X2.9187Y-3.875
X3.0812Y-1.625
X3.1062Y-3.875
X3.2687Y-2.375
X3.2687Y-3.875
X3.2937Y-3.125
X3.4562Y-3.875
X3.4812Y-1.625
X3.6437Y-3.125
X3.6687Y-2.375
X3.6687Y-3.875
X3.8312Y-1.625
X3.8562Y-3.875
X4.0187Y-2.375
X4.0438Y-3.125
X4.2313Y-1.625
X4.3937Y-3.125
X4.4188Y-2.375
X4.5812Y-1.625
X4.675Y-3.875
X4.7687Y-2.375
X4.7938Y-3.125
X4.8625Y-3.875
X4.9813Y-1.625
X5.075Y-3.875
X5.1437Y-3.125
X5.1688Y-2.375
X5.2625Y-3.875
X5.3312Y-1.625
X5.5187Y-2.375
X5.5438Y-3.125
X5.7062Y-3.875
X5.7313Y-1.625
X5.8937Y-3.125
X5.9188Y-2.375
X6.0812Y-1.625
X6.1063Y-3.875
X6.2687Y-2.375
X6.2938Y-3.125
X6.4813Y-1.625
X6.55Y-3.875
X6.6437Y-3.125
X6.6688Y-2.375
X6.7375Y-3.875
X6.8312Y-1.625
X6.95Y-3.875
X7.0187Y-2.375
X7.0438Y-3.125
X7.1375Y-3.875
X7.2313Y-1.625
X7.3937Y-3.125
X7.4188Y-2.375
X7.5812Y-1.625
X7.7687Y-2.375
X7.7938Y-3.125
X7.9562Y-3.875
X7.9813Y-1.625
X8.1437Y-3.125
X8.1437Y-3.875
X8.1687Y-2.375
X8.3312Y-1.625
X8.3562Y-3.875
X8.5187Y-2.375
X8.5437Y-3.125
X8.5437Y-3.875
X8.7062Y-3.875
X8.7312Y-1.625
X8.8937Y-3.125
X8.8937Y-3.875
X8.9187Y-2.375
X9.0812Y-1.625
X9.0812Y-3.875
X9.1062Y-3.875
X9.175Y-3.125
X9.2687Y-2.375
X9.2937Y-3.125
X9.2937Y-3.875
X9.4562Y-3.875
X9.4812Y-1.625
X9.4812Y-3.875
X9.55Y-3.125
X9.575Y-3.125
X9.6687Y-2.375
X9.7375Y-2.375
X9.8562Y-3.875
X9.925Y-3.125
X9.95Y-3.125
X10.0187Y-1.625
X10.0187Y-3.875
X10.1125Y-2.0
X10.1125Y-2.375
X10.1375Y-2.375
X10.2062Y-3.125
X10.2062Y-3.875
X10.325Y-3.125
X10.4187Y-1.625
X10.4187Y-3.875
X10.5125Y-2.0
X10.5125Y-2.375
X10.6062Y-3.125
X10.6062Y-3.875
T3
X10.5875Y-1.5312
X10.5875Y-2.4688
T4
X1.4062Y-3.45
X1.4062Y-3.875
X1.5Y-2.375
X1.5Y-3.125
X1.5938Y-1.625
X1.5938Y-3.875
X1.6875Y-2.375
X1.875Y-3.125
X2.1562Y-3.875
X2.3438Y-3.125
X2.3438Y-3.45
X2.5312Y-1.625
X2.5312Y-3.875
X2.7188Y-2.375
X2.7188Y-3.875
X2.9062Y-3.875
X3.0938Y-3.125
X3.2812Y-1.625
X3.4688Y-2.375
X3.4688Y-3.875
X3.6562Y-3.55
X3.6562Y-3.875
X3.8438Y-3.125
X4.0312Y-1.625
X4.2188Y-2.375
X4.4062Y-3.55
X4.5938Y-3.125
X4.5938Y-3.55
X4.7812Y-1.625
X4.875Y-3.875
X4.9688Y-2.375
X5.0625Y-3.875
X5.3438Y-3.125
X5.3438Y-3.55
X5.5312Y-1.625
X5.5312Y-3.55
X5.7188Y-2.375
X5.9062Y-3.875
X6.0938Y-3.125
X6.2812Y-1.625
X6.2812Y-3.55
X6.4688Y-2.375
X6.4688Y-3.55
X6.75Y-3.875
X6.8438Y-3.125
X6.9375Y-3.875
X7.0312Y-1.625
X7.2188Y-2.375
X7.2188Y-3.55
X7.4062Y-3.55
X7.5938Y-3.125
X7.7812Y-1.625
X7.9688Y-2.375
X8.1562Y-3.55
X8.1562Y-3.875
X8.3438Y-3.125
X8.3438Y-3.875
X8.5312Y-1.625
X8.7188Y-2.375
X8.9062Y-3.875
X9.0938Y-3.125
X9.0938Y-3.875
X9.2812Y-1.625
X9.2812Y-3.45
X9.2812Y-3.875
X9.375Y-3.125
X9.4688Y-2.05
X9.4688Y-2.375
X9.6562Y-3.875
X9.75Y-3.125
X9.9375Y-2.375
X9.9875Y-1.5312
X9.9875Y-2.4688
X10.125Y-3.125
X10.2188Y-1.625
X10.2188Y-3.45
X10.2188Y-3.875
X10.3125Y-2.0
X10.3125Y-2.375
X10.4062Y-2.05
X10.4062Y-3.125
X10.4062Y-3.875
T0
M30
