%TF.GenerationSoftware,KiCad,Pcbnew,8.0.8*%
%TF.CreationDate,2025-02-23T20:38:21+01:00*%
%TF.ProjectId,forti rev 3,666f7274-6920-4726-9576-20332e6b6963,rev?*%
%TF.SameCoordinates,Original*%
%TF.FileFunction,Soldermask,Bot*%
%TF.FilePolarity,Negative*%
%FSLAX46Y46*%
G04 Gerber Fmt 4.6, Leading zero omitted, Abs format (unit mm)*
G04 Created by KiCad (PCBNEW 8.0.8) date 2025-02-23 20:38:21*
%MOMM*%
%LPD*%
G01*
G04 APERTURE LIST*
G04 Aperture macros list*
%AMRoundRect*
0 Rectangle with rounded corners*
0 $1 Rounding radius*
0 $2 $3 $4 $5 $6 $7 $8 $9 X,Y pos of 4 corners*
0 Add a 4 corners polygon primitive as box body*
4,1,4,$2,$3,$4,$5,$6,$7,$8,$9,$2,$3,0*
0 Add four circle primitives for the rounded corners*
1,1,$1+$1,$2,$3*
1,1,$1+$1,$4,$5*
1,1,$1+$1,$6,$7*
1,1,$1+$1,$8,$9*
0 Add four rect primitives between the rounded corners*
20,1,$1+$1,$2,$3,$4,$5,0*
20,1,$1+$1,$4,$5,$6,$7,0*
20,1,$1+$1,$6,$7,$8,$9,0*
20,1,$1+$1,$8,$9,$2,$3,0*%
G04 Aperture macros list end*
%ADD10C,3.987800*%
%ADD11C,3.048000*%
%ADD12C,0.650000*%
%ADD13O,1.000000X2.100000*%
%ADD14O,1.000000X1.600000*%
%ADD15C,1.750000*%
%ADD16C,2.300000*%
%ADD17RoundRect,0.250000X0.300000X-0.300000X0.300000X0.300000X-0.300000X0.300000X-0.300000X-0.300000X0*%
%ADD18RoundRect,0.200000X-0.200000X-0.275000X0.200000X-0.275000X0.200000X0.275000X-0.200000X0.275000X0*%
%ADD19RoundRect,0.200000X0.200000X0.275000X-0.200000X0.275000X-0.200000X-0.275000X0.200000X-0.275000X0*%
%ADD20R,1.800000X1.100000*%
%ADD21RoundRect,0.225000X-0.250000X0.225000X-0.250000X-0.225000X0.250000X-0.225000X0.250000X0.225000X0*%
%ADD22RoundRect,0.225000X0.335876X0.017678X0.017678X0.335876X-0.335876X-0.017678X-0.017678X-0.335876X0*%
%ADD23RoundRect,0.225000X0.375000X-0.225000X0.375000X0.225000X-0.375000X0.225000X-0.375000X-0.225000X0*%
%ADD24RoundRect,0.225000X-0.225000X-0.250000X0.225000X-0.250000X0.225000X0.250000X-0.225000X0.250000X0*%
%ADD25RoundRect,0.070000X0.521491X-0.422496X-0.422496X0.521491X-0.521491X0.422496X0.422496X-0.521491X0*%
%ADD26RoundRect,0.070000X0.521491X0.422496X0.422496X0.521491X-0.521491X-0.422496X-0.422496X-0.521491X0*%
%ADD27RoundRect,0.150000X0.150000X-0.587500X0.150000X0.587500X-0.150000X0.587500X-0.150000X-0.587500X0*%
%ADD28RoundRect,0.150000X-0.512500X-0.150000X0.512500X-0.150000X0.512500X0.150000X-0.512500X0.150000X0*%
%ADD29RoundRect,0.225000X0.225000X0.250000X-0.225000X0.250000X-0.225000X-0.250000X0.225000X-0.250000X0*%
%ADD30RoundRect,0.200000X0.275000X-0.200000X0.275000X0.200000X-0.275000X0.200000X-0.275000X-0.200000X0*%
%ADD31RoundRect,0.225000X0.017678X-0.335876X0.335876X-0.017678X-0.017678X0.335876X-0.335876X0.017678X0*%
%ADD32RoundRect,0.250000X-0.625000X0.375000X-0.625000X-0.375000X0.625000X-0.375000X0.625000X0.375000X0*%
G04 APERTURE END LIST*
D10*
%TO.C,ISO1*%
X253682500Y-38893750D03*
X253682500Y-62706250D03*
D11*
X268922500Y-38893750D03*
X268922500Y-62706250D03*
%TD*%
D12*
%TO.C,J1*%
X237159115Y-30137500D03*
X231379115Y-30137500D03*
D13*
X238589115Y-30667500D03*
D14*
X238589115Y-26487500D03*
D13*
X229949115Y-30667500D03*
D14*
X229949115Y-26487500D03*
%TD*%
D15*
%TO.C,MX51*%
X225901250Y-98425000D03*
D10*
X230981250Y-98425000D03*
D15*
X236061250Y-98425000D03*
D16*
X227171250Y-95885000D03*
X233521250Y-93345000D03*
%TD*%
D15*
%TO.C,MX23*%
X235426250Y-60325000D03*
D10*
X240506250Y-60325000D03*
D15*
X245586250Y-60325000D03*
D16*
X236696250Y-57785000D03*
X243046250Y-55245000D03*
%TD*%
D15*
%TO.C,MX55*%
X254476250Y-98425000D03*
D10*
X259556250Y-98425000D03*
D15*
X264636250Y-98425000D03*
D16*
X255746250Y-95885000D03*
X262096250Y-93345000D03*
%TD*%
D15*
%TO.C,MX43*%
X68738750Y-98425000D03*
D10*
X73818750Y-98425000D03*
D15*
X78898750Y-98425000D03*
D16*
X70008750Y-95885000D03*
X76358750Y-93345000D03*
%TD*%
D15*
%TO.C,MXshift2.1*%
X42545000Y-79375000D03*
D10*
X47625000Y-79375000D03*
D15*
X52705000Y-79375000D03*
D16*
X43815000Y-76835000D03*
X50165000Y-74295000D03*
%TD*%
D15*
%TO.C,MX27*%
X73501250Y-79375000D03*
D10*
X78581250Y-79375000D03*
D15*
X83661250Y-79375000D03*
D16*
X74771250Y-76835000D03*
X81121250Y-74295000D03*
%TD*%
D15*
%TO.C,MX11*%
X230663750Y-41275000D03*
D10*
X235743750Y-41275000D03*
D15*
X240823750Y-41275000D03*
D16*
X231933750Y-38735000D03*
X238283750Y-36195000D03*
%TD*%
D15*
%TO.C,MX46*%
X83026250Y-98425000D03*
D10*
X88106250Y-98425000D03*
D15*
X93186250Y-98425000D03*
D16*
X84296250Y-95885000D03*
X90646250Y-93345000D03*
%TD*%
D15*
%TO.C,MXenter2.1*%
X247332500Y-60325000D03*
D10*
X252412500Y-60325000D03*
D15*
X257492500Y-60325000D03*
D16*
X248602500Y-57785000D03*
X254952500Y-55245000D03*
%TD*%
D11*
%TO.C,S2*%
X207168750Y-105410000D03*
D10*
X207168750Y-90170000D03*
D11*
X92868750Y-105410000D03*
D10*
X92868750Y-90170000D03*
%TD*%
D15*
%TO.C,MX49*%
X206851250Y-98425000D03*
D10*
X211931250Y-98425000D03*
D15*
X217011250Y-98425000D03*
D16*
X208121250Y-95885000D03*
X214471250Y-93345000D03*
%TD*%
D15*
%TO.C,MX31*%
X149701250Y-79375000D03*
D10*
X154781250Y-79375000D03*
D15*
X159861250Y-79375000D03*
D16*
X150971250Y-76835000D03*
X157321250Y-74295000D03*
%TD*%
D15*
%TO.C,MX16*%
X102076250Y-60325000D03*
D10*
X107156250Y-60325000D03*
D15*
X112236250Y-60325000D03*
D16*
X103346250Y-57785000D03*
X109696250Y-55245000D03*
%TD*%
D15*
%TO.C,MX38*%
X259238750Y-79375000D03*
D10*
X264318750Y-79375000D03*
D15*
X269398750Y-79375000D03*
D16*
X260508750Y-76835000D03*
X266858750Y-74295000D03*
%TD*%
D15*
%TO.C,MX35*%
X225901250Y-79375000D03*
D10*
X230981250Y-79375000D03*
D15*
X236061250Y-79375000D03*
D16*
X227171250Y-76835000D03*
X233521250Y-74295000D03*
%TD*%
D15*
%TO.C,MXsplit2.75(1)1*%
X166370000Y-98425000D03*
D10*
X171450000Y-98425000D03*
D15*
X176530000Y-98425000D03*
D16*
X167640000Y-95885000D03*
X173990000Y-93345000D03*
%TD*%
D11*
%TO.C,shift2.2*%
X35718750Y-72390000D03*
D10*
X35718750Y-87630000D03*
D11*
X59531250Y-72390000D03*
D10*
X59531250Y-87630000D03*
%TD*%
D15*
%TO.C,MX8*%
X173513750Y-41275000D03*
D10*
X178593750Y-41275000D03*
D15*
X183673750Y-41275000D03*
D16*
X174783750Y-38735000D03*
X181133750Y-36195000D03*
%TD*%
D15*
%TO.C,MX13*%
X37782500Y-60325000D03*
D10*
X42862500Y-60325000D03*
D15*
X47942500Y-60325000D03*
D16*
X39052500Y-57785000D03*
X45402500Y-55245000D03*
%TD*%
D15*
%TO.C,MX32*%
X168751250Y-79375000D03*
D10*
X173831250Y-79375000D03*
D15*
X178911250Y-79375000D03*
D16*
X170021250Y-76835000D03*
X176371250Y-74295000D03*
%TD*%
D15*
%TO.C,MXISO1*%
X256857500Y-50800000D03*
D10*
X261937500Y-50800000D03*
D15*
X267017500Y-50800000D03*
D16*
X258127500Y-48260000D03*
X264477500Y-45720000D03*
%TD*%
D15*
%TO.C,MX21*%
X197326250Y-60325000D03*
D10*
X202406250Y-60325000D03*
D15*
X207486250Y-60325000D03*
D16*
X198596250Y-57785000D03*
X204946250Y-55245000D03*
%TD*%
D15*
%TO.C,MXsplit2.1*%
X123507500Y-98425000D03*
D10*
X128587500Y-98425000D03*
D15*
X133667500Y-98425000D03*
D16*
X124777500Y-95885000D03*
X131127500Y-93345000D03*
%TD*%
D15*
%TO.C,MX4*%
X97313750Y-41275000D03*
D10*
X102393750Y-41275000D03*
D15*
X107473750Y-41275000D03*
D16*
X98583750Y-38735000D03*
X104933750Y-36195000D03*
%TD*%
D15*
%TO.C,MX45*%
X87788750Y-98425000D03*
D10*
X92868750Y-98425000D03*
D15*
X97948750Y-98425000D03*
D16*
X89058750Y-95885000D03*
X95408750Y-93345000D03*
%TD*%
D15*
%TO.C,MX30*%
X130651250Y-79375000D03*
D10*
X135731250Y-79375000D03*
D15*
X140811250Y-79375000D03*
D16*
X131921250Y-76835000D03*
X138271250Y-74295000D03*
%TD*%
D15*
%TO.C,MX1*%
X35401250Y-41275000D03*
D10*
X40481250Y-41275000D03*
D15*
X45561250Y-41275000D03*
D16*
X36671250Y-38735000D03*
X43021250Y-36195000D03*
%TD*%
D15*
%TO.C,MX34*%
X206851250Y-79375000D03*
D10*
X211931250Y-79375000D03*
D15*
X217011250Y-79375000D03*
D16*
X208121250Y-76835000D03*
X214471250Y-74295000D03*
%TD*%
D15*
%TO.C,MX25*%
X33020000Y-79375000D03*
D10*
X38100000Y-79375000D03*
D15*
X43180000Y-79375000D03*
D16*
X34290000Y-76835000D03*
X40640000Y-74295000D03*
%TD*%
D11*
%TO.C,enter2.1*%
X264318750Y-67310000D03*
D10*
X264318750Y-52070000D03*
D11*
X240506250Y-67310000D03*
D10*
X240506250Y-52070000D03*
%TD*%
D15*
%TO.C,MX29*%
X111601250Y-79375000D03*
D10*
X116681250Y-79375000D03*
D15*
X121761250Y-79375000D03*
D16*
X112871250Y-76835000D03*
X119221250Y-74295000D03*
%TD*%
D15*
%TO.C,MX53*%
X230663750Y-98425000D03*
D10*
X235743750Y-98425000D03*
D15*
X240823750Y-98425000D03*
D16*
X231933750Y-95885000D03*
X238283750Y-93345000D03*
%TD*%
D15*
%TO.C,MX22*%
X216376250Y-60325000D03*
D10*
X221456250Y-60325000D03*
D15*
X226536250Y-60325000D03*
D16*
X217646250Y-57785000D03*
X223996250Y-55245000D03*
%TD*%
D15*
%TO.C,MX17*%
X121126250Y-60325000D03*
D10*
X126206250Y-60325000D03*
D15*
X131286250Y-60325000D03*
D16*
X122396250Y-57785000D03*
X128746250Y-55245000D03*
%TD*%
D15*
%TO.C,MX47*%
X144938750Y-98425000D03*
D10*
X150018750Y-98425000D03*
D15*
X155098750Y-98425000D03*
D16*
X146208750Y-95885000D03*
X152558750Y-93345000D03*
%TD*%
D11*
%TO.C,S1*%
X135731250Y-105410000D03*
D10*
X135731250Y-90170000D03*
D11*
X111918750Y-105410000D03*
D10*
X111918750Y-90170000D03*
%TD*%
D15*
%TO.C,MX44*%
X63976250Y-98425000D03*
D10*
X69056250Y-98425000D03*
D15*
X74136250Y-98425000D03*
D16*
X65246250Y-95885000D03*
X71596250Y-93345000D03*
%TD*%
D15*
%TO.C,MX36*%
X233045000Y-79375000D03*
D10*
X238125000Y-79375000D03*
D15*
X243205000Y-79375000D03*
D16*
X234315000Y-76835000D03*
X240665000Y-74295000D03*
%TD*%
D15*
%TO.C,MX26*%
X54451250Y-79375000D03*
D10*
X59531250Y-79375000D03*
D15*
X64611250Y-79375000D03*
D16*
X55721250Y-76835000D03*
X62071250Y-74295000D03*
%TD*%
D15*
%TO.C,MX3*%
X78263750Y-41275000D03*
D10*
X83343750Y-41275000D03*
D15*
X88423750Y-41275000D03*
D16*
X79533750Y-38735000D03*
X85883750Y-36195000D03*
%TD*%
D11*
%TO.C,S4*%
X188118750Y-105410000D03*
D10*
X188118750Y-90170000D03*
D11*
X164306250Y-105410000D03*
D10*
X164306250Y-90170000D03*
%TD*%
D15*
%TO.C,MX37*%
X252095000Y-79375000D03*
D10*
X257175000Y-79375000D03*
D15*
X262255000Y-79375000D03*
D16*
X253365000Y-76835000D03*
X259715000Y-74295000D03*
%TD*%
D15*
%TO.C,MX24*%
X256857500Y-60325000D03*
D10*
X261937500Y-60325000D03*
D15*
X267017500Y-60325000D03*
D16*
X258127500Y-57785000D03*
X264477500Y-55245000D03*
%TD*%
D11*
%TO.C,S3*%
X183356250Y-105410000D03*
D10*
X183356250Y-90170000D03*
D11*
X159543750Y-105410000D03*
D10*
X159543750Y-90170000D03*
%TD*%
D15*
%TO.C,MX42*%
X59213750Y-98425000D03*
D10*
X64293750Y-98425000D03*
D15*
X69373750Y-98425000D03*
D16*
X60483750Y-95885000D03*
X66833750Y-93345000D03*
%TD*%
D15*
%TO.C,MX33*%
X187801250Y-79375000D03*
D10*
X192881250Y-79375000D03*
D15*
X197961250Y-79375000D03*
D16*
X189071250Y-76835000D03*
X195421250Y-74295000D03*
%TD*%
D15*
%TO.C,MX5*%
X116363750Y-41275000D03*
D10*
X121443750Y-41275000D03*
D15*
X126523750Y-41275000D03*
D16*
X117633750Y-38735000D03*
X123983750Y-36195000D03*
%TD*%
D15*
%TO.C,MX50*%
X221138750Y-98425000D03*
D10*
X226218750Y-98425000D03*
D15*
X231298750Y-98425000D03*
D16*
X222408750Y-95885000D03*
X228758750Y-93345000D03*
%TD*%
D11*
%TO.C,S5*%
X140493750Y-105410000D03*
D10*
X140493750Y-90170000D03*
D11*
X116681250Y-105410000D03*
D10*
X116681250Y-90170000D03*
%TD*%
D15*
%TO.C,MXsplit2.25(1)1*%
X118745000Y-98425000D03*
D10*
X123825000Y-98425000D03*
D15*
X128905000Y-98425000D03*
D16*
X120015000Y-95885000D03*
X126365000Y-93345000D03*
%TD*%
D15*
%TO.C,MX28*%
X92551250Y-79375000D03*
D10*
X97631250Y-79375000D03*
D15*
X102711250Y-79375000D03*
D16*
X93821250Y-76835000D03*
X100171250Y-74295000D03*
%TD*%
D15*
%TO.C,MX18*%
X140176250Y-60325000D03*
D10*
X145256250Y-60325000D03*
D15*
X150336250Y-60325000D03*
D16*
X141446250Y-57785000D03*
X147796250Y-55245000D03*
%TD*%
D15*
%TO.C,MXcaps1*%
X33020000Y-60325000D03*
D10*
X38100000Y-60325000D03*
D15*
X43180000Y-60325000D03*
D16*
X34290000Y-57785000D03*
X40640000Y-55245000D03*
%TD*%
D15*
%TO.C,MX40*%
X35401250Y-98425000D03*
D10*
X40481250Y-98425000D03*
D15*
X45561250Y-98425000D03*
D16*
X36671250Y-95885000D03*
X43021250Y-93345000D03*
%TD*%
D15*
%TO.C,MX15*%
X83026250Y-60325000D03*
D10*
X88106250Y-60325000D03*
D15*
X93186250Y-60325000D03*
D16*
X84296250Y-57785000D03*
X90646250Y-55245000D03*
%TD*%
D15*
%TO.C,MX54*%
X259238750Y-98425000D03*
D10*
X264318750Y-98425000D03*
D15*
X269398750Y-98425000D03*
D16*
X260508750Y-95885000D03*
X266858750Y-93345000D03*
%TD*%
D15*
%TO.C,MX39*%
X30638750Y-98425000D03*
D10*
X35718750Y-98425000D03*
D15*
X40798750Y-98425000D03*
D16*
X31908750Y-95885000D03*
X38258750Y-93345000D03*
%TD*%
D11*
%TO.C,shift2.1*%
X235743750Y-72390000D03*
D10*
X235743750Y-87630000D03*
D11*
X259556250Y-72390000D03*
D10*
X259556250Y-87630000D03*
%TD*%
D15*
%TO.C,MX10*%
X211613750Y-41275000D03*
D10*
X216693750Y-41275000D03*
D15*
X221773750Y-41275000D03*
D16*
X212883750Y-38735000D03*
X219233750Y-36195000D03*
%TD*%
D15*
%TO.C,MX9*%
X192563750Y-41275000D03*
D10*
X197643750Y-41275000D03*
D15*
X202723750Y-41275000D03*
D16*
X193833750Y-38735000D03*
X200183750Y-36195000D03*
%TD*%
D15*
%TO.C,MX52*%
X240188750Y-98425000D03*
D10*
X245268750Y-98425000D03*
D15*
X250348750Y-98425000D03*
D16*
X241458750Y-95885000D03*
X247808750Y-93345000D03*
%TD*%
D15*
%TO.C,MX20*%
X178276250Y-60325000D03*
D10*
X183356250Y-60325000D03*
D15*
X188436250Y-60325000D03*
D16*
X179546250Y-57785000D03*
X185896250Y-55245000D03*
%TD*%
D15*
%TO.C,MX6*%
X135413750Y-41275000D03*
D10*
X140493750Y-41275000D03*
D15*
X145573750Y-41275000D03*
D16*
X136683750Y-38735000D03*
X143033750Y-36195000D03*
%TD*%
D15*
%TO.C,MXshift2.2*%
X242570000Y-79375000D03*
D10*
X247650000Y-79375000D03*
D15*
X252730000Y-79375000D03*
D16*
X243840000Y-76835000D03*
X250190000Y-74295000D03*
%TD*%
D15*
%TO.C,MX12*%
X254476250Y-41275000D03*
D10*
X259556250Y-41275000D03*
D15*
X264636250Y-41275000D03*
D16*
X255746250Y-38735000D03*
X262096250Y-36195000D03*
%TD*%
D15*
%TO.C,MX19*%
X159226250Y-60325000D03*
D10*
X164306250Y-60325000D03*
D15*
X169386250Y-60325000D03*
D16*
X160496250Y-57785000D03*
X166846250Y-55245000D03*
%TD*%
D15*
%TO.C,MXsplit2.2*%
X171132500Y-98425000D03*
D10*
X176212500Y-98425000D03*
D15*
X181292500Y-98425000D03*
D16*
X172402500Y-95885000D03*
X178752500Y-93345000D03*
%TD*%
D15*
%TO.C,MX7*%
X154463750Y-41275000D03*
D10*
X159543750Y-41275000D03*
D15*
X164623750Y-41275000D03*
D16*
X155733750Y-38735000D03*
X162083750Y-36195000D03*
%TD*%
D15*
%TO.C,MX14*%
X63976250Y-60325000D03*
D10*
X69056250Y-60325000D03*
D15*
X74136250Y-60325000D03*
D16*
X65246250Y-57785000D03*
X71596250Y-55245000D03*
%TD*%
D15*
%TO.C,MX48*%
X202088750Y-98425000D03*
D10*
X207168750Y-98425000D03*
D15*
X212248750Y-98425000D03*
D16*
X203358750Y-95885000D03*
X209708750Y-93345000D03*
%TD*%
D15*
%TO.C,MX41*%
X49688750Y-98425000D03*
D10*
X54768750Y-98425000D03*
D15*
X59848750Y-98425000D03*
D16*
X50958750Y-95885000D03*
X57308750Y-93345000D03*
%TD*%
D15*
%TO.C,MX2*%
X59213750Y-41275000D03*
D10*
X64293750Y-41275000D03*
D15*
X69373750Y-41275000D03*
D16*
X60483750Y-38735000D03*
X66833750Y-36195000D03*
%TD*%
D17*
%TO.C,D29*%
X119856250Y-80775000D03*
X119856250Y-77975000D03*
%TD*%
%TO.C,D36*%
X267493750Y-80775000D03*
X267493750Y-77975000D03*
%TD*%
%TO.C,D13*%
X46037500Y-61725000D03*
X46037500Y-58925000D03*
%TD*%
%TO.C,D41*%
X131762500Y-99825000D03*
X131762500Y-97025000D03*
%TD*%
%TO.C,D20*%
X186531250Y-61725000D03*
X186531250Y-58925000D03*
%TD*%
%TO.C,D26*%
X62706250Y-80775000D03*
X62706250Y-77975000D03*
%TD*%
D18*
%TO.C,R1*%
X243650000Y-33537500D03*
X245300000Y-33537500D03*
%TD*%
D17*
%TO.C,D22*%
X224631250Y-61725000D03*
X224631250Y-58925000D03*
%TD*%
%TO.C,D32*%
X177006250Y-80775000D03*
X177006250Y-77975000D03*
%TD*%
D19*
%TO.C,R2*%
X227043750Y-33537500D03*
X225393750Y-33537500D03*
%TD*%
D17*
%TO.C,D15*%
X91281250Y-61725000D03*
X91281250Y-58925000D03*
%TD*%
%TO.C,D40*%
X96043750Y-99825000D03*
X96043750Y-97025000D03*
%TD*%
%TO.C,D31*%
X157956250Y-80775000D03*
X157956250Y-77975000D03*
%TD*%
%TO.C,D21*%
X205581250Y-61725000D03*
X205581250Y-58925000D03*
%TD*%
%TO.C,D4*%
X105568750Y-42675000D03*
X105568750Y-39875000D03*
%TD*%
%TO.C,D9*%
X200818750Y-42675000D03*
X200818750Y-39875000D03*
%TD*%
%TO.C,D34*%
X215106250Y-80775000D03*
X215106250Y-77975000D03*
%TD*%
%TO.C,D24*%
X265112500Y-61912500D03*
X265112500Y-59112500D03*
%TD*%
%TO.C,D27*%
X81756250Y-80775000D03*
X81756250Y-77975000D03*
%TD*%
%TO.C,D16*%
X110331250Y-61725000D03*
X110331250Y-58925000D03*
%TD*%
%TO.C,D3*%
X86518750Y-42487500D03*
X86518750Y-39687500D03*
%TD*%
%TO.C,D42*%
X153193750Y-99825000D03*
X153193750Y-97025000D03*
%TD*%
%TO.C,D28*%
X100806250Y-80775000D03*
X100806250Y-77975000D03*
%TD*%
D20*
%TO.C,SW1*%
X53900000Y-65618750D03*
X47700000Y-65618750D03*
X53900000Y-69318750D03*
X47700000Y-69318750D03*
%TD*%
D17*
%TO.C,D10*%
X219868750Y-42675000D03*
X219868750Y-39875000D03*
%TD*%
D21*
%TO.C,C7*%
X70105094Y-77012500D03*
X70105094Y-78562500D03*
%TD*%
D22*
%TO.C,C4*%
X63254258Y-67223008D03*
X62158242Y-66126992D03*
%TD*%
D23*
%TO.C,D_PWR1*%
X227806250Y-40743750D03*
X227806250Y-37443750D03*
%TD*%
D17*
%TO.C,D38*%
X47625000Y-99825000D03*
X47625000Y-97025000D03*
%TD*%
%TO.C,D44*%
X215106250Y-99825000D03*
X215106250Y-97025000D03*
%TD*%
%TO.C,D2*%
X67468750Y-42487500D03*
X67468750Y-39687500D03*
%TD*%
D24*
%TO.C,C8*%
X77012500Y-70643750D03*
X78562500Y-70643750D03*
%TD*%
D17*
%TO.C,D23*%
X243681250Y-61725000D03*
X243681250Y-58925000D03*
%TD*%
%TO.C,D1*%
X43656250Y-42487500D03*
X43656250Y-39687500D03*
%TD*%
%TO.C,D39*%
X76993750Y-99825000D03*
X76993750Y-97025000D03*
%TD*%
%TO.C,D30*%
X138906250Y-80775000D03*
X138906250Y-77975000D03*
%TD*%
D25*
%TO.C,U2*%
X74737876Y-70848788D03*
X74384322Y-71202342D03*
X74030769Y-71555895D03*
X73677215Y-71909449D03*
X73323662Y-72263002D03*
X72970109Y-72616555D03*
X72616555Y-72970109D03*
X72263002Y-73323662D03*
X71909449Y-73677215D03*
X71555895Y-74030769D03*
X71202342Y-74384322D03*
X70848788Y-74737876D03*
D26*
X68851212Y-74737876D03*
X68497658Y-74384322D03*
X68144105Y-74030769D03*
X67790551Y-73677215D03*
X67436998Y-73323662D03*
X67083445Y-72970109D03*
X66729891Y-72616555D03*
X66376338Y-72263002D03*
X66022785Y-71909449D03*
X65669231Y-71555895D03*
X65315678Y-71202342D03*
X64962124Y-70848788D03*
D25*
X64962124Y-68851212D03*
X65315678Y-68497658D03*
X65669231Y-68144105D03*
X66022785Y-67790551D03*
X66376338Y-67436998D03*
X66729891Y-67083445D03*
X67083445Y-66729891D03*
X67436998Y-66376338D03*
X67790551Y-66022785D03*
X68144105Y-65669231D03*
X68497658Y-65315678D03*
X68851212Y-64962124D03*
D26*
X70848788Y-64962124D03*
X71202342Y-65315678D03*
X71555895Y-65669231D03*
X71909449Y-66022785D03*
X72263002Y-66376338D03*
X72616555Y-66729891D03*
X72970109Y-67083445D03*
X73323662Y-67436998D03*
X73677215Y-67790551D03*
X74030769Y-68144105D03*
X74384322Y-68497658D03*
X74737876Y-68851212D03*
%TD*%
D17*
%TO.C,D8*%
X181768750Y-42675000D03*
X181768750Y-39875000D03*
%TD*%
D27*
%TO.C,U3*%
X60440000Y-59357500D03*
X58540000Y-59357500D03*
X59490000Y-57482500D03*
%TD*%
D17*
%TO.C,D11*%
X238918750Y-42675000D03*
X238918750Y-39875000D03*
%TD*%
%TO.C,D25*%
X50800000Y-80775000D03*
X50800000Y-77975000D03*
%TD*%
%TO.C,D35*%
X227806250Y-81568750D03*
X227806250Y-78768750D03*
%TD*%
%TO.C,D12*%
X262731250Y-42675000D03*
X262731250Y-39875000D03*
%TD*%
%TO.C,D6*%
X143668750Y-42675000D03*
X143668750Y-39875000D03*
%TD*%
D28*
%TO.C,U1*%
X221118613Y-50692270D03*
X221118613Y-49742270D03*
X221118613Y-48792270D03*
X223393613Y-48792270D03*
X223393613Y-49742270D03*
X223393613Y-50692270D03*
%TD*%
D17*
%TO.C,D17*%
X129381250Y-61725000D03*
X129381250Y-58925000D03*
%TD*%
%TO.C,D7*%
X162718750Y-42675000D03*
X162718750Y-39875000D03*
%TD*%
D29*
%TO.C,C2*%
X60265808Y-61249873D03*
X58715808Y-61249873D03*
%TD*%
D17*
%TO.C,D5*%
X124618750Y-42675000D03*
X124618750Y-39875000D03*
%TD*%
%TO.C,D18*%
X148431250Y-61725000D03*
X148431250Y-58925000D03*
%TD*%
D30*
%TO.C,R3*%
X56356250Y-69087500D03*
X56356250Y-67437500D03*
%TD*%
D17*
%TO.C,D45*%
X219075000Y-99825000D03*
X219075000Y-97025000D03*
%TD*%
D31*
%TO.C,C5*%
X66494471Y-64398395D03*
X67590487Y-63302379D03*
%TD*%
D17*
%TO.C,D14*%
X72231250Y-61725000D03*
X72231250Y-58925000D03*
%TD*%
D32*
%TO.C,F1*%
X224031250Y-37693750D03*
X224031250Y-40493750D03*
%TD*%
D17*
%TO.C,D47*%
X267493750Y-99825000D03*
X267493750Y-97025000D03*
%TD*%
D21*
%TO.C,C9*%
X71737281Y-77025116D03*
X71737281Y-78575116D03*
%TD*%
D17*
%TO.C,D46*%
X248443750Y-99825000D03*
X248443750Y-97025000D03*
%TD*%
%TO.C,D33*%
X196056250Y-80775000D03*
X196056250Y-77975000D03*
%TD*%
%TO.C,D43*%
X179387500Y-99825000D03*
X179387500Y-97025000D03*
%TD*%
%TO.C,D19*%
X167481250Y-61725000D03*
X167481250Y-58925000D03*
%TD*%
%TO.C,D37*%
X43656250Y-99825000D03*
X43656250Y-97025000D03*
%TD*%
D29*
%TO.C,C1*%
X60265000Y-55457500D03*
X58715000Y-55457500D03*
%TD*%
D24*
%TO.C,C6*%
X77012500Y-68281250D03*
X78562500Y-68281250D03*
%TD*%
D31*
%TO.C,C3*%
X65336300Y-63265551D03*
X66432316Y-62169535D03*
%TD*%
M02*
