M48
; DRILL file {KiCad 8.0.8} date 2025-02-23T20:38:21+0100
; FORMAT={-:-/ absolute / inch / decimal}
; #@! TF.CreationDate,2025-02-23T20:38:21+01:00
; #@! TF.GenerationSoftware,Kicad,Pcbnew,8.0.8
; #@! TF.FileFunction,Plated,1,2,PTH
FMAT,2
INCH
; #@! TA.AperFunction,Plated,PTH,ViaDrill
T1C0.0157
; #@! TA.AperFunction,Plated,PTH,ComponentDrill
T2C0.0236
; #@! TA.AperFunction,Plated,PTH,ComponentDrill
T3C0.0600
%
G90
G05
T1
X2.1813Y-2.4359
X2.2117Y-2.5037
X2.2223Y-2.6124
X2.2581Y-2.4353
X2.4148Y-2.1835
X2.4167Y-2.5733
X2.4203Y-2.411
X2.4375Y-2.7188
X2.5Y-2.7188
X2.5815Y-2.414
X2.7099Y-3.0931
X2.75Y-2.5312
X2.75Y-2.9688
X2.8173Y-2.5069
X2.8287Y-2.7138
X2.9854Y-2.7188
X2.9854Y-2.7812
X3.1366Y-2.6881
X8.5934Y-1.922
X8.5938Y-2.0
X8.6565Y-1.9584
X8.8395Y-1.3199
X8.8431Y-1.5411
X8.8439Y-1.75
X8.9688Y-1.5231
X8.9688Y-1.5625
X8.9688Y-1.75
X9.0938Y-1.3438
X9.1262Y-1.3131
X9.1875Y-1.3309
X9.1875Y-1.375
X9.2724Y-1.3438
X9.6949Y-1.3199
T3
X1.2562Y-3.775
X1.35Y-2.275
X1.35Y-3.025
X1.4437Y-1.525
X1.4437Y-3.775
X1.5062Y-3.675
X1.5375Y-2.275
X1.6Y-2.175
X1.6Y-2.925
X1.6937Y-1.425
X1.6937Y-3.675
X1.725Y-3.025
X1.7875Y-2.175
X1.975Y-2.925
X2.0063Y-3.775
X2.1938Y-3.025
X2.2563Y-3.675
X2.3813Y-1.525
X2.3813Y-3.775
X2.4438Y-2.925
X2.5688Y-2.275
X2.5688Y-3.775
X2.6313Y-1.425
X2.6313Y-3.675
X2.7563Y-3.775
X2.8188Y-2.175
X2.8188Y-3.675
X2.9438Y-3.025
X3.0063Y-3.675
X3.1313Y-1.525
X3.1938Y-2.925
X3.3188Y-2.275
X3.3188Y-3.775
X3.3813Y-1.425
X3.5063Y-3.775
X3.5688Y-2.175
X3.5688Y-3.675
X3.6938Y-3.025
X3.7563Y-3.675
X3.8813Y-1.525
X3.9438Y-2.925
X4.0687Y-2.275
X4.1312Y-1.425
X4.3187Y-2.175
X4.4437Y-3.025
X4.6312Y-1.525
X4.6937Y-2.925
X4.725Y-3.775
X4.8187Y-2.275
X4.8812Y-1.425
X4.9125Y-3.775
X4.975Y-3.675
X5.0687Y-2.175
X5.1625Y-3.675
X5.1937Y-3.025
X5.3812Y-1.525
X5.4437Y-2.925
X5.5687Y-2.275
X5.6312Y-1.425
X5.7562Y-3.775
X5.8187Y-2.175
X5.9437Y-3.025
X6.0062Y-3.675
X6.1312Y-1.525
X6.1937Y-2.925
X6.3187Y-2.275
X6.3812Y-1.425
X6.5687Y-2.175
X6.6Y-3.775
X6.6937Y-3.025
X6.7875Y-3.775
X6.85Y-3.675
X6.8812Y-1.525
X6.9437Y-2.925
X7.0375Y-3.675
X7.0687Y-2.275
X7.1312Y-1.425
X7.3187Y-2.175
X7.4437Y-3.025
X7.6312Y-1.525
X7.6937Y-2.925
X7.8187Y-2.275
X7.8812Y-1.425
X8.0062Y-3.775
X8.0687Y-2.175
X8.1937Y-3.025
X8.1937Y-3.775
X8.2562Y-3.675
X8.3812Y-1.525
X8.4437Y-2.925
X8.4437Y-3.675
X8.5687Y-2.275
X8.6312Y-1.425
X8.7562Y-3.775
X8.8187Y-2.175
X8.9437Y-3.025
X8.9437Y-3.775
X9.0062Y-3.675
X9.1312Y-1.525
X9.1312Y-3.775
X9.1937Y-2.925
X9.1937Y-3.675
X9.225Y-3.025
X9.3187Y-2.275
X9.3812Y-1.425
X9.3812Y-3.675
X9.475Y-2.925
X9.5062Y-3.775
X9.5687Y-2.175
X9.6Y-3.025
X9.7562Y-3.675
X9.7875Y-2.275
X9.85Y-2.925
X9.975Y-3.025
X10.0375Y-2.175
X10.0687Y-1.525
X10.0687Y-3.775
X10.1625Y-1.9
X10.1625Y-2.275
X10.225Y-2.925
X10.2562Y-3.025
X10.2562Y-3.775
X10.3187Y-1.425
X10.3187Y-3.675
X10.4125Y-1.8
X10.4125Y-2.175
X10.5062Y-2.925
X10.5062Y-3.675
T2
G00X9.0531Y-1.0546
M15
G01X9.0531Y-1.031
M16
G05
G00X9.0531Y-1.229
M15
G01X9.0531Y-1.1857
M16
G05
G00X9.3933Y-1.0546
M15
G01X9.3933Y-1.031
M16
G05
G00X9.3933Y-1.229
M15
G01X9.3933Y-1.1857
M16
G05
M30
