%TF.GenerationSoftware,KiCad,Pcbnew,(7.0.0)*%
%TF.CreationDate,2024-04-22T22:07:44+02:00*%
%TF.ProjectId,forti,666f7274-692e-46b6-9963-61645f706362,rev?*%
%TF.SameCoordinates,Original*%
%TF.FileFunction,Copper,L2,Bot*%
%TF.FilePolarity,Positive*%
%FSLAX46Y46*%
G04 Gerber Fmt 4.6, Leading zero omitted, Abs format (unit mm)*
G04 Created by KiCad (PCBNEW (7.0.0)) date 2024-04-22 22:07:44*
%MOMM*%
%LPD*%
G01*
G04 APERTURE LIST*
G04 Aperture macros list*
%AMRoundRect*
0 Rectangle with rounded corners*
0 $1 Rounding radius*
0 $2 $3 $4 $5 $6 $7 $8 $9 X,Y pos of 4 corners*
0 Add a 4 corners polygon primitive as box body*
4,1,4,$2,$3,$4,$5,$6,$7,$8,$9,$2,$3,0*
0 Add four circle primitives for the rounded corners*
1,1,$1+$1,$2,$3*
1,1,$1+$1,$4,$5*
1,1,$1+$1,$6,$7*
1,1,$1+$1,$8,$9*
0 Add four rect primitives between the rounded corners*
20,1,$1+$1,$2,$3,$4,$5,0*
20,1,$1+$1,$4,$5,$6,$7,0*
20,1,$1+$1,$6,$7,$8,$9,0*
20,1,$1+$1,$8,$9,$2,$3,0*%
G04 Aperture macros list end*
%TA.AperFunction,ComponentPad*%
%ADD10O,1.000000X2.100000*%
%TD*%
%TA.AperFunction,ComponentPad*%
%ADD11O,1.000000X1.600000*%
%TD*%
%TA.AperFunction,ComponentPad*%
%ADD12C,2.300000*%
%TD*%
%TA.AperFunction,ComponentPad*%
%ADD13C,4.000000*%
%TD*%
%TA.AperFunction,SMDPad,CuDef*%
%ADD14RoundRect,0.105000X-0.245000X0.245000X-0.245000X-0.245000X0.245000X-0.245000X0.245000X0.245000X0*%
%TD*%
%TA.AperFunction,SMDPad,CuDef*%
%ADD15RoundRect,0.250000X0.300000X-0.300000X0.300000X0.300000X-0.300000X0.300000X-0.300000X-0.300000X0*%
%TD*%
%TA.AperFunction,SMDPad,CuDef*%
%ADD16RoundRect,0.105000X0.245000X0.245000X-0.245000X0.245000X-0.245000X-0.245000X0.245000X-0.245000X0*%
%TD*%
%TA.AperFunction,SMDPad,CuDef*%
%ADD17RoundRect,0.200000X-0.275000X0.200000X-0.275000X-0.200000X0.275000X-0.200000X0.275000X0.200000X0*%
%TD*%
%TA.AperFunction,SMDPad,CuDef*%
%ADD18RoundRect,0.200000X0.200000X0.275000X-0.200000X0.275000X-0.200000X-0.275000X0.200000X-0.275000X0*%
%TD*%
%TA.AperFunction,SMDPad,CuDef*%
%ADD19RoundRect,0.105000X0.245000X-0.245000X0.245000X0.245000X-0.245000X0.245000X-0.245000X-0.245000X0*%
%TD*%
%TA.AperFunction,SMDPad,CuDef*%
%ADD20RoundRect,0.150000X0.150000X-0.512500X0.150000X0.512500X-0.150000X0.512500X-0.150000X-0.512500X0*%
%TD*%
%TA.AperFunction,SMDPad,CuDef*%
%ADD21R,1.800000X1.100000*%
%TD*%
%TA.AperFunction,SMDPad,CuDef*%
%ADD22RoundRect,0.225000X-0.250000X0.225000X-0.250000X-0.225000X0.250000X-0.225000X0.250000X0.225000X0*%
%TD*%
%TA.AperFunction,SMDPad,CuDef*%
%ADD23RoundRect,0.225000X0.335876X0.017678X0.017678X0.335876X-0.335876X-0.017678X-0.017678X-0.335876X0*%
%TD*%
%TA.AperFunction,SMDPad,CuDef*%
%ADD24RoundRect,0.225000X0.225000X0.375000X-0.225000X0.375000X-0.225000X-0.375000X0.225000X-0.375000X0*%
%TD*%
%TA.AperFunction,SMDPad,CuDef*%
%ADD25RoundRect,0.225000X-0.225000X-0.250000X0.225000X-0.250000X0.225000X0.250000X-0.225000X0.250000X0*%
%TD*%
%TA.AperFunction,SMDPad,CuDef*%
%ADD26RoundRect,0.070000X0.521491X-0.422496X-0.422496X0.521491X-0.521491X0.422496X0.422496X-0.521491X0*%
%TD*%
%TA.AperFunction,SMDPad,CuDef*%
%ADD27RoundRect,0.070000X0.521491X0.422496X0.422496X0.521491X-0.521491X-0.422496X-0.422496X-0.521491X0*%
%TD*%
%TA.AperFunction,SMDPad,CuDef*%
%ADD28RoundRect,0.150000X0.150000X-0.587500X0.150000X0.587500X-0.150000X0.587500X-0.150000X-0.587500X0*%
%TD*%
%TA.AperFunction,SMDPad,CuDef*%
%ADD29RoundRect,0.150000X-0.512500X-0.150000X0.512500X-0.150000X0.512500X0.150000X-0.512500X0.150000X0*%
%TD*%
%TA.AperFunction,SMDPad,CuDef*%
%ADD30RoundRect,0.225000X0.225000X0.250000X-0.225000X0.250000X-0.225000X-0.250000X0.225000X-0.250000X0*%
%TD*%
%TA.AperFunction,SMDPad,CuDef*%
%ADD31RoundRect,0.200000X0.275000X-0.200000X0.275000X0.200000X-0.275000X0.200000X-0.275000X-0.200000X0*%
%TD*%
%TA.AperFunction,SMDPad,CuDef*%
%ADD32RoundRect,0.225000X0.017678X-0.335876X0.335876X-0.017678X-0.017678X0.335876X-0.335876X0.017678X0*%
%TD*%
%TA.AperFunction,SMDPad,CuDef*%
%ADD33RoundRect,0.225000X0.250000X-0.225000X0.250000X0.225000X-0.250000X0.225000X-0.250000X-0.225000X0*%
%TD*%
%TA.AperFunction,SMDPad,CuDef*%
%ADD34RoundRect,0.250000X-0.375000X-0.625000X0.375000X-0.625000X0.375000X0.625000X-0.375000X0.625000X0*%
%TD*%
%TA.AperFunction,ViaPad*%
%ADD35C,0.800000*%
%TD*%
%TA.AperFunction,Conductor*%
%ADD36C,0.250000*%
%TD*%
%TA.AperFunction,Conductor*%
%ADD37C,0.200000*%
%TD*%
%TA.AperFunction,Conductor*%
%ADD38C,0.381000*%
%TD*%
G04 APERTURE END LIST*
D10*
%TO.P,J1,S1,SHIELD*%
%TO.N,GND*%
X238589114Y-29323749D03*
D11*
X238589114Y-25143749D03*
D10*
X229949114Y-29323749D03*
D11*
X229949114Y-25143749D03*
%TD*%
D12*
%TO.P,MX51,1,1*%
%TO.N,COL9*%
X227171250Y-95885000D03*
%TO.P,MX51,2,2*%
%TO.N,Net-(D45-A)*%
X233521250Y-93345000D03*
%TD*%
%TO.P,MX23,1,1*%
%TO.N,COL10*%
X236696250Y-57785000D03*
%TO.P,MX23,2,2*%
%TO.N,Net-(D23-A)*%
X243046250Y-55245000D03*
%TD*%
%TO.P,MX55,1,1*%
%TO.N,COL11*%
X255746250Y-95885000D03*
%TO.P,MX55,2,2*%
%TO.N,Net-(D47-A)*%
X262096250Y-93345000D03*
%TD*%
%TO.P,MX43,1,1*%
%TO.N,COL2*%
X70008750Y-95885000D03*
%TO.P,MX43,2,2*%
%TO.N,Net-(D39-A)*%
X76358750Y-93345000D03*
%TD*%
%TO.P,MXshift2.1,1,1*%
%TO.N,COL0*%
X43815000Y-76835000D03*
%TO.P,MXshift2.1,2,2*%
%TO.N,Net-(D25-A)*%
X50165000Y-74295000D03*
%TD*%
%TO.P,MX27,1,1*%
%TO.N,COL2*%
X74771250Y-76835000D03*
%TO.P,MX27,2,2*%
%TO.N,Net-(D27-A)*%
X81121250Y-74295000D03*
%TD*%
%TO.P,MX11,1,1*%
%TO.N,COL10*%
X231933750Y-38735000D03*
%TO.P,MX11,2,2*%
%TO.N,Net-(D11-A)*%
X238283750Y-36195000D03*
%TD*%
%TO.P,MX46,1,1*%
%TO.N,COL3*%
X84296250Y-95885000D03*
%TO.P,MX46,2,2*%
%TO.N,Net-(D40-A)*%
X90646250Y-93345000D03*
%TD*%
%TO.P,MXenter2.1,1,1*%
%TO.N,COL11*%
X248602500Y-57785000D03*
%TO.P,MXenter2.1,2,2*%
%TO.N,Net-(D24-A)*%
X254952500Y-55245000D03*
%TD*%
D13*
%TO.P,S2,*%
%TO.N,*%
X207168750Y-105410000D03*
X92868750Y-105410000D03*
%TD*%
D12*
%TO.P,MX49,1,1*%
%TO.N,COL8*%
X208121250Y-95885000D03*
%TO.P,MX49,2,2*%
%TO.N,Net-(D44-A)*%
X214471250Y-93345000D03*
%TD*%
%TO.P,MX31,1,1*%
%TO.N,COL6*%
X150971250Y-76835000D03*
%TO.P,MX31,2,2*%
%TO.N,Net-(D31-A)*%
X157321250Y-74295000D03*
%TD*%
%TO.P,MX16,1,1*%
%TO.N,COL3*%
X103346250Y-57785000D03*
%TO.P,MX16,2,2*%
%TO.N,Net-(D16-A)*%
X109696250Y-55245000D03*
%TD*%
%TO.P,MX38,1,1*%
%TO.N,COL11*%
X260508750Y-76835000D03*
%TO.P,MX38,2,2*%
%TO.N,Net-(D36-A)*%
X266858750Y-74295000D03*
%TD*%
%TO.P,MX35,1,1*%
%TO.N,COL10*%
X227171250Y-76835000D03*
%TO.P,MX35,2,2*%
%TO.N,Net-(D35-A)*%
X233521250Y-74295000D03*
%TD*%
%TO.P,MXsplit2.75(1)1,1,1*%
%TO.N,COL7*%
X167640000Y-95885000D03*
%TO.P,MXsplit2.75(1)1,2,2*%
%TO.N,Net-(D43-A)*%
X173990000Y-93345000D03*
%TD*%
D13*
%TO.P,shift2.2,*%
%TO.N,*%
X35718750Y-72390000D03*
X59531250Y-72390000D03*
%TD*%
D12*
%TO.P,MX8,1,1*%
%TO.N,COL7*%
X174783750Y-38735000D03*
%TO.P,MX8,2,2*%
%TO.N,Net-(D8-A)*%
X181133750Y-36195000D03*
%TD*%
%TO.P,MX13,1,1*%
%TO.N,COL0*%
X39052500Y-57785000D03*
%TO.P,MX13,2,2*%
%TO.N,Net-(D13-A)*%
X45402500Y-55245000D03*
%TD*%
%TO.P,MX32,1,1*%
%TO.N,COL7*%
X170021250Y-76835000D03*
%TO.P,MX32,2,2*%
%TO.N,Net-(D32-A)*%
X176371250Y-74295000D03*
%TD*%
%TO.P,MXISO1,1,1*%
%TO.N,COL11*%
X258127500Y-48260000D03*
%TO.P,MXISO1,2,2*%
%TO.N,Net-(D12-A)*%
X264477500Y-45720000D03*
%TD*%
%TO.P,MX21,1,1*%
%TO.N,COL8*%
X198596250Y-57785000D03*
%TO.P,MX21,2,2*%
%TO.N,Net-(D21-A)*%
X204946250Y-55245000D03*
%TD*%
%TO.P,MXsplit2.1,1,1*%
%TO.N,COL5*%
X124777500Y-95885000D03*
%TO.P,MXsplit2.1,2,2*%
%TO.N,Net-(D41-A)*%
X131127500Y-93345000D03*
%TD*%
%TO.P,MX4,1,1*%
%TO.N,COL3*%
X98583750Y-38735000D03*
%TO.P,MX4,2,2*%
%TO.N,Net-(D4-A)*%
X104933750Y-36195000D03*
%TD*%
%TO.P,MX45,1,1*%
%TO.N,COL3*%
X89058750Y-95885000D03*
%TO.P,MX45,2,2*%
%TO.N,Net-(D40-A)*%
X95408750Y-93345000D03*
%TD*%
%TO.P,MX30,1,1*%
%TO.N,COL5*%
X131921250Y-76835000D03*
%TO.P,MX30,2,2*%
%TO.N,Net-(D30-A)*%
X138271250Y-74295000D03*
%TD*%
%TO.P,MX1,1,1*%
%TO.N,COL0*%
X36671250Y-38735000D03*
%TO.P,MX1,2,2*%
%TO.N,Net-(D1-A)*%
X43021250Y-36195000D03*
%TD*%
%TO.P,MX34,1,1*%
%TO.N,COL9*%
X208121250Y-76835000D03*
%TO.P,MX34,2,2*%
%TO.N,Net-(D34-A)*%
X214471250Y-74295000D03*
%TD*%
%TO.P,MX25,1,1*%
%TO.N,COL0*%
X34290000Y-76835000D03*
%TO.P,MX25,2,2*%
%TO.N,Net-(D25-A)*%
X40640000Y-74295000D03*
%TD*%
D13*
%TO.P,enter2.1,*%
%TO.N,*%
X264318750Y-67310000D03*
X240506250Y-67310000D03*
%TD*%
D12*
%TO.P,MX29,1,1*%
%TO.N,COL4*%
X112871250Y-76835000D03*
%TO.P,MX29,2,2*%
%TO.N,Net-(D29-A)*%
X119221250Y-74295000D03*
%TD*%
%TO.P,MX53,1,1*%
%TO.N,COL10*%
X231933750Y-95885000D03*
%TO.P,MX53,2,2*%
%TO.N,Net-(D46-A)*%
X238283750Y-93345000D03*
%TD*%
%TO.P,MX22,1,1*%
%TO.N,COL9*%
X217646250Y-57785000D03*
%TO.P,MX22,2,2*%
%TO.N,Net-(D22-A)*%
X223996250Y-55245000D03*
%TD*%
%TO.P,MX17,1,1*%
%TO.N,COL4*%
X122396250Y-57785000D03*
%TO.P,MX17,2,2*%
%TO.N,Net-(D17-A)*%
X128746250Y-55245000D03*
%TD*%
%TO.P,MX47,1,1*%
%TO.N,COL6*%
X146208750Y-95885000D03*
%TO.P,MX47,2,2*%
%TO.N,Net-(D42-A)*%
X152558750Y-93345000D03*
%TD*%
D13*
%TO.P,S1,*%
%TO.N,*%
X135731250Y-105410000D03*
X111918750Y-105410000D03*
%TD*%
D12*
%TO.P,MX44,1,1*%
%TO.N,COL2*%
X65246250Y-95885000D03*
%TO.P,MX44,2,2*%
%TO.N,Net-(D39-A)*%
X71596250Y-93345000D03*
%TD*%
%TO.P,MX36,1,1*%
%TO.N,COL10*%
X234315000Y-76835000D03*
%TO.P,MX36,2,2*%
%TO.N,Net-(D35-A)*%
X240665000Y-74295000D03*
%TD*%
%TO.P,MX26,1,1*%
%TO.N,COL1*%
X55721250Y-76835000D03*
%TO.P,MX26,2,2*%
%TO.N,Net-(D26-A)*%
X62071250Y-74295000D03*
%TD*%
%TO.P,MX3,1,1*%
%TO.N,COL2*%
X79533750Y-38735000D03*
%TO.P,MX3,2,2*%
%TO.N,Net-(D3-A)*%
X85883750Y-36195000D03*
%TD*%
D13*
%TO.P,S4,*%
%TO.N,*%
X188118750Y-105410000D03*
X164306250Y-105410000D03*
%TD*%
D12*
%TO.P,MX37,1,1*%
%TO.N,COL11*%
X253365000Y-76835000D03*
%TO.P,MX37,2,2*%
%TO.N,Net-(D36-A)*%
X259715000Y-74295000D03*
%TD*%
%TO.P,MX24,1,1*%
%TO.N,COL11*%
X258127500Y-57785000D03*
%TO.P,MX24,2,2*%
%TO.N,Net-(D24-A)*%
X264477500Y-55245000D03*
%TD*%
D13*
%TO.P,S3,*%
%TO.N,*%
X183356250Y-105410000D03*
X159543750Y-105410000D03*
%TD*%
D12*
%TO.P,MX42,1,1*%
%TO.N,COL1*%
X60483750Y-95885000D03*
%TO.P,MX42,2,2*%
%TO.N,Net-(D38-A)*%
X66833750Y-93345000D03*
%TD*%
%TO.P,MX33,1,1*%
%TO.N,COL8*%
X189071250Y-76835000D03*
%TO.P,MX33,2,2*%
%TO.N,Net-(D33-A)*%
X195421250Y-74295000D03*
%TD*%
%TO.P,MX5,1,1*%
%TO.N,COL4*%
X117633750Y-38735000D03*
%TO.P,MX5,2,2*%
%TO.N,Net-(D5-A)*%
X123983750Y-36195000D03*
%TD*%
%TO.P,MX50,1,1*%
%TO.N,COL9*%
X222408750Y-95885000D03*
%TO.P,MX50,2,2*%
%TO.N,Net-(D45-A)*%
X228758750Y-93345000D03*
%TD*%
D13*
%TO.P,S5,*%
%TO.N,*%
X140493750Y-105410000D03*
X116681250Y-105410000D03*
%TD*%
D12*
%TO.P,MXsplit2.25(1)1,1,1*%
%TO.N,COL5*%
X120015000Y-95885000D03*
%TO.P,MXsplit2.25(1)1,2,2*%
%TO.N,Net-(D41-A)*%
X126365000Y-93345000D03*
%TD*%
%TO.P,MX28,1,1*%
%TO.N,COL3*%
X93821250Y-76835000D03*
%TO.P,MX28,2,2*%
%TO.N,Net-(D28-A)*%
X100171250Y-74295000D03*
%TD*%
%TO.P,MX18,1,1*%
%TO.N,COL5*%
X141446250Y-57785000D03*
%TO.P,MX18,2,2*%
%TO.N,Net-(D18-A)*%
X147796250Y-55245000D03*
%TD*%
%TO.P,MXcaps1,1,1*%
%TO.N,COL0*%
X34290000Y-57785000D03*
%TO.P,MXcaps1,2,2*%
%TO.N,Net-(D13-A)*%
X40640000Y-55245000D03*
%TD*%
%TO.P,MX40,1,1*%
%TO.N,COL0*%
X36671250Y-95885000D03*
%TO.P,MX40,2,2*%
%TO.N,Net-(D37-A)*%
X43021250Y-93345000D03*
%TD*%
%TO.P,MX15,1,1*%
%TO.N,COL2*%
X84296250Y-57785000D03*
%TO.P,MX15,2,2*%
%TO.N,Net-(D15-A)*%
X90646250Y-55245000D03*
%TD*%
%TO.P,MX54,1,1*%
%TO.N,COL11*%
X260508750Y-95885000D03*
%TO.P,MX54,2,2*%
%TO.N,Net-(D47-A)*%
X266858750Y-93345000D03*
%TD*%
%TO.P,MX39,1,1*%
%TO.N,COL0*%
X31908750Y-95885000D03*
%TO.P,MX39,2,2*%
%TO.N,Net-(D37-A)*%
X38258750Y-93345000D03*
%TD*%
D13*
%TO.P,shift2.1,*%
%TO.N,*%
X235743750Y-72390000D03*
X259556250Y-72390000D03*
%TD*%
D12*
%TO.P,MX10,1,1*%
%TO.N,COL9*%
X212883750Y-38735000D03*
%TO.P,MX10,2,2*%
%TO.N,Net-(D10-A)*%
X219233750Y-36195000D03*
%TD*%
%TO.P,MX9,1,1*%
%TO.N,COL8*%
X193833750Y-38735000D03*
%TO.P,MX9,2,2*%
%TO.N,Net-(D9-A)*%
X200183750Y-36195000D03*
%TD*%
%TO.P,MX52,1,1*%
%TO.N,COL10*%
X241458750Y-95885000D03*
%TO.P,MX52,2,2*%
%TO.N,Net-(D46-A)*%
X247808750Y-93345000D03*
%TD*%
%TO.P,MX20,1,1*%
%TO.N,COL7*%
X179546250Y-57785000D03*
%TO.P,MX20,2,2*%
%TO.N,Net-(D20-A)*%
X185896250Y-55245000D03*
%TD*%
%TO.P,MX6,1,1*%
%TO.N,COL5*%
X136683750Y-38735000D03*
%TO.P,MX6,2,2*%
%TO.N,Net-(D6-A)*%
X143033750Y-36195000D03*
%TD*%
%TO.P,MXshift2.2,1,1*%
%TO.N,COL11*%
X243840000Y-76835000D03*
%TO.P,MXshift2.2,2,2*%
%TO.N,Net-(D36-A)*%
X250190000Y-74295000D03*
%TD*%
%TO.P,MX12,1,1*%
%TO.N,COL11*%
X255746250Y-38735000D03*
%TO.P,MX12,2,2*%
%TO.N,Net-(D12-A)*%
X262096250Y-36195000D03*
%TD*%
%TO.P,MX19,1,1*%
%TO.N,COL6*%
X160496250Y-57785000D03*
%TO.P,MX19,2,2*%
%TO.N,Net-(D19-A)*%
X166846250Y-55245000D03*
%TD*%
%TO.P,MXsplit2.2,1,1*%
%TO.N,COL7*%
X172402500Y-95885000D03*
%TO.P,MXsplit2.2,2,2*%
%TO.N,Net-(D43-A)*%
X178752500Y-93345000D03*
%TD*%
%TO.P,MX7,1,1*%
%TO.N,COL6*%
X155733750Y-38735000D03*
%TO.P,MX7,2,2*%
%TO.N,Net-(D7-A)*%
X162083750Y-36195000D03*
%TD*%
%TO.P,MX14,1,1*%
%TO.N,COL1*%
X65246250Y-57785000D03*
%TO.P,MX14,2,2*%
%TO.N,Net-(D14-A)*%
X71596250Y-55245000D03*
%TD*%
%TO.P,MX48,1,1*%
%TO.N,COL8*%
X203358750Y-95885000D03*
%TO.P,MX48,2,2*%
%TO.N,Net-(D44-A)*%
X209708750Y-93345000D03*
%TD*%
%TO.P,MX41,1,1*%
%TO.N,COL1*%
X50958750Y-95885000D03*
%TO.P,MX41,2,2*%
%TO.N,Net-(D38-A)*%
X57308750Y-93345000D03*
%TD*%
%TO.P,MX2,1,1*%
%TO.N,COL1*%
X60483750Y-38735000D03*
%TO.P,MX2,2,2*%
%TO.N,Net-(D2-A)*%
X66833750Y-36195000D03*
%TD*%
D14*
%TO.P,LED2,1,DOUT*%
%TO.N,Net-(LED2-DOUT)*%
X28660000Y-68935000D03*
%TO.P,LED2,2,VSS*%
%TO.N,GND*%
X29760000Y-68935000D03*
%TO.P,LED2,3,DIN*%
%TO.N,Net-(LED1-DOUT)*%
X29760000Y-70765000D03*
%TO.P,LED2,4,VDD*%
%TO.N,+5V*%
X28660000Y-70765000D03*
%TD*%
D15*
%TO.P,D29,1,K*%
%TO.N,ROW2*%
X119856250Y-80775000D03*
%TO.P,D29,2,A*%
%TO.N,Net-(D29-A)*%
X119856250Y-77975000D03*
%TD*%
%TO.P,D36,1,K*%
%TO.N,ROW2*%
X267493750Y-80775000D03*
%TO.P,D36,2,A*%
%TO.N,Net-(D36-A)*%
X267493750Y-77975000D03*
%TD*%
%TO.P,D13,1,K*%
%TO.N,ROW1*%
X46037500Y-61725000D03*
%TO.P,D13,2,A*%
%TO.N,Net-(D13-A)*%
X46037500Y-58925000D03*
%TD*%
D16*
%TO.P,LED10,1,DOUT*%
%TO.N,Net-(LED10-DOUT)*%
X150933750Y-34375000D03*
%TO.P,LED10,2,VSS*%
%TO.N,GND*%
X150933750Y-35475000D03*
%TO.P,LED10,3,DIN*%
%TO.N,Net-(LED10-DIN)*%
X149103750Y-35475000D03*
%TO.P,LED10,4,VDD*%
%TO.N,+5V*%
X149103750Y-34375000D03*
%TD*%
D15*
%TO.P,D41,1,K*%
%TO.N,ROW3*%
X131762500Y-99825000D03*
%TO.P,D41,2,A*%
%TO.N,Net-(D41-A)*%
X131762500Y-97025000D03*
%TD*%
%TO.P,D20,1,K*%
%TO.N,ROW1*%
X186531250Y-61725000D03*
%TO.P,D20,2,A*%
%TO.N,Net-(D20-A)*%
X186531250Y-58925000D03*
%TD*%
%TO.P,D26,1,K*%
%TO.N,ROW2*%
X62706250Y-80775000D03*
%TO.P,D26,2,A*%
%TO.N,Net-(D26-A)*%
X62706250Y-77975000D03*
%TD*%
D17*
%TO.P,R1,1*%
%TO.N,/CC1*%
X244475000Y-35687500D03*
%TO.P,R1,2*%
%TO.N,GND*%
X244475000Y-37337500D03*
%TD*%
D15*
%TO.P,D22,1,K*%
%TO.N,ROW1*%
X224631250Y-61725000D03*
%TO.P,D22,2,A*%
%TO.N,Net-(D22-A)*%
X224631250Y-58925000D03*
%TD*%
D16*
%TO.P,LED7,1,DOUT*%
%TO.N,Net-(LED7-DOUT)*%
X93783750Y-33581250D03*
%TO.P,LED7,2,VSS*%
%TO.N,GND*%
X93783750Y-34681250D03*
%TO.P,LED7,3,DIN*%
%TO.N,Net-(LED6-DOUT)*%
X91953750Y-34681250D03*
%TO.P,LED7,4,VDD*%
%TO.N,+5V*%
X91953750Y-33581250D03*
%TD*%
D15*
%TO.P,D32,1,K*%
%TO.N,ROW2*%
X177006250Y-80775000D03*
%TO.P,D32,2,A*%
%TO.N,Net-(D32-A)*%
X177006250Y-77975000D03*
%TD*%
D18*
%TO.P,R2,1*%
%TO.N,/CC2*%
X230712500Y-33537500D03*
%TO.P,R2,2*%
%TO.N,GND*%
X229062500Y-33537500D03*
%TD*%
D16*
%TO.P,LED9,1,DOUT*%
%TO.N,Net-(LED10-DIN)*%
X131883750Y-33581250D03*
%TO.P,LED9,2,VSS*%
%TO.N,GND*%
X131883750Y-34681250D03*
%TO.P,LED9,3,DIN*%
%TO.N,Net-(LED8-DOUT)*%
X130053750Y-34681250D03*
%TO.P,LED9,4,VDD*%
%TO.N,+5V*%
X130053750Y-33581250D03*
%TD*%
%TO.P,LED12,1,DOUT*%
%TO.N,Net-(LED12-DOUT)*%
X189033750Y-33581250D03*
%TO.P,LED12,2,VSS*%
%TO.N,GND*%
X189033750Y-34681250D03*
%TO.P,LED12,3,DIN*%
%TO.N,Net-(LED11-DOUT)*%
X187203750Y-34681250D03*
%TO.P,LED12,4,VDD*%
%TO.N,+5V*%
X187203750Y-33581250D03*
%TD*%
D15*
%TO.P,D15,1,K*%
%TO.N,ROW1*%
X91281250Y-61725000D03*
%TO.P,D15,2,A*%
%TO.N,Net-(D15-A)*%
X91281250Y-58925000D03*
%TD*%
%TO.P,D40,1,K*%
%TO.N,ROW3*%
X96043750Y-99825000D03*
%TO.P,D40,2,A*%
%TO.N,Net-(D40-A)*%
X96043750Y-97025000D03*
%TD*%
D16*
%TO.P,LED13,1,DOUT*%
%TO.N,Net-(LED13-DOUT)*%
X207290000Y-33581250D03*
%TO.P,LED13,2,VSS*%
%TO.N,GND*%
X207290000Y-34681250D03*
%TO.P,LED13,3,DIN*%
%TO.N,Net-(LED12-DOUT)*%
X205460000Y-34681250D03*
%TO.P,LED13,4,VDD*%
%TO.N,+5V*%
X205460000Y-33581250D03*
%TD*%
D15*
%TO.P,D31,1,K*%
%TO.N,ROW2*%
X157956250Y-80775000D03*
%TO.P,D31,2,A*%
%TO.N,Net-(D31-A)*%
X157956250Y-77975000D03*
%TD*%
%TO.P,D21,1,K*%
%TO.N,ROW1*%
X205581250Y-61725000D03*
%TO.P,D21,2,A*%
%TO.N,Net-(D21-A)*%
X205581250Y-58925000D03*
%TD*%
%TO.P,D4,1,K*%
%TO.N,ROW0*%
X105568750Y-42675000D03*
%TO.P,D4,2,A*%
%TO.N,Net-(D4-A)*%
X105568750Y-39875000D03*
%TD*%
%TO.P,D9,1,K*%
%TO.N,ROW0*%
X200818750Y-42675000D03*
%TO.P,D9,2,A*%
%TO.N,Net-(D9-A)*%
X200818750Y-39875000D03*
%TD*%
%TO.P,D34,1,K*%
%TO.N,ROW2*%
X215106250Y-80775000D03*
%TO.P,D34,2,A*%
%TO.N,Net-(D34-A)*%
X215106250Y-77975000D03*
%TD*%
%TO.P,D24,1,K*%
%TO.N,ROW1*%
X265112500Y-61912500D03*
%TO.P,D24,2,A*%
%TO.N,Net-(D24-A)*%
X265112500Y-59112500D03*
%TD*%
%TO.P,D27,1,K*%
%TO.N,ROW2*%
X81756250Y-80775000D03*
%TO.P,D27,2,A*%
%TO.N,Net-(D27-A)*%
X81756250Y-77975000D03*
%TD*%
D19*
%TO.P,LED17,1,DOUT*%
%TO.N,Net-(LED17-DOUT)*%
X271060000Y-70765000D03*
%TO.P,LED17,2,VSS*%
%TO.N,GND*%
X269960000Y-70765000D03*
%TO.P,LED17,3,DIN*%
%TO.N,Net-(LED16-DOUT)*%
X269960000Y-68935000D03*
%TO.P,LED17,4,VDD*%
%TO.N,+5V*%
X271060000Y-68935000D03*
%TD*%
D15*
%TO.P,D16,1,K*%
%TO.N,ROW1*%
X110331250Y-61725000D03*
%TO.P,D16,2,A*%
%TO.N,Net-(D16-A)*%
X110331250Y-58925000D03*
%TD*%
D16*
%TO.P,LED6,1,DOUT*%
%TO.N,Net-(LED6-DOUT)*%
X74733750Y-33581250D03*
%TO.P,LED6,2,VSS*%
%TO.N,GND*%
X74733750Y-34681250D03*
%TO.P,LED6,3,DIN*%
%TO.N,Net-(LED5-DOUT)*%
X72903750Y-34681250D03*
%TO.P,LED6,4,VDD*%
%TO.N,+5V*%
X72903750Y-33581250D03*
%TD*%
D15*
%TO.P,D3,1,K*%
%TO.N,ROW0*%
X86518750Y-42487500D03*
%TO.P,D3,2,A*%
%TO.N,Net-(D3-A)*%
X86518750Y-39687500D03*
%TD*%
D20*
%TO.P,U4,1*%
%TO.N,GND*%
X53361566Y-59637816D03*
%TO.P,U4,2*%
%TO.N,RGB MCU*%
X52411566Y-59637816D03*
%TO.P,U4,3,GND*%
%TO.N,GND*%
X51461566Y-59637816D03*
%TO.P,U4,4*%
%TO.N,rgb underglow*%
X51461566Y-57362816D03*
%TO.P,U4,5,VCC*%
%TO.N,+5V*%
X53361566Y-57362816D03*
%TD*%
D15*
%TO.P,D42,1,K*%
%TO.N,ROW3*%
X153193750Y-99825000D03*
%TO.P,D42,2,A*%
%TO.N,Net-(D42-A)*%
X153193750Y-97025000D03*
%TD*%
%TO.P,D28,1,K*%
%TO.N,ROW2*%
X100806250Y-80775000D03*
%TO.P,D28,2,A*%
%TO.N,Net-(D28-A)*%
X100806250Y-77975000D03*
%TD*%
D21*
%TO.P,SW1,1,1*%
%TO.N,+3V3*%
X53899999Y-65618749D03*
X47699999Y-65618749D03*
%TO.P,SW1,2,2*%
%TO.N,BOOT0*%
X53899999Y-69318749D03*
X47699999Y-69318749D03*
%TD*%
D15*
%TO.P,D10,1,K*%
%TO.N,ROW0*%
X219868750Y-42675000D03*
%TO.P,D10,2,A*%
%TO.N,Net-(D10-A)*%
X219868750Y-39875000D03*
%TD*%
D16*
%TO.P,LED5,1,DOUT*%
%TO.N,Net-(LED5-DOUT)*%
X53302500Y-33581250D03*
%TO.P,LED5,2,VSS*%
%TO.N,GND*%
X53302500Y-34681250D03*
%TO.P,LED5,3,DIN*%
%TO.N,Net-(LED4-DOUT)*%
X51472500Y-34681250D03*
%TO.P,LED5,4,VDD*%
%TO.N,+5V*%
X51472500Y-33581250D03*
%TD*%
D22*
%TO.P,C7,1*%
%TO.N,+3V3*%
X70105094Y-77012500D03*
%TO.P,C7,2*%
%TO.N,GND*%
X70105094Y-78562500D03*
%TD*%
D23*
%TO.P,C4,1*%
%TO.N,+3V3*%
X63254258Y-67223008D03*
%TO.P,C4,2*%
%TO.N,GND*%
X62158242Y-66126992D03*
%TD*%
D24*
%TO.P,D_PWR1,1,A1*%
%TO.N,+5V*%
X227868750Y-42862500D03*
%TO.P,D_PWR1,2,A2*%
%TO.N,GND*%
X224568750Y-42862500D03*
%TD*%
D15*
%TO.P,D38,1,K*%
%TO.N,ROW3*%
X47625000Y-99825000D03*
%TO.P,D38,2,A*%
%TO.N,Net-(D38-A)*%
X47625000Y-97025000D03*
%TD*%
D14*
%TO.P,LED3,1,DOUT*%
%TO.N,Net-(LED3-DOUT)*%
X28660000Y-49885000D03*
%TO.P,LED3,2,VSS*%
%TO.N,GND*%
X29760000Y-49885000D03*
%TO.P,LED3,3,DIN*%
%TO.N,Net-(LED2-DOUT)*%
X29760000Y-51715000D03*
%TO.P,LED3,4,VDD*%
%TO.N,+5V*%
X28660000Y-51715000D03*
%TD*%
D15*
%TO.P,D44,1,K*%
%TO.N,ROW3*%
X215106250Y-99825000D03*
%TO.P,D44,2,A*%
%TO.N,Net-(D44-A)*%
X215106250Y-97025000D03*
%TD*%
%TO.P,D2,1,K*%
%TO.N,ROW0*%
X67468750Y-42487500D03*
%TO.P,D2,2,A*%
%TO.N,Net-(D2-A)*%
X67468750Y-39687500D03*
%TD*%
D25*
%TO.P,C8,1*%
%TO.N,+3V3*%
X77012500Y-70643750D03*
%TO.P,C8,2*%
%TO.N,GND*%
X78562500Y-70643750D03*
%TD*%
D15*
%TO.P,D23,1,K*%
%TO.N,ROW1*%
X243681250Y-61725000D03*
%TO.P,D23,2,A*%
%TO.N,Net-(D23-A)*%
X243681250Y-58925000D03*
%TD*%
%TO.P,D1,1,K*%
%TO.N,ROW0*%
X43656250Y-42487500D03*
%TO.P,D1,2,A*%
%TO.N,Net-(D1-A)*%
X43656250Y-39687500D03*
%TD*%
%TO.P,D39,1,K*%
%TO.N,ROW3*%
X76993750Y-99825000D03*
%TO.P,D39,2,A*%
%TO.N,Net-(D39-A)*%
X76993750Y-97025000D03*
%TD*%
%TO.P,D30,1,K*%
%TO.N,ROW2*%
X138906250Y-80775000D03*
%TO.P,D30,2,A*%
%TO.N,Net-(D30-A)*%
X138906250Y-77975000D03*
%TD*%
D16*
%TO.P,LED14,1,DOUT*%
%TO.N,Net-(LED14-DOUT)*%
X248565000Y-33581250D03*
%TO.P,LED14,2,VSS*%
%TO.N,GND*%
X248565000Y-34681250D03*
%TO.P,LED14,3,DIN*%
%TO.N,Net-(LED13-DOUT)*%
X246735000Y-34681250D03*
%TO.P,LED14,4,VDD*%
%TO.N,+5V*%
X246735000Y-33581250D03*
%TD*%
D19*
%TO.P,LED18,1,DOUT*%
%TO.N,unconnected-(LED18-DOUT-Pad1)*%
X271060000Y-89815000D03*
%TO.P,LED18,2,VSS*%
%TO.N,GND*%
X269960000Y-89815000D03*
%TO.P,LED18,3,DIN*%
%TO.N,Net-(LED17-DOUT)*%
X269960000Y-87985000D03*
%TO.P,LED18,4,VDD*%
%TO.N,+5V*%
X271060000Y-87985000D03*
%TD*%
D26*
%TO.P,U2,1,VBAT*%
%TO.N,+3V3*%
X74737876Y-70848788D03*
%TO.P,U2,2,PC13*%
%TO.N,COL6*%
X74384322Y-71202342D03*
%TO.P,U2,3,PC14*%
%TO.N,COL5*%
X74030769Y-71555895D03*
%TO.P,U2,4,PC15*%
%TO.N,COL4*%
X73677215Y-71909449D03*
%TO.P,U2,5,PF0*%
%TO.N,COL3*%
X73323662Y-72263002D03*
%TO.P,U2,6,PF1*%
%TO.N,COL2*%
X72970109Y-72616555D03*
%TO.P,U2,7,NRST*%
%TO.N,NRST*%
X72616555Y-72970109D03*
%TO.P,U2,8,VSSA*%
%TO.N,GND*%
X72263002Y-73323662D03*
%TO.P,U2,9,VDDA*%
%TO.N,+3V3*%
X71909449Y-73677215D03*
%TO.P,U2,10,PA0*%
%TO.N,unconnected-(U2-PA0-Pad10)*%
X71555895Y-74030769D03*
%TO.P,U2,11,PA1*%
%TO.N,unconnected-(U2-PA1-Pad11)*%
X71202342Y-74384322D03*
%TO.P,U2,12,PA2*%
%TO.N,unconnected-(U2-PA2-Pad12)*%
X70848788Y-74737876D03*
D27*
%TO.P,U2,13,PA3*%
%TO.N,unconnected-(U2-PA3-Pad13)*%
X68851212Y-74737876D03*
%TO.P,U2,14,PA4*%
%TO.N,unconnected-(U2-PA4-Pad14)*%
X68497658Y-74384322D03*
%TO.P,U2,15,PA5*%
%TO.N,unconnected-(U2-PA5-Pad15)*%
X68144105Y-74030769D03*
%TO.P,U2,16,PA6*%
%TO.N,unconnected-(U2-PA6-Pad16)*%
X67790551Y-73677215D03*
%TO.P,U2,17,PA7*%
%TO.N,unconnected-(U2-PA7-Pad17)*%
X67436998Y-73323662D03*
%TO.P,U2,18,PB0*%
%TO.N,unconnected-(U2-PB0-Pad18)*%
X67083445Y-72970109D03*
%TO.P,U2,19,PB1*%
%TO.N,unconnected-(U2-PB1-Pad19)*%
X66729891Y-72616555D03*
%TO.P,U2,20,PB2*%
%TO.N,unconnected-(U2-PB2-Pad20)*%
X66376338Y-72263002D03*
%TO.P,U2,21,PB10*%
%TO.N,COL1*%
X66022785Y-71909449D03*
%TO.P,U2,22,PB11*%
%TO.N,COL0*%
X65669231Y-71555895D03*
%TO.P,U2,23,VSS*%
%TO.N,GND*%
X65315678Y-71202342D03*
%TO.P,U2,24,VDD*%
%TO.N,+3V3*%
X64962124Y-70848788D03*
D26*
%TO.P,U2,25,PB12*%
%TO.N,unconnected-(U2-PB12-Pad25)*%
X64962124Y-68851212D03*
%TO.P,U2,26,PB13*%
%TO.N,unconnected-(U2-PB13-Pad26)*%
X65315678Y-68497658D03*
%TO.P,U2,27,PB14*%
%TO.N,unconnected-(U2-PB14-Pad27)*%
X65669231Y-68144105D03*
%TO.P,U2,28,PB15*%
%TO.N,RGB MCU*%
X66022785Y-67790551D03*
%TO.P,U2,29,PA8*%
%TO.N,unconnected-(U2-PA8-Pad29)*%
X66376338Y-67436998D03*
%TO.P,U2,30,PA9*%
%TO.N,unconnected-(U2-PA9-Pad30)*%
X66729891Y-67083445D03*
%TO.P,U2,31,PA10*%
%TO.N,unconnected-(U2-PA10-Pad31)*%
X67083445Y-66729891D03*
%TO.P,U2,32,PA11*%
%TO.N,D_N*%
X67436998Y-66376338D03*
%TO.P,U2,33,PA12*%
%TO.N,D_P*%
X67790551Y-66022785D03*
%TO.P,U2,34,PA13*%
%TO.N,unconnected-(U2-PA13-Pad34)*%
X68144105Y-65669231D03*
%TO.P,U2,35,VSS*%
%TO.N,GND*%
X68497658Y-65315678D03*
%TO.P,U2,36,VDDIO2*%
%TO.N,+3V3*%
X68851212Y-64962124D03*
D27*
%TO.P,U2,37,PA14*%
%TO.N,ROW1*%
X70848788Y-64962124D03*
%TO.P,U2,38,PA15*%
%TO.N,ROW0*%
X71202342Y-65315678D03*
%TO.P,U2,39,PB3*%
%TO.N,ROW3*%
X71555895Y-65669231D03*
%TO.P,U2,40,PB4*%
%TO.N,ROW2*%
X71909449Y-66022785D03*
%TO.P,U2,41,PB5*%
%TO.N,COL11*%
X72263002Y-66376338D03*
%TO.P,U2,42,PB6*%
%TO.N,COL10*%
X72616555Y-66729891D03*
%TO.P,U2,43,PB7*%
%TO.N,COL9*%
X72970109Y-67083445D03*
%TO.P,U2,44,BOOT0*%
%TO.N,BOOT0*%
X73323662Y-67436998D03*
%TO.P,U2,45,PB8*%
%TO.N,COL8*%
X73677215Y-67790551D03*
%TO.P,U2,46,PB9*%
%TO.N,COL7*%
X74030769Y-68144105D03*
%TO.P,U2,47,VSS*%
%TO.N,GND*%
X74384322Y-68497658D03*
%TO.P,U2,48,VDD*%
%TO.N,+3V3*%
X74737876Y-68851212D03*
%TD*%
D19*
%TO.P,LED16,1,DOUT*%
%TO.N,Net-(LED16-DOUT)*%
X271060000Y-51715000D03*
%TO.P,LED16,2,VSS*%
%TO.N,GND*%
X269960000Y-51715000D03*
%TO.P,LED16,3,DIN*%
%TO.N,Net-(LED15-DOUT)*%
X269960000Y-49885000D03*
%TO.P,LED16,4,VDD*%
%TO.N,+5V*%
X271060000Y-49885000D03*
%TD*%
D15*
%TO.P,D8,1,K*%
%TO.N,ROW0*%
X181768750Y-42675000D03*
%TO.P,D8,2,A*%
%TO.N,Net-(D8-A)*%
X181768750Y-39875000D03*
%TD*%
D28*
%TO.P,U3,1,GND*%
%TO.N,GND*%
X60440000Y-59357500D03*
%TO.P,U3,2,VO*%
%TO.N,+3V3*%
X58540000Y-59357500D03*
%TO.P,U3,3,VI*%
%TO.N,+5V*%
X59490000Y-57482500D03*
%TD*%
D15*
%TO.P,D11,1,K*%
%TO.N,ROW0*%
X238918750Y-42675000D03*
%TO.P,D11,2,A*%
%TO.N,Net-(D11-A)*%
X238918750Y-39875000D03*
%TD*%
%TO.P,D25,1,K*%
%TO.N,ROW2*%
X50800000Y-80775000D03*
%TO.P,D25,2,A*%
%TO.N,Net-(D25-A)*%
X50800000Y-77975000D03*
%TD*%
D16*
%TO.P,LED15,1,DOUT*%
%TO.N,Net-(LED15-DOUT)*%
X269996250Y-34375000D03*
%TO.P,LED15,2,VSS*%
%TO.N,GND*%
X269996250Y-35475000D03*
%TO.P,LED15,3,DIN*%
%TO.N,Net-(LED14-DOUT)*%
X268166250Y-35475000D03*
%TO.P,LED15,4,VDD*%
%TO.N,+5V*%
X268166250Y-34375000D03*
%TD*%
%TO.P,LED4,1,DOUT*%
%TO.N,Net-(LED4-DOUT)*%
X31871250Y-34375000D03*
%TO.P,LED4,2,VSS*%
%TO.N,GND*%
X31871250Y-35475000D03*
%TO.P,LED4,3,DIN*%
%TO.N,Net-(LED3-DOUT)*%
X30041250Y-35475000D03*
%TO.P,LED4,4,VDD*%
%TO.N,+5V*%
X30041250Y-34375000D03*
%TD*%
D15*
%TO.P,D35,1,K*%
%TO.N,ROW2*%
X227806250Y-81568750D03*
%TO.P,D35,2,A*%
%TO.N,Net-(D35-A)*%
X227806250Y-78768750D03*
%TD*%
%TO.P,D12,1,K*%
%TO.N,ROW0*%
X262731250Y-42675000D03*
%TO.P,D12,2,A*%
%TO.N,Net-(D12-A)*%
X262731250Y-39875000D03*
%TD*%
%TO.P,D6,1,K*%
%TO.N,ROW0*%
X143668750Y-42675000D03*
%TO.P,D6,2,A*%
%TO.N,Net-(D6-A)*%
X143668750Y-39875000D03*
%TD*%
D29*
%TO.P,U1,1,I/O1*%
%TO.N,D_P*%
X221118613Y-50692270D03*
%TO.P,U1,2,GND*%
%TO.N,GND*%
X221118613Y-49742270D03*
%TO.P,U1,3,I/O2*%
%TO.N,D_N*%
X221118613Y-48792270D03*
%TO.P,U1,4,I/O2*%
%TO.N,D_USB_N*%
X223393613Y-48792270D03*
%TO.P,U1,5,VBUS*%
%TO.N,VBUS*%
X223393613Y-49742270D03*
%TO.P,U1,6,I/O1*%
%TO.N,D_USB_P*%
X223393613Y-50692270D03*
%TD*%
D15*
%TO.P,D17,1,K*%
%TO.N,ROW1*%
X129381250Y-61725000D03*
%TO.P,D17,2,A*%
%TO.N,Net-(D17-A)*%
X129381250Y-58925000D03*
%TD*%
%TO.P,D7,1,K*%
%TO.N,ROW0*%
X162718750Y-42675000D03*
%TO.P,D7,2,A*%
%TO.N,Net-(D7-A)*%
X162718750Y-39875000D03*
%TD*%
D16*
%TO.P,LED8,1,DOUT*%
%TO.N,Net-(LED8-DOUT)*%
X112833750Y-33581250D03*
%TO.P,LED8,2,VSS*%
%TO.N,GND*%
X112833750Y-34681250D03*
%TO.P,LED8,3,DIN*%
%TO.N,Net-(LED7-DOUT)*%
X111003750Y-34681250D03*
%TO.P,LED8,4,VDD*%
%TO.N,+5V*%
X111003750Y-33581250D03*
%TD*%
D30*
%TO.P,C2,1*%
%TO.N,GND*%
X60265808Y-61249873D03*
%TO.P,C2,2*%
%TO.N,+3V3*%
X58715808Y-61249873D03*
%TD*%
D15*
%TO.P,D5,1,K*%
%TO.N,ROW0*%
X124618750Y-42675000D03*
%TO.P,D5,2,A*%
%TO.N,Net-(D5-A)*%
X124618750Y-39875000D03*
%TD*%
%TO.P,D18,1,K*%
%TO.N,ROW1*%
X148431250Y-61725000D03*
%TO.P,D18,2,A*%
%TO.N,Net-(D18-A)*%
X148431250Y-58925000D03*
%TD*%
D31*
%TO.P,R3,1*%
%TO.N,BOOT0*%
X56356250Y-69087500D03*
%TO.P,R3,2*%
%TO.N,GND*%
X56356250Y-67437500D03*
%TD*%
D15*
%TO.P,D45,1,K*%
%TO.N,ROW3*%
X219075000Y-99825000D03*
%TO.P,D45,2,A*%
%TO.N,Net-(D45-A)*%
X219075000Y-97025000D03*
%TD*%
D32*
%TO.P,C5,1*%
%TO.N,+3V3*%
X66494471Y-64398395D03*
%TO.P,C5,2*%
%TO.N,GND*%
X67590487Y-63302379D03*
%TD*%
D15*
%TO.P,D14,1,K*%
%TO.N,ROW1*%
X72231250Y-61725000D03*
%TO.P,D14,2,A*%
%TO.N,Net-(D14-A)*%
X72231250Y-58925000D03*
%TD*%
D33*
%TO.P,C10,1*%
%TO.N,GND*%
X55024896Y-58799878D03*
%TO.P,C10,2*%
%TO.N,+5V*%
X55024896Y-57249878D03*
%TD*%
D34*
%TO.P,F1,1*%
%TO.N,VBUS*%
X224818750Y-40481250D03*
%TO.P,F1,2*%
%TO.N,+5V*%
X227618750Y-40481250D03*
%TD*%
D15*
%TO.P,D47,1,K*%
%TO.N,ROW3*%
X267493750Y-99825000D03*
%TO.P,D47,2,A*%
%TO.N,Net-(D47-A)*%
X267493750Y-97025000D03*
%TD*%
D16*
%TO.P,LED11,1,DOUT*%
%TO.N,Net-(LED11-DOUT)*%
X170777500Y-33581250D03*
%TO.P,LED11,2,VSS*%
%TO.N,GND*%
X170777500Y-34681250D03*
%TO.P,LED11,3,DIN*%
%TO.N,Net-(LED10-DOUT)*%
X168947500Y-34681250D03*
%TO.P,LED11,4,VDD*%
%TO.N,+5V*%
X168947500Y-33581250D03*
%TD*%
D14*
%TO.P,LED1,1,DOUT*%
%TO.N,Net-(LED1-DOUT)*%
X28660000Y-87985000D03*
%TO.P,LED1,2,VSS*%
%TO.N,GND*%
X29760000Y-87985000D03*
%TO.P,LED1,3,DIN*%
%TO.N,rgb underglow*%
X29760000Y-89815000D03*
%TO.P,LED1,4,VDD*%
%TO.N,+5V*%
X28660000Y-89815000D03*
%TD*%
D22*
%TO.P,C9,1*%
%TO.N,NRST*%
X71737281Y-77025116D03*
%TO.P,C9,2*%
%TO.N,GND*%
X71737281Y-78575116D03*
%TD*%
D15*
%TO.P,D46,1,K*%
%TO.N,ROW3*%
X248443750Y-99825000D03*
%TO.P,D46,2,A*%
%TO.N,Net-(D46-A)*%
X248443750Y-97025000D03*
%TD*%
%TO.P,D33,1,K*%
%TO.N,ROW2*%
X196056250Y-80775000D03*
%TO.P,D33,2,A*%
%TO.N,Net-(D33-A)*%
X196056250Y-77975000D03*
%TD*%
%TO.P,D43,1,K*%
%TO.N,ROW3*%
X179387500Y-99825000D03*
%TO.P,D43,2,A*%
%TO.N,Net-(D43-A)*%
X179387500Y-97025000D03*
%TD*%
%TO.P,D19,1,K*%
%TO.N,ROW1*%
X167481250Y-61725000D03*
%TO.P,D19,2,A*%
%TO.N,Net-(D19-A)*%
X167481250Y-58925000D03*
%TD*%
%TO.P,D37,1,K*%
%TO.N,ROW3*%
X43656250Y-99825000D03*
%TO.P,D37,2,A*%
%TO.N,Net-(D37-A)*%
X43656250Y-97025000D03*
%TD*%
D30*
%TO.P,C1,1*%
%TO.N,GND*%
X60265000Y-55457500D03*
%TO.P,C1,2*%
%TO.N,+5V*%
X58715000Y-55457500D03*
%TD*%
D25*
%TO.P,C6,1*%
%TO.N,+3V3*%
X77012500Y-68281250D03*
%TO.P,C6,2*%
%TO.N,GND*%
X78562500Y-68281250D03*
%TD*%
D32*
%TO.P,C3,1*%
%TO.N,+3V3*%
X65336300Y-63265551D03*
%TO.P,C3,2*%
%TO.N,GND*%
X66432316Y-62169535D03*
%TD*%
D35*
%TO.N,ROW0*%
X227806250Y-44450000D03*
X224635000Y-44450000D03*
%TO.N,ROW1*%
X71558211Y-63675454D03*
X54956738Y-63571782D03*
%TO.N,GND*%
X223837500Y-42862500D03*
X247684500Y-34925000D03*
X131003250Y-34925000D03*
X29883814Y-50642812D03*
X61383494Y-65360784D03*
X218273122Y-48819724D03*
X30990750Y-35718750D03*
X61335259Y-55462097D03*
X228041575Y-33343854D03*
X92903250Y-34925000D03*
X52411566Y-58375816D03*
X29883814Y-69692812D03*
X29883814Y-88865500D03*
X269875000Y-69884500D03*
X269115750Y-35718750D03*
X55007705Y-60122198D03*
X73853250Y-34925000D03*
X269875000Y-88934500D03*
X244475000Y-38100000D03*
X111953250Y-34925000D03*
X52422000Y-34925000D03*
X219874863Y-49742270D03*
X68408159Y-70640483D03*
X57354816Y-54768750D03*
X65570925Y-61316672D03*
X269875000Y-50834500D03*
X206409500Y-34925000D03*
X79670438Y-68278415D03*
X150053250Y-35718750D03*
X61475875Y-61238510D03*
X188153250Y-34925000D03*
X55405816Y-54768750D03*
X68830511Y-78563503D03*
X169897000Y-34925000D03*
X56445750Y-66353872D03*
X218281250Y-50800000D03*
%TO.N,+5V*%
X55025604Y-56208449D03*
X269046750Y-34131250D03*
X149984250Y-34131250D03*
X227618366Y-38893750D03*
X57354816Y-57173331D03*
X52353000Y-33337500D03*
X188084250Y-33337500D03*
X247615500Y-33337500D03*
X28575000Y-50834500D03*
X169828000Y-33337500D03*
X73784250Y-33337500D03*
X28575000Y-69884500D03*
X271188102Y-88843284D03*
X92834250Y-33337500D03*
X130934250Y-33337500D03*
X28575000Y-88934500D03*
X30921750Y-34131250D03*
X111884250Y-33337500D03*
X271175292Y-50765500D03*
X206340500Y-33337500D03*
X271164078Y-69815500D03*
%TO.N,+3V3*%
X69850000Y-64293750D03*
X69850000Y-75406250D03*
X63500000Y-69056250D03*
X75828969Y-69056250D03*
X75828969Y-70643750D03*
%TO.N,VBUS*%
X231805189Y-31791019D03*
%TO.N,/CC1*%
X237331250Y-33037500D03*
%TO.N,D_USB_P*%
X233362500Y-32243750D03*
%TO.N,D_USB_N*%
X233334389Y-33825379D03*
%TO.N,/CC2*%
X232568750Y-33037500D03*
%TO.N,BOOT0*%
X71850104Y-68930176D03*
X61912500Y-69056250D03*
%TO.N,Net-(LED13-DOUT)*%
X223871660Y-32817034D03*
X242122573Y-32818685D03*
%TO.N,Net-(LED15-DOUT)*%
X270885250Y-40481250D03*
X270495777Y-49011973D03*
%TO.N,Net-(LED16-DOUT)*%
X270885250Y-53181250D03*
X270668750Y-67468750D03*
%TO.N,Net-(LED17-DOUT)*%
X269960000Y-87218558D03*
X269081250Y-71531750D03*
%TD*%
D36*
%TO.N,ROW0*%
X125412500Y-44450000D02*
X144462500Y-44450000D01*
X182562500Y-44450000D02*
X201612500Y-44450000D01*
X86518750Y-42487500D02*
X86518750Y-42827823D01*
X105568750Y-42675000D02*
X105568750Y-42827823D01*
X68268675Y-44443825D02*
X46441002Y-44443825D01*
X200818750Y-42675000D02*
X200818750Y-42827823D01*
X163512500Y-44450000D02*
X164306250Y-44450000D01*
D37*
X240381985Y-65010000D02*
X240630515Y-65010000D01*
D36*
X201612500Y-44450000D02*
X220662500Y-44450000D01*
X67468750Y-42487500D02*
X67468750Y-42815473D01*
X262731250Y-42862500D02*
X261729536Y-43864214D01*
X227806250Y-44450000D02*
X239712500Y-44450000D01*
X260315323Y-44450000D02*
X239712500Y-44450000D01*
D37*
X264194485Y-65010000D02*
X264508911Y-65010000D01*
D36*
X87104537Y-44242037D02*
X87312500Y-44450000D01*
X143668750Y-42675000D02*
X143668750Y-42827823D01*
X238918750Y-42675000D02*
X238918750Y-42827823D01*
X46441002Y-44443825D02*
X46434827Y-44437650D01*
D37*
X272470461Y-64434389D02*
X272470461Y-45042157D01*
X81119155Y-64687421D02*
X82082047Y-65650313D01*
D36*
X224635000Y-44450000D02*
X220662500Y-44450000D01*
X239504537Y-44242037D02*
X239712500Y-44450000D01*
X182354537Y-44242037D02*
X182562500Y-44450000D01*
X164306250Y-44450000D02*
X182562500Y-44450000D01*
X125412500Y-44450000D02*
X107156250Y-44450000D01*
X163304537Y-44242037D02*
X163512500Y-44450000D01*
X106154537Y-44242037D02*
X106362500Y-44450000D01*
X68054537Y-44229687D02*
X68262500Y-44437650D01*
X87312500Y-44450000D02*
X107156250Y-44450000D01*
D37*
X242044729Y-65595787D02*
X242099256Y-65650314D01*
D36*
X144462500Y-44450000D02*
X164306250Y-44450000D01*
X219868750Y-42675000D02*
X219868750Y-42827823D01*
X68274850Y-44450000D02*
X87312500Y-44450000D01*
D37*
X262731250Y-42675000D02*
X262731250Y-42862500D01*
X265923125Y-65595787D02*
X265977652Y-65650314D01*
D36*
X124618750Y-42675000D02*
X124618750Y-42827823D01*
X68268675Y-44443825D02*
X68274850Y-44450000D01*
D37*
X238913245Y-65650313D02*
X238967772Y-65595786D01*
X267391865Y-66236100D02*
X270668750Y-66236100D01*
D36*
X68262500Y-44437650D02*
X68268675Y-44443825D01*
D37*
X271698304Y-44270000D02*
X264967177Y-44270000D01*
D36*
X201404537Y-44242037D02*
X201612500Y-44450000D01*
X125204537Y-44242037D02*
X125412500Y-44450000D01*
D37*
X71202342Y-65315678D02*
X71638484Y-64879536D01*
X83496261Y-66236100D02*
X237499031Y-66236100D01*
D36*
X106362500Y-44450000D02*
X107156250Y-44450000D01*
D37*
X263552964Y-43684214D02*
X262731250Y-42862500D01*
D36*
X220454537Y-44242037D02*
X220662500Y-44450000D01*
X45020613Y-43851863D02*
X43656250Y-42487500D01*
X162718750Y-42675000D02*
X162718750Y-42827823D01*
X181768750Y-42675000D02*
X181768750Y-42827823D01*
D37*
X243513469Y-66236100D02*
X261311531Y-66236100D01*
X73052697Y-64293750D02*
X80168750Y-64293750D01*
X262725745Y-65650313D02*
X262780272Y-65595786D01*
D36*
X144254537Y-44242037D02*
X144462500Y-44450000D01*
D37*
X82082066Y-65650294D02*
G75*
G03*
X83496261Y-66236100I1414234J1414194D01*
G01*
D36*
X219868720Y-42827823D02*
G75*
G03*
X220454538Y-44242036I1999980J23D01*
G01*
D37*
X264194485Y-65009990D02*
G75*
G03*
X262780272Y-65595786I15J-2000010D01*
G01*
X272470500Y-45042157D02*
G75*
G03*
X271698304Y-44270000I-772200J-43D01*
G01*
D36*
X124618720Y-42827823D02*
G75*
G03*
X125204538Y-44242036I1999980J23D01*
G01*
X162718720Y-42827823D02*
G75*
G03*
X163304538Y-44242036I1999980J23D01*
G01*
D37*
X265977669Y-65650297D02*
G75*
G03*
X267391865Y-66236100I1414231J1414197D01*
G01*
D36*
X260315323Y-44450016D02*
G75*
G03*
X261729536Y-43864214I-23J2000016D01*
G01*
X181768720Y-42827823D02*
G75*
G03*
X182354538Y-44242036I1999980J23D01*
G01*
X200818720Y-42827823D02*
G75*
G03*
X201404538Y-44242036I1999980J23D01*
G01*
D37*
X240381985Y-65009990D02*
G75*
G03*
X238967772Y-65595786I15J-2000010D01*
G01*
D36*
X105568720Y-42827823D02*
G75*
G03*
X106154538Y-44242036I1999980J23D01*
G01*
D37*
X261311531Y-66236121D02*
G75*
G03*
X262725744Y-65650312I-31J2000021D01*
G01*
D36*
X143668720Y-42827823D02*
G75*
G03*
X144254538Y-44242036I1999980J23D01*
G01*
D37*
X73052697Y-64293734D02*
G75*
G03*
X71638484Y-64879536I3J-1999966D01*
G01*
X242099271Y-65650299D02*
G75*
G03*
X243513469Y-66236100I1414229J1414199D01*
G01*
X270668750Y-66236161D02*
G75*
G03*
X272470461Y-64434389I-50J1801761D01*
G01*
X263552975Y-43684203D02*
G75*
G03*
X264967177Y-44270000I1414225J1414203D01*
G01*
X237499031Y-66236121D02*
G75*
G03*
X238913244Y-65650312I-31J2000021D01*
G01*
D36*
X45020610Y-43851866D02*
G75*
G03*
X46434827Y-44437650I1414190J1414166D01*
G01*
D37*
X81119125Y-64687451D02*
G75*
G03*
X80168750Y-64293750I-950425J-950349D01*
G01*
D36*
X86518720Y-42827823D02*
G75*
G03*
X87104538Y-44242036I1999980J23D01*
G01*
X238918720Y-42827823D02*
G75*
G03*
X239504538Y-44242036I1999980J23D01*
G01*
X67468755Y-42815473D02*
G75*
G03*
X68054537Y-44229687I1999945J-27D01*
G01*
D37*
X265923120Y-65595792D02*
G75*
G03*
X264508911Y-65010000I-1414220J-1414208D01*
G01*
X242044722Y-65595794D02*
G75*
G03*
X240630515Y-65010000I-1414222J-1414206D01*
G01*
D36*
%TO.N,Net-(D1-A)*%
X43656250Y-37728025D02*
X43656250Y-39687500D01*
X43656224Y-37728025D02*
G75*
G03*
X43021249Y-36195001I-2168024J25D01*
G01*
%TO.N,Net-(D2-A)*%
X67468750Y-37658427D02*
X67468750Y-39081250D01*
X66833750Y-36195000D02*
X66882964Y-36244214D01*
X67468745Y-37658427D02*
G75*
G03*
X66882964Y-36244214I-1999945J27D01*
G01*
%TO.N,Net-(D3-A)*%
X85883750Y-36195000D02*
X85932964Y-36244214D01*
X86518750Y-37658427D02*
X86518750Y-39081250D01*
X86518745Y-37658427D02*
G75*
G03*
X85932964Y-36244214I-1999945J27D01*
G01*
%TO.N,Net-(D4-A)*%
X104933750Y-36195000D02*
X104982964Y-36244214D01*
X105568750Y-37658427D02*
X105568750Y-39268750D01*
X105568745Y-37658427D02*
G75*
G03*
X104982964Y-36244214I-1999945J27D01*
G01*
%TO.N,Net-(D5-A)*%
X123983750Y-36195000D02*
X124032964Y-36244214D01*
X124618750Y-37658427D02*
X124618750Y-39268750D01*
X124618745Y-37658427D02*
G75*
G03*
X124032964Y-36244214I-1999945J27D01*
G01*
%TO.N,Net-(D6-A)*%
X143033750Y-36195000D02*
X143082964Y-36244214D01*
X143668750Y-37658427D02*
X143668750Y-39268750D01*
X143668745Y-37658427D02*
G75*
G03*
X143082964Y-36244214I-1999945J27D01*
G01*
%TO.N,Net-(D7-A)*%
X162718750Y-37658427D02*
X162718750Y-39268750D01*
X162083750Y-36195000D02*
X162132964Y-36244214D01*
X162718745Y-37658427D02*
G75*
G03*
X162132964Y-36244214I-1999945J27D01*
G01*
%TO.N,Net-(D8-A)*%
X181768750Y-37658427D02*
X181768750Y-39268750D01*
X181133750Y-36195000D02*
X181182964Y-36244214D01*
X181768745Y-37658427D02*
G75*
G03*
X181182964Y-36244214I-1999945J27D01*
G01*
%TO.N,Net-(D9-A)*%
X200818750Y-37658427D02*
X200818750Y-39268750D01*
X200183750Y-36195000D02*
X200232964Y-36244214D01*
X200818745Y-37658427D02*
G75*
G03*
X200232964Y-36244214I-1999945J27D01*
G01*
%TO.N,Net-(D10-A)*%
X219233750Y-36195000D02*
X219282964Y-36244214D01*
X219868750Y-37658427D02*
X219868750Y-39268750D01*
X219868745Y-37658427D02*
G75*
G03*
X219282964Y-36244214I-1999945J27D01*
G01*
%TO.N,Net-(D11-A)*%
X238918750Y-37658427D02*
X238918750Y-39268750D01*
X238283750Y-36195000D02*
X238332964Y-36244214D01*
X238918745Y-37658427D02*
G75*
G03*
X238332964Y-36244214I-1999945J27D01*
G01*
%TO.N,Net-(D12-A)*%
X262731250Y-37658427D02*
X262731250Y-39268750D01*
X262096250Y-36195000D02*
X262145464Y-36244214D01*
X262731245Y-37658427D02*
G75*
G03*
X262145464Y-36244214I-1999945J27D01*
G01*
%TO.N,ROW1*%
X187325000Y-63675150D02*
X206375000Y-63675150D01*
X111125000Y-63675150D02*
X130175000Y-63675150D01*
X225425000Y-63675150D02*
X240902673Y-63675150D01*
X205581250Y-61725000D02*
X205581250Y-62052973D01*
X149017037Y-63467187D02*
X149225000Y-63675150D01*
X92075000Y-63675150D02*
X111125000Y-63675150D01*
X129967037Y-63467187D02*
X130175000Y-63675150D01*
X91867037Y-63467187D02*
X92075000Y-63675150D01*
X47132964Y-63007964D02*
X46037500Y-61912500D01*
X148431250Y-61725000D02*
X148431250Y-62052973D01*
X110331250Y-61725000D02*
X110331250Y-62052973D01*
X110917037Y-63467187D02*
X111125000Y-63675150D01*
X149225000Y-63675150D02*
X167481250Y-63675150D01*
X242316887Y-63089363D02*
X243681250Y-61725000D01*
X72817037Y-63467187D02*
X73025000Y-63675150D01*
X168067037Y-63467187D02*
X168275000Y-63675150D01*
X130175000Y-63675150D02*
X149225000Y-63675150D01*
X74612500Y-63675150D02*
X71558515Y-63675150D01*
X186531250Y-61725000D02*
X186531250Y-62052973D01*
X129381250Y-61725000D02*
X129381250Y-62052973D01*
D37*
X70848788Y-64962124D02*
X71549976Y-64260936D01*
D36*
X206375000Y-63675150D02*
X225425000Y-63675150D01*
X243681250Y-61725000D02*
X246804991Y-64848741D01*
X262176260Y-64848740D02*
X265112500Y-61912500D01*
X54903703Y-63593750D02*
X48547177Y-63593750D01*
X225217037Y-63467187D02*
X225425000Y-63675150D01*
X224631250Y-61725000D02*
X224631250Y-62052973D01*
X167481250Y-61725000D02*
X167481250Y-62052973D01*
X206167037Y-63467187D02*
X206375000Y-63675150D01*
X167481250Y-63675150D02*
X168275000Y-63675150D01*
X91281250Y-61725000D02*
X91281250Y-62052973D01*
X72231250Y-61725000D02*
X72231250Y-62052973D01*
X71558515Y-63675150D02*
X71558211Y-63675454D01*
D37*
X72964189Y-63675150D02*
X73025000Y-63675150D01*
D36*
X74612500Y-63675150D02*
X92075000Y-63675150D01*
X73025000Y-63675150D02*
X74612500Y-63675150D01*
X187117037Y-63467187D02*
X187325000Y-63675150D01*
X248219204Y-65434527D02*
X260762046Y-65434527D01*
X167481250Y-63675150D02*
X187325000Y-63675150D01*
X54903703Y-63593738D02*
G75*
G03*
X54956738Y-63571782I-3J75038D01*
G01*
X72231255Y-62052973D02*
G75*
G03*
X72817037Y-63467187I1999945J-27D01*
G01*
X167481255Y-62052973D02*
G75*
G03*
X168067037Y-63467187I1999945J-27D01*
G01*
X110331255Y-62052973D02*
G75*
G03*
X110917037Y-63467187I1999945J-27D01*
G01*
X246804983Y-64848749D02*
G75*
G03*
X248219204Y-65434527I1414217J1414249D01*
G01*
X148431255Y-62052973D02*
G75*
G03*
X149017037Y-63467187I1999945J-27D01*
G01*
X47132986Y-63007942D02*
G75*
G03*
X48547177Y-63593750I1414214J1414142D01*
G01*
X260762046Y-65434551D02*
G75*
G03*
X262176260Y-64848740I-46J2000051D01*
G01*
X224631255Y-62052973D02*
G75*
G03*
X225217037Y-63467187I1999945J-27D01*
G01*
X240902673Y-63675145D02*
G75*
G03*
X242316887Y-63089363I27J1999945D01*
G01*
D37*
X72964189Y-63675128D02*
G75*
G03*
X71549976Y-64260936I11J-1999972D01*
G01*
D36*
X186531255Y-62052973D02*
G75*
G03*
X187117037Y-63467187I1999945J-27D01*
G01*
X205581255Y-62052973D02*
G75*
G03*
X206167037Y-63467187I1999945J-27D01*
G01*
X129381255Y-62052973D02*
G75*
G03*
X129967037Y-63467187I1999945J-27D01*
G01*
X91281255Y-62052973D02*
G75*
G03*
X91867037Y-63467187I1999945J-27D01*
G01*
%TO.N,Net-(D13-A)*%
X40640000Y-55245000D02*
X45402500Y-55245000D01*
X46037500Y-56708427D02*
X46037500Y-58925000D01*
X45402500Y-55245000D02*
X45451714Y-55294214D01*
X46037480Y-56708427D02*
G75*
G03*
X45451713Y-55294215I-1999980J27D01*
G01*
%TO.N,Net-(D14-A)*%
X71596250Y-55245000D02*
X71645464Y-55294214D01*
X72231250Y-56708427D02*
X72231250Y-58925000D01*
X72231245Y-56708427D02*
G75*
G03*
X71645464Y-55294214I-1999945J27D01*
G01*
%TO.N,Net-(D15-A)*%
X91281250Y-56708427D02*
X91281250Y-58925000D01*
X90646250Y-55245000D02*
X90695464Y-55294214D01*
X91281245Y-56708427D02*
G75*
G03*
X90695464Y-55294214I-1999945J27D01*
G01*
%TO.N,Net-(D16-A)*%
X109696250Y-55245000D02*
X109745464Y-55294214D01*
X110331250Y-56708427D02*
X110331250Y-58925000D01*
X110331245Y-56708427D02*
G75*
G03*
X109745464Y-55294214I-1999945J27D01*
G01*
%TO.N,Net-(D17-A)*%
X128746250Y-55245000D02*
X128795464Y-55294214D01*
X129381250Y-56708427D02*
X129381250Y-58925000D01*
X129381245Y-56708427D02*
G75*
G03*
X128795464Y-55294214I-1999945J27D01*
G01*
%TO.N,Net-(D18-A)*%
X147796250Y-55245000D02*
X147845464Y-55294214D01*
X148431250Y-56708427D02*
X148431250Y-58925000D01*
X148431245Y-56708427D02*
G75*
G03*
X147845464Y-55294214I-1999945J27D01*
G01*
%TO.N,Net-(D19-A)*%
X167481250Y-56708427D02*
X167481250Y-58925000D01*
X166846250Y-55245000D02*
X166895464Y-55294214D01*
X167481245Y-56708427D02*
G75*
G03*
X166895464Y-55294214I-1999945J27D01*
G01*
%TO.N,Net-(D20-A)*%
X186531250Y-56708427D02*
X186531250Y-58925000D01*
X185896250Y-55245000D02*
X185945464Y-55294214D01*
X186531245Y-56708427D02*
G75*
G03*
X185945464Y-55294214I-1999945J27D01*
G01*
%TO.N,Net-(D21-A)*%
X205581250Y-56708427D02*
X205581250Y-58925000D01*
X204946250Y-55245000D02*
X204995464Y-55294214D01*
X205581245Y-56708427D02*
G75*
G03*
X204995464Y-55294214I-1999945J27D01*
G01*
%TO.N,Net-(D22-A)*%
X223996250Y-55245000D02*
X224045464Y-55294214D01*
X224631250Y-56708427D02*
X224631250Y-58925000D01*
X224631245Y-56708427D02*
G75*
G03*
X224045464Y-55294214I-1999945J27D01*
G01*
%TO.N,Net-(D23-A)*%
X243681250Y-56708427D02*
X243681250Y-58925000D01*
X243046250Y-55245000D02*
X243095464Y-55294214D01*
X243681245Y-56708427D02*
G75*
G03*
X243095464Y-55294214I-1999945J27D01*
G01*
%TO.N,Net-(D24-A)*%
X265112500Y-59112500D02*
X265112500Y-55880000D01*
X265112500Y-55880000D02*
X264897500Y-55665000D01*
X255372500Y-55665000D02*
X264897500Y-55665000D01*
X254952500Y-55245000D02*
X255372500Y-55665000D01*
X264897500Y-55665000D02*
X264477500Y-55665000D01*
%TO.N,ROW2*%
X120650000Y-82725150D02*
X139700000Y-82725150D01*
X100806250Y-80775000D02*
X100806250Y-81102973D01*
X63500000Y-82725150D02*
X82550000Y-82725150D01*
X177800000Y-82725150D02*
X196850000Y-82725150D01*
X266129387Y-82139363D02*
X267493750Y-80775000D01*
X138906250Y-80775000D02*
X138906250Y-81102973D01*
X158542037Y-82517187D02*
X158750000Y-82725150D01*
X158750000Y-82725150D02*
X177800000Y-82725150D01*
D37*
X73666911Y-65093750D02*
X79565687Y-65093750D01*
D36*
X177592037Y-82517187D02*
X177800000Y-82725150D01*
X53577479Y-82727631D02*
X63494011Y-82727631D01*
X196642037Y-82517187D02*
X196850000Y-82725150D01*
X82550000Y-82725150D02*
X101600000Y-82725150D01*
X101600000Y-82725150D02*
X120650000Y-82725150D01*
D37*
X256753286Y-71859214D02*
X258200686Y-70411814D01*
X71909449Y-66022785D02*
X72252697Y-65679537D01*
D36*
X139700000Y-82725150D02*
X158750000Y-82725150D01*
D37*
X269175000Y-82456250D02*
X267493750Y-80775000D01*
D36*
X227806250Y-81568750D02*
X227806250Y-81931400D01*
X139492037Y-82517187D02*
X139700000Y-82725150D01*
X215106250Y-80775000D02*
X215106250Y-81102973D01*
D37*
X241319216Y-72445000D02*
X255339073Y-72445000D01*
D36*
X215900000Y-82725150D02*
X228600000Y-82725150D01*
X50786552Y-80765131D02*
X52163266Y-82141845D01*
D37*
X271080231Y-82737500D02*
X269853997Y-82737500D01*
D36*
X120442037Y-82517187D02*
X120650000Y-82725150D01*
D37*
X260935786Y-70435786D02*
X262545463Y-72045463D01*
D36*
X62706250Y-80775000D02*
X62706250Y-81102973D01*
X177006250Y-80775000D02*
X177006250Y-81102973D01*
D37*
X266117037Y-82151713D02*
X267493750Y-80775000D01*
D36*
X81756250Y-80775000D02*
X81756250Y-81102973D01*
X196850000Y-82725150D02*
X215900000Y-82725150D01*
X227806250Y-81931400D02*
X228600000Y-82725150D01*
X196056250Y-80775000D02*
X196056250Y-81102973D01*
X119856250Y-80775000D02*
X119856250Y-81102973D01*
D37*
X83164891Y-67036100D02*
X234307952Y-67036100D01*
X80979900Y-65679536D02*
X81750677Y-66450313D01*
D36*
X82342037Y-82517187D02*
X82550000Y-82725150D01*
X157956250Y-80775000D02*
X157956250Y-81102973D01*
D37*
X272061481Y-73818750D02*
X272061481Y-81756250D01*
X263959677Y-72631250D02*
X270873981Y-72631250D01*
D36*
X228600000Y-82725150D02*
X264715173Y-82725150D01*
D37*
X235629144Y-67583356D02*
X239905002Y-71859213D01*
D36*
X101392037Y-82517187D02*
X101600000Y-82725150D01*
X215692037Y-82517187D02*
X215900000Y-82725150D01*
X63292037Y-82517187D02*
X63500000Y-82725150D01*
D37*
X73666911Y-65093744D02*
G75*
G03*
X72252698Y-65679538I-11J-1999956D01*
G01*
X239904994Y-71859221D02*
G75*
G03*
X241319216Y-72445000I1414206J1414221D01*
G01*
X80979896Y-65679540D02*
G75*
G03*
X79565687Y-65093750I-1414196J-1414160D01*
G01*
D36*
X63494011Y-82727650D02*
G75*
G03*
X63500000Y-82725150I-11J8450D01*
G01*
X264715173Y-82725145D02*
G75*
G03*
X266129387Y-82139363I27J1999945D01*
G01*
D37*
X259556250Y-69850293D02*
G75*
G03*
X258200687Y-70411815I50J-1917107D01*
G01*
X272061550Y-73818750D02*
G75*
G03*
X270873981Y-72631250I-1187550J-50D01*
G01*
X271080231Y-82737581D02*
G75*
G03*
X272061481Y-81756250I-31J981281D01*
G01*
D36*
X81756255Y-81102973D02*
G75*
G03*
X82342037Y-82517187I1999945J-27D01*
G01*
X138906255Y-81102973D02*
G75*
G03*
X139492037Y-82517187I1999945J-27D01*
G01*
D37*
X264702823Y-82737516D02*
G75*
G03*
X266117037Y-82151713I-23J2000016D01*
G01*
X235629158Y-67583342D02*
G75*
G03*
X234307952Y-67036100I-1321158J-1321158D01*
G01*
X255339073Y-72444980D02*
G75*
G03*
X256753285Y-71859213I27J1999980D01*
G01*
D36*
X177006255Y-81102973D02*
G75*
G03*
X177592037Y-82517187I1999945J-27D01*
G01*
D37*
X262545485Y-72045441D02*
G75*
G03*
X263959677Y-72631250I1414215J1414141D01*
G01*
X269175011Y-82456239D02*
G75*
G03*
X269853997Y-82737500I678989J678939D01*
G01*
D36*
X196056255Y-81102973D02*
G75*
G03*
X196642037Y-82517187I1999945J-27D01*
G01*
X52163270Y-82141841D02*
G75*
G03*
X53577479Y-82727631I1414230J1414241D01*
G01*
X62706255Y-81102973D02*
G75*
G03*
X63292037Y-82517187I1999945J-27D01*
G01*
X157956255Y-81102973D02*
G75*
G03*
X158542037Y-82517187I1999945J-27D01*
G01*
X119856255Y-81102973D02*
G75*
G03*
X120442037Y-82517187I1999945J-27D01*
G01*
D37*
X81750681Y-66450309D02*
G75*
G03*
X83164891Y-67036100I1414219J1414209D01*
G01*
D36*
X100806255Y-81102973D02*
G75*
G03*
X101392037Y-82517187I1999945J-27D01*
G01*
D37*
X260935800Y-70435772D02*
G75*
G03*
X259521573Y-69850000I-1414200J-1414228D01*
G01*
D36*
X215106255Y-81102973D02*
G75*
G03*
X215692037Y-82517187I1999945J-27D01*
G01*
%TO.N,Net-(D25-A)*%
X40640000Y-74295000D02*
X50165000Y-74295000D01*
X50800000Y-75758427D02*
X50800000Y-77975000D01*
X50165000Y-74295000D02*
X50214214Y-74344214D01*
X50799980Y-75758427D02*
G75*
G03*
X50214213Y-74344215I-1999980J27D01*
G01*
%TO.N,Net-(D26-A)*%
X62706250Y-75758427D02*
X62706250Y-77975000D01*
X62071250Y-74295000D02*
X62120464Y-74344214D01*
X62706245Y-75758427D02*
G75*
G03*
X62120464Y-74344214I-1999945J27D01*
G01*
%TO.N,Net-(D27-A)*%
X81756250Y-75758427D02*
X81756250Y-77975000D01*
X81121250Y-74295000D02*
X81170464Y-74344214D01*
X81756245Y-75758427D02*
G75*
G03*
X81170464Y-74344214I-1999945J27D01*
G01*
%TO.N,Net-(D28-A)*%
X100171250Y-74295000D02*
X100220464Y-74344214D01*
X100806250Y-75758427D02*
X100806250Y-77975000D01*
X100806245Y-75758427D02*
G75*
G03*
X100220464Y-74344214I-1999945J27D01*
G01*
%TO.N,Net-(D29-A)*%
X119221250Y-74295000D02*
X119270464Y-74344214D01*
X119856250Y-75758427D02*
X119856250Y-77975000D01*
X119856245Y-75758427D02*
G75*
G03*
X119270464Y-74344214I-1999945J27D01*
G01*
%TO.N,Net-(D30-A)*%
X138271250Y-74295000D02*
X138320464Y-74344214D01*
X138906250Y-75758427D02*
X138906250Y-77975000D01*
X138906245Y-75758427D02*
G75*
G03*
X138320464Y-74344214I-1999945J27D01*
G01*
%TO.N,Net-(D31-A)*%
X157956250Y-75758427D02*
X157956250Y-77975000D01*
X157321250Y-74295000D02*
X157370464Y-74344214D01*
X157956245Y-75758427D02*
G75*
G03*
X157370464Y-74344214I-1999945J27D01*
G01*
%TO.N,Net-(D32-A)*%
X176371250Y-74295000D02*
X176420464Y-74344214D01*
X177006250Y-75758427D02*
X177006250Y-77975000D01*
X177006245Y-75758427D02*
G75*
G03*
X176420464Y-74344214I-1999945J27D01*
G01*
%TO.N,Net-(D33-A)*%
X196056250Y-75758427D02*
X196056250Y-77975000D01*
X195421250Y-74295000D02*
X195470464Y-74344214D01*
X196056245Y-75758427D02*
G75*
G03*
X195470464Y-74344214I-1999945J27D01*
G01*
%TO.N,Net-(D34-A)*%
X215106250Y-75758427D02*
X215106250Y-77975000D01*
X214471250Y-74295000D02*
X214520464Y-74344214D01*
X215106245Y-75758427D02*
G75*
G03*
X214520464Y-74344214I-1999945J27D01*
G01*
%TO.N,Net-(D35-A)*%
X233521250Y-74295000D02*
X233941250Y-74715000D01*
X231694213Y-74880787D02*
X227806250Y-78768750D01*
X233941250Y-74715000D02*
X240245000Y-74715000D01*
X233521250Y-74295000D02*
X233108427Y-74295000D01*
X240245000Y-74715000D02*
X240665000Y-74295000D01*
X233108427Y-74295020D02*
G75*
G03*
X231694214Y-74880788I-27J-1999980D01*
G01*
%TO.N,Net-(D36-A)*%
X267493750Y-75758427D02*
X267493750Y-77975000D01*
X266858750Y-74295000D02*
X266907964Y-74344214D01*
X266858750Y-74295000D02*
X266438750Y-74715000D01*
X266438750Y-74715000D02*
X260135000Y-74715000D01*
X250190000Y-74295000D02*
X250610000Y-74715000D01*
X250610000Y-74715000D02*
X260135000Y-74715000D01*
X267493745Y-75758427D02*
G75*
G03*
X266907964Y-74344214I-1999945J27D01*
G01*
%TO.N,ROW3*%
X43656250Y-99825000D02*
X45032964Y-101201714D01*
D37*
X71945589Y-65279537D02*
X71555895Y-65669231D01*
D36*
X77579537Y-101579537D02*
X77787500Y-101787500D01*
X219868750Y-101775150D02*
X249237500Y-101775150D01*
D37*
X262711149Y-71645463D02*
X261101472Y-70035786D01*
D36*
X153779537Y-101579537D02*
X153987500Y-101787500D01*
X249029537Y-101567187D02*
X249237500Y-101775150D01*
D37*
X234456486Y-66638421D02*
X234307956Y-66636100D01*
D36*
X153987500Y-101787500D02*
X132556250Y-101787500D01*
X165112350Y-101775150D02*
X180181250Y-101775150D01*
D37*
X81916361Y-66050313D02*
X80958024Y-65091976D01*
X259687259Y-69450000D02*
X259425242Y-69450000D01*
D36*
X48418750Y-101787500D02*
X46447177Y-101787500D01*
X180181250Y-101775150D02*
X215900000Y-101775150D01*
X219075000Y-99825000D02*
X219075000Y-99858868D01*
X48418750Y-101787500D02*
X77787500Y-101787500D01*
D37*
X272461481Y-99994769D02*
X272461481Y-73681725D01*
D36*
X179973287Y-101567187D02*
X180181250Y-101775150D01*
X96043750Y-99825000D02*
X96043750Y-100165323D01*
X47625000Y-99825000D02*
X47625000Y-99871218D01*
X131762500Y-99825000D02*
X131762500Y-100165323D01*
D37*
X258011029Y-70035786D02*
X256587600Y-71459214D01*
X240070689Y-71459214D02*
X235668850Y-67057375D01*
D36*
X96837500Y-101787500D02*
X77787500Y-101787500D01*
X165100000Y-101787500D02*
X165112350Y-101775150D01*
X249237500Y-101775150D02*
X264902673Y-101775150D01*
D37*
X234657406Y-66638421D02*
X234456486Y-66638421D01*
X79996622Y-64693750D02*
X73359803Y-64693750D01*
D36*
X153193750Y-99825000D02*
X153193750Y-100165323D01*
X248443750Y-99825000D02*
X248443750Y-100152973D01*
D37*
X255173387Y-72045000D02*
X241484902Y-72045000D01*
X269909677Y-101787500D02*
X270668750Y-101787500D01*
D36*
X132556250Y-101787500D02*
X96837500Y-101787500D01*
X215106250Y-99825000D02*
X215106250Y-99858868D01*
X76993750Y-99825000D02*
X76993750Y-100165323D01*
D37*
X271011006Y-72231250D02*
X264125363Y-72231250D01*
X234307956Y-66636100D02*
X83330575Y-66636100D01*
D36*
X215900000Y-101775150D02*
X219868750Y-101775150D01*
X96629537Y-101579537D02*
X96837500Y-101787500D01*
D37*
X267493750Y-100012500D02*
X267493750Y-100200000D01*
D36*
X266316887Y-101189363D02*
X267493750Y-100012500D01*
X165100000Y-101787500D02*
X153987500Y-101787500D01*
D37*
X267493750Y-100200000D02*
X268495464Y-101201714D01*
D36*
X179387500Y-99825000D02*
X179387500Y-100152973D01*
X132348287Y-101579537D02*
X132556250Y-101787500D01*
D37*
X240070688Y-71459215D02*
G75*
G03*
X241484902Y-72045000I1414212J1414215D01*
G01*
X81916373Y-66050301D02*
G75*
G03*
X83330575Y-66636100I1414227J1414201D01*
G01*
D36*
X219075014Y-99858868D02*
G75*
G03*
X219868751Y-101775149I2709986J-32D01*
G01*
X264902673Y-101775145D02*
G75*
G03*
X266316887Y-101189363I27J1999945D01*
G01*
X215106278Y-99858868D02*
G75*
G03*
X215900000Y-101775150I2710022J-32D01*
G01*
D37*
X73359803Y-64693738D02*
G75*
G03*
X71945589Y-65279537I-3J-1999962D01*
G01*
D36*
X179387520Y-100152973D02*
G75*
G03*
X179973288Y-101567186I1999980J-27D01*
G01*
X153193720Y-100165323D02*
G75*
G03*
X153779538Y-101579536I1999980J23D01*
G01*
D37*
X255173387Y-72044990D02*
G75*
G03*
X256587599Y-71459213I13J1999990D01*
G01*
D36*
X131762484Y-100165323D02*
G75*
G03*
X132348287Y-101579537I2000016J23D01*
G01*
X96043720Y-100165323D02*
G75*
G03*
X96629538Y-101579536I1999980J23D01*
G01*
D37*
X261101493Y-70035765D02*
G75*
G03*
X259687259Y-69450000I-1414193J-1414235D01*
G01*
D36*
X248443755Y-100152973D02*
G75*
G03*
X249029537Y-101567187I1999945J-27D01*
G01*
X45032975Y-101201703D02*
G75*
G03*
X46447177Y-101787500I1414225J1414203D01*
G01*
D37*
X268495475Y-101201703D02*
G75*
G03*
X269909677Y-101787500I1414225J1414203D01*
G01*
X272461450Y-73681725D02*
G75*
G03*
X271011006Y-72231250I-1450450J25D01*
G01*
X270668750Y-101787581D02*
G75*
G03*
X272461481Y-99994769I-50J1792781D01*
G01*
X80958018Y-65091982D02*
G75*
G03*
X79996622Y-64693750I-961418J-961418D01*
G01*
X235668843Y-67057382D02*
G75*
G03*
X234657406Y-66638421I-1011443J-1011418D01*
G01*
D36*
X47624978Y-99871218D02*
G75*
G03*
X48418750Y-101787500I2710022J18D01*
G01*
X76993720Y-100165323D02*
G75*
G03*
X77579538Y-101579536I1999980J23D01*
G01*
D37*
X259425242Y-69450030D02*
G75*
G03*
X258011029Y-70035786I-42J-1999970D01*
G01*
X262711178Y-71645434D02*
G75*
G03*
X264125363Y-72231250I1414222J1414134D01*
G01*
D36*
%TO.N,Net-(D37-A)*%
X38258750Y-93345000D02*
X43021250Y-93345000D01*
X43656250Y-94808427D02*
X43656250Y-97025000D01*
X43021250Y-93345000D02*
X43070464Y-93394214D01*
X43656245Y-94808427D02*
G75*
G03*
X43070464Y-93394214I-1999945J27D01*
G01*
%TO.N,Net-(D38-A)*%
X57308750Y-93345000D02*
X52133427Y-93345000D01*
X50719213Y-93930787D02*
X47625000Y-97025000D01*
X66833750Y-93345000D02*
X57308750Y-93345000D01*
X52133427Y-93345020D02*
G75*
G03*
X50719214Y-93930788I-27J-1999980D01*
G01*
%TO.N,Net-(D39-A)*%
X76358750Y-93345000D02*
X76407964Y-93394214D01*
X71596250Y-93345000D02*
X76358750Y-93345000D01*
X76993750Y-94808427D02*
X76993750Y-97025000D01*
X76993745Y-94808427D02*
G75*
G03*
X76407964Y-93394214I-1999945J27D01*
G01*
%TO.N,Net-(D41-A)*%
X126365000Y-93345000D02*
X131127500Y-93345000D01*
X131762500Y-94808427D02*
X131762500Y-97025000D01*
X131127500Y-93345000D02*
X131176714Y-93394214D01*
X131762480Y-94808427D02*
G75*
G03*
X131176713Y-93394215I-1999980J27D01*
G01*
%TO.N,Net-(D42-A)*%
X152558750Y-93345000D02*
X152607964Y-93394214D01*
X153193750Y-94808427D02*
X153193750Y-97025000D01*
X153193745Y-94808427D02*
G75*
G03*
X152607964Y-93394214I-1999945J27D01*
G01*
%TO.N,Net-(D43-A)*%
X179387500Y-94808427D02*
X179387500Y-97025000D01*
X173990000Y-93345000D02*
X178752500Y-93345000D01*
X178752500Y-93345000D02*
X178801714Y-93394214D01*
X179387480Y-94808427D02*
G75*
G03*
X178801713Y-93394215I-1999980J27D01*
G01*
%TO.N,Net-(D44-A)*%
X209708750Y-93345000D02*
X214471250Y-93345000D01*
X215106250Y-94878025D02*
X215106250Y-97025000D01*
X215106224Y-94878025D02*
G75*
G03*
X214471249Y-93345001I-2168024J25D01*
G01*
%TO.N,Net-(D45-A)*%
X228758750Y-93345000D02*
X223583427Y-93345000D01*
X228758750Y-93345000D02*
X233521250Y-93345000D01*
X222169213Y-93930787D02*
X219075000Y-97025000D01*
X223583427Y-93345020D02*
G75*
G03*
X222169214Y-93930788I-27J-1999980D01*
G01*
%TO.N,Net-(D46-A)*%
X248443750Y-94808427D02*
X248443750Y-97025000D01*
X238283750Y-93345000D02*
X247808750Y-93345000D01*
X247808750Y-93345000D02*
X247857964Y-93394214D01*
X248443745Y-94808427D02*
G75*
G03*
X247857964Y-93394214I-1999945J27D01*
G01*
D37*
%TO.N,COL0*%
X63815249Y-72536763D02*
X63622312Y-72456848D01*
X64293750Y-72614929D02*
X64200188Y-72614929D01*
X63622312Y-72456848D02*
X63441452Y-72352432D01*
X59241299Y-69690000D02*
X59902259Y-69690000D01*
X65669231Y-71555895D02*
X64833959Y-72391167D01*
X63273419Y-72223499D02*
X63076018Y-72031799D01*
X34290000Y-76835000D02*
X35220963Y-76835000D01*
X56510811Y-71592061D02*
X57827086Y-70275786D01*
X36635177Y-76249213D02*
X39652152Y-73232238D01*
X64200188Y-72614929D02*
X64016959Y-72590808D01*
X61316473Y-70275787D02*
X63079900Y-72039214D01*
X64016959Y-72590808D02*
X63815249Y-72536763D01*
X63441452Y-72352432D02*
X63273419Y-72223499D01*
X42068750Y-72231250D02*
X54967673Y-72231250D01*
X35220963Y-76834973D02*
G75*
G03*
X36635176Y-76249212I37J1999973D01*
G01*
X42068750Y-72231276D02*
G75*
G03*
X39652153Y-73232239I-50J-3417524D01*
G01*
X64293750Y-72614976D02*
G75*
G03*
X64833959Y-72391167I-50J763976D01*
G01*
X59241299Y-69690000D02*
G75*
G03*
X57827086Y-70275786I1J-2000000D01*
G01*
X61316494Y-70275766D02*
G75*
G03*
X59902259Y-69690000I-1414194J-1414234D01*
G01*
X54967673Y-72231223D02*
G75*
G03*
X56510810Y-71592060I27J2182323D01*
G01*
%TO.N,COL1*%
X55721250Y-76835000D02*
X55721250Y-73775735D01*
X61150787Y-70675787D02*
X62914214Y-72439214D01*
X65316513Y-72615722D02*
X66022785Y-71909449D01*
X59406985Y-70090000D02*
X59736573Y-70090000D01*
X56307037Y-72361521D02*
X57992772Y-70675786D01*
X59406985Y-70089990D02*
G75*
G03*
X57992772Y-70675786I15J-2000010D01*
G01*
X56307030Y-72361514D02*
G75*
G03*
X55721250Y-73775735I1414170J-1414186D01*
G01*
X61150801Y-70675773D02*
G75*
G03*
X59736573Y-70090000I-1414201J-1414227D01*
G01*
X64328427Y-73025009D02*
G75*
G03*
X65316513Y-72615722I-27J1397409D01*
G01*
X62914200Y-72439228D02*
G75*
G03*
X64328427Y-73025000I1414200J1414228D01*
G01*
%TO.N,COL2*%
X74771250Y-76835000D02*
X74771250Y-75246123D01*
X74185463Y-73831909D02*
X72970109Y-72616555D01*
X74771248Y-75246123D02*
G75*
G03*
X74185463Y-73831909I-1999948J23D01*
G01*
%TO.N,COL3*%
X74325069Y-73111200D02*
X78504843Y-73111200D01*
X88208137Y-71221887D02*
X93821250Y-76835000D01*
X73323662Y-72263002D02*
X74063525Y-73002865D01*
X82636799Y-70636100D02*
X86793923Y-70636100D01*
X79919056Y-72525415D02*
X81222586Y-71221886D01*
X74063536Y-73002854D02*
G75*
G03*
X74325069Y-73111200I261564J261554D01*
G01*
X78504843Y-73111231D02*
G75*
G03*
X79919056Y-72525415I-43J2000031D01*
G01*
X82636799Y-70636100D02*
G75*
G03*
X81222586Y-71221886I1J-2000000D01*
G01*
X88208126Y-71221898D02*
G75*
G03*
X86793923Y-70636100I-1414226J-1414202D01*
G01*
%TO.N,COL4*%
X74765632Y-72711200D02*
X78339158Y-72711200D01*
X81056900Y-70821886D02*
X79753371Y-72125414D01*
X105443923Y-70236100D02*
X82471113Y-70236100D01*
X112871250Y-76835000D02*
X106858136Y-70821886D01*
X74276262Y-72508497D02*
X73677215Y-71909449D01*
X74276241Y-72508518D02*
G75*
G03*
X74765632Y-72711200I489359J489418D01*
G01*
X82471113Y-70236110D02*
G75*
G03*
X81056901Y-70821887I-13J-1999990D01*
G01*
X106858125Y-70821897D02*
G75*
G03*
X105443923Y-70236100I-1414225J-1414203D01*
G01*
X78339158Y-72711170D02*
G75*
G03*
X79753371Y-72125414I42J1999970D01*
G01*
%TO.N,COL5*%
X78173473Y-72311200D02*
X74931317Y-72311200D01*
X80891213Y-70421887D02*
X79587686Y-71725414D01*
X74030769Y-71555895D02*
X74683371Y-72208497D01*
X131921250Y-76835000D02*
X125508136Y-70421886D01*
X124093923Y-69836100D02*
X82305427Y-69836100D01*
X82305427Y-69836120D02*
G75*
G03*
X80891214Y-70421888I-27J-1999980D01*
G01*
X125508125Y-70421897D02*
G75*
G03*
X124093923Y-69836100I-1414225J-1414203D01*
G01*
X78173473Y-72311180D02*
G75*
G03*
X79587685Y-71725413I27J1999980D01*
G01*
X74683372Y-72208496D02*
G75*
G03*
X74931317Y-72311200I247928J247896D01*
G01*
%TO.N,COL6*%
X150971250Y-76835000D02*
X144158137Y-70021887D01*
X142743923Y-69436100D02*
X82139741Y-69436100D01*
X74977848Y-71784181D02*
X74404273Y-71210606D01*
X80725527Y-70021887D02*
X79422002Y-71325413D01*
X78007788Y-71911200D02*
X75284498Y-71911200D01*
X78007788Y-71911191D02*
G75*
G03*
X79422002Y-71325413I12J1999991D01*
G01*
X82139741Y-69436130D02*
G75*
G03*
X80725528Y-70021888I-41J-1999970D01*
G01*
X144158126Y-70021898D02*
G75*
G03*
X142743923Y-69436100I-1414226J-1414202D01*
G01*
X74977842Y-71784187D02*
G75*
G03*
X75284498Y-71911200I306658J306687D01*
G01*
X74404271Y-71210608D02*
G75*
G03*
X74384322Y-71202342I-19971J-19992D01*
G01*
%TO.N,COL7*%
X80922247Y-68450313D02*
X80151470Y-67679536D01*
X170021250Y-76835000D02*
X162808136Y-69621886D01*
X78737257Y-67093750D02*
X75909551Y-67093750D01*
X82336461Y-69036100D02*
X161393923Y-69036100D01*
X74495337Y-67679537D02*
X74030769Y-68144105D01*
X162808125Y-69621897D02*
G75*
G03*
X161393923Y-69036100I-1414225J-1414203D01*
G01*
X80151481Y-67679525D02*
G75*
G03*
X78737257Y-67093750I-1414181J-1414175D01*
G01*
X75909551Y-67093701D02*
G75*
G03*
X74495337Y-67679537I49J-1999999D01*
G01*
X80922266Y-68450294D02*
G75*
G03*
X82336461Y-69036100I1414234J1414194D01*
G01*
%TO.N,COL8*%
X78902943Y-66693750D02*
X75602443Y-66693750D01*
X180043923Y-68636100D02*
X82502147Y-68636100D01*
X81087933Y-68050313D02*
X80317156Y-67279536D01*
X74188229Y-67279537D02*
X73677215Y-67790551D01*
X189071250Y-76835000D02*
X181458136Y-69221886D01*
X81087909Y-68050337D02*
G75*
G03*
X82502147Y-68636100I1414191J1414237D01*
G01*
X75602443Y-66693766D02*
G75*
G03*
X74188229Y-67279537I-43J-1999934D01*
G01*
X181458125Y-69221897D02*
G75*
G03*
X180043923Y-68636100I-1414225J-1414203D01*
G01*
X80317124Y-67279568D02*
G75*
G03*
X78902943Y-66693750I-1414224J-1414132D01*
G01*
%TO.N,COL9*%
X80482843Y-66879537D02*
X81253620Y-67650314D01*
X200108137Y-68821887D02*
X208121250Y-76835000D01*
X72970109Y-67083445D02*
X73174018Y-66879536D01*
X82667833Y-68236100D02*
X198693923Y-68236100D01*
X74588231Y-66293750D02*
X79068629Y-66293750D01*
X74588231Y-66293758D02*
G75*
G03*
X73174018Y-66879536I-31J-1999942D01*
G01*
X80482818Y-66879562D02*
G75*
G03*
X79068629Y-66293750I-1414218J-1414138D01*
G01*
X200108126Y-68821898D02*
G75*
G03*
X198693923Y-68236100I-1414226J-1414202D01*
G01*
X81253603Y-67650331D02*
G75*
G03*
X82667833Y-68236100I1414197J1414231D01*
G01*
%TO.N,COL10*%
X79234315Y-65893750D02*
X74281123Y-65893750D01*
X218758137Y-68421887D02*
X227171250Y-76835000D01*
X72866909Y-66479537D02*
X72616555Y-66729891D01*
X82833519Y-67836100D02*
X217343923Y-67836100D01*
X80648528Y-66479536D02*
X81419306Y-67250314D01*
X218758126Y-68421898D02*
G75*
G03*
X217343923Y-67836100I-1414226J-1414202D01*
G01*
X81419296Y-67250324D02*
G75*
G03*
X82833519Y-67836100I1414204J1414224D01*
G01*
X80648510Y-66479554D02*
G75*
G03*
X79234315Y-65893750I-1414210J-1414146D01*
G01*
X74281123Y-65893752D02*
G75*
G03*
X72866909Y-66479537I-23J-1999948D01*
G01*
%TO.N,COL11*%
X235453569Y-67973467D02*
X239711926Y-72231824D01*
X73974017Y-65493750D02*
X79400001Y-65493750D01*
X243840000Y-76835000D02*
X243840000Y-74232058D01*
X241486604Y-72846941D02*
X242091809Y-72846941D01*
X239712500Y-72231250D02*
X239744767Y-72263517D01*
X241153277Y-72846941D02*
X241158716Y-72847657D01*
X242093750Y-72845000D02*
X242452942Y-72845000D01*
X239711926Y-72231824D02*
X239712500Y-72231250D01*
X241158716Y-72847657D02*
X241480929Y-72852450D01*
X72263002Y-66376338D02*
X72559803Y-66079537D01*
X82999205Y-67436100D02*
X234156250Y-67436100D01*
X80814214Y-66079536D02*
X81584991Y-66850313D01*
X242091809Y-72846941D02*
X242093750Y-72845000D01*
X241480929Y-72852450D02*
X241486604Y-72846941D01*
X81584988Y-66850316D02*
G75*
G03*
X82999205Y-67436100I1414212J1414216D01*
G01*
X80814203Y-66079547D02*
G75*
G03*
X79400001Y-65493750I-1414203J-1414153D01*
G01*
X235453597Y-67973439D02*
G75*
G03*
X234156250Y-67436100I-1297297J-1297361D01*
G01*
X73974017Y-65493748D02*
G75*
G03*
X72559803Y-66079537I-17J-1999952D01*
G01*
X239744777Y-72263507D02*
G75*
G03*
X241153277Y-72846941I1408523J1408507D01*
G01*
X243840000Y-74232058D02*
G75*
G03*
X242452942Y-72845000I-1387100J-42D01*
G01*
D36*
%TO.N,GND*%
X69573745Y-70634405D02*
X69716545Y-70777205D01*
D38*
X66432316Y-62169535D02*
X66423788Y-62169535D01*
D36*
X31871250Y-35475000D02*
X31579214Y-35475000D01*
D38*
X52451566Y-58415816D02*
X52931192Y-58415816D01*
D36*
X189033750Y-34681250D02*
X188741714Y-34681250D01*
X70028945Y-70634405D02*
X69573745Y-70634405D01*
X65315678Y-71202342D02*
X65883615Y-70634405D01*
X68262500Y-70634405D02*
X69056250Y-70634405D01*
X67468750Y-70634405D02*
X68262500Y-70634405D01*
D38*
X221118613Y-49742270D02*
X219874863Y-49742270D01*
D36*
X69056250Y-70634405D02*
X69573745Y-70634405D01*
X56356250Y-66443372D02*
X56445750Y-66353872D01*
X72263002Y-73323662D02*
X70510295Y-71570955D01*
D38*
X78562500Y-70643750D02*
X78562500Y-68580000D01*
X55562500Y-53975000D02*
X55562500Y-51187245D01*
X238589115Y-29368750D02*
X238589115Y-25188750D01*
X60265000Y-55457500D02*
X61330662Y-55457500D01*
X57711461Y-49038284D02*
X216693750Y-49038284D01*
D36*
X56356250Y-67437500D02*
X56356250Y-66443372D01*
D38*
X78562500Y-68580000D02*
X78562500Y-68281250D01*
X51870000Y-58752500D02*
X51917560Y-58704940D01*
D36*
X65883615Y-70634405D02*
X67468750Y-70634405D01*
D38*
X60440000Y-59357500D02*
X60440000Y-61075681D01*
X229949115Y-29368750D02*
X229949115Y-25188750D01*
X217209250Y-50521750D02*
X216693750Y-50521750D01*
X216693750Y-49038284D02*
X217242690Y-49038284D01*
D36*
X269960000Y-70765000D02*
X269960000Y-70089708D01*
D38*
X57145816Y-51593750D02*
X57145816Y-53975000D01*
X216693750Y-49038284D02*
X218054562Y-49038284D01*
D36*
X269960000Y-51715000D02*
X269960000Y-51039708D01*
X69065596Y-65883616D02*
X69065596Y-69053290D01*
D38*
X55024896Y-58799878D02*
X55024896Y-60105007D01*
D36*
X269960000Y-89815000D02*
X269960000Y-89139708D01*
X70290246Y-71358943D02*
X70290246Y-71350906D01*
D38*
X60265808Y-61249873D02*
X61464512Y-61249873D01*
D36*
X207290000Y-34681250D02*
X206997964Y-34681250D01*
D38*
X55007705Y-60122198D02*
X53563046Y-58677539D01*
D37*
X76047212Y-67493750D02*
X77222573Y-67493750D01*
D38*
X62149702Y-66126992D02*
X61383494Y-65360784D01*
X78562500Y-68281250D02*
X79667603Y-68281250D01*
D36*
X29760000Y-49885000D02*
X29760000Y-50343899D01*
D38*
X67565160Y-63302379D02*
X66432316Y-62169535D01*
D36*
X69716545Y-70777205D02*
X70510295Y-71570955D01*
X248565000Y-34681250D02*
X248272964Y-34681250D01*
X93783750Y-34681250D02*
X93491714Y-34681250D01*
D38*
X55562500Y-53975000D02*
X55562500Y-54612066D01*
D36*
X269996250Y-35475000D02*
X269704214Y-35475000D01*
X74733750Y-34681250D02*
X74441714Y-34681250D01*
X70290246Y-71350906D02*
X69716545Y-70777205D01*
D38*
X70105094Y-78562500D02*
X68832932Y-78562500D01*
X216693750Y-50521750D02*
X58217816Y-50521750D01*
X57145816Y-53975000D02*
X57145816Y-54559750D01*
X53024360Y-58823727D02*
X52905572Y-58704940D01*
D37*
X78165625Y-67884375D02*
X78562500Y-68281250D01*
D38*
X244475000Y-37337500D02*
X244475000Y-38100000D01*
X51798772Y-58823727D02*
X51870000Y-58752500D01*
X67590487Y-63302379D02*
X67565160Y-63302379D01*
X216693750Y-50521750D02*
X218003000Y-50521750D01*
X66423788Y-62169535D02*
X65570925Y-61316672D01*
X61464512Y-61249873D02*
X61475875Y-61238510D01*
X52411566Y-58375816D02*
X52451566Y-58415816D01*
D36*
X29760000Y-68935000D02*
X29760000Y-69393899D01*
X68497658Y-65315678D02*
X69065596Y-65883616D01*
D38*
X61475875Y-61238510D02*
X61475875Y-55801574D01*
D36*
X150933750Y-35475000D02*
X150641714Y-35475000D01*
D38*
X79667603Y-68281250D02*
X79670438Y-68278415D01*
X224568750Y-42862500D02*
X223837500Y-42862500D01*
D37*
X74384322Y-68497658D02*
X74922259Y-67959721D01*
D38*
X52411566Y-58500316D02*
X52411566Y-58375816D01*
D36*
X112833750Y-34681250D02*
X112541714Y-34681250D01*
D38*
X229062500Y-33537500D02*
X228235221Y-33537500D01*
D36*
X170777500Y-34681250D02*
X170485464Y-34681250D01*
X29760000Y-87985000D02*
X29760000Y-88566587D01*
D38*
X55024896Y-60105007D02*
X55007705Y-60122198D01*
X71724665Y-78562500D02*
X71737281Y-78575116D01*
D36*
X73816384Y-69065596D02*
X74384322Y-68497658D01*
D38*
X70105094Y-78562500D02*
X71724665Y-78562500D01*
X56148287Y-49773031D02*
X56297248Y-49624070D01*
D36*
X53302500Y-34681250D02*
X53010464Y-34681250D01*
D38*
X61330662Y-55457500D02*
X61335259Y-55462097D01*
X62158242Y-66126992D02*
X62149702Y-66126992D01*
X60440000Y-61075681D02*
X60265808Y-61249873D01*
D37*
X74384322Y-68497658D02*
X73841385Y-69040595D01*
D36*
X131883750Y-34681250D02*
X131591714Y-34681250D01*
X74441714Y-34681271D02*
G75*
G03*
X73853250Y-34925000I-14J-832229D01*
G01*
X269704214Y-35475007D02*
G75*
G03*
X269115751Y-35718751I-14J-832193D01*
G01*
D38*
X58217816Y-50521816D02*
G75*
G03*
X57145816Y-51593750I-16J-1071984D01*
G01*
D37*
X78165633Y-67884367D02*
G75*
G03*
X77222573Y-67493750I-943033J-943033D01*
G01*
D38*
X53563052Y-58677533D02*
G75*
G03*
X52931192Y-58415816I-631852J-631867D01*
G01*
D36*
X188741714Y-34681271D02*
G75*
G03*
X188153250Y-34925000I-14J-832229D01*
G01*
D37*
X76047212Y-67493767D02*
G75*
G03*
X74922259Y-67959721I-12J-1590933D01*
G01*
D38*
X228041600Y-33343854D02*
G75*
G03*
X228235221Y-33537500I193600J-46D01*
G01*
X53361563Y-59637816D02*
G75*
G03*
X53024359Y-58823728I-1151263J16D01*
G01*
D36*
X70028945Y-70634449D02*
G75*
G03*
X73816384Y-69065596I-45J5356249D01*
G01*
D38*
X56148264Y-49773008D02*
G75*
G03*
X55562500Y-51187245I1414236J-1414192D01*
G01*
D36*
X131591714Y-34681271D02*
G75*
G03*
X131003250Y-34925000I-14J-832229D01*
G01*
X248272964Y-34681236D02*
G75*
G03*
X247684500Y-34925000I36J-832264D01*
G01*
X269959996Y-51039708D02*
G75*
G03*
X269875000Y-50834500I-290196J8D01*
G01*
X29759993Y-69393899D02*
G75*
G03*
X29883814Y-69692812I422707J-1D01*
G01*
D38*
X57711461Y-49038262D02*
G75*
G03*
X56297249Y-49624071I39J-2000038D01*
G01*
X51798756Y-58823711D02*
G75*
G03*
X51461566Y-59637816I814144J-814089D01*
G01*
X218054562Y-49038222D02*
G75*
G03*
X218273122Y-48819724I38J218522D01*
G01*
D36*
X170485464Y-34681236D02*
G75*
G03*
X169897000Y-34925000I36J-832264D01*
G01*
X150641714Y-35475007D02*
G75*
G03*
X150053251Y-35718751I-14J-832193D01*
G01*
D38*
X68832932Y-78562516D02*
G75*
G03*
X68830511Y-78563503I-32J-3384D01*
G01*
X218281250Y-50800000D02*
G75*
G03*
X218003000Y-50521750I-278250J0D01*
G01*
D36*
X29760002Y-88566587D02*
G75*
G03*
X29883814Y-88865500I422698J-13D01*
G01*
X29759993Y-50343899D02*
G75*
G03*
X29883814Y-50642812I422707J-1D01*
G01*
D38*
X57145750Y-54559750D02*
G75*
G03*
X57354816Y-54768750I209050J50D01*
G01*
X61475898Y-55801574D02*
G75*
G03*
X61335259Y-55462097I-480098J-26D01*
G01*
D36*
X112541714Y-34681271D02*
G75*
G03*
X111953250Y-34925000I-14J-832229D01*
G01*
D38*
X55405816Y-54768800D02*
G75*
G03*
X55562500Y-54612066I-16J156700D01*
G01*
X52411566Y-58500279D02*
G75*
G03*
X51917560Y-58704940I34J-698621D01*
G01*
X52905579Y-58704933D02*
G75*
G03*
X52411566Y-58500316I-493979J-493967D01*
G01*
D36*
X206997964Y-34681236D02*
G75*
G03*
X206409500Y-34925000I36J-832264D01*
G01*
D38*
X228047929Y-33337575D02*
G75*
G03*
X228041575Y-33343854I-29J-6325D01*
G01*
D36*
X269959996Y-89139708D02*
G75*
G03*
X269875000Y-88934500I-290196J8D01*
G01*
X68408157Y-70640481D02*
G75*
G03*
X69065596Y-69053290I-1587157J1587181D01*
G01*
X93491714Y-34681271D02*
G75*
G03*
X92903250Y-34925000I-14J-832229D01*
G01*
X31579214Y-35475007D02*
G75*
G03*
X30990751Y-35718751I-14J-832193D01*
G01*
X269959996Y-70089708D02*
G75*
G03*
X269875000Y-69884500I-290196J8D01*
G01*
X53010464Y-34681236D02*
G75*
G03*
X52422000Y-34925000I36J-832264D01*
G01*
%TO.N,+5V*%
X28660000Y-51715000D02*
X28660000Y-51039708D01*
D38*
X227618750Y-40481250D02*
X227618750Y-38894134D01*
D36*
X30041250Y-34375000D02*
X30333286Y-34375000D01*
X149103750Y-34375000D02*
X149395786Y-34375000D01*
X168947500Y-33581250D02*
X169239536Y-33581250D01*
X51472500Y-33581250D02*
X51764536Y-33581250D01*
D38*
X227618750Y-42612500D02*
X227618750Y-40481250D01*
D36*
X246735000Y-33581250D02*
X247027036Y-33581250D01*
D38*
X227618750Y-38894134D02*
X227618366Y-38893750D01*
D36*
X271060000Y-49885000D02*
X271060000Y-50487161D01*
X271060000Y-87985000D02*
X271060000Y-88534019D01*
X28660000Y-89815000D02*
X28660000Y-89139708D01*
D38*
X59490000Y-57482500D02*
X57663985Y-57482500D01*
D36*
X205460000Y-33581250D02*
X205752036Y-33581250D01*
D38*
X227868750Y-42862500D02*
X227806250Y-42862500D01*
X227012500Y-43656250D02*
X227012500Y-50542133D01*
X58715000Y-55457500D02*
X58715000Y-56707500D01*
D36*
X72903750Y-33581250D02*
X73195786Y-33581250D01*
D38*
X225960883Y-51593750D02*
X59479020Y-51593750D01*
X53634222Y-57249878D02*
X55024896Y-57249878D01*
D36*
X111003750Y-33581250D02*
X111295786Y-33581250D01*
X271060000Y-68935000D02*
X271060000Y-69564234D01*
X28660000Y-70765000D02*
X28660000Y-70089708D01*
D38*
X58715000Y-52357770D02*
X58715000Y-55457500D01*
D36*
X187203750Y-33581250D02*
X187495786Y-33581250D01*
X268166250Y-34375000D02*
X268458286Y-34375000D01*
X130053750Y-33581250D02*
X130345786Y-33581250D01*
X91953750Y-33581250D02*
X92245786Y-33581250D01*
D38*
X55024896Y-57249878D02*
X55024896Y-56209157D01*
X225960883Y-51593700D02*
G75*
G03*
X227012500Y-50542133I17J1051600D01*
G01*
D36*
X247027036Y-33581264D02*
G75*
G03*
X247615500Y-33337500I-36J832264D01*
G01*
D38*
X59479020Y-51593800D02*
G75*
G03*
X58715000Y-52357770I-20J-764000D01*
G01*
D36*
X28659996Y-70089708D02*
G75*
G03*
X28575000Y-69884500I-290196J8D01*
G01*
X187495786Y-33581229D02*
G75*
G03*
X188084250Y-33337500I14J832229D01*
G01*
X130345786Y-33581229D02*
G75*
G03*
X130934250Y-33337500I14J832229D01*
G01*
D38*
X58715000Y-56707500D02*
G75*
G03*
X59490000Y-57482500I775000J0D01*
G01*
X227618700Y-42612500D02*
G75*
G03*
X227868750Y-42862500I250000J0D01*
G01*
X55025604Y-56208495D02*
G75*
G03*
X55024896Y-56209157I-4J-705D01*
G01*
X227806250Y-42862500D02*
G75*
G03*
X227012500Y-43656250I50J-793800D01*
G01*
X57354800Y-57173331D02*
G75*
G03*
X57663985Y-57482500I309200J31D01*
G01*
D36*
X169239536Y-33581264D02*
G75*
G03*
X169828000Y-33337500I-36J832264D01*
G01*
X51764536Y-33581264D02*
G75*
G03*
X52353000Y-33337500I-36J832264D01*
G01*
X30333286Y-34374993D02*
G75*
G03*
X30921749Y-34131249I14J832193D01*
G01*
D38*
X53634222Y-57249902D02*
G75*
G03*
X53361566Y-57362816I-22J-385598D01*
G01*
D36*
X28659996Y-51039708D02*
G75*
G03*
X28575000Y-50834500I-290196J8D01*
G01*
X271059964Y-69564234D02*
G75*
G03*
X271164079Y-69815499I355336J34D01*
G01*
X111295786Y-33581229D02*
G75*
G03*
X111884250Y-33337500I14J832229D01*
G01*
X271060019Y-50487161D02*
G75*
G03*
X271175292Y-50765500I393581J-39D01*
G01*
X92245786Y-33581229D02*
G75*
G03*
X92834250Y-33337500I14J832229D01*
G01*
X149395786Y-34374993D02*
G75*
G03*
X149984249Y-34131249I14J832193D01*
G01*
X271059997Y-88534019D02*
G75*
G03*
X271188102Y-88843284I437403J19D01*
G01*
X205752036Y-33581264D02*
G75*
G03*
X206340500Y-33337500I-36J832264D01*
G01*
X268458286Y-34374993D02*
G75*
G03*
X269046749Y-34131249I14J832193D01*
G01*
X28659996Y-89139708D02*
G75*
G03*
X28575000Y-88934500I-290196J8D01*
G01*
X73195786Y-33581229D02*
G75*
G03*
X73784250Y-33337500I14J832229D01*
G01*
D38*
%TO.N,+3V3*%
X76411360Y-68473860D02*
X75828969Y-69056250D01*
X58715808Y-59781938D02*
X58715808Y-61249873D01*
X47700000Y-65618750D02*
X53900000Y-65618750D01*
D36*
X72477386Y-74504458D02*
X72477386Y-74351370D01*
X69850000Y-76396649D02*
X69850000Y-75406250D01*
X63500000Y-67468750D02*
X63254258Y-67223008D01*
D38*
X59690000Y-62230000D02*
X63608613Y-62230000D01*
D36*
X64962124Y-70518374D02*
X63500000Y-69056250D01*
D38*
X75828969Y-70643750D02*
X77012500Y-70643750D01*
X64790163Y-62719414D02*
X65336300Y-63265551D01*
X68275049Y-64328687D02*
X68851212Y-64904850D01*
X69815063Y-64328687D02*
X69850000Y-64293750D01*
D36*
X75232881Y-69056250D02*
X75828969Y-69056250D01*
D38*
X65379536Y-63283460D02*
X66494471Y-64398395D01*
X58715808Y-61249873D02*
X58715808Y-61255808D01*
X68275049Y-64328687D02*
X68879849Y-64933487D01*
X68275049Y-64328687D02*
X69815063Y-64328687D01*
D36*
X75232881Y-70643750D02*
X75828969Y-70643750D01*
X63500000Y-69056250D02*
X63500000Y-67468750D01*
X71909449Y-73677215D02*
X72402278Y-74170044D01*
D38*
X53955378Y-65563372D02*
X53900000Y-65618750D01*
X63500000Y-69056250D02*
X60904881Y-66461131D01*
D36*
X70105094Y-77012500D02*
X72381396Y-74736198D01*
D38*
X68275049Y-64328687D02*
X66662760Y-64328687D01*
D36*
X64962124Y-70848788D02*
X64962124Y-70518374D01*
D38*
X77012500Y-68281250D02*
X76876361Y-68281250D01*
X58737500Y-65563372D02*
X53955378Y-65563372D01*
X64790164Y-62719413D02*
G75*
G03*
X63608613Y-62230000I-1181564J-1181587D01*
G01*
D36*
X74737884Y-68851204D02*
G75*
G03*
X75232881Y-69056250I495016J495004D01*
G01*
D38*
X58715792Y-59781938D02*
G75*
G03*
X58540000Y-59357500I-600192J38D01*
G01*
D36*
X72381408Y-74736210D02*
G75*
G03*
X72477386Y-74504458I-231708J231710D01*
G01*
X69849953Y-76396649D02*
G75*
G03*
X70105094Y-77012500I870947J49D01*
G01*
D38*
X60904879Y-66461133D02*
G75*
G03*
X58737500Y-65563372I-2167379J-2167367D01*
G01*
D36*
X72477420Y-74351370D02*
G75*
G03*
X72402277Y-74170045I-256420J-30D01*
G01*
D38*
X65379537Y-63283459D02*
G75*
G03*
X65336300Y-63265551I-43237J-43241D01*
G01*
X66662760Y-64328664D02*
G75*
G03*
X66494471Y-64398395I40J-238036D01*
G01*
X58715800Y-61255808D02*
G75*
G03*
X59690000Y-62230000I974200J8D01*
G01*
D36*
X75232881Y-70643739D02*
G75*
G03*
X74737876Y-70848788I19J-700061D01*
G01*
D38*
X76876361Y-68281235D02*
G75*
G03*
X76411361Y-68473861I39J-657665D01*
G01*
%TO.N,VBUS*%
X225496750Y-32472000D02*
X231124208Y-32472000D01*
X224818750Y-33150000D02*
X224818750Y-40481250D01*
X224690363Y-48101770D02*
X222657231Y-48101770D01*
X225425000Y-41087500D02*
X225425000Y-47367133D01*
X222916731Y-49742270D02*
X223393613Y-49742270D01*
X222256113Y-48502888D02*
X222256113Y-49081652D01*
X231124208Y-32471989D02*
G75*
G03*
X231805189Y-31791019I-8J680989D01*
G01*
X225496750Y-32471950D02*
G75*
G03*
X224818750Y-33150000I50J-678050D01*
G01*
X222256130Y-49081652D02*
G75*
G03*
X222916731Y-49742270I660570J-48D01*
G01*
X224690363Y-48101700D02*
G75*
G03*
X225425000Y-47367133I37J734600D01*
G01*
X225424950Y-41087500D02*
G75*
G03*
X224818750Y-40481250I-606250J0D01*
G01*
X222657231Y-48101813D02*
G75*
G03*
X222256113Y-48502888I-31J-401087D01*
G01*
D37*
%TO.N,/CC1*%
X237331250Y-33037500D02*
X240206250Y-33037500D01*
X244475000Y-35687500D02*
X242062500Y-35687500D01*
X241300000Y-34131250D02*
X241300000Y-34925000D01*
X241300000Y-34925000D02*
G75*
G03*
X242062500Y-35687500I762500J0D01*
G01*
X241300000Y-34131250D02*
G75*
G03*
X240206250Y-33037500I-1093800J-50D01*
G01*
%TO.N,D_USB_P*%
X234034389Y-34253126D02*
X234034389Y-33215639D01*
X226973941Y-34931091D02*
X233356424Y-34931091D01*
X226504238Y-49437696D02*
X226504238Y-49449922D01*
X224501439Y-50358089D02*
X224480436Y-50379093D01*
X226504238Y-35400794D02*
X226504238Y-49437696D01*
X223886757Y-50692270D02*
X223393613Y-50692270D01*
X223724360Y-50692270D02*
X223393613Y-50692270D01*
X225981154Y-49973006D02*
X225431113Y-49973006D01*
X226973941Y-34931138D02*
G75*
G03*
X226504238Y-35400794I-41J-469662D01*
G01*
X225431113Y-49973026D02*
G75*
G03*
X224501439Y-50358089I-13J-1314774D01*
G01*
X233356424Y-34931089D02*
G75*
G03*
X234034389Y-34253126I-24J677989D01*
G01*
X223724360Y-50692236D02*
G75*
G03*
X224480436Y-50379093I40J1069236D01*
G01*
X234034350Y-33215639D02*
G75*
G03*
X233362500Y-32543750I-671850J39D01*
G01*
X225981154Y-49972938D02*
G75*
G03*
X226504238Y-49449922I46J523038D01*
G01*
%TO.N,D_USB_N*%
X226104238Y-35092740D02*
X226104238Y-49271272D01*
X233086756Y-34525000D02*
X226671978Y-34525000D01*
X223393613Y-48792270D02*
X223727160Y-48792270D01*
X225431113Y-49573006D02*
X225802504Y-49573006D01*
X233334389Y-33825379D02*
X233334389Y-34277367D01*
X224609178Y-49232550D02*
X224481256Y-49104627D01*
X225802504Y-49573038D02*
G75*
G03*
X226104238Y-49271272I-4J301738D01*
G01*
X226671978Y-34524938D02*
G75*
G03*
X226104238Y-35092740I22J-567762D01*
G01*
X233086756Y-34524989D02*
G75*
G03*
X233334389Y-34277367I44J247589D01*
G01*
X224609169Y-49232559D02*
G75*
G03*
X225431113Y-49573006I821931J821959D01*
G01*
X224481271Y-49104612D02*
G75*
G03*
X223727160Y-48792270I-754071J-754088D01*
G01*
%TO.N,/CC2*%
X232068750Y-33537500D02*
X230712500Y-33537500D01*
X232068750Y-33537550D02*
G75*
G03*
X232568750Y-33037500I-50J500050D01*
G01*
D36*
%TO.N,D_P*%
X57292522Y-62745500D02*
X62453025Y-62745500D01*
X56630316Y-51225574D02*
X56630316Y-62083294D01*
X219066799Y-50550334D02*
X218697545Y-50181080D01*
X65948493Y-65092726D02*
X66008594Y-65152827D01*
X218275469Y-50006250D02*
X57849640Y-50006250D01*
X66675000Y-65284266D02*
X66325915Y-65284266D01*
X221118613Y-50692270D02*
X219409462Y-50692270D01*
X65948493Y-65092726D02*
X64413197Y-63557430D01*
X67790551Y-66022785D02*
X67318643Y-65550877D01*
X219066824Y-50550309D02*
G75*
G03*
X219409462Y-50692270I342676J342609D01*
G01*
X64413184Y-63557443D02*
G75*
G03*
X62453025Y-62745500I-1960184J-1960157D01*
G01*
X66008585Y-65152836D02*
G75*
G03*
X66325915Y-65284266I317315J317336D01*
G01*
X56630300Y-62083294D02*
G75*
G03*
X57292522Y-62745500I662200J-6D01*
G01*
X57849640Y-50006316D02*
G75*
G03*
X56630316Y-51225574I-40J-1219284D01*
G01*
X218697570Y-50181055D02*
G75*
G03*
X218275469Y-50006250I-422070J-422145D01*
G01*
X67318639Y-65550881D02*
G75*
G03*
X66675000Y-65284271I-643639J-643619D01*
G01*
%TO.N,D_N*%
X66300333Y-65734271D02*
X66558866Y-65734271D01*
X66961855Y-65901195D02*
X67436998Y-66376338D01*
X218764262Y-49353183D02*
X219125020Y-48992427D01*
X218279970Y-49553784D02*
X57800933Y-49553784D01*
X56130316Y-51224401D02*
X56130316Y-62107577D01*
X65698524Y-65479153D02*
X64217035Y-63997664D01*
X221118613Y-48792270D02*
X219608241Y-48792270D01*
X57218239Y-63195500D02*
X62280441Y-63195500D01*
X56130300Y-62107577D02*
G75*
G03*
X57218239Y-63195500I1087900J-23D01*
G01*
X57800933Y-49553816D02*
G75*
G03*
X56130316Y-51224401I-33J-1670584D01*
G01*
X219608241Y-48792315D02*
G75*
G03*
X219125020Y-48992427I-41J-683385D01*
G01*
X64217024Y-63997675D02*
G75*
G03*
X62280441Y-63195500I-1936624J-1936625D01*
G01*
X65708481Y-65489137D02*
G75*
G03*
X66300333Y-65734271I591819J591837D01*
G01*
X218279970Y-49553764D02*
G75*
G03*
X218764261Y-49353182I30J684864D01*
G01*
X66961876Y-65901174D02*
G75*
G03*
X66558866Y-65734271I-402976J-403026D01*
G01*
%TO.N,Net-(LED2-DOUT)*%
X29760000Y-51715000D02*
X29760000Y-67256057D01*
X29350625Y-68244375D02*
X28660000Y-68935000D01*
X29350648Y-68244398D02*
G75*
G03*
X29760000Y-67256057I-988348J988298D01*
G01*
%TO.N,Net-(LED3-DOUT)*%
X30041250Y-35475000D02*
X29245786Y-36270464D01*
X28660000Y-37684677D02*
X28660000Y-49885000D01*
X29245797Y-36270475D02*
G75*
G03*
X28660000Y-37684677I1414203J-1414225D01*
G01*
D37*
%TO.N,NRST*%
X73380408Y-73733962D02*
X72616555Y-72970109D01*
X73660000Y-74765536D02*
X73660000Y-74408956D01*
X71737281Y-77025116D02*
X73421803Y-75340594D01*
X73660026Y-74408956D02*
G75*
G03*
X73380408Y-73733962I-954626J-44D01*
G01*
X73421774Y-75340565D02*
G75*
G03*
X73660000Y-74765536I-574974J575065D01*
G01*
D36*
%TO.N,Net-(LED4-DOUT)*%
X51472500Y-34681250D02*
X32177500Y-34681250D01*
%TO.N,Net-(LED5-DOUT)*%
X53816713Y-34095463D02*
X53302500Y-33581250D01*
X72903750Y-34681250D02*
X55230927Y-34681250D01*
X53816710Y-34095466D02*
G75*
G03*
X55230927Y-34681250I1414190J1414166D01*
G01*
%TO.N,Net-(LED6-DOUT)*%
X91953750Y-34681250D02*
X76662177Y-34681250D01*
X75247963Y-34095463D02*
X74733750Y-33581250D01*
X75247985Y-34095441D02*
G75*
G03*
X76662177Y-34681250I1414215J1414141D01*
G01*
%TO.N,Net-(LED7-DOUT)*%
X111003750Y-34681250D02*
X95712177Y-34681250D01*
X94297963Y-34095463D02*
X93783750Y-33581250D01*
X94297985Y-34095441D02*
G75*
G03*
X95712177Y-34681250I1414215J1414141D01*
G01*
%TO.N,Net-(LED8-DOUT)*%
X112840414Y-33581250D02*
X112833750Y-33581250D01*
X130053750Y-34681250D02*
X114762177Y-34681250D01*
X113448332Y-34189168D02*
X112840414Y-33581250D01*
X113347985Y-34095441D02*
G75*
G03*
X114762177Y-34681250I1414215J1414141D01*
G01*
%TO.N,BOOT0*%
X56402360Y-69133610D02*
X56356250Y-69087500D01*
D37*
X71850104Y-68910556D02*
X72364705Y-68395955D01*
D36*
X57711669Y-69133610D02*
X56402360Y-69133610D01*
X61835140Y-69133610D02*
X61912500Y-69056250D01*
X56125000Y-69318750D02*
X56356250Y-69087500D01*
X57711669Y-69133610D02*
X61835140Y-69133610D01*
D38*
X47700000Y-69318750D02*
X53900000Y-69318750D01*
D36*
X53900000Y-69318750D02*
X56125000Y-69318750D01*
D37*
X71850104Y-68930176D02*
X71850104Y-68910556D01*
D36*
X72364705Y-68395955D02*
X73323662Y-67436998D01*
%TO.N,Net-(LED10-DIN)*%
X133812177Y-34681250D02*
X147187468Y-34681250D01*
X132397963Y-34095463D02*
X131883750Y-33581250D01*
X149103770Y-35474980D02*
G75*
G03*
X147187468Y-34681250I-1916270J-1916320D01*
G01*
X132397985Y-34095441D02*
G75*
G03*
X133812177Y-34681250I1414215J1414141D01*
G01*
%TO.N,Net-(LED10-DOUT)*%
X168947500Y-34681250D02*
X151673102Y-34681250D01*
X150933739Y-34375011D02*
G75*
G03*
X151673102Y-34681250I739361J739411D01*
G01*
%TO.N,Net-(LED11-DOUT)*%
X187203750Y-34681250D02*
X172705927Y-34681250D01*
X171291713Y-34095463D02*
X170777500Y-33581250D01*
X171291710Y-34095466D02*
G75*
G03*
X172705927Y-34681250I1414190J1414166D01*
G01*
%TO.N,Net-(LED12-DOUT)*%
X205460000Y-34681250D02*
X190962177Y-34681250D01*
X189547963Y-34095463D02*
X189033750Y-33581250D01*
X189547985Y-34095441D02*
G75*
G03*
X190962177Y-34681250I1414215J1414141D01*
G01*
%TO.N,Net-(LED13-DOUT)*%
X242093750Y-34131250D02*
X242093750Y-32888269D01*
X207842963Y-34134213D02*
X207290000Y-33581250D01*
X246735000Y-34681250D02*
X242643750Y-34681250D01*
X222892312Y-33796381D02*
X223871660Y-32817034D01*
X220662500Y-34720000D02*
X209257177Y-34720000D01*
X242093750Y-34131250D02*
G75*
G03*
X242643750Y-34681250I549950J-50D01*
G01*
X242122579Y-32818691D02*
G75*
G03*
X242093750Y-32888269I69621J-69609D01*
G01*
X220662500Y-34720008D02*
G75*
G03*
X222892312Y-33796381I0J3153408D01*
G01*
X207842974Y-34134202D02*
G75*
G03*
X209257177Y-34720000I1414226J1414202D01*
G01*
%TO.N,Net-(D40-A)*%
X96043750Y-94808427D02*
X96043750Y-97025000D01*
X90646250Y-93345000D02*
X95408750Y-93345000D01*
X95408750Y-93345000D02*
X95457964Y-93394214D01*
X96043745Y-94808427D02*
G75*
G03*
X95457964Y-93394214I-1999945J27D01*
G01*
%TO.N,Net-(D47-A)*%
X266858750Y-93345000D02*
X266907964Y-93394214D01*
X267493750Y-94808427D02*
X267493750Y-97025000D01*
X262096250Y-93345000D02*
X266858750Y-93345000D01*
X267493745Y-94808427D02*
G75*
G03*
X266907964Y-93394214I-1999945J27D01*
G01*
%TO.N,Net-(LED14-DOUT)*%
X250493427Y-34681250D02*
X266249968Y-34681250D01*
X249079213Y-34095463D02*
X248565000Y-33581250D01*
X249079210Y-34095466D02*
G75*
G03*
X250493427Y-34681250I1414190J1414166D01*
G01*
X268166270Y-35474980D02*
G75*
G03*
X266249968Y-34681250I-1916270J-1916320D01*
G01*
%TO.N,Net-(LED15-DOUT)*%
X269960000Y-49885000D02*
X270257305Y-49587695D01*
X270885250Y-40481250D02*
X270885250Y-35656797D01*
X270607500Y-34986250D02*
X269996250Y-34375000D01*
X270885265Y-35656797D02*
G75*
G03*
X270607500Y-34986250I-948265J-3D01*
G01*
X270257315Y-49587705D02*
G75*
G03*
X270495777Y-49011973I-575715J575705D01*
G01*
%TO.N,RGB MCU*%
X60960000Y-63645500D02*
X57150000Y-63645500D01*
X55246575Y-62857075D02*
X52683272Y-60293772D01*
X66022785Y-67790551D02*
X62526670Y-64294436D01*
X55246585Y-62857065D02*
G75*
G03*
X57150000Y-63645500I1903415J1903365D01*
G01*
X52411547Y-59637816D02*
G75*
G03*
X52683272Y-60293772I927653J16D01*
G01*
X62526669Y-64294437D02*
G75*
G03*
X60960000Y-63645500I-1566669J-1566663D01*
G01*
%TO.N,rgb underglow*%
X31641632Y-53770000D02*
X50729414Y-53770000D01*
X30608814Y-55562500D02*
X30608814Y-54802818D01*
X30608814Y-88966186D02*
X30608814Y-55562500D01*
X51461566Y-54702152D02*
X51461566Y-57362816D01*
X31641632Y-53770014D02*
G75*
G03*
X30608814Y-54802818I-32J-1032786D01*
G01*
X51461600Y-54702152D02*
G75*
G03*
X50529414Y-53770000I-932200J-48D01*
G01*
X29760000Y-89815014D02*
G75*
G03*
X30608814Y-88966186I0J848814D01*
G01*
%TO.N,Net-(LED1-DOUT)*%
X29350625Y-87294375D02*
X28660000Y-87985000D01*
X29760000Y-70765000D02*
X29760000Y-86306057D01*
X29350648Y-87294398D02*
G75*
G03*
X29760000Y-86306057I-988348J988298D01*
G01*
%TO.N,Net-(LED16-DOUT)*%
X271060000Y-51715000D02*
X271060000Y-52759367D01*
X269960000Y-68935000D02*
X270133116Y-68761884D01*
X269875004Y-68729792D02*
G75*
G03*
X269960000Y-68935000I290196J-8D01*
G01*
X270133088Y-68761856D02*
G75*
G03*
X270668750Y-67468750I-1293088J1293156D01*
G01*
X270885260Y-53181260D02*
G75*
G03*
X271060000Y-52759367I-421860J421860D01*
G01*
%TO.N,Net-(LED17-DOUT)*%
X270461469Y-71363531D02*
X271060000Y-70765000D01*
X269960000Y-87985000D02*
X269960000Y-87218558D01*
X269081250Y-71531750D02*
X270055353Y-71531750D01*
X270055353Y-71531712D02*
G75*
G03*
X270461469Y-71363531I47J574312D01*
G01*
%TD*%
M02*
