%TF.GenerationSoftware,KiCad,Pcbnew,(7.0.0)*%
%TF.CreationDate,2023-09-29T19:42:02+02:00*%
%TF.ProjectId,mekanical,6d656b61-6e69-4636-916c-2e6b69636164,rev?*%
%TF.SameCoordinates,Original*%
%TF.FileFunction,Profile,NP*%
%FSLAX46Y46*%
G04 Gerber Fmt 4.6, Leading zero omitted, Abs format (unit mm)*
G04 Created by KiCad (PCBNEW (7.0.0)) date 2023-09-29 19:42:02*
%MOMM*%
%LPD*%
G01*
G04 APERTURE LIST*
%TA.AperFunction,Profile*%
%ADD10C,0.200000*%
%TD*%
G04 APERTURE END LIST*
D10*
X268564658Y-107663307D02*
G75*
G03*
X269727109Y-107950000I1162442J2213307D01*
G01*
X146963945Y-31750000D02*
X36573555Y-31750000D01*
X263463945Y-31750000D02*
X240262500Y-31750000D01*
X29193750Y-107950000D02*
X30310391Y-107950000D01*
X29193750Y-31750000D02*
G75*
G03*
X27193750Y-33750000I0J-2000000D01*
G01*
X229262500Y-24850000D02*
X229262500Y-30750000D01*
X229762500Y-24350000D02*
G75*
G03*
X229262500Y-24850000I0J-500000D01*
G01*
X35564660Y-107663305D02*
G75*
G03*
X31472840Y-107663305I-2045910J-3895411D01*
G01*
X228262500Y-31750000D02*
G75*
G03*
X229262500Y-30750000I0J1000000D01*
G01*
X27193750Y-105950000D02*
G75*
G03*
X29193750Y-107950000I2000000J0D01*
G01*
X153227109Y-107950000D02*
X263310391Y-107950000D01*
X269573555Y-31749981D02*
G75*
G03*
X268466742Y-32008358I45J-2500019D01*
G01*
X36573555Y-31749981D02*
G75*
G03*
X35466742Y-32008358I45J-2500019D01*
G01*
X30463945Y-31750000D02*
X29193750Y-31750000D01*
X31570758Y-32008356D02*
G75*
G03*
X35466742Y-32008356I1947992J3945293D01*
G01*
X31570749Y-32008375D02*
G75*
G03*
X30463945Y-31750000I-1106849J-2241625D01*
G01*
X239262500Y-30750000D02*
G75*
G03*
X240262500Y-31750000I1000000J0D01*
G01*
X272843800Y-33750000D02*
G75*
G03*
X270843750Y-31750000I-2000000J0D01*
G01*
X27193750Y-33750000D02*
X27193750Y-105950000D01*
X152064658Y-107663307D02*
G75*
G03*
X153227109Y-107950000I1162442J2213307D01*
G01*
X268564660Y-107663305D02*
G75*
G03*
X264472840Y-107663305I-2045910J-3895411D01*
G01*
X238762500Y-24350000D02*
X229762500Y-24350000D01*
X148070758Y-32008356D02*
G75*
G03*
X151966742Y-32008356I1947992J3945293D01*
G01*
X30310391Y-107949996D02*
G75*
G03*
X31472840Y-107663304I9J2499996D01*
G01*
X239262500Y-30750000D02*
X239262500Y-24850000D01*
X35564658Y-107663307D02*
G75*
G03*
X36727109Y-107950000I1162442J2213307D01*
G01*
X272843750Y-105950000D02*
X272843750Y-33750000D01*
X264570758Y-32008356D02*
G75*
G03*
X268466742Y-32008356I1947992J3945293D01*
G01*
X239262500Y-24850000D02*
G75*
G03*
X238762500Y-24350000I-500000J0D01*
G01*
X36727109Y-107950000D02*
X146810391Y-107950000D01*
X270843750Y-107949950D02*
G75*
G03*
X272843750Y-105950000I50J1999950D01*
G01*
X153073555Y-31749981D02*
G75*
G03*
X151966742Y-32008358I45J-2500019D01*
G01*
X263310391Y-107949996D02*
G75*
G03*
X264472840Y-107663304I9J2499996D01*
G01*
X152064660Y-107663305D02*
G75*
G03*
X147972840Y-107663305I-2045910J-3895411D01*
G01*
X148070749Y-32008375D02*
G75*
G03*
X146963945Y-31750000I-1106849J-2241625D01*
G01*
X264570749Y-32008375D02*
G75*
G03*
X263463945Y-31750000I-1106849J-2241625D01*
G01*
X228262500Y-31750000D02*
X153073555Y-31750000D01*
X270843750Y-31750000D02*
X269573555Y-31750000D01*
X269727109Y-107950000D02*
X270843750Y-107950000D01*
X146810391Y-107949996D02*
G75*
G03*
X147972840Y-107663304I9J2499996D01*
G01*
M02*
