<?xml version="1.0" standalone="no"?>
 <!DOCTYPE svg PUBLIC "-//W3C//DTD SVG 1.1//EN" 
 "http://www.w3.org/Graphics/SVG/1.1/DTD/svg11.dtd"> 
<svg
  xmlns:svg="http://www.w3.org/2000/svg"
  xmlns="http://www.w3.org/2000/svg"
  xmlns:xlink="http://www.w3.org/1999/xlink"
  version="1.1"
  width="249.0724mm" height="86.2838mm" viewBox="0.0000 0.0000 249.0724 86.2838">
<title>SVG Image created as forti rev 2-F_Silkscreen.svg date 2024/06/17 21:17:15 </title>
  <desc>Image generated by PCBNEW </desc>
<g style="fill:#000000; fill-opacity:1.0000;stroke:#000000; stroke-opacity:1.0000;
stroke-linecap:round; stroke-linejoin:round;"
 transform="translate(0 0) scale(1 1)">
</g>
<g style="fill:#000000; fill-opacity:0.0; 
stroke:#000000; stroke-width:0.0000; stroke-opacity:1; 
stroke-linecap:round; stroke-linejoin:round;">
</g>
<g style="fill:#F2EDA1; fill-opacity:0.0; 
stroke:#F2EDA1; stroke-width:0.0000; stroke-opacity:1; 
stroke-linecap:round; stroke-linejoin:round;">
</g>
<g style="fill:#F2EDA1; fill-opacity:0.0; 
stroke:#F2EDA1; stroke-width:0.1200; stroke-opacity:1; 
stroke-linecap:round; stroke-linejoin:round;">
<path d="M213.6466 7.6875
L213.6466 5.6875
" />
<path d="M213.6466 3.7875
L213.6466 1.8875
" />
<path d="M213.6466 1.8875
L204.2466 1.8875
" />
<path d="M204.2466 7.6875
L204.2466 5.6875
" />
<path d="M204.2466 3.7875
L204.2466 1.8875
" />
</g>
<g style="fill:#F2EDA1; fill-opacity:1.0000; 
stroke:#F2EDA1; stroke-width:0.0000; stroke-opacity:1; 
stroke-linecap:round; stroke-linejoin:round;">
<path style="fill:#F2EDA1; fill-opacity:1.0000; 
stroke:#F2EDA1; stroke-width:0.0000; stroke-opacity:1; 
stroke-linecap:round; stroke-linejoin:round;fill-rule:evenodd;"
d="M 78.8653,73.0966
79.0058,73.1031
79.0997,73.1172
79.1562,73.1415
79.1842,73.1785
79.1931,73.2310
79.1933,73.2465
79.1808,73.2907
79.1449,73.3879
79.0884,73.5320
79.0136,73.7166
78.9232,73.9353
78.8198,74.1819
78.7060,74.4501
78.6067,74.6817
78.4857,74.9645
78.3742,75.2289
78.2746,75.4691
78.1894,75.6789
78.1209,75.8522
78.0716,75.9832
78.0439,76.0656
78.0390,76.0927
78.0549,76.1115
78.0917,76.1245
78.1588,76.1323
78.2654,76.1357
78.4208,76.1353
78.5690,76.1332
79.0799,76.1242
79.0887,75.4626
79.0938,75.2120
79.1017,75.0121
79.1120,74.8669
79.1246,74.7802
79.1332,74.7579
79.1795,74.7398
79.2750,74.7262
79.4050,74.7171
79.5549,74.7126
79.7102,74.7127
79.8561,74.7174
79.9781,74.7268
80.0615,74.7410
80.0904,74.7554
80.0991,74.7989
80.1082,74.8967
80.1171,75.0387
80.1251,75.2142
80.1316,75.4131
80.1329,75.4601
80.1491,76.1242
80.3690,76.1404
80.5171,76.1591
80.6022,76.1887
80.6195,76.2052
80.6313,76.2550
80.6410,76.3553
80.6476,76.4917
80.6502,76.6501
80.6502,76.6588
80.6479,76.8179
80.6414,76.9558
80.6319,77.0584
80.6202,77.1112
80.6195,77.1124
80.5626,77.1467
80.4424,77.1702
80.3690,77.1772
80.1491,77.1934
80.1401,77.6933
80.1342,77.8928
80.1249,78.0546
80.1128,78.1703
80.0985,78.2312
80.0956,78.2359
80.0606,78.2546
79.9865,78.2675
79.8657,78.2752
79.6906,78.2785
79.6145,78.2787
79.4184,78.2768
79.2793,78.2707
79.1897,78.2598
79.1417,78.2432
79.1334,78.2359
79.1188,78.1865
79.1062,78.0808
79.0963,77.9272
79.0897,77.7343
79.0889,77.6933
79.0799,77.1934
77.8509,77.1849
77.5324,77.1824
77.2724,77.1797
77.0648,77.1764
76.9033,77.1722
76.7816,77.1669
76.6935,77.1601
76.6329,77.1515
76.5934,77.1409
76.5688,77.1278
76.5631,77.1232
76.5173,77.0666
76.5043,77.0297
76.5167,76.9882
76.5511,76.8978
76.6034,76.7688
76.6694,76.6116
76.7348,76.4597
76.7979,76.3144
76.8826,76.1191
76.9849,75.8832
77.1005,75.6163
77.2254,75.3278
77.3555,75.0271
77.4868,74.7239
77.5467,74.5853
77.6680,74.3056
77.7828,74.0424
77.8883,73.8021
77.9816,73.5910
78.0600,73.4154
78.1206,73.2818
78.1606,73.1965
78.1755,73.1679
78.1976,73.1388
78.2271,73.1187
78.2750,73.1059
78.3528,73.0988
78.4714,73.0957
78.6421,73.0950
78.6692,73.0950
Z" /> 
<path style="fill:#F2EDA1; fill-opacity:1.0000; 
stroke:#F2EDA1; stroke-width:0.0000; stroke-opacity:1; 
stroke-linecap:round; stroke-linejoin:round;fill-rule:evenodd;"
d="M 82.9454,75.6971
83.9882,75.6971
84.0018,75.8764
84.0380,76.0742
84.0904,76.2608
84.1395,76.3820
84.2100,76.5101
84.2867,76.6273
84.3600,76.7207
84.4199,76.7773
84.4466,76.7883
84.4783,76.7616
84.5442,76.6830
84.6427,76.5544
84.7722,76.3780
84.9312,76.1559
85.1183,75.8903
85.3317,75.5831
85.3654,75.5343
85.5408,75.2797
85.7050,75.0407
85.8542,74.8228
85.9848,74.6312
86.0931,74.4715
86.1754,74.3490
86.2280,74.2693
86.2470,74.2382
86.2337,74.1949
86.1671,74.1556
86.0585,74.1219
85.9194,74.0954
85.7612,74.0779
85.5953,74.0710
85.4331,74.0764
85.2861,74.0956
85.2770,74.0974
84.9890,74.1892
84.7252,74.3354
84.4920,74.5282
84.2957,74.7598
84.1425,75.0224
84.0388,75.3082
83.9908,75.6093
83.9882,75.6971
82.9454,75.6971
82.9421,75.5912
82.9885,75.1989
83.0936,74.8132
83.2575,74.4400
83.4803,74.0850
83.5490,73.9950
83.7556,73.7738
84.0099,73.5636
84.2948,73.3754
84.5931,73.2199
84.8876,73.1080
84.9926,73.0798
85.4000,73.0166
85.8132,73.0154
86.2219,73.0754
86.6072,73.1926
86.7263,73.2374
86.8234,73.2712
86.8817,73.2883
86.8889,73.2893
86.9265,73.2641
86.9738,73.2023
86.9792,73.1934
87.0337,73.1073
87.0855,73.0510
87.1499,73.0183
87.2421,73.0027
87.3774,72.9981
87.4506,72.9978
87.6369,73.0042
87.7629,73.0269
87.8315,73.0718
87.8456,73.1444
87.8080,73.2504
87.7215,73.3955
87.6816,73.4546
87.6086,73.5655
87.5527,73.6599
87.5225,73.7228
87.5196,73.7357
87.5398,73.7831
87.5922,73.8593
87.6509,73.9308
87.8932,74.2530
88.0846,74.6076
88.2219,74.9853
88.3019,75.3767
88.3214,75.7727
88.3168,75.8663
88.2586,76.2736
88.1446,76.6550
87.9797,77.0074
87.7690,77.3272
87.5174,77.6114
87.2298,77.8564
86.9114,78.0590
86.5669,78.2160
86.2015,78.3239
85.8200,78.3794
85.4275,78.3792
85.0289,78.3201
84.7558,78.2441
84.6301,78.2027
84.5296,78.1704
84.4686,78.1518
84.4573,78.1491
84.4341,78.1738
84.3852,78.2389
84.3208,78.3308
84.3150,78.3394
84.2432,78.4373
84.1782,78.5127
84.1337,78.5497
84.1329,78.5500
84.0772,78.5594
83.9758,78.5665
83.8481,78.5701
83.8097,78.5703
83.6595,78.5666
83.5613,78.5542
83.5026,78.5311
83.4884,78.5194
83.4499,78.4626
83.4438,78.3936
83.4729,78.3031
83.5398,78.1820
83.6368,78.0365
83.7373,77.8851
83.7950,77.7802
83.8104,77.7205
83.8069,77.7112
83.7737,77.6697
83.7099,77.5927
83.6269,77.4938
83.5888,77.4487
83.4138,77.2083
85.1304,77.2083
85.1305,77.2096
85.1695,77.2569
85.2600,77.2935
85.3895,77.3184
85.5453,77.3302
85.7149,77.3278
85.8857,77.3101
85.9939,77.2893
86.3024,77.1847
86.5772,77.0266
86.8137,76.8192
87.0071,76.5671
87.1527,76.2747
87.1875,76.1760
87.2433,75.9200
87.2558,75.6491
87.2273,75.3785
87.1603,75.1235
87.0571,74.8995
86.9716,74.7776
86.9083,74.7106
86.8648,74.6913
86.8353,74.7050
86.8030,74.7430
86.7414,74.8251
86.6572,74.9421
86.5572,75.0842
86.4667,75.2154
86.3553,75.3777
86.2167,75.5791
86.0604,75.8058
85.8962,76.0436
85.7337,76.2785
85.6324,76.4248
85.4992,76.6191
85.3796,76.7976
85.2782,76.9532
85.1998,77.0783
85.1490,77.1658
85.1304,77.2083
83.4138,77.2083
83.3425,77.1104
83.1546,76.7497
83.0252,76.3724
82.9544,75.9843
Z" /> 
<path style="fill:#F2EDA1; fill-opacity:1.0000; 
stroke:#F2EDA1; stroke-width:0.0000; stroke-opacity:1; 
stroke-linecap:round; stroke-linejoin:round;fill-rule:evenodd;"
d="M 169.8797,75.8147
170.1505,76.0855
169.7823,76.0855
169.4142,76.0855
169.1434,75.8147
168.8727,75.5440
169.2408,75.5440
169.6090,75.5440
Z" /> 
<path style="fill:#F2EDA1; fill-opacity:1.0000; 
stroke:#F2EDA1; stroke-width:0.0000; stroke-opacity:1; 
stroke-linecap:round; stroke-linejoin:round;fill-rule:evenodd;"
d="M 168.9451,76.0820
169.0047,76.1416
169.0624,76.1994
169.1180,76.2550
169.1709,76.3081
169.2210,76.3583
169.2677,76.4053
169.3109,76.4487
169.3501,76.4881
169.3849,76.5233
169.4150,76.5537
169.4401,76.5791
169.4598,76.5991
169.4737,76.6134
169.4815,76.6216
169.4831,76.6235
169.4784,76.6241
169.4650,76.6246
169.4436,76.6251
169.4148,76.6256
169.3794,76.6260
169.3382,76.6263
169.2918,76.6266
169.2410,76.6268
169.1865,76.6270
169.1290,76.6270
169.1185,76.6271
168.7539,76.6271
168.2124,76.0855
167.6708,75.5440
168.0390,75.5440
168.4071,75.5440
Z" /> 
<path style="fill:#F2EDA1; fill-opacity:1.0000; 
stroke:#F2EDA1; stroke-width:0.0000; stroke-opacity:1; 
stroke-linecap:round; stroke-linejoin:round;fill-rule:evenodd;"
d="M 169.5541,73.5653
169.5963,73.6075
169.6364,73.6477
169.6739,73.6855
169.7085,73.7204
169.7395,73.7517
169.7665,73.7792
169.7889,73.8022
169.8064,73.8202
169.8184,73.8327
169.8243,73.8393
169.8249,73.8402
169.8205,73.8436
169.8100,73.8516
169.7948,73.8631
169.7764,73.8769
169.7721,73.8801
169.6531,73.9634
169.5280,74.0398
169.3972,74.1089
169.2615,74.1704
169.1214,74.2241
169.1022,74.2307
169.0655,74.2427
169.0240,74.2556
168.9802,74.2686
168.9367,74.2810
168.8959,74.2920
168.8605,74.3010
168.8465,74.3042
168.8315,74.3079
168.8202,74.3110
168.8164,74.3125
168.8193,74.3144
168.8300,74.3180
168.8469,74.3230
168.8688,74.3290
168.8829,74.3326
169.0315,74.3742
169.1738,74.4227
169.3103,74.4782
169.4416,74.5411
169.5683,74.6117
169.6909,74.6902
169.8100,74.7769
169.8845,74.8367
169.9041,74.8537
169.9273,74.8749
169.9532,74.8993
169.9811,74.9263
170.0102,74.9549
170.0395,74.9843
170.0685,75.0138
170.0961,75.0425
170.1218,75.0695
170.1445,75.0941
170.1636,75.1154
170.1782,75.1326
170.1876,75.1449
170.1909,75.1515
170.1862,75.1517
170.1724,75.1520
170.1498,75.1522
170.1188,75.1524
170.0799,75.1527
170.0333,75.1529
169.9794,75.1531
169.9186,75.1533
169.8513,75.1534
169.7779,75.1536
169.6987,75.1538
169.6141,75.1539
169.5244,75.1540
169.4301,75.1541
169.3315,75.1542
169.2290,75.1543
169.1229,75.1544
169.0137,75.1544
168.9017,75.1544
168.8050,75.1544
167.4190,75.1544
166.9535,75.6200
166.4880,76.0855
166.9535,76.5510
167.4190,77.0166
169.2812,77.0166
171.1433,77.0166
170.2123,77.9476
169.2812,78.8787
168.1150,78.8787
166.9488,78.8787
166.0189,77.9488
165.0890,77.0189
165.0890,76.0855
165.0890,75.1521
166.0189,74.2222
166.9488,73.2923
168.1150,73.2923
169.2812,73.2923
Z" /> 
<path style="fill:#F2EDA1; fill-opacity:1.0000; 
stroke:#F2EDA1; stroke-width:0.0000; stroke-opacity:1; 
stroke-linecap:round; stroke-linejoin:round;fill-rule:evenodd;"
d="M 170.9378,72.8061
170.9407,72.8125
170.9448,72.8259
170.9505,72.8471
170.9533,72.8578
170.9922,72.9910
171.0399,73.1206
171.0961,73.2461
171.1607,73.3674
171.2336,73.4841
171.3145,73.5959
171.3509,73.6413
171.3954,73.6927
171.4462,73.7466
171.5011,73.8012
171.5580,73.8544
171.6150,73.9041
171.6611,73.9416
171.7607,74.0142
171.8670,74.0813
171.9784,74.1422
172.0935,74.1962
172.2108,74.2426
172.3289,74.2807
172.3810,74.2947
172.4039,74.3005
172.4239,74.3057
172.4389,74.3096
172.4469,74.3118
172.4473,74.3119
172.4454,74.3138
172.4357,74.3175
172.4196,74.3226
172.3982,74.3286
172.3832,74.3326
172.2525,74.3710
172.1258,74.4179
172.0032,74.4730
171.8853,74.5359
171.7723,74.6064
171.6645,74.6842
171.5623,74.7689
171.4660,74.8602
171.3759,74.9578
171.2924,75.0614
171.2158,75.1707
171.1465,75.2853
171.0848,75.4050
171.0310,75.5295
170.9957,75.6266
170.9854,75.6585
170.9747,75.6935
170.9646,75.7279
170.9563,75.7583
170.9538,75.7677
170.9474,75.7929
170.9429,75.8099
170.9397,75.8197
170.9375,75.8233
170.9356,75.8217
170.9338,75.8159
170.9328,75.8124
170.9217,75.7697
170.9123,75.7346
170.9042,75.7052
170.8968,75.6798
170.8898,75.6567
170.8826,75.6341
170.8762,75.6152
170.8285,75.4888
170.7723,75.3663
170.7080,75.2483
170.6360,75.1352
170.5566,75.0272
170.4702,74.9248
170.3770,74.8284
170.2775,74.7384
170.1720,74.6551
170.0608,74.5790
169.9443,74.5104
169.8560,74.4653
169.7731,74.4280
169.6868,74.3938
169.5999,74.3636
169.5153,74.3384
169.4724,74.3275
169.4534,74.3227
169.4389,74.3182
169.4307,74.3149
169.4296,74.3134
169.4353,74.3112
169.4484,74.3072
169.4671,74.3020
169.4896,74.2961
169.4950,74.2947
169.6219,74.2578
169.7462,74.2119
169.8673,74.1574
169.9847,74.0949
170.0979,74.0245
170.2063,73.9467
170.3094,73.8618
170.4068,73.7702
170.4978,73.6723
170.5820,73.5684
170.6246,73.5096
170.6983,73.3958
170.7638,73.2777
170.8212,73.1550
170.8706,73.0274
170.9123,72.8946
170.9341,72.8102
170.9357,72.8057
Z" /> 
<g >
</g>
<g >
</g>
<g >
</g>
<g >
</g>
<g >
</g>
<g >
</g>
<g >
</g>
<g >
</g>
<g >
</g>
<g >
</g>
<g >
</g>
<g >
</g>
<g >
</g>
<g >
</g>
<g >
</g>
<g >
</g>
<g >
</g>
<g >
</g>
<g >
</g>
<g >
</g>
<g >
</g>
<g >
</g>
<g >
</g>
<g >
</g>
<g >
</g>
<g >
</g>
<g >
</g>
<g >
</g>
<g >
</g>
<g >
</g>
<g >
</g>
<g >
</g>
<g >
</g>
<g >
</g>
<g >
</g>
<g >
</g>
<g >
</g>
<g >
</g>
<g >
</g>
<g >
</g>
<g >
</g>
<g >
</g>
<g >
</g>
<g >
</g>
<g >
</g>
<g >
</g>
<g >
</g>
<g >
</g>
<g >
</g>
<g >
</g>
<g >
</g>
<g >
</g>
<g >
</g>
<g >
</g>
<g >
</g>
<g >
</g>
<g >
</g>
<g >
</g>
<g >
</g>
<g >
</g>
<g >
</g>
<g >
</g>
<g >
</g>
<g >
</g>
<g >
</g>
<g >
</g>
<g >
</g>
<g >
</g>
<g >
</g>
<g >
</g>
<g >
</g>
<g >
</g>
<g >
</g>
<g >
</g>
<g >
</g>
<g >
</g>
<g >
</g>
<g >
</g>
<g >
</g>
<g >
</g>
<g >
</g>
<g >
</g>
<g >
</g>
<g >
</g>
<g >
</g>
<g >
</g>
<g >
</g>
<g >
</g>
<g >
</g>
<g >
</g>
<g >
</g>
<g >
</g>
<g >
</g>
<g >
</g>
<g >
</g>
<g >
</g>
<g >
</g>
<g >
</g>
<g >
</g>
<g >
</g>
<g >
</g>
<g >
</g>
<g >
</g>
<g >
</g>
<g >
</g>
<g >
</g>
<g >
</g>
<g >
</g>
<g >
</g>
<g >
</g>
<g >
</g>
<g >
</g>
<g >
</g>
<g >
</g>
<g >
</g>
<g >
</g>
<g >
</g>
<g >
</g>
<g >
</g>
<g >
</g>
<g >
</g>
<g >
</g>
<g >
</g>
<g >
</g>
<g >
</g>
<g >
</g>
<g >
</g>
<g >
</g>
<g >
</g>
<g >
</g>
<g >
</g>
<g >
</g>
<g >
</g>
<g >
</g>
<g >
</g>
<g >
</g>
<g >
</g>
<g >
</g>
<g >
</g>
<g >
</g>
<g >
</g>
<g >
</g>
<g >
</g>
<g >
</g>
<g >
</g>
<g >
</g>
<g >
</g>
<g >
</g>
<g >
</g>
<g >
</g>
<g >
</g>
<g >
</g>
<g >
</g>
<g >
</g>
<g >
</g>
<g >
</g>
<g >
</g>
<g >
</g>
<g >
</g>
<g >
</g>
<g >
</g>
<g >
</g>
<g >
</g>
<g >
</g>
<g >
</g>
<g >
</g>
<g >
</g>
</g>
<g style="fill:#000000; fill-opacity:1.0000; 
stroke:#000000; stroke-width:0.0000; stroke-opacity:1; 
stroke-linecap:round; stroke-linejoin:round;">
</g>
<g style="fill:#D0D2CD; fill-opacity:1.0000; 
stroke:#D0D2CD; stroke-width:0.0000; stroke-opacity:1; 
stroke-linecap:round; stroke-linejoin:round;">
</g>
<g style="fill:#D0D2CD; fill-opacity:0.0; 
stroke:#D0D2CD; stroke-width:0.2000; stroke-opacity:1; 
stroke-linecap:round; stroke-linejoin:round;">
<path d="M120.0739 10.7414 A2.0000 2.0000 0.0 0 0 121.6282 11.4828" />
<path d="M127.7643 11.4828
L121.6282 11.4828
" />
<path d="M2.8712 84.7208
L10.2902 84.7208
" />
<path d="M213.4400 3.3250
L204.4400 3.3250
" />
<path d="M204.4400 3.3250 A0.5000 0.5000 0.0 0 0 203.9400 3.8250" />
<path d="M118.5215 86.2000 A2.0000 2.0000 0.0 0 0 120.0744 85.4604" />
<path d="M121.6273 84.7208
L127.7652 84.7208
" />
<path d="M213.9400 3.8250 A0.5000 0.5000 0.0 0 0 213.4400 3.3250" />
<path d="M202.9400 10.0000
L130.8729 10.0000
" />
<path d="M118.5196 10.0000
L13.3979 10.0000
" />
<path d="M247.5212 83.7208
L247.5212 12.4828
" />
<path d="M203.9400 3.8250
L203.9400 9.0000
" />
<path d="M247.5213 12.4828 A1.0000 1.0000 0.0 0 0 246.5213 11.4828" />
<path d="M130.8729 10.0000 A2.0000 2.0000 0.0 0 0 129.3186 10.7414" />
<path d="M120.0739 10.7414 A2.0000 2.0000 0.0 0 0 118.5196 10.0000" />
<path d="M246.5212 11.4828
L239.1032 11.4828
" />
<path d="M237.5489 10.7414 A2.0000 2.0000 0.0 0 0 239.1032 11.4828" />
<path d="M239.1023 84.7208
L246.5212 84.7208
" />
<path d="M121.6273 84.7208 A2.0000 2.0000 0.0 0 0 120.0744 85.4604" />
<path d="M235.9965 86.2000 A2.0000 2.0000 0.0 0 0 237.5494 85.4604" />
<path d="M11.8431 85.4604 A2.0000 2.0000 0.0 0 0 13.3960 86.2000" />
<path d="M129.3181 85.4604 A2.0000 2.0000 0.0 0 0 127.7652 84.7208" />
<path d="M1.8712 12.4828
L1.8712 83.7208
" />
<path d="M10.2893 11.4828
L2.8712 11.4828
" />
<path d="M127.7643 11.4828 A2.0000 2.0000 0.0 0 0 129.3186 10.7414" />
<path d="M239.1023 84.7208 A2.0000 2.0000 0.0 0 0 237.5494 85.4604" />
<path d="M130.8710 86.2000
L235.9965 86.2000
" />
<path d="M237.5489 10.7414 A2.0000 2.0000 0.0 0 0 235.9946 10.0000" />
<path d="M213.9400 9.0000 A1.0000 1.0000 0.0 0 0 214.9400 10.0000" />
<path d="M1.8712 83.7208 A1.0000 1.0000 0.0 0 0 2.8712 84.7208" />
<path d="M129.3181 85.4604 A2.0000 2.0000 0.0 0 0 130.8710 86.2000" />
<path d="M10.2893 11.4828 A2.0000 2.0000 0.0 0 0 11.8436 10.7414" />
<path d="M202.9400 10.0000 A1.0000 1.0000 0.0 0 0 203.9400 9.0000" />
<path d="M13.3960 86.2000
L118.5215 86.2000
" />
<path d="M235.9946 10.0000
L214.9400 10.0000
" />
<path d="M2.8712 11.4829 A1.0000 1.0000 0.0 0 0 1.8713 12.4828" />
<path d="M11.8431 85.4604 A2.0000 2.0000 0.0 0 0 10.2902 84.7208" />
<path d="M246.5213 84.7207 A1.0000 1.0000 0.0 0 0 247.5212 83.7208" />
<path d="M13.3979 10.0000 A2.0000 2.0000 0.0 0 0 11.8436 10.7414" />
<path d="M213.9400 9.0000
L213.9400 3.8250
" />
<g >
</g>
<g >
</g>
<g >
</g>
<g >
</g>
<g >
</g>
<g >
</g>
<g >
</g>
<g >
</g>
<g >
</g>
<g >
</g>
<g >
</g>
<g >
</g>
<g >
</g>
<g >
</g>
<g >
</g>
<g >
</g>
<g >
</g>
<g >
</g>
<g >
</g>
<g >
</g>
<g >
</g>
<g >
</g>
<g >
</g>
<g >
</g>
<g >
</g>
<g >
</g>
<g >
</g>
<g >
</g>
<g >
</g>
<g >
</g>
<g >
</g>
<g >
</g>
<g >
</g>
<g >
</g>
<g >
</g>
<g >
</g>
<g >
</g>
<g >
</g>
<g >
</g>
<g >
</g>
<g >
</g>
<g >
</g>
<g >
</g>
<g >
</g>
<g >
</g>
<g >
</g>
<g >
</g>
<g >
</g>
<g >
</g>
<g >
</g>
<g >
</g>
<g >
</g>
<g >
</g>
<g >
</g>
<g >
</g>
<g >
</g>
<g >
</g>
<g >
</g>
<g >
</g>
<g >
</g>
<g >
</g>
<g >
</g>
<g >
</g>
<g >
</g>
<g >
</g>
<g >
</g>
<g >
</g>
<g >
</g>
<g >
</g>
<g >
</g>
<g >
</g>
<g >
</g>
<g >
</g>
<g >
</g>
<g >
</g>
<g >
</g>
<g >
</g>
<g >
</g>
<g >
</g>
<g >
</g>
<g >
</g>
<g >
</g>
<g >
</g>
<g >
</g>
<g >
</g>
<g >
</g>
<g >
</g>
<g >
</g>
<g >
</g>
<g >
</g>
<g >
</g>
<g >
</g>
<g >
</g>
<g >
</g>
<g >
</g>
<g >
</g>
<g >
</g>
<g >
</g>
<g >
</g>
<g >
</g>
<g >
</g>
<g >
</g>
<g >
</g>
<g >
</g>
<g >
</g>
<g >
</g>
<g >
</g>
<g >
</g>
<g >
</g>
<g >
</g>
<g >
</g>
<g >
</g>
<g >
</g>
<g >
</g>
<g >
</g>
<g >
</g>
<g >
</g>
<g >
</g>
<g >
</g>
<g >
</g>
<g >
</g>
<g >
</g>
<g >
</g>
<g >
</g>
<g >
</g>
<g >
</g>
<g >
</g>
<g >
</g>
<g >
</g>
<g >
</g>
<g >
</g>
<g >
</g>
<g >
</g>
<g >
</g>
<g >
</g>
<g >
</g>
<g >
</g>
<g >
</g>
<g >
</g>
<g >
</g>
<g >
</g>
<g >
</g>
<g >
</g>
<g >
</g>
<g >
</g>
<g >
</g>
<g >
</g>
<g >
</g>
<g >
</g>
<g >
</g>
<g >
</g>
<g >
</g>
<g >
</g>
<g >
</g>
<g >
</g>
<g >
</g>
<g >
</g>
<g >
</g>
<g >
</g>
<g >
</g>
<g >
</g>
<g >
</g>
<g >
</g>
<g >
</g>
<g >
</g>
<g >
</g>
<g >
</g>
</g> 
</svg>
