<?xml version="1.0" standalone="no"?>
 <!DOCTYPE svg PUBLIC "-//W3C//DTD SVG 1.1//EN" 
 "http://www.w3.org/Graphics/SVG/1.1/DTD/svg11.dtd"> 
<svg
  xmlns:svg="http://www.w3.org/2000/svg"
  xmlns="http://www.w3.org/2000/svg"
  xmlns:xlink="http://www.w3.org/1999/xlink"
  version="1.1"
  width="249.0724mm" height="86.2838mm" viewBox="0.0000 0.0000 249.0724 86.2838">
<title>SVG Image created as forti rev 2-F_Paste.svg date 2024/06/17 21:17:15 </title>
  <desc>Image generated by PCBNEW </desc>
<g style="fill:#000000; fill-opacity:1.0000;stroke:#000000; stroke-opacity:1.0000;
stroke-linecap:round; stroke-linejoin:round;"
 transform="translate(0 0) scale(1 1)">
</g>
<g style="fill:#000000; fill-opacity:0.0; 
stroke:#000000; stroke-width:0.0000; stroke-opacity:1; 
stroke-linecap:round; stroke-linejoin:round;">
<g >
</g>
<g >
</g>
<g style="fill:#B4A09A; fill-opacity:0.0; 
stroke:#B4A09A; stroke-width:0.0000; stroke-opacity:1; 
stroke-linecap:round; stroke-linejoin:round;">
</g>
<g style="fill:#B4A09A; fill-opacity:0.0; 
stroke:#B4A09A; stroke-width:0.0000; stroke-opacity:1; 
stroke-linecap:round; stroke-linejoin:round;">
</g>
<g style="fill:#B4A09A; fill-opacity:0.9000; 
stroke:#B4A09A; stroke-width:0.0000; stroke-opacity:1; 
stroke-linecap:round; stroke-linejoin:round;">
<path style="fill:#B4A09A; fill-opacity:0.9000; 
stroke:#B4A09A; stroke-width:0.0000; stroke-opacity:1; 
stroke-linecap:round; stroke-linejoin:round;fill-rule:evenodd;"
d="M 212.4966,9.1075
212.4966,10.5575
211.8966,10.5575
211.8966,9.1075
Z" /> 
<path style="fill:#B4A09A; fill-opacity:0.9000; 
stroke:#B4A09A; stroke-width:0.0000; stroke-opacity:1; 
stroke-linecap:round; stroke-linejoin:round;fill-rule:evenodd;"
d="M 211.6966,9.1075
211.6966,10.5575
211.0966,10.5575
211.0966,9.1075
Z" /> 
<path style="fill:#B4A09A; fill-opacity:0.9000; 
stroke:#B4A09A; stroke-width:0.0000; stroke-opacity:1; 
stroke-linecap:round; stroke-linejoin:round;fill-rule:evenodd;"
d="M 210.3366,9.1075
210.3366,10.5575
210.0566,10.5575
210.0566,9.1075
Z" /> 
<path style="fill:#B4A09A; fill-opacity:0.9000; 
stroke:#B4A09A; stroke-width:0.0000; stroke-opacity:1; 
stroke-linecap:round; stroke-linejoin:round;fill-rule:evenodd;"
d="M 209.3366,9.1075
209.3366,10.5575
209.0566,10.5575
209.0566,9.1075
Z" /> 
<path style="fill:#B4A09A; fill-opacity:0.9000; 
stroke:#B4A09A; stroke-width:0.0000; stroke-opacity:1; 
stroke-linecap:round; stroke-linejoin:round;fill-rule:evenodd;"
d="M 208.8366,9.1075
208.8366,10.5575
208.5566,10.5575
208.5566,9.1075
Z" /> 
<path style="fill:#B4A09A; fill-opacity:0.9000; 
stroke:#B4A09A; stroke-width:0.0000; stroke-opacity:1; 
stroke-linecap:round; stroke-linejoin:round;fill-rule:evenodd;"
d="M 207.8366,9.1075
207.8366,10.5575
207.5566,10.5575
207.5566,9.1075
Z" /> 
<path style="fill:#B4A09A; fill-opacity:0.9000; 
stroke:#B4A09A; stroke-width:0.0000; stroke-opacity:1; 
stroke-linecap:round; stroke-linejoin:round;fill-rule:evenodd;"
d="M 206.7966,9.1075
206.7966,10.5575
206.1966,10.5575
206.1966,9.1075
Z" /> 
<path style="fill:#B4A09A; fill-opacity:0.9000; 
stroke:#B4A09A; stroke-width:0.0000; stroke-opacity:1; 
stroke-linecap:round; stroke-linejoin:round;fill-rule:evenodd;"
d="M 205.9966,9.1075
205.9966,10.5575
205.3966,10.5575
205.3966,9.1075
Z" /> 
<path style="fill:#B4A09A; fill-opacity:0.9000; 
stroke:#B4A09A; stroke-width:0.0000; stroke-opacity:1; 
stroke-linecap:round; stroke-linejoin:round;fill-rule:evenodd;"
d="M 205.9966,9.1075
205.9966,10.5575
205.3966,10.5575
205.3966,9.1075
Z" /> 
<path style="fill:#B4A09A; fill-opacity:0.9000; 
stroke:#B4A09A; stroke-width:0.0000; stroke-opacity:1; 
stroke-linecap:round; stroke-linejoin:round;fill-rule:evenodd;"
d="M 206.7966,9.1075
206.7966,10.5575
206.1966,10.5575
206.1966,9.1075
Z" /> 
<path style="fill:#B4A09A; fill-opacity:0.9000; 
stroke:#B4A09A; stroke-width:0.0000; stroke-opacity:1; 
stroke-linecap:round; stroke-linejoin:round;fill-rule:evenodd;"
d="M 207.3366,9.1075
207.3366,10.5575
207.0566,10.5575
207.0566,9.1075
Z" /> 
<path style="fill:#B4A09A; fill-opacity:0.9000; 
stroke:#B4A09A; stroke-width:0.0000; stroke-opacity:1; 
stroke-linecap:round; stroke-linejoin:round;fill-rule:evenodd;"
d="M 208.3366,9.1075
208.3366,10.5575
208.0566,10.5575
208.0566,9.1075
Z" /> 
<path style="fill:#B4A09A; fill-opacity:0.9000; 
stroke:#B4A09A; stroke-width:0.0000; stroke-opacity:1; 
stroke-linecap:round; stroke-linejoin:round;fill-rule:evenodd;"
d="M 209.8366,9.1075
209.8366,10.5575
209.5566,10.5575
209.5566,9.1075
Z" /> 
<path style="fill:#B4A09A; fill-opacity:0.9000; 
stroke:#B4A09A; stroke-width:0.0000; stroke-opacity:1; 
stroke-linecap:round; stroke-linejoin:round;fill-rule:evenodd;"
d="M 210.8366,9.1075
210.8366,10.5575
210.5566,10.5575
210.5566,9.1075
Z" /> 
<path style="fill:#B4A09A; fill-opacity:0.9000; 
stroke:#B4A09A; stroke-width:0.0000; stroke-opacity:1; 
stroke-linecap:round; stroke-linejoin:round;fill-rule:evenodd;"
d="M 211.6966,9.1075
211.6966,10.5575
211.0966,10.5575
211.0966,9.1075
Z" /> 
<path style="fill:#B4A09A; fill-opacity:0.9000; 
stroke:#B4A09A; stroke-width:0.0000; stroke-opacity:1; 
stroke-linecap:round; stroke-linejoin:round;fill-rule:evenodd;"
d="M 212.4966,9.1075
212.4966,10.5575
211.8966,10.5575
211.8966,9.1075
Z" /> 
</g>
<g >
</g>
<g >
</g>
<g >
</g>
<g >
</g>
<g >
</g>
<g >
</g>
<g >
</g>
<g >
</g>
<g >
</g>
<g >
</g>
<g >
</g>
<g >
</g>
<g >
</g>
<g >
</g>
<g >
</g>
<g >
</g>
<g >
</g>
<g >
</g>
<g >
</g>
<g >
</g>
<g >
</g>
<g >
</g>
<g >
</g>
<g >
</g>
<g >
</g>
<g >
</g>
<g >
</g>
<g >
</g>
<g >
</g>
<g >
</g>
<g >
</g>
<g >
</g>
<g >
</g>
<g >
</g>
<g >
</g>
<g >
</g>
<g >
</g>
<g >
</g>
<g >
</g>
<g >
</g>
<g >
</g>
<g >
</g>
<g >
</g>
<g >
</g>
<g >
</g>
<g >
</g>
<g >
</g>
<g >
</g>
<g >
</g>
<g >
</g>
<g >
</g>
<g >
</g>
<g >
</g>
<g >
</g>
<g >
</g>
<g >
</g>
<g >
</g>
<g >
</g>
<g >
</g>
<g >
</g>
<g >
</g>
<g >
</g>
<g >
</g>
<g >
</g>
<g >
</g>
<g >
</g>
<g >
</g>
<g >
</g>
<g >
</g>
<g >
</g>
<g >
</g>
<g >
</g>
<g >
</g>
<g >
</g>
<g >
</g>
<g >
</g>
<g >
</g>
<g >
</g>
<g >
</g>
<g >
</g>
<g >
</g>
<g >
</g>
<g >
</g>
<g >
</g>
<g >
</g>
<g >
</g>
<g >
</g>
<g >
</g>
<g >
</g>
<g >
</g>
<g >
</g>
<g >
</g>
<g >
</g>
<g >
</g>
<g >
</g>
<g >
</g>
<g >
</g>
<g >
</g>
<g >
</g>
<g >
</g>
<g >
</g>
<g >
</g>
<g >
</g>
<g >
</g>
<g >
</g>
<g >
</g>
<g >
</g>
<g >
</g>
<g >
</g>
<g >
</g>
<g >
</g>
<g >
</g>
<g >
</g>
<g >
</g>
<g >
</g>
<g >
</g>
<g >
</g>
<g >
</g>
<g >
</g>
<g >
</g>
<g >
</g>
<g >
</g>
<g >
</g>
<g >
</g>
<g >
</g>
<g >
</g>
<g >
</g>
<g >
</g>
<g >
</g>
<g >
</g>
<g >
</g>
<g >
</g>
<g >
</g>
<g >
</g>
<g >
</g>
<g >
</g>
<g >
</g>
<g >
</g>
<g >
</g>
<g >
</g>
<g >
</g>
<g >
</g>
<g >
</g>
<g >
</g>
<g >
</g>
<g >
</g>
<g >
</g>
<g >
</g>
<g >
</g>
<g >
</g>
<g >
</g>
<g >
</g>
<g >
</g>
<g >
</g>
<g >
</g>
<g >
</g>
<g >
</g>
<g >
</g>
<g >
</g>
<g >
</g>
<g >
</g>
<g >
</g>
<g >
</g>
<g >
</g>
<g >
</g>
</g>
<g style="fill:#000000; fill-opacity:1.0000; 
stroke:#000000; stroke-width:0.0000; stroke-opacity:1; 
stroke-linecap:round; stroke-linejoin:round;">
</g>
<g style="fill:#D0D2CD; fill-opacity:1.0000; 
stroke:#D0D2CD; stroke-width:0.0000; stroke-opacity:1; 
stroke-linecap:round; stroke-linejoin:round;">
</g>
<g style="fill:#D0D2CD; fill-opacity:0.0; 
stroke:#D0D2CD; stroke-width:0.2000; stroke-opacity:1; 
stroke-linecap:round; stroke-linejoin:round;">
<path d="M120.0739 10.7414 A2.0000 2.0000 0.0 0 0 121.6282 11.4828" />
<path d="M127.7643 11.4828
L121.6282 11.4828
" />
<path d="M2.8712 84.7208
L10.2902 84.7208
" />
<path d="M213.4400 3.3250
L204.4400 3.3250
" />
<path d="M204.4400 3.3250 A0.5000 0.5000 0.0 0 0 203.9400 3.8250" />
<path d="M118.5215 86.2000 A2.0000 2.0000 0.0 0 0 120.0744 85.4604" />
<path d="M121.6273 84.7208
L127.7652 84.7208
" />
<path d="M213.9400 3.8250 A0.5000 0.5000 0.0 0 0 213.4400 3.3250" />
<path d="M202.9400 10.0000
L130.8729 10.0000
" />
<path d="M118.5196 10.0000
L13.3979 10.0000
" />
<path d="M247.5212 83.7208
L247.5212 12.4828
" />
<path d="M203.9400 3.8250
L203.9400 9.0000
" />
<path d="M247.5213 12.4828 A1.0000 1.0000 0.0 0 0 246.5213 11.4828" />
<path d="M130.8729 10.0000 A2.0000 2.0000 0.0 0 0 129.3186 10.7414" />
<path d="M120.0739 10.7414 A2.0000 2.0000 0.0 0 0 118.5196 10.0000" />
<path d="M246.5212 11.4828
L239.1032 11.4828
" />
<path d="M237.5489 10.7414 A2.0000 2.0000 0.0 0 0 239.1032 11.4828" />
<path d="M239.1023 84.7208
L246.5212 84.7208
" />
<path d="M121.6273 84.7208 A2.0000 2.0000 0.0 0 0 120.0744 85.4604" />
<path d="M235.9965 86.2000 A2.0000 2.0000 0.0 0 0 237.5494 85.4604" />
<path d="M11.8431 85.4604 A2.0000 2.0000 0.0 0 0 13.3960 86.2000" />
<path d="M129.3181 85.4604 A2.0000 2.0000 0.0 0 0 127.7652 84.7208" />
<path d="M1.8712 12.4828
L1.8712 83.7208
" />
<path d="M10.2893 11.4828
L2.8712 11.4828
" />
<path d="M127.7643 11.4828 A2.0000 2.0000 0.0 0 0 129.3186 10.7414" />
<path d="M239.1023 84.7208 A2.0000 2.0000 0.0 0 0 237.5494 85.4604" />
<path d="M130.8710 86.2000
L235.9965 86.2000
" />
<path d="M237.5489 10.7414 A2.0000 2.0000 0.0 0 0 235.9946 10.0000" />
<path d="M213.9400 9.0000 A1.0000 1.0000 0.0 0 0 214.9400 10.0000" />
<path d="M1.8712 83.7208 A1.0000 1.0000 0.0 0 0 2.8712 84.7208" />
<path d="M129.3181 85.4604 A2.0000 2.0000 0.0 0 0 130.8710 86.2000" />
<path d="M10.2893 11.4828 A2.0000 2.0000 0.0 0 0 11.8436 10.7414" />
<path d="M202.9400 10.0000 A1.0000 1.0000 0.0 0 0 203.9400 9.0000" />
<path d="M13.3960 86.2000
L118.5215 86.2000
" />
<path d="M235.9946 10.0000
L214.9400 10.0000
" />
<path d="M2.8712 11.4829 A1.0000 1.0000 0.0 0 0 1.8713 12.4828" />
<path d="M11.8431 85.4604 A2.0000 2.0000 0.0 0 0 10.2902 84.7208" />
<path d="M246.5213 84.7207 A1.0000 1.0000 0.0 0 0 247.5212 83.7208" />
<path d="M13.3979 10.0000 A2.0000 2.0000 0.0 0 0 11.8436 10.7414" />
<path d="M213.9400 9.0000
L213.9400 3.8250
" />
<g >
</g>
<g >
</g>
<g >
</g>
<g >
</g>
<g >
</g>
<g >
</g>
<g >
</g>
<g >
</g>
<g >
</g>
<g >
</g>
<g >
</g>
<g >
</g>
<g >
</g>
<g >
</g>
<g >
</g>
<g >
</g>
<g >
</g>
<g >
</g>
<g >
</g>
<g >
</g>
<g >
</g>
<g >
</g>
<g >
</g>
<g >
</g>
<g >
</g>
<g >
</g>
<g >
</g>
<g >
</g>
<g >
</g>
<g >
</g>
<g >
</g>
<g >
</g>
<g >
</g>
<g >
</g>
<g >
</g>
<g >
</g>
<g >
</g>
<g >
</g>
<g >
</g>
<g >
</g>
<g >
</g>
<g >
</g>
<g >
</g>
<g >
</g>
<g >
</g>
<g >
</g>
<g >
</g>
<g >
</g>
<g >
</g>
<g >
</g>
<g >
</g>
<g >
</g>
<g >
</g>
<g >
</g>
<g >
</g>
<g >
</g>
<g >
</g>
<g >
</g>
<g >
</g>
<g >
</g>
<g >
</g>
<g >
</g>
<g >
</g>
<g >
</g>
<g >
</g>
<g >
</g>
<g >
</g>
<g >
</g>
<g >
</g>
<g >
</g>
<g >
</g>
<g >
</g>
<g >
</g>
<g >
</g>
<g >
</g>
<g >
</g>
<g >
</g>
<g >
</g>
<g >
</g>
<g >
</g>
<g >
</g>
<g >
</g>
<g >
</g>
<g >
</g>
<g >
</g>
<g >
</g>
<g >
</g>
<g >
</g>
<g >
</g>
<g >
</g>
<g >
</g>
<g >
</g>
<g >
</g>
<g >
</g>
<g >
</g>
<g >
</g>
<g >
</g>
<g >
</g>
<g >
</g>
<g >
</g>
<g >
</g>
<g >
</g>
<g >
</g>
<g >
</g>
<g >
</g>
<g >
</g>
<g >
</g>
<g >
</g>
<g >
</g>
<g >
</g>
<g >
</g>
<g >
</g>
<g >
</g>
<g >
</g>
<g >
</g>
<g >
</g>
<g >
</g>
<g >
</g>
<g >
</g>
<g >
</g>
<g >
</g>
<g >
</g>
<g >
</g>
<g >
</g>
<g >
</g>
<g >
</g>
<g >
</g>
<g >
</g>
<g >
</g>
<g >
</g>
<g >
</g>
<g >
</g>
<g >
</g>
<g >
</g>
<g >
</g>
<g >
</g>
<g >
</g>
<g >
</g>
<g >
</g>
<g >
</g>
<g >
</g>
<g >
</g>
<g >
</g>
<g >
</g>
<g >
</g>
<g >
</g>
<g >
</g>
<g >
</g>
<g >
</g>
<g >
</g>
<g >
</g>
<g >
</g>
<g >
</g>
<g >
</g>
<g >
</g>
<g >
</g>
<g >
</g>
<g >
</g>
<g >
</g>
<g >
</g>
<g >
</g>
<g >
</g>
<g >
</g>
<g >
</g>
<g >
</g>
<g >
</g>
<g >
</g>
</g> 
</svg>
