<?xml version="1.0" standalone="no"?>
 <!DOCTYPE svg PUBLIC "-//W3C//DTD SVG 1.1//EN" 
 "http://www.w3.org/Graphics/SVG/1.1/DTD/svg11.dtd"> 
<svg
  xmlns:svg="http://www.w3.org/2000/svg"
  xmlns="http://www.w3.org/2000/svg"
  xmlns:xlink="http://www.w3.org/1999/xlink"
  version="1.1"
  width="259.5372mm" height="107.3404mm" viewBox="0.0000 0.0000 259.5372 107.3404">
<title>SVG Image created as mekanical-F_Adhesive.svg date 2023/09/21 16:46:02 </title>
  <desc>Image generated by PCBNEW </desc>
<g style="fill:#000000; fill-opacity:1.0000;stroke:#000000; stroke-opacity:1.0000;
stroke-linecap:round; stroke-linejoin:round;"
 transform="translate(0 0) scale(1 1)">
</g>
<g style="fill:#000000; fill-opacity:0.0; 
stroke:#000000; stroke-width:0.0000; stroke-opacity:1; 
stroke-linecap:round; stroke-linejoin:round;">
<g >
</g>
<g >
</g>
<g >
</g>
<g >
</g>
<g >
</g>
<g >
</g>
<g >
</g>
<g >
</g>
<g >
</g>
<g >
</g>
<g >
</g>
<g >
</g>
<g >
</g>
<g >
</g>
<g >
</g>
<g >
</g>
<g >
</g>
<g >
</g>
<g >
</g>
<g >
</g>
<g >
</g>
<g >
</g>
<g >
</g>
<g >
</g>
<g >
</g>
<g >
</g>
<g >
</g>
<g >
</g>
<g >
</g>
<g >
</g>
<g >
</g>
<g >
</g>
<g >
</g>
<g >
</g>
<g >
</g>
<g >
</g>
<g >
</g>
<g >
</g>
<g >
</g>
<g >
</g>
<g >
</g>
<g >
</g>
<g >
</g>
<g >
</g>
<g >
</g>
<g >
</g>
<g >
</g>
<g >
</g>
<g >
</g>
<g >
</g>
<g >
</g>
<g >
</g>
<g >
</g>
<g >
</g>
<g >
</g>
<g >
</g>
<g >
</g>
<g >
</g>
<g >
</g>
<g >
</g>
<g >
</g>
<g >
</g>
<g >
</g>
<g >
</g>
<g >
</g>
<g >
</g>
<g >
</g>
<g >
</g>
<g >
</g>
<g >
</g>
<g >
</g>
<g >
</g>
<g >
</g>
<g >
</g>
<g >
</g>
<g >
</g>
<g >
</g>
<g >
</g>
<g >
</g>
<g >
</g>
<g >
</g>
<g >
</g>
<g >
</g>
<g >
</g>
<g >
</g>
<g >
</g>
<g >
</g>
<g >
</g>
<g >
</g>
<g >
</g>
<g >
</g>
<g >
</g>
<g >
</g>
<g >
</g>
<g >
</g>
<g >
</g>
<g >
</g>
<g >
</g>
<g >
</g>
<g >
</g>
<g >
</g>
<g >
</g>
<g >
</g>
<g >
</g>
<g >
</g>
<g >
</g>
<g >
</g>
<g >
</g>
<g >
</g>
<g >
</g>
<g >
</g>
<g >
</g>
<g >
</g>
<g >
</g>
<g >
</g>
<g >
</g>
<g >
</g>
<g >
</g>
<g >
</g>
<g >
</g>
<g >
</g>
<g >
</g>
<g >
</g>
<g >
</g>
<g >
</g>
<g >
</g>
<g >
</g>
<g >
</g>
<g >
</g>
<g >
</g>
<g >
</g>
<g >
</g>
<g >
</g>
<g >
</g>
<g >
</g>
<g >
</g>
<g >
</g>
<g >
</g>
<g >
</g>
<g >
</g>
<g >
</g>
<g >
</g>
<g >
</g>
<g >
</g>
<g >
</g>
<g >
</g>
<g >
</g>
<g >
</g>
<g >
</g>
<g >
</g>
<g >
</g>
<g >
</g>
<g >
</g>
<g >
</g>
<g >
</g>
<g >
</g>
<g >
</g>
<g >
</g>
<g >
</g>
<g >
</g>
<g >
</g>
<g >
</g>
<g >
</g>
<g >
</g>
<g >
</g>
<g >
</g>
<g >
</g>
<g >
</g>
<g >
</g>
<g >
</g>
<g >
</g>
<g >
</g>
<g >
</g>
<g >
</g>
<g >
</g>
<g >
</g>
<g >
</g>
<g >
</g>
<g >
</g>
<g >
</g>
</g>
<g style="fill:#000000; fill-opacity:0.0; 
stroke:#000000; stroke-width:0.0000; stroke-opacity:1; 
stroke-linecap:round; stroke-linejoin:round;">
</g>
<g style="fill:#D0D2CD; fill-opacity:0.0; 
stroke:#D0D2CD; stroke-width:0.0000; stroke-opacity:1; 
stroke-linecap:round; stroke-linejoin:round;">
</g>
<g style="fill:#D0D2CD; fill-opacity:0.0; 
stroke:#D0D2CD; stroke-width:0.2000; stroke-opacity:1; 
stroke-linecap:round; stroke-linejoin:round;">
<path d="M248.7209 87.0258 A2.5000 2.5000 0.0 0 0 249.8834 87.3125" />
<path d="M127.1202 11.1125
L16.7298 11.1125
" />
<path d="M243.6202 11.1125
L220.4187 11.1125
" />
<path d="M9.3500 87.3125
L10.4666 87.3125
" />
<path d="M9.3500 11.1125 A2.0000 2.0000 0.0 0 0 7.3500 13.1125" />
<path d="M209.4187 4.2125
L209.4187 10.1125
" />
<path d="M209.9187 3.7125 A0.5000 0.5000 0.0 0 0 209.4187 4.2125" />
<path d="M15.7209 87.0258 A4.4000 4.4000 0.0 0 0 11.6291 87.0258" />
<path d="M208.4187 11.1125 A1.0000 1.0000 0.0 0 0 209.4187 10.1125" />
<path d="M7.3500 85.3125 A2.0000 2.0000 0.0 0 0 9.3500 87.3125" />
<path d="M133.3834 87.3125
L243.4666 87.3125
" />
<path d="M249.7298 11.1125 A2.5000 2.5000 0.0 0 0 248.6230 11.3709" />
<path d="M16.7298 11.1125 A2.5000 2.5000 0.0 0 0 15.6230 11.3709" />
<path d="M10.6202 11.1125
L9.3500 11.1125
" />
<path d="M11.7270 11.3709 A4.4000 4.4000 0.0 0 0 15.6230 11.3709" />
<path d="M11.7270 11.3709 A2.5000 2.5000 0.0 0 0 10.6202 11.1125" />
<path d="M219.4187 10.1125 A1.0000 1.0000 0.0 0 0 220.4187 11.1125" />
<path d="M253.0000 13.1125 A2.0000 2.0000 0.0 0 0 251.0000 11.1125" />
<path d="M7.3500 13.1125
L7.3500 85.3125
" />
<path d="M132.2209 87.0258 A2.5000 2.5000 0.0 0 0 133.3834 87.3125" />
<path d="M248.7209 87.0258 A4.4000 4.4000 0.0 0 0 244.6291 87.0258" />
<path d="M218.9187 3.7125
L209.9187 3.7125
" />
<path d="M128.2270 11.3709 A4.4000 4.4000 0.0 0 0 132.1230 11.3709" />
<path d="M10.4666 87.3125 A2.5000 2.5000 0.0 0 0 11.6291 87.0258" />
<path d="M219.4187 10.1125
L219.4187 4.2125
" />
<path d="M15.7209 87.0258 A2.5000 2.5000 0.0 0 0 16.8834 87.3125" />
<path d="M253.0000 85.3125
L253.0000 13.1125
" />
<path d="M244.7270 11.3709 A4.4000 4.4000 0.0 0 0 248.6230 11.3709" />
<path d="M219.4187 4.2125 A0.5000 0.5000 0.0 0 0 218.9187 3.7125" />
<path d="M16.8834 87.3125
L126.9666 87.3125
" />
<path d="M251.0000 87.3124 A1.9999 1.9999 0.0 0 0 253.0000 85.3125" />
<path d="M133.2298 11.1125 A2.5000 2.5000 0.0 0 0 132.1230 11.3709" />
<path d="M243.4666 87.3125 A2.5000 2.5000 0.0 0 0 244.6291 87.0258" />
<path d="M132.2209 87.0258 A4.4000 4.4000 0.0 0 0 128.1291 87.0258" />
<path d="M128.2270 11.3709 A2.5000 2.5000 0.0 0 0 127.1202 11.1125" />
<path d="M244.7270 11.3709 A2.5000 2.5000 0.0 0 0 243.6202 11.1125" />
<path d="M208.4187 11.1125
L133.2298 11.1125
" />
<path d="M251.0000 11.1125
L249.7298 11.1125
" />
<path d="M249.8834 87.3125
L251.0000 87.3125
" />
<path d="M126.9666 87.3125 A2.5000 2.5000 0.0 0 0 128.1291 87.0258" />
<g >
</g>
<g >
</g>
<g >
</g>
<g >
</g>
<g >
</g>
<g >
</g>
<g >
</g>
<g >
</g>
<g >
</g>
<g >
</g>
<g >
</g>
<g >
</g>
<g >
</g>
<g >
</g>
<g >
</g>
<g >
</g>
<g >
</g>
<g >
</g>
<g >
</g>
<g >
</g>
<g >
</g>
<g >
</g>
<g >
</g>
<g >
</g>
<g >
</g>
<g >
</g>
<g >
</g>
<g >
</g>
<g >
</g>
<g >
</g>
<g >
</g>
<g >
</g>
<g >
</g>
<g >
</g>
<g >
</g>
<g >
</g>
<g >
</g>
<g >
</g>
<g >
</g>
<g >
</g>
<g >
</g>
<g >
</g>
<g >
</g>
<g >
</g>
<g >
</g>
<g >
</g>
<g >
</g>
<g >
</g>
<g >
</g>
<g >
</g>
<g >
</g>
<g >
</g>
<g >
</g>
<g >
</g>
<g >
</g>
<g >
</g>
<g >
</g>
<g >
</g>
<g >
</g>
<g >
</g>
<g >
</g>
<g >
</g>
<g >
</g>
<g >
</g>
<g >
</g>
<g >
</g>
<g >
</g>
<g >
</g>
<g >
</g>
<g >
</g>
<g >
</g>
<g >
</g>
<g >
</g>
<g >
</g>
<g >
</g>
<g >
</g>
<g >
</g>
<g >
</g>
<g >
</g>
<g >
</g>
<g >
</g>
<g >
</g>
<g >
</g>
<g >
</g>
<g >
</g>
<g >
</g>
<g >
</g>
<g >
</g>
<g >
</g>
<g >
</g>
<g >
</g>
<g >
</g>
<g >
</g>
<g >
</g>
<g >
</g>
<g >
</g>
<g >
</g>
<g >
</g>
<g >
</g>
<g >
</g>
<g >
</g>
<g >
</g>
<g >
</g>
<g >
</g>
<g >
</g>
<g >
</g>
<g >
</g>
<g >
</g>
<g >
</g>
<g >
</g>
<g >
</g>
<g >
</g>
<g >
</g>
<g >
</g>
<g >
</g>
<g >
</g>
<g >
</g>
<g >
</g>
<g >
</g>
<g >
</g>
<g >
</g>
<g >
</g>
<g >
</g>
<g >
</g>
<g >
</g>
<g >
</g>
<g >
</g>
<g >
</g>
<g >
</g>
<g >
</g>
<g >
</g>
<g >
</g>
<g >
</g>
<g >
</g>
<g >
</g>
<g >
</g>
<g >
</g>
<g >
</g>
<g >
</g>
<g >
</g>
<g >
</g>
<g >
</g>
<g >
</g>
<g >
</g>
<g >
</g>
<g >
</g>
<g >
</g>
<g >
</g>
<g >
</g>
<g >
</g>
<g >
</g>
<g >
</g>
<g >
</g>
<g >
</g>
<g >
</g>
<g >
</g>
<g >
</g>
<g >
</g>
<g >
</g>
<g >
</g>
<g >
</g>
<g >
</g>
<g >
</g>
<g >
</g>
<g >
</g>
<g >
</g>
<g >
</g>
<g >
</g>
<g >
</g>
<g >
</g>
<g >
</g>
<g >
</g>
<g >
</g>
<g >
</g>
<g >
</g>
<g >
</g>
<g >
</g>
<g >
</g>
<g >
</g>
<g >
</g>
</g> 
</svg>
