<?xml version="1.0" standalone="no"?>
 <!DOCTYPE svg PUBLIC "-//W3C//DTD SVG 1.1//EN" 
 "http://www.w3.org/Graphics/SVG/1.1/DTD/svg11.dtd"> 
<svg
  xmlns:svg="http://www.w3.org/2000/svg"
  xmlns="http://www.w3.org/2000/svg"
  xmlns:xlink="http://www.w3.org/1999/xlink"
  version="1.1"
  width="259.5372mm" height="107.3404mm" viewBox="0.0000 0.0000 259.5372 107.3404">
<title>SVG Image created as mekanical-F_Silkscreen.svg date 2023/09/21 16:46:02 </title>
  <desc>Image generated by PCBNEW </desc>
<g style="fill:#000000; fill-opacity:1.0000;stroke:#000000; stroke-opacity:1.0000;
stroke-linecap:round; stroke-linejoin:round;"
 transform="translate(0 0) scale(1 1)">
</g>
<g style="fill:#000000; fill-opacity:0.0; 
stroke:#000000; stroke-width:0.0000; stroke-opacity:1; 
stroke-linecap:round; stroke-linejoin:round;">
</g>
<g style="fill:#F2EDA1; fill-opacity:0.0; 
stroke:#F2EDA1; stroke-width:0.0000; stroke-opacity:1; 
stroke-linecap:round; stroke-linejoin:round;">
</g>
<g style="fill:#F2EDA1; fill-opacity:0.0; 
stroke:#F2EDA1; stroke-width:0.1500; stroke-opacity:1; 
stroke-linecap:round; stroke-linejoin:round;">
<text x="214.3125" y="7.6437"
transform="scale(-1 1) translate(-428.625000 0)"
textLength="10.4607" font-size="1.3333" lengthAdjust="spacingAndGlyphs"
text-anchor="middle" opacity="0">JLCJLCJLCJLC</text>
<g class="stroked-text"><desc>JLCJLCJLCJLC</desc>
<path d="M218.9315 6.5111
L218.9315 7.2254
" />
<path d="M218.9315 7.2254
L218.9792 7.3683
" />
<path d="M218.9792 7.3683
L219.0744 7.4635
" />
<path d="M219.0744 7.4635
L219.2173 7.5111
" />
<path d="M219.2173 7.5111
L219.3125 7.5111
" />
<path d="M217.9792 7.5111
L218.4554 7.5111
" />
<path d="M218.4554 7.5111
L218.4554 6.5111
" />
<path d="M217.0744 7.4159
L217.1220 7.4635
" />
<path d="M217.1220 7.4635
L217.2649 7.5111
" />
<path d="M217.2649 7.5111
L217.3601 7.5111
" />
<path d="M217.3601 7.5111
L217.5030 7.4635
" />
<path d="M217.5030 7.4635
L217.5982 7.3683
" />
<path d="M217.5982 7.3683
L217.6458 7.2730
" />
<path d="M217.6458 7.2730
L217.6935 7.0826
" />
<path d="M217.6935 7.0826
L217.6935 6.9397
" />
<path d="M217.6935 6.9397
L217.6458 6.7492
" />
<path d="M217.6458 6.7492
L217.5982 6.6540
" />
<path d="M217.5982 6.6540
L217.5030 6.5587
" />
<path d="M217.5030 6.5587
L217.3601 6.5111
" />
<path d="M217.3601 6.5111
L217.2649 6.5111
" />
<path d="M217.2649 6.5111
L217.1220 6.5587
" />
<path d="M217.1220 6.5587
L217.0744 6.6064
" />
<path d="M216.3601 6.5111
L216.3601 7.2254
" />
<path d="M216.3601 7.2254
L216.4077 7.3683
" />
<path d="M216.4077 7.3683
L216.5030 7.4635
" />
<path d="M216.5030 7.4635
L216.6458 7.5111
" />
<path d="M216.6458 7.5111
L216.7411 7.5111
" />
<path d="M215.4077 7.5111
L215.8839 7.5111
" />
<path d="M215.8839 7.5111
L215.8839 6.5111
" />
<path d="M214.5030 7.4159
L214.5506 7.4635
" />
<path d="M214.5506 7.4635
L214.6935 7.5111
" />
<path d="M214.6935 7.5111
L214.7887 7.5111
" />
<path d="M214.7887 7.5111
L214.9315 7.4635
" />
<path d="M214.9315 7.4635
L215.0268 7.3683
" />
<path d="M215.0268 7.3683
L215.0744 7.2730
" />
<path d="M215.0744 7.2730
L215.1220 7.0826
" />
<path d="M215.1220 7.0826
L215.1220 6.9397
" />
<path d="M215.1220 6.9397
L215.0744 6.7492
" />
<path d="M215.0744 6.7492
L215.0268 6.6540
" />
<path d="M215.0268 6.6540
L214.9315 6.5587
" />
<path d="M214.9315 6.5587
L214.7887 6.5111
" />
<path d="M214.7887 6.5111
L214.6935 6.5111
" />
<path d="M214.6935 6.5111
L214.5506 6.5587
" />
<path d="M214.5506 6.5587
L214.5030 6.6064
" />
<path d="M213.7887 6.5111
L213.7887 7.2254
" />
<path d="M213.7887 7.2254
L213.8363 7.3683
" />
<path d="M213.8363 7.3683
L213.9315 7.4635
" />
<path d="M213.9315 7.4635
L214.0744 7.5111
" />
<path d="M214.0744 7.5111
L214.1696 7.5111
" />
<path d="M212.8363 7.5111
L213.3125 7.5111
" />
<path d="M213.3125 7.5111
L213.3125 6.5111
" />
<path d="M211.9315 7.4159
L211.9792 7.4635
" />
<path d="M211.9792 7.4635
L212.1220 7.5111
" />
<path d="M212.1220 7.5111
L212.2173 7.5111
" />
<path d="M212.2173 7.5111
L212.3601 7.4635
" />
<path d="M212.3601 7.4635
L212.4554 7.3683
" />
<path d="M212.4554 7.3683
L212.5030 7.2730
" />
<path d="M212.5030 7.2730
L212.5506 7.0826
" />
<path d="M212.5506 7.0826
L212.5506 6.9397
" />
<path d="M212.5506 6.9397
L212.5030 6.7492
" />
<path d="M212.5030 6.7492
L212.4554 6.6540
" />
<path d="M212.4554 6.6540
L212.3601 6.5587
" />
<path d="M212.3601 6.5587
L212.2173 6.5111
" />
<path d="M212.2173 6.5111
L212.1220 6.5111
" />
<path d="M212.1220 6.5111
L211.9792 6.5587
" />
<path d="M211.9792 6.5587
L211.9315 6.6064
" />
<path d="M211.2173 6.5111
L211.2173 7.2254
" />
<path d="M211.2173 7.2254
L211.2649 7.3683
" />
<path d="M211.2649 7.3683
L211.3601 7.4635
" />
<path d="M211.3601 7.4635
L211.5030 7.5111
" />
<path d="M211.5030 7.5111
L211.5982 7.5111
" />
<path d="M210.2649 7.5111
L210.7411 7.5111
" />
<path d="M210.7411 7.5111
L210.7411 6.5111
" />
<path d="M209.3601 7.4159
L209.4077 7.4635
" />
<path d="M209.4077 7.4635
L209.5506 7.5111
" />
<path d="M209.5506 7.5111
L209.6458 7.5111
" />
<path d="M209.6458 7.5111
L209.7887 7.4635
" />
<path d="M209.7887 7.4635
L209.8839 7.3683
" />
<path d="M209.8839 7.3683
L209.9315 7.2730
" />
<path d="M209.9315 7.2730
L209.9792 7.0826
" />
<path d="M209.9792 7.0826
L209.9792 6.9397
" />
<path d="M209.9792 6.9397
L209.9315 6.7492
" />
<path d="M209.9315 6.7492
L209.8839 6.6540
" />
<path d="M209.8839 6.6540
L209.7887 6.5587
" />
<path d="M209.7887 6.5587
L209.6458 6.5111
" />
<path d="M209.6458 6.5111
L209.5506 6.5111
" />
<path d="M209.5506 6.5111
L209.4077 6.5587
" />
<path d="M209.4077 6.5587
L209.3601 6.6064
" />
</g></g>
<g style="fill:#F2EDA1; fill-opacity:0.0; 
stroke:#F2EDA1; stroke-width:0.1200; stroke-opacity:1; 
stroke-linecap:round; stroke-linejoin:round;">
<path d="M219.1254 7.9877
L219.1254 5.9877
" />
<path d="M219.1254 4.0877
L219.1254 2.1877
" />
<path d="M219.1254 2.1877
L209.7254 2.1877
" />
<path d="M209.7254 7.9877
L209.7254 5.9877
" />
<path d="M209.7254 4.0877
L209.7254 2.1877
" />
</g>
<g style="fill:#F2EDA1; fill-opacity:1.0000; 
stroke:#F2EDA1; stroke-width:0.0000; stroke-opacity:1; 
stroke-linecap:round; stroke-linejoin:round;">
<path style="fill:#F2EDA1; fill-opacity:1.0000; 
stroke:#F2EDA1; stroke-width:0.0000; stroke-opacity:1; 
stroke-linecap:round; stroke-linejoin:round;fill-rule:evenodd;"
d="M 212.7672,14.4145
212.9552,14.5158
213.0368,14.5748
213.1147,14.6568
213.1946,14.7857
213.2820,14.9854
213.3827,15.2798
213.5023,15.6928
213.6465,16.2483
213.8208,16.9701
214.0309,17.8822
214.2826,19.0085
214.5814,20.3728
214.9330,21.9990
215.3430,23.9111
215.8171,26.1329
216.3610,28.6883
216.8461,30.9699
217.4497,33.8113
217.9775,36.3002
218.4340,38.4607
218.8238,40.3168
219.1515,41.8923
219.4216,43.2113
219.6388,44.2977
219.8075,45.1755
219.9324,45.8687
220.0180,46.4011
220.0688,46.7968
220.0896,47.0797
220.0848,47.2738
220.0590,47.4030
220.0169,47.4913
220.0025,47.5123
219.6911,47.7229
219.0900,47.9587
218.2818,48.2021
217.3496,48.4355
216.3760,48.6413
215.4439,48.8019
214.6362,48.8996
214.0357,48.9169
213.7351,48.8448
213.6648,48.7448
213.5755,48.5288
213.4621,48.1750
213.3195,47.6614
213.1425,46.9660
212.9262,46.0671
212.6653,44.9426
212.3549,43.5708
211.9897,41.9296
211.5649,39.9971
211.0751,37.7516
210.5155,35.1709
209.9522,32.5646
209.3430,29.7416
208.8104,27.2703
208.3497,25.1265
207.9562,23.2857
207.6252,21.7235
207.3522,20.4156
207.1324,19.3375
206.9613,18.4649
206.8340,17.7733
206.7461,17.2384
206.6928,16.8358
206.6694,16.5411
206.6714,16.3299
206.6940,16.1779
206.7326,16.0605
206.7808,15.9572
206.9023,15.7275
207.0475,15.5542
207.2794,15.4129
207.6616,15.2790
208.2571,15.1282
209.1292,14.9360
209.7832,14.7966
210.8614,14.5720
211.6317,14.4274
212.1613,14.3569
212.5174,14.3546
Z" /> 
<path style="fill:#F2EDA1; fill-opacity:1.0000; 
stroke:#F2EDA1; stroke-width:0.0000; stroke-opacity:1; 
stroke-linecap:round; stroke-linejoin:round;fill-rule:evenodd;"
d="M 189.6997,19.3460
189.7446,19.3622
189.9342,19.4594
190.0844,19.6074
190.2169,19.8670
190.3535,20.2990
190.5159,20.9639
190.7258,21.9226
190.8202,22.3654
191.0536,23.4968
191.2024,24.3139
191.2732,24.8767
191.2730,25.2447
191.2086,25.4775
191.1823,25.5233
191.0463,25.6620
190.7943,25.7967
190.3757,25.9422
189.7404,26.1130
188.8378,26.3240
187.6178,26.5899
187.3302,26.6512
185.9126,26.9617
184.8489,27.2166
184.1132,27.4229
183.6796,27.5878
183.5331,27.6943
183.5160,27.8427
183.5456,28.1803
183.6259,28.7271
183.7607,29.5033
183.9539,30.5287
184.2095,31.8233
184.5313,33.4073
184.9232,35.3006
185.3892,37.5231
185.9331,40.0950
186.1264,41.0052
186.6641,43.5362
187.1264,45.7174
187.5182,47.5756
187.8444,49.1373
188.1099,50.4292
188.3196,51.4780
188.4784,52.3103
188.5912,52.9528
188.6629,53.4320
188.6985,53.7747
188.7028,54.0074
188.6806,54.1569
188.6371,54.2498
188.5769,54.3126
188.5748,54.3144
188.2732,54.4529
187.6686,54.6432
186.8359,54.8645
185.8500,55.0958
185.5241,55.1665
184.4073,55.3965
183.6037,55.5412
183.0528,55.6074
182.6941,55.6019
182.4671,55.5314
182.4373,55.5135
182.3602,55.4367
182.2760,55.2872
182.1787,55.0388
182.0620,54.6656
181.9198,54.1414
181.7459,53.4402
181.5342,52.5359
181.2785,51.4024
180.9726,50.0135
180.6105,48.3434
180.1860,46.3658
179.6928,44.0547
179.3290,42.3445
178.7582,39.6668
178.2597,37.3463
177.8289,35.3630
177.4612,33.6970
177.1521,32.3283
176.8969,31.2372
176.6910,30.4035
176.5299,29.8075
176.4090,29.4291
176.3237,29.2485
176.3055,29.2306
176.0571,29.1914
175.5370,29.2340
174.7187,29.3624
173.5755,29.5807
172.4124,29.8220
171.1208,30.0921
170.1519,30.2817
169.4539,30.3979
168.9747,30.4478
168.6624,30.4383
168.4650,30.3765
168.4346,30.3584
168.2772,30.2013
168.1281,29.9096
167.9694,29.4260
167.7830,28.6931
167.5510,27.6536
167.4810,27.3263
167.2534,26.2420
167.1036,25.4692
167.0268,24.9437
167.0182,24.6011
167.0729,24.3771
167.1861,24.2074
167.2420,24.1453
167.3539,24.0559
167.5439,23.9598
167.8409,23.8501
168.2735,23.7199
168.8708,23.5623
169.6613,23.3704
170.6739,23.1372
171.9375,22.8560
173.4807,22.5196
175.3323,22.1214
177.5212,21.6542
178.4310,21.4607
180.7537,20.9680
182.7294,20.5516
184.3872,20.2061
185.7563,19.9261
186.8657,19.7061
187.7446,19.5409
188.4220,19.4249
188.9272,19.3529
189.2891,19.3193
189.5369,19.3188
Z" /> 
<path style="fill:#F2EDA1; fill-opacity:1.0000; 
stroke:#F2EDA1; stroke-width:0.0000; stroke-opacity:1; 
stroke-linecap:round; stroke-linejoin:round;fill-rule:evenodd;"
d="M 129.6813,43.8457
129.2270,41.6994
128.8392,39.8569
128.5132,38.2938
128.3937,37.7124
135.7539,37.7124
136.5420,41.6710
136.7849,42.8664
137.0123,43.9398
137.2108,44.8315
137.3671,45.4818
137.4676,45.8309
137.4841,45.8667
137.6201,45.9477
137.9148,45.9556
138.4220,45.8828
139.1956,45.7218
140.2101,45.4840
141.2964,45.2139
142.0815,44.9934
142.6414,44.7948
143.0520,44.5905
143.3892,44.3528
143.4498,44.3027
144.3504,43.3251
144.9069,42.2145
145.1048,41.0104
145.0098,40.0729
144.5749,38.9001
143.8279,37.9358
142.7969,37.2092
141.8636,36.8403
141.4839,36.7493
141.0920,36.7142
140.6087,36.7422
139.9548,36.8403
139.0510,37.0158
138.3893,37.1542
135.7539,37.7124
128.3937,37.7124
128.2444,36.9860
128.0284,35.9093
127.8606,35.0393
127.7364,34.3519
127.6513,33.8229
127.6008,33.4279
127.5802,33.1428
127.5850,32.9433
127.6108,32.8052
127.6528,32.7043
127.7039,32.6206
127.7978,32.4895
127.9202,32.3751
128.1110,32.2670
128.4099,32.1548
128.8566,32.0280
129.4909,31.8761
130.3525,31.6887
131.4811,31.4554
132.9165,31.1658
134.2715,30.8946
136.0360,30.5445
137.4682,30.2671
138.6123,30.0558
139.5125,29.9036
140.2130,29.8038
140.7580,29.7494
141.1918,29.7338
141.5584,29.7500
141.6368,29.7574
143.7234,30.1396
145.6517,30.8227
147.3926,31.7775
148.9170,32.9743
150.1959,34.3838
151.2003,35.9766
151.9011,37.7232
152.2693,39.5942
152.3196,40.5848
152.1578,42.5263
151.6802,44.3712
150.9114,46.0607
149.8761,47.5358
149.0732,48.3505
148.5948,48.7963
148.2649,49.1490
148.1570,49.3261
148.3009,49.4833
148.6982,49.8704
149.3175,50.4582
150.1277,51.2175
151.0975,52.1189
152.1957,53.1334
153.3912,54.2316
153.5605,54.3867
154.9324,55.6518
156.1446,56.7880
157.1745,57.7730
157.9995,58.5847
158.5968,59.2008
158.9438,59.5993
159.0251,59.7341
159.0725,60.0830
159.0194,60.3628
158.8217,60.5947
158.4352,60.7998
157.8161,60.9995
156.9201,61.2148
155.7032,61.4671
155.2304,61.5608
151.8172,62.2327
145.4729,56.1058
143.8685,54.5615
142.5178,53.2732
141.4028,52.2248
140.5052,51.3998
139.8071,50.7819
139.2902,50.3549
138.9365,50.1024
138.7278,50.0080
138.7016,50.0067
138.2747,50.0346
139.7288,56.8758
140.1142,58.6978
140.4227,60.1813
140.6609,61.3636
140.8350,62.2822
140.9513,62.9741
141.0164,63.4769
141.0365,63.8278
141.0180,64.0640
140.9789,64.1976
140.8836,64.3844
140.7389,64.5330
140.4851,64.6645
140.0628,64.7999
139.4124,64.9603
138.4744,65.1667
137.8787,65.2938
136.7735,65.5261
135.9812,65.6810
135.4389,65.7634
135.0836,65.7783
134.8525,65.7308
134.6825,65.6259
134.6008,65.5533
134.5261,65.4583
134.4431,65.2924
134.3464,65.0322
134.2305,64.6542
134.0901,64.1350
133.9197,63.4511
133.7139,62.5789
133.4673,61.4951
133.1743,60.1761
132.8296,58.5985
132.4279,56.7389
131.9635,54.5736
131.4312,52.0793
130.8254,49.2325
130.8071,49.1464
130.2065,46.3200
130.0169,45.4267
Z" /> 
<path style="fill:#F2EDA1; fill-opacity:1.0000; 
stroke:#F2EDA1; stroke-width:0.0000; stroke-opacity:1; 
stroke-linecap:round; stroke-linejoin:round;fill-rule:evenodd;"
d="M 50.7993,48.8433
51.1416,48.9815
51.3308,49.2333
51.3944,49.4448
51.3716,49.6960
51.2784,50.2876
51.1218,51.1826
50.9086,52.3442
50.6458,53.7358
50.3402,55.3205
49.9986,57.0615
49.6281,58.9221
49.5033,59.5424
49.0633,61.7488
48.6782,63.7275
48.3517,65.4564
48.0880,66.9134
47.8908,68.0764
47.7642,68.9233
47.7120,69.4320
47.7227,69.5765
47.8325,69.6734
48.0397,69.7161
48.3989,69.6980
48.9647,69.6130
49.7916,69.4547
50.9344,69.2169
51.0490,69.1925
52.3812,68.8977
53.3559,68.6544
53.9960,68.4562
54.3247,68.2964
54.3688,68.2508
54.4052,68.0214
54.3671,67.5374
54.2498,66.7713
54.0491,65.6953
53.7606,64.2818
53.6568,63.7903
53.3411,62.3268
53.1081,61.1941
52.9792,60.3428
52.9761,59.7236
53.1206,59.2874
53.4341,58.9848
53.9383,58.7665
54.6549,58.5834
55.6055,58.3860
56.0721,58.2887
57.0794,58.0690
57.8653,57.9146
58.4670,57.8614
58.9218,57.9453
59.2667,58.2023
59.5390,58.6684
59.7759,59.3794
60.0145,60.3714
60.2921,61.6802
60.4741,62.5451
60.7713,63.9525
61.0053,65.0263
61.2023,65.8075
61.3887,66.3369
61.5906,66.6553
61.8342,66.8035
62.1458,66.8225
62.5517,66.7529
63.0780,66.6357
63.0988,66.6313
63.7066,66.5182
64.1656,66.5044
64.5121,66.6354
64.7823,66.9567
65.0123,67.5136
65.2384,68.3517
65.4969,69.5164
65.5336,69.6889
65.7802,70.8775
65.9257,71.7497
65.9506,72.3653
65.8349,72.7841
65.5590,73.0659
65.1031,73.2706
64.4474,73.4578
64.2742,73.5026
62.9729,73.8384
63.5993,77.0395
63.8319,78.2589
63.9870,79.1591
64.0707,79.7968
64.0892,80.2285
64.0485,80.5107
63.9908,80.6449
63.8579,80.8126
63.6343,80.9579
63.2591,81.1009
62.6718,81.2615
61.8117,81.4598
60.9754,81.6401
59.8479,81.8727
59.0342,82.0204
58.4746,82.0900
58.1090,82.0885
57.8777,82.0225
57.8361,81.9983
57.6836,81.8469
57.5383,81.5662
57.3831,81.1004
57.2008,80.3941
56.9743,79.3917
56.8435,78.7827
56.6154,77.7437
56.4004,76.8265
56.2162,76.1024
56.0808,75.6430
56.0320,75.5266
55.9564,75.4662
55.8027,75.4359
55.5377,75.4415
55.1279,75.4888
54.5402,75.5835
53.7411,75.7315
52.6973,75.9386
51.3756,76.2106
49.7426,76.5534
47.8887,76.9463
45.8731,77.3744
44.2009,77.7260
42.8392,78.0040
41.7549,78.2112
40.9148,78.3503
40.2860,78.4242
39.8352,78.4358
39.5296,78.3878
39.3358,78.2831
39.2210,78.1245
39.1520,77.9148
39.1041,77.6958
39.1279,77.4507
39.2211,76.8654
39.3764,75.9769
39.5866,74.8219
39.8444,73.4376
40.1425,71.8607
40.4738,70.1282
40.8309,68.2770
41.2065,66.3441
41.5935,64.3664
41.9846,62.3808
42.3725,60.4243
42.7499,58.5337
43.1097,56.7459
43.4445,55.0980
43.7470,53.6268
44.0101,52.3693
44.2265,51.3623
44.3889,50.6429
44.4900,50.2479
44.5096,50.1931
44.7862,49.9172
45.3592,49.6593
46.2535,49.4120
47.4942,49.1674
48.2971,49.0369
49.4326,48.8783
50.2481,48.8113
Z" /> 
<path style="fill:#F2EDA1; fill-opacity:1.0000; 
stroke:#F2EDA1; stroke-width:0.0000; stroke-opacity:1; 
stroke-linecap:round; stroke-linejoin:round;fill-rule:evenodd;"
d="M 78.7755,59.0364
78.6035,56.6195
85.6747,56.6195
85.7404,57.9967
85.9559,59.1925
86.3606,60.3940
86.5706,60.8874
87.0483,61.8190
87.6288,62.7324
88.2636,63.5729
88.9043,64.2860
89.5024,64.8170
90.0094,65.1115
90.3406,65.1319
90.5031,64.9175
90.8023,64.3506
91.2357,63.4377
91.8003,62.1847
92.4935,60.5982
93.3123,58.6841
94.2540,56.4488
94.6038,55.6119
95.3488,53.8178
96.0436,52.1295
96.6748,50.5804
97.2291,49.2041
97.6931,48.0340
98.0536,47.1036
98.2971,46.4464
98.4103,46.0958
98.4155,46.0475
98.1827,45.9275
97.6876,45.8048
97.2152,45.7300
96.1558,45.7069
94.9022,45.8477
93.5933,46.1240
92.3682,46.5072
91.4780,46.9057
89.7821,48.0385
88.3446,49.4309
87.1903,51.0412
86.3443,52.8278
85.8312,54.7492
85.6747,56.6195
78.6035,56.6195
78.6034,56.6175
78.7611,54.1825
79.2557,51.7668
80.0939,49.4056
81.2829,47.1342
81.5093,46.7766
82.9598,44.8300
84.6415,43.1224
86.6077,41.6041
87.9141,40.7819
88.4797,40.4587
88.9746,40.2068
89.4775,40.0001
90.0671,39.8126
90.8221,39.6184
91.8212,39.3913
92.6931,39.2020
94.1677,38.8996
95.3659,38.6981
96.3815,38.5947
97.3086,38.5862
98.2411,38.6697
99.2730,38.8422
99.9006,38.9703
100.5752,39.1057
101.0967,39.1952
101.3561,39.2204
101.3594,39.2199
101.4986,39.0378
101.7125,38.5975
101.8986,38.1391
102.1585,37.5376
102.4143,37.0834
102.5606,36.9164
102.8835,36.7895
103.4652,36.6294
104.2034,36.4572
104.9960,36.2936
105.7406,36.1596
106.3349,36.0761
106.6768,36.0639
106.7031,36.0706
107.0034,36.2840
107.2526,36.5410
107.4027,36.7547
107.4704,36.9907
107.4413,37.3141
107.3012,37.7902
107.0360,38.4839
106.6315,39.4605
106.5982,39.5397
105.8906,41.2218
107.0838,42.0922
108.9800,43.7034
110.6443,45.5817
112.0437,47.6730
113.1449,49.9230
113.9146,52.2775
114.2013,53.7035
114.4130,56.2896
114.2601,58.8195
113.7620,61.2636
112.9380,63.5922
111.8074,65.7757
110.3896,67.7843
108.7040,69.5885
106.7699,71.1585
104.6066,72.4647
102.2335,73.4775
101.0674,73.8392
98.8284,74.2768
96.4266,74.4172
93.9467,74.2584
92.5917,74.0451
92.3660,74.1025
92.1283,74.4009
91.8394,74.9957
91.7225,75.2754
91.3515,76.1325
91.0068,76.7197
90.5975,77.1108
90.0328,77.3797
89.2219,77.6001
88.7267,77.7086
87.8856,77.8789
87.3224,77.9597
86.9409,77.9514
86.6448,77.8544
86.4118,77.7178
86.0167,77.4033
85.8042,77.1240
85.7983,77.1033
85.8489,76.8401
86.0253,76.2979
86.3011,75.5511
86.6497,74.6744
86.7200,74.5040
87.6951,72.1555
86.3432,71.2381
84.3388,69.6561
84.1726,69.4810
82.6223,67.8464
82.0990,67.1095
95.3298,67.1095
95.6520,67.3075
96.2615,67.3820
97.0848,67.3442
98.0488,67.2056
99.0801,66.9774
100.1055,66.6708
101.0517,66.2971
101.2663,66.1950
102.6911,65.3760
103.8682,64.4227
104.9196,63.2300
105.2920,62.7200
106.3365,60.9376
107.0026,59.1037
107.2956,57.1962
107.2210,55.1930
107.1810,54.9006
106.7310,53.0005
105.9571,51.2737
104.9625,49.8148
104.2784,49.0059
103.7555,48.5044
103.3633,48.2842
103.1776,48.2761
103.0569,48.4589
102.8096,48.9585
102.4524,49.7345
102.0023,50.7466
101.4760,51.9543
100.8903,53.3174
100.2621,54.7954
99.6081,56.3480
98.9453,57.9349
98.2903,59.5157
97.6601,61.0500
97.0715,62.4975
96.5411,63.8178
96.0860,64.9706
95.7229,65.9155
95.4685,66.6121
95.3398,67.0202
95.3298,67.1095
82.0990,67.1095
81.2007,65.8443
80.0811,63.6851
79.2703,61.4041
79.1121,60.6472
Z" /> 
<g >
</g>
<g >
</g>
<g >
</g>
<g >
</g>
<g >
</g>
<g >
</g>
<g >
</g>
<g >
</g>
<g >
</g>
<g >
</g>
<g >
</g>
<g >
</g>
<g >
</g>
<g >
</g>
<g >
</g>
<g >
</g>
<g >
</g>
<g >
</g>
<g >
</g>
<g >
</g>
<g >
</g>
<g >
</g>
<g >
</g>
<g >
</g>
<g >
</g>
<g >
</g>
<g >
</g>
<g >
</g>
<g >
</g>
<g >
</g>
<g >
</g>
<g >
</g>
<g >
</g>
<g >
</g>
<g >
</g>
<g >
</g>
<g >
</g>
<g >
</g>
<g >
</g>
<g >
</g>
<g >
</g>
<g >
</g>
<g >
</g>
<g >
</g>
<g >
</g>
<g >
</g>
<g >
</g>
<g >
</g>
<g >
</g>
<g >
</g>
<g >
</g>
<g >
</g>
<g >
</g>
<g >
</g>
<g >
</g>
<g >
</g>
<g >
</g>
<g >
</g>
<g >
</g>
<g >
</g>
<g >
</g>
<g >
</g>
<g >
</g>
<g >
</g>
<g >
</g>
<g >
</g>
<g >
</g>
<g >
</g>
<g >
</g>
<g >
</g>
<g >
</g>
<g >
</g>
<g >
</g>
<g >
</g>
<g >
</g>
<g >
</g>
<g >
</g>
<g >
</g>
<g >
</g>
<g >
</g>
<g >
</g>
<g >
</g>
<g >
</g>
<g >
</g>
<g >
</g>
<g >
</g>
<g >
</g>
<g >
</g>
<g >
</g>
<g >
</g>
<g >
</g>
<g >
</g>
<g >
</g>
<g >
</g>
<g >
</g>
<g >
</g>
<g >
</g>
<g >
</g>
<g >
</g>
<g >
</g>
<g >
</g>
<g >
</g>
<g >
</g>
<g >
</g>
<g >
</g>
<g >
</g>
<g >
</g>
<g >
</g>
<g >
</g>
<g >
</g>
<g >
</g>
<g >
</g>
<g >
</g>
<g >
</g>
<g >
</g>
<g >
</g>
<g >
</g>
<g >
</g>
<g >
</g>
<g >
</g>
<g >
</g>
<g >
</g>
<g >
</g>
<g >
</g>
<g >
</g>
<g >
</g>
<g >
</g>
<g >
</g>
<g >
</g>
<g >
</g>
<g >
</g>
<g >
</g>
<g >
</g>
<g >
</g>
<g >
</g>
<g >
</g>
<g >
</g>
<g >
</g>
<g >
</g>
<g >
</g>
<g >
</g>
<g >
</g>
<g >
</g>
<g >
</g>
<g >
</g>
<g >
</g>
<g >
</g>
<g >
</g>
<g >
</g>
<g >
</g>
<g >
</g>
<g >
</g>
<g >
</g>
<g >
</g>
<g >
</g>
<g >
</g>
<g >
</g>
<g >
</g>
<g >
</g>
<g >
</g>
<g >
</g>
<g >
</g>
<g >
</g>
<g >
</g>
<g >
</g>
<g >
</g>
<g >
</g>
<g >
</g>
<g >
</g>
<g >
</g>
<g >
</g>
<g >
</g>
<g >
</g>
<g >
</g>
<g >
</g>
<g >
</g>
<g >
</g>
<g >
</g>
<g >
</g>
<g >
</g>
</g>
<g style="fill:#000000; fill-opacity:1.0000; 
stroke:#000000; stroke-width:0.0000; stroke-opacity:1; 
stroke-linecap:round; stroke-linejoin:round;">
</g>
<g style="fill:#D0D2CD; fill-opacity:1.0000; 
stroke:#D0D2CD; stroke-width:0.0000; stroke-opacity:1; 
stroke-linecap:round; stroke-linejoin:round;">
</g>
<g style="fill:#D0D2CD; fill-opacity:0.0; 
stroke:#D0D2CD; stroke-width:0.2000; stroke-opacity:1; 
stroke-linecap:round; stroke-linejoin:round;">
<path d="M248.7209 87.0258 A2.5000 2.5000 0.0 0 0 249.8834 87.3125" />
<path d="M127.1202 11.1125
L16.7298 11.1125
" />
<path d="M243.6202 11.1125
L220.4187 11.1125
" />
<path d="M9.3500 87.3125
L10.4666 87.3125
" />
<path d="M9.3500 11.1125 A2.0000 2.0000 0.0 0 0 7.3500 13.1125" />
<path d="M209.4187 4.2125
L209.4187 10.1125
" />
<path d="M209.9187 3.7125 A0.5000 0.5000 0.0 0 0 209.4187 4.2125" />
<path d="M15.7209 87.0258 A4.4000 4.4000 0.0 0 0 11.6291 87.0258" />
<path d="M208.4187 11.1125 A1.0000 1.0000 0.0 0 0 209.4187 10.1125" />
<path d="M7.3500 85.3125 A2.0000 2.0000 0.0 0 0 9.3500 87.3125" />
<path d="M133.3834 87.3125
L243.4666 87.3125
" />
<path d="M249.7298 11.1125 A2.5000 2.5000 0.0 0 0 248.6230 11.3709" />
<path d="M16.7298 11.1125 A2.5000 2.5000 0.0 0 0 15.6230 11.3709" />
<path d="M10.6202 11.1125
L9.3500 11.1125
" />
<path d="M11.7270 11.3709 A4.4000 4.4000 0.0 0 0 15.6230 11.3709" />
<path d="M11.7270 11.3709 A2.5000 2.5000 0.0 0 0 10.6202 11.1125" />
<path d="M219.4187 10.1125 A1.0000 1.0000 0.0 0 0 220.4187 11.1125" />
<path d="M253.0000 13.1125 A2.0000 2.0000 0.0 0 0 251.0000 11.1125" />
<path d="M7.3500 13.1125
L7.3500 85.3125
" />
<path d="M132.2209 87.0258 A2.5000 2.5000 0.0 0 0 133.3834 87.3125" />
<path d="M248.7209 87.0258 A4.4000 4.4000 0.0 0 0 244.6291 87.0258" />
<path d="M218.9187 3.7125
L209.9187 3.7125
" />
<path d="M128.2270 11.3709 A4.4000 4.4000 0.0 0 0 132.1230 11.3709" />
<path d="M10.4666 87.3125 A2.5000 2.5000 0.0 0 0 11.6291 87.0258" />
<path d="M219.4187 10.1125
L219.4187 4.2125
" />
<path d="M15.7209 87.0258 A2.5000 2.5000 0.0 0 0 16.8834 87.3125" />
<path d="M253.0000 85.3125
L253.0000 13.1125
" />
<path d="M244.7270 11.3709 A4.4000 4.4000 0.0 0 0 248.6230 11.3709" />
<path d="M219.4187 4.2125 A0.5000 0.5000 0.0 0 0 218.9187 3.7125" />
<path d="M16.8834 87.3125
L126.9666 87.3125
" />
<path d="M251.0000 87.3124 A1.9999 1.9999 0.0 0 0 253.0000 85.3125" />
<path d="M133.2298 11.1125 A2.5000 2.5000 0.0 0 0 132.1230 11.3709" />
<path d="M243.4666 87.3125 A2.5000 2.5000 0.0 0 0 244.6291 87.0258" />
<path d="M132.2209 87.0258 A4.4000 4.4000 0.0 0 0 128.1291 87.0258" />
<path d="M128.2270 11.3709 A2.5000 2.5000 0.0 0 0 127.1202 11.1125" />
<path d="M244.7270 11.3709 A2.5000 2.5000 0.0 0 0 243.6202 11.1125" />
<path d="M208.4187 11.1125
L133.2298 11.1125
" />
<path d="M251.0000 11.1125
L249.7298 11.1125
" />
<path d="M249.8834 87.3125
L251.0000 87.3125
" />
<path d="M126.9666 87.3125 A2.5000 2.5000 0.0 0 0 128.1291 87.0258" />
<g >
</g>
<g >
</g>
<g >
</g>
<g >
</g>
<g >
</g>
<g >
</g>
<g >
</g>
<g >
</g>
<g >
</g>
<g >
</g>
<g >
</g>
<g >
</g>
<g >
</g>
<g >
</g>
<g >
</g>
<g >
</g>
<g >
</g>
<g >
</g>
<g >
</g>
<g >
</g>
<g >
</g>
<g >
</g>
<g >
</g>
<g >
</g>
<g >
</g>
<g >
</g>
<g >
</g>
<g >
</g>
<g >
</g>
<g >
</g>
<g >
</g>
<g >
</g>
<g >
</g>
<g >
</g>
<g >
</g>
<g >
</g>
<g >
</g>
<g >
</g>
<g >
</g>
<g >
</g>
<g >
</g>
<g >
</g>
<g >
</g>
<g >
</g>
<g >
</g>
<g >
</g>
<g >
</g>
<g >
</g>
<g >
</g>
<g >
</g>
<g >
</g>
<g >
</g>
<g >
</g>
<g >
</g>
<g >
</g>
<g >
</g>
<g >
</g>
<g >
</g>
<g >
</g>
<g >
</g>
<g >
</g>
<g >
</g>
<g >
</g>
<g >
</g>
<g >
</g>
<g >
</g>
<g >
</g>
<g >
</g>
<g >
</g>
<g >
</g>
<g >
</g>
<g >
</g>
<g >
</g>
<g >
</g>
<g >
</g>
<g >
</g>
<g >
</g>
<g >
</g>
<g >
</g>
<g >
</g>
<g >
</g>
<g >
</g>
<g >
</g>
<g >
</g>
<g >
</g>
<g >
</g>
<g >
</g>
<g >
</g>
<g >
</g>
<g >
</g>
<g >
</g>
<g >
</g>
<g >
</g>
<g >
</g>
<g >
</g>
<g >
</g>
<g >
</g>
<g >
</g>
<g >
</g>
<g >
</g>
<g >
</g>
<g >
</g>
<g >
</g>
<g >
</g>
<g >
</g>
<g >
</g>
<g >
</g>
<g >
</g>
<g >
</g>
<g >
</g>
<g >
</g>
<g >
</g>
<g >
</g>
<g >
</g>
<g >
</g>
<g >
</g>
<g >
</g>
<g >
</g>
<g >
</g>
<g >
</g>
<g >
</g>
<g >
</g>
<g >
</g>
<g >
</g>
<g >
</g>
<g >
</g>
<g >
</g>
<g >
</g>
<g >
</g>
<g >
</g>
<g >
</g>
<g >
</g>
<g >
</g>
<g >
</g>
<g >
</g>
<g >
</g>
<g >
</g>
<g >
</g>
<g >
</g>
<g >
</g>
<g >
</g>
<g >
</g>
<g >
</g>
<g >
</g>
<g >
</g>
<g >
</g>
<g >
</g>
<g >
</g>
<g >
</g>
<g >
</g>
<g >
</g>
<g >
</g>
<g >
</g>
<g >
</g>
<g >
</g>
<g >
</g>
<g >
</g>
<g >
</g>
<g >
</g>
<g >
</g>
<g >
</g>
<g >
</g>
<g >
</g>
<g >
</g>
<g >
</g>
<g >
</g>
<g >
</g>
<g >
</g>
<g >
</g>
<g >
</g>
<g >
</g>
<g >
</g>
<g >
</g>
<g >
</g>
<g >
</g>
<g >
</g>
<g >
</g>
<g >
</g>
<g >
</g>
<g >
</g>
</g> 
</svg>
