%TF.GenerationSoftware,KiCad,Pcbnew,(7.0.0)*%
%TF.CreationDate,2024-04-06T15:31:58+02:00*%
%TF.ProjectId,forti EC,666f7274-6920-4454-932e-6b696361645f,rev?*%
%TF.SameCoordinates,Original*%
%TF.FileFunction,Legend,Bot*%
%TF.FilePolarity,Positive*%
%FSLAX46Y46*%
G04 Gerber Fmt 4.6, Leading zero omitted, Abs format (unit mm)*
G04 Created by KiCad (PCBNEW (7.0.0)) date 2024-04-06 15:31:58*
%MOMM*%
%LPD*%
G01*
G04 APERTURE LIST*
G04 Aperture macros list*
%AMRoundRect*
0 Rectangle with rounded corners*
0 $1 Rounding radius*
0 $2 $3 $4 $5 $6 $7 $8 $9 X,Y pos of 4 corners*
0 Add a 4 corners polygon primitive as box body*
4,1,4,$2,$3,$4,$5,$6,$7,$8,$9,$2,$3,0*
0 Add four circle primitives for the rounded corners*
1,1,$1+$1,$2,$3*
1,1,$1+$1,$4,$5*
1,1,$1+$1,$6,$7*
1,1,$1+$1,$8,$9*
0 Add four rect primitives between the rounded corners*
20,1,$1+$1,$2,$3,$4,$5,0*
20,1,$1+$1,$4,$5,$6,$7,0*
20,1,$1+$1,$6,$7,$8,$9,0*
20,1,$1+$1,$8,$9,$2,$3,0*%
G04 Aperture macros list end*
%ADD10C,0.150000*%
%ADD11C,0.200000*%
%ADD12C,0.120000*%
%ADD13C,0.170180*%
%ADD14C,0.002540*%
%ADD15C,2.200000*%
%ADD16C,0.650000*%
%ADD17O,1.000000X2.100000*%
%ADD18O,1.000000X1.600000*%
%ADD19RoundRect,0.105000X-0.245000X0.245000X-0.245000X-0.245000X0.245000X-0.245000X0.245000X0.245000X0*%
%ADD20RoundRect,0.135000X-0.185000X0.135000X-0.185000X-0.135000X0.185000X-0.135000X0.185000X0.135000X0*%
%ADD21RoundRect,0.105000X0.245000X0.245000X-0.245000X0.245000X-0.245000X-0.245000X0.245000X-0.245000X0*%
%ADD22RoundRect,0.062500X-0.375000X-0.062500X0.375000X-0.062500X0.375000X0.062500X-0.375000X0.062500X0*%
%ADD23RoundRect,0.062500X-0.062500X-0.375000X0.062500X-0.375000X0.062500X0.375000X-0.062500X0.375000X0*%
%ADD24R,5.600000X5.600000*%
%ADD25RoundRect,0.135000X0.185000X-0.135000X0.185000X0.135000X-0.185000X0.135000X-0.185000X-0.135000X0*%
%ADD26RoundRect,0.200000X-0.200000X-0.275000X0.200000X-0.275000X0.200000X0.275000X-0.200000X0.275000X0*%
%ADD27RoundRect,0.140000X0.140000X0.170000X-0.140000X0.170000X-0.140000X-0.170000X0.140000X-0.170000X0*%
%ADD28RoundRect,0.135000X-0.135000X-0.185000X0.135000X-0.185000X0.135000X0.185000X-0.135000X0.185000X0*%
%ADD29RoundRect,0.140000X0.170000X-0.140000X0.170000X0.140000X-0.170000X0.140000X-0.170000X-0.140000X0*%
%ADD30RoundRect,0.200000X0.200000X0.275000X-0.200000X0.275000X-0.200000X-0.275000X0.200000X-0.275000X0*%
%ADD31R,1.900000X0.400000*%
%ADD32R,1.700000X1.700000*%
%ADD33O,1.700000X1.700000*%
%ADD34RoundRect,0.135000X0.135000X0.185000X-0.135000X0.185000X-0.135000X-0.185000X0.135000X-0.185000X0*%
%ADD35RoundRect,0.150000X0.512500X0.150000X-0.512500X0.150000X-0.512500X-0.150000X0.512500X-0.150000X0*%
%ADD36RoundRect,0.105000X0.245000X-0.245000X0.245000X0.245000X-0.245000X0.245000X-0.245000X-0.245000X0*%
%ADD37R,1.778000X0.419100*%
%ADD38RoundRect,0.150000X-0.150000X0.512500X-0.150000X-0.512500X0.150000X-0.512500X0.150000X0.512500X0*%
%ADD39RoundRect,0.225000X0.375000X-0.225000X0.375000X0.225000X-0.375000X0.225000X-0.375000X-0.225000X0*%
%ADD40RoundRect,0.140000X-0.140000X-0.170000X0.140000X-0.170000X0.140000X0.170000X-0.140000X0.170000X0*%
%ADD41RoundRect,0.140000X-0.170000X0.140000X-0.170000X-0.140000X0.170000X-0.140000X0.170000X0.140000X0*%
%ADD42RoundRect,0.150000X0.150000X-0.587500X0.150000X0.587500X-0.150000X0.587500X-0.150000X-0.587500X0*%
%ADD43RoundRect,0.150000X0.150000X-0.512500X0.150000X0.512500X-0.150000X0.512500X-0.150000X-0.512500X0*%
%ADD44RoundRect,0.225000X0.225000X0.250000X-0.225000X0.250000X-0.225000X-0.250000X0.225000X-0.250000X0*%
%ADD45RoundRect,0.225000X-0.250000X0.225000X-0.250000X-0.225000X0.250000X-0.225000X0.250000X0.225000X0*%
%ADD46RoundRect,0.250000X-0.625000X0.375000X-0.625000X-0.375000X0.625000X-0.375000X0.625000X0.375000X0*%
%ADD47RoundRect,0.225000X-0.225000X-0.250000X0.225000X-0.250000X0.225000X0.250000X-0.225000X0.250000X0*%
G04 APERTURE END LIST*
D10*
X255270000Y-52599908D02*
X255270000Y-48789908D01*
X238360000Y-47519900D02*
G75*
G03*
X237090000Y-48789908I0J-1270000D01*
G01*
X238360000Y-53869908D02*
X254000000Y-53869908D01*
X254000000Y-47519908D02*
X238360000Y-47519908D01*
X254000000Y-53869900D02*
G75*
G03*
X255270000Y-52599908I0J1270000D01*
G01*
X237089992Y-52599908D02*
G75*
G03*
X238360000Y-53869908I1270008J8D01*
G01*
X41120181Y-66675000D02*
X41120181Y-68262500D01*
X237090000Y-48789908D02*
X237090000Y-52599908D01*
X255269992Y-48789908D02*
G75*
G03*
X254000000Y-47519908I-1269992J8D01*
G01*
X150352082Y-103332380D02*
X149685416Y-103332380D01*
X149685416Y-103332380D02*
X150113987Y-104332380D01*
X149828273Y-104952380D02*
X150018749Y-104952380D01*
X150018749Y-104952380D02*
X150113987Y-105000000D01*
X150113987Y-105000000D02*
X150161606Y-105047619D01*
X150161606Y-105047619D02*
X150256844Y-105190476D01*
X150256844Y-105190476D02*
X150304463Y-105380952D01*
X150304463Y-105380952D02*
X150304463Y-105761904D01*
X150304463Y-105761904D02*
X150256844Y-105857142D01*
X150256844Y-105857142D02*
X150209225Y-105904761D01*
X150209225Y-105904761D02*
X150113987Y-105952380D01*
X150113987Y-105952380D02*
X149923511Y-105952380D01*
X149923511Y-105952380D02*
X149828273Y-105904761D01*
X149828273Y-105904761D02*
X149780654Y-105857142D01*
X149780654Y-105857142D02*
X149733035Y-105761904D01*
X149733035Y-105761904D02*
X149733035Y-105523809D01*
X149733035Y-105523809D02*
X149780654Y-105428571D01*
X149780654Y-105428571D02*
X149828273Y-105380952D01*
X149828273Y-105380952D02*
X149923511Y-105333333D01*
X149923511Y-105333333D02*
X150113987Y-105333333D01*
X150113987Y-105333333D02*
X150209225Y-105380952D01*
X150209225Y-105380952D02*
X150256844Y-105428571D01*
X150256844Y-105428571D02*
X150304463Y-105523809D01*
X249126189Y-85981369D02*
X249078570Y-85933750D01*
X249078570Y-85933750D02*
X248983332Y-85886130D01*
X248983332Y-85886130D02*
X248745237Y-85886130D01*
X248745237Y-85886130D02*
X248649999Y-85933750D01*
X248649999Y-85933750D02*
X248602380Y-85981369D01*
X248602380Y-85981369D02*
X248554761Y-86076607D01*
X248554761Y-86076607D02*
X248554761Y-86171845D01*
X248554761Y-86171845D02*
X248602380Y-86314702D01*
X248602380Y-86314702D02*
X249173808Y-86886130D01*
X249173808Y-86886130D02*
X248554761Y-86886130D01*
X248126189Y-86790892D02*
X248078570Y-86838511D01*
X248078570Y-86838511D02*
X248126189Y-86886130D01*
X248126189Y-86886130D02*
X248173808Y-86838511D01*
X248173808Y-86838511D02*
X248126189Y-86790892D01*
X248126189Y-86790892D02*
X248126189Y-86886130D01*
X247745237Y-85886130D02*
X247078571Y-85886130D01*
X247078571Y-85886130D02*
X247507142Y-86886130D01*
X246221428Y-85886130D02*
X246697618Y-85886130D01*
X246697618Y-85886130D02*
X246745237Y-86362321D01*
X246745237Y-86362321D02*
X246697618Y-86314702D01*
X246697618Y-86314702D02*
X246602380Y-86267083D01*
X246602380Y-86267083D02*
X246364285Y-86267083D01*
X246364285Y-86267083D02*
X246269047Y-86314702D01*
X246269047Y-86314702D02*
X246221428Y-86362321D01*
X246221428Y-86362321D02*
X246173809Y-86457559D01*
X246173809Y-86457559D02*
X246173809Y-86695654D01*
X246173809Y-86695654D02*
X246221428Y-86790892D01*
X246221428Y-86790892D02*
X246269047Y-86838511D01*
X246269047Y-86838511D02*
X246364285Y-86886130D01*
X246364285Y-86886130D02*
X246602380Y-86886130D01*
X246602380Y-86886130D02*
X246697618Y-86838511D01*
X246697618Y-86838511D02*
X246745237Y-86790892D01*
X254610000Y-51660550D02*
X254610000Y-50760550D01*
X254610000Y-51617693D02*
X254695714Y-51660550D01*
X254695714Y-51660550D02*
X254867142Y-51660550D01*
X254867142Y-51660550D02*
X254952857Y-51617693D01*
X254952857Y-51617693D02*
X254995714Y-51574836D01*
X254995714Y-51574836D02*
X255038571Y-51489122D01*
X255038571Y-51489122D02*
X255038571Y-51231979D01*
X255038571Y-51231979D02*
X254995714Y-51146265D01*
X254995714Y-51146265D02*
X254952857Y-51103408D01*
X254952857Y-51103408D02*
X254867142Y-51060550D01*
X254867142Y-51060550D02*
X254695714Y-51060550D01*
X254695714Y-51060550D02*
X254610000Y-51103408D01*
X253838571Y-51617693D02*
X253924285Y-51660550D01*
X253924285Y-51660550D02*
X254095714Y-51660550D01*
X254095714Y-51660550D02*
X254181428Y-51617693D01*
X254181428Y-51617693D02*
X254224285Y-51531979D01*
X254224285Y-51531979D02*
X254224285Y-51189122D01*
X254224285Y-51189122D02*
X254181428Y-51103408D01*
X254181428Y-51103408D02*
X254095714Y-51060550D01*
X254095714Y-51060550D02*
X253924285Y-51060550D01*
X253924285Y-51060550D02*
X253838571Y-51103408D01*
X253838571Y-51103408D02*
X253795714Y-51189122D01*
X253795714Y-51189122D02*
X253795714Y-51274836D01*
X253795714Y-51274836D02*
X254224285Y-51360550D01*
X253452856Y-51617693D02*
X253367142Y-51660550D01*
X253367142Y-51660550D02*
X253195713Y-51660550D01*
X253195713Y-51660550D02*
X253109999Y-51617693D01*
X253109999Y-51617693D02*
X253067142Y-51531979D01*
X253067142Y-51531979D02*
X253067142Y-51489122D01*
X253067142Y-51489122D02*
X253109999Y-51403408D01*
X253109999Y-51403408D02*
X253195713Y-51360550D01*
X253195713Y-51360550D02*
X253324285Y-51360550D01*
X253324285Y-51360550D02*
X253409999Y-51317693D01*
X253409999Y-51317693D02*
X253452856Y-51231979D01*
X253452856Y-51231979D02*
X253452856Y-51189122D01*
X253452856Y-51189122D02*
X253409999Y-51103408D01*
X253409999Y-51103408D02*
X253324285Y-51060550D01*
X253324285Y-51060550D02*
X253195713Y-51060550D01*
X253195713Y-51060550D02*
X253109999Y-51103408D01*
X252681428Y-51660550D02*
X252681428Y-51060550D01*
X252681428Y-50760550D02*
X252724285Y-50803408D01*
X252724285Y-50803408D02*
X252681428Y-50846265D01*
X252681428Y-50846265D02*
X252638571Y-50803408D01*
X252638571Y-50803408D02*
X252681428Y-50760550D01*
X252681428Y-50760550D02*
X252681428Y-50846265D01*
X251867143Y-51060550D02*
X251867143Y-51789122D01*
X251867143Y-51789122D02*
X251910000Y-51874836D01*
X251910000Y-51874836D02*
X251952857Y-51917693D01*
X251952857Y-51917693D02*
X252038571Y-51960550D01*
X252038571Y-51960550D02*
X252167143Y-51960550D01*
X252167143Y-51960550D02*
X252252857Y-51917693D01*
X251867143Y-51617693D02*
X251952857Y-51660550D01*
X251952857Y-51660550D02*
X252124285Y-51660550D01*
X252124285Y-51660550D02*
X252210000Y-51617693D01*
X252210000Y-51617693D02*
X252252857Y-51574836D01*
X252252857Y-51574836D02*
X252295714Y-51489122D01*
X252295714Y-51489122D02*
X252295714Y-51231979D01*
X252295714Y-51231979D02*
X252252857Y-51146265D01*
X252252857Y-51146265D02*
X252210000Y-51103408D01*
X252210000Y-51103408D02*
X252124285Y-51060550D01*
X252124285Y-51060550D02*
X251952857Y-51060550D01*
X251952857Y-51060550D02*
X251867143Y-51103408D01*
X251438571Y-51060550D02*
X251438571Y-51660550D01*
X251438571Y-51146265D02*
X251395714Y-51103408D01*
X251395714Y-51103408D02*
X251309999Y-51060550D01*
X251309999Y-51060550D02*
X251181428Y-51060550D01*
X251181428Y-51060550D02*
X251095714Y-51103408D01*
X251095714Y-51103408D02*
X251052857Y-51189122D01*
X251052857Y-51189122D02*
X251052857Y-51660550D01*
X250084285Y-51660550D02*
X250084285Y-50760550D01*
X250084285Y-51103408D02*
X249998571Y-51060550D01*
X249998571Y-51060550D02*
X249827142Y-51060550D01*
X249827142Y-51060550D02*
X249741428Y-51103408D01*
X249741428Y-51103408D02*
X249698571Y-51146265D01*
X249698571Y-51146265D02*
X249655713Y-51231979D01*
X249655713Y-51231979D02*
X249655713Y-51489122D01*
X249655713Y-51489122D02*
X249698571Y-51574836D01*
X249698571Y-51574836D02*
X249741428Y-51617693D01*
X249741428Y-51617693D02*
X249827142Y-51660550D01*
X249827142Y-51660550D02*
X249998571Y-51660550D01*
X249998571Y-51660550D02*
X250084285Y-51617693D01*
X249355713Y-51060550D02*
X249141427Y-51660550D01*
X248927142Y-51060550D02*
X249141427Y-51660550D01*
X249141427Y-51660550D02*
X249227142Y-51874836D01*
X249227142Y-51874836D02*
X249269999Y-51917693D01*
X249269999Y-51917693D02*
X249355713Y-51960550D01*
X248129999Y-51660550D02*
X247658571Y-51060550D01*
X248129999Y-51060550D02*
X247658571Y-51660550D01*
X247187142Y-51660550D02*
X247272857Y-51617693D01*
X247272857Y-51617693D02*
X247315714Y-51574836D01*
X247315714Y-51574836D02*
X247358571Y-51489122D01*
X247358571Y-51489122D02*
X247358571Y-51231979D01*
X247358571Y-51231979D02*
X247315714Y-51146265D01*
X247315714Y-51146265D02*
X247272857Y-51103408D01*
X247272857Y-51103408D02*
X247187142Y-51060550D01*
X247187142Y-51060550D02*
X247058571Y-51060550D01*
X247058571Y-51060550D02*
X246972857Y-51103408D01*
X246972857Y-51103408D02*
X246930000Y-51146265D01*
X246930000Y-51146265D02*
X246887142Y-51231979D01*
X246887142Y-51231979D02*
X246887142Y-51489122D01*
X246887142Y-51489122D02*
X246930000Y-51574836D01*
X246930000Y-51574836D02*
X246972857Y-51617693D01*
X246972857Y-51617693D02*
X247058571Y-51660550D01*
X247058571Y-51660550D02*
X247187142Y-51660550D01*
X246501428Y-51060550D02*
X246501428Y-51660550D01*
X246501428Y-51146265D02*
X246458571Y-51103408D01*
X246458571Y-51103408D02*
X246372856Y-51060550D01*
X246372856Y-51060550D02*
X246244285Y-51060550D01*
X246244285Y-51060550D02*
X246158571Y-51103408D01*
X246158571Y-51103408D02*
X246115714Y-51189122D01*
X246115714Y-51189122D02*
X246115714Y-51660550D01*
X245301428Y-51060550D02*
X245301428Y-51660550D01*
X245687142Y-51060550D02*
X245687142Y-51531979D01*
X245687142Y-51531979D02*
X245644285Y-51617693D01*
X245644285Y-51617693D02*
X245558570Y-51660550D01*
X245558570Y-51660550D02*
X245429999Y-51660550D01*
X245429999Y-51660550D02*
X245344285Y-51617693D01*
X245344285Y-51617693D02*
X245301428Y-51574836D01*
X244915713Y-51617693D02*
X244829999Y-51660550D01*
X244829999Y-51660550D02*
X244658570Y-51660550D01*
X244658570Y-51660550D02*
X244572856Y-51617693D01*
X244572856Y-51617693D02*
X244529999Y-51531979D01*
X244529999Y-51531979D02*
X244529999Y-51489122D01*
X244529999Y-51489122D02*
X244572856Y-51403408D01*
X244572856Y-51403408D02*
X244658570Y-51360550D01*
X244658570Y-51360550D02*
X244787142Y-51360550D01*
X244787142Y-51360550D02*
X244872856Y-51317693D01*
X244872856Y-51317693D02*
X244915713Y-51231979D01*
X244915713Y-51231979D02*
X244915713Y-51189122D01*
X244915713Y-51189122D02*
X244872856Y-51103408D01*
X244872856Y-51103408D02*
X244787142Y-51060550D01*
X244787142Y-51060550D02*
X244658570Y-51060550D01*
X244658570Y-51060550D02*
X244572856Y-51103408D01*
X244187142Y-51617693D02*
X244101428Y-51660550D01*
X244101428Y-51660550D02*
X243929999Y-51660550D01*
X243929999Y-51660550D02*
X243844285Y-51617693D01*
X243844285Y-51617693D02*
X243801428Y-51531979D01*
X243801428Y-51531979D02*
X243801428Y-51489122D01*
X243801428Y-51489122D02*
X243844285Y-51403408D01*
X243844285Y-51403408D02*
X243929999Y-51360550D01*
X243929999Y-51360550D02*
X244058571Y-51360550D01*
X244058571Y-51360550D02*
X244144285Y-51317693D01*
X244144285Y-51317693D02*
X244187142Y-51231979D01*
X244187142Y-51231979D02*
X244187142Y-51189122D01*
X244187142Y-51189122D02*
X244144285Y-51103408D01*
X244144285Y-51103408D02*
X244058571Y-51060550D01*
X244058571Y-51060550D02*
X243929999Y-51060550D01*
X243929999Y-51060550D02*
X243844285Y-51103408D01*
X242147142Y-51660550D02*
X242190000Y-51660550D01*
X242190000Y-51660550D02*
X242275714Y-51617693D01*
X242275714Y-51617693D02*
X242404285Y-51489122D01*
X242404285Y-51489122D02*
X242618571Y-51231979D01*
X242618571Y-51231979D02*
X242704285Y-51103408D01*
X242704285Y-51103408D02*
X242747142Y-50974836D01*
X242747142Y-50974836D02*
X242747142Y-50889122D01*
X242747142Y-50889122D02*
X242704285Y-50803408D01*
X242704285Y-50803408D02*
X242618571Y-50760550D01*
X242618571Y-50760550D02*
X242575714Y-50760550D01*
X242575714Y-50760550D02*
X242490000Y-50803408D01*
X242490000Y-50803408D02*
X242447142Y-50889122D01*
X242447142Y-50889122D02*
X242447142Y-50931979D01*
X242447142Y-50931979D02*
X242490000Y-51017693D01*
X242490000Y-51017693D02*
X242532857Y-51060550D01*
X242532857Y-51060550D02*
X242790000Y-51231979D01*
X242790000Y-51231979D02*
X242832857Y-51274836D01*
X242832857Y-51274836D02*
X242875714Y-51360550D01*
X242875714Y-51360550D02*
X242875714Y-51489122D01*
X242875714Y-51489122D02*
X242832857Y-51574836D01*
X242832857Y-51574836D02*
X242790000Y-51617693D01*
X242790000Y-51617693D02*
X242704285Y-51660550D01*
X242704285Y-51660550D02*
X242575714Y-51660550D01*
X242575714Y-51660550D02*
X242490000Y-51617693D01*
X242490000Y-51617693D02*
X242447142Y-51574836D01*
X242447142Y-51574836D02*
X242318571Y-51403408D01*
X242318571Y-51403408D02*
X242275714Y-51274836D01*
X242275714Y-51274836D02*
X242275714Y-51189122D01*
X241307142Y-51660550D02*
X240835714Y-51060550D01*
X241307142Y-51060550D02*
X240835714Y-51660550D01*
X240150000Y-51617693D02*
X240235714Y-51660550D01*
X240235714Y-51660550D02*
X240407143Y-51660550D01*
X240407143Y-51660550D02*
X240492857Y-51617693D01*
X240492857Y-51617693D02*
X240535714Y-51531979D01*
X240535714Y-51531979D02*
X240535714Y-51189122D01*
X240535714Y-51189122D02*
X240492857Y-51103408D01*
X240492857Y-51103408D02*
X240407143Y-51060550D01*
X240407143Y-51060550D02*
X240235714Y-51060550D01*
X240235714Y-51060550D02*
X240150000Y-51103408D01*
X240150000Y-51103408D02*
X240107143Y-51189122D01*
X240107143Y-51189122D02*
X240107143Y-51274836D01*
X240107143Y-51274836D02*
X240535714Y-51360550D01*
X239807142Y-51060550D02*
X239335714Y-51060550D01*
X239335714Y-51060550D02*
X239807142Y-51660550D01*
X239807142Y-51660550D02*
X239335714Y-51660550D01*
X238992857Y-51660550D02*
X238992857Y-51060550D01*
X238992857Y-50760550D02*
X239035714Y-50803408D01*
X239035714Y-50803408D02*
X238992857Y-50846265D01*
X238992857Y-50846265D02*
X238950000Y-50803408D01*
X238950000Y-50803408D02*
X238992857Y-50760550D01*
X238992857Y-50760550D02*
X238992857Y-50846265D01*
X238435714Y-51660550D02*
X238521429Y-51617693D01*
X238521429Y-51617693D02*
X238564286Y-51574836D01*
X238564286Y-51574836D02*
X238607143Y-51489122D01*
X238607143Y-51489122D02*
X238607143Y-51231979D01*
X238607143Y-51231979D02*
X238564286Y-51146265D01*
X238564286Y-51146265D02*
X238521429Y-51103408D01*
X238521429Y-51103408D02*
X238435714Y-51060550D01*
X238435714Y-51060550D02*
X238307143Y-51060550D01*
X238307143Y-51060550D02*
X238221429Y-51103408D01*
X238221429Y-51103408D02*
X238178572Y-51146265D01*
X238178572Y-51146265D02*
X238135714Y-51231979D01*
X238135714Y-51231979D02*
X238135714Y-51489122D01*
X238135714Y-51489122D02*
X238178572Y-51574836D01*
X238178572Y-51574836D02*
X238221429Y-51617693D01*
X238221429Y-51617693D02*
X238307143Y-51660550D01*
X238307143Y-51660550D02*
X238435714Y-51660550D01*
X237750000Y-51660550D02*
X237750000Y-50760550D01*
X237364286Y-51660550D02*
X237364286Y-51189122D01*
X237364286Y-51189122D02*
X237407143Y-51103408D01*
X237407143Y-51103408D02*
X237492857Y-51060550D01*
X237492857Y-51060550D02*
X237621428Y-51060550D01*
X237621428Y-51060550D02*
X237707143Y-51103408D01*
X237707143Y-51103408D02*
X237750000Y-51146265D01*
X130063689Y-105031369D02*
X130016070Y-104983750D01*
X130016070Y-104983750D02*
X129920832Y-104936130D01*
X129920832Y-104936130D02*
X129682737Y-104936130D01*
X129682737Y-104936130D02*
X129587499Y-104983750D01*
X129587499Y-104983750D02*
X129539880Y-105031369D01*
X129539880Y-105031369D02*
X129492261Y-105126607D01*
X129492261Y-105126607D02*
X129492261Y-105221845D01*
X129492261Y-105221845D02*
X129539880Y-105364702D01*
X129539880Y-105364702D02*
X130111308Y-105936130D01*
X130111308Y-105936130D02*
X129492261Y-105936130D01*
X129063689Y-105840892D02*
X129016070Y-105888511D01*
X129016070Y-105888511D02*
X129063689Y-105936130D01*
X129063689Y-105936130D02*
X129111308Y-105888511D01*
X129111308Y-105888511D02*
X129063689Y-105840892D01*
X129063689Y-105840892D02*
X129063689Y-105936130D01*
X128682737Y-104936130D02*
X128016071Y-104936130D01*
X128016071Y-104936130D02*
X128444642Y-105936130D01*
X127158928Y-104936130D02*
X127635118Y-104936130D01*
X127635118Y-104936130D02*
X127682737Y-105412321D01*
X127682737Y-105412321D02*
X127635118Y-105364702D01*
X127635118Y-105364702D02*
X127539880Y-105317083D01*
X127539880Y-105317083D02*
X127301785Y-105317083D01*
X127301785Y-105317083D02*
X127206547Y-105364702D01*
X127206547Y-105364702D02*
X127158928Y-105412321D01*
X127158928Y-105412321D02*
X127111309Y-105507559D01*
X127111309Y-105507559D02*
X127111309Y-105745654D01*
X127111309Y-105745654D02*
X127158928Y-105840892D01*
X127158928Y-105840892D02*
X127206547Y-105888511D01*
X127206547Y-105888511D02*
X127301785Y-105936130D01*
X127301785Y-105936130D02*
X127539880Y-105936130D01*
X127539880Y-105936130D02*
X127635118Y-105888511D01*
X127635118Y-105888511D02*
X127682737Y-105840892D01*
X59245535Y-86886130D02*
X59816963Y-86886130D01*
X59531249Y-86886130D02*
X59531249Y-85886130D01*
X59531249Y-85886130D02*
X59626487Y-86028988D01*
X59626487Y-86028988D02*
X59721725Y-86124226D01*
X59721725Y-86124226D02*
X59816963Y-86171845D01*
X79914583Y-106317083D02*
X79962202Y-106269464D01*
X79962202Y-106269464D02*
X80057440Y-106126607D01*
X80057440Y-106126607D02*
X80105059Y-106031369D01*
X80105059Y-106031369D02*
X80152678Y-105888511D01*
X80152678Y-105888511D02*
X80200297Y-105650416D01*
X80200297Y-105650416D02*
X80200297Y-105459940D01*
X80200297Y-105459940D02*
X80152678Y-105221845D01*
X80152678Y-105221845D02*
X80105059Y-105078988D01*
X80105059Y-105078988D02*
X80057440Y-104983750D01*
X80057440Y-104983750D02*
X79962202Y-104840892D01*
X79962202Y-104840892D02*
X79914583Y-104793273D01*
X79009821Y-105936130D02*
X79581249Y-105936130D01*
X79295535Y-105936130D02*
X79295535Y-104936130D01*
X79295535Y-104936130D02*
X79390773Y-105078988D01*
X79390773Y-105078988D02*
X79486011Y-105174226D01*
X79486011Y-105174226D02*
X79581249Y-105221845D01*
X78581249Y-105840892D02*
X78533630Y-105888511D01*
X78533630Y-105888511D02*
X78581249Y-105936130D01*
X78581249Y-105936130D02*
X78628868Y-105888511D01*
X78628868Y-105888511D02*
X78581249Y-105840892D01*
X78581249Y-105840892D02*
X78581249Y-105936130D01*
X77628869Y-104936130D02*
X78105059Y-104936130D01*
X78105059Y-104936130D02*
X78152678Y-105412321D01*
X78152678Y-105412321D02*
X78105059Y-105364702D01*
X78105059Y-105364702D02*
X78009821Y-105317083D01*
X78009821Y-105317083D02*
X77771726Y-105317083D01*
X77771726Y-105317083D02*
X77676488Y-105364702D01*
X77676488Y-105364702D02*
X77628869Y-105412321D01*
X77628869Y-105412321D02*
X77581250Y-105507559D01*
X77581250Y-105507559D02*
X77581250Y-105745654D01*
X77581250Y-105745654D02*
X77628869Y-105840892D01*
X77628869Y-105840892D02*
X77676488Y-105888511D01*
X77676488Y-105888511D02*
X77771726Y-105936130D01*
X77771726Y-105936130D02*
X78009821Y-105936130D01*
X78009821Y-105936130D02*
X78105059Y-105888511D01*
X78105059Y-105888511D02*
X78152678Y-105840892D01*
X77247916Y-106317083D02*
X77200297Y-106269464D01*
X77200297Y-106269464D02*
X77105059Y-106126607D01*
X77105059Y-106126607D02*
X77057440Y-106031369D01*
X77057440Y-106031369D02*
X77009821Y-105888511D01*
X77009821Y-105888511D02*
X76962202Y-105650416D01*
X76962202Y-105650416D02*
X76962202Y-105459940D01*
X76962202Y-105459940D02*
X77009821Y-105221845D01*
X77009821Y-105221845D02*
X77057440Y-105078988D01*
X77057440Y-105078988D02*
X77105059Y-104983750D01*
X77105059Y-104983750D02*
X77200297Y-104840892D01*
X77200297Y-104840892D02*
X77247916Y-104793273D01*
X264033035Y-105936130D02*
X264604463Y-105936130D01*
X264318749Y-105936130D02*
X264318749Y-104936130D01*
X264318749Y-104936130D02*
X264413987Y-105078988D01*
X264413987Y-105078988D02*
X264509225Y-105174226D01*
X264509225Y-105174226D02*
X264604463Y-105221845D01*
X49101189Y-85981369D02*
X49053570Y-85933750D01*
X49053570Y-85933750D02*
X48958332Y-85886130D01*
X48958332Y-85886130D02*
X48720237Y-85886130D01*
X48720237Y-85886130D02*
X48624999Y-85933750D01*
X48624999Y-85933750D02*
X48577380Y-85981369D01*
X48577380Y-85981369D02*
X48529761Y-86076607D01*
X48529761Y-86076607D02*
X48529761Y-86171845D01*
X48529761Y-86171845D02*
X48577380Y-86314702D01*
X48577380Y-86314702D02*
X49148808Y-86886130D01*
X49148808Y-86886130D02*
X48529761Y-86886130D01*
X48101189Y-86790892D02*
X48053570Y-86838511D01*
X48053570Y-86838511D02*
X48101189Y-86886130D01*
X48101189Y-86886130D02*
X48148808Y-86838511D01*
X48148808Y-86838511D02*
X48101189Y-86790892D01*
X48101189Y-86790892D02*
X48101189Y-86886130D01*
X47672618Y-85981369D02*
X47624999Y-85933750D01*
X47624999Y-85933750D02*
X47529761Y-85886130D01*
X47529761Y-85886130D02*
X47291666Y-85886130D01*
X47291666Y-85886130D02*
X47196428Y-85933750D01*
X47196428Y-85933750D02*
X47148809Y-85981369D01*
X47148809Y-85981369D02*
X47101190Y-86076607D01*
X47101190Y-86076607D02*
X47101190Y-86171845D01*
X47101190Y-86171845D02*
X47148809Y-86314702D01*
X47148809Y-86314702D02*
X47720237Y-86886130D01*
X47720237Y-86886130D02*
X47101190Y-86886130D01*
X46196428Y-85886130D02*
X46672618Y-85886130D01*
X46672618Y-85886130D02*
X46720237Y-86362321D01*
X46720237Y-86362321D02*
X46672618Y-86314702D01*
X46672618Y-86314702D02*
X46577380Y-86267083D01*
X46577380Y-86267083D02*
X46339285Y-86267083D01*
X46339285Y-86267083D02*
X46244047Y-86314702D01*
X46244047Y-86314702D02*
X46196428Y-86362321D01*
X46196428Y-86362321D02*
X46148809Y-86457559D01*
X46148809Y-86457559D02*
X46148809Y-86695654D01*
X46148809Y-86695654D02*
X46196428Y-86790892D01*
X46196428Y-86790892D02*
X46244047Y-86838511D01*
X46244047Y-86838511D02*
X46339285Y-86886130D01*
X46339285Y-86886130D02*
X46577380Y-86886130D01*
X46577380Y-86886130D02*
X46672618Y-86838511D01*
X46672618Y-86838511D02*
X46720237Y-86790892D01*
X35433035Y-105936130D02*
X36004463Y-105936130D01*
X35718749Y-105936130D02*
X35718749Y-104936130D01*
X35718749Y-104936130D02*
X35813987Y-105078988D01*
X35813987Y-105078988D02*
X35909225Y-105174226D01*
X35909225Y-105174226D02*
X36004463Y-105221845D01*
X125301189Y-105031369D02*
X125253570Y-104983750D01*
X125253570Y-104983750D02*
X125158332Y-104936130D01*
X125158332Y-104936130D02*
X124920237Y-104936130D01*
X124920237Y-104936130D02*
X124824999Y-104983750D01*
X124824999Y-104983750D02*
X124777380Y-105031369D01*
X124777380Y-105031369D02*
X124729761Y-105126607D01*
X124729761Y-105126607D02*
X124729761Y-105221845D01*
X124729761Y-105221845D02*
X124777380Y-105364702D01*
X124777380Y-105364702D02*
X125348808Y-105936130D01*
X125348808Y-105936130D02*
X124729761Y-105936130D01*
X124301189Y-105840892D02*
X124253570Y-105888511D01*
X124253570Y-105888511D02*
X124301189Y-105936130D01*
X124301189Y-105936130D02*
X124348808Y-105888511D01*
X124348808Y-105888511D02*
X124301189Y-105840892D01*
X124301189Y-105840892D02*
X124301189Y-105936130D01*
X123872618Y-105031369D02*
X123824999Y-104983750D01*
X123824999Y-104983750D02*
X123729761Y-104936130D01*
X123729761Y-104936130D02*
X123491666Y-104936130D01*
X123491666Y-104936130D02*
X123396428Y-104983750D01*
X123396428Y-104983750D02*
X123348809Y-105031369D01*
X123348809Y-105031369D02*
X123301190Y-105126607D01*
X123301190Y-105126607D02*
X123301190Y-105221845D01*
X123301190Y-105221845D02*
X123348809Y-105364702D01*
X123348809Y-105364702D02*
X123920237Y-105936130D01*
X123920237Y-105936130D02*
X123301190Y-105936130D01*
X122396428Y-104936130D02*
X122872618Y-104936130D01*
X122872618Y-104936130D02*
X122920237Y-105412321D01*
X122920237Y-105412321D02*
X122872618Y-105364702D01*
X122872618Y-105364702D02*
X122777380Y-105317083D01*
X122777380Y-105317083D02*
X122539285Y-105317083D01*
X122539285Y-105317083D02*
X122444047Y-105364702D01*
X122444047Y-105364702D02*
X122396428Y-105412321D01*
X122396428Y-105412321D02*
X122348809Y-105507559D01*
X122348809Y-105507559D02*
X122348809Y-105745654D01*
X122348809Y-105745654D02*
X122396428Y-105840892D01*
X122396428Y-105840892D02*
X122444047Y-105888511D01*
X122444047Y-105888511D02*
X122539285Y-105936130D01*
X122539285Y-105936130D02*
X122777380Y-105936130D01*
X122777380Y-105936130D02*
X122872618Y-105888511D01*
X122872618Y-105888511D02*
X122920237Y-105840892D01*
X262937499Y-58311130D02*
X262937499Y-57311130D01*
X262508928Y-58263511D02*
X262366071Y-58311130D01*
X262366071Y-58311130D02*
X262127976Y-58311130D01*
X262127976Y-58311130D02*
X262032738Y-58263511D01*
X262032738Y-58263511D02*
X261985119Y-58215892D01*
X261985119Y-58215892D02*
X261937500Y-58120654D01*
X261937500Y-58120654D02*
X261937500Y-58025416D01*
X261937500Y-58025416D02*
X261985119Y-57930178D01*
X261985119Y-57930178D02*
X262032738Y-57882559D01*
X262032738Y-57882559D02*
X262127976Y-57834940D01*
X262127976Y-57834940D02*
X262318452Y-57787321D01*
X262318452Y-57787321D02*
X262413690Y-57739702D01*
X262413690Y-57739702D02*
X262461309Y-57692083D01*
X262461309Y-57692083D02*
X262508928Y-57596845D01*
X262508928Y-57596845D02*
X262508928Y-57501607D01*
X262508928Y-57501607D02*
X262461309Y-57406369D01*
X262461309Y-57406369D02*
X262413690Y-57358750D01*
X262413690Y-57358750D02*
X262318452Y-57311130D01*
X262318452Y-57311130D02*
X262080357Y-57311130D01*
X262080357Y-57311130D02*
X261937500Y-57358750D01*
X261318452Y-57311130D02*
X261127976Y-57311130D01*
X261127976Y-57311130D02*
X261032738Y-57358750D01*
X261032738Y-57358750D02*
X260937500Y-57453988D01*
X260937500Y-57453988D02*
X260889881Y-57644464D01*
X260889881Y-57644464D02*
X260889881Y-57977797D01*
X260889881Y-57977797D02*
X260937500Y-58168273D01*
X260937500Y-58168273D02*
X261032738Y-58263511D01*
X261032738Y-58263511D02*
X261127976Y-58311130D01*
X261127976Y-58311130D02*
X261318452Y-58311130D01*
X261318452Y-58311130D02*
X261413690Y-58263511D01*
X261413690Y-58263511D02*
X261508928Y-58168273D01*
X261508928Y-58168273D02*
X261556547Y-57977797D01*
X261556547Y-57977797D02*
X261556547Y-57644464D01*
X261556547Y-57644464D02*
X261508928Y-57453988D01*
X261508928Y-57453988D02*
X261413690Y-57358750D01*
X261413690Y-57358750D02*
X261318452Y-57311130D01*
X39004761Y-86886130D02*
X39576189Y-86886130D01*
X39290475Y-86886130D02*
X39290475Y-85886130D01*
X39290475Y-85886130D02*
X39385713Y-86028988D01*
X39385713Y-86028988D02*
X39480951Y-86124226D01*
X39480951Y-86124226D02*
X39576189Y-86171845D01*
X38576189Y-86790892D02*
X38528570Y-86838511D01*
X38528570Y-86838511D02*
X38576189Y-86886130D01*
X38576189Y-86886130D02*
X38623808Y-86838511D01*
X38623808Y-86838511D02*
X38576189Y-86790892D01*
X38576189Y-86790892D02*
X38576189Y-86886130D01*
X38147618Y-85981369D02*
X38099999Y-85933750D01*
X38099999Y-85933750D02*
X38004761Y-85886130D01*
X38004761Y-85886130D02*
X37766666Y-85886130D01*
X37766666Y-85886130D02*
X37671428Y-85933750D01*
X37671428Y-85933750D02*
X37623809Y-85981369D01*
X37623809Y-85981369D02*
X37576190Y-86076607D01*
X37576190Y-86076607D02*
X37576190Y-86171845D01*
X37576190Y-86171845D02*
X37623809Y-86314702D01*
X37623809Y-86314702D02*
X38195237Y-86886130D01*
X38195237Y-86886130D02*
X37576190Y-86886130D01*
X36671428Y-85886130D02*
X37147618Y-85886130D01*
X37147618Y-85886130D02*
X37195237Y-86362321D01*
X37195237Y-86362321D02*
X37147618Y-86314702D01*
X37147618Y-86314702D02*
X37052380Y-86267083D01*
X37052380Y-86267083D02*
X36814285Y-86267083D01*
X36814285Y-86267083D02*
X36719047Y-86314702D01*
X36719047Y-86314702D02*
X36671428Y-86362321D01*
X36671428Y-86362321D02*
X36623809Y-86457559D01*
X36623809Y-86457559D02*
X36623809Y-86695654D01*
X36623809Y-86695654D02*
X36671428Y-86790892D01*
X36671428Y-86790892D02*
X36719047Y-86838511D01*
X36719047Y-86838511D02*
X36814285Y-86886130D01*
X36814285Y-86886130D02*
X37052380Y-86886130D01*
X37052380Y-86886130D02*
X37147618Y-86838511D01*
X37147618Y-86838511D02*
X37195237Y-86790892D01*
X222789583Y-106317083D02*
X222837202Y-106269464D01*
X222837202Y-106269464D02*
X222932440Y-106126607D01*
X222932440Y-106126607D02*
X222980059Y-106031369D01*
X222980059Y-106031369D02*
X223027678Y-105888511D01*
X223027678Y-105888511D02*
X223075297Y-105650416D01*
X223075297Y-105650416D02*
X223075297Y-105459940D01*
X223075297Y-105459940D02*
X223027678Y-105221845D01*
X223027678Y-105221845D02*
X222980059Y-105078988D01*
X222980059Y-105078988D02*
X222932440Y-104983750D01*
X222932440Y-104983750D02*
X222837202Y-104840892D01*
X222837202Y-104840892D02*
X222789583Y-104793273D01*
X221884821Y-105936130D02*
X222456249Y-105936130D01*
X222170535Y-105936130D02*
X222170535Y-104936130D01*
X222170535Y-104936130D02*
X222265773Y-105078988D01*
X222265773Y-105078988D02*
X222361011Y-105174226D01*
X222361011Y-105174226D02*
X222456249Y-105221845D01*
X221456249Y-105840892D02*
X221408630Y-105888511D01*
X221408630Y-105888511D02*
X221456249Y-105936130D01*
X221456249Y-105936130D02*
X221503868Y-105888511D01*
X221503868Y-105888511D02*
X221456249Y-105840892D01*
X221456249Y-105840892D02*
X221456249Y-105936130D01*
X220503869Y-104936130D02*
X220980059Y-104936130D01*
X220980059Y-104936130D02*
X221027678Y-105412321D01*
X221027678Y-105412321D02*
X220980059Y-105364702D01*
X220980059Y-105364702D02*
X220884821Y-105317083D01*
X220884821Y-105317083D02*
X220646726Y-105317083D01*
X220646726Y-105317083D02*
X220551488Y-105364702D01*
X220551488Y-105364702D02*
X220503869Y-105412321D01*
X220503869Y-105412321D02*
X220456250Y-105507559D01*
X220456250Y-105507559D02*
X220456250Y-105745654D01*
X220456250Y-105745654D02*
X220503869Y-105840892D01*
X220503869Y-105840892D02*
X220551488Y-105888511D01*
X220551488Y-105888511D02*
X220646726Y-105936130D01*
X220646726Y-105936130D02*
X220884821Y-105936130D01*
X220884821Y-105936130D02*
X220980059Y-105888511D01*
X220980059Y-105888511D02*
X221027678Y-105840892D01*
X220122916Y-106317083D02*
X220075297Y-106269464D01*
X220075297Y-106269464D02*
X219980059Y-106126607D01*
X219980059Y-106126607D02*
X219932440Y-106031369D01*
X219932440Y-106031369D02*
X219884821Y-105888511D01*
X219884821Y-105888511D02*
X219837202Y-105650416D01*
X219837202Y-105650416D02*
X219837202Y-105459940D01*
X219837202Y-105459940D02*
X219884821Y-105221845D01*
X219884821Y-105221845D02*
X219932440Y-105078988D01*
X219932440Y-105078988D02*
X219980059Y-104983750D01*
X219980059Y-104983750D02*
X220075297Y-104840892D01*
X220075297Y-104840892D02*
X220122916Y-104793273D01*
X172926189Y-105031369D02*
X172878570Y-104983750D01*
X172878570Y-104983750D02*
X172783332Y-104936130D01*
X172783332Y-104936130D02*
X172545237Y-104936130D01*
X172545237Y-104936130D02*
X172449999Y-104983750D01*
X172449999Y-104983750D02*
X172402380Y-105031369D01*
X172402380Y-105031369D02*
X172354761Y-105126607D01*
X172354761Y-105126607D02*
X172354761Y-105221845D01*
X172354761Y-105221845D02*
X172402380Y-105364702D01*
X172402380Y-105364702D02*
X172973808Y-105936130D01*
X172973808Y-105936130D02*
X172354761Y-105936130D01*
X171926189Y-105840892D02*
X171878570Y-105888511D01*
X171878570Y-105888511D02*
X171926189Y-105936130D01*
X171926189Y-105936130D02*
X171973808Y-105888511D01*
X171973808Y-105888511D02*
X171926189Y-105840892D01*
X171926189Y-105840892D02*
X171926189Y-105936130D01*
X171545237Y-104936130D02*
X170878571Y-104936130D01*
X170878571Y-104936130D02*
X171307142Y-105936130D01*
X170021428Y-104936130D02*
X170497618Y-104936130D01*
X170497618Y-104936130D02*
X170545237Y-105412321D01*
X170545237Y-105412321D02*
X170497618Y-105364702D01*
X170497618Y-105364702D02*
X170402380Y-105317083D01*
X170402380Y-105317083D02*
X170164285Y-105317083D01*
X170164285Y-105317083D02*
X170069047Y-105364702D01*
X170069047Y-105364702D02*
X170021428Y-105412321D01*
X170021428Y-105412321D02*
X169973809Y-105507559D01*
X169973809Y-105507559D02*
X169973809Y-105745654D01*
X169973809Y-105745654D02*
X170021428Y-105840892D01*
X170021428Y-105840892D02*
X170069047Y-105888511D01*
X170069047Y-105888511D02*
X170164285Y-105936130D01*
X170164285Y-105936130D02*
X170402380Y-105936130D01*
X170402380Y-105936130D02*
X170497618Y-105888511D01*
X170497618Y-105888511D02*
X170545237Y-105840892D01*
X252162858Y-52648050D02*
X252162858Y-53548050D01*
X252162858Y-52690908D02*
X252077144Y-52648050D01*
X252077144Y-52648050D02*
X251905715Y-52648050D01*
X251905715Y-52648050D02*
X251820001Y-52690908D01*
X251820001Y-52690908D02*
X251777144Y-52733765D01*
X251777144Y-52733765D02*
X251734286Y-52819479D01*
X251734286Y-52819479D02*
X251734286Y-53076622D01*
X251734286Y-53076622D02*
X251777144Y-53162336D01*
X251777144Y-53162336D02*
X251820001Y-53205193D01*
X251820001Y-53205193D02*
X251905715Y-53248050D01*
X251905715Y-53248050D02*
X252077144Y-53248050D01*
X252077144Y-53248050D02*
X252162858Y-53205193D01*
X250962858Y-53205193D02*
X251048572Y-53248050D01*
X251048572Y-53248050D02*
X251220000Y-53248050D01*
X251220000Y-53248050D02*
X251305715Y-53205193D01*
X251305715Y-53205193D02*
X251348572Y-53162336D01*
X251348572Y-53162336D02*
X251391429Y-53076622D01*
X251391429Y-53076622D02*
X251391429Y-52819479D01*
X251391429Y-52819479D02*
X251348572Y-52733765D01*
X251348572Y-52733765D02*
X251305715Y-52690908D01*
X251305715Y-52690908D02*
X251220000Y-52648050D01*
X251220000Y-52648050D02*
X251048572Y-52648050D01*
X251048572Y-52648050D02*
X250962858Y-52690908D01*
X250577143Y-53248050D02*
X250577143Y-52348050D01*
X250577143Y-52690908D02*
X250491429Y-52648050D01*
X250491429Y-52648050D02*
X250320000Y-52648050D01*
X250320000Y-52648050D02*
X250234286Y-52690908D01*
X250234286Y-52690908D02*
X250191429Y-52733765D01*
X250191429Y-52733765D02*
X250148571Y-52819479D01*
X250148571Y-52819479D02*
X250148571Y-53076622D01*
X250148571Y-53076622D02*
X250191429Y-53162336D01*
X250191429Y-53162336D02*
X250234286Y-53205193D01*
X250234286Y-53205193D02*
X250320000Y-53248050D01*
X250320000Y-53248050D02*
X250491429Y-53248050D01*
X250491429Y-53248050D02*
X250577143Y-53205193D01*
X249222857Y-53248050D02*
X249222857Y-52348050D01*
X249222857Y-52690908D02*
X249137143Y-52648050D01*
X249137143Y-52648050D02*
X248965714Y-52648050D01*
X248965714Y-52648050D02*
X248880000Y-52690908D01*
X248880000Y-52690908D02*
X248837143Y-52733765D01*
X248837143Y-52733765D02*
X248794285Y-52819479D01*
X248794285Y-52819479D02*
X248794285Y-53076622D01*
X248794285Y-53076622D02*
X248837143Y-53162336D01*
X248837143Y-53162336D02*
X248880000Y-53205193D01*
X248880000Y-53205193D02*
X248965714Y-53248050D01*
X248965714Y-53248050D02*
X249137143Y-53248050D01*
X249137143Y-53248050D02*
X249222857Y-53205193D01*
X248494285Y-52648050D02*
X248279999Y-53248050D01*
X248065714Y-52648050D02*
X248279999Y-53248050D01*
X248279999Y-53248050D02*
X248365714Y-53462336D01*
X248365714Y-53462336D02*
X248408571Y-53505193D01*
X248408571Y-53505193D02*
X248494285Y-53548050D01*
X246797143Y-53205193D02*
X246882857Y-53248050D01*
X246882857Y-53248050D02*
X247054285Y-53248050D01*
X247054285Y-53248050D02*
X247140000Y-53205193D01*
X247140000Y-53205193D02*
X247182857Y-53162336D01*
X247182857Y-53162336D02*
X247225714Y-53076622D01*
X247225714Y-53076622D02*
X247225714Y-52819479D01*
X247225714Y-52819479D02*
X247182857Y-52733765D01*
X247182857Y-52733765D02*
X247140000Y-52690908D01*
X247140000Y-52690908D02*
X247054285Y-52648050D01*
X247054285Y-52648050D02*
X246882857Y-52648050D01*
X246882857Y-52648050D02*
X246797143Y-52690908D01*
X246025714Y-53248050D02*
X246025714Y-52776622D01*
X246025714Y-52776622D02*
X246068571Y-52690908D01*
X246068571Y-52690908D02*
X246154285Y-52648050D01*
X246154285Y-52648050D02*
X246325714Y-52648050D01*
X246325714Y-52648050D02*
X246411428Y-52690908D01*
X246025714Y-53205193D02*
X246111428Y-53248050D01*
X246111428Y-53248050D02*
X246325714Y-53248050D01*
X246325714Y-53248050D02*
X246411428Y-53205193D01*
X246411428Y-53205193D02*
X246454285Y-53119479D01*
X246454285Y-53119479D02*
X246454285Y-53033765D01*
X246454285Y-53033765D02*
X246411428Y-52948050D01*
X246411428Y-52948050D02*
X246325714Y-52905193D01*
X246325714Y-52905193D02*
X246111428Y-52905193D01*
X246111428Y-52905193D02*
X246025714Y-52862336D01*
X245468570Y-53248050D02*
X245554285Y-53205193D01*
X245554285Y-53205193D02*
X245597142Y-53119479D01*
X245597142Y-53119479D02*
X245597142Y-52348050D01*
X245211427Y-52648050D02*
X244997141Y-53248050D01*
X244997141Y-53248050D02*
X244782856Y-52648050D01*
X244439999Y-53248050D02*
X244439999Y-52648050D01*
X244439999Y-52348050D02*
X244482856Y-52390908D01*
X244482856Y-52390908D02*
X244439999Y-52433765D01*
X244439999Y-52433765D02*
X244397142Y-52390908D01*
X244397142Y-52390908D02*
X244439999Y-52348050D01*
X244439999Y-52348050D02*
X244439999Y-52433765D01*
X244011428Y-52648050D02*
X244011428Y-53248050D01*
X244011428Y-52733765D02*
X243968571Y-52690908D01*
X243968571Y-52690908D02*
X243882856Y-52648050D01*
X243882856Y-52648050D02*
X243754285Y-52648050D01*
X243754285Y-52648050D02*
X243668571Y-52690908D01*
X243668571Y-52690908D02*
X243625714Y-52776622D01*
X243625714Y-52776622D02*
X243625714Y-53248050D01*
X243025713Y-52348050D02*
X242939999Y-52348050D01*
X242939999Y-52348050D02*
X242854285Y-52390908D01*
X242854285Y-52390908D02*
X242811428Y-52433765D01*
X242811428Y-52433765D02*
X242768570Y-52519479D01*
X242768570Y-52519479D02*
X242725713Y-52690908D01*
X242725713Y-52690908D02*
X242725713Y-52905193D01*
X242725713Y-52905193D02*
X242768570Y-53076622D01*
X242768570Y-53076622D02*
X242811428Y-53162336D01*
X242811428Y-53162336D02*
X242854285Y-53205193D01*
X242854285Y-53205193D02*
X242939999Y-53248050D01*
X242939999Y-53248050D02*
X243025713Y-53248050D01*
X243025713Y-53248050D02*
X243111428Y-53205193D01*
X243111428Y-53205193D02*
X243154285Y-53162336D01*
X243154285Y-53162336D02*
X243197142Y-53076622D01*
X243197142Y-53076622D02*
X243239999Y-52905193D01*
X243239999Y-52905193D02*
X243239999Y-52690908D01*
X243239999Y-52690908D02*
X243197142Y-52519479D01*
X243197142Y-52519479D02*
X243154285Y-52433765D01*
X243154285Y-52433765D02*
X243111428Y-52390908D01*
X243111428Y-52390908D02*
X243025713Y-52348050D01*
X241911427Y-52348050D02*
X242339999Y-52348050D01*
X242339999Y-52348050D02*
X242382856Y-52776622D01*
X242382856Y-52776622D02*
X242339999Y-52733765D01*
X242339999Y-52733765D02*
X242254285Y-52690908D01*
X242254285Y-52690908D02*
X242039999Y-52690908D01*
X242039999Y-52690908D02*
X241954285Y-52733765D01*
X241954285Y-52733765D02*
X241911427Y-52776622D01*
X241911427Y-52776622D02*
X241868570Y-52862336D01*
X241868570Y-52862336D02*
X241868570Y-53076622D01*
X241868570Y-53076622D02*
X241911427Y-53162336D01*
X241911427Y-53162336D02*
X241954285Y-53205193D01*
X241954285Y-53205193D02*
X242039999Y-53248050D01*
X242039999Y-53248050D02*
X242254285Y-53248050D01*
X242254285Y-53248050D02*
X242339999Y-53205193D01*
X242339999Y-53205193D02*
X242382856Y-53162336D01*
X241097142Y-52348050D02*
X241268570Y-52348050D01*
X241268570Y-52348050D02*
X241354284Y-52390908D01*
X241354284Y-52390908D02*
X241397142Y-52433765D01*
X241397142Y-52433765D02*
X241482856Y-52562336D01*
X241482856Y-52562336D02*
X241525713Y-52733765D01*
X241525713Y-52733765D02*
X241525713Y-53076622D01*
X241525713Y-53076622D02*
X241482856Y-53162336D01*
X241482856Y-53162336D02*
X241439999Y-53205193D01*
X241439999Y-53205193D02*
X241354284Y-53248050D01*
X241354284Y-53248050D02*
X241182856Y-53248050D01*
X241182856Y-53248050D02*
X241097142Y-53205193D01*
X241097142Y-53205193D02*
X241054284Y-53162336D01*
X241054284Y-53162336D02*
X241011427Y-53076622D01*
X241011427Y-53076622D02*
X241011427Y-52862336D01*
X241011427Y-52862336D02*
X241054284Y-52776622D01*
X241054284Y-52776622D02*
X241097142Y-52733765D01*
X241097142Y-52733765D02*
X241182856Y-52690908D01*
X241182856Y-52690908D02*
X241354284Y-52690908D01*
X241354284Y-52690908D02*
X241439999Y-52733765D01*
X241439999Y-52733765D02*
X241482856Y-52776622D01*
X241482856Y-52776622D02*
X241525713Y-52862336D01*
X240711427Y-52348050D02*
X240154284Y-52348050D01*
X240154284Y-52348050D02*
X240454284Y-52690908D01*
X240454284Y-52690908D02*
X240325713Y-52690908D01*
X240325713Y-52690908D02*
X240239999Y-52733765D01*
X240239999Y-52733765D02*
X240197141Y-52776622D01*
X240197141Y-52776622D02*
X240154284Y-52862336D01*
X240154284Y-52862336D02*
X240154284Y-53076622D01*
X240154284Y-53076622D02*
X240197141Y-53162336D01*
X240197141Y-53162336D02*
X240239999Y-53205193D01*
X240239999Y-53205193D02*
X240325713Y-53248050D01*
X240325713Y-53248050D02*
X240582856Y-53248050D01*
X240582856Y-53248050D02*
X240668570Y-53205193D01*
X240668570Y-53205193D02*
X240711427Y-53162336D01*
X230695535Y-86886130D02*
X231266963Y-86886130D01*
X230981249Y-86886130D02*
X230981249Y-85886130D01*
X230981249Y-85886130D02*
X231076487Y-86028988D01*
X231076487Y-86028988D02*
X231171725Y-86124226D01*
X231171725Y-86124226D02*
X231266963Y-86171845D01*
X264033035Y-86886130D02*
X264604463Y-86886130D01*
X264318749Y-86886130D02*
X264318749Y-85886130D01*
X264318749Y-85886130D02*
X264413987Y-86028988D01*
X264413987Y-86028988D02*
X264509225Y-86124226D01*
X264509225Y-86124226D02*
X264604463Y-86171845D01*
X258079761Y-86886130D02*
X258651189Y-86886130D01*
X258365475Y-86886130D02*
X258365475Y-85886130D01*
X258365475Y-85886130D02*
X258460713Y-86028988D01*
X258460713Y-86028988D02*
X258555951Y-86124226D01*
X258555951Y-86124226D02*
X258651189Y-86171845D01*
X257651189Y-86790892D02*
X257603570Y-86838511D01*
X257603570Y-86838511D02*
X257651189Y-86886130D01*
X257651189Y-86886130D02*
X257698808Y-86838511D01*
X257698808Y-86838511D02*
X257651189Y-86790892D01*
X257651189Y-86790892D02*
X257651189Y-86886130D01*
X257270237Y-85886130D02*
X256603571Y-85886130D01*
X256603571Y-85886130D02*
X257032142Y-86886130D01*
X255746428Y-85886130D02*
X256222618Y-85886130D01*
X256222618Y-85886130D02*
X256270237Y-86362321D01*
X256270237Y-86362321D02*
X256222618Y-86314702D01*
X256222618Y-86314702D02*
X256127380Y-86267083D01*
X256127380Y-86267083D02*
X255889285Y-86267083D01*
X255889285Y-86267083D02*
X255794047Y-86314702D01*
X255794047Y-86314702D02*
X255746428Y-86362321D01*
X255746428Y-86362321D02*
X255698809Y-86457559D01*
X255698809Y-86457559D02*
X255698809Y-86695654D01*
X255698809Y-86695654D02*
X255746428Y-86790892D01*
X255746428Y-86790892D02*
X255794047Y-86838511D01*
X255794047Y-86838511D02*
X255889285Y-86886130D01*
X255889285Y-86886130D02*
X256127380Y-86886130D01*
X256127380Y-86886130D02*
X256222618Y-86838511D01*
X256222618Y-86838511D02*
X256270237Y-86790892D01*
X239029761Y-86886130D02*
X239601189Y-86886130D01*
X239315475Y-86886130D02*
X239315475Y-85886130D01*
X239315475Y-85886130D02*
X239410713Y-86028988D01*
X239410713Y-86028988D02*
X239505951Y-86124226D01*
X239505951Y-86124226D02*
X239601189Y-86171845D01*
X238601189Y-86790892D02*
X238553570Y-86838511D01*
X238553570Y-86838511D02*
X238601189Y-86886130D01*
X238601189Y-86886130D02*
X238648808Y-86838511D01*
X238648808Y-86838511D02*
X238601189Y-86790892D01*
X238601189Y-86790892D02*
X238601189Y-86886130D01*
X238220237Y-85886130D02*
X237553571Y-85886130D01*
X237553571Y-85886130D02*
X237982142Y-86886130D01*
X236696428Y-85886130D02*
X237172618Y-85886130D01*
X237172618Y-85886130D02*
X237220237Y-86362321D01*
X237220237Y-86362321D02*
X237172618Y-86314702D01*
X237172618Y-86314702D02*
X237077380Y-86267083D01*
X237077380Y-86267083D02*
X236839285Y-86267083D01*
X236839285Y-86267083D02*
X236744047Y-86314702D01*
X236744047Y-86314702D02*
X236696428Y-86362321D01*
X236696428Y-86362321D02*
X236648809Y-86457559D01*
X236648809Y-86457559D02*
X236648809Y-86695654D01*
X236648809Y-86695654D02*
X236696428Y-86790892D01*
X236696428Y-86790892D02*
X236744047Y-86838511D01*
X236744047Y-86838511D02*
X236839285Y-86886130D01*
X236839285Y-86886130D02*
X237077380Y-86886130D01*
X237077380Y-86886130D02*
X237172618Y-86838511D01*
X237172618Y-86838511D02*
X237220237Y-86790892D01*
X206883035Y-105936130D02*
X207454463Y-105936130D01*
X207168749Y-105936130D02*
X207168749Y-104936130D01*
X207168749Y-104936130D02*
X207263987Y-105078988D01*
X207263987Y-105078988D02*
X207359225Y-105174226D01*
X207359225Y-105174226D02*
X207454463Y-105221845D01*
X43767261Y-67836130D02*
X44338689Y-67836130D01*
X44052975Y-67836130D02*
X44052975Y-66836130D01*
X44052975Y-66836130D02*
X44148213Y-66978988D01*
X44148213Y-66978988D02*
X44243451Y-67074226D01*
X44243451Y-67074226D02*
X44338689Y-67121845D01*
X43338689Y-67740892D02*
X43291070Y-67788511D01*
X43291070Y-67788511D02*
X43338689Y-67836130D01*
X43338689Y-67836130D02*
X43386308Y-67788511D01*
X43386308Y-67788511D02*
X43338689Y-67740892D01*
X43338689Y-67740892D02*
X43338689Y-67836130D01*
X42957737Y-66836130D02*
X42291071Y-66836130D01*
X42291071Y-66836130D02*
X42719642Y-67836130D01*
X41433928Y-66836130D02*
X41910118Y-66836130D01*
X41910118Y-66836130D02*
X41957737Y-67312321D01*
X41957737Y-67312321D02*
X41910118Y-67264702D01*
X41910118Y-67264702D02*
X41814880Y-67217083D01*
X41814880Y-67217083D02*
X41576785Y-67217083D01*
X41576785Y-67217083D02*
X41481547Y-67264702D01*
X41481547Y-67264702D02*
X41433928Y-67312321D01*
X41433928Y-67312321D02*
X41386309Y-67407559D01*
X41386309Y-67407559D02*
X41386309Y-67645654D01*
X41386309Y-67645654D02*
X41433928Y-67740892D01*
X41433928Y-67740892D02*
X41481547Y-67788511D01*
X41481547Y-67788511D02*
X41576785Y-67836130D01*
X41576785Y-67836130D02*
X41814880Y-67836130D01*
X41814880Y-67836130D02*
X41910118Y-67788511D01*
X41910118Y-67788511D02*
X41957737Y-67740892D01*
X225933035Y-105936130D02*
X226504463Y-105936130D01*
X226218749Y-105936130D02*
X226218749Y-104936130D01*
X226218749Y-104936130D02*
X226313987Y-105078988D01*
X226313987Y-105078988D02*
X226409225Y-105174226D01*
X226409225Y-105174226D02*
X226504463Y-105221845D01*
X262842261Y-67836130D02*
X263413689Y-67836130D01*
X263127975Y-67836130D02*
X263127975Y-66836130D01*
X263127975Y-66836130D02*
X263223213Y-66978988D01*
X263223213Y-66978988D02*
X263318451Y-67074226D01*
X263318451Y-67074226D02*
X263413689Y-67121845D01*
X262413689Y-67740892D02*
X262366070Y-67788511D01*
X262366070Y-67788511D02*
X262413689Y-67836130D01*
X262413689Y-67836130D02*
X262461308Y-67788511D01*
X262461308Y-67788511D02*
X262413689Y-67740892D01*
X262413689Y-67740892D02*
X262413689Y-67836130D01*
X261985118Y-66931369D02*
X261937499Y-66883750D01*
X261937499Y-66883750D02*
X261842261Y-66836130D01*
X261842261Y-66836130D02*
X261604166Y-66836130D01*
X261604166Y-66836130D02*
X261508928Y-66883750D01*
X261508928Y-66883750D02*
X261461309Y-66931369D01*
X261461309Y-66931369D02*
X261413690Y-67026607D01*
X261413690Y-67026607D02*
X261413690Y-67121845D01*
X261413690Y-67121845D02*
X261461309Y-67264702D01*
X261461309Y-67264702D02*
X262032737Y-67836130D01*
X262032737Y-67836130D02*
X261413690Y-67836130D01*
X260508928Y-66836130D02*
X260985118Y-66836130D01*
X260985118Y-66836130D02*
X261032737Y-67312321D01*
X261032737Y-67312321D02*
X260985118Y-67264702D01*
X260985118Y-67264702D02*
X260889880Y-67217083D01*
X260889880Y-67217083D02*
X260651785Y-67217083D01*
X260651785Y-67217083D02*
X260556547Y-67264702D01*
X260556547Y-67264702D02*
X260508928Y-67312321D01*
X260508928Y-67312321D02*
X260461309Y-67407559D01*
X260461309Y-67407559D02*
X260461309Y-67645654D01*
X260461309Y-67645654D02*
X260508928Y-67740892D01*
X260508928Y-67740892D02*
X260556547Y-67788511D01*
X260556547Y-67788511D02*
X260651785Y-67836130D01*
X260651785Y-67836130D02*
X260889880Y-67836130D01*
X260889880Y-67836130D02*
X260985118Y-67788511D01*
X260985118Y-67788511D02*
X261032737Y-67740892D01*
X40909821Y-48786130D02*
X41481249Y-48786130D01*
X41195535Y-48786130D02*
X41195535Y-47786130D01*
X41195535Y-47786130D02*
X41290773Y-47928988D01*
X41290773Y-47928988D02*
X41386011Y-48024226D01*
X41386011Y-48024226D02*
X41481249Y-48071845D01*
X40481249Y-48690892D02*
X40433630Y-48738511D01*
X40433630Y-48738511D02*
X40481249Y-48786130D01*
X40481249Y-48786130D02*
X40528868Y-48738511D01*
X40528868Y-48738511D02*
X40481249Y-48690892D01*
X40481249Y-48690892D02*
X40481249Y-48786130D01*
X39528869Y-47786130D02*
X40005059Y-47786130D01*
X40005059Y-47786130D02*
X40052678Y-48262321D01*
X40052678Y-48262321D02*
X40005059Y-48214702D01*
X40005059Y-48214702D02*
X39909821Y-48167083D01*
X39909821Y-48167083D02*
X39671726Y-48167083D01*
X39671726Y-48167083D02*
X39576488Y-48214702D01*
X39576488Y-48214702D02*
X39528869Y-48262321D01*
X39528869Y-48262321D02*
X39481250Y-48357559D01*
X39481250Y-48357559D02*
X39481250Y-48595654D01*
X39481250Y-48595654D02*
X39528869Y-48690892D01*
X39528869Y-48690892D02*
X39576488Y-48738511D01*
X39576488Y-48738511D02*
X39671726Y-48786130D01*
X39671726Y-48786130D02*
X39909821Y-48786130D01*
X39909821Y-48786130D02*
X40005059Y-48738511D01*
X40005059Y-48738511D02*
X40052678Y-48690892D01*
X79986011Y-56723630D02*
X79986011Y-55723630D01*
X79986011Y-56104583D02*
X79890773Y-56056964D01*
X79890773Y-56056964D02*
X79700297Y-56056964D01*
X79700297Y-56056964D02*
X79605059Y-56104583D01*
X79605059Y-56104583D02*
X79557440Y-56152202D01*
X79557440Y-56152202D02*
X79509821Y-56247440D01*
X79509821Y-56247440D02*
X79509821Y-56533154D01*
X79509821Y-56533154D02*
X79557440Y-56628392D01*
X79557440Y-56628392D02*
X79605059Y-56676011D01*
X79605059Y-56676011D02*
X79700297Y-56723630D01*
X79700297Y-56723630D02*
X79890773Y-56723630D01*
X79890773Y-56723630D02*
X79986011Y-56676011D01*
X78938392Y-56723630D02*
X79033630Y-56676011D01*
X79033630Y-56676011D02*
X79081249Y-56628392D01*
X79081249Y-56628392D02*
X79128868Y-56533154D01*
X79128868Y-56533154D02*
X79128868Y-56247440D01*
X79128868Y-56247440D02*
X79081249Y-56152202D01*
X79081249Y-56152202D02*
X79033630Y-56104583D01*
X79033630Y-56104583D02*
X78938392Y-56056964D01*
X78938392Y-56056964D02*
X78795535Y-56056964D01*
X78795535Y-56056964D02*
X78700297Y-56104583D01*
X78700297Y-56104583D02*
X78652678Y-56152202D01*
X78652678Y-56152202D02*
X78605059Y-56247440D01*
X78605059Y-56247440D02*
X78605059Y-56533154D01*
X78605059Y-56533154D02*
X78652678Y-56628392D01*
X78652678Y-56628392D02*
X78700297Y-56676011D01*
X78700297Y-56676011D02*
X78795535Y-56723630D01*
X78795535Y-56723630D02*
X78938392Y-56723630D01*
X78033630Y-56723630D02*
X78128868Y-56676011D01*
X78128868Y-56676011D02*
X78176487Y-56628392D01*
X78176487Y-56628392D02*
X78224106Y-56533154D01*
X78224106Y-56533154D02*
X78224106Y-56247440D01*
X78224106Y-56247440D02*
X78176487Y-56152202D01*
X78176487Y-56152202D02*
X78128868Y-56104583D01*
X78128868Y-56104583D02*
X78033630Y-56056964D01*
X78033630Y-56056964D02*
X77890773Y-56056964D01*
X77890773Y-56056964D02*
X77795535Y-56104583D01*
X77795535Y-56104583D02*
X77747916Y-56152202D01*
X77747916Y-56152202D02*
X77700297Y-56247440D01*
X77700297Y-56247440D02*
X77700297Y-56533154D01*
X77700297Y-56533154D02*
X77747916Y-56628392D01*
X77747916Y-56628392D02*
X77795535Y-56676011D01*
X77795535Y-56676011D02*
X77890773Y-56723630D01*
X77890773Y-56723630D02*
X78033630Y-56723630D01*
X77414582Y-56056964D02*
X77033630Y-56056964D01*
X77271725Y-55723630D02*
X77271725Y-56580773D01*
X77271725Y-56580773D02*
X77224106Y-56676011D01*
X77224106Y-56676011D02*
X77128868Y-56723630D01*
X77128868Y-56723630D02*
X77033630Y-56723630D01*
X40814285Y-67788511D02*
X40719047Y-67836130D01*
X40719047Y-67836130D02*
X40528571Y-67836130D01*
X40528571Y-67836130D02*
X40433333Y-67788511D01*
X40433333Y-67788511D02*
X40385714Y-67693273D01*
X40385714Y-67693273D02*
X40385714Y-67645654D01*
X40385714Y-67645654D02*
X40433333Y-67550416D01*
X40433333Y-67550416D02*
X40528571Y-67502797D01*
X40528571Y-67502797D02*
X40671428Y-67502797D01*
X40671428Y-67502797D02*
X40766666Y-67455178D01*
X40766666Y-67455178D02*
X40814285Y-67359940D01*
X40814285Y-67359940D02*
X40814285Y-67312321D01*
X40814285Y-67312321D02*
X40766666Y-67217083D01*
X40766666Y-67217083D02*
X40671428Y-67169464D01*
X40671428Y-67169464D02*
X40528571Y-67169464D01*
X40528571Y-67169464D02*
X40433333Y-67217083D01*
X40099999Y-67169464D02*
X39719047Y-67169464D01*
X39957142Y-66836130D02*
X39957142Y-67693273D01*
X39957142Y-67693273D02*
X39909523Y-67788511D01*
X39909523Y-67788511D02*
X39814285Y-67836130D01*
X39814285Y-67836130D02*
X39719047Y-67836130D01*
X39004761Y-67788511D02*
X39099999Y-67836130D01*
X39099999Y-67836130D02*
X39290475Y-67836130D01*
X39290475Y-67836130D02*
X39385713Y-67788511D01*
X39385713Y-67788511D02*
X39433332Y-67693273D01*
X39433332Y-67693273D02*
X39433332Y-67312321D01*
X39433332Y-67312321D02*
X39385713Y-67217083D01*
X39385713Y-67217083D02*
X39290475Y-67169464D01*
X39290475Y-67169464D02*
X39099999Y-67169464D01*
X39099999Y-67169464D02*
X39004761Y-67217083D01*
X39004761Y-67217083D02*
X38957142Y-67312321D01*
X38957142Y-67312321D02*
X38957142Y-67407559D01*
X38957142Y-67407559D02*
X39433332Y-67502797D01*
X38528570Y-67169464D02*
X38528570Y-68169464D01*
X38528570Y-67217083D02*
X38433332Y-67169464D01*
X38433332Y-67169464D02*
X38242856Y-67169464D01*
X38242856Y-67169464D02*
X38147618Y-67217083D01*
X38147618Y-67217083D02*
X38099999Y-67264702D01*
X38099999Y-67264702D02*
X38052380Y-67359940D01*
X38052380Y-67359940D02*
X38052380Y-67645654D01*
X38052380Y-67645654D02*
X38099999Y-67740892D01*
X38099999Y-67740892D02*
X38147618Y-67788511D01*
X38147618Y-67788511D02*
X38242856Y-67836130D01*
X38242856Y-67836130D02*
X38433332Y-67836130D01*
X38433332Y-67836130D02*
X38528570Y-67788511D01*
X37623808Y-67169464D02*
X37623808Y-68169464D01*
X37623808Y-67217083D02*
X37528570Y-67169464D01*
X37528570Y-67169464D02*
X37338094Y-67169464D01*
X37338094Y-67169464D02*
X37242856Y-67217083D01*
X37242856Y-67217083D02*
X37195237Y-67264702D01*
X37195237Y-67264702D02*
X37147618Y-67359940D01*
X37147618Y-67359940D02*
X37147618Y-67645654D01*
X37147618Y-67645654D02*
X37195237Y-67740892D01*
X37195237Y-67740892D02*
X37242856Y-67788511D01*
X37242856Y-67788511D02*
X37338094Y-67836130D01*
X37338094Y-67836130D02*
X37528570Y-67836130D01*
X37528570Y-67836130D02*
X37623808Y-67788511D01*
X36338094Y-67788511D02*
X36433332Y-67836130D01*
X36433332Y-67836130D02*
X36623808Y-67836130D01*
X36623808Y-67836130D02*
X36719046Y-67788511D01*
X36719046Y-67788511D02*
X36766665Y-67693273D01*
X36766665Y-67693273D02*
X36766665Y-67312321D01*
X36766665Y-67312321D02*
X36719046Y-67217083D01*
X36719046Y-67217083D02*
X36623808Y-67169464D01*
X36623808Y-67169464D02*
X36433332Y-67169464D01*
X36433332Y-67169464D02*
X36338094Y-67217083D01*
X36338094Y-67217083D02*
X36290475Y-67312321D01*
X36290475Y-67312321D02*
X36290475Y-67407559D01*
X36290475Y-67407559D02*
X36766665Y-67502797D01*
X35433332Y-67836130D02*
X35433332Y-66836130D01*
X35433332Y-67788511D02*
X35528570Y-67836130D01*
X35528570Y-67836130D02*
X35719046Y-67836130D01*
X35719046Y-67836130D02*
X35814284Y-67788511D01*
X35814284Y-67788511D02*
X35861903Y-67740892D01*
X35861903Y-67740892D02*
X35909522Y-67645654D01*
X35909522Y-67645654D02*
X35909522Y-67359940D01*
X35909522Y-67359940D02*
X35861903Y-67264702D01*
X35861903Y-67264702D02*
X35814284Y-67217083D01*
X35814284Y-67217083D02*
X35719046Y-67169464D01*
X35719046Y-67169464D02*
X35528570Y-67169464D01*
X35528570Y-67169464D02*
X35433332Y-67217083D01*
X259984821Y-48786130D02*
X260556249Y-48786130D01*
X260270535Y-48786130D02*
X260270535Y-47786130D01*
X260270535Y-47786130D02*
X260365773Y-47928988D01*
X260365773Y-47928988D02*
X260461011Y-48024226D01*
X260461011Y-48024226D02*
X260556249Y-48071845D01*
X259556249Y-48690892D02*
X259508630Y-48738511D01*
X259508630Y-48738511D02*
X259556249Y-48786130D01*
X259556249Y-48786130D02*
X259603868Y-48738511D01*
X259603868Y-48738511D02*
X259556249Y-48690892D01*
X259556249Y-48690892D02*
X259556249Y-48786130D01*
X258603869Y-47786130D02*
X259080059Y-47786130D01*
X259080059Y-47786130D02*
X259127678Y-48262321D01*
X259127678Y-48262321D02*
X259080059Y-48214702D01*
X259080059Y-48214702D02*
X258984821Y-48167083D01*
X258984821Y-48167083D02*
X258746726Y-48167083D01*
X258746726Y-48167083D02*
X258651488Y-48214702D01*
X258651488Y-48214702D02*
X258603869Y-48262321D01*
X258603869Y-48262321D02*
X258556250Y-48357559D01*
X258556250Y-48357559D02*
X258556250Y-48595654D01*
X258556250Y-48595654D02*
X258603869Y-48690892D01*
X258603869Y-48690892D02*
X258651488Y-48738511D01*
X258651488Y-48738511D02*
X258746726Y-48786130D01*
X258746726Y-48786130D02*
X258984821Y-48786130D01*
X258984821Y-48786130D02*
X259080059Y-48738511D01*
X259080059Y-48738511D02*
X259127678Y-48690892D01*
X253888689Y-66931369D02*
X253841070Y-66883750D01*
X253841070Y-66883750D02*
X253745832Y-66836130D01*
X253745832Y-66836130D02*
X253507737Y-66836130D01*
X253507737Y-66836130D02*
X253412499Y-66883750D01*
X253412499Y-66883750D02*
X253364880Y-66931369D01*
X253364880Y-66931369D02*
X253317261Y-67026607D01*
X253317261Y-67026607D02*
X253317261Y-67121845D01*
X253317261Y-67121845D02*
X253364880Y-67264702D01*
X253364880Y-67264702D02*
X253936308Y-67836130D01*
X253936308Y-67836130D02*
X253317261Y-67836130D01*
X252888689Y-67740892D02*
X252841070Y-67788511D01*
X252841070Y-67788511D02*
X252888689Y-67836130D01*
X252888689Y-67836130D02*
X252936308Y-67788511D01*
X252936308Y-67788511D02*
X252888689Y-67740892D01*
X252888689Y-67740892D02*
X252888689Y-67836130D01*
X252460118Y-66931369D02*
X252412499Y-66883750D01*
X252412499Y-66883750D02*
X252317261Y-66836130D01*
X252317261Y-66836130D02*
X252079166Y-66836130D01*
X252079166Y-66836130D02*
X251983928Y-66883750D01*
X251983928Y-66883750D02*
X251936309Y-66931369D01*
X251936309Y-66931369D02*
X251888690Y-67026607D01*
X251888690Y-67026607D02*
X251888690Y-67121845D01*
X251888690Y-67121845D02*
X251936309Y-67264702D01*
X251936309Y-67264702D02*
X252507737Y-67836130D01*
X252507737Y-67836130D02*
X251888690Y-67836130D01*
X250983928Y-66836130D02*
X251460118Y-66836130D01*
X251460118Y-66836130D02*
X251507737Y-67312321D01*
X251507737Y-67312321D02*
X251460118Y-67264702D01*
X251460118Y-67264702D02*
X251364880Y-67217083D01*
X251364880Y-67217083D02*
X251126785Y-67217083D01*
X251126785Y-67217083D02*
X251031547Y-67264702D01*
X251031547Y-67264702D02*
X250983928Y-67312321D01*
X250983928Y-67312321D02*
X250936309Y-67407559D01*
X250936309Y-67407559D02*
X250936309Y-67645654D01*
X250936309Y-67645654D02*
X250983928Y-67740892D01*
X250983928Y-67740892D02*
X251031547Y-67788511D01*
X251031547Y-67788511D02*
X251126785Y-67836130D01*
X251126785Y-67836130D02*
X251364880Y-67836130D01*
X251364880Y-67836130D02*
X251460118Y-67788511D01*
X251460118Y-67788511D02*
X251507737Y-67740892D01*
X244983035Y-105936130D02*
X245554463Y-105936130D01*
X245268749Y-105936130D02*
X245268749Y-104936130D01*
X245268749Y-104936130D02*
X245363987Y-105078988D01*
X245363987Y-105078988D02*
X245459225Y-105174226D01*
X245459225Y-105174226D02*
X245554463Y-105221845D01*
D11*
X239617142Y-49016644D02*
X239217142Y-49016644D01*
X239045714Y-49645216D02*
X239617142Y-49645216D01*
X239617142Y-49645216D02*
X239617142Y-48445216D01*
X239617142Y-48445216D02*
X239045714Y-48445216D01*
X237845714Y-49530930D02*
X237902857Y-49588073D01*
X237902857Y-49588073D02*
X238074285Y-49645216D01*
X238074285Y-49645216D02*
X238188571Y-49645216D01*
X238188571Y-49645216D02*
X238360000Y-49588073D01*
X238360000Y-49588073D02*
X238474285Y-49473787D01*
X238474285Y-49473787D02*
X238531428Y-49359501D01*
X238531428Y-49359501D02*
X238588571Y-49130930D01*
X238588571Y-49130930D02*
X238588571Y-48959501D01*
X238588571Y-48959501D02*
X238531428Y-48730930D01*
X238531428Y-48730930D02*
X238474285Y-48616644D01*
X238474285Y-48616644D02*
X238360000Y-48502359D01*
X238360000Y-48502359D02*
X238188571Y-48445216D01*
X238188571Y-48445216D02*
X238074285Y-48445216D01*
X238074285Y-48445216D02*
X237902857Y-48502359D01*
X237902857Y-48502359D02*
X237845714Y-48559501D01*
D10*
X73533035Y-105936130D02*
X74104463Y-105936130D01*
X73818749Y-105936130D02*
X73818749Y-104936130D01*
X73818749Y-104936130D02*
X73913987Y-105078988D01*
X73913987Y-105078988D02*
X74009225Y-105174226D01*
X74009225Y-105174226D02*
X74104463Y-105221845D01*
X177688689Y-105031369D02*
X177641070Y-104983750D01*
X177641070Y-104983750D02*
X177545832Y-104936130D01*
X177545832Y-104936130D02*
X177307737Y-104936130D01*
X177307737Y-104936130D02*
X177212499Y-104983750D01*
X177212499Y-104983750D02*
X177164880Y-105031369D01*
X177164880Y-105031369D02*
X177117261Y-105126607D01*
X177117261Y-105126607D02*
X177117261Y-105221845D01*
X177117261Y-105221845D02*
X177164880Y-105364702D01*
X177164880Y-105364702D02*
X177736308Y-105936130D01*
X177736308Y-105936130D02*
X177117261Y-105936130D01*
X176688689Y-105840892D02*
X176641070Y-105888511D01*
X176641070Y-105888511D02*
X176688689Y-105936130D01*
X176688689Y-105936130D02*
X176736308Y-105888511D01*
X176736308Y-105888511D02*
X176688689Y-105840892D01*
X176688689Y-105840892D02*
X176688689Y-105936130D01*
X176260118Y-105031369D02*
X176212499Y-104983750D01*
X176212499Y-104983750D02*
X176117261Y-104936130D01*
X176117261Y-104936130D02*
X175879166Y-104936130D01*
X175879166Y-104936130D02*
X175783928Y-104983750D01*
X175783928Y-104983750D02*
X175736309Y-105031369D01*
X175736309Y-105031369D02*
X175688690Y-105126607D01*
X175688690Y-105126607D02*
X175688690Y-105221845D01*
X175688690Y-105221845D02*
X175736309Y-105364702D01*
X175736309Y-105364702D02*
X176307737Y-105936130D01*
X176307737Y-105936130D02*
X175688690Y-105936130D01*
X174783928Y-104936130D02*
X175260118Y-104936130D01*
X175260118Y-104936130D02*
X175307737Y-105412321D01*
X175307737Y-105412321D02*
X175260118Y-105364702D01*
X175260118Y-105364702D02*
X175164880Y-105317083D01*
X175164880Y-105317083D02*
X174926785Y-105317083D01*
X174926785Y-105317083D02*
X174831547Y-105364702D01*
X174831547Y-105364702D02*
X174783928Y-105412321D01*
X174783928Y-105412321D02*
X174736309Y-105507559D01*
X174736309Y-105507559D02*
X174736309Y-105745654D01*
X174736309Y-105745654D02*
X174783928Y-105840892D01*
X174783928Y-105840892D02*
X174831547Y-105888511D01*
X174831547Y-105888511D02*
X174926785Y-105936130D01*
X174926785Y-105936130D02*
X175164880Y-105936130D01*
X175164880Y-105936130D02*
X175260118Y-105888511D01*
X175260118Y-105888511D02*
X175307737Y-105840892D01*
X54483035Y-105936130D02*
X55054463Y-105936130D01*
X54768749Y-105936130D02*
X54768749Y-104936130D01*
X54768749Y-104936130D02*
X54863987Y-105078988D01*
X54863987Y-105078988D02*
X54959225Y-105174226D01*
X54959225Y-105174226D02*
X55054463Y-105221845D01*
X92583035Y-105936130D02*
X93154463Y-105936130D01*
X92868749Y-105936130D02*
X92868749Y-104936130D01*
X92868749Y-104936130D02*
X92963987Y-105078988D01*
X92963987Y-105078988D02*
X93059225Y-105174226D01*
X93059225Y-105174226D02*
X93154463Y-105221845D01*
D12*
%TO.C,LED2*%
X28168750Y-68350000D02*
X27668750Y-68350000D01*
X27668750Y-68350000D02*
X27668750Y-68850000D01*
X27818750Y-69450000D02*
X27818750Y-70250000D01*
%TO.C,R24*%
X49592500Y-52667609D02*
X49592500Y-52974891D01*
X48832500Y-52667609D02*
X48832500Y-52974891D01*
%TO.C,LED23*%
X151518750Y-34275000D02*
X151518750Y-33775000D01*
X151518750Y-33775000D02*
X151018750Y-33775000D01*
X150418750Y-33925000D02*
X149618750Y-33925000D01*
%TO.C,U8*%
X52840000Y-50615000D02*
X52840000Y-51090000D01*
X53315000Y-50615000D02*
X52840000Y-50615000D01*
X53315000Y-57835000D02*
X52840000Y-57835000D01*
X59585000Y-50615000D02*
X60060000Y-50615000D01*
X59585000Y-57835000D02*
X60060000Y-57835000D01*
X60060000Y-50615000D02*
X60060000Y-51090000D01*
X60060000Y-57835000D02*
X60060000Y-57360000D01*
%TO.C,R17*%
X62292500Y-53618641D02*
X62292500Y-53311359D01*
X61532500Y-53618641D02*
X61532500Y-53311359D01*
%TO.C,R1*%
X239506492Y-32815000D02*
X239981008Y-32815000D01*
X239506492Y-33860000D02*
X239981008Y-33860000D01*
%TO.C,C22*%
X50907836Y-53641250D02*
X50692164Y-53641250D01*
X50907836Y-52921250D02*
X50692164Y-52921250D01*
%TO.C,R8*%
X100716691Y-92715109D02*
X100716691Y-93022391D01*
X99956691Y-92715109D02*
X99956691Y-93022391D01*
%TO.C,R11*%
X194305002Y-88038191D02*
X194612284Y-88038191D01*
X194305002Y-88798191D02*
X194612284Y-88798191D01*
%TO.C,C4*%
X55345048Y-64885520D02*
X55345048Y-64669848D01*
X56065048Y-64885520D02*
X56065048Y-64669848D01*
%TO.C,LED25*%
X94368750Y-33481250D02*
X94368750Y-32981250D01*
X94368750Y-32981250D02*
X93868750Y-32981250D01*
X93268750Y-33131250D02*
X92468750Y-33131250D01*
%TO.C,R18*%
X115473750Y-92715109D02*
X115473750Y-93022391D01*
X114713750Y-92715109D02*
X114713750Y-93022391D01*
%TO.C,R2*%
X228043508Y-33860000D02*
X227568992Y-33860000D01*
X228043508Y-32815000D02*
X227568992Y-32815000D01*
%TO.C,C17*%
X51001586Y-58553750D02*
X50785914Y-58553750D01*
X51001586Y-57833750D02*
X50785914Y-57833750D01*
%TO.C,LED30*%
X132468750Y-33481250D02*
X132468750Y-32981250D01*
X132468750Y-32981250D02*
X131968750Y-32981250D01*
X131368750Y-33131250D02*
X130568750Y-33131250D01*
%TO.C,LED21*%
X189618750Y-33481250D02*
X189618750Y-32981250D01*
X189618750Y-32981250D02*
X189118750Y-32981250D01*
X188518750Y-33131250D02*
X187718750Y-33131250D01*
%TO.C,G\u002A\u002A\u002A*%
G36*
X233823250Y-26959500D02*
G01*
X233709264Y-27073500D01*
X233554264Y-27073500D01*
X233399264Y-27073500D01*
X233513250Y-26959500D01*
X233627237Y-26845500D01*
X233782237Y-26845500D01*
X233937237Y-26845500D01*
X233823250Y-26959500D01*
G37*
G36*
X234215250Y-27073500D02*
G01*
X233987257Y-27301500D01*
X233833754Y-27301500D01*
X233829311Y-27301499D01*
X233805115Y-27301473D01*
X233782169Y-27301412D01*
X233760778Y-27301318D01*
X233741247Y-27301195D01*
X233723883Y-27301045D01*
X233708990Y-27300872D01*
X233696875Y-27300678D01*
X233687843Y-27300467D01*
X233682200Y-27300241D01*
X233680250Y-27300003D01*
X233680933Y-27299204D01*
X233684213Y-27295762D01*
X233690068Y-27289750D01*
X233698350Y-27281318D01*
X233708908Y-27270618D01*
X233721593Y-27257799D01*
X233736255Y-27243014D01*
X233752744Y-27226412D01*
X233770911Y-27208144D01*
X233790605Y-27188362D01*
X233811677Y-27167215D01*
X233833976Y-27144855D01*
X233857355Y-27121433D01*
X233881662Y-27097098D01*
X233906747Y-27072003D01*
X234133244Y-26845500D01*
X234288244Y-26845500D01*
X234443244Y-26845500D01*
X234215250Y-27073500D01*
G37*
G36*
X235138749Y-26288998D02*
G01*
X235530251Y-26680496D01*
X235530251Y-27073496D01*
X235530250Y-27466496D01*
X235138752Y-27857998D01*
X234747254Y-28249500D01*
X234256250Y-28249500D01*
X233765247Y-28249500D01*
X233373250Y-27857500D01*
X232981254Y-27465500D01*
X233765256Y-27465500D01*
X234549258Y-27465500D01*
X234745250Y-27269500D01*
X234941243Y-27073500D01*
X234745250Y-26877500D01*
X234549258Y-26681499D01*
X233965754Y-26681500D01*
X233925045Y-26681496D01*
X233877877Y-26681485D01*
X233831888Y-26681466D01*
X233787234Y-26681440D01*
X233744072Y-26681406D01*
X233702558Y-26681365D01*
X233662849Y-26681318D01*
X233625103Y-26681265D01*
X233589475Y-26681205D01*
X233556123Y-26681140D01*
X233525204Y-26681070D01*
X233496873Y-26680995D01*
X233471289Y-26680916D01*
X233448607Y-26680832D01*
X233428985Y-26680744D01*
X233412578Y-26680653D01*
X233399545Y-26680558D01*
X233390041Y-26680461D01*
X233384224Y-26680361D01*
X233382250Y-26680259D01*
X233383638Y-26677498D01*
X233387580Y-26672318D01*
X233393738Y-26665067D01*
X233401775Y-26656092D01*
X233411354Y-26645738D01*
X233422136Y-26634353D01*
X233433785Y-26622283D01*
X233445963Y-26609875D01*
X233458333Y-26597475D01*
X233470558Y-26585431D01*
X233482299Y-26574088D01*
X233493220Y-26563794D01*
X233502983Y-26554895D01*
X233511250Y-26547737D01*
X233542599Y-26522554D01*
X233592742Y-26486032D01*
X233644361Y-26452976D01*
X233697694Y-26423267D01*
X233752980Y-26396782D01*
X233810460Y-26373403D01*
X233870372Y-26353008D01*
X233932955Y-26335478D01*
X233938880Y-26333955D01*
X233948075Y-26331461D01*
X233955230Y-26329347D01*
X233959729Y-26327800D01*
X233960955Y-26327007D01*
X233959320Y-26326398D01*
X233954594Y-26325075D01*
X233948250Y-26323545D01*
X233942383Y-26322172D01*
X233927458Y-26318392D01*
X233910306Y-26313744D01*
X233891984Y-26308532D01*
X233873554Y-26303062D01*
X233856072Y-26297638D01*
X233840600Y-26292564D01*
X233832524Y-26289783D01*
X233773546Y-26267209D01*
X233716403Y-26241304D01*
X233661351Y-26212203D01*
X233608648Y-26180041D01*
X233558553Y-26144953D01*
X233556756Y-26143605D01*
X233549024Y-26137796D01*
X233542628Y-26132972D01*
X233538192Y-26129604D01*
X233536337Y-26128163D01*
X233536583Y-26127788D01*
X233539092Y-26125017D01*
X233544126Y-26119734D01*
X233551477Y-26112150D01*
X233560938Y-26102477D01*
X233572300Y-26090927D01*
X233585354Y-26077711D01*
X233599893Y-26063041D01*
X233615707Y-26047128D01*
X233632589Y-26030184D01*
X233650331Y-26012419D01*
X233765237Y-25897500D01*
X234256242Y-25897500D01*
X234747247Y-25897500D01*
X235138749Y-26288998D01*
G37*
G36*
X233069356Y-25694521D02*
G01*
X233078526Y-25730058D01*
X233096053Y-25785976D01*
X233116872Y-25839701D01*
X233141038Y-25891358D01*
X233168609Y-25941076D01*
X233199639Y-25988981D01*
X233217593Y-26013732D01*
X233253027Y-26057473D01*
X233291347Y-26098700D01*
X233332333Y-26137259D01*
X233375761Y-26172996D01*
X233421412Y-26205758D01*
X233469064Y-26235390D01*
X233518495Y-26261738D01*
X233569484Y-26284649D01*
X233621810Y-26303970D01*
X233675250Y-26319545D01*
X233677503Y-26320118D01*
X233686960Y-26322604D01*
X233694832Y-26324796D01*
X233700353Y-26326474D01*
X233702756Y-26327418D01*
X233702305Y-26328020D01*
X233698847Y-26329438D01*
X233692748Y-26331294D01*
X233684756Y-26333345D01*
X233666698Y-26337932D01*
X233631078Y-26348512D01*
X233594483Y-26361235D01*
X233558133Y-26375662D01*
X233523250Y-26391354D01*
X233486075Y-26410350D01*
X233437020Y-26439223D01*
X233390206Y-26471270D01*
X233345779Y-26506326D01*
X233303884Y-26544228D01*
X233264665Y-26584813D01*
X233228268Y-26627917D01*
X233194839Y-26673377D01*
X233164521Y-26721029D01*
X233137461Y-26770709D01*
X233113803Y-26822253D01*
X233093692Y-26875500D01*
X233091039Y-26883446D01*
X233087987Y-26892942D01*
X233085024Y-26902670D01*
X233081940Y-26913359D01*
X233078526Y-26925740D01*
X233074570Y-26940544D01*
X233069865Y-26958500D01*
X233069475Y-26959977D01*
X233068689Y-26962425D01*
X233067918Y-26963106D01*
X233066966Y-26961597D01*
X233065633Y-26957476D01*
X233063721Y-26950320D01*
X233061031Y-26939707D01*
X233060002Y-26935722D01*
X233056484Y-26922952D01*
X233052246Y-26908457D01*
X233047731Y-26893735D01*
X233043385Y-26880279D01*
X233028549Y-26839401D01*
X233005892Y-26786999D01*
X232979900Y-26736597D01*
X232950715Y-26688323D01*
X232918478Y-26642311D01*
X232883330Y-26598692D01*
X232845412Y-26557597D01*
X232804864Y-26519157D01*
X232761828Y-26483505D01*
X232716444Y-26450771D01*
X232668854Y-26421087D01*
X232619199Y-26394585D01*
X232567619Y-26371396D01*
X232514256Y-26351652D01*
X232459250Y-26335483D01*
X232452899Y-26333810D01*
X232443925Y-26331279D01*
X232437109Y-26329141D01*
X232433025Y-26327581D01*
X232432250Y-26326784D01*
X232432403Y-26326736D01*
X232435777Y-26325800D01*
X232442094Y-26324139D01*
X232450509Y-26321973D01*
X232460176Y-26319522D01*
X232482099Y-26313634D01*
X232531803Y-26297608D01*
X232581201Y-26278068D01*
X232629668Y-26255319D01*
X232676582Y-26229668D01*
X232721317Y-26201420D01*
X232763250Y-26170882D01*
X232782670Y-26155082D01*
X232806645Y-26134138D01*
X232830626Y-26111753D01*
X232853736Y-26088775D01*
X232875102Y-26066049D01*
X232893848Y-26044424D01*
X232909164Y-26025298D01*
X232943238Y-25978237D01*
X232973911Y-25929111D01*
X233001117Y-25878051D01*
X233024789Y-25825187D01*
X233044861Y-25770648D01*
X233061268Y-25714565D01*
X233062436Y-25710036D01*
X233064835Y-25701106D01*
X233066560Y-25695501D01*
X233067778Y-25692809D01*
X233068655Y-25692619D01*
X233069356Y-25694521D01*
G37*
%TO.C,Y1*%
X51393750Y-53812500D02*
X51793750Y-53812500D01*
X49393750Y-53812500D02*
X51393750Y-53812500D01*
X51393750Y-54012500D02*
X51793750Y-54012500D01*
X51393750Y-54012500D02*
X49393750Y-54012500D01*
X49393750Y-54012500D02*
X49393750Y-55012500D01*
X51793750Y-55012500D02*
X51793750Y-54012500D01*
X51793750Y-55012500D02*
X52193750Y-55012500D01*
X49393750Y-56812500D02*
X49393750Y-57612500D01*
X51793750Y-57612500D02*
X51793750Y-56812500D01*
X51393750Y-57612500D02*
X51793750Y-57612500D01*
X49393750Y-57612500D02*
X51393750Y-57612500D01*
%TO.C,SW1*%
X79911250Y-62920000D02*
X77251250Y-62920000D01*
X79911250Y-60320000D02*
X79911250Y-62920000D01*
X79911250Y-60320000D02*
X77251250Y-60320000D01*
X79911250Y-59050000D02*
X79911250Y-57720000D01*
X79911250Y-57720000D02*
X78581250Y-57720000D01*
X77251250Y-60320000D02*
X77251250Y-62920000D01*
%TO.C,LED20*%
X207875000Y-33481250D02*
X207875000Y-32981250D01*
X207875000Y-32981250D02*
X207375000Y-32981250D01*
X206775000Y-33131250D02*
X205975000Y-33131250D01*
%TO.C,R26*%
X54128641Y-62409065D02*
X53821359Y-62409065D01*
X54128641Y-61649065D02*
X53821359Y-61649065D01*
%TO.C,R15*%
X252567965Y-90140141D02*
X252567965Y-90447423D01*
X251807965Y-90140141D02*
X251807965Y-90447423D01*
%TO.C,U3*%
X53122788Y-65853750D02*
X53922788Y-65853750D01*
X53122788Y-65853750D02*
X52322788Y-65853750D01*
X53122788Y-62733750D02*
X54922788Y-62733750D01*
X53122788Y-62733750D02*
X52322788Y-62733750D01*
%TO.C,R5*%
X67239797Y-91462382D02*
X67239797Y-91769664D01*
X66479797Y-91462382D02*
X66479797Y-91769664D01*
%TO.C,LED16*%
X272112500Y-71350000D02*
X272612500Y-71350000D01*
X272612500Y-71350000D02*
X272612500Y-70850000D01*
X272462500Y-70250000D02*
X272462500Y-69450000D01*
D13*
%TO.C,U7*%
X196217860Y-89405000D02*
X194387500Y-89405000D01*
X194387500Y-89405000D02*
X194387500Y-94745000D01*
X189988220Y-89405000D02*
X194387500Y-89405000D01*
X196217860Y-89803780D02*
X196217860Y-89405000D01*
D14*
X189987860Y-94559120D02*
X189987860Y-94574360D01*
D13*
X194387500Y-94745000D02*
X189988220Y-94745000D01*
X189988220Y-94745000D02*
X189988220Y-89405000D01*
D12*
%TO.C,LED26*%
X75318750Y-33481250D02*
X75318750Y-32981250D01*
X75318750Y-32981250D02*
X74818750Y-32981250D01*
X74218750Y-33131250D02*
X73418750Y-33131250D01*
%TO.C,U4*%
X38866250Y-88900000D02*
X38866250Y-88100000D01*
X38866250Y-88900000D02*
X38866250Y-89700000D01*
X35746250Y-88900000D02*
X35746250Y-87100000D01*
X35746250Y-88900000D02*
X35746250Y-89700000D01*
%TO.C,LED31*%
X53887500Y-33481250D02*
X53887500Y-32981250D01*
X53887500Y-32981250D02*
X53387500Y-32981250D01*
X52787500Y-33131250D02*
X51987500Y-33131250D01*
D13*
%TO.C,U5*%
X112380360Y-89405000D02*
X110550000Y-89405000D01*
X110550000Y-89405000D02*
X110550000Y-94745000D01*
X106150720Y-89405000D02*
X110550000Y-89405000D01*
X112380360Y-89803780D02*
X112380360Y-89405000D01*
D14*
X106150360Y-94559120D02*
X106150360Y-94574360D01*
D13*
X110550000Y-94745000D02*
X106150720Y-94745000D01*
X106150720Y-94745000D02*
X106150720Y-89405000D01*
D12*
%TO.C,D_PWR1*%
X242681250Y-36882840D02*
X242681250Y-32872840D01*
X244681250Y-36882840D02*
X242681250Y-36882840D01*
X244681250Y-36882840D02*
X244681250Y-32872840D01*
%TO.C,LED1*%
X28168750Y-49300000D02*
X27668750Y-49300000D01*
X27668750Y-49300000D02*
X27668750Y-49800000D01*
X27818750Y-50400000D02*
X27818750Y-51200000D01*
%TO.C,R14*%
X214692500Y-91637609D02*
X214692500Y-91944891D01*
X213932500Y-91637609D02*
X213932500Y-91944891D01*
%TO.C,LED19*%
X249150000Y-33481250D02*
X249150000Y-32981250D01*
X249150000Y-32981250D02*
X248650000Y-32981250D01*
X248050000Y-33131250D02*
X247250000Y-33131250D01*
%TO.C,LED15*%
X272112500Y-90400000D02*
X272612500Y-90400000D01*
X272612500Y-90400000D02*
X272612500Y-89900000D01*
X272462500Y-89300000D02*
X272462500Y-88500000D01*
%TO.C,R12*%
X183716947Y-91455077D02*
X183716947Y-91762359D01*
X182956947Y-91455077D02*
X182956947Y-91762359D01*
%TO.C,LED17*%
X272112500Y-52300000D02*
X272612500Y-52300000D01*
X272612500Y-52300000D02*
X272612500Y-51800000D01*
X272462500Y-51200000D02*
X272462500Y-50400000D01*
%TO.C,C16*%
X58723414Y-49102500D02*
X58939086Y-49102500D01*
X58723414Y-49822500D02*
X58939086Y-49822500D01*
%TO.C,C19*%
X61478750Y-58879664D02*
X61478750Y-59095336D01*
X60758750Y-58879664D02*
X60758750Y-59095336D01*
%TO.C,C3*%
X50206538Y-63397339D02*
X50206538Y-63181667D01*
X50926538Y-63397339D02*
X50926538Y-63181667D01*
%TO.C,C20*%
X53635000Y-59323414D02*
X53635000Y-59539086D01*
X52915000Y-59323414D02*
X52915000Y-59539086D01*
%TO.C,U2*%
X223071250Y-47594886D02*
X223071250Y-48244886D01*
X223071250Y-47594886D02*
X223071250Y-46944886D01*
X226191250Y-47594886D02*
X226191250Y-49269886D01*
X226191250Y-47594886D02*
X226191250Y-46944886D01*
%TO.C,LED18*%
X272168750Y-34275000D02*
X272168750Y-33775000D01*
X272168750Y-33775000D02*
X271668750Y-33775000D01*
X271068750Y-33925000D02*
X270268750Y-33925000D01*
%TO.C,LED27*%
X30868750Y-34275000D02*
X30868750Y-33775000D01*
X30868750Y-33775000D02*
X30368750Y-33775000D01*
X29768750Y-33925000D02*
X28968750Y-33925000D01*
%TO.C,C21*%
X50907836Y-52697500D02*
X50692164Y-52697500D01*
X50907836Y-51977500D02*
X50692164Y-51977500D01*
%TO.C,R23*%
X50198259Y-65377888D02*
X50198259Y-65070606D01*
X50958259Y-65377888D02*
X50958259Y-65070606D01*
%TO.C,R7*%
X47211250Y-90843859D02*
X47211250Y-91151141D01*
X46451250Y-90843859D02*
X46451250Y-91151141D01*
%TO.C,R25*%
X58984891Y-48848750D02*
X58677609Y-48848750D01*
X58984891Y-48088750D02*
X58677609Y-48088750D01*
%TO.C,C10*%
X104882836Y-89260000D02*
X104667164Y-89260000D01*
X104882836Y-88540000D02*
X104667164Y-88540000D01*
%TO.C,U1*%
X225452500Y-41275000D02*
X225452500Y-42075000D01*
X225452500Y-41275000D02*
X225452500Y-40475000D01*
X228572500Y-41275000D02*
X228572500Y-43075000D01*
X228572500Y-41275000D02*
X228572500Y-40475000D01*
%TO.C,R22*%
X56729625Y-48827001D02*
X56729625Y-49134283D01*
X55969625Y-48827001D02*
X55969625Y-49134283D01*
%TO.C,LED24*%
X113418750Y-33481250D02*
X113418750Y-32981250D01*
X113418750Y-32981250D02*
X112918750Y-32981250D01*
X112318750Y-33131250D02*
X111518750Y-33131250D01*
%TO.C,C2*%
X224772638Y-50934759D02*
X224491478Y-50934759D01*
X224772638Y-49914759D02*
X224491478Y-49914759D01*
%TO.C,G\u002A\u002A\u002A*%
G36*
X240897666Y-47857021D02*
G01*
X240955482Y-47857455D01*
X240995221Y-47858991D01*
X241021220Y-47862324D01*
X241037813Y-47868152D01*
X241049336Y-47877171D01*
X241060124Y-47890080D01*
X241064563Y-47895973D01*
X241068587Y-47902883D01*
X241072067Y-47912208D01*
X241075034Y-47925554D01*
X241077522Y-47944529D01*
X241079565Y-47970741D01*
X241081195Y-48005795D01*
X241082447Y-48051299D01*
X241083354Y-48108861D01*
X241083948Y-48180087D01*
X241084264Y-48266585D01*
X241084334Y-48369961D01*
X241084192Y-48491823D01*
X241083872Y-48633777D01*
X241083406Y-48797432D01*
X241082828Y-48984393D01*
X241082243Y-49157017D01*
X241081537Y-49327963D01*
X241080751Y-49476751D01*
X241079856Y-49604837D01*
X241078826Y-49713677D01*
X241077633Y-49804726D01*
X241076250Y-49879440D01*
X241074649Y-49939275D01*
X241072802Y-49985687D01*
X241070683Y-50020132D01*
X241068263Y-50044065D01*
X241065516Y-50058943D01*
X241062413Y-50066220D01*
X241044348Y-50074833D01*
X241006090Y-50081821D01*
X240953628Y-50086504D01*
X240892446Y-50088881D01*
X240828025Y-50088954D01*
X240765849Y-50086722D01*
X240711399Y-50082186D01*
X240670157Y-50075345D01*
X240647607Y-50066200D01*
X240646416Y-50065065D01*
X240642555Y-50060040D01*
X240639183Y-50052203D01*
X240636268Y-50039978D01*
X240633775Y-50021784D01*
X240631672Y-49996043D01*
X240629926Y-49961176D01*
X240628503Y-49915605D01*
X240627372Y-49857750D01*
X240626499Y-49786033D01*
X240625850Y-49698874D01*
X240625393Y-49594696D01*
X240625096Y-49471919D01*
X240624924Y-49328964D01*
X240624845Y-49164252D01*
X240624826Y-48976205D01*
X240624832Y-48825197D01*
X240624876Y-48656061D01*
X240624994Y-48508989D01*
X240625222Y-48382392D01*
X240625597Y-48274681D01*
X240626155Y-48184268D01*
X240626931Y-48109563D01*
X240627963Y-48048977D01*
X240629286Y-48000921D01*
X240630936Y-47963807D01*
X240632950Y-47936046D01*
X240635364Y-47916048D01*
X240638214Y-47902224D01*
X240641536Y-47892986D01*
X240645366Y-47886746D01*
X240649740Y-47881912D01*
X240660284Y-47872966D01*
X240675293Y-47865810D01*
X240697872Y-47861163D01*
X240732355Y-47858497D01*
X240783079Y-47857285D01*
X240854378Y-47856998D01*
X240897666Y-47857021D01*
G37*
G36*
X242989604Y-47857006D02*
G01*
X243134500Y-47857124D01*
X243257113Y-47857421D01*
X243359360Y-47857947D01*
X243443156Y-47858752D01*
X243510417Y-47859886D01*
X243563059Y-47861399D01*
X243602998Y-47863340D01*
X243632150Y-47865760D01*
X243652430Y-47868709D01*
X243665755Y-47872235D01*
X243674041Y-47876390D01*
X243678420Y-47879570D01*
X243687873Y-47888792D01*
X243694353Y-47902240D01*
X243698419Y-47924051D01*
X243700629Y-47958364D01*
X243701546Y-48009315D01*
X243701727Y-48081042D01*
X243701700Y-48102709D01*
X243700995Y-48171653D01*
X243699058Y-48220571D01*
X243695518Y-48253334D01*
X243690006Y-48273812D01*
X243682151Y-48285878D01*
X243680471Y-48287433D01*
X243668803Y-48294005D01*
X243649154Y-48298809D01*
X243618140Y-48302099D01*
X243572374Y-48304133D01*
X243508471Y-48305166D01*
X243423044Y-48305453D01*
X243346144Y-48305824D01*
X243270820Y-48307388D01*
X243217270Y-48310272D01*
X243183762Y-48314576D01*
X243168563Y-48320402D01*
X243167654Y-48321777D01*
X243164680Y-48334364D01*
X243162115Y-48359951D01*
X243159937Y-48399863D01*
X243158124Y-48455422D01*
X243156651Y-48527953D01*
X243155497Y-48618779D01*
X243154640Y-48729224D01*
X243154055Y-48860612D01*
X243153721Y-49014265D01*
X243153615Y-49191508D01*
X243153595Y-49304699D01*
X243153474Y-49457682D01*
X243153208Y-49588623D01*
X243152758Y-49699257D01*
X243152086Y-49791316D01*
X243151152Y-49866536D01*
X243149918Y-49926651D01*
X243148345Y-49973395D01*
X243146394Y-50008501D01*
X243144027Y-50033705D01*
X243141205Y-50050740D01*
X243137888Y-50061341D01*
X243134039Y-50067241D01*
X243132392Y-50068779D01*
X243118967Y-50076295D01*
X243096328Y-50081474D01*
X243060553Y-50084698D01*
X243007720Y-50086351D01*
X242933907Y-50086817D01*
X242912317Y-50086729D01*
X242846775Y-50085352D01*
X242791067Y-50082548D01*
X242750219Y-50078632D01*
X242729255Y-50073921D01*
X242729100Y-50073838D01*
X242724444Y-50070666D01*
X242720433Y-50065373D01*
X242717021Y-50056205D01*
X242714158Y-50041409D01*
X242711797Y-50019232D01*
X242709890Y-49987920D01*
X242708387Y-49945721D01*
X242707241Y-49890880D01*
X242706404Y-49821645D01*
X242705828Y-49736262D01*
X242705463Y-49632978D01*
X242705262Y-49510040D01*
X242705177Y-49365695D01*
X242705160Y-49198188D01*
X242705149Y-49137949D01*
X242704973Y-48967771D01*
X242704564Y-48820761D01*
X242703900Y-48695599D01*
X242702958Y-48590966D01*
X242701715Y-48505543D01*
X242700150Y-48438010D01*
X242698239Y-48387049D01*
X242695961Y-48351340D01*
X242693292Y-48329564D01*
X242690211Y-48320402D01*
X242679500Y-48315626D01*
X242649828Y-48311023D01*
X242600463Y-48307861D01*
X242529675Y-48306038D01*
X242435731Y-48305453D01*
X242416691Y-48305443D01*
X242335857Y-48305027D01*
X242275866Y-48303813D01*
X242233333Y-48301548D01*
X242204873Y-48297974D01*
X242187098Y-48292836D01*
X242176623Y-48285878D01*
X242174337Y-48283336D01*
X242167126Y-48269457D01*
X242162162Y-48246159D01*
X242159074Y-48209571D01*
X242157493Y-48155822D01*
X242157048Y-48081042D01*
X242157065Y-48051728D01*
X242157453Y-47988196D01*
X242158785Y-47943905D01*
X242161619Y-47914716D01*
X242166515Y-47896492D01*
X242174033Y-47885096D01*
X242184734Y-47876390D01*
X242187360Y-47874762D01*
X242197303Y-47870847D01*
X242213002Y-47867542D01*
X242236371Y-47864797D01*
X242269327Y-47862562D01*
X242313786Y-47860786D01*
X242371664Y-47859421D01*
X242444876Y-47858416D01*
X242535338Y-47857721D01*
X242644967Y-47857286D01*
X242775678Y-47857062D01*
X242929387Y-47856998D01*
X242989604Y-47857006D01*
G37*
G36*
X246317691Y-48722954D02*
G01*
X246317708Y-48782072D01*
X246317715Y-48969136D01*
X246317715Y-48974834D01*
X246317674Y-49163255D01*
X246317538Y-49328365D01*
X246317278Y-49471725D01*
X246316866Y-49594893D01*
X246316276Y-49699430D01*
X246315478Y-49786893D01*
X246314446Y-49858844D01*
X246313152Y-49916841D01*
X246311567Y-49962445D01*
X246309665Y-49997213D01*
X246307417Y-50022707D01*
X246304796Y-50040484D01*
X246301774Y-50052106D01*
X246298323Y-50059131D01*
X246294122Y-50064823D01*
X246284772Y-50073759D01*
X246270775Y-50079877D01*
X246248079Y-50083711D01*
X246212630Y-50085791D01*
X246160374Y-50086649D01*
X246087259Y-50086817D01*
X246047831Y-50086786D01*
X245985655Y-50086339D01*
X245942311Y-50084937D01*
X245913747Y-50082046D01*
X245895908Y-50077136D01*
X245884742Y-50069675D01*
X245876195Y-50059131D01*
X245871916Y-50051195D01*
X245867567Y-50036485D01*
X245864118Y-50013997D01*
X245861471Y-49981285D01*
X245859527Y-49935900D01*
X245858187Y-49875393D01*
X245857352Y-49797317D01*
X245856923Y-49699225D01*
X245856803Y-49578667D01*
X245856803Y-49125888D01*
X245829391Y-49129869D01*
X245827752Y-49130304D01*
X245815808Y-49139086D01*
X245796809Y-49159838D01*
X245769826Y-49193837D01*
X245733933Y-49242358D01*
X245688202Y-49306680D01*
X245631705Y-49388080D01*
X245563515Y-49487833D01*
X245482705Y-49607219D01*
X245163431Y-50080588D01*
X244938257Y-50083979D01*
X244907056Y-50084412D01*
X244826603Y-50084814D01*
X244766968Y-50083236D01*
X244725073Y-50078927D01*
X244697843Y-50071138D01*
X244682201Y-50059118D01*
X244675072Y-50042117D01*
X244673379Y-50019384D01*
X244676713Y-50009750D01*
X244693322Y-49979849D01*
X244722851Y-49932793D01*
X244764164Y-49870292D01*
X244816124Y-49794056D01*
X244877593Y-49705795D01*
X244947435Y-49607219D01*
X244956072Y-49595117D01*
X245016990Y-49509485D01*
X245072879Y-49430465D01*
X245122158Y-49360329D01*
X245163241Y-49301346D01*
X245194547Y-49255789D01*
X245214491Y-49225930D01*
X245221491Y-49214039D01*
X245212270Y-49204272D01*
X245186635Y-49186380D01*
X245150342Y-49164588D01*
X245088536Y-49123805D01*
X245003119Y-49044334D01*
X244931697Y-48947699D01*
X244876621Y-48837301D01*
X244840245Y-48716537D01*
X244830100Y-48653132D01*
X244829080Y-48585738D01*
X245296234Y-48585738D01*
X245302836Y-48646383D01*
X245331574Y-48719964D01*
X245381763Y-48782800D01*
X245451947Y-48832584D01*
X245456463Y-48834939D01*
X245481014Y-48845453D01*
X245509764Y-48852863D01*
X245547892Y-48857901D01*
X245600575Y-48861296D01*
X245672994Y-48863779D01*
X245740440Y-48865181D01*
X245791594Y-48864969D01*
X245824690Y-48862752D01*
X245843243Y-48858286D01*
X245850768Y-48851322D01*
X245851329Y-48848831D01*
X245852995Y-48825374D01*
X245854135Y-48782093D01*
X245854705Y-48722954D01*
X245854658Y-48651921D01*
X245853950Y-48572959D01*
X245850574Y-48311682D01*
X245676175Y-48311804D01*
X245632417Y-48311950D01*
X245572824Y-48313001D01*
X245530093Y-48315587D01*
X245499112Y-48320322D01*
X245474768Y-48327819D01*
X245451947Y-48338691D01*
X245397815Y-48374613D01*
X245342312Y-48434503D01*
X245307986Y-48505616D01*
X245296234Y-48585738D01*
X244829080Y-48585738D01*
X244828231Y-48529702D01*
X244849100Y-48409670D01*
X244891262Y-48295292D01*
X244953275Y-48188822D01*
X245033696Y-48092516D01*
X245131082Y-48008629D01*
X245243990Y-47939416D01*
X245370976Y-47887131D01*
X245375842Y-47885606D01*
X245398842Y-47879644D01*
X245426518Y-47874797D01*
X245461761Y-47870902D01*
X245507463Y-47867796D01*
X245566514Y-47865315D01*
X245641806Y-47863299D01*
X245736230Y-47861583D01*
X245852677Y-47860005D01*
X245942126Y-47858938D01*
X246036921Y-47857960D01*
X246111530Y-47857542D01*
X246168610Y-47857810D01*
X246210817Y-47858890D01*
X246240811Y-47860908D01*
X246261248Y-47863992D01*
X246274785Y-47868268D01*
X246284079Y-47873862D01*
X246291789Y-47880901D01*
X246296149Y-47885515D01*
X246300170Y-47891339D01*
X246303658Y-47899737D01*
X246306650Y-47912303D01*
X246309184Y-47930634D01*
X246311298Y-47956325D01*
X246313031Y-47990973D01*
X246314419Y-48036172D01*
X246315502Y-48093520D01*
X246316317Y-48164610D01*
X246316903Y-48251041D01*
X246317296Y-48354406D01*
X246317536Y-48476303D01*
X246317661Y-48618326D01*
X246317691Y-48722954D01*
G37*
G36*
X251735435Y-47851510D02*
G01*
X251775186Y-47860124D01*
X251796418Y-47873873D01*
X251798396Y-47877078D01*
X251810116Y-47900731D01*
X251830082Y-47944103D01*
X251857335Y-48004954D01*
X251890921Y-48081043D01*
X251929882Y-48170131D01*
X251973262Y-48269976D01*
X252020105Y-48378338D01*
X252069452Y-48492977D01*
X252120349Y-48611652D01*
X252171839Y-48732122D01*
X252222965Y-48852147D01*
X252272770Y-48969487D01*
X252320298Y-49081901D01*
X252364592Y-49187149D01*
X252404697Y-49282989D01*
X252439654Y-49367182D01*
X252468509Y-49437487D01*
X252490303Y-49491664D01*
X252504082Y-49527471D01*
X252508887Y-49542669D01*
X252508800Y-49557180D01*
X252507253Y-49571387D01*
X252502117Y-49582976D01*
X252491260Y-49592214D01*
X252472549Y-49599367D01*
X252443852Y-49604702D01*
X252403035Y-49608485D01*
X252347968Y-49610982D01*
X252276516Y-49612460D01*
X252186548Y-49613186D01*
X252075931Y-49613427D01*
X251942532Y-49613447D01*
X251819852Y-49613517D01*
X251711831Y-49613794D01*
X251624475Y-49614359D01*
X251555593Y-49615293D01*
X251503000Y-49616676D01*
X251464506Y-49618588D01*
X251437924Y-49621112D01*
X251421065Y-49624327D01*
X251411743Y-49628313D01*
X251407767Y-49633152D01*
X251406243Y-49641181D01*
X251403851Y-49672095D01*
X251401937Y-49720423D01*
X251400666Y-49781400D01*
X251400206Y-49850261D01*
X251400119Y-49890586D01*
X251399268Y-49957107D01*
X251397232Y-50004286D01*
X251393672Y-50035871D01*
X251388251Y-50055607D01*
X251380631Y-50067241D01*
X251378322Y-50069338D01*
X251364562Y-50076626D01*
X251341436Y-50081645D01*
X251305059Y-50084767D01*
X251251548Y-50086367D01*
X251177020Y-50086817D01*
X251121639Y-50086653D01*
X251064501Y-50085672D01*
X251025150Y-50083407D01*
X250999473Y-50079404D01*
X250983354Y-50073213D01*
X250972680Y-50064381D01*
X250967223Y-50056659D01*
X250960849Y-50039338D01*
X250956207Y-50011756D01*
X250952924Y-49970249D01*
X250950629Y-49911155D01*
X250948949Y-49830811D01*
X250945523Y-49619676D01*
X250858603Y-49615928D01*
X250847032Y-49615420D01*
X250802994Y-49612388D01*
X250771370Y-49605567D01*
X250750105Y-49591435D01*
X250737143Y-49566471D01*
X250730429Y-49527155D01*
X250727907Y-49469966D01*
X250727523Y-49391384D01*
X250727528Y-49379967D01*
X250728215Y-49302734D01*
X250731253Y-49246619D01*
X250738324Y-49208256D01*
X250751109Y-49184278D01*
X250771287Y-49171319D01*
X250800540Y-49166013D01*
X250840549Y-49164992D01*
X250841926Y-49164993D01*
X250876829Y-49165330D01*
X250903465Y-49164272D01*
X250922943Y-49158879D01*
X250936376Y-49146212D01*
X250944874Y-49123333D01*
X250949550Y-49087303D01*
X250951514Y-49035183D01*
X250951877Y-48964034D01*
X250951751Y-48870918D01*
X250951638Y-48813699D01*
X250951595Y-48727082D01*
X250953353Y-48661057D01*
X250958783Y-48612844D01*
X250969754Y-48579668D01*
X250988138Y-48558752D01*
X251015804Y-48547318D01*
X251054624Y-48542589D01*
X251106468Y-48541788D01*
X251173207Y-48542138D01*
X251204064Y-48542022D01*
X251266915Y-48541724D01*
X251314758Y-48543677D01*
X251349626Y-48550710D01*
X251373552Y-48565652D01*
X251388569Y-48591331D01*
X251396709Y-48630578D01*
X251400007Y-48686221D01*
X251400495Y-48761088D01*
X251400206Y-48858009D01*
X251400247Y-48890530D01*
X251401000Y-48983916D01*
X251402775Y-49054753D01*
X251405664Y-49104847D01*
X251409760Y-49136008D01*
X251415155Y-49150044D01*
X251418565Y-49152338D01*
X251441523Y-49158030D01*
X251484729Y-49161967D01*
X251549724Y-49164253D01*
X251638049Y-49164992D01*
X251645637Y-49164991D01*
X251721198Y-49164671D01*
X251775694Y-49163563D01*
X251812666Y-49161331D01*
X251835655Y-49157639D01*
X251848201Y-49152151D01*
X251853847Y-49144533D01*
X251852580Y-49135244D01*
X251842428Y-49103733D01*
X251823011Y-49051809D01*
X251794873Y-48980818D01*
X251758561Y-48892107D01*
X251714621Y-48787022D01*
X251663598Y-48666909D01*
X251606038Y-48533116D01*
X251589790Y-48495514D01*
X251541283Y-48382683D01*
X251496222Y-48277033D01*
X251455539Y-48180799D01*
X251420164Y-48096219D01*
X251391029Y-48025528D01*
X251369066Y-47970962D01*
X251355205Y-47934759D01*
X251350378Y-47919154D01*
X251351562Y-47904910D01*
X251360150Y-47886419D01*
X251379969Y-47873058D01*
X251414440Y-47863615D01*
X251466983Y-47856880D01*
X251541018Y-47851640D01*
X251593616Y-47849098D01*
X251675475Y-47847884D01*
X251735435Y-47851510D01*
G37*
G36*
X249745991Y-49001597D02*
G01*
X249746161Y-49051654D01*
X249725525Y-49207010D01*
X249683689Y-49358808D01*
X249620620Y-49504720D01*
X249544446Y-49629093D01*
X249536284Y-49642419D01*
X249430649Y-49769576D01*
X249357394Y-49845863D01*
X249450747Y-49981454D01*
X249457492Y-49991292D01*
X249491370Y-50042121D01*
X249518881Y-50085695D01*
X249537350Y-50117655D01*
X249544100Y-50133639D01*
X249544007Y-50135033D01*
X249534308Y-50155577D01*
X249513524Y-50180811D01*
X249500606Y-50192598D01*
X249483160Y-50202726D01*
X249459114Y-50208386D01*
X249422364Y-50210849D01*
X249366810Y-50211388D01*
X249333996Y-50211181D01*
X249279675Y-50208139D01*
X249240299Y-50198713D01*
X249209118Y-50179453D01*
X249179387Y-50146909D01*
X249144358Y-50097631D01*
X249133191Y-50081492D01*
X249106893Y-50047718D01*
X249087824Y-50032022D01*
X249072759Y-50031420D01*
X248989828Y-50063168D01*
X248834926Y-50106602D01*
X248680952Y-50130037D01*
X248533278Y-50132467D01*
X248454569Y-50125257D01*
X248290668Y-50093067D01*
X248136101Y-50039470D01*
X247992495Y-49966085D01*
X247861473Y-49874528D01*
X247744660Y-49766417D01*
X247643680Y-49643372D01*
X247560158Y-49507009D01*
X247495718Y-49358946D01*
X247451984Y-49200801D01*
X247430581Y-49034193D01*
X247430375Y-49015507D01*
X247891240Y-49015507D01*
X247892646Y-49034562D01*
X247914879Y-49162411D01*
X247959110Y-49279255D01*
X248025974Y-49386418D01*
X248116106Y-49485228D01*
X248146553Y-49512510D01*
X248229182Y-49573883D01*
X248316551Y-49618402D01*
X248417798Y-49651091D01*
X248432760Y-49654666D01*
X248497703Y-49665592D01*
X248566760Y-49671206D01*
X248635139Y-49671779D01*
X248698047Y-49667582D01*
X248750692Y-49658888D01*
X248788281Y-49645968D01*
X248806022Y-49629093D01*
X248804184Y-49623573D01*
X248790542Y-49599468D01*
X248765061Y-49558778D01*
X248729348Y-49503832D01*
X248685011Y-49436960D01*
X248633659Y-49360492D01*
X248576900Y-49276755D01*
X248516341Y-49188080D01*
X248453591Y-49096796D01*
X248390258Y-49005231D01*
X248327950Y-48915716D01*
X248268276Y-48830579D01*
X248212843Y-48752149D01*
X248163259Y-48682756D01*
X248121133Y-48624730D01*
X248088072Y-48580398D01*
X248065686Y-48552091D01*
X248055581Y-48542138D01*
X248043934Y-48545148D01*
X248022061Y-48564376D01*
X247995699Y-48603167D01*
X247963270Y-48663594D01*
X247919927Y-48769366D01*
X247894160Y-48889127D01*
X247891240Y-49015507D01*
X247430375Y-49015507D01*
X247429543Y-48940035D01*
X247446592Y-48780581D01*
X247486037Y-48623284D01*
X247546503Y-48472023D01*
X247623076Y-48336922D01*
X248327138Y-48336922D01*
X248328118Y-48339910D01*
X248340006Y-48360586D01*
X248364272Y-48398926D01*
X248399619Y-48452991D01*
X248444752Y-48520839D01*
X248498377Y-48600530D01*
X248559197Y-48690124D01*
X248625917Y-48787682D01*
X248697242Y-48891262D01*
X248730652Y-48939551D01*
X248820372Y-49068419D01*
X248897986Y-49178601D01*
X248963232Y-49269740D01*
X249015851Y-49341477D01*
X249055581Y-49393457D01*
X249082162Y-49425323D01*
X249095333Y-49436716D01*
X249116033Y-49430963D01*
X249144173Y-49405494D01*
X249174898Y-49363816D01*
X249205871Y-49310038D01*
X249234759Y-49248269D01*
X249259225Y-49182619D01*
X249276934Y-49117195D01*
X249283587Y-49083130D01*
X249293043Y-49001597D01*
X249290597Y-48922974D01*
X249276218Y-48834880D01*
X249241135Y-48718558D01*
X249182785Y-48603796D01*
X249105162Y-48502048D01*
X249010398Y-48415614D01*
X248900629Y-48346794D01*
X248777989Y-48297889D01*
X248716261Y-48284634D01*
X248633524Y-48276858D01*
X248546923Y-48276982D01*
X248465644Y-48284939D01*
X248398875Y-48300660D01*
X248369966Y-48311754D01*
X248340263Y-48326190D01*
X248327138Y-48336922D01*
X247623076Y-48336922D01*
X247626614Y-48330679D01*
X247724996Y-48203132D01*
X247788842Y-48131954D01*
X247721393Y-48034961D01*
X247718218Y-48030394D01*
X247679456Y-47974000D01*
X247653327Y-47933640D01*
X247638052Y-47905382D01*
X247631856Y-47885292D01*
X247632962Y-47869437D01*
X247639593Y-47853884D01*
X247651910Y-47834255D01*
X247668059Y-47816703D01*
X247669633Y-47815921D01*
X247691444Y-47812093D01*
X247730204Y-47809384D01*
X247779157Y-47807846D01*
X247831546Y-47807536D01*
X247880613Y-47808506D01*
X247919603Y-47810811D01*
X247941758Y-47814505D01*
X247953266Y-47823113D01*
X247975580Y-47848425D01*
X248000132Y-47883019D01*
X248018088Y-47909539D01*
X248037557Y-47934542D01*
X248048825Y-47944198D01*
X248049040Y-47944190D01*
X248065124Y-47939104D01*
X248096945Y-47926411D01*
X248137841Y-47908762D01*
X248175859Y-47892199D01*
X248238882Y-47867390D01*
X248296806Y-47849552D01*
X248355624Y-47837610D01*
X248421328Y-47830490D01*
X248499910Y-47827118D01*
X248597362Y-47826422D01*
X248655118Y-47826669D01*
X248721442Y-47827602D01*
X248771866Y-47829743D01*
X248811723Y-47833678D01*
X248846349Y-47839998D01*
X248881078Y-47849290D01*
X248921246Y-47862142D01*
X249015035Y-47896620D01*
X249159976Y-47966302D01*
X249289455Y-48051797D01*
X249407502Y-48155539D01*
X249426652Y-48175136D01*
X249532514Y-48302963D01*
X249617375Y-48441197D01*
X249681204Y-48587510D01*
X249723967Y-48739576D01*
X249745630Y-48895067D01*
X249745991Y-49001597D01*
G37*
%TO.C,R27*%
X55016141Y-59367500D02*
X54708859Y-59367500D01*
X55016141Y-58607500D02*
X54708859Y-58607500D01*
%TO.C,R16*%
X233994521Y-90903471D02*
X233994521Y-91210753D01*
X233234521Y-90903471D02*
X233234521Y-91210753D01*
%TO.C,R20*%
X42156146Y-51973750D02*
X41848864Y-51973750D01*
X42156146Y-51213750D02*
X41848864Y-51213750D01*
%TO.C,C12*%
X35202920Y-89234858D02*
X35202920Y-89516018D01*
X34182920Y-89234858D02*
X34182920Y-89516018D01*
%TO.C,R6*%
X54128641Y-61400669D02*
X53821359Y-61400669D01*
X54128641Y-60640669D02*
X53821359Y-60640669D01*
%TO.C,R13*%
X159099886Y-90877911D02*
X159099886Y-91185193D01*
X158339886Y-90877911D02*
X158339886Y-91185193D01*
%TO.C,F1*%
X224747500Y-34322936D02*
X224747500Y-35527064D01*
X222927500Y-34322936D02*
X222927500Y-35527064D01*
%TO.C,R19*%
X42169395Y-52982880D02*
X41862113Y-52982880D01*
X42169395Y-52222880D02*
X41862113Y-52222880D01*
%TO.C,LED22*%
X171362500Y-33481250D02*
X171362500Y-32981250D01*
X171362500Y-32981250D02*
X170862500Y-32981250D01*
X170262500Y-33131250D02*
X169462500Y-33131250D01*
%TO.C,LED3*%
X28168750Y-87400000D02*
X27668750Y-87400000D01*
X27668750Y-87400000D02*
X27668750Y-87900000D01*
X27818750Y-88500000D02*
X27818750Y-89300000D01*
%TO.C,C18*%
X60852500Y-49920336D02*
X60852500Y-49704664D01*
X61572500Y-49920336D02*
X61572500Y-49704664D01*
%TO.C,R4*%
X86158534Y-92115420D02*
X86158534Y-92422702D01*
X85398534Y-92115420D02*
X85398534Y-92422702D01*
%TO.C,C15*%
X188654860Y-89289977D02*
X188439188Y-89289977D01*
X188654860Y-88569977D02*
X188439188Y-88569977D01*
%TO.C,C1*%
X224490670Y-44122386D02*
X224771830Y-44122386D01*
X224490670Y-45142386D02*
X224771830Y-45142386D01*
%TO.C,R9*%
X114713750Y-90757391D02*
X114713750Y-90450109D01*
X115473750Y-90757391D02*
X115473750Y-90450109D01*
%TO.C,R21*%
X41828990Y-50157229D02*
X42136272Y-50157229D01*
X41828990Y-50917229D02*
X42136272Y-50917229D01*
%TD*%
%LPC*%
D15*
%TO.C,H22*%
X135731250Y-60325000D03*
%TD*%
%TO.C,H3*%
X111918750Y-41275000D03*
%TD*%
D16*
%TO.C,J2*%
X237159115Y-28793750D03*
X231379115Y-28793750D03*
D17*
X238589114Y-29323749D03*
D18*
X238589114Y-25143749D03*
D17*
X229949114Y-29323749D03*
D18*
X229949114Y-25143749D03*
%TD*%
D15*
%TO.C,H15*%
X207168750Y-41275000D03*
%TD*%
%TO.C,H17*%
X254793750Y-98425000D03*
%TD*%
%TO.C,H4*%
X169068750Y-41275000D03*
%TD*%
%TO.C,H6*%
X97631250Y-60325000D03*
%TD*%
%TO.C,H2*%
X73818750Y-41275000D03*
%TD*%
%TO.C,H9*%
X69056250Y-79375000D03*
%TD*%
%TO.C,H1*%
X30956250Y-41275000D03*
%TD*%
%TO.C,H5*%
X250031250Y-41275000D03*
%TD*%
%TO.C,H13*%
X185737500Y-98425000D03*
%TD*%
%TO.C,H7*%
X173831250Y-60325000D03*
%TD*%
%TO.C,H18*%
X102393750Y-98425000D03*
%TD*%
%TO.C,H11*%
X183356250Y-79375000D03*
%TD*%
%TO.C,H20*%
X64293750Y-98425000D03*
%TD*%
%TO.C,H23*%
X159543750Y-98425000D03*
%TD*%
%TO.C,H19*%
X197643750Y-98425000D03*
%TD*%
%TO.C,H16*%
X45243750Y-98425000D03*
%TD*%
%TO.C,H12*%
X114300000Y-98425000D03*
%TD*%
%TO.C,H24*%
X269081250Y-41275000D03*
%TD*%
%TO.C,H10*%
X126206250Y-79375000D03*
%TD*%
%TO.C,H14*%
X221456250Y-79375000D03*
%TD*%
%TO.C,H21*%
X235743750Y-98425000D03*
%TD*%
%TO.C,H8*%
X230981250Y-60325000D03*
%TD*%
D19*
%TO.C,LED2*%
X28268750Y-68935000D03*
X29368750Y-68935000D03*
X29368750Y-70765000D03*
X28268750Y-70765000D03*
%TD*%
D20*
%TO.C,R24*%
X49212500Y-52311250D03*
X49212500Y-53331250D03*
%TD*%
D21*
%TO.C,LED23*%
X150933750Y-34375000D03*
X150933750Y-35475000D03*
X149103750Y-35475000D03*
X149103750Y-34375000D03*
%TD*%
D22*
%TO.C,U8*%
X53012500Y-56975000D03*
X53012500Y-56475000D03*
X53012500Y-55975000D03*
X53012500Y-55475000D03*
X53012500Y-54975000D03*
X53012500Y-54475000D03*
X53012500Y-53975000D03*
X53012500Y-53475000D03*
X53012500Y-52975000D03*
X53012500Y-52475000D03*
X53012500Y-51975000D03*
X53012500Y-51475000D03*
D23*
X53700000Y-50787500D03*
X54200000Y-50787500D03*
X54700000Y-50787500D03*
X55200000Y-50787500D03*
X55700000Y-50787500D03*
X56200000Y-50787500D03*
X56700000Y-50787500D03*
X57200000Y-50787500D03*
X57700000Y-50787500D03*
X58200000Y-50787500D03*
X58700000Y-50787500D03*
X59200000Y-50787500D03*
D22*
X59887500Y-51475000D03*
X59887500Y-51975000D03*
X59887500Y-52475000D03*
X59887500Y-52975000D03*
X59887500Y-53475000D03*
X59887500Y-53975000D03*
X59887500Y-54475000D03*
X59887500Y-54975000D03*
X59887500Y-55475000D03*
X59887500Y-55975000D03*
X59887500Y-56475000D03*
X59887500Y-56975000D03*
D23*
X59200000Y-57662500D03*
X58700000Y-57662500D03*
X58200000Y-57662500D03*
X57700000Y-57662500D03*
X57200000Y-57662500D03*
X56700000Y-57662500D03*
X56200000Y-57662500D03*
X55700000Y-57662500D03*
X55200000Y-57662500D03*
X54700000Y-57662500D03*
X54200000Y-57662500D03*
X53700000Y-57662500D03*
D24*
X56449999Y-54224999D03*
%TD*%
D25*
%TO.C,R17*%
X61912500Y-52955000D03*
X61912500Y-53975000D03*
%TD*%
D26*
%TO.C,R1*%
X238918750Y-33337500D03*
X240568750Y-33337500D03*
%TD*%
D27*
%TO.C,C22*%
X51280000Y-53281250D03*
X50320000Y-53281250D03*
%TD*%
D20*
%TO.C,R8*%
X100336691Y-92358750D03*
X100336691Y-93378750D03*
%TD*%
D28*
%TO.C,R11*%
X193948643Y-88418191D03*
X194968643Y-88418191D03*
%TD*%
D29*
%TO.C,C4*%
X55705048Y-65257684D03*
X55705048Y-64297684D03*
%TD*%
D21*
%TO.C,LED25*%
X93783750Y-33581250D03*
X93783750Y-34681250D03*
X91953750Y-34681250D03*
X91953750Y-33581250D03*
%TD*%
D20*
%TO.C,R18*%
X115093750Y-92358750D03*
X115093750Y-93378750D03*
%TD*%
D30*
%TO.C,R2*%
X228631250Y-33337500D03*
X226981250Y-33337500D03*
%TD*%
D27*
%TO.C,C17*%
X51373750Y-58193750D03*
X50413750Y-58193750D03*
%TD*%
D21*
%TO.C,LED30*%
X131883750Y-33581250D03*
X131883750Y-34681250D03*
X130053750Y-34681250D03*
X130053750Y-33581250D03*
%TD*%
%TO.C,LED21*%
X189033750Y-33581250D03*
X189033750Y-34681250D03*
X187203750Y-34681250D03*
X187203750Y-33581250D03*
%TD*%
D31*
%TO.C,Y1*%
X50593749Y-54612499D03*
X50593749Y-55812499D03*
X50593749Y-57012499D03*
%TD*%
D32*
%TO.C,SW1*%
X78581249Y-59049999D03*
D33*
X78581249Y-61589999D03*
%TD*%
D21*
%TO.C,LED20*%
X207290000Y-33581250D03*
X207290000Y-34681250D03*
X205460000Y-34681250D03*
X205460000Y-33581250D03*
%TD*%
D34*
%TO.C,R26*%
X54485000Y-62029065D03*
X53465000Y-62029065D03*
%TD*%
D20*
%TO.C,R15*%
X252187965Y-89783782D03*
X252187965Y-90803782D03*
%TD*%
D35*
%TO.C,U3*%
X54260288Y-63343750D03*
X54260288Y-64293750D03*
X54260288Y-65243750D03*
X51985288Y-65243750D03*
X51985288Y-63343750D03*
%TD*%
D20*
%TO.C,R5*%
X66859797Y-91106023D03*
X66859797Y-92126023D03*
%TD*%
D36*
%TO.C,LED16*%
X272012500Y-70765000D03*
X270912500Y-70765000D03*
X270912500Y-68935000D03*
X272012500Y-68935000D03*
%TD*%
D37*
%TO.C,U7*%
X195161839Y-89801699D03*
X195161839Y-90451939D03*
X195161839Y-91102179D03*
X195161839Y-91752419D03*
X195161839Y-92397579D03*
X195161839Y-93047819D03*
X195161839Y-93698059D03*
X195161839Y-94348299D03*
X189213159Y-94348299D03*
X189213159Y-93698059D03*
X189213159Y-93047819D03*
X189213159Y-92397579D03*
X189213159Y-91752419D03*
X189213159Y-91102179D03*
X189213159Y-90451939D03*
X189213159Y-89801699D03*
%TD*%
D21*
%TO.C,LED26*%
X74733750Y-33581250D03*
X74733750Y-34681250D03*
X72903750Y-34681250D03*
X72903750Y-33581250D03*
%TD*%
D38*
%TO.C,U4*%
X36356250Y-87762500D03*
X37306250Y-87762500D03*
X38256250Y-87762500D03*
X38256250Y-90037500D03*
X36356250Y-90037500D03*
%TD*%
D21*
%TO.C,LED31*%
X53302500Y-33581250D03*
X53302500Y-34681250D03*
X51472500Y-34681250D03*
X51472500Y-33581250D03*
%TD*%
D37*
%TO.C,U5*%
X111324339Y-89801699D03*
X111324339Y-90451939D03*
X111324339Y-91102179D03*
X111324339Y-91752419D03*
X111324339Y-92397579D03*
X111324339Y-93047819D03*
X111324339Y-93698059D03*
X111324339Y-94348299D03*
X105375659Y-94348299D03*
X105375659Y-93698059D03*
X105375659Y-93047819D03*
X105375659Y-92397579D03*
X105375659Y-91752419D03*
X105375659Y-91102179D03*
X105375659Y-90451939D03*
X105375659Y-89801699D03*
%TD*%
D39*
%TO.C,D_PWR1*%
X243681250Y-36172840D03*
X243681250Y-32872840D03*
%TD*%
D19*
%TO.C,LED1*%
X28268750Y-49885000D03*
X29368750Y-49885000D03*
X29368750Y-51715000D03*
X28268750Y-51715000D03*
%TD*%
D20*
%TO.C,R14*%
X214312500Y-91281250D03*
X214312500Y-92301250D03*
%TD*%
D21*
%TO.C,LED19*%
X248565000Y-33581250D03*
X248565000Y-34681250D03*
X246735000Y-34681250D03*
X246735000Y-33581250D03*
%TD*%
D36*
%TO.C,LED15*%
X272012500Y-89815000D03*
X270912500Y-89815000D03*
X270912500Y-87985000D03*
X272012500Y-87985000D03*
%TD*%
D20*
%TO.C,R12*%
X183336947Y-91098718D03*
X183336947Y-92118718D03*
%TD*%
D36*
%TO.C,LED17*%
X272012500Y-51715000D03*
X270912500Y-51715000D03*
X270912500Y-49885000D03*
X272012500Y-49885000D03*
%TD*%
D40*
%TO.C,C16*%
X58351250Y-49462500D03*
X59311250Y-49462500D03*
%TD*%
D41*
%TO.C,C19*%
X61118750Y-58507500D03*
X61118750Y-59467500D03*
%TD*%
D29*
%TO.C,C3*%
X50566538Y-63769503D03*
X50566538Y-62809503D03*
%TD*%
D41*
%TO.C,C20*%
X53275000Y-58951250D03*
X53275000Y-59911250D03*
%TD*%
D42*
%TO.C,U2*%
X225581250Y-48532386D03*
X223681250Y-48532386D03*
X224631250Y-46657386D03*
%TD*%
D21*
%TO.C,LED18*%
X271583750Y-34375000D03*
X271583750Y-35475000D03*
X269753750Y-35475000D03*
X269753750Y-34375000D03*
%TD*%
%TO.C,LED27*%
X30283750Y-34375000D03*
X30283750Y-35475000D03*
X28453750Y-35475000D03*
X28453750Y-34375000D03*
%TD*%
D27*
%TO.C,C21*%
X51280000Y-52337500D03*
X50320000Y-52337500D03*
%TD*%
D25*
%TO.C,R23*%
X50578259Y-65734247D03*
X50578259Y-64714247D03*
%TD*%
D20*
%TO.C,R7*%
X46831250Y-90487500D03*
X46831250Y-91507500D03*
%TD*%
D34*
%TO.C,R25*%
X59341250Y-48468750D03*
X58321250Y-48468750D03*
%TD*%
D27*
%TO.C,C10*%
X105255000Y-88900000D03*
X104295000Y-88900000D03*
%TD*%
D43*
%TO.C,U1*%
X227962500Y-42412500D03*
X227012500Y-42412500D03*
X226062500Y-42412500D03*
X226062500Y-40137500D03*
X227012500Y-40137500D03*
X227962500Y-40137500D03*
%TD*%
D20*
%TO.C,R22*%
X56349625Y-48470642D03*
X56349625Y-49490642D03*
%TD*%
D21*
%TO.C,LED24*%
X112833750Y-33581250D03*
X112833750Y-34681250D03*
X111003750Y-34681250D03*
X111003750Y-33581250D03*
%TD*%
D44*
%TO.C,C2*%
X225407058Y-50424759D03*
X223857058Y-50424759D03*
%TD*%
D34*
%TO.C,R27*%
X55372500Y-58987500D03*
X54352500Y-58987500D03*
%TD*%
D20*
%TO.C,R16*%
X233614521Y-90547112D03*
X233614521Y-91567112D03*
%TD*%
D34*
%TO.C,R20*%
X42512505Y-51593750D03*
X41492505Y-51593750D03*
%TD*%
D45*
%TO.C,C12*%
X34692920Y-88600438D03*
X34692920Y-90150438D03*
%TD*%
D34*
%TO.C,R6*%
X54485000Y-61020669D03*
X53465000Y-61020669D03*
%TD*%
D20*
%TO.C,R13*%
X158719886Y-90521552D03*
X158719886Y-91541552D03*
%TD*%
D46*
%TO.C,F1*%
X223837500Y-33525000D03*
X223837500Y-36325000D03*
%TD*%
D34*
%TO.C,R19*%
X42525754Y-52602880D03*
X41505754Y-52602880D03*
%TD*%
D21*
%TO.C,LED22*%
X170777500Y-33581250D03*
X170777500Y-34681250D03*
X168947500Y-34681250D03*
X168947500Y-33581250D03*
%TD*%
D19*
%TO.C,LED3*%
X28268750Y-87985000D03*
X29368750Y-87985000D03*
X29368750Y-89815000D03*
X28268750Y-89815000D03*
%TD*%
D29*
%TO.C,C18*%
X61212500Y-50292500D03*
X61212500Y-49332500D03*
%TD*%
D20*
%TO.C,R4*%
X85778534Y-91759061D03*
X85778534Y-92779061D03*
%TD*%
D27*
%TO.C,C15*%
X189027024Y-88929977D03*
X188067024Y-88929977D03*
%TD*%
D47*
%TO.C,C1*%
X223856250Y-44632386D03*
X225406250Y-44632386D03*
%TD*%
D25*
%TO.C,R9*%
X115093750Y-91113750D03*
X115093750Y-90093750D03*
%TD*%
D28*
%TO.C,R21*%
X41472631Y-50537229D03*
X42492631Y-50537229D03*
%TD*%
M02*
