M48
; DRILL file {KiCad (7.0.0)} date Sat Apr  6 15:31:58 2024
; FORMAT={-:-/ absolute / inch / decimal}
; #@! TF.CreationDate,2024-04-06T15:31:58+02:00
; #@! TF.GenerationSoftware,Kicad,Pcbnew,(7.0.0)
; #@! TF.FileFunction,NonPlated,1,4,NPTH
FMAT,2
INCH
; #@! TA.AperFunction,NonPlated,NPTH,ComponentDrill
T1C0.0256
; #@! TA.AperFunction,NonPlated,NPTH,ComponentDrill
T2C0.0866
%
G90
G05
T1
X9.1094Y-1.1336
X9.337Y-1.1336
T2
X1.2188Y-1.625
X1.7812Y-3.875
X2.5312Y-3.875
X2.7188Y-3.125
X2.9062Y-1.625
X3.8438Y-2.375
X4.0312Y-3.875
X4.4062Y-1.625
X4.5Y-3.875
X4.9688Y-3.125
X5.3438Y-2.375
X6.2812Y-3.875
X6.6562Y-1.625
X6.8438Y-2.375
X7.2188Y-3.125
X7.3125Y-3.875
X7.7812Y-3.875
X8.1562Y-1.625
X8.7188Y-3.125
X9.0938Y-2.375
X9.2812Y-3.875
X9.8438Y-1.625
X10.0312Y-3.875
X10.5938Y-1.625
T0
M30
