M48
; DRILL file {KiCad (7.0.0)} date Sat Apr  6 15:31:58 2024
; FORMAT={-:-/ absolute / inch / decimal}
; #@! TF.CreationDate,2024-04-06T15:31:58+02:00
; #@! TF.GenerationSoftware,Kicad,Pcbnew,(7.0.0)
; #@! TF.FileFunction,Plated,1,4,PTH
FMAT,2
INCH
; #@! TA.AperFunction,Plated,PTH,ViaDrill
T1C0.0157
; #@! TA.AperFunction,Plated,PTH,ComponentDrill
T2C0.0236
; #@! TA.AperFunction,Plated,PTH,ComponentDrill
T3C0.0394
%
G90
G05
T1
X1.1251Y-2.7512
X1.1265Y-3.5731
X1.1325Y-1.9995
X1.1325Y-3.4995
X1.1415Y-2.6769
X1.1433Y-3.4359
X1.1487Y-1.9192
X1.1562Y-1.375
X1.2222Y-4.1562
X1.2245Y-1.3791
X1.25Y-2.1562
X1.25Y-2.5938
X1.25Y-2.875
X1.2592Y-3.5462
X1.2812Y-3.4688
X1.3181Y-3.5492
X1.3438Y-2.6875
X1.3438Y-3.4375
X1.3612Y-3.8765
X1.3728Y-1.9767
X1.4037Y-2.7234
X1.4043Y-2.7815
X1.4504Y-3.8738
X1.4607Y-3.1246
X1.4688Y-3.5049
X1.4688Y-3.5625
X1.4704Y-1.9778
X1.4975Y-2.7234
X1.4981Y-2.7815
X1.4987Y-2.4171
X1.5004Y-2.3316
X1.543Y-3.1254
X1.5545Y-1.6246
X1.5641Y-1.977
X1.6028Y-2.7234
X1.6034Y-2.7815
X1.6295Y-1.6255
X1.6382Y-3.3958
X1.64Y-3.473
X1.6871Y-2.416
X1.6877Y-2.3316
X1.6966Y-2.7234
X1.6967Y-2.7815
X1.7319Y-3.3958
X1.7337Y-3.473
X1.7809Y-2.7831
X1.7812Y-1.8799
X1.7812Y-1.9756
X1.7812Y-2.7234
X1.8368Y-3.1242
X1.8437Y-3.638
X1.875Y-1.8793
X1.875Y-2.7234
X1.8786Y-2.7815
X1.8962Y-2.1419
X1.919Y-3.125
X1.9412Y-2.1973
X1.9415Y-2.7227
X1.9415Y-2.6392
X1.9415Y-2.7815
X1.9533Y-2.2914
X1.981Y-2.0257
X2.0334Y-2.3742
X2.0334Y-2.4375
X2.0334Y-2.5312
X2.0334Y-2.6428
X2.0474Y-2.0288
X2.0498Y-2.7231
X2.0498Y-2.7815
X2.0526Y-2.0854
X2.0625Y-1.3438
X2.0662Y-2.2911
X2.0938Y-2.75
X2.1134Y-3.8758
X2.1251Y-2.642
X2.1283Y-1.3573
X2.1801Y-2.3625
X2.1925Y-2.4941
X2.1992Y-3.8751
X2.2188Y-1.8723
X2.2223Y-2.6456
X2.2224Y-2.1348
X2.2229Y-2.7244
X2.3045Y-3.1246
X2.375Y-1.9161
X2.375Y-1.9473
X2.3758Y-2.6468
X2.3769Y-1.9984
X2.377Y-2.7215
X2.3867Y-3.1254
X2.4062Y-2.25
X2.4062Y-2.3848
X2.4378Y-2.0566
X2.4567Y-1.9435
X2.4573Y-2.0123
X2.4811Y-3.3988
X2.4824Y-3.471
X2.492Y-1.6246
X2.5088Y-1.9441
X2.5184Y-2.6513
X2.519Y-2.7227
X2.5195Y-2.8715
X2.5712Y-2.0864
X2.5742Y-1.6254
X2.5744Y-1.9846
X2.5748Y-3.3988
X2.5762Y-3.471
X2.6122Y-2.6513
X2.6128Y-2.7227
X2.6128Y-2.8715
X2.6322Y-3.6654
X2.6717Y-1.9861
X2.6736Y-1.901
X2.6744Y-2.0846
X2.6795Y-2.3746
X2.7617Y-2.3754
X2.9062Y-1.3438
X2.9063Y-3.9162
X2.9068Y-3.8332
X2.9721Y-1.3573
X3.0545Y-3.1246
X3.0935Y-3.8319
X3.0938Y-2.25
X3.0944Y-3.9148
X3.1367Y-3.1254
X3.2314Y-3.4026
X3.232Y-3.4714
X3.2337Y-2.6513
X3.2343Y-2.7201
X3.2347Y-2.8715
X3.242Y-1.6246
X3.3242Y-1.6254
X3.3252Y-3.4026
X3.3258Y-3.4714
X3.3259Y-2.0873
X3.3263Y-1.9714
X3.3275Y-2.6513
X3.328Y-2.8715
X3.3281Y-2.7201
X3.375Y-3.6875
X3.4195Y-1.9026
X3.4196Y-2.0873
X3.42Y-1.9714
X3.4295Y-2.3746
X3.5117Y-2.3754
X3.6548Y-3.9163
X3.6557Y-3.8319
X3.6562Y-1.3438
X3.7221Y-1.3573
X3.8045Y-3.1246
X3.8867Y-3.1254
X3.9062Y-3.6853
X3.9203Y-3.4024
X3.9214Y-3.4711
X3.9834Y-2.6513
X3.984Y-2.7201
X3.985Y-2.8715
X3.992Y-1.6246
X4.014Y-3.4024
X4.0742Y-1.6254
X4.0772Y-2.6513
X4.0777Y-2.7201
X4.0783Y-2.8715
X4.0793Y-2.0873
X4.0799Y-1.9714
X4.1045Y-3.4709
X4.1439Y-3.4709
X4.1459Y-3.4013
X4.1731Y-2.0873
X4.1731Y-1.9026
X4.1737Y-1.9714
X4.1795Y-2.3746
X4.2038Y-3.4041
X4.2617Y-2.3754
X4.2812Y-3.5625
X4.2839Y-3.3997
X4.2842Y-3.4721
X4.4062Y-1.3438
X4.4688Y-1.3573
X4.5312Y-3.7188
X4.5545Y-3.1246
X4.5686Y-3.5473
X4.6367Y-3.1254
X4.7318Y-2.6513
X4.7324Y-2.7201
X4.733Y-2.8338
X4.742Y-1.6246
X4.8242Y-1.6254
X4.8255Y-2.6513
X4.8261Y-2.7201
X4.8263Y-2.8338
X4.8286Y-2.0873
X4.8286Y-1.971
X4.8737Y-3.9171
X4.8754Y-3.8316
X4.9204Y-3.4009
X4.9218Y-1.9022
X4.9222Y-3.4728
X4.9223Y-2.0873
X4.9224Y-1.971
X4.9226Y-3.5493
X4.9295Y-2.3746
X5.0117Y-2.3754
X5.0142Y-3.4009
X5.0159Y-3.4728
X5.0166Y-3.5493
X5.0621Y-3.916
X5.0627Y-3.8316
X5.1562Y-1.3438
X5.2188Y-1.3573
X5.3045Y-3.1246
X5.3867Y-3.1254
X5.3911Y-3.4711
X5.453Y-3.4018
X5.4535Y-2.8338
X5.4537Y-2.6513
X5.4541Y-3.5469
X5.4543Y-2.7201
X5.4553Y-3.4716
X5.4688Y-3.625
X5.4688Y-4.0312
X5.4688Y-4.0716
X5.4688Y-4.1119
X5.492Y-1.6246
X5.5Y-3.6562
X5.5294Y-3.55
X5.5312Y-3.6875
X5.5468Y-2.8338
X5.5474Y-2.6513
X5.548Y-2.7201
X5.5587Y-3.4779
X5.5742Y-1.6254
X5.5805Y-1.9714
X5.5809Y-2.0873
X5.609Y-3.3753
X5.625Y-3.625
X5.6739Y-1.9028
X5.6743Y-1.9714
X5.6746Y-2.0873
X5.6795Y-2.3746
X5.6819Y-3.5507
X5.7228Y-3.375
X5.7228Y-3.4711
X5.7617Y-2.3754
X5.9051Y-3.8392
X5.9062Y-3.9171
X5.9062Y-1.375
X5.9745Y-1.3791
X6.0545Y-3.1246
X6.1367Y-3.1254
X6.1868Y-3.6278
X6.2047Y-2.6513
X6.2053Y-2.7201
X6.207Y-3.4036
X6.2076Y-3.4711
X6.242Y-1.6246
X6.2984Y-2.6513
X6.299Y-2.7201
X6.3007Y-3.4036
X6.3013Y-3.4711
X6.3017Y-3.625
X6.3242Y-1.6254
X6.3296Y-2.0873
X6.3296Y-1.9714
X6.4228Y-1.9028
X6.4233Y-2.0873
X6.4234Y-1.9714
X6.4295Y-2.3746
X6.5117Y-2.3754
X6.6875Y-1.3438
X6.7499Y-3.8329
X6.7501Y-3.9144
X6.7533Y-1.3573
X6.8045Y-3.1246
X6.8867Y-3.1254
X6.9255Y-3.4711
X6.9372Y-3.8329
X6.9386Y-3.9132
X6.992Y-1.6246
X7.0165Y-2.6513
X7.0171Y-2.7201
X7.0187Y-3.4016
X7.0193Y-3.4711
X7.0742Y-1.6254
X7.0806Y-1.9714
X7.0807Y-2.0873
X7.1103Y-2.6513
X7.1108Y-2.7201
X7.1738Y-1.9028
X7.1744Y-1.9714
X7.1744Y-2.0873
X7.1795Y-2.3746
X7.218Y-3.6691
X7.2617Y-2.3754
X7.4042Y-3.4709
X7.4062Y-1.3438
X7.4435Y-3.4709
X7.4688Y-1.3573
X7.5545Y-3.1246
X7.5977Y-3.5948
X7.5977Y-3.6885
X7.6367Y-3.1254
X7.704Y-2.6513
X7.7046Y-2.7201
X7.7103Y-3.481
X7.7116Y-3.4026
X7.742Y-1.6246
X7.75Y-3.6697
X7.7978Y-2.6513
X7.7984Y-2.7201
X7.8225Y-3.4026
X7.8231Y-3.4714
X7.8242Y-1.6254
X7.8316Y-2.0873
X7.8316Y-1.9744
X7.9162Y-3.4026
X7.9168Y-3.4714
X7.9248Y-1.9028
X7.9253Y-2.0873
X7.9254Y-1.9744
X7.9295Y-2.3746
X8.0117Y-2.3754
X8.1159Y-3.875
X8.125Y-1.3438
X8.1875Y-1.3573
X8.197Y-3.8736
X8.3045Y-3.1246
X8.3867Y-3.1254
X8.4375Y-3.6763
X8.4511Y-2.6513
X8.4517Y-2.7201
X8.492Y-1.6246
X8.5448Y-2.6513
X8.5454Y-2.7201
X8.5742Y-1.6254
X8.5787Y-2.0873
X8.5788Y-1.9727
X8.6079Y-3.4026
X8.6085Y-3.4714
X8.672Y-1.904
X8.6725Y-2.0873
X8.6726Y-1.9727
X8.6795Y-2.3746
X8.7016Y-3.4026
X8.7022Y-3.4714
X8.7185Y-3.9153
X8.7188Y-3.8331
X8.7617Y-2.3754
X8.7636Y-1.3877
X8.7651Y-1.9845
X8.8125Y-1.375
X8.8125Y-1.7188
X8.8809Y-1.2955
X8.9041Y-1.875
X8.9058Y-3.9152
X8.9065Y-3.834
X8.9777Y-2.6426
X8.9784Y-2.7195
X8.9855Y-2.5377
X9.0Y-1.625
X9.0599Y-3.1275
X9.0938Y-1.387
X9.0938Y-2.538
X9.0938Y-2.6461
X9.0938Y-2.7195
X9.0997Y-2.0825
X9.1033Y-2.1947
X9.1034Y-2.3026
X9.1236Y-1.3027
X9.1262Y-1.2634
X9.134Y-3.1253
X9.1609Y-1.3152
X9.1875Y-1.2812
X9.1974Y-3.6389
X9.2042Y-3.4026
X9.2048Y-3.4714
X9.2085Y-2.5384
X9.2131Y-2.0783
X9.242Y-1.6246
X9.2864Y-1.2641
X9.2985Y-3.4714
X9.2987Y-3.4026
X9.3219Y-1.6246
X9.3291Y-1.9721
X9.3311Y-2.077
X9.3352Y-3.1241
X9.4136Y-3.125
X9.4223Y-1.9033
X9.4229Y-1.9721
X9.4684Y-2.4143
X9.4691Y-2.332
X9.5938Y-1.375
X9.611Y-3.8729
X9.6562Y-1.2812
X9.6975Y-3.8743
X9.7059Y-3.1219
X9.75Y-1.3438
X9.7925Y-3.1246
X9.8125Y-1.3573
X9.9287Y-3.6137
X9.9371Y-2.418
X9.9379Y-2.3357
X10.0854Y-3.1248
X10.168Y-3.1254
X10.2184Y-1.6643
X10.2191Y-1.582
X10.3121Y-2.0393
X10.3121Y-2.4143
X10.3129Y-1.957
X10.3129Y-2.332
X10.3615Y-3.1246
X10.3624Y-3.875
X10.4437Y-3.1254
X10.4516Y-3.8729
X10.65Y-1.45
X10.6562Y-1.375
X10.6806Y-2.0682
X10.6806Y-2.8182
X10.6834Y-3.5682
X10.6875Y-2.0
X10.6875Y-2.75
X10.6875Y-3.5
T3
X3.0938Y-2.3248
X3.0938Y-2.4248
T2
G00X9.0531Y-1.0017
M15
G01X9.0531Y-0.9781
M16
G05
G00X9.0531Y-1.1761
M15
G01X9.0531Y-1.1328
M16
G05
G00X9.3933Y-1.0017
M15
G01X9.3933Y-0.9781
M16
G05
G00X9.3933Y-1.1761
M15
G01X9.3933Y-1.1328
M16
G05
T0
M30
